<?xml version="1.0" encoding="us-ascii" standalone="no"?><svg xmlns="http://www.w3.org/2000/svg" xmlns:xlink="http://www.w3.org/1999/xlink" contentStyleType="text/css" height="615px" preserveAspectRatio="none" style="width:788px;height:615px;background:#FFFFFF;" version="1.1" viewBox="0 0 788 615" width="788px" zoomAndPan="magnify"><defs/><g><text fill="#000000" font-family="sans-serif" font-size="14" font-weight="bold" lengthAdjust="spacing" textLength="186" x="294" y="24.5332">Level 3 Development View</text><!--cluster Port Magement System--><g id="cluster_Port Magement System"><rect fill="#87CEFA" height="564" rx="2.5" ry="2.5" style="stroke:#000000;stroke-width:1.0;" width="775" x="7" y="45.6094"/><text fill="#000000" font-family="sans-serif" font-size="14" font-weight="bold" lengthAdjust="spacing" textLength="161" x="314" y="62.1426">Port Magement System</text></g><!--cluster infra--><g id="cluster_infra"><rect fill="#87CEFA" height="90" rx="2.5" ry="2.5" style="stroke:#000000;stroke-width:1.0;" width="513" x="174" y="97.6094"/><text fill="#000000" font-family="sans-serif" font-size="14" font-weight="bold" lengthAdjust="spacing" textLength="97" x="182" y="114.1426">Infrastructure</text></g><!--cluster adapters--><g id="cluster_adapters"><rect fill="#87CEFA" height="90" rx="2.5" ry="2.5" style="stroke:#000000;stroke-width:1.0;" width="530" x="162" y="227.6094"/><text fill="#000000" font-family="sans-serif" font-size="14" font-weight="bold" lengthAdjust="spacing" textLength="130" x="170" y="244.1426">Interface Adapters</text></g><!--cluster appserv--><g id="cluster_appserv"><rect fill="#87CEFA" height="90" rx="2.5" ry="2.5" style="stroke:#000000;stroke-width:1.0;" width="548" x="121" y="357.6094"/><text fill="#000000" font-family="sans-serif" font-size="14" font-weight="bold" lengthAdjust="spacing" textLength="288" x="129" y="374.1426">Application Services / Use Case Services</text></g><!--cluster domain--><g id="cluster_domain"><rect fill="#87CEFA" height="90" rx="2.5" ry="2.5" style="stroke:#000000;stroke-width:1.0;" width="711" x="39" y="487.6094"/><text fill="#000000" font-family="sans-serif" font-size="14" font-weight="bold" lengthAdjust="spacing" textLength="147" x="137" y="504.1426">Entities/Core/Domain</text></g><!--entity Routes--><g id="elem_Routes"><path d="M263.5,133.6094 L316.5,133.6094 A3.75,3.75 0 0 1 319,136.1094 L326,154.7031 L340.5,154.7031 A2.5,2.5 0 0 1 343,157.2031 L343,169.2031 A2.5,2.5 0 0 1 340.5,171.7031 L263.5,171.7031 A2.5,2.5 0 0 1 261,169.2031 L261,136.1094 A2.5,2.5 0 0 1 263.5,133.6094 " fill="#87CEFA" style="stroke:#000000;stroke-width:0.5;"/><line style="stroke:#000000;stroke-width:0.5;" x1="261" x2="326" y1="154.7031" y2="154.7031"/><text fill="#000000" font-family="sans-serif" font-size="12" font-weight="bold" lengthAdjust="spacing" textLength="40" x="271" y="149.0664">Routes</text></g><!--entity Persistence--><g id="elem_Persistence"><path d="M381,133.6094 L463,133.6094 A3.75,3.75 0 0 1 465.5,136.1094 L472.5,154.7031 L487,154.7031 A2.5,2.5 0 0 1 489.5,157.2031 L489.5,169.2031 A2.5,2.5 0 0 1 487,171.7031 L381,171.7031 A2.5,2.5 0 0 1 378.5,169.2031 L378.5,136.1094 A2.5,2.5 0 0 1 381,133.6094 " fill="#87CEFA" style="stroke:#000000;stroke-width:0.5;"/><line style="stroke:#000000;stroke-width:0.5;" x1="378.5" x2="472.5" y1="154.7031" y2="154.7031"/><text fill="#000000" font-family="sans-serif" font-size="12" font-weight="bold" lengthAdjust="spacing" textLength="69" x="388.5" y="149.0664">Persistence</text></g><!--entity Controllers--><g id="elem_Controllers"><path d="M246,263.6094 L322,263.6094 A3.75,3.75 0 0 1 324.5,266.1094 L331.5,284.7031 L346,284.7031 A2.5,2.5 0 0 1 348.5,287.2031 L348.5,299.2031 A2.5,2.5 0 0 1 346,301.7031 L246,301.7031 A2.5,2.5 0 0 1 243.5,299.2031 L243.5,266.1094 A2.5,2.5 0 0 1 246,263.6094 " fill="#87CEFA" style="stroke:#000000;stroke-width:0.5;"/><line style="stroke:#000000;stroke-width:0.5;" x1="243.5" x2="331.5" y1="284.7031" y2="284.7031"/><text fill="#000000" font-family="sans-serif" font-size="12" font-weight="bold" lengthAdjust="spacing" textLength="63" x="253.5" y="279.0664">Controllers</text></g><!--entity Repositories--><g id="elem_Repositories"><path d="M386.5,263.6094 L471.5,263.6094 A3.75,3.75 0 0 1 474,266.1094 L481,284.7031 L495.5,284.7031 A2.5,2.5 0 0 1 498,287.2031 L498,299.2031 A2.5,2.5 0 0 1 495.5,301.7031 L386.5,301.7031 A2.5,2.5 0 0 1 384,299.2031 L384,266.1094 A2.5,2.5 0 0 1 386.5,263.6094 " fill="#87CEFA" style="stroke:#000000;stroke-width:0.5;"/><line style="stroke:#000000;stroke-width:0.5;" x1="384" x2="481" y1="284.7031" y2="284.7031"/><text fill="#000000" font-family="sans-serif" font-size="12" font-weight="bold" lengthAdjust="spacing" textLength="72" x="394" y="279.0664">Repositories</text></g><!--entity AppServices--><g id="elem_AppServices"><path d="M329.5,393.6094 L414.5,393.6094 A3.75,3.75 0 0 1 417,396.1094 L424,414.7031 L438.5,414.7031 A2.5,2.5 0 0 1 441,417.2031 L441,429.2031 A2.5,2.5 0 0 1 438.5,431.7031 L329.5,431.7031 A2.5,2.5 0 0 1 327,429.2031 L327,396.1094 A2.5,2.5 0 0 1 329.5,393.6094 " fill="#87CEFA" style="stroke:#000000;stroke-width:0.5;"/><line style="stroke:#000000;stroke-width:0.5;" x1="327" x2="424" y1="414.7031" y2="414.7031"/><text fill="#000000" font-family="sans-serif" font-size="12" font-weight="bold" lengthAdjust="spacing" textLength="72" x="337" y="409.0664">AppServices</text></g><!--entity Aggregates--><g id="elem_Aggregates"><path d="M628.5,523.6094 L707.5,523.6094 A3.75,3.75 0 0 1 710,526.1094 L717,544.7031 L731.5,544.7031 A2.5,2.5 0 0 1 734,547.2031 L734,559.2031 A2.5,2.5 0 0 1 731.5,561.7031 L628.5,561.7031 A2.5,2.5 0 0 1 626,559.2031 L626,526.1094 A2.5,2.5 0 0 1 628.5,523.6094 " fill="#87CEFA" style="stroke:#000000;stroke-width:0.5;"/><line style="stroke:#000000;stroke-width:0.5;" x1="626" x2="717" y1="544.7031" y2="544.7031"/><text fill="#000000" font-family="sans-serif" font-size="12" font-weight="bold" lengthAdjust="spacing" textLength="66" x="636" y="539.0664">Aggregates</text></g><!--entity Value_Objects--><g id="elem_Value_Objects"><path d="M468,523.6094 L564,523.6094 A3.75,3.75 0 0 1 566.5,526.1094 L573.5,544.7031 L588,544.7031 A2.5,2.5 0 0 1 590.5,547.2031 L590.5,559.2031 A2.5,2.5 0 0 1 588,561.7031 L468,561.7031 A2.5,2.5 0 0 1 465.5,559.2031 L465.5,526.1094 A2.5,2.5 0 0 1 468,523.6094 " fill="#87CEFA" style="stroke:#000000;stroke-width:0.5;"/><line style="stroke:#000000;stroke-width:0.5;" x1="465.5" x2="573.5" y1="544.7031" y2="544.7031"/><text fill="#000000" font-family="sans-serif" font-size="12" font-weight="bold" lengthAdjust="spacing" textLength="83" x="475.5" y="539.0664">Value_Objects</text></g><!--entity Services--><g id="elem_Services"><path d="M340.5,523.6094 L403.5,523.6094 A3.75,3.75 0 0 1 406,526.1094 L413,544.7031 L427.5,544.7031 A2.5,2.5 0 0 1 430,547.2031 L430,559.2031 A2.5,2.5 0 0 1 427.5,561.7031 L340.5,561.7031 A2.5,2.5 0 0 1 338,559.2031 L338,526.1094 A2.5,2.5 0 0 1 340.5,523.6094 " fill="#87CEFA" style="stroke:#000000;stroke-width:0.5;"/><line style="stroke:#000000;stroke-width:0.5;" x1="338" x2="413" y1="544.7031" y2="544.7031"/><text fill="#000000" font-family="sans-serif" font-size="12" font-weight="bold" lengthAdjust="spacing" textLength="50" x="348" y="539.0664">Services</text></g><!--entity Factories--><g id="elem_Factories"><path d="M210,523.6094 L276,523.6094 A3.75,3.75 0 0 1 278.5,526.1094 L285.5,544.7031 L300,544.7031 A2.5,2.5 0 0 1 302.5,547.2031 L302.5,559.2031 A2.5,2.5 0 0 1 300,561.7031 L210,561.7031 A2.5,2.5 0 0 1 207.5,559.2031 L207.5,526.1094 A2.5,2.5 0 0 1 210,523.6094 " fill="#87CEFA" style="stroke:#000000;stroke-width:0.5;"/><line style="stroke:#000000;stroke-width:0.5;" x1="207.5" x2="285.5" y1="544.7031" y2="544.7031"/><text fill="#000000" font-family="sans-serif" font-size="12" font-weight="bold" lengthAdjust="spacing" textLength="53" x="217.5" y="539.0664">Factories</text></g><!--entity IRepositories--><g id="elem_IRepositories"><path d="M58,523.6094 L146,523.6094 A3.75,3.75 0 0 1 148.5,526.1094 L155.5,544.7031 L170,544.7031 A2.5,2.5 0 0 1 172.5,547.2031 L172.5,559.2031 A2.5,2.5 0 0 1 170,561.7031 L58,561.7031 A2.5,2.5 0 0 1 55.5,559.2031 L55.5,526.1094 A2.5,2.5 0 0 1 58,523.6094 " fill="#87CEFA" style="stroke:#000000;stroke-width:0.5;"/><line style="stroke:#000000;stroke-width:0.5;" x1="55.5" x2="155.5" y1="544.7031" y2="544.7031"/><text fill="#000000" font-family="sans-serif" font-size="12" font-weight="bold" lengthAdjust="spacing" textLength="75" x="65.5" y="539.0664">IRepositories</text></g><!--link Routes to Controllers--><g id="link_Routes_Controllers"><path d="M301.15,171.6794 C300.02,195.9394 298.2922,232.806 297.1422,257.226 " fill="none" id="Routes-to-Controllers" style="stroke:#181818;stroke-width:1.0;stroke-dasharray:7.0,7.0;"/><polygon fill="#181818" points="296.86,263.2194,301.2789,254.4175,297.0952,258.2249,293.2878,254.0412,296.86,263.2194" style="stroke:#181818;stroke-width:1.0;"/></g><!--link Controllers to AppServices--><g id="link_Controllers_AppServices"><path d="M308.42,301.6794 C325.1,325.9394 351.1707,363.8552 367.9607,388.2752 " fill="none" id="Controllers-to-AppServices" style="stroke:#181818;stroke-width:1.0;stroke-dasharray:7.0,7.0;"/><polygon fill="#181818" points="371.36,393.2194,369.5571,383.5369,368.5272,389.0993,362.9649,388.0694,371.36,393.2194" style="stroke:#181818;stroke-width:1.0;"/></g><!--reverse link Persistence to Repositories--><g id="link_Persistence_Repositories"><path d="M435.316,177.6705 C436.636,201.9305 438.66,238.7994 439.99,263.2194 " fill="none" id="Persistence-backto-Repositories" style="stroke:#181818;stroke-width:1.0;stroke-dasharray:7.0,7.0;"/><polygon fill="#181818" points="434.99,171.6794,431.4849,180.8834,435.2617,176.672,439.4731,180.4488,434.99,171.6794" style="stroke:#181818;stroke-width:1.0;"/></g><!--link Repositories to AppServices--><g id="link_Repositories_AppServices"><path d="M432.95,301.6794 C422.15,325.9394 405.5,363.3179 394.63,387.7379 " fill="none" id="Repositories-to-AppServices" style="stroke:#181818;stroke-width:1.0;stroke-dasharray:7.0,7.0;"/><polygon fill="#181818" points="392.19,393.2194,399.5043,386.6238,394.2233,388.6515,392.1956,383.3705,392.19,393.2194" style="stroke:#181818;stroke-width:1.0;"/></g><!--link AppServices to Aggregates--><g id="link_AppServices_Aggregates"><path d="M441.34,420.1594 C488.51,427.4294 555.83,442.2694 608,471.6094 C631.4,484.7694 648.8671,502.8132 662.1271,518.7832 " fill="none" id="AppServices-to-Aggregates" style="stroke:#181818;stroke-width:1.0;stroke-dasharray:7.0,7.0;"/><polygon fill="#181818" points="665.96,523.3994,663.2882,513.9199,662.766,519.5525,657.1333,519.0303,665.96,523.3994" style="stroke:#181818;stroke-width:1.0;"/></g><!--link AppServices to Value_Objects--><g id="link_AppServices_Value_Objects"><path d="M404.33,431.6794 C431.62,455.9394 475.3557,494.813 502.8257,519.233 " fill="none" id="AppServices-to-Value_Objects" style="stroke:#181818;stroke-width:1.0;stroke-dasharray:7.0,7.0;"/><polygon fill="#181818" points="507.31,523.2194,503.2412,514.2503,503.5731,519.8974,497.926,520.2293,507.31,523.2194" style="stroke:#181818;stroke-width:1.0;"/></g><!--link AppServices to Services--><g id="link_AppServices_Services"><path d="M384,431.6794 C384,455.9394 384,492.7994 384,517.2194 " fill="none" id="AppServices-to-Services" style="stroke:#181818;stroke-width:1.0;stroke-dasharray:7.0,7.0;"/><polygon fill="#181818" points="384,523.2194,388,514.2194,384,518.2194,380,514.2194,384,523.2194" style="stroke:#181818;stroke-width:1.0;"/></g><!--link AppServices to IRepositories--><g id="link_AppServices_IRepositories"><path d="M326.95,423.5494 C286.78,432.1994 232.77,447.2694 190,471.6094 C166.15,485.1894 147.6783,503.0837 133.4383,518.8737 " fill="none" id="AppServices-to-IRepositories" style="stroke:#181818;stroke-width:1.0;stroke-dasharray:7.0,7.0;"/><polygon fill="#181818" points="129.42,523.3294,138.4179,519.3247,132.7686,519.6163,132.477,513.967,129.42,523.3294" style="stroke:#181818;stroke-width:1.0;"/></g><!--link AppServices to Factories--><g id="link_AppServices_Factories"><path d="M363.52,431.7994 C351.03,443.0494 334.85,457.9194 321,471.6094 C303.65,488.7494 288.6867,504.6886 275.5367,519.0186 " fill="none" id="AppServices-to-Factories" style="stroke:#181818;stroke-width:1.0;stroke-dasharray:7.0,7.0;"/><polygon fill="#181818" points="271.48,523.4394,280.5122,519.5127,274.8606,519.7554,274.6179,514.1038,271.48,523.4394" style="stroke:#181818;stroke-width:1.0;"/></g><!--SRC=[lLHDJzmm4BtxLupI-oujX_Q4j2oiX4HLr1LSaN4cmINnMEC9YABzxpWBcpXBogUA3yvatcHctlCuOgL2ECPhh60N3jed-HgTm9d56wN2bNLUiwx1QtEbIrpARVo0qOXsPOLF0-1E0Un7ksHgN3wdYXY-_FXkiD15qMB4EVAZVsUzedT1JfRsByBNRsgLPEqglIllIYaX3q9mGI9KGsxRX9QSKfj-inDYWP_HNFDUtWR1EkjJhmi3h3UX4kKI-T7Nhhx1xCWLh8DmOwHXX4zO6UW0jYtRzZi_NCoIpjgr8VcR6i4m2fqW1nivEuCTlbBz_YhYWbneWp3BjOzs-1JYUbFiUUxpE5fCLHKZnxL1Jy4AiKqKUgC2C-yhQtGxMR14lhO60qpXDCJoEcwTx-EalGynsGkSOp-Rak-bTEZ4IfHaEYV6wG7Lshh_VgJvGvaNo9KbOwd_DT3PcQuQFFzryIUI2Tbep1DnKd2XpTOqfEZHi_CI_pWFTmqcETsuoTvW_1AxmzEZIbF3fF4HJg_d46PRNifM0fMyz1LwlSRWWLoZ4Ltw0HY1eHRRQA_ZFG00]--></g></svg>