<?xml version="1.0" encoding="us-ascii" standalone="no"?><svg xmlns="http://www.w3.org/2000/svg" xmlns:xlink="http://www.w3.org/1999/xlink" contentStyleType="text/css" height="1039px" preserveAspectRatio="none" style="width:848px;height:1039px;background:#FFFFFF;" version="1.1" viewBox="0 0 848 1039" width="848px" zoomAndPan="magnify"><defs/><g><!--cluster pms--><g id="cluster_pms"><rect fill="none" height="869" style="stroke:#444444;stroke-width:1.0;stroke-dasharray:7.0,7.0;" width="451" x="253.5" y="164.5"/><text fill="#444444" font-family="sans-serif" font-size="16" font-weight="bold" lengthAdjust="spacing" textLength="195" x="381.5" y="203.1094">Port Management System</text><text fill="#444444" font-family="sans-serif" font-size="12" font-weight="bold" lengthAdjust="spacing" textLength="50" x="454" y="219.082">[system]</text></g><!--entity gui--><g id="elem_gui"><rect fill="#438DD5" height="55.2188" style="stroke:#3C7FC0;stroke-width:0.5;" width="131" x="276" y="238.5"/><text fill="#FFFFFF" font-family="sans-serif" font-size="12" font-style="italic" lengthAdjust="spacing" textLength="65" x="309" y="260.957">&#171;container&#187;</text><text fill="#FFFFFF" font-family="sans-serif" font-size="16" font-weight="bold" lengthAdjust="spacing" textLength="34" x="286" y="280.2031">Web</text><text fill="#FFFFFF" font-family="sans-serif" font-size="16" font-weight="bold" lengthAdjust="spacing" textLength="4" x="320" y="280.2031">&#160;</text><text fill="#FFFFFF" font-family="sans-serif" font-size="16" font-weight="bold" lengthAdjust="spacing" textLength="31" x="324" y="280.2031">App</text><text fill="#FFFFFF" font-family="sans-serif" font-size="16" font-weight="bold" lengthAdjust="spacing" textLength="4" x="355" y="280.2031">&#160;</text><text fill="#FFFFFF" font-family="sans-serif" font-size="16" font-weight="bold" lengthAdjust="spacing" textLength="38" x="359" y="280.2031">(GUI)</text></g><!--entity api--><g id="elem_api"><rect fill="#438DD5" height="70.3125" style="stroke:#3C7FC0;stroke-width:0.5;" width="123" x="280" y="370.5"/><text fill="#FFFFFF" font-family="sans-serif" font-size="12" font-style="italic" lengthAdjust="spacing" textLength="65" x="309" y="392.957">&#171;container&#187;</text><text fill="#FFFFFF" font-family="sans-serif" font-size="16" font-weight="bold" lengthAdjust="spacing" textLength="68" x="290" y="412.2031">Backend</text><text fill="#FFFFFF" font-family="sans-serif" font-size="16" font-weight="bold" lengthAdjust="spacing" textLength="4" x="358" y="412.2031">&#160;</text><text fill="#FFFFFF" font-family="sans-serif" font-size="16" font-weight="bold" lengthAdjust="spacing" textLength="31" x="362" y="412.2031">App</text><text fill="#FFFFFF" font-family="sans-serif" font-size="12" font-style="italic" lengthAdjust="spacing" textLength="33" x="325" y="428.1758">[.NET]</text></g><!--entity planning--><g id="elem_planning"><rect fill="#438DD5" height="70.3125" style="stroke:#3C7FC0;stroke-width:0.5;" width="149" x="284" y="947.5"/><text fill="#FFFFFF" font-family="sans-serif" font-size="12" font-style="italic" lengthAdjust="spacing" textLength="65" x="326" y="969.957">&#171;container&#187;</text><text fill="#FFFFFF" font-family="sans-serif" font-size="16" font-weight="bold" lengthAdjust="spacing" textLength="68" x="294" y="989.2031">Planning</text><text fill="#FFFFFF" font-family="sans-serif" font-size="16" font-weight="bold" lengthAdjust="spacing" textLength="4" x="362" y="989.2031">&#160;</text><text fill="#FFFFFF" font-family="sans-serif" font-size="16" font-weight="bold" lengthAdjust="spacing" textLength="57" x="366" y="989.2031">Service</text><text fill="#FFFFFF" font-family="sans-serif" font-size="12" font-style="italic" lengthAdjust="spacing" textLength="47" x="335" y="1005.1758">[Service]</text></g><!--entity mdv--><g id="elem_mdv"><rect fill="#438DD5" height="123.1406" style="stroke:#3C7FC0;stroke-width:0.5;" width="219" x="405" y="732.5"/><text fill="#FFFFFF" font-family="sans-serif" font-size="12" font-style="italic" lengthAdjust="spacing" textLength="65" x="482" y="754.957">&#171;container&#187;</text><text fill="#FFFFFF" font-family="sans-serif" font-size="16" font-weight="bold" lengthAdjust="spacing" textLength="34" x="467" y="774.2031">VVN</text><text fill="#FFFFFF" font-family="sans-serif" font-size="16" font-weight="bold" lengthAdjust="spacing" textLength="4" x="501" y="774.2031">&#160;</text><text fill="#FFFFFF" font-family="sans-serif" font-size="16" font-weight="bold" lengthAdjust="spacing" textLength="57" x="505" y="774.2031">Service</text><text fill="#FFFFFF" font-family="sans-serif" font-size="12" font-style="italic" lengthAdjust="spacing" textLength="47" x="491" y="790.1758">[Service]</text><text fill="#FFFFFF" font-family="sans-serif" font-size="14" lengthAdjust="spacing" textLength="4" x="512.5" y="807.3457">&#160;</text><text fill="#FFFFFF" font-family="sans-serif" font-size="14" lengthAdjust="spacing" textLength="42" x="415" y="824.9551">Vessel</text><text fill="#FFFFFF" font-family="sans-serif" font-size="14" lengthAdjust="spacing" textLength="4" x="457" y="824.9551">&#160;</text><text fill="#FFFFFF" font-family="sans-serif" font-size="14" lengthAdjust="spacing" textLength="26" x="461" y="824.9551">Visit</text><text fill="#FFFFFF" font-family="sans-serif" font-size="14" lengthAdjust="spacing" textLength="4" x="487" y="824.9551">&#160;</text><text fill="#FFFFFF" font-family="sans-serif" font-size="14" lengthAdjust="spacing" textLength="80" x="491" y="824.9551">Notifications,</text><text fill="#FFFFFF" font-family="sans-serif" font-size="14" lengthAdjust="spacing" textLength="4" x="571" y="824.9551">&#160;</text><text fill="#FFFFFF" font-family="sans-serif" font-size="14" lengthAdjust="spacing" textLength="39" x="575" y="824.9551">Cargo</text><text fill="#FFFFFF" font-family="sans-serif" font-size="14" lengthAdjust="spacing" textLength="60" x="484.5" y="842.5645">Manifests</text></g><!--entity mdr--><g id="elem_mdr"><rect fill="#438DD5" height="123.1406" style="stroke:#3C7FC0;stroke-width:0.5;" width="210" x="478.5" y="517.5"/><text fill="#FFFFFF" font-family="sans-serif" font-size="12" font-style="italic" lengthAdjust="spacing" textLength="65" x="551" y="539.957">&#171;container&#187;</text><text fill="#FFFFFF" font-family="sans-serif" font-size="16" font-weight="bold" lengthAdjust="spacing" textLength="35" x="535.5" y="559.2031">Data</text><text fill="#FFFFFF" font-family="sans-serif" font-size="16" font-weight="bold" lengthAdjust="spacing" textLength="4" x="570.5" y="559.2031">&#160;</text><text fill="#FFFFFF" font-family="sans-serif" font-size="16" font-weight="bold" lengthAdjust="spacing" textLength="57" x="574.5" y="559.2031">Service</text><text fill="#FFFFFF" font-family="sans-serif" font-size="12" font-style="italic" lengthAdjust="spacing" textLength="47" x="560" y="575.1758">[Service]</text><text fill="#FFFFFF" font-family="sans-serif" font-size="14" lengthAdjust="spacing" textLength="4" x="581.5" y="592.3457">&#160;</text><text fill="#FFFFFF" font-family="sans-serif" font-size="14" lengthAdjust="spacing" textLength="91" x="488.5" y="609.9551">Organizations,</text><text fill="#FFFFFF" font-family="sans-serif" font-size="14" lengthAdjust="spacing" textLength="4" x="579.5" y="609.9551">&#160;</text><text fill="#FFFFFF" font-family="sans-serif" font-size="14" lengthAdjust="spacing" textLength="29" x="583.5" y="609.9551">Staff</text><text fill="#FFFFFF" font-family="sans-serif" font-size="14" lengthAdjust="spacing" textLength="4" x="612.5" y="609.9551">&#160;</text><text fill="#FFFFFF" font-family="sans-serif" font-size="14" lengthAdjust="spacing" textLength="62" x="616.5" y="609.9551">Members,</text><text fill="#FFFFFF" font-family="sans-serif" font-size="14" lengthAdjust="spacing" textLength="54" x="506.5" y="627.5645">Storage,</text><text fill="#FFFFFF" font-family="sans-serif" font-size="14" lengthAdjust="spacing" textLength="4" x="560.5" y="627.5645">&#160;</text><text fill="#FFFFFF" font-family="sans-serif" font-size="14" lengthAdjust="spacing" textLength="43" x="564.5" y="627.5645">Docks,</text><text fill="#FFFFFF" font-family="sans-serif" font-size="14" lengthAdjust="spacing" textLength="4" x="607.5" y="627.5645">&#160;</text><text fill="#FFFFFF" font-family="sans-serif" font-size="14" lengthAdjust="spacing" textLength="49" x="611.5" y="627.5645">Vessels</text></g><!--entity admin--><g id="elem_admin"><ellipse cx="55.5" cy="30.5" fill="#F1F1F1" rx="16" ry="16" style="stroke:#181818;stroke-width:0.5;"/><path d="M55.5,50.5 C59.5,50.5 62.5,50.5 66.5,46.5 C74.5,46.5 82.5,54.5 82.5,62.5 L82.5,66.5 C82.5,70.5 78.5,74.5 74.5,74.5 L36.5,74.5 C32.5,74.5 28.5,70.5 28.5,66.5 L28.5,62.5 C28.5,54.5 36.5,46.5 44.5,46.5 C48.5,50.5 51.5,50.5 55.5,50.5 " fill="#F1F1F1" style="stroke:#181818;stroke-width:0.5;"/><text fill="#000000" font-family="sans-serif" font-size="14" lengthAdjust="spacing" textLength="83" x="6" y="89.5332">Administrator</text><text fill="#000000" font-family="sans-serif" font-size="14" lengthAdjust="spacing" textLength="4" x="89" y="89.5332">&#160;</text><text fill="#000000" font-family="sans-serif" font-size="14" lengthAdjust="spacing" textLength="12" x="93" y="89.5332">UI</text></g><!--entity agent--><g id="elem_agent"><ellipse cx="238.5" cy="22" fill="#F1F1F1" rx="16" ry="16" style="stroke:#181818;stroke-width:0.5;"/><path d="M238.5,42 C242.5,42 245.5,42 249.5,38 C257.5,38 265.5,46 265.5,54 L265.5,58 C265.5,62 261.5,66 257.5,66 L219.5,66 C215.5,66 211.5,62 211.5,58 L211.5,54 C211.5,46 219.5,38 227.5,38 C231.5,42 234.5,42 238.5,42 " fill="#F1F1F1" style="stroke:#181818;stroke-width:0.5;"/><text fill="#000000" font-family="sans-serif" font-size="14" lengthAdjust="spacing" textLength="55" x="140.5" y="81.0332">Shipping</text><text fill="#000000" font-family="sans-serif" font-size="14" lengthAdjust="spacing" textLength="4" x="195.5" y="81.0332">&#160;</text><text fill="#000000" font-family="sans-serif" font-size="14" lengthAdjust="spacing" textLength="37" x="199.5" y="81.0332">Agent</text><text fill="#000000" font-family="sans-serif" font-size="14" lengthAdjust="spacing" textLength="4" x="236.5" y="81.0332">&#160;</text><text fill="#000000" font-family="sans-serif" font-size="14" lengthAdjust="spacing" textLength="96" x="240.5" y="81.0332">Representative</text><text fill="#000000" font-family="sans-serif" font-size="14" lengthAdjust="spacing" textLength="12" x="232.5" y="98.6426">UI</text></g><!--entity officer--><g id="elem_officer"><ellipse cx="445.5" cy="30.5" fill="#F1F1F1" rx="16" ry="16" style="stroke:#181818;stroke-width:0.5;"/><path d="M445.5,50.5 C449.5,50.5 452.5,50.5 456.5,46.5 C464.5,46.5 472.5,54.5 472.5,62.5 L472.5,66.5 C472.5,70.5 468.5,74.5 464.5,74.5 L426.5,74.5 C422.5,74.5 418.5,70.5 418.5,66.5 L418.5,62.5 C418.5,54.5 426.5,46.5 434.5,46.5 C438.5,50.5 441.5,50.5 445.5,50.5 " fill="#F1F1F1" style="stroke:#181818;stroke-width:0.5;"/><text fill="#000000" font-family="sans-serif" font-size="14" lengthAdjust="spacing" textLength="26" x="371.5" y="89.5332">Port</text><text fill="#000000" font-family="sans-serif" font-size="14" lengthAdjust="spacing" textLength="4" x="397.5" y="89.5332">&#160;</text><text fill="#000000" font-family="sans-serif" font-size="14" lengthAdjust="spacing" textLength="56" x="401.5" y="89.5332">Authority</text><text fill="#000000" font-family="sans-serif" font-size="14" lengthAdjust="spacing" textLength="4" x="457.5" y="89.5332">&#160;</text><text fill="#000000" font-family="sans-serif" font-size="14" lengthAdjust="spacing" textLength="42" x="461.5" y="89.5332">Officer</text><text fill="#000000" font-family="sans-serif" font-size="14" lengthAdjust="spacing" textLength="4" x="503.5" y="89.5332">&#160;</text><text fill="#000000" font-family="sans-serif" font-size="14" lengthAdjust="spacing" textLength="12" x="507.5" y="89.5332">UI</text></g><!--entity operator--><g id="elem_operator"><ellipse cx="620.5" cy="30.5" fill="#F1F1F1" rx="16" ry="16" style="stroke:#181818;stroke-width:0.5;"/><path d="M620.5,50.5 C624.5,50.5 627.5,50.5 631.5,46.5 C639.5,46.5 647.5,54.5 647.5,62.5 L647.5,66.5 C647.5,70.5 643.5,74.5 639.5,74.5 L601.5,74.5 C597.5,74.5 593.5,70.5 593.5,66.5 L593.5,62.5 C593.5,54.5 601.5,46.5 609.5,46.5 C613.5,50.5 616.5,50.5 620.5,50.5 " fill="#F1F1F1" style="stroke:#181818;stroke-width:0.5;"/><text fill="#000000" font-family="sans-serif" font-size="14" lengthAdjust="spacing" textLength="55" x="554.5" y="89.5332">Logistics</text><text fill="#000000" font-family="sans-serif" font-size="14" lengthAdjust="spacing" textLength="4" x="609.5" y="89.5332">&#160;</text><text fill="#000000" font-family="sans-serif" font-size="14" lengthAdjust="spacing" textLength="57" x="613.5" y="89.5332">Operator</text><text fill="#000000" font-family="sans-serif" font-size="14" lengthAdjust="spacing" textLength="4" x="670.5" y="89.5332">&#160;</text><text fill="#000000" font-family="sans-serif" font-size="14" lengthAdjust="spacing" textLength="12" x="674.5" y="89.5332">UI</text></g><!--entity API--><g id="elem_API"><ellipse cx="747.5" cy="982.5" fill="#F1F1F1" rx="8" ry="8" style="stroke:#181818;stroke-width:0.5;"/><text fill="#000000" font-family="sans-serif" font-size="14" lengthAdjust="spacing" textLength="21" x="737" y="1014.0332">API</text></g><!--link agent to gui--><g id="link_agent_gui"><path d="M261.62,101.74 C282.26,143.92 308.222,197.0051 325.002,231.2751 " fill="none" id="agent-to-gui" style="stroke:#666666;stroke-width:1.0;"/><polygon fill="#666666" points="328.52,238.46,327.6963,229.9558,322.3076,232.5943,328.52,238.46" style="stroke:#666666;stroke-width:1.0;"/><text fill="#666666" font-family="sans-serif" font-size="12" font-weight="bold" lengthAdjust="spacing" textLength="29" x="285.5" y="144.957">Uses</text></g><!--link officer to gui--><g id="link_officer_gui"><path d="M426.42,93.11 C405.61,135.24 376.3733,194.4175 358.2333,231.1375 " fill="none" id="officer-to-gui" style="stroke:#666666;stroke-width:1.0;"/><polygon fill="#666666" points="354.69,238.31,360.923,232.4662,355.5436,229.8087,354.69,238.31" style="stroke:#666666;stroke-width:1.0;"/><text fill="#666666" font-family="sans-serif" font-size="12" font-weight="bold" lengthAdjust="spacing" textLength="29" x="407.5" y="144.957">Uses</text></g><!--link operator to gui--><g id="link_operator_gui"><path d="M569.33,93.11 C513.48,135.24 431.9363,196.7718 383.2663,233.4918 " fill="none" id="operator-to-gui" style="stroke:#666666;stroke-width:1.0;"/><polygon fill="#666666" points="376.88,238.31,385.0731,235.8866,381.4594,231.0969,376.88,238.31" style="stroke:#666666;stroke-width:1.0;"/><text fill="#666666" font-family="sans-serif" font-size="12" font-weight="bold" lengthAdjust="spacing" textLength="29" x="515.5" y="144.957">Uses</text></g><!--link admin to gui--><g id="link_admin_gui"><path d="M105.32,91.17 C162.45,133.22 248.2969,196.398 298.9369,233.668 " fill="none" id="admin-to-gui" style="stroke:#666666;stroke-width:1.0;"/><polygon fill="#666666" points="305.38,238.41,300.7151,231.2518,297.1587,236.0842,305.38,238.41" style="stroke:#666666;stroke-width:1.0;"/><text fill="#666666" font-family="sans-serif" font-size="12" font-weight="bold" lengthAdjust="spacing" textLength="29" x="182.5" y="144.957">Uses</text></g><!--link gui to api--><g id="link_gui_api"><path d="M341.5,293.51 C341.5,315.36 341.5,338.51 341.5,362.25 " fill="none" id="gui-to-api" style="stroke:#666666;stroke-width:1.0;"/><polygon fill="#666666" points="341.5,370.25,344.5,362.25,338.5,362.25,341.5,370.25" style="stroke:#666666;stroke-width:1.0;"/><text fill="#666666" font-family="sans-serif" font-size="12" font-weight="bold" lengthAdjust="spacing" textLength="30" x="342.5" y="336.957">REST</text></g><!--link api to planning--><g id="link_api_planning"><path d="M328.87,440.69 C325.73,450.23 322.65,460.68 320.5,470.5 C301.34,557.9 302.62,581.17 297.5,670.5 C291.64,772.67 323.9036,882.9831 343.4036,939.8131 " fill="none" id="api-to-planning" style="stroke:#666666;stroke-width:1.0;"/><polygon fill="#666666" points="346,947.38,346.2412,938.8394,340.566,940.7867,346,947.38" style="stroke:#666666;stroke-width:1.0;"/><text fill="#666666" font-family="sans-serif" font-size="12" font-weight="bold" lengthAdjust="spacing" textLength="44" x="298.5" y="691.457">invokes</text><text fill="#666666" font-family="sans-serif" font-size="12" font-weight="bold" lengthAdjust="spacing" textLength="3" x="342.5" y="691.457">&#160;</text><text fill="#666666" font-family="sans-serif" font-size="12" font-weight="bold" lengthAdjust="spacing" textLength="48" x="345.5" y="691.457">planning</text><text fill="#666666" font-family="sans-serif" font-size="12" font-weight="bold" lengthAdjust="spacing" textLength="3" x="393.5" y="691.457">&#160;</text><text fill="#666666" font-family="sans-serif" font-size="12" font-weight="bold" lengthAdjust="spacing" textLength="26" x="396.5" y="691.457">APIs</text></g><!--link api to mdv--><g id="link_api_mdv"><path d="M333.66,440.83 C324.51,490.06 315.62,581.28 358.5,640.5 C379.07,668.91 404.28,648.37 431.5,670.5 C452.13,687.27 465.4193,703.7202 478.9593,725.4502 " fill="none" id="api-to-mdv" style="stroke:#666666;stroke-width:1.0;"/><polygon fill="#666666" points="483.19,732.24,481.5054,723.8637,476.4131,727.0367,483.19,732.24" style="stroke:#666666;stroke-width:1.0;"/><text fill="#666666" font-family="sans-serif" font-size="12" font-weight="bold" lengthAdjust="spacing" textLength="44" x="359.5" y="583.957">invokes</text><text fill="#666666" font-family="sans-serif" font-size="12" font-weight="bold" lengthAdjust="spacing" textLength="3" x="403.5" y="583.957">&#160;</text><text fill="#666666" font-family="sans-serif" font-size="12" font-weight="bold" lengthAdjust="spacing" textLength="24" x="406.5" y="583.957">VVN</text><text fill="#666666" font-family="sans-serif" font-size="12" font-weight="bold" lengthAdjust="spacing" textLength="3" x="430.5" y="583.957">&#160;</text><text fill="#666666" font-family="sans-serif" font-size="12" font-weight="bold" lengthAdjust="spacing" textLength="26" x="433.5" y="583.957">APIs</text></g><!--link api to mdr--><g id="link_api_mdr"><path d="M389.6,440.59 C420.48,462.47 454.9223,486.8851 491.2523,512.6251 " fill="none" id="api-to-mdr" style="stroke:#666666;stroke-width:1.0;"/><polygon fill="#666666" points="497.78,517.25,492.9867,510.1772,489.518,515.073,497.78,517.25" style="stroke:#666666;stroke-width:1.0;"/><text fill="#666666" font-family="sans-serif" font-size="12" font-weight="bold" lengthAdjust="spacing" textLength="44" x="456.5" y="483.957">invokes</text><text fill="#666666" font-family="sans-serif" font-size="12" font-weight="bold" lengthAdjust="spacing" textLength="3" x="500.5" y="483.957">&#160;</text><text fill="#666666" font-family="sans-serif" font-size="12" font-weight="bold" lengthAdjust="spacing" textLength="28" x="503.5" y="483.957">main</text><text fill="#666666" font-family="sans-serif" font-size="12" font-weight="bold" lengthAdjust="spacing" textLength="3" x="531.5" y="483.957">&#160;</text><text fill="#666666" font-family="sans-serif" font-size="12" font-weight="bold" lengthAdjust="spacing" textLength="25" x="534.5" y="483.957">data</text><text fill="#666666" font-family="sans-serif" font-size="12" font-weight="bold" lengthAdjust="spacing" textLength="3" x="559.5" y="483.957">&#160;</text><text fill="#666666" font-family="sans-serif" font-size="12" font-weight="bold" lengthAdjust="spacing" textLength="26" x="562.5" y="483.957">APIs</text></g><!--link mdv to planning--><g id="link_mdv_planning"><path d="M410.65,855.62 C400.47,864.65 391.11,874.63 383.5,885.5 C370.86,903.56 365.8627,919.6587 362.7727,939.1487 " fill="none" id="mdv-to-planning" style="stroke:#666666;stroke-width:1.0;"/><polygon fill="#666666" points="361.52,947.05,365.7357,939.6184,359.8097,938.6789,361.52,947.05" style="stroke:#666666;stroke-width:1.0;"/><text fill="#666666" font-family="sans-serif" font-size="12" font-weight="bold" lengthAdjust="spacing" textLength="50" x="385.5" y="898.957">Provides</text><text fill="#666666" font-family="sans-serif" font-size="12" font-weight="bold" lengthAdjust="spacing" textLength="3" x="435.5" y="898.957">&#160;</text><text fill="#666666" font-family="sans-serif" font-size="12" font-weight="bold" lengthAdjust="spacing" textLength="53" x="438.5" y="898.957">approved</text><text fill="#666666" font-family="sans-serif" font-size="12" font-weight="bold" lengthAdjust="spacing" textLength="3" x="491.5" y="898.957">&#160;</text><text fill="#666666" font-family="sans-serif" font-size="12" font-weight="bold" lengthAdjust="spacing" textLength="31" x="494.5" y="898.957">VVNs</text><text fill="#666666" font-family="sans-serif" font-size="12" font-weight="bold" lengthAdjust="spacing" textLength="21" x="384.5" y="914.0508">and</text><text fill="#666666" font-family="sans-serif" font-size="12" font-weight="bold" lengthAdjust="spacing" textLength="3" x="405.5" y="914.0508">&#160;</text><text fill="#666666" font-family="sans-serif" font-size="12" font-weight="bold" lengthAdjust="spacing" textLength="34" x="408.5" y="914.0508">Cargo</text><text fill="#666666" font-family="sans-serif" font-size="12" font-weight="bold" lengthAdjust="spacing" textLength="3" x="442.5" y="914.0508">&#160;</text><text fill="#666666" font-family="sans-serif" font-size="12" font-weight="bold" lengthAdjust="spacing" textLength="16" x="445.5" y="914.0508">for</text><text fill="#666666" font-family="sans-serif" font-size="12" font-weight="bold" lengthAdjust="spacing" textLength="3" x="461.5" y="914.0508">&#160;</text><text fill="#666666" font-family="sans-serif" font-size="12" font-weight="bold" lengthAdjust="spacing" textLength="62" x="464.5" y="914.0508">scheduling</text></g><!--link mdr to mdv--><g id="link_mdr_mdv"><path d="M552.36,640.53 C547.99,650.39 543.85,660.61 540.5,670.5 C533.81,690.27 530.0685,704.5993 526.0185,724.5893 " fill="none" id="mdr-to-mdv" style="stroke:#666666;stroke-width:1.0;"/><polygon fill="#666666" points="524.43,732.43,528.9588,725.185,523.0783,723.9936,524.43,732.43" style="stroke:#666666;stroke-width:1.0;"/><text fill="#666666" font-family="sans-serif" font-size="12" font-weight="bold" lengthAdjust="spacing" textLength="50" x="558" y="683.957">Provides</text><text fill="#666666" font-family="sans-serif" font-size="12" font-weight="bold" lengthAdjust="spacing" textLength="3" x="608" y="683.957">&#160;</text><text fill="#666666" font-family="sans-serif" font-size="12" font-weight="bold" lengthAdjust="spacing" textLength="28" x="611" y="683.957">main</text><text fill="#666666" font-family="sans-serif" font-size="12" font-weight="bold" lengthAdjust="spacing" textLength="3" x="639" y="683.957">&#160;</text><text fill="#666666" font-family="sans-serif" font-size="12" font-weight="bold" lengthAdjust="spacing" textLength="25" x="642" y="683.957">data</text><text fill="#666666" font-family="sans-serif" font-size="12" font-weight="bold" lengthAdjust="spacing" textLength="53" x="541.5" y="699.0508">(Vessels,</text><text fill="#666666" font-family="sans-serif" font-size="12" font-weight="bold" lengthAdjust="spacing" textLength="3" x="594.5" y="699.0508">&#160;</text><text fill="#666666" font-family="sans-serif" font-size="12" font-weight="bold" lengthAdjust="spacing" textLength="39" x="597.5" y="699.0508">Docks,</text><text fill="#666666" font-family="sans-serif" font-size="12" font-weight="bold" lengthAdjust="spacing" textLength="3" x="636.5" y="699.0508">&#160;</text><text fill="#666666" font-family="sans-serif" font-size="12" font-weight="bold" lengthAdjust="spacing" textLength="44" x="639.5" y="699.0508">Agents)</text></g><!--link mdv to API--><g id="link_mdv_API"><path d="M531.91,855.81 C541.18,878.21 554.84,901.89 574.5,917.5 C620.94,954.37 651.05,921.82 704.5,947.5 C718.05,954.01 725.4871,959.9017 733.6071,967.6917 " fill="none" id="mdv-to-API" style="stroke:#666666;stroke-width:1.0;"/><polygon fill="#666666" points="739.38,973.23,735.6839,965.5268,731.5302,969.8565,739.38,973.23" style="stroke:#666666;stroke-width:1.0;"/><text fill="#666666" font-family="sans-serif" font-size="12" font-weight="bold" lengthAdjust="spacing" textLength="72" x="575.5" y="898.957">Stores/loads</text><text fill="#666666" font-family="sans-serif" font-size="12" font-weight="bold" lengthAdjust="spacing" textLength="3" x="647.5" y="898.957">&#160;</text><text fill="#666666" font-family="sans-serif" font-size="12" font-weight="bold" lengthAdjust="spacing" textLength="33" x="650.5" y="898.957">cargo</text><text fill="#666666" font-family="sans-serif" font-size="12" font-weight="bold" lengthAdjust="spacing" textLength="57" x="601" y="914.0508">manifests</text></g><!--link mdr to API--><g id="link_mdr_API"><path d="M665.86,640.71 C674.51,649.88 682.36,659.87 688.5,670.5 C750.04,777.12 749.3155,927.2641 748.1055,965.1341 " fill="none" id="mdr-to-API" style="stroke:#666666;stroke-width:1.0;"/><polygon fill="#666666" points="747.85,973.13,751.104,965.2299,745.107,965.0383,747.85,973.13" style="stroke:#666666;stroke-width:1.0;"/><text fill="#666666" font-family="sans-serif" font-size="12" font-weight="bold" lengthAdjust="spacing" textLength="38" x="743.5" y="798.957">Stores</text><text fill="#666666" font-family="sans-serif" font-size="12" font-weight="bold" lengthAdjust="spacing" textLength="3" x="781.5" y="798.957">&#160;</text><text fill="#666666" font-family="sans-serif" font-size="12" font-weight="bold" lengthAdjust="spacing" textLength="28" x="784.5" y="798.957">main</text><text fill="#666666" font-family="sans-serif" font-size="12" font-weight="bold" lengthAdjust="spacing" textLength="3" x="812.5" y="798.957">&#160;</text><text fill="#666666" font-family="sans-serif" font-size="12" font-weight="bold" lengthAdjust="spacing" textLength="25" x="815.5" y="798.957">data</text></g><!--SRC=[TPDDZzem48Rl-HNJd1A99PUUUcDXLI41GNojUa8ccGIBnBPiXufM_UyTEmaRklGKU-QP3xyp-S95LZKvmjbQPRubYMO_noMtv-RK6DIP51Q57MUoJbJ5X6tgwiNOlEAdPFhrPUrC- -KYgPcngCbqd584umBrM14RB2O_qltkk4lNnrdwlehY862PbHfONdC1m0o44tVanchc7Fjvs2CbbOQMsPwvKboKCF763IgDXaxCyYiEOcHHy0orZrbBRM7IsBFKtDuWxLm3M65Rqz4BML8FF3EGzcP7SX905on3wdCz3nrAto3OtkZ5zV5LDY9d-XQfseowaaicgFNQzTbIOGo_Wm3WharKDfpeTpp1H2c8lk_dSHW_44mvufLb5nIveqAwZbTlE-8UG3SMGSguwjqHjgYlz5ONqXyVizVvbNo7m-ePwZne35Pmu8PRM4dBIJgIMWfwv9JfKhf7yWADDPyoQugVCSl-aphL9ON-whDjBIiAM69zGkslKfDu8vZ9x4BtjX5Nv4yGRB2A_5ACe1LmRz2vdBqR_3DFDyudBh-4_zYzmrlQ4MpUjhiUTuQ1tbnSvGNDtUGsmmpPLkOUSt9_9lI0g4b3o9rs7UT1dsKuPYslF2USAKL7p5rckj6UjBCfQ7TDTiQygIYYA-ShjGtT4tpKYpgXxyBx_yp43prGKswMf2MQf98iDv3vWlLW6UwrXlH7fJ3-2m00]--></g></svg>