<?xml version="1.0" encoding="us-ascii" standalone="no"?><svg xmlns="http://www.w3.org/2000/svg" xmlns:xlink="http://www.w3.org/1999/xlink" contentStyleType="text/css" height="1078px" preserveAspectRatio="none" style="width:848px;height:1078px;background:#FFFFFF;" version="1.1" viewBox="0 0 848 1078" width="848px" zoomAndPan="magnify"><defs/><g><text fill="#000000" font-family="sans-serif" font-size="14" font-weight="bold" lengthAdjust="spacing" textLength="151" x="341.75" y="24.5332">Level 2 - Logical View</text><!--cluster pms--><g id="cluster_pms"><rect fill="none" height="869" style="stroke:#444444;stroke-width:1.0;stroke-dasharray:7.0,7.0;" width="451" x="253.5" y="203.1094"/><text fill="#444444" font-family="sans-serif" font-size="16" font-weight="bold" lengthAdjust="spacing" textLength="195" x="381.5" y="241.7188">Port Management System</text><text fill="#444444" font-family="sans-serif" font-size="12" font-weight="bold" lengthAdjust="spacing" textLength="50" x="454" y="257.6914">[system]</text></g><!--entity gui--><g id="elem_gui"><rect fill="#438DD5" height="55.2188" style="stroke:#3C7FC0;stroke-width:0.5;" width="131" x="276" y="277.1094"/><text fill="#FFFFFF" font-family="sans-serif" font-size="12" font-style="italic" lengthAdjust="spacing" textLength="65" x="309" y="299.5664">&#171;container&#187;</text><text fill="#FFFFFF" font-family="sans-serif" font-size="16" font-weight="bold" lengthAdjust="spacing" textLength="34" x="286" y="318.8125">Web</text><text fill="#FFFFFF" font-family="sans-serif" font-size="16" font-weight="bold" lengthAdjust="spacing" textLength="4" x="320" y="318.8125">&#160;</text><text fill="#FFFFFF" font-family="sans-serif" font-size="16" font-weight="bold" lengthAdjust="spacing" textLength="31" x="324" y="318.8125">App</text><text fill="#FFFFFF" font-family="sans-serif" font-size="16" font-weight="bold" lengthAdjust="spacing" textLength="4" x="355" y="318.8125">&#160;</text><text fill="#FFFFFF" font-family="sans-serif" font-size="16" font-weight="bold" lengthAdjust="spacing" textLength="38" x="359" y="318.8125">(GUI)</text></g><!--entity api--><g id="elem_api"><rect fill="#438DD5" height="70.3125" style="stroke:#3C7FC0;stroke-width:0.5;" width="123" x="280" y="409.1094"/><text fill="#FFFFFF" font-family="sans-serif" font-size="12" font-style="italic" lengthAdjust="spacing" textLength="65" x="309" y="431.5664">&#171;container&#187;</text><text fill="#FFFFFF" font-family="sans-serif" font-size="16" font-weight="bold" lengthAdjust="spacing" textLength="68" x="290" y="450.8125">Backend</text><text fill="#FFFFFF" font-family="sans-serif" font-size="16" font-weight="bold" lengthAdjust="spacing" textLength="4" x="358" y="450.8125">&#160;</text><text fill="#FFFFFF" font-family="sans-serif" font-size="16" font-weight="bold" lengthAdjust="spacing" textLength="31" x="362" y="450.8125">App</text><text fill="#FFFFFF" font-family="sans-serif" font-size="12" font-style="italic" lengthAdjust="spacing" textLength="33" x="325" y="466.7852">[.NET]</text></g><!--entity planning--><g id="elem_planning"><rect fill="#438DD5" height="70.3125" style="stroke:#3C7FC0;stroke-width:0.5;" width="149" x="284" y="986.1094"/><text fill="#FFFFFF" font-family="sans-serif" font-size="12" font-style="italic" lengthAdjust="spacing" textLength="65" x="326" y="1008.5664">&#171;container&#187;</text><text fill="#FFFFFF" font-family="sans-serif" font-size="16" font-weight="bold" lengthAdjust="spacing" textLength="68" x="294" y="1027.8125">Planning</text><text fill="#FFFFFF" font-family="sans-serif" font-size="16" font-weight="bold" lengthAdjust="spacing" textLength="4" x="362" y="1027.8125">&#160;</text><text fill="#FFFFFF" font-family="sans-serif" font-size="16" font-weight="bold" lengthAdjust="spacing" textLength="57" x="366" y="1027.8125">Service</text><text fill="#FFFFFF" font-family="sans-serif" font-size="12" font-style="italic" lengthAdjust="spacing" textLength="47" x="335" y="1043.7852">[Service]</text></g><!--entity mdv--><g id="elem_mdv"><rect fill="#438DD5" height="123.1406" style="stroke:#3C7FC0;stroke-width:0.5;" width="219" x="405" y="771.1094"/><text fill="#FFFFFF" font-family="sans-serif" font-size="12" font-style="italic" lengthAdjust="spacing" textLength="65" x="482" y="793.5664">&#171;container&#187;</text><text fill="#FFFFFF" font-family="sans-serif" font-size="16" font-weight="bold" lengthAdjust="spacing" textLength="34" x="467" y="812.8125">VVN</text><text fill="#FFFFFF" font-family="sans-serif" font-size="16" font-weight="bold" lengthAdjust="spacing" textLength="4" x="501" y="812.8125">&#160;</text><text fill="#FFFFFF" font-family="sans-serif" font-size="16" font-weight="bold" lengthAdjust="spacing" textLength="57" x="505" y="812.8125">Service</text><text fill="#FFFFFF" font-family="sans-serif" font-size="12" font-style="italic" lengthAdjust="spacing" textLength="47" x="491" y="828.7852">[Service]</text><text fill="#FFFFFF" font-family="sans-serif" font-size="14" lengthAdjust="spacing" textLength="4" x="512.5" y="845.9551">&#160;</text><text fill="#FFFFFF" font-family="sans-serif" font-size="14" lengthAdjust="spacing" textLength="42" x="415" y="863.5645">Vessel</text><text fill="#FFFFFF" font-family="sans-serif" font-size="14" lengthAdjust="spacing" textLength="4" x="457" y="863.5645">&#160;</text><text fill="#FFFFFF" font-family="sans-serif" font-size="14" lengthAdjust="spacing" textLength="26" x="461" y="863.5645">Visit</text><text fill="#FFFFFF" font-family="sans-serif" font-size="14" lengthAdjust="spacing" textLength="4" x="487" y="863.5645">&#160;</text><text fill="#FFFFFF" font-family="sans-serif" font-size="14" lengthAdjust="spacing" textLength="80" x="491" y="863.5645">Notifications,</text><text fill="#FFFFFF" font-family="sans-serif" font-size="14" lengthAdjust="spacing" textLength="4" x="571" y="863.5645">&#160;</text><text fill="#FFFFFF" font-family="sans-serif" font-size="14" lengthAdjust="spacing" textLength="39" x="575" y="863.5645">Cargo</text><text fill="#FFFFFF" font-family="sans-serif" font-size="14" lengthAdjust="spacing" textLength="60" x="484.5" y="881.1738">Manifests</text></g><!--entity mdr--><g id="elem_mdr"><rect fill="#438DD5" height="123.1406" style="stroke:#3C7FC0;stroke-width:0.5;" width="210" x="478.5" y="556.1094"/><text fill="#FFFFFF" font-family="sans-serif" font-size="12" font-style="italic" lengthAdjust="spacing" textLength="65" x="551" y="578.5664">&#171;container&#187;</text><text fill="#FFFFFF" font-family="sans-serif" font-size="16" font-weight="bold" lengthAdjust="spacing" textLength="35" x="535.5" y="597.8125">Data</text><text fill="#FFFFFF" font-family="sans-serif" font-size="16" font-weight="bold" lengthAdjust="spacing" textLength="4" x="570.5" y="597.8125">&#160;</text><text fill="#FFFFFF" font-family="sans-serif" font-size="16" font-weight="bold" lengthAdjust="spacing" textLength="57" x="574.5" y="597.8125">Service</text><text fill="#FFFFFF" font-family="sans-serif" font-size="12" font-style="italic" lengthAdjust="spacing" textLength="47" x="560" y="613.7852">[Service]</text><text fill="#FFFFFF" font-family="sans-serif" font-size="14" lengthAdjust="spacing" textLength="4" x="581.5" y="630.9551">&#160;</text><text fill="#FFFFFF" font-family="sans-serif" font-size="14" lengthAdjust="spacing" textLength="91" x="488.5" y="648.5645">Organizations,</text><text fill="#FFFFFF" font-family="sans-serif" font-size="14" lengthAdjust="spacing" textLength="4" x="579.5" y="648.5645">&#160;</text><text fill="#FFFFFF" font-family="sans-serif" font-size="14" lengthAdjust="spacing" textLength="29" x="583.5" y="648.5645">Staff</text><text fill="#FFFFFF" font-family="sans-serif" font-size="14" lengthAdjust="spacing" textLength="4" x="612.5" y="648.5645">&#160;</text><text fill="#FFFFFF" font-family="sans-serif" font-size="14" lengthAdjust="spacing" textLength="62" x="616.5" y="648.5645">Members,</text><text fill="#FFFFFF" font-family="sans-serif" font-size="14" lengthAdjust="spacing" textLength="54" x="506.5" y="666.1738">Storage,</text><text fill="#FFFFFF" font-family="sans-serif" font-size="14" lengthAdjust="spacing" textLength="4" x="560.5" y="666.1738">&#160;</text><text fill="#FFFFFF" font-family="sans-serif" font-size="14" lengthAdjust="spacing" textLength="43" x="564.5" y="666.1738">Docks,</text><text fill="#FFFFFF" font-family="sans-serif" font-size="14" lengthAdjust="spacing" textLength="4" x="607.5" y="666.1738">&#160;</text><text fill="#FFFFFF" font-family="sans-serif" font-size="14" lengthAdjust="spacing" textLength="49" x="611.5" y="666.1738">Vessels</text></g><!--entity admin--><g id="elem_admin"><ellipse cx="55.5" cy="69.1094" fill="#F1F1F1" rx="16" ry="16" style="stroke:#181818;stroke-width:0.5;"/><path d="M55.5,89.1094 C59.5,89.1094 62.5,89.1094 66.5,85.1094 C74.5,85.1094 82.5,93.1094 82.5,101.1094 L82.5,105.1094 C82.5,109.1094 78.5,113.1094 74.5,113.1094 L36.5,113.1094 C32.5,113.1094 28.5,109.1094 28.5,105.1094 L28.5,101.1094 C28.5,93.1094 36.5,85.1094 44.5,85.1094 C48.5,89.1094 51.5,89.1094 55.5,89.1094 " fill="#F1F1F1" style="stroke:#181818;stroke-width:0.5;"/><text fill="#000000" font-family="sans-serif" font-size="14" lengthAdjust="spacing" textLength="83" x="6" y="128.1426">Administrator</text><text fill="#000000" font-family="sans-serif" font-size="14" lengthAdjust="spacing" textLength="4" x="89" y="128.1426">&#160;</text><text fill="#000000" font-family="sans-serif" font-size="14" lengthAdjust="spacing" textLength="12" x="93" y="128.1426">UI</text></g><!--entity agent--><g id="elem_agent"><ellipse cx="238.5" cy="60.6094" fill="#F1F1F1" rx="16" ry="16" style="stroke:#181818;stroke-width:0.5;"/><path d="M238.5,80.6094 C242.5,80.6094 245.5,80.6094 249.5,76.6094 C257.5,76.6094 265.5,84.6094 265.5,92.6094 L265.5,96.6094 C265.5,100.6094 261.5,104.6094 257.5,104.6094 L219.5,104.6094 C215.5,104.6094 211.5,100.6094 211.5,96.6094 L211.5,92.6094 C211.5,84.6094 219.5,76.6094 227.5,76.6094 C231.5,80.6094 234.5,80.6094 238.5,80.6094 " fill="#F1F1F1" style="stroke:#181818;stroke-width:0.5;"/><text fill="#000000" font-family="sans-serif" font-size="14" lengthAdjust="spacing" textLength="55" x="140.5" y="119.6426">Shipping</text><text fill="#000000" font-family="sans-serif" font-size="14" lengthAdjust="spacing" textLength="4" x="195.5" y="119.6426">&#160;</text><text fill="#000000" font-family="sans-serif" font-size="14" lengthAdjust="spacing" textLength="37" x="199.5" y="119.6426">Agent</text><text fill="#000000" font-family="sans-serif" font-size="14" lengthAdjust="spacing" textLength="4" x="236.5" y="119.6426">&#160;</text><text fill="#000000" font-family="sans-serif" font-size="14" lengthAdjust="spacing" textLength="96" x="240.5" y="119.6426">Representative</text><text fill="#000000" font-family="sans-serif" font-size="14" lengthAdjust="spacing" textLength="12" x="232.5" y="137.252">UI</text></g><!--entity officer--><g id="elem_officer"><ellipse cx="445.5" cy="69.1094" fill="#F1F1F1" rx="16" ry="16" style="stroke:#181818;stroke-width:0.5;"/><path d="M445.5,89.1094 C449.5,89.1094 452.5,89.1094 456.5,85.1094 C464.5,85.1094 472.5,93.1094 472.5,101.1094 L472.5,105.1094 C472.5,109.1094 468.5,113.1094 464.5,113.1094 L426.5,113.1094 C422.5,113.1094 418.5,109.1094 418.5,105.1094 L418.5,101.1094 C418.5,93.1094 426.5,85.1094 434.5,85.1094 C438.5,89.1094 441.5,89.1094 445.5,89.1094 " fill="#F1F1F1" style="stroke:#181818;stroke-width:0.5;"/><text fill="#000000" font-family="sans-serif" font-size="14" lengthAdjust="spacing" textLength="26" x="371.5" y="128.1426">Port</text><text fill="#000000" font-family="sans-serif" font-size="14" lengthAdjust="spacing" textLength="4" x="397.5" y="128.1426">&#160;</text><text fill="#000000" font-family="sans-serif" font-size="14" lengthAdjust="spacing" textLength="56" x="401.5" y="128.1426">Authority</text><text fill="#000000" font-family="sans-serif" font-size="14" lengthAdjust="spacing" textLength="4" x="457.5" y="128.1426">&#160;</text><text fill="#000000" font-family="sans-serif" font-size="14" lengthAdjust="spacing" textLength="42" x="461.5" y="128.1426">Officer</text><text fill="#000000" font-family="sans-serif" font-size="14" lengthAdjust="spacing" textLength="4" x="503.5" y="128.1426">&#160;</text><text fill="#000000" font-family="sans-serif" font-size="14" lengthAdjust="spacing" textLength="12" x="507.5" y="128.1426">UI</text></g><!--entity operator--><g id="elem_operator"><ellipse cx="620.5" cy="69.1094" fill="#F1F1F1" rx="16" ry="16" style="stroke:#181818;stroke-width:0.5;"/><path d="M620.5,89.1094 C624.5,89.1094 627.5,89.1094 631.5,85.1094 C639.5,85.1094 647.5,93.1094 647.5,101.1094 L647.5,105.1094 C647.5,109.1094 643.5,113.1094 639.5,113.1094 L601.5,113.1094 C597.5,113.1094 593.5,109.1094 593.5,105.1094 L593.5,101.1094 C593.5,93.1094 601.5,85.1094 609.5,85.1094 C613.5,89.1094 616.5,89.1094 620.5,89.1094 " fill="#F1F1F1" style="stroke:#181818;stroke-width:0.5;"/><text fill="#000000" font-family="sans-serif" font-size="14" lengthAdjust="spacing" textLength="55" x="554.5" y="128.1426">Logistics</text><text fill="#000000" font-family="sans-serif" font-size="14" lengthAdjust="spacing" textLength="4" x="609.5" y="128.1426">&#160;</text><text fill="#000000" font-family="sans-serif" font-size="14" lengthAdjust="spacing" textLength="57" x="613.5" y="128.1426">Operator</text><text fill="#000000" font-family="sans-serif" font-size="14" lengthAdjust="spacing" textLength="4" x="670.5" y="128.1426">&#160;</text><text fill="#000000" font-family="sans-serif" font-size="14" lengthAdjust="spacing" textLength="12" x="674.5" y="128.1426">UI</text></g><!--entity API--><g id="elem_API"><ellipse cx="747.5" cy="1021.1094" fill="#F1F1F1" rx="8" ry="8" style="stroke:#181818;stroke-width:0.5;"/><text fill="#000000" font-family="sans-serif" font-size="14" lengthAdjust="spacing" textLength="21" x="737" y="1052.6426">API</text></g><!--link agent to gui--><g id="link_agent_gui"><path d="M261.62,140.3494 C282.26,182.5294 308.222,235.6144 325.002,269.8844 " fill="none" id="agent-to-gui" style="stroke:#666666;stroke-width:1.0;"/><polygon fill="#666666" points="328.52,277.0694,327.6963,268.5652,322.3076,271.2037,328.52,277.0694" style="stroke:#666666;stroke-width:1.0;"/><text fill="#666666" font-family="sans-serif" font-size="12" font-weight="bold" lengthAdjust="spacing" textLength="29" x="285.5" y="183.5664">Uses</text></g><!--link officer to gui--><g id="link_officer_gui"><path d="M426.42,131.7194 C405.61,173.8494 376.3733,233.0269 358.2333,269.7469 " fill="none" id="officer-to-gui" style="stroke:#666666;stroke-width:1.0;"/><polygon fill="#666666" points="354.69,276.9194,360.923,271.0756,355.5436,268.4181,354.69,276.9194" style="stroke:#666666;stroke-width:1.0;"/><text fill="#666666" font-family="sans-serif" font-size="12" font-weight="bold" lengthAdjust="spacing" textLength="29" x="407.5" y="183.5664">Uses</text></g><!--link operator to gui--><g id="link_operator_gui"><path d="M569.33,131.7194 C513.48,173.8494 431.9363,235.3811 383.2663,272.1011 " fill="none" id="operator-to-gui" style="stroke:#666666;stroke-width:1.0;"/><polygon fill="#666666" points="376.88,276.9194,385.0731,274.496,381.4594,269.7063,376.88,276.9194" style="stroke:#666666;stroke-width:1.0;"/><text fill="#666666" font-family="sans-serif" font-size="12" font-weight="bold" lengthAdjust="spacing" textLength="29" x="515.5" y="183.5664">Uses</text></g><!--link admin to gui--><g id="link_admin_gui"><path d="M105.32,129.7794 C162.45,171.8294 248.2969,235.0074 298.9369,272.2774 " fill="none" id="admin-to-gui" style="stroke:#666666;stroke-width:1.0;"/><polygon fill="#666666" points="305.38,277.0194,300.7151,269.8612,297.1587,274.6935,305.38,277.0194" style="stroke:#666666;stroke-width:1.0;"/><text fill="#666666" font-family="sans-serif" font-size="12" font-weight="bold" lengthAdjust="spacing" textLength="29" x="182.5" y="183.5664">Uses</text></g><!--link gui to api--><g id="link_gui_api"><path d="M341.5,332.1194 C341.5,353.9694 341.5,377.1194 341.5,400.8594 " fill="none" id="gui-to-api" style="stroke:#666666;stroke-width:1.0;"/><polygon fill="#666666" points="341.5,408.8594,344.5,400.8594,338.5,400.8594,341.5,408.8594" style="stroke:#666666;stroke-width:1.0;"/><text fill="#666666" font-family="sans-serif" font-size="12" font-weight="bold" lengthAdjust="spacing" textLength="30" x="342.5" y="375.5664">REST</text></g><!--link api to planning--><g id="link_api_planning"><path d="M328.87,479.2994 C325.73,488.8394 322.65,499.2894 320.5,509.1094 C301.34,596.5094 302.62,619.7794 297.5,709.1094 C291.64,811.2794 323.9036,921.5924 343.4036,978.4224 " fill="none" id="api-to-planning" style="stroke:#666666;stroke-width:1.0;"/><polygon fill="#666666" points="346,985.9894,346.2412,977.4488,340.566,979.3961,346,985.9894" style="stroke:#666666;stroke-width:1.0;"/><text fill="#666666" font-family="sans-serif" font-size="12" font-weight="bold" lengthAdjust="spacing" textLength="44" x="298.5" y="730.0664">invokes</text><text fill="#666666" font-family="sans-serif" font-size="12" font-weight="bold" lengthAdjust="spacing" textLength="3" x="342.5" y="730.0664">&#160;</text><text fill="#666666" font-family="sans-serif" font-size="12" font-weight="bold" lengthAdjust="spacing" textLength="48" x="345.5" y="730.0664">planning</text><text fill="#666666" font-family="sans-serif" font-size="12" font-weight="bold" lengthAdjust="spacing" textLength="3" x="393.5" y="730.0664">&#160;</text><text fill="#666666" font-family="sans-serif" font-size="12" font-weight="bold" lengthAdjust="spacing" textLength="26" x="396.5" y="730.0664">APIs</text></g><!--link api to mdv--><g id="link_api_mdv"><path d="M333.66,479.4394 C324.51,528.6694 315.62,619.8894 358.5,679.1094 C379.07,707.5194 404.28,686.9794 431.5,709.1094 C452.13,725.8794 465.4193,742.3296 478.9593,764.0596 " fill="none" id="api-to-mdv" style="stroke:#666666;stroke-width:1.0;"/><polygon fill="#666666" points="483.19,770.8494,481.5054,762.4731,476.4131,765.6461,483.19,770.8494" style="stroke:#666666;stroke-width:1.0;"/><text fill="#666666" font-family="sans-serif" font-size="12" font-weight="bold" lengthAdjust="spacing" textLength="44" x="359.5" y="622.5664">invokes</text><text fill="#666666" font-family="sans-serif" font-size="12" font-weight="bold" lengthAdjust="spacing" textLength="3" x="403.5" y="622.5664">&#160;</text><text fill="#666666" font-family="sans-serif" font-size="12" font-weight="bold" lengthAdjust="spacing" textLength="24" x="406.5" y="622.5664">VVN</text><text fill="#666666" font-family="sans-serif" font-size="12" font-weight="bold" lengthAdjust="spacing" textLength="3" x="430.5" y="622.5664">&#160;</text><text fill="#666666" font-family="sans-serif" font-size="12" font-weight="bold" lengthAdjust="spacing" textLength="26" x="433.5" y="622.5664">APIs</text></g><!--link api to mdr--><g id="link_api_mdr"><path d="M389.6,479.1994 C420.48,501.0794 454.9223,525.4945 491.2523,551.2345 " fill="none" id="api-to-mdr" style="stroke:#666666;stroke-width:1.0;"/><polygon fill="#666666" points="497.78,555.8594,492.9867,548.7866,489.518,553.6824,497.78,555.8594" style="stroke:#666666;stroke-width:1.0;"/><text fill="#666666" font-family="sans-serif" font-size="12" font-weight="bold" lengthAdjust="spacing" textLength="44" x="456.5" y="522.5664">invokes</text><text fill="#666666" font-family="sans-serif" font-size="12" font-weight="bold" lengthAdjust="spacing" textLength="3" x="500.5" y="522.5664">&#160;</text><text fill="#666666" font-family="sans-serif" font-size="12" font-weight="bold" lengthAdjust="spacing" textLength="28" x="503.5" y="522.5664">main</text><text fill="#666666" font-family="sans-serif" font-size="12" font-weight="bold" lengthAdjust="spacing" textLength="3" x="531.5" y="522.5664">&#160;</text><text fill="#666666" font-family="sans-serif" font-size="12" font-weight="bold" lengthAdjust="spacing" textLength="25" x="534.5" y="522.5664">data</text><text fill="#666666" font-family="sans-serif" font-size="12" font-weight="bold" lengthAdjust="spacing" textLength="3" x="559.5" y="522.5664">&#160;</text><text fill="#666666" font-family="sans-serif" font-size="12" font-weight="bold" lengthAdjust="spacing" textLength="26" x="562.5" y="522.5664">APIs</text></g><!--link mdv to planning--><g id="link_mdv_planning"><path d="M410.65,894.2294 C400.47,903.2594 391.11,913.2394 383.5,924.1094 C370.86,942.1694 365.8627,958.2681 362.7727,977.7581 " fill="none" id="mdv-to-planning" style="stroke:#666666;stroke-width:1.0;"/><polygon fill="#666666" points="361.52,985.6594,365.7357,978.2278,359.8097,977.2883,361.52,985.6594" style="stroke:#666666;stroke-width:1.0;"/><text fill="#666666" font-family="sans-serif" font-size="12" font-weight="bold" lengthAdjust="spacing" textLength="50" x="385.5" y="937.5664">Provides</text><text fill="#666666" font-family="sans-serif" font-size="12" font-weight="bold" lengthAdjust="spacing" textLength="3" x="435.5" y="937.5664">&#160;</text><text fill="#666666" font-family="sans-serif" font-size="12" font-weight="bold" lengthAdjust="spacing" textLength="53" x="438.5" y="937.5664">approved</text><text fill="#666666" font-family="sans-serif" font-size="12" font-weight="bold" lengthAdjust="spacing" textLength="3" x="491.5" y="937.5664">&#160;</text><text fill="#666666" font-family="sans-serif" font-size="12" font-weight="bold" lengthAdjust="spacing" textLength="31" x="494.5" y="937.5664">VVNs</text><text fill="#666666" font-family="sans-serif" font-size="12" font-weight="bold" lengthAdjust="spacing" textLength="21" x="384.5" y="952.6602">and</text><text fill="#666666" font-family="sans-serif" font-size="12" font-weight="bold" lengthAdjust="spacing" textLength="3" x="405.5" y="952.6602">&#160;</text><text fill="#666666" font-family="sans-serif" font-size="12" font-weight="bold" lengthAdjust="spacing" textLength="34" x="408.5" y="952.6602">Cargo</text><text fill="#666666" font-family="sans-serif" font-size="12" font-weight="bold" lengthAdjust="spacing" textLength="3" x="442.5" y="952.6602">&#160;</text><text fill="#666666" font-family="sans-serif" font-size="12" font-weight="bold" lengthAdjust="spacing" textLength="16" x="445.5" y="952.6602">for</text><text fill="#666666" font-family="sans-serif" font-size="12" font-weight="bold" lengthAdjust="spacing" textLength="3" x="461.5" y="952.6602">&#160;</text><text fill="#666666" font-family="sans-serif" font-size="12" font-weight="bold" lengthAdjust="spacing" textLength="62" x="464.5" y="952.6602">scheduling</text></g><!--link mdr to mdv--><g id="link_mdr_mdv"><path d="M552.36,679.1394 C547.99,688.9994 543.85,699.2194 540.5,709.1094 C533.81,728.8794 530.0685,743.2087 526.0185,763.1987 " fill="none" id="mdr-to-mdv" style="stroke:#666666;stroke-width:1.0;"/><polygon fill="#666666" points="524.43,771.0394,528.9588,763.7944,523.0783,762.603,524.43,771.0394" style="stroke:#666666;stroke-width:1.0;"/><text fill="#666666" font-family="sans-serif" font-size="12" font-weight="bold" lengthAdjust="spacing" textLength="50" x="558" y="722.5664">Provides</text><text fill="#666666" font-family="sans-serif" font-size="12" font-weight="bold" lengthAdjust="spacing" textLength="3" x="608" y="722.5664">&#160;</text><text fill="#666666" font-family="sans-serif" font-size="12" font-weight="bold" lengthAdjust="spacing" textLength="28" x="611" y="722.5664">main</text><text fill="#666666" font-family="sans-serif" font-size="12" font-weight="bold" lengthAdjust="spacing" textLength="3" x="639" y="722.5664">&#160;</text><text fill="#666666" font-family="sans-serif" font-size="12" font-weight="bold" lengthAdjust="spacing" textLength="25" x="642" y="722.5664">data</text><text fill="#666666" font-family="sans-serif" font-size="12" font-weight="bold" lengthAdjust="spacing" textLength="53" x="541.5" y="737.6602">(Vessels,</text><text fill="#666666" font-family="sans-serif" font-size="12" font-weight="bold" lengthAdjust="spacing" textLength="3" x="594.5" y="737.6602">&#160;</text><text fill="#666666" font-family="sans-serif" font-size="12" font-weight="bold" lengthAdjust="spacing" textLength="39" x="597.5" y="737.6602">Docks,</text><text fill="#666666" font-family="sans-serif" font-size="12" font-weight="bold" lengthAdjust="spacing" textLength="3" x="636.5" y="737.6602">&#160;</text><text fill="#666666" font-family="sans-serif" font-size="12" font-weight="bold" lengthAdjust="spacing" textLength="44" x="639.5" y="737.6602">Agents)</text></g><!--link mdv to API--><g id="link_mdv_API"><path d="M531.91,894.4194 C541.18,916.8194 554.84,940.4994 574.5,956.1094 C620.94,992.9794 651.05,960.4294 704.5,986.1094 C718.05,992.6194 725.4871,998.511 733.6071,1006.301 " fill="none" id="mdv-to-API" style="stroke:#666666;stroke-width:1.0;"/><polygon fill="#666666" points="739.38,1011.8394,735.6839,1004.1362,731.5302,1008.4659,739.38,1011.8394" style="stroke:#666666;stroke-width:1.0;"/><text fill="#666666" font-family="sans-serif" font-size="12" font-weight="bold" lengthAdjust="spacing" textLength="72" x="575.5" y="937.5664">Stores/loads</text><text fill="#666666" font-family="sans-serif" font-size="12" font-weight="bold" lengthAdjust="spacing" textLength="3" x="647.5" y="937.5664">&#160;</text><text fill="#666666" font-family="sans-serif" font-size="12" font-weight="bold" lengthAdjust="spacing" textLength="33" x="650.5" y="937.5664">cargo</text><text fill="#666666" font-family="sans-serif" font-size="12" font-weight="bold" lengthAdjust="spacing" textLength="57" x="601" y="952.6602">manifests</text></g><!--link mdr to API--><g id="link_mdr_API"><path d="M665.86,679.3194 C674.51,688.4894 682.36,698.4794 688.5,709.1094 C750.04,815.7294 749.3155,965.8735 748.1055,1003.7435 " fill="none" id="mdr-to-API" style="stroke:#666666;stroke-width:1.0;"/><polygon fill="#666666" points="747.85,1011.7394,751.104,1003.8393,745.107,1003.6477,747.85,1011.7394" style="stroke:#666666;stroke-width:1.0;"/><text fill="#666666" font-family="sans-serif" font-size="12" font-weight="bold" lengthAdjust="spacing" textLength="38" x="743.5" y="837.5664">Stores</text><text fill="#666666" font-family="sans-serif" font-size="12" font-weight="bold" lengthAdjust="spacing" textLength="3" x="781.5" y="837.5664">&#160;</text><text fill="#666666" font-family="sans-serif" font-size="12" font-weight="bold" lengthAdjust="spacing" textLength="28" x="784.5" y="837.5664">main</text><text fill="#666666" font-family="sans-serif" font-size="12" font-weight="bold" lengthAdjust="spacing" textLength="3" x="812.5" y="837.5664">&#160;</text><text fill="#666666" font-family="sans-serif" font-size="12" font-weight="bold" lengthAdjust="spacing" textLength="25" x="815.5" y="837.5664">data</text></g><!--SRC=[TPDBZzem4CVl-HJJd8B4Gwfwwes5LOK41F5QzOHCCWaMYMtP3YjQzRjt9WbiwD9Jx9dVFFoVoHUfag9A4KxU6_TzDBBYVPXBVwgEbKERQELH-M6Yov4fXF9LMGoSJmjv74s-3LPisYtcer8uZvPCXmb52AdG3WsnmNpyCzvj3zjuTPZ6Ryke5mHU-W9XZXSiu2iCOAvpcOW2zXBVWq0aNbiGQIaLW70GZlaedRU27RjPU4DoQWmQPdEInaYLmxWshj5OT7GINbwm4wEpJ2PewvYLjXx6bJzfA_qLujRLWGqsDPdc9fsNYOFuPcPIaZms4mbIdwjPo2XzWs1p9JtAmukkL2hiDJAbwxSb5q9HwoNtsL1X3tu70S1TkIYl9D5lU8InCH3zsCrwOU-148Q95v6SKQLCXNGTBb-tn3s0F3H5od3rzWWRj1TwAuVSZe_Po_H2llr- -Gnb3pg7F30dFIorboGTIQqLFN8YRAxvaJ93vzsdp9RYfyAB_wIERKwXlsxPDbva6IomFAAjhzgIU7sOwkHCzwOHBl8d2DPOHFLIzA4HSEUGNMnl1__CquxpYQjUmd_ijQEsD2DOlswsDvmD7RsbkkWpkhk9DyDrsKRc6yPoVoPiXoX9GqXPkvQhmJfBTynMNsHAk326ZfXoPhhHdZIpoMXtNNB2j2eeeYrNLseQkYVug1UrGj-5h_yprtleWPhYMPAMw4Q55gc3f2vOTfRXNgjBVrGAUty1]--></g></svg>