<?xml version="1.0" encoding="us-ascii" standalone="no"?><svg xmlns="http://www.w3.org/2000/svg" xmlns:xlink="http://www.w3.org/1999/xlink" contentStyleType="text/css" height="288px" preserveAspectRatio="none" style="width:330px;height:288px;background:#FFFFFF;" version="1.1" viewBox="0 0 330 288" width="330px" zoomAndPan="magnify"><defs/><g><rect fill="#FFFFFF" height="73.7031" style="stroke:#181818;stroke-width:1.0;" width="10" x="191.5" y="114.9609"/><line style="stroke:#181818;stroke-width:0.5;stroke-dasharray:5.0,5.0;" x1="47" x2="47" y1="82.6094" y2="206.6641"/><line style="stroke:#181818;stroke-width:0.5;stroke-dasharray:5.0,5.0;" x1="196.5" x2="196.5" y1="82.6094" y2="206.6641"/><text fill="#000000" font-family="sans-serif" font-size="14" lengthAdjust="spacing" textLength="79" x="5" y="79.5332">System User</text><ellipse cx="47.5" cy="13.5" fill="#E2E2F0" rx="8" ry="8" style="stroke:#181818;stroke-width:0.5;"/><path d="M47.5,21.5 L47.5,48.5 M34.5,29.5 L60.5,29.5 M47.5,48.5 L34.5,63.5 M47.5,48.5 L60.5,63.5 " fill="none" style="stroke:#181818;stroke-width:0.5;"/><text fill="#000000" font-family="sans-serif" font-size="14" lengthAdjust="spacing" textLength="79" x="5" y="220.1973">System User</text><ellipse cx="47.5" cy="231.7734" fill="#E2E2F0" rx="8" ry="8" style="stroke:#181818;stroke-width:0.5;"/><path d="M47.5,239.7734 L47.5,266.7734 M34.5,247.7734 L60.5,247.7734 M47.5,266.7734 L34.5,281.7734 M47.5,266.7734 L60.5,281.7734 " fill="none" style="stroke:#181818;stroke-width:0.5;"/><rect fill="#E2E2F0" height="31.6094" rx="2.5" ry="2.5" style="stroke:#181818;stroke-width:0.5;" width="60" x="166.5" y="50"/><text fill="#000000" font-family="sans-serif" font-size="14" lengthAdjust="spacing" textLength="46" x="173.5" y="71.5332">System</text><rect fill="#E2E2F0" height="31.6094" rx="2.5" ry="2.5" style="stroke:#181818;stroke-width:0.5;" width="60" x="166.5" y="205.6641"/><text fill="#000000" font-family="sans-serif" font-size="14" lengthAdjust="spacing" textLength="46" x="173.5" y="227.1973">System</text><rect fill="#FFFFFF" height="73.7031" style="stroke:#181818;stroke-width:1.0;" width="10" x="191.5" y="114.9609"/><polygon fill="#181818" points="179.5,110.9609,189.5,114.9609,179.5,118.9609,183.5,114.9609" style="stroke:#181818;stroke-width:1.0;"/><line style="stroke:#181818;stroke-width:1.0;" x1="47.5" x2="185.5" y1="114.9609" y2="114.9609"/><text fill="#000000" font-family="sans-serif" font-size="13" lengthAdjust="spacing" textLength="117" x="54.5" y="110.1045">Navigate to list page</text><line style="stroke:#181818;stroke-width:1.0;" x1="201.5" x2="243.5" y1="145.3125" y2="145.3125"/><line style="stroke:#181818;stroke-width:1.0;" x1="243.5" x2="243.5" y1="145.3125" y2="158.3125"/><line style="stroke:#181818;stroke-width:1.0;" x1="202.5" x2="243.5" y1="158.3125" y2="158.3125"/><polygon fill="#181818" points="212.5,154.3125,202.5,158.3125,212.5,162.3125,208.5,158.3125" style="stroke:#181818;stroke-width:1.0;"/><text fill="#000000" font-family="sans-serif" font-size="13" lengthAdjust="spacing" textLength="115" x="208.5" y="140.4561">Fetch and filter data</text><polygon fill="#181818" points="58.5,184.6641,48.5,188.6641,58.5,192.6641,54.5,188.6641" style="stroke:#181818;stroke-width:1.0;"/><line style="stroke:#181818;stroke-width:1.0;stroke-dasharray:2.0,2.0;" x1="52.5" x2="195.5" y1="188.6641" y2="188.6641"/><text fill="#000000" font-family="sans-serif" font-size="13" lengthAdjust="spacing" textLength="120" x="64.5" y="183.8076">Display list with data</text><!--SRC=[NOqn3i8m54FtdEAhEnVem8GOMH07i9Aq_L9eeyGgwkrfce0Gc__timtB9KbttpBzKnxPfqwG3s4Y4jLgnCmFSPXL6bCWEPtRtSiDguwW5ouID5CYHczWgMlvjbYR-ibTFUqac9qC6hXtEX1VRWVBK2yNpJ5WgzKlvLGvv_yMtW00]--></g></svg>