<?xml version="1.0" encoding="us-ascii" standalone="no"?><svg xmlns="http://www.w3.org/2000/svg" xmlns:xlink="http://www.w3.org/1999/xlink" contentStyleType="text/css" height="346px" preserveAspectRatio="none" style="width:419px;height:346px;background:#FFFFFF;" version="1.1" viewBox="0 0 419 346" width="419px" zoomAndPan="magnify"><defs/><g><text fill="#000000" font-family="sans-serif" font-size="14" font-weight="bold" lengthAdjust="spacing" textLength="200" x="102.5" y="24.5332">Level 2 Implementation View</text><!--cluster Port Management System--><g id="cluster_Port Management System"><path d="M8.5,44.6094 L187.5,44.6094 A3.75,3.75 0 0 1 190,47.1094 L197,68.2188 L409.5,68.2188 A2.5,2.5 0 0 1 412,70.7188 L412,337.1094 A2.5,2.5 0 0 1 409.5,339.6094 L8.5,339.6094 A2.5,2.5 0 0 1 6,337.1094 L6,47.1094 A2.5,2.5 0 0 1 8.5,44.6094 " fill="#87CEFA" style="stroke:#000000;stroke-width:1.5;"/><line style="stroke:#000000;stroke-width:1.5;" x1="6" x2="197" y1="68.2188" y2="68.2188"/><text fill="#000000" font-family="sans-serif" font-size="14" font-weight="bold" lengthAdjust="spacing" textLength="178" x="10" y="61.1426">Port Management System</text></g><!--entity UI--><g id="elem_UI"><path d="M250.5,80.6094 L277.5,80.6094 A3.75,3.75 0 0 1 280,83.1094 L287,104.2188 L301.5,104.2188 A2.5,2.5 0 0 1 304,106.7188 L304,118.7188 A2.5,2.5 0 0 1 301.5,121.2188 L250.5,121.2188 A2.5,2.5 0 0 1 248,118.7188 L248,83.1094 A2.5,2.5 0 0 1 250.5,80.6094 " fill="#87CEFA" style="stroke:#000000;stroke-width:0.5;"/><line style="stroke:#000000;stroke-width:0.5;" x1="248" x2="287" y1="104.2188" y2="104.2188"/><text fill="#000000" font-family="sans-serif" font-size="14" font-weight="bold" lengthAdjust="spacing" textLength="14" x="258" y="98.1426">UI</text></g><!--entity Planning_Service--><g id="elem_Planning_Service"><path d="M196,181.6094 L332,181.6094 A3.75,3.75 0 0 1 334.5,184.1094 L341.5,205.2188 L356,205.2188 A2.5,2.5 0 0 1 358.5,207.7188 L358.5,219.7188 A2.5,2.5 0 0 1 356,222.2188 L196,222.2188 A2.5,2.5 0 0 1 193.5,219.7188 L193.5,184.1094 A2.5,2.5 0 0 1 196,181.6094 " fill="#87CEFA" style="stroke:#000000;stroke-width:0.5;"/><line style="stroke:#000000;stroke-width:0.5;" x1="193.5" x2="341.5" y1="205.2188" y2="205.2188"/><text fill="#000000" font-family="sans-serif" font-size="14" font-weight="bold" lengthAdjust="spacing" textLength="123" x="203.5" y="199.1426">Planning_Service</text></g><!--entity Data_Service--><g id="elem_Data_Service"><path d="M211,282.6094 L317,282.6094 A3.75,3.75 0 0 1 319.5,285.1094 L326.5,306.2188 L341,306.2188 A2.5,2.5 0 0 1 343.5,308.7188 L343.5,320.7188 A2.5,2.5 0 0 1 341,323.2188 L211,323.2188 A2.5,2.5 0 0 1 208.5,320.7188 L208.5,285.1094 A2.5,2.5 0 0 1 211,282.6094 " fill="#87CEFA" style="stroke:#000000;stroke-width:0.5;"/><line style="stroke:#000000;stroke-width:0.5;" x1="208.5" x2="326.5" y1="306.2188" y2="306.2188"/><text fill="#000000" font-family="sans-serif" font-size="14" font-weight="bold" lengthAdjust="spacing" textLength="93" x="218.5" y="300.1426">Data_Service</text></g><!--entity Auth_Service--><g id="elem_Auth_Service"><path d="M24.5,181.6094 L131.5,181.6094 A3.75,3.75 0 0 1 134,184.1094 L141,205.2188 L155.5,205.2188 A2.5,2.5 0 0 1 158,207.7188 L158,219.7188 A2.5,2.5 0 0 1 155.5,222.2188 L24.5,222.2188 A2.5,2.5 0 0 1 22,219.7188 L22,184.1094 A2.5,2.5 0 0 1 24.5,181.6094 " fill="#87CEFA" style="stroke:#000000;stroke-width:0.5;"/><line style="stroke:#000000;stroke-width:0.5;" x1="22" x2="141" y1="205.2188" y2="205.2188"/><text fill="#000000" font-family="sans-serif" font-size="14" font-weight="bold" lengthAdjust="spacing" textLength="94" x="32" y="199.1426">Auth_Service</text></g><!--link UI to Planning_Service--><g id="link_UI_Planning_Service"><path d="M276,121.6694 C276,139.0294 276,158.2494 276,175.5894 " fill="none" id="UI-to-Planning_Service" style="stroke:#181818;stroke-width:1.0;stroke-dasharray:7.0,7.0;"/><polygon fill="#181818" points="276,181.5894,280,172.5894,276,176.5894,272,172.5894,276,181.5894" style="stroke:#181818;stroke-width:1.0;"/></g><!--link UI to Data_Service--><g id="link_UI_Data_Service"><path d="M304.38,115.5194 C328.41,128.6194 361.25,151.0494 376,181.6094 C383.92,198.0194 383.92,206.1994 376,222.6094 C363.37,248.7794 342.6119,265.8707 320.3419,279.3607 " fill="none" id="UI-to-Data_Service" style="stroke:#181818;stroke-width:1.0;stroke-dasharray:7.0,7.0;"/><polygon fill="#181818" points="315.21,282.4694,324.9803,281.2277,319.4866,279.8788,320.8354,274.3852,315.21,282.4694" style="stroke:#181818;stroke-width:1.0;"/></g><!--link UI to Auth_Service--><g id="link_UI_Auth_Service"><path d="M247.75,117.1494 C215.43,134.3494 167.7066,159.7505 132.1566,178.6705 " fill="none" id="UI-to-Auth_Service" style="stroke:#181818;stroke-width:1.0;stroke-dasharray:7.0,7.0;"/><polygon fill="#181818" points="126.86,181.4894,136.6841,180.7921,131.2738,179.1403,132.9256,173.73,126.86,181.4894" style="stroke:#181818;stroke-width:1.0;"/></g><!--reverse link Auth_Service to Data_Service--><g id="link_Auth_Service_Data_Service"><path d="M132.0463,225.4889 C164.6563,242.8489 206.74,265.2494 239.33,282.5894 " fill="none" id="Auth_Service-backto-Data_Service" style="stroke:#181818;stroke-width:1.0;stroke-dasharray:7.0,7.0;"/><polygon fill="#181818" points="126.75,222.6694,132.8148,230.4294,131.1636,225.0189,136.5741,223.3677,126.75,222.6694" style="stroke:#181818;stroke-width:1.0;"/></g><!--link Planning_Service to Data_Service--><g id="link_Planning_Service_Data_Service"><path d="M276,222.6694 C276,240.0294 276,259.2494 276,276.5894 " fill="none" id="Planning_Service-to-Data_Service" style="stroke:#181818;stroke-width:1.0;stroke-dasharray:7.0,7.0;"/><polygon fill="#181818" points="276,282.5894,280,273.5894,276,277.5894,272,273.5894,276,282.5894" style="stroke:#181818;stroke-width:1.0;"/></g><!--SRC=[ROvF2u904CNl-oacktleKgUWVuHW4PLTOzBH5jTPMTSaek-U5SKYtcRUU_DxOwLL127TIC48Wg9KL11Rj58pd2GrGWmIIYKJx5UBusox3bSGAwmg8QfSSea62oWnpZ4ZU0Y0UJjdHjUSBBJI1eQJSKmffkdRqoOXyzKlgWsAfn2_Os-dZOKDShkyVu33lR9KU1_gBnG5ph9Jo2mvEn_8t6HCZhL4YptohBRNlzpgKG1-eXlsftqmn-tm7AUBT9FWrsLFf5lLt_9y0G00]--></g></svg>