<svg xmlns="http://www.w3.org/2000/svg" xmlns:xlink="http://www.w3.org/1999/xlink" contentStyleType="text/css" data-diagram-type="SEQUENCE" height="1323px" preserveAspectRatio="none" style="width:1508px;height:1323px;background:#FFFFFF;" version="1.1" viewBox="0 0 1508 1323" width="1508px" zoomAndPan="magnify"><defs/><g><g><title>PortAuthorityOfficer</title><rect fill="#000000" fill-opacity="0.00000" height="1157.1855" width="8" x="65.0757" y="83.6211"/><line style="stroke:#181818;stroke-width:0.5;stroke-dasharray:5,5;" x1="69" x2="69" y1="83.6211" y2="1240.8066"/></g><g><title>Port Operations System</title><rect fill="#000000" fill-opacity="0.00000" height="1157.1855" width="8" x="633.9204" y="83.6211"/><line style="stroke:#181818;stroke-width:0.5;stroke-dasharray:5,5;" x1="637.6138" x2="637.6138" y1="83.6211" y2="1240.8066"/></g><g><title>DockController</title><rect fill="#000000" fill-opacity="0.00000" height="1157.1855" width="8" x="900.3564" y="83.6211"/><line style="stroke:#181818;stroke-width:0.5;stroke-dasharray:5,5;" x1="904.0635" x2="904.0635" y1="83.6211" y2="1240.8066"/></g><g><title>DockService</title><rect fill="#000000" fill-opacity="0.00000" height="1157.1855" width="8" x="1041.3818" y="83.6211"/><line style="stroke:#181818;stroke-width:0.5;stroke-dasharray:5,5;" x1="1045.0923" x2="1045.0923" y1="83.6211" y2="1240.8066"/></g><g><title>DockRepository</title><rect fill="#000000" fill-opacity="0.00000" height="1157.1855" width="8" x="1160.0317" y="83.6211"/><line style="stroke:#181818;stroke-width:0.5;stroke-dasharray:5,5;" x1="1163.625" x2="1163.625" y1="83.6211" y2="1240.8066"/></g><g><title>VesselTypeRepository</title><rect fill="#000000" fill-opacity="0.00000" height="1157.1855" width="8" x="1303.4692" y="83.6211"/><line style="stroke:#181818;stroke-width:0.5;stroke-dasharray:5,5;" x1="1307.4385" x2="1307.4385" y1="83.6211" y2="1240.8066"/></g><g><title>Dock Database</title><rect fill="#000000" fill-opacity="0.00000" height="1157.1855" width="8" x="1441.3584" y="83.6211"/><line style="stroke:#181818;stroke-width:0.5;stroke-dasharray:5,5;" x1="1444.5" x2="1444.5" y1="83.6211" y2="1240.8066"/></g><g class="participant participant-head" data-participant="PortAuthorityOfficer"><text fill="#000000" font-family="sans-serif" font-size="14" lengthAdjust="spacing" textLength="122.1514" x="5" y="80.1074">PortAuthorityOfficer</text><ellipse cx="69.0757" cy="13.5" fill="#E2E2F0" rx="8" ry="8" style="stroke:#181818;stroke-width:0.5;"/><path d="M69.0757,21.5 L69.0757,48.5 M56.0757,29.5 L82.0757,29.5 M69.0757,48.5 L56.0757,63.5 M69.0757,48.5 L82.0757,63.5" fill="none" style="stroke:#181818;stroke-width:0.5;"/></g><g class="participant participant-tail" data-participant="PortAuthorityOfficer"><text fill="#000000" font-family="sans-serif" font-size="14" lengthAdjust="spacing" textLength="122.1514" x="5" y="1254.9141">PortAuthorityOfficer</text><ellipse cx="69.0757" cy="1266.9277" fill="#E2E2F0" rx="8" ry="8" style="stroke:#181818;stroke-width:0.5;"/><path d="M69.0757,1274.9277 L69.0757,1301.9277 M56.0757,1282.9277 L82.0757,1282.9277 M69.0757,1301.9277 L56.0757,1316.9277 M69.0757,1301.9277 L82.0757,1316.9277" fill="none" style="stroke:#181818;stroke-width:0.5;"/></g><g class="participant participant-head" data-participant="POS"><rect fill="#E2E2F0" height="32.6211" rx="2.5" ry="2.5" style="stroke:#181818;stroke-width:0.5;" width="162.6133" x="556.6138" y="50"/><text fill="#000000" font-family="sans-serif" font-size="14" lengthAdjust="spacing" textLength="148.6133" x="563.6138" y="72.1074">Port Operations System</text></g><g class="participant participant-tail" data-participant="POS"><rect fill="#E2E2F0" height="32.6211" rx="2.5" ry="2.5" style="stroke:#181818;stroke-width:0.5;" width="162.6133" x="556.6138" y="1239.8066"/><text fill="#000000" font-family="sans-serif" font-size="14" lengthAdjust="spacing" textLength="148.6133" x="563.6138" y="1261.9141">Port Operations System</text></g><g class="participant participant-head" data-participant="DockController"><rect fill="#E2E2F0" height="32.6211" rx="2.5" ry="2.5" style="stroke:#181818;stroke-width:0.5;" width="106.5859" x="851.0635" y="50"/><text fill="#000000" font-family="sans-serif" font-size="14" lengthAdjust="spacing" textLength="92.5859" x="858.0635" y="72.1074">DockController</text></g><g class="participant participant-tail" data-participant="DockController"><rect fill="#E2E2F0" height="32.6211" rx="2.5" ry="2.5" style="stroke:#181818;stroke-width:0.5;" width="106.5859" x="851.0635" y="1239.8066"/><text fill="#000000" font-family="sans-serif" font-size="14" lengthAdjust="spacing" textLength="92.5859" x="858.0635" y="1261.9141">DockController</text></g><g class="participant participant-head" data-participant="DockService"><rect fill="#E2E2F0" height="32.6211" rx="2.5" ry="2.5" style="stroke:#181818;stroke-width:0.5;" width="92.5791" x="999.0923" y="50"/><text fill="#000000" font-family="sans-serif" font-size="14" lengthAdjust="spacing" textLength="78.5791" x="1006.0923" y="72.1074">DockService</text></g><g class="participant participant-tail" data-participant="DockService"><rect fill="#E2E2F0" height="32.6211" rx="2.5" ry="2.5" style="stroke:#181818;stroke-width:0.5;" width="92.5791" x="999.0923" y="1239.8066"/><text fill="#000000" font-family="sans-serif" font-size="14" lengthAdjust="spacing" textLength="78.5791" x="1006.0923" y="1261.9141">DockService</text></g><g class="participant participant-head" data-participant="DockRepository"><rect fill="#E2E2F0" height="32.6211" rx="2.5" ry="2.5" style="stroke:#181818;stroke-width:0.5;" width="112.8135" x="1107.625" y="50"/><text fill="#000000" font-family="sans-serif" font-size="14" lengthAdjust="spacing" textLength="98.8135" x="1114.625" y="72.1074">DockRepository</text></g><g class="participant participant-tail" data-participant="DockRepository"><rect fill="#E2E2F0" height="32.6211" rx="2.5" ry="2.5" style="stroke:#181818;stroke-width:0.5;" width="112.8135" x="1107.625" y="1239.8066"/><text fill="#000000" font-family="sans-serif" font-size="14" lengthAdjust="spacing" textLength="98.8135" x="1114.625" y="1261.9141">DockRepository</text></g><g class="participant participant-head" data-participant="VesselTypeRepository"><rect fill="#E2E2F0" height="32.6211" rx="2.5" ry="2.5" style="stroke:#181818;stroke-width:0.5;" width="154.0615" x="1230.4385" y="50"/><text fill="#000000" font-family="sans-serif" font-size="14" lengthAdjust="spacing" textLength="140.0615" x="1237.4385" y="72.1074">VesselTypeRepository</text></g><g class="participant participant-tail" data-participant="VesselTypeRepository"><rect fill="#E2E2F0" height="32.6211" rx="2.5" ry="2.5" style="stroke:#181818;stroke-width:0.5;" width="154.0615" x="1230.4385" y="1239.8066"/><text fill="#000000" font-family="sans-serif" font-size="14" lengthAdjust="spacing" textLength="140.0615" x="1237.4385" y="1261.9141">VesselTypeRepository</text></g><g class="participant participant-head" data-participant="DB"><text fill="#000000" font-family="sans-serif" font-size="14" lengthAdjust="spacing" textLength="95.7168" x="1394.5" y="80.1074">Dock Database</text><path d="M1427.3584,29 C1427.3584,19 1445.3584,19 1445.3584,19 C1445.3584,19 1463.3584,19 1463.3584,29 L1463.3584,55 C1463.3584,65 1445.3584,65 1445.3584,65 C1445.3584,65 1427.3584,65 1427.3584,55 L1427.3584,29" fill="#E2E2F0" style="stroke:#181818;stroke-width:0.5;"/><path d="M1427.3584,29 C1427.3584,39 1445.3584,39 1445.3584,39 C1445.3584,39 1463.3584,39 1463.3584,29" fill="none" style="stroke:#181818;stroke-width:0.5;"/></g><g class="participant participant-tail" data-participant="DB"><text fill="#000000" font-family="sans-serif" font-size="14" lengthAdjust="spacing" textLength="95.7168" x="1394.5" y="1254.9141">Dock Database</text><path d="M1427.3584,1268.4277 C1427.3584,1258.4277 1445.3584,1258.4277 1445.3584,1258.4277 C1445.3584,1258.4277 1463.3584,1258.4277 1463.3584,1268.4277 L1463.3584,1294.4277 C1463.3584,1304.4277 1445.3584,1304.4277 1445.3584,1304.4277 C1445.3584,1304.4277 1427.3584,1304.4277 1427.3584,1294.4277 L1427.3584,1268.4277" fill="#E2E2F0" style="stroke:#181818;stroke-width:0.5;"/><path d="M1427.3584,1268.4277 C1427.3584,1278.4277 1445.3584,1278.4277 1445.3584,1278.4277 C1445.3584,1278.4277 1463.3584,1278.4277 1463.3584,1268.4277" fill="none" style="stroke:#181818;stroke-width:0.5;"/></g><rect fill="#EEEEEE" height="3" style="stroke:#EEEEEE;stroke-width:1;" width="1501.2168" x="0" y="115.2666"/><line style="stroke:#000000;stroke-width:1;" x1="0" x2="1501.2168" y1="115.2666" y2="115.2666"/><line style="stroke:#000000;stroke-width:1;" x1="0" x2="1501.2168" y1="118.2666" y2="118.2666"/><rect fill="#EEEEEE" height="25.291" style="stroke:#000000;stroke-width:2;" width="151.9727" x="674.6221" y="103.6211"/><text fill="#000000" font-family="sans-serif" font-size="13" font-weight="bold" lengthAdjust="spacing" textLength="134.3608" x="680.6221" y="121.6494">Registo de nova doca</text><g class="message" data-participant-1="PortAuthorityOfficer" data-participant-2="POS"><polygon fill="#181818" points="625.9204,158.2031,635.9204,162.2031,625.9204,166.2031,629.9204,162.2031" style="stroke:#181818;stroke-width:1;"/><line style="stroke:#181818;stroke-width:1;" x1="69.0757" x2="631.9204" y1="162.2031" y2="162.2031"/><text fill="#000000" font-family="sans-serif" font-size="13" lengthAdjust="spacing" textLength="218.0356" x="76.0757" y="156.9404">Abre formul&#225;rio "Registar Nova Doca"</text></g><g class="message" data-participant-1="POS" data-participant-2="PortAuthorityOfficer"><polygon fill="#181818" points="80.0757,189.4941,70.0757,193.4941,80.0757,197.4941,76.0757,193.4941" style="stroke:#181818;stroke-width:1;"/><line style="stroke:#181818;stroke-width:1;" x1="74.0757" x2="636.9204" y1="193.4941" y2="193.4941"/><text fill="#000000" font-family="sans-serif" font-size="13" lengthAdjust="spacing" textLength="544.8447" x="86.0757" y="188.2314">Solicita dados (nome, localiza&#231;&#227;o, comprimento, profundidade, calado m&#225;ximo, tipos de navio)</text></g><g class="message" data-participant-1="PortAuthorityOfficer" data-participant-2="POS"><polygon fill="#181818" points="625.9204,220.7852,635.9204,224.7852,625.9204,228.7852,629.9204,224.7852" style="stroke:#181818;stroke-width:1;"/><line style="stroke:#181818;stroke-width:1;" x1="69.0757" x2="631.9204" y1="224.7852" y2="224.7852"/><text fill="#000000" font-family="sans-serif" font-size="13" lengthAdjust="spacing" textLength="140.937" x="76.0757" y="219.5225">Submete dados da doca</text></g><g class="message" data-participant-1="POS" data-participant-2="DockController"><polygon fill="#181818" points="892.3564,252.0762,902.3564,256.0762,892.3564,260.0762,896.3564,256.0762" style="stroke:#181818;stroke-width:1;"/><line style="stroke:#181818;stroke-width:1;" x1="637.9204" x2="898.3564" y1="256.0762" y2="256.0762"/><text fill="#000000" font-family="sans-serif" font-size="13" lengthAdjust="spacing" textLength="76.5781" x="644.9204" y="250.8135">POST /docks</text></g><g class="message" data-participant-1="DockController" data-participant-2="DockService"><polygon fill="#181818" points="1033.3818,283.3672,1043.3818,287.3672,1033.3818,291.3672,1037.3818,287.3672" style="stroke:#181818;stroke-width:1;"/><line style="stroke:#181818;stroke-width:1;" x1="904.3564" x2="1039.3818" y1="287.3672" y2="287.3672"/><text fill="#000000" font-family="sans-serif" font-size="13" lengthAdjust="spacing" textLength="95.3672" x="911.3564" y="282.1045">CreateDock(dto)</text></g><g class="message" data-participant-1="DockService" data-participant-2="VesselTypeRepository"><polygon fill="#181818" points="1295.4692,314.6582,1305.4692,318.6582,1295.4692,322.6582,1299.4692,318.6582" style="stroke:#181818;stroke-width:1;"/><line style="stroke:#181818;stroke-width:1;" x1="1045.3818" x2="1301.4692" y1="318.6582" y2="318.6582"/><text fill="#000000" font-family="sans-serif" font-size="13" lengthAdjust="spacing" textLength="169.0698" x="1052.3818" y="313.3955">GetByIds(dto.VesselTypeIds)</text></g><g class="message" data-participant-1="DockService" data-participant-2="DockRepository"><polygon fill="#181818" points="1152.0317,345.9492,1162.0317,349.9492,1152.0317,353.9492,1156.0317,349.9492" style="stroke:#181818;stroke-width:1;"/><line style="stroke:#181818;stroke-width:1;" x1="1045.3818" x2="1158.0317" y1="349.9492" y2="349.9492"/><text fill="#000000" font-family="sans-serif" font-size="13" lengthAdjust="spacing" textLength="94.6499" x="1052.3818" y="344.6865">AddAsync(dock)</text></g><g class="message" data-participant-1="DockRepository" data-participant-2="DB"><polygon fill="#181818" points="1433.3584,377.2402,1443.3584,381.2402,1433.3584,385.2402,1437.3584,381.2402" style="stroke:#181818;stroke-width:1;"/><line style="stroke:#181818;stroke-width:1;" x1="1164.0317" x2="1439.3584" y1="381.2402" y2="381.2402"/><text fill="#000000" font-family="sans-serif" font-size="13" lengthAdjust="spacing" textLength="244.5562" x="1171.0317" y="375.9775">INSERT Dock + rela&#231;&#227;o com VesselTypes</text></g><g class="message" data-participant-1="DB" data-participant-2="DockRepository"><polygon fill="#181818" points="1175.0317,408.5313,1165.0317,412.5313,1175.0317,416.5313,1171.0317,412.5313" style="stroke:#181818;stroke-width:1;"/><line style="stroke:#181818;stroke-width:1;stroke-dasharray:2,2;" x1="1169.0317" x2="1444.3584" y1="412.5313" y2="412.5313"/><text fill="#000000" font-family="sans-serif" font-size="13" lengthAdjust="spacing" textLength="73.6963" x="1181.0317" y="407.2686">Confirma&#231;&#227;o</text></g><g class="message" data-participant-1="DockRepository" data-participant-2="DockService"><polygon fill="#181818" points="1056.3818,439.8223,1046.3818,443.8223,1056.3818,447.8223,1052.3818,443.8223" style="stroke:#181818;stroke-width:1;"/><line style="stroke:#181818;stroke-width:1;stroke-dasharray:2,2;" x1="1050.3818" x2="1163.0317" y1="443.8223" y2="443.8223"/><text fill="#000000" font-family="sans-serif" font-size="13" lengthAdjust="spacing" textLength="69.3672" x="1062.3818" y="438.5596">Doca criada</text></g><g class="message" data-participant-1="DockService" data-participant-2="DockController"><polygon fill="#181818" points="915.3564,471.1133,905.3564,475.1133,915.3564,479.1133,911.3564,475.1133" style="stroke:#181818;stroke-width:1;"/><line style="stroke:#181818;stroke-width:1;stroke-dasharray:2,2;" x1="909.3564" x2="1044.3818" y1="475.1133" y2="475.1133"/><text fill="#000000" font-family="sans-serif" font-size="13" lengthAdjust="spacing" textLength="49.8481" x="921.3564" y="469.8506">DockDto</text></g><g class="message" data-participant-1="DockController" data-participant-2="POS"><polygon fill="#181818" points="648.9204,502.4043,638.9204,506.4043,648.9204,510.4043,644.9204,506.4043" style="stroke:#181818;stroke-width:1;"/><line style="stroke:#181818;stroke-width:1;" x1="642.9204" x2="903.3564" y1="506.4043" y2="506.4043"/><text fill="#000000" font-family="sans-serif" font-size="13" lengthAdjust="spacing" textLength="134.3989" x="654.9204" y="501.1416">Confirma&#231;&#227;o de registo</text></g><rect fill="#EEEEEE" height="3" style="stroke:#EEEEEE;stroke-width:1;" width="1501.2168" x="0" y="536.0498"/><line style="stroke:#000000;stroke-width:1;" x1="0" x2="1501.2168" y1="536.0498" y2="536.0498"/><line style="stroke:#000000;stroke-width:1;" x1="0" x2="1501.2168" y1="539.0498" y2="539.0498"/><rect fill="#EEEEEE" height="25.291" style="stroke:#000000;stroke-width:2;" width="202.5635" x="649.3267" y="524.4043"/><text fill="#000000" font-family="sans-serif" font-size="13" font-weight="bold" lengthAdjust="spacing" textLength="184.9517" x="655.3267" y="542.4326">Atualiza&#231;&#227;o de doca existente</text><g class="message" data-participant-1="PortAuthorityOfficer" data-participant-2="POS"><polygon fill="#181818" points="625.9204,578.9863,635.9204,582.9863,625.9204,586.9863,629.9204,582.9863" style="stroke:#181818;stroke-width:1;"/><line style="stroke:#181818;stroke-width:1;" x1="69.0757" x2="631.9204" y1="582.9863" y2="582.9863"/><text fill="#000000" font-family="sans-serif" font-size="13" lengthAdjust="spacing" textLength="114.9053" x="76.0757" y="577.7236">Abre doca existente</text></g><g class="message" data-participant-1="POS" data-participant-2="DockController"><polygon fill="#181818" points="892.3564,610.2773,902.3564,614.2773,892.3564,618.2773,896.3564,614.2773" style="stroke:#181818;stroke-width:1;"/><line style="stroke:#181818;stroke-width:1;" x1="637.9204" x2="898.3564" y1="614.2773" y2="614.2773"/><text fill="#000000" font-family="sans-serif" font-size="13" lengthAdjust="spacing" textLength="89.5972" x="644.9204" y="609.0146">PUT /docks/{id}</text></g><g class="message" data-participant-1="DockController" data-participant-2="DockService"><polygon fill="#181818" points="1033.3818,641.5684,1043.3818,645.5684,1033.3818,649.5684,1037.3818,645.5684" style="stroke:#181818;stroke-width:1;"/><line style="stroke:#181818;stroke-width:1;" x1="904.3564" x2="1039.3818" y1="645.5684" y2="645.5684"/><text fill="#000000" font-family="sans-serif" font-size="13" lengthAdjust="spacing" textLength="115.6099" x="911.3564" y="640.3057">UpdateDock(id, dto)</text></g><g class="message" data-participant-1="DockService" data-participant-2="DockRepository"><polygon fill="#181818" points="1152.0317,672.8594,1162.0317,676.8594,1152.0317,680.8594,1156.0317,676.8594" style="stroke:#181818;stroke-width:1;"/><line style="stroke:#181818;stroke-width:1;" x1="1045.3818" x2="1158.0317" y1="676.8594" y2="676.8594"/><text fill="#000000" font-family="sans-serif" font-size="13" lengthAdjust="spacing" textLength="65.7427" x="1052.3818" y="671.5967">GetById(id)</text></g><g class="message" data-participant-1="DockService" data-participant-2="VesselTypeRepository"><polygon fill="#181818" points="1295.4692,704.1504,1305.4692,708.1504,1295.4692,712.1504,1299.4692,708.1504" style="stroke:#181818;stroke-width:1;"/><line style="stroke:#181818;stroke-width:1;" x1="1045.3818" x2="1301.4692" y1="708.1504" y2="708.1504"/><text fill="#000000" font-family="sans-serif" font-size="13" lengthAdjust="spacing" textLength="169.0698" x="1052.3818" y="702.8877">GetByIds(dto.VesselTypeIds)</text></g><g class="message" data-participant-1="DockService" data-participant-2="DockRepository"><polygon fill="#181818" points="1152.0317,735.4414,1162.0317,739.4414,1152.0317,743.4414,1156.0317,739.4414" style="stroke:#181818;stroke-width:1;"/><line style="stroke:#181818;stroke-width:1;" x1="1045.3818" x2="1158.0317" y1="739.4414" y2="739.4414"/><text fill="#000000" font-family="sans-serif" font-size="13" lengthAdjust="spacing" textLength="78.0381" x="1052.3818" y="734.1787">Update(dock)</text></g><g class="message" data-participant-1="DockRepository" data-participant-2="DB"><polygon fill="#181818" points="1433.3584,766.7324,1443.3584,770.7324,1433.3584,774.7324,1437.3584,770.7324" style="stroke:#181818;stroke-width:1;"/><line style="stroke:#181818;stroke-width:1;" x1="1164.0317" x2="1439.3584" y1="770.7324" y2="770.7324"/><text fill="#000000" font-family="sans-serif" font-size="13" lengthAdjust="spacing" textLength="249.6152" x="1171.0317" y="765.4697">UPDATE Dock + rela&#231;&#227;o com VesselTypes</text></g><g class="message" data-participant-1="DB" data-participant-2="DockRepository"><polygon fill="#181818" points="1175.0317,798.0234,1165.0317,802.0234,1175.0317,806.0234,1171.0317,802.0234" style="stroke:#181818;stroke-width:1;"/><line style="stroke:#181818;stroke-width:1;stroke-dasharray:2,2;" x1="1169.0317" x2="1444.3584" y1="802.0234" y2="802.0234"/><text fill="#000000" font-family="sans-serif" font-size="13" lengthAdjust="spacing" textLength="73.6963" x="1181.0317" y="796.7607">Confirma&#231;&#227;o</text></g><g class="message" data-participant-1="DockRepository" data-participant-2="DockService"><polygon fill="#181818" points="1056.3818,829.3145,1046.3818,833.3145,1056.3818,837.3145,1052.3818,833.3145" style="stroke:#181818;stroke-width:1;"/><line style="stroke:#181818;stroke-width:1;stroke-dasharray:2,2;" x1="1050.3818" x2="1163.0317" y1="833.3145" y2="833.3145"/><text fill="#000000" font-family="sans-serif" font-size="13" lengthAdjust="spacing" textLength="93.228" x="1062.3818" y="828.0518">Doca atualizada</text></g><g class="message" data-participant-1="DockService" data-participant-2="DockController"><polygon fill="#181818" points="915.3564,860.6055,905.3564,864.6055,915.3564,868.6055,911.3564,864.6055" style="stroke:#181818;stroke-width:1;"/><line style="stroke:#181818;stroke-width:1;stroke-dasharray:2,2;" x1="909.3564" x2="1044.3818" y1="864.6055" y2="864.6055"/><text fill="#000000" font-family="sans-serif" font-size="13" lengthAdjust="spacing" textLength="49.8481" x="921.3564" y="859.3428">DockDto</text></g><g class="message" data-participant-1="DockController" data-participant-2="POS"><polygon fill="#181818" points="648.9204,891.8965,638.9204,895.8965,648.9204,899.8965,644.9204,895.8965" style="stroke:#181818;stroke-width:1;"/><line style="stroke:#181818;stroke-width:1;" x1="642.9204" x2="903.3564" y1="895.8965" y2="895.8965"/><text fill="#000000" font-family="sans-serif" font-size="13" lengthAdjust="spacing" textLength="161.1479" x="654.9204" y="890.6338">Confirma&#231;&#227;o de atualiza&#231;&#227;o</text></g><rect fill="#EEEEEE" height="3" style="stroke:#EEEEEE;stroke-width:1;" width="1501.2168" x="0" y="925.542"/><line style="stroke:#000000;stroke-width:1;" x1="0" x2="1501.2168" y1="925.542" y2="925.542"/><line style="stroke:#000000;stroke-width:1;" x1="0" x2="1501.2168" y1="928.542" y2="928.542"/><rect fill="#EEEEEE" height="25.291" style="stroke:#000000;stroke-width:2;" width="134.6626" x="683.2771" y="913.8965"/><text fill="#000000" font-family="sans-serif" font-size="13" font-weight="bold" lengthAdjust="spacing" textLength="117.0508" x="689.2771" y="931.9248">Pesquisa de docas</text><g class="message" data-participant-1="PortAuthorityOfficer" data-participant-2="POS"><polygon fill="#181818" points="625.9204,968.4785,635.9204,972.4785,625.9204,976.4785,629.9204,972.4785" style="stroke:#181818;stroke-width:1;"/><line style="stroke:#181818;stroke-width:1;" x1="69.0757" x2="631.9204" y1="972.4785" y2="972.4785"/><text fill="#000000" font-family="sans-serif" font-size="13" lengthAdjust="spacing" textLength="278.9541" x="76.0757" y="967.2158">Pesquisa por nome, tipo de navio ou localiza&#231;&#227;o</text></g><g class="message" data-participant-1="POS" data-participant-2="DockController"><polygon fill="#181818" points="892.3564,999.7695,902.3564,1003.7695,892.3564,1007.7695,896.3564,1003.7695" style="stroke:#181818;stroke-width:1;"/><line style="stroke:#181818;stroke-width:1;" x1="637.9204" x2="898.3564" y1="1003.7695" y2="1003.7695"/><text fill="#000000" font-family="sans-serif" font-size="13" lengthAdjust="spacing" textLength="242.436" x="644.9204" y="998.5068">GET /docks?name=X&amp;type=Y&amp;location=Z</text></g><g class="message" data-participant-1="DockController" data-participant-2="DockService"><polygon fill="#181818" points="1033.3818,1031.0605,1043.3818,1035.0605,1033.3818,1039.0605,1037.3818,1035.0605" style="stroke:#181818;stroke-width:1;"/><line style="stroke:#181818;stroke-width:1;" x1="904.3564" x2="1039.3818" y1="1035.0605" y2="1035.0605"/><text fill="#000000" font-family="sans-serif" font-size="13" lengthAdjust="spacing" textLength="117.0254" x="911.3564" y="1029.7979">SearchDocks(filters)</text></g><g class="message" data-participant-1="DockService" data-participant-2="DockRepository"><polygon fill="#181818" points="1152.0317,1062.3516,1162.0317,1066.3516,1152.0317,1070.3516,1156.0317,1066.3516" style="stroke:#181818;stroke-width:1;"/><line style="stroke:#181818;stroke-width:1;" x1="1045.3818" x2="1158.0317" y1="1066.3516" y2="1066.3516"/><text fill="#000000" font-family="sans-serif" font-size="13" lengthAdjust="spacing" textLength="80.9072" x="1052.3818" y="1061.0889">Search(filters)</text></g><g class="message" data-participant-1="DockRepository" data-participant-2="DB"><polygon fill="#181818" points="1433.3584,1093.6426,1443.3584,1097.6426,1433.3584,1101.6426,1437.3584,1097.6426" style="stroke:#181818;stroke-width:1;"/><line style="stroke:#181818;stroke-width:1;" x1="1164.0317" x2="1439.3584" y1="1097.6426" y2="1097.6426"/><text fill="#000000" font-family="sans-serif" font-size="13" lengthAdjust="spacing" textLength="113.4136" x="1171.0317" y="1092.3799">SELECT com filtros</text></g><g class="message" data-participant-1="DB" data-participant-2="DockRepository"><polygon fill="#181818" points="1175.0317,1124.9336,1165.0317,1128.9336,1175.0317,1132.9336,1171.0317,1128.9336" style="stroke:#181818;stroke-width:1;"/><line style="stroke:#181818;stroke-width:1;stroke-dasharray:2,2;" x1="1169.0317" x2="1444.3584" y1="1128.9336" y2="1128.9336"/><text fill="#000000" font-family="sans-serif" font-size="13" lengthAdjust="spacing" textLength="83.8335" x="1181.0317" y="1123.6709">Lista de docas</text></g><g class="message" data-participant-1="DockRepository" data-participant-2="DockService"><polygon fill="#181818" points="1056.3818,1156.2246,1046.3818,1160.2246,1056.3818,1164.2246,1052.3818,1160.2246" style="stroke:#181818;stroke-width:1;"/><line style="stroke:#181818;stroke-width:1;stroke-dasharray:2,2;" x1="1050.3818" x2="1163.0317" y1="1160.2246" y2="1160.2246"/><text fill="#000000" font-family="sans-serif" font-size="13" lengthAdjust="spacing" textLength="27.46" x="1062.3818" y="1154.9619">Lista</text></g><g class="message" data-participant-1="DockService" data-participant-2="DockController"><polygon fill="#181818" points="915.3564,1187.5156,905.3564,1191.5156,915.3564,1195.5156,911.3564,1191.5156" style="stroke:#181818;stroke-width:1;"/><line style="stroke:#181818;stroke-width:1;stroke-dasharray:2,2;" x1="909.3564" x2="1044.3818" y1="1191.5156" y2="1191.5156"/><text fill="#000000" font-family="sans-serif" font-size="13" lengthAdjust="spacing" textLength="98.9917" x="921.3564" y="1186.2529">Lista de DockDto</text></g><g class="message" data-participant-1="DockController" data-participant-2="POS"><polygon fill="#181818" points="648.9204,1218.8066,638.9204,1222.8066,648.9204,1226.8066,644.9204,1222.8066" style="stroke:#181818;stroke-width:1;"/><line style="stroke:#181818;stroke-width:1;" x1="642.9204" x2="903.3564" y1="1222.8066" y2="1222.8066"/><text fill="#000000" font-family="sans-serif" font-size="13" lengthAdjust="spacing" textLength="96.1099" x="654.9204" y="1217.5439">Exibe resultados</text></g><!--SRC=[lPNDRjf04CVlVeeHXmXKqjmZkHKVLXGf2WYJgkrjyGxDAhRNtLqZtAeF4_NG1-75EcC3mM3gN9gZT_x_dQ-VrY9osi1K6pV8tQCsoXMJvL95QBnC6ASYbOdKGOSLCCdG2ATqQY4ihCEa0yB2T1BMjMCTFOrqweoEOpITqs28PaKf6Y8ppBHLL59n5Fo4rc8yBp8yb4ZXn49OhCmmtdwMPOs7dkVxCCDloZeD4Y7LAm5IHm9ytsjg6Iu_S3Tm3OE5GLXga-Jnvjae3Ptg7c7Wdc-XTABZiPOjJLTTGwXZAjzHIY6rXMwg4-n3JCvO_H2RFvlVkW-HJZAZ4amTVMH6B_DKAZAGadHaX6Jpl5O9HPsYnii-n4hfdjVIGfWl4dIupIwhpdSbrrT4QZgVmnL9dgnt5DpAjqiZxSYWSCXdNUcuaCCmgPjsHRORTCFYLbeslN_Hq4dl-8Ow2hmFAGUsIACkLrZ93-Bi69BgzZuCPlFI3U_0O5nDcOTyK1GrE8JBfYpKz5APf79v9rbE1i4KG6IKaABUGTE4-M3iTCDqgttLalEQJKLkIV70vI_KSB346DSa87JmbK3NJUTPUDYXSFLJoL-jF3naSiU3adrePE9arbiQoD5x0twg4lzDpyDqF9W7RqoFs2xsln0a3gafEPgY_PuhAtO8sNPozfQCVXJL6yOlqVuX0ftN7xMpNDq4Ewu-fY91__E5eu7wNoxOphyL_sihQo4A4ptocUqkLUpGl6BxbQckRm0W3Ew2qRpSDqkDFh_hE_uNx8VOlkjItxxX_RLjgmxMQi4lXCrZn- -xznS0]--></g></svg>