<?xml version="1.0" encoding="us-ascii" standalone="no"?><svg xmlns="http://www.w3.org/2000/svg" xmlns:xlink="http://www.w3.org/1999/xlink" contentStyleType="text/css" height="749px" preserveAspectRatio="none" style="width:462px;height:749px;background:#FFFFFF;" version="1.1" viewBox="0 0 462 749" width="462px" zoomAndPan="magnify"><defs/><g><text fill="#000000" font-family="Arial" font-size="14" font-weight="bold" lengthAdjust="spacing" textLength="149" x="149.5" y="23.1318">Level 2 Physical View</text><!--cluster CLIENT--><g id="cluster_CLIENT"><polygon fill="#5DADE2" points="168,53.0986,178,43.0986,405,43.0986,405,256.0986,395,266.0986,168,266.0986,168,53.0986" style="stroke:#000000;stroke-width:1.0;"/><line style="stroke:#000000;stroke-width:1.0;" x1="395" x2="405" y1="53.0986" y2="43.0986"/><line style="stroke:#000000;stroke-width:1.0;" x1="168" x2="395" y1="53.0986" y2="53.0986"/><line style="stroke:#000000;stroke-width:1.0;" x1="395" x2="395" y1="53.0986" y2="266.0986"/><text fill="#000000" font-family="Arial" font-size="14" font-weight="bold" lengthAdjust="spacing" textLength="64" x="250.5" y="69.2305">localhost</text></g><!--cluster BROWSER--><g id="cluster_BROWSER"><rect fill="#5DADE2" height="135" rx="2.5" ry="2.5" style="stroke:#000000;stroke-width:1.0;" width="173" x="200" y="99.0986"/><text fill="#000000" font-family="Arial" font-size="14" font-weight="bold" lengthAdjust="spacing" textLength="95" x="239" y="114.2305">&#171;component&#187;</text><text fill="#000000" font-family="Arial" font-size="14" font-weight="bold" lengthAdjust="spacing" textLength="59" x="257" y="130.3291">Browser</text></g><!--cluster WEB--><g id="cluster_WEB"><polygon fill="#5DADE2" points="16,340.0986,26,330.0986,154,330.0986,154,428.0986,144,438.0986,16,438.0986,16,340.0986" style="stroke:#000000;stroke-width:1.0;"/><line style="stroke:#000000;stroke-width:1.0;" x1="144" x2="154" y1="340.0986" y2="330.0986"/><line style="stroke:#000000;stroke-width:1.0;" x1="16" x2="144" y1="340.0986" y2="340.0986"/><line style="stroke:#000000;stroke-width:1.0;" x1="144" x2="144" y1="340.0986" y2="438.0986"/><text fill="#000000" font-family="Arial" font-size="14" font-weight="bold" lengthAdjust="spacing" textLength="55" x="53.5" y="356.2305">server2</text></g><!--cluster APP--><g id="cluster_APP"><polygon fill="#5DADE2" points="227,505.0986,237,495.0986,400,495.0986,400,722.0986,390,732.0986,227,732.0986,227,505.0986" style="stroke:#000000;stroke-width:1.0;"/><line style="stroke:#000000;stroke-width:1.0;" x1="390" x2="400" y1="505.0986" y2="495.0986"/><line style="stroke:#000000;stroke-width:1.0;" x1="227" x2="390" y1="505.0986" y2="505.0986"/><line style="stroke:#000000;stroke-width:1.0;" x1="390" x2="390" y1="505.0986" y2="732.0986"/><text fill="#000000" font-family="Arial" font-size="14" font-weight="bold" lengthAdjust="spacing" textLength="55" x="282" y="521.2305">server1</text></g><!--cluster AUTH--><g id="cluster_AUTH"><polygon fill="#5DADE2" points="268,332.0986,278,322.0986,445,322.0986,445,436.0986,435,446.0986,268,446.0986,268,332.0986" style="stroke:#000000;stroke-width:1.0;"/><line style="stroke:#000000;stroke-width:1.0;" x1="435" x2="445" y1="332.0986" y2="322.0986"/><line style="stroke:#000000;stroke-width:1.0;" x1="268" x2="435" y1="332.0986" y2="332.0986"/><line style="stroke:#000000;stroke-width:1.0;" x1="435" x2="435" y1="332.0986" y2="446.0986"/><text fill="#000000" font-family="Arial" font-size="14" font-weight="bold" lengthAdjust="spacing" textLength="101" x="302" y="348.2305">authentication</text></g><!--entity UI--><g id="elem_UI"><rect fill="#5DADE2" height="52.1973" rx="2.5" ry="2.5" style="stroke:#000000;stroke-width:0.5;" width="106" x="243" y="158.0986"/><text fill="#000000" font-family="Arial" font-size="14" lengthAdjust="spacing" textLength="86" x="253" y="181.2305">&#171;component&#187;</text><text fill="#000000" font-family="Arial" font-size="14" lengthAdjust="spacing" textLength="12" x="253" y="197.3291">UI</text></g><!--entity WEBHTTP--><g id="elem_WEBHTTP"><rect fill="#5DADE2" height="52.1973" rx="2.5" ry="2.5" style="stroke:#000000;stroke-width:0.5;" width="106" x="32" y="370.0986"/><text fill="#000000" font-family="Arial" font-size="14" lengthAdjust="spacing" textLength="86" x="42" y="393.2305">&#171;component&#187;</text><text fill="#000000" font-family="Arial" font-size="14" lengthAdjust="spacing" textLength="82" x="42" y="409.3291">HTTP Server</text></g><!--entity API--><g id="elem_API"><rect fill="#5DADE2" height="52.1973" rx="2.5" ry="2.5" style="stroke:#000000;stroke-width:0.5;" width="106" x="270" y="543.0986"/><text fill="#000000" font-family="Arial" font-size="14" lengthAdjust="spacing" textLength="86" x="280" y="566.2305">&#171;component&#187;</text><text fill="#000000" font-family="Arial" font-size="14" lengthAdjust="spacing" textLength="84" x="280" y="582.3291">Backend App</text></g><!--entity PLAN--><g id="elem_PLAN"><rect fill="#5DADE2" height="52.1973" rx="2.5" ry="2.5" style="stroke:#000000;stroke-width:0.5;" width="106" x="270" y="656.0986"/><text fill="#000000" font-family="Arial" font-size="14" lengthAdjust="spacing" textLength="86" x="280" y="679.2305">&#171;component&#187;</text><text fill="#000000" font-family="Arial" font-size="14" lengthAdjust="spacing" textLength="83" x="280" y="695.3291">Planeamento</text></g><!--entity AUTH2--><g id="elem_AUTH2"><rect fill="#5DADE2" height="52.1973" rx="2.5" ry="2.5" style="stroke:#000000;stroke-width:0.5;" width="106" x="314" y="370.0986"/><text fill="#000000" font-family="Arial" font-size="14" lengthAdjust="spacing" textLength="86" x="324" y="393.2305">&#171;component&#187;</text><text fill="#000000" font-family="Arial" font-size="14" lengthAdjust="spacing" textLength="80" x="324" y="409.3291">Auth Service</text></g><!--link API to PLAN--><g id="link_API_PLAN"><path d="M323,595.2886 C323,613.4486 323,637.8686 323,656.0086 " fill="none" id="API-PLAN" style="stroke:#181818;stroke-width:1.0;"/></g><!--link BROWSER to WEBHTTP--><g id="link_BROWSER_WEBHTTP"><path d="M199.9009,197.4497 C199.7727,197.6463 199.6433,197.845 199.5126,198.0456 C198.99,198.8482 198.4476,199.682 197.8865,200.5454 C196.7644,202.2723 195.5679,204.1175 194.3068,206.0673 C191.7847,209.9668 189.0044,214.2846 186.045,218.9099 C174.2075,237.4111 159.505,260.8336 147,282.0986 C129.53,311.7986 113.4574,341.3613 101.1874,364.4313 " fill="none" id="BROWSER-to-WEBHTTP" style="stroke:#1B4B5A;stroke-width:1.0;"/><polygon fill="#1B4B5A" points="98.37,369.7286,106.1277,363.6609,100.7179,365.3142,99.0646,359.9043,98.37,369.7286" style="stroke:#1B4B5A;stroke-width:1.0;"/><text fill="#000000" font-family="Arial" font-size="13" lengthAdjust="spacing" textLength="33" x="148" y="295.2925">http/s</text></g><!--link BROWSER to APP--><g id="link_BROWSER_APP"><path d="M210.5589,234.7969 C210.7002,237.4381 210.8469,240.163 210.9986,242.9663 C211.6056,254.1795 212.2944,266.6464 213.055,280.0224 C216.0975,333.5261 220.29,401.5736 225,462.0986 C225.4513,467.9036 225.9428,473.8849 226.4579,479.9111 C226.7155,482.9243 226.979,485.9486 227.2462,488.9679 C227.3799,490.4775 227.5145,491.9858 227.6497,493.4908 C227.6835,493.867 227.1783,488.2673 227.2122,488.6431 " fill="none" id="BROWSER-to-APP" style="stroke:#1B4B5A;stroke-width:1.0;"/><polygon fill="#1B4B5A" points="227.7513,494.6188,230.9265,485.2959,227.3021,489.6391,222.9589,486.0146,227.7513,494.6188" style="stroke:#1B4B5A;stroke-width:1.0;"/><text fill="#000000" font-family="Arial" font-size="13" lengthAdjust="spacing" textLength="33" x="226" y="401.2925">http/s</text></g><!--link BROWSER to AUTH--><g id="link_BROWSER_AUTH"><path d="M213.9302,234.544 C213.9619,234.6935 213.9937,234.8432 214.0257,234.9929 C214.2816,236.1904 214.5483,237.3939 214.8263,238.6015 C215.3822,241.0165 215.9832,243.4475 216.633,245.8791 C219.2319,255.6055 222.61,265.3411 227,274.0986 C229.12,278.3186 231.08,278.3886 234,282.0986 C242.09,292.3686 245.25,294.3586 251,306.0986 C255.4025,315.0886 259.2563,324.9443 262.5688,334.7189 C264.225,339.6063 265.7459,344.4734 267.1325,349.202 C267.3058,349.793 267.477,350.3819 267.6462,350.9684 C267.7307,351.2617 266.165,345.7856 266.2486,346.0776 " fill="none" id="BROWSER-to-AUTH" style="stroke:#1B4B5A;stroke-width:1.0;"/><polygon fill="#1B4B5A" points="267.8983,351.8464,269.2695,342.0934,266.5235,347.0391,261.5779,344.2931,267.8983,351.8464" style="stroke:#1B4B5A;stroke-width:1.0;"/></g><!--reverse link AUTH to APP--><g id="link_AUTH_APP"><path d="M266.1712,435.2873 C266.0173,435.7996 267.3616,431.3357 267.2061,431.8547 C266.5844,433.9307 265.9513,436.0592 265.3112,438.2284 C264.0309,442.5668 262.7228,447.0679 261.4225,451.6364 C258.8219,460.7736 256.2525,470.1811 254,479.0986 C252.8,483.8474 251.612,488.7511 250.4508,493.7027 C250.3782,494.0122 250.3057,494.3218 250.2334,494.6317 C250.1972,494.7866 250.161,494.9415 250.1249,495.0965 " fill="none" id="AUTH-backto-APP" style="stroke:#1B4B5A;stroke-width:1.0;"/><polygon fill="#1B4B5A" points="267.9005,429.542,261.4763,437.0072,266.4594,434.3298,269.1368,439.3129,267.9005,429.542" style="stroke:#1B4B5A;stroke-width:1.0;"/></g><!--SRC=[dLBDQy8m5B_dhtZekMoMUHaYjDfXGLpHEW_R3h5ziy6Ob3HLPFY_BuqV5H4Bootlz_NUIpJJ766CM-JWGfJj2vPG3XyCTuGKQoPogkW6KloX9TTlKkW9tI1uYb5-XIToaqk1Gi_qtlWfJ3GLAuvN525JX5y2uDDalLAo5Eb0SgcWtHrwmy2j4AbILAVgiptaS2_bNpx4Tj3YqWoOoKAtW1Om68V19BP-jNkhrxjS-lqluIkvAr1PWJzzNyo2gLKyqin3Iv-7XdUequtD5fLhiKNWDmIFuZY2cPMS5LNfrgvZGI-AckOm6qEHWfVd9qNua1znAj0yjz3IygEnDwcpQQap0vd_efaKHyDvF6hemJCgEn9ByA9nArVJ3JYft0dd64JEgtO-svtbox9Blvt-UGNm2fdM-LDndrNjee5XOab5SyhyjWw4_040]--></g></svg>