<?xml version="1.0" encoding="us-ascii" standalone="no"?><svg xmlns="http://www.w3.org/2000/svg" xmlns:xlink="http://www.w3.org/1999/xlink" contentStyleType="text/css" height="479px" preserveAspectRatio="none" style="width:852px;height:479px;background:#FFFFFF;" version="1.1" viewBox="0 0 852 479" width="852px" zoomAndPan="magnify"><defs/><g><rect fill="#FFFFFF" height="295.8125" style="stroke:#181818;stroke-width:1.0;" width="10" x="42.5" y="92.6094"/><rect fill="#FFFFFF" height="264.4609" style="stroke:#181818;stroke-width:1.0;" width="10" x="420.5" y="114.9609"/><rect fill="#FFFFFF" height="73.7031" style="stroke:#181818;stroke-width:1.0;" width="10" x="679.5" y="188.6641"/><line style="stroke:#181818;stroke-width:0.5;stroke-dasharray:5.0,5.0;" x1="47" x2="47" y1="82.6094" y2="397.4219"/><line style="stroke:#181818;stroke-width:0.5;stroke-dasharray:5.0,5.0;" x1="425" x2="425" y1="82.6094" y2="397.4219"/><line style="stroke:#181818;stroke-width:0.5;stroke-dasharray:5.0,5.0;" x1="684.5" x2="684.5" y1="82.6094" y2="397.4219"/><text fill="#000000" font-family="sans-serif" font-size="14" lengthAdjust="spacing" textLength="79" x="5" y="79.5332">System User</text><ellipse cx="47.5" cy="13.5" fill="#E2E2F0" rx="8" ry="8" style="stroke:#181818;stroke-width:0.5;"/><path d="M47.5,21.5 L47.5,48.5 M34.5,29.5 L60.5,29.5 M47.5,48.5 L34.5,63.5 M47.5,48.5 L60.5,63.5 " fill="none" style="stroke:#181818;stroke-width:0.5;"/><text fill="#000000" font-family="sans-serif" font-size="14" lengthAdjust="spacing" textLength="79" x="5" y="410.9551">System User</text><ellipse cx="47.5" cy="422.5313" fill="#E2E2F0" rx="8" ry="8" style="stroke:#181818;stroke-width:0.5;"/><path d="M47.5,430.5313 L47.5,457.5313 M34.5,438.5313 L60.5,438.5313 M47.5,457.5313 L34.5,472.5313 M47.5,457.5313 L60.5,472.5313 " fill="none" style="stroke:#181818;stroke-width:0.5;"/><rect fill="#E2E2F0" height="31.6094" rx="2.5" ry="2.5" style="stroke:#181818;stroke-width:0.5;" width="113" x="369" y="50"/><text fill="#000000" font-family="sans-serif" font-size="14" lengthAdjust="spacing" textLength="99" x="376" y="71.5332">SPA (Frontend)</text><rect fill="#E2E2F0" height="31.6094" rx="2.5" ry="2.5" style="stroke:#181818;stroke-width:0.5;" width="113" x="369" y="396.4219"/><text fill="#000000" font-family="sans-serif" font-size="14" lengthAdjust="spacing" textLength="99" x="376" y="417.9551">SPA (Frontend)</text><rect fill="#E2E2F0" height="31.6094" rx="2.5" ry="2.5" style="stroke:#181818;stroke-width:0.5;" width="136" x="616.5" y="50"/><text fill="#000000" font-family="sans-serif" font-size="14" lengthAdjust="spacing" textLength="122" x="623.5" y="71.5332">Backend Module(s)</text><rect fill="#E2E2F0" height="31.6094" rx="2.5" ry="2.5" style="stroke:#181818;stroke-width:0.5;" width="136" x="616.5" y="396.4219"/><text fill="#000000" font-family="sans-serif" font-size="14" lengthAdjust="spacing" textLength="122" x="623.5" y="417.9551">Backend Module(s)</text><rect fill="#FFFFFF" height="295.8125" style="stroke:#181818;stroke-width:1.0;" width="10" x="42.5" y="92.6094"/><rect fill="#FFFFFF" height="264.4609" style="stroke:#181818;stroke-width:1.0;" width="10" x="420.5" y="114.9609"/><rect fill="#FFFFFF" height="73.7031" style="stroke:#181818;stroke-width:1.0;" width="10" x="679.5" y="188.6641"/><polygon fill="#181818" points="408.5,110.9609,418.5,114.9609,408.5,118.9609,412.5,114.9609" style="stroke:#181818;stroke-width:1.0;"/><line style="stroke:#181818;stroke-width:1.0;" x1="52.5" x2="414.5" y1="114.9609" y2="114.9609"/><text fill="#000000" font-family="sans-serif" font-size="13" lengthAdjust="spacing" textLength="158" x="59.5" y="110.1045">Fills form and clicks "Save"</text><line style="stroke:#181818;stroke-width:1.0;" x1="430.5" x2="472.5" y1="145.3125" y2="145.3125"/><line style="stroke:#181818;stroke-width:1.0;" x1="472.5" x2="472.5" y1="145.3125" y2="158.3125"/><line style="stroke:#181818;stroke-width:1.0;" x1="431.5" x2="472.5" y1="158.3125" y2="158.3125"/><polygon fill="#181818" points="441.5,154.3125,431.5,158.3125,441.5,162.3125,437.5,158.3125" style="stroke:#181818;stroke-width:1.0;"/><text fill="#000000" font-family="sans-serif" font-size="13" lengthAdjust="spacing" textLength="162" x="437.5" y="140.4561">Displays "Loading Indicator"</text><polygon fill="#181818" points="667.5,184.6641,677.5,188.6641,667.5,192.6641,671.5,188.6641" style="stroke:#181818;stroke-width:1.0;"/><line style="stroke:#181818;stroke-width:1.0;" x1="430.5" x2="673.5" y1="188.6641" y2="188.6641"/><text fill="#000000" font-family="sans-serif" font-size="13" lengthAdjust="spacing" textLength="215" x="437.5" y="183.8076">Request: POST /resource (form data)</text><line style="stroke:#181818;stroke-width:1.0;" x1="689.5" x2="731.5" y1="219.0156" y2="219.0156"/><line style="stroke:#181818;stroke-width:1.0;" x1="731.5" x2="731.5" y1="219.0156" y2="232.0156"/><line style="stroke:#181818;stroke-width:1.0;" x1="690.5" x2="731.5" y1="232.0156" y2="232.0156"/><polygon fill="#181818" points="700.5,228.0156,690.5,232.0156,700.5,236.0156,696.5,232.0156" style="stroke:#181818;stroke-width:1.0;"/><text fill="#000000" font-family="sans-serif" font-size="13" lengthAdjust="spacing" textLength="149" x="696.5" y="214.1592">Validates and Saves Data</text><polygon fill="#181818" points="441.5,258.3672,431.5,262.3672,441.5,266.3672,437.5,262.3672" style="stroke:#181818;stroke-width:1.0;"/><line style="stroke:#181818;stroke-width:1.0;" x1="435.5" x2="683.5" y1="262.3672" y2="262.3672"/><text fill="#000000" font-family="sans-serif" font-size="13" lengthAdjust="spacing" textLength="184" x="447.5" y="257.5107">Response: 200 OK (data saved)</text><line style="stroke:#181818;stroke-width:1.0;" x1="430.5" x2="472.5" y1="292.7188" y2="292.7188"/><line style="stroke:#181818;stroke-width:1.0;" x1="472.5" x2="472.5" y1="292.7188" y2="305.7188"/><line style="stroke:#181818;stroke-width:1.0;" x1="431.5" x2="472.5" y1="305.7188" y2="305.7188"/><polygon fill="#181818" points="441.5,301.7188,431.5,305.7188,441.5,309.7188,437.5,305.7188" style="stroke:#181818;stroke-width:1.0;"/><text fill="#000000" font-family="sans-serif" font-size="13" lengthAdjust="spacing" textLength="165" x="437.5" y="287.8623">Removes "Loading Indicator"</text><line style="stroke:#181818;stroke-width:1.0;" x1="430.5" x2="472.5" y1="336.0703" y2="336.0703"/><line style="stroke:#181818;stroke-width:1.0;" x1="472.5" x2="472.5" y1="336.0703" y2="349.0703"/><line style="stroke:#181818;stroke-width:1.0;" x1="431.5" x2="472.5" y1="349.0703" y2="349.0703"/><polygon fill="#181818" points="441.5,345.0703,431.5,349.0703,441.5,353.0703,437.5,349.0703" style="stroke:#181818;stroke-width:1.0;"/><text fill="#000000" font-family="sans-serif" font-size="13" lengthAdjust="spacing" textLength="235" x="437.5" y="331.2139">Displays "Success/Insuccess Message"</text><polygon fill="#181818" points="63.5,375.4219,53.5,379.4219,63.5,383.4219,59.5,379.4219" style="stroke:#181818;stroke-width:1.0;"/><line style="stroke:#181818;stroke-width:1.0;stroke-dasharray:2.0,2.0;" x1="57.5" x2="424.5" y1="379.4219" y2="379.4219"/><text fill="#000000" font-family="sans-serif" font-size="13" lengthAdjust="spacing" textLength="344" x="69.5" y="374.5654">Sees success/insuccess message and updates data or not</text><!--SRC=[XL9FQy8m5B_xAHuzjGTHTYnZi262RABORVT7yfHWctHvgU2ttsjgRSk4NS9B-FrDWYeu3qbnvK0LV37v193ZCAlH1wDCZJO8OlyAwTex6yZgB8BwtHJuXkeiXx1rkYafvGvxEvsX2kQ2WJg7Te7vorqfXxKfIuQZynMWYAZIg3EBErue6SXtvtwOYgmCroLUXVVXK1jxWetLHg5KJM32kSNAuK0_3N78ORyhFc7XYLtZ5K4QesWCc0tsVPc-wbZe6qiZSEAOlytDi1Bw63maFH3NpZBbyBHSmkuTqjOAM6WwcsdwO_cuy84grnhzs_VH7HMDKiIys5Zk9jZAWYSIRdoWv_byH2n8Z6x8XRbpgeuJMpTrTmEnYtmlwyAuIw_r2m00]--></g></svg>