<?xml version="1.0" encoding="us-ascii" standalone="no"?><svg xmlns="http://www.w3.org/2000/svg" xmlns:xlink="http://www.w3.org/1999/xlink" contentStyleType="text/css" height="780px" preserveAspectRatio="none" style="width:564px;height:780px;background:#FFFFFF;" version="1.1" viewBox="0 0 564 780" width="564px" zoomAndPan="magnify"><defs/><g><text fill="#000000" font-family="sans-serif" font-size="14" font-weight="bold" lengthAdjust="spacing" textLength="151" x="199.5" y="24.5332">Level 3 - Logical View</text><!--cluster dotNetBackend--><g id="cluster_dotNetBackend"><path d="M8.5,98.6094 L117.5,98.6094 A3.75,3.75 0 0 1 120,101.1094 L127,122.2188 L554.5,122.2188 A2.5,2.5 0 0 1 557,124.7188 L557,771.1094 A2.5,2.5 0 0 1 554.5,773.6094 L8.5,773.6094 A2.5,2.5 0 0 1 6,771.1094 L6,101.1094 A2.5,2.5 0 0 1 8.5,98.6094 " fill="none" style="stroke:#000000;stroke-width:1.5;"/><line style="stroke:#000000;stroke-width:1.5;" x1="6" x2="127" y1="122.2188" y2="122.2188"/><text fill="#000000" font-family="sans-serif" font-size="14" font-weight="bold" lengthAdjust="spacing" textLength="108" x="10" y="115.1426">dotNetBackend</text></g><!--cluster FrameworksAndDriversLayer--><g id="cluster_FrameworksAndDriversLayer"><path d="M210.5,142.6094 L414.5,142.6094 A3.75,3.75 0 0 1 417,145.1094 L424,166.2188 L530.5,166.2188 A2.5,2.5 0 0 1 533,168.7188 L533,300.1094 A2.5,2.5 0 0 1 530.5,302.6094 L210.5,302.6094 A2.5,2.5 0 0 1 208,300.1094 L208,145.1094 A2.5,2.5 0 0 1 210.5,142.6094 " fill="#438DD5" style="stroke:#000000;stroke-width:1.5;"/><line style="stroke:#000000;stroke-width:1.5;" x1="208" x2="424" y1="166.2188" y2="166.2188"/><text fill="#000000" font-family="sans-serif" font-size="14" font-weight="bold" lengthAdjust="spacing" textLength="203" x="212" y="159.1426">FrameworksAndDriversLayer</text><text fill="#000000" font-family="sans-serif" font-size="14" font-style="italic" lengthAdjust="spacing" textLength="107" x="321" y="182.752">&#171;container (C4)&#187;</text></g><!--cluster InterfaceAdaptersLayer--><g id="cluster_InterfaceAdaptersLayer"><path d="M256.5,475.6094 L421.5,475.6094 A3.75,3.75 0 0 1 424,478.1094 L431,499.2188 L530.5,499.2188 A2.5,2.5 0 0 1 533,501.7188 L533,598.1094 A2.5,2.5 0 0 1 530.5,600.6094 L256.5,600.6094 A2.5,2.5 0 0 1 254,598.1094 L254,478.1094 A2.5,2.5 0 0 1 256.5,475.6094 " fill="#438DD5" style="stroke:#000000;stroke-width:1.5;"/><line style="stroke:#000000;stroke-width:1.5;" x1="254" x2="431" y1="499.2188" y2="499.2188"/><text fill="#000000" font-family="sans-serif" font-size="14" font-weight="bold" lengthAdjust="spacing" textLength="164" x="258" y="492.1426">InterfaceAdaptersLayer</text><text fill="#000000" font-family="sans-serif" font-size="14" font-style="italic" lengthAdjust="spacing" textLength="107" x="344" y="515.752">&#171;container (C4)&#187;</text></g><!--cluster ApplicationBusinessRules--><g id="cluster_ApplicationBusinessRules"><path d="M32.5,326.6094 L216.5,326.6094 A3.75,3.75 0 0 1 219,329.1094 L226,350.2188 L226.5,350.2188 A2.5,2.5 0 0 1 229,352.7188 L229,449.1094 A2.5,2.5 0 0 1 226.5,451.6094 L32.5,451.6094 A2.5,2.5 0 0 1 30,449.1094 L30,329.1094 A2.5,2.5 0 0 1 32.5,326.6094 " fill="#438DD5" style="stroke:#000000;stroke-width:1.5;"/><line style="stroke:#000000;stroke-width:1.5;" x1="30" x2="226" y1="350.2188" y2="350.2188"/><text fill="#000000" font-family="sans-serif" font-size="14" font-weight="bold" lengthAdjust="spacing" textLength="183" x="34" y="343.1426">ApplicationBusinessRules</text><text fill="#000000" font-family="sans-serif" font-size="14" font-style="italic" lengthAdjust="spacing" textLength="107" x="80" y="366.752">&#171;container (C4)&#187;</text></g><!--cluster BusinessRules--><g id="cluster_BusinessRules"><path d="M89.5,624.6094 L195.5,624.6094 A3.75,3.75 0 0 1 198,627.1094 L205,648.2188 L222.5,648.2188 A2.5,2.5 0 0 1 225,650.7188 L225,747.1094 A2.5,2.5 0 0 1 222.5,749.6094 L89.5,749.6094 A2.5,2.5 0 0 1 87,747.1094 L87,627.1094 A2.5,2.5 0 0 1 89.5,624.6094 " fill="#438DD5" style="stroke:#000000;stroke-width:1.5;"/><line style="stroke:#000000;stroke-width:1.5;" x1="87" x2="205" y1="648.2188" y2="648.2188"/><text fill="#000000" font-family="sans-serif" font-size="14" font-weight="bold" lengthAdjust="spacing" textLength="105" x="91" y="641.1426">BusinessRules</text><text fill="#000000" font-family="sans-serif" font-size="14" font-style="italic" lengthAdjust="spacing" textLength="107" x="106.5" y="664.752">&#171;container (C4)&#187;</text></g><!--entity ControllerAPI--><g id="elem_ControllerAPI"><ellipse cx="492" cy="408.1094" fill="#FFFFFF" rx="8" ry="8" style="stroke:#000000;stroke-width:0.5;"/><text fill="#000000" font-family="sans-serif" font-size="14" lengthAdjust="spacing" textLength="83" x="450.5" y="439.6426">ControllerAPI</text></g><!--entity PersistenceAPI--><g id="elem_PersistenceAPI"><ellipse cx="300" cy="408.1094" fill="#FFFFFF" rx="8" ry="8" style="stroke:#000000;stroke-width:0.5;"/><text fill="#000000" font-family="sans-serif" font-size="14" lengthAdjust="spacing" textLength="95" x="252.5" y="439.6426">PersistenceAPI</text></g><!--entity AppServiceAPI--><g id="elem_AppServiceAPI"><ellipse cx="381" cy="706.1094" fill="#FFFFFF" rx="8" ry="8" style="stroke:#000000;stroke-width:0.5;"/><text fill="#000000" font-family="sans-serif" font-size="14" lengthAdjust="spacing" textLength="93" x="334.5" y="737.6426">AppServiceAPI</text></g><!--entity RepoAPI--><g id="elem_RepoAPI"><ellipse cx="399" cy="408.1094" fill="#FFFFFF" rx="8" ry="8" style="stroke:#000000;stroke-width:0.5;"/><text fill="#000000" font-family="sans-serif" font-size="14" lengthAdjust="spacing" textLength="55" x="371.5" y="439.6426">RepoAPI</text></g><!--entity DomainAPI--><g id="elem_DomainAPI"><ellipse cx="156" cy="557.1094" fill="#FFFFFF" rx="8" ry="8" style="stroke:#000000;stroke-width:0.5;"/><text fill="#000000" font-family="sans-serif" font-size="14" lengthAdjust="spacing" textLength="69" x="121.5" y="588.6426">DomainAPI</text></g><!--entity Routing--><g id="elem_Routing"><rect fill="#F1F1F1" height="72.8281" rx="2.5" ry="2.5" style="stroke:#181818;stroke-width:0.5;" width="123" x="393.5" y="205.1094"/><text fill="#000000" font-family="sans-serif" font-size="14" font-style="italic" lengthAdjust="spacing" textLength="86" x="412" y="229.6426">&#171;component&#187;</text><text fill="#000000" font-family="sans-serif" font-size="14" lengthAdjust="spacing" textLength="49" x="403.5" y="247.252">Routing</text><text fill="#000000" font-family="sans-serif" font-size="14" lengthAdjust="spacing" textLength="103" x="403.5" y="264.8613">(ASP.NET Core)</text></g><!--entity Database--><g id="elem_Database"><rect fill="#F1F1F1" height="90.4375" rx="2.5" ry="2.5" style="stroke:#181818;stroke-width:0.5;" width="134" x="224" y="196.6094"/><text fill="#000000" font-family="sans-serif" font-size="14" font-style="italic" lengthAdjust="spacing" textLength="86" x="248" y="221.1426">&#171;component&#187;</text><text fill="#000000" font-family="sans-serif" font-size="14" lengthAdjust="spacing" textLength="62" x="234" y="238.752">DataBase</text><text fill="#000000" font-family="sans-serif" font-size="14" lengthAdjust="spacing" textLength="114" x="234" y="256.3613">(Entity Framework</text><text fill="#000000" font-family="sans-serif" font-size="14" lengthAdjust="spacing" textLength="113" x="234" y="273.9707">Core + InMemory)</text></g><!--entity Controller--><g id="elem_Controller"><rect fill="#F1F1F1" height="55.2188" rx="2.5" ry="2.5" style="stroke:#181818;stroke-width:0.5;" width="106" x="411" y="529.6094"/><text fill="#000000" font-family="sans-serif" font-size="14" font-style="italic" lengthAdjust="spacing" textLength="86" x="421" y="554.1426">&#171;component&#187;</text><text fill="#000000" font-family="sans-serif" font-size="14" lengthAdjust="spacing" textLength="62" x="433" y="571.752">Controller</text></g><!--entity Repository--><g id="elem_Repository"><rect fill="#F1F1F1" height="55.2188" rx="2.5" ry="2.5" style="stroke:#181818;stroke-width:0.5;" width="106" x="270" y="529.6094"/><text fill="#000000" font-family="sans-serif" font-size="14" font-style="italic" lengthAdjust="spacing" textLength="86" x="280" y="554.1426">&#171;component&#187;</text><text fill="#000000" font-family="sans-serif" font-size="14" lengthAdjust="spacing" textLength="68" x="289" y="571.752">Repository</text></g><!--entity Service--><g id="elem_Service"><rect fill="#F1F1F1" height="55.2188" rx="2.5" ry="2.5" style="stroke:#181818;stroke-width:0.5;" width="106" x="104" y="380.6094"/><text fill="#000000" font-family="sans-serif" font-size="14" font-style="italic" lengthAdjust="spacing" textLength="86" x="114" y="405.1426">&#171;component&#187;</text><text fill="#000000" font-family="sans-serif" font-size="14" lengthAdjust="spacing" textLength="47" x="133.5" y="422.752">Service</text></g><!--entity Domain--><g id="elem_Domain"><rect fill="#F1F1F1" height="55.2188" rx="2.5" ry="2.5" style="stroke:#181818;stroke-width:0.5;" width="106" x="103" y="678.6094"/><text fill="#000000" font-family="sans-serif" font-size="14" font-style="italic" lengthAdjust="spacing" textLength="86" x="113" y="703.1426">&#171;component&#187;</text><text fill="#000000" font-family="sans-serif" font-size="14" lengthAdjust="spacing" textLength="48" x="132" y="720.752">Domain</text></g><!--entity RestAPI--><g id="elem_RestAPI"><ellipse cx="455" cy="52.6094" fill="#FFFFFF" rx="8" ry="8" style="stroke:#000000;stroke-width:0.5;"/><text fill="#000000" font-family="sans-serif" font-size="14" lengthAdjust="spacing" textLength="50" x="430" y="84.1426">RestAPI</text></g><!--entity DatabaseAPI--><g id="elem_DatabaseAPI"><ellipse cx="291" cy="52.6094" fill="#FFFFFF" rx="8" ry="8" style="stroke:#000000;stroke-width:0.5;"/><text fill="#000000" font-family="sans-serif" font-size="14" lengthAdjust="spacing" textLength="40" x="271" y="84.1426">DBAPI</text></g><!--link RestAPI to Routing--><g id="link_RestAPI_Routing"><path codeLine="63" d="M455,61.6494 C455,85.9694 455,159.9094 455,204.7794 " fill="none" id="RestAPI-Routing" style="stroke:#181818;stroke-width:1.0;"/></g><!--link Routing to ControllerAPI--><g id="link_Routing_ControllerAPI"><path codeLine="64" d="M463.03,278.2994 C471.83,317.4194 485.34,377.4994 490.19,399.0594 " fill="none" id="Routing-ControllerAPI" style="stroke:#181818;stroke-width:1.0;"/></g><!--reverse link ControllerAPI to Controller--><g id="link_ControllerAPI_Controller"><path codeLine="65" d="M488.5425,427.2534 C484.5125,448.4534 475.57,495.3594 469.1,529.3394 " fill="none" id="ControllerAPI-backto-Controller" style="stroke:#181818;stroke-width:1.0;"/><path d="M481.5267,418.874 A9,9 0 0 0 498.1436 422.0328" fill="none" style="stroke:#181818;stroke-width:1.5;"/></g><!--link Controller to AppServiceAPI--><g id="link_Controller_AppServiceAPI"><path codeLine="67" d="M448.97,584.7294 C429.72,618.8194 402.3568,667.2816 390.4768,688.3216 " fill="none" id="Controller-to-AppServiceAPI" style="stroke:#181818;stroke-width:1.0;"/><path d="M394.4378,698.5072 A9,9 0 0 0 379.7091 690.1907" fill="none" style="stroke:#181818;stroke-width:1.5;"/></g><!--link AppServiceAPI to Service--><g id="link_AppServiceAPI_Service"><path codeLine="68" d="M371.66,700.7494 C348.06,689.2594 285.68,655.7094 254,608.6094 C217.78,554.7594 248.61,523.7194 216,467.6094 C209.19,455.8894 199.42,444.8894 189.79,435.6594 " fill="none" id="AppServiceAPI-Service" style="stroke:#181818;stroke-width:1.0;"/></g><!--link Service to DomainAPI--><g id="link_Service_DomainAPI"><path codeLine="70" d="M156.82,435.7294 C156.59,469.8194 156.2713,516.9896 156.1213,538.0296 " fill="none" id="Service-to-DomainAPI" style="stroke:#181818;stroke-width:1.0;"/><path d="M164.529,545.0116 A9,9 0 0 0 147.6149 544.891" fill="none" style="stroke:#181818;stroke-width:1.5;"/></g><!--link DomainAPI to Domain--><g id="link_DomainAPI_Domain"><path codeLine="71" d="M156,566.4294 C156,587.6294 156,644.3594 156,678.3394 " fill="none" id="DomainAPI-Domain" style="stroke:#181818;stroke-width:1.0;"/></g><!--link Service to RepoAPI--><g id="link_Service_RepoAPI"><path codeLine="73" d="M167.74,380.4894 C177,360.3094 192.32,333.8994 214,318.6094 C220.52,314.0094 223.57,315.4994 231.5,314.6094 C258.88,311.5194 328.12,311.5194 355.5,314.6094 C363.43,315.4994 367.2,313.1294 373,318.6094 C395.95,340.2594 399.02,380.8594 399.18,398.9794 " fill="none" id="Service-RepoAPI" style="stroke:#181818;stroke-width:1.0;"/></g><!--reverse link RepoAPI to Repository--><g id="link_RepoAPI_Repository"><path codeLine="74" d="M390.1949,426.2314 C385.0549,436.2214 380.69,444.7194 373,459.6094 C360.79,483.2494 346.86,510.1194 336.81,529.4994 " fill="none" id="RepoAPI-backto-Repository" style="stroke:#181818;stroke-width:1.0;"/><path d="M385.8415,416.2072 A9,9 0 0 0 400.8819 423.9458" fill="none" style="stroke:#181818;stroke-width:1.5;"/></g><!--reverse link PersistenceAPI to Repository--><g id="link_PersistenceAPI_Repository"><path codeLine="76" d="M302.8472,427.309 C306.1672,448.509 313.5,495.3594 318.81,529.3394 " fill="none" id="PersistenceAPI-backto-Repository" style="stroke:#181818;stroke-width:1.0;"/><path d="M293.4209,421.779 A9,9 0 0 0 310.1316 419.162" fill="none" style="stroke:#181818;stroke-width:1.5;"/></g><!--link Database to PersistenceAPI--><g id="link_Database_PersistenceAPI"><path codeLine="77" d="M293.41,286.6894 C295.54,325.5194 298.46,378.9294 299.56,399.0294 " fill="none" id="Database-PersistenceAPI" style="stroke:#181818;stroke-width:1.0;"/></g><!--link DatabaseAPI to Database--><g id="link_DatabaseAPI_Database"><path codeLine="79" d="M291,61.6494 C291,84.5094 291,151.1694 291,196.3494 " fill="none" id="DatabaseAPI-Database" style="stroke:#181818;stroke-width:1.0;"/></g><!--SRC=[hLHRRzem57xFhpXYBw29ILKxQG-e4e5sGc8TWcfxwOkNdAKMnevi1yGc_ljE4jj9L61qQnuY-_Wxb-_SBBS2OOvR570DGvYhZ2TCm3UEkoWoQovpfja64hN9bKHfLtPF2XeJosGci0K9ClWT0NqnIzQPLeLC9qeeFHejqTZnOdPx2tEUFTjO57WSE6MM_M06Bm8lLM6vp0WusJDvtk1Pq4H9gvKGgBtJpnfHdkAIAyEjqliBm2lKMvwWHqwKPk94e6h3k2JWLqsfT8oLJb5N08W5QLJIUufsnNyXN5r5XtQbkBIeVxBaH1dW-pEtfmoJeVu0UgvGFM06tBcIJsClRLKeYd9IPHb2BrNs0Mtf46NQS_whNu3SKuYuKtfjnZATQhv5RUPiZxe7er52d8W-QkXFRWQKXNStrv-cqu_EKh1MVg4XATow0vvaVxnQV7YuUmJAC0xgyEktohXJ8BkDlSDPooNDc6YIwJjfkTr3YFz9baxWFSpa5znG7mmwYVcBGqfq9oqpNxHnodBx1ZbfchaAgxd-OoQQVdTTuQ-l93hESq4Bnd8buy8GBsEMXK3p7rJTT5LnkVChWtghIEhfhVkWEbuMHpbQJO7yY7Ka0RUWtk36eapG0xkYWAHCksnuO4SIS6Kfcs6lpk6jPX66tj_giDrcW66gTdBe9wr-SbFddbvIwKXWy0BNR8vMvzQe_X4U7OdtwYIDATyStax3ftmDDwzV2uwewtA93pl9SkV0f9cFHhyrCyCY9_z72jSLLRYmKXfBhUqRWlMWmny0]--></g></svg>