<?xml version="1.0" encoding="us-ascii" standalone="no"?><svg xmlns="http://www.w3.org/2000/svg" xmlns:xlink="http://www.w3.org/1999/xlink" contentStyleType="text/css" height="414px" preserveAspectRatio="none" style="width:693px;height:414px;background:#FFFFFF;" version="1.1" viewBox="0 0 693 414" width="693px" zoomAndPan="magnify"><defs/><g><text fill="#000000" font-family="sans-serif" font-size="14" font-weight="bold" lengthAdjust="spacing" textLength="151" x="264.25" y="24.5332">Level 1 - Logical View</text><!--entity admin--><g id="elem_admin"><ellipse cx="55.5" cy="69.1094" fill="#F1F1F1" rx="16" ry="16" style="stroke:#181818;stroke-width:0.5;"/><path d="M55.5,89.1094 C59.5,89.1094 62.5,89.1094 66.5,85.1094 C74.5,85.1094 82.5,93.1094 82.5,101.1094 L82.5,105.1094 C82.5,109.1094 78.5,113.1094 74.5,113.1094 L36.5,113.1094 C32.5,113.1094 28.5,109.1094 28.5,105.1094 L28.5,101.1094 C28.5,93.1094 36.5,85.1094 44.5,85.1094 C48.5,89.1094 51.5,89.1094 55.5,89.1094 " fill="#F1F1F1" style="stroke:#181818;stroke-width:0.5;"/><text fill="#000000" font-family="sans-serif" font-size="14" lengthAdjust="spacing" textLength="83" x="6" y="128.1426">Administrator</text><text fill="#000000" font-family="sans-serif" font-size="14" lengthAdjust="spacing" textLength="4" x="89" y="128.1426">&#160;</text><text fill="#000000" font-family="sans-serif" font-size="14" lengthAdjust="spacing" textLength="12" x="93" y="128.1426">UI</text></g><!--entity agent--><g id="elem_agent"><ellipse cx="238.5" cy="60.6094" fill="#F1F1F1" rx="16" ry="16" style="stroke:#181818;stroke-width:0.5;"/><path d="M238.5,80.6094 C242.5,80.6094 245.5,80.6094 249.5,76.6094 C257.5,76.6094 265.5,84.6094 265.5,92.6094 L265.5,96.6094 C265.5,100.6094 261.5,104.6094 257.5,104.6094 L219.5,104.6094 C215.5,104.6094 211.5,100.6094 211.5,96.6094 L211.5,92.6094 C211.5,84.6094 219.5,76.6094 227.5,76.6094 C231.5,80.6094 234.5,80.6094 238.5,80.6094 " fill="#F1F1F1" style="stroke:#181818;stroke-width:0.5;"/><text fill="#000000" font-family="sans-serif" font-size="14" lengthAdjust="spacing" textLength="55" x="140.5" y="119.6426">Shipping</text><text fill="#000000" font-family="sans-serif" font-size="14" lengthAdjust="spacing" textLength="4" x="195.5" y="119.6426">&#160;</text><text fill="#000000" font-family="sans-serif" font-size="14" lengthAdjust="spacing" textLength="37" x="199.5" y="119.6426">Agent</text><text fill="#000000" font-family="sans-serif" font-size="14" lengthAdjust="spacing" textLength="4" x="236.5" y="119.6426">&#160;</text><text fill="#000000" font-family="sans-serif" font-size="14" lengthAdjust="spacing" textLength="96" x="240.5" y="119.6426">Representative</text><text fill="#000000" font-family="sans-serif" font-size="14" lengthAdjust="spacing" textLength="12" x="232.5" y="137.252">UI</text></g><!--entity officer--><g id="elem_officer"><ellipse cx="445.5" cy="69.1094" fill="#F1F1F1" rx="16" ry="16" style="stroke:#181818;stroke-width:0.5;"/><path d="M445.5,89.1094 C449.5,89.1094 452.5,89.1094 456.5,85.1094 C464.5,85.1094 472.5,93.1094 472.5,101.1094 L472.5,105.1094 C472.5,109.1094 468.5,113.1094 464.5,113.1094 L426.5,113.1094 C422.5,113.1094 418.5,109.1094 418.5,105.1094 L418.5,101.1094 C418.5,93.1094 426.5,85.1094 434.5,85.1094 C438.5,89.1094 441.5,89.1094 445.5,89.1094 " fill="#F1F1F1" style="stroke:#181818;stroke-width:0.5;"/><text fill="#000000" font-family="sans-serif" font-size="14" lengthAdjust="spacing" textLength="26" x="371.5" y="128.1426">Port</text><text fill="#000000" font-family="sans-serif" font-size="14" lengthAdjust="spacing" textLength="4" x="397.5" y="128.1426">&#160;</text><text fill="#000000" font-family="sans-serif" font-size="14" lengthAdjust="spacing" textLength="56" x="401.5" y="128.1426">Authority</text><text fill="#000000" font-family="sans-serif" font-size="14" lengthAdjust="spacing" textLength="4" x="457.5" y="128.1426">&#160;</text><text fill="#000000" font-family="sans-serif" font-size="14" lengthAdjust="spacing" textLength="42" x="461.5" y="128.1426">Officer</text><text fill="#000000" font-family="sans-serif" font-size="14" lengthAdjust="spacing" textLength="4" x="503.5" y="128.1426">&#160;</text><text fill="#000000" font-family="sans-serif" font-size="14" lengthAdjust="spacing" textLength="12" x="507.5" y="128.1426">UI</text></g><!--entity operator--><g id="elem_operator"><ellipse cx="620.5" cy="69.1094" fill="#F1F1F1" rx="16" ry="16" style="stroke:#181818;stroke-width:0.5;"/><path d="M620.5,89.1094 C624.5,89.1094 627.5,89.1094 631.5,85.1094 C639.5,85.1094 647.5,93.1094 647.5,101.1094 L647.5,105.1094 C647.5,109.1094 643.5,113.1094 639.5,113.1094 L601.5,113.1094 C597.5,113.1094 593.5,109.1094 593.5,105.1094 L593.5,101.1094 C593.5,93.1094 601.5,85.1094 609.5,85.1094 C613.5,89.1094 616.5,89.1094 620.5,89.1094 " fill="#F1F1F1" style="stroke:#181818;stroke-width:0.5;"/><text fill="#000000" font-family="sans-serif" font-size="14" lengthAdjust="spacing" textLength="55" x="554.5" y="128.1426">Logistics</text><text fill="#000000" font-family="sans-serif" font-size="14" lengthAdjust="spacing" textLength="4" x="609.5" y="128.1426">&#160;</text><text fill="#000000" font-family="sans-serif" font-size="14" lengthAdjust="spacing" textLength="57" x="613.5" y="128.1426">Operator</text><text fill="#000000" font-family="sans-serif" font-size="14" lengthAdjust="spacing" textLength="4" x="670.5" y="128.1426">&#160;</text><text fill="#000000" font-family="sans-serif" font-size="14" lengthAdjust="spacing" textLength="12" x="674.5" y="128.1426">UI</text></g><!--entity ait--><g id="elem_ait"><rect fill="#1168BD" height="55.2188" style="stroke:#3C7FC0;stroke-width:0.5;" width="215" x="234" y="212.1094"/><text fill="#FFFFFF" font-family="sans-serif" font-size="12" font-style="italic" lengthAdjust="spacing" textLength="53" x="315" y="234.5664">&#171;system&#187;</text><text fill="#FFFFFF" font-family="sans-serif" font-size="16" font-weight="bold" lengthAdjust="spacing" textLength="32" x="244" y="253.8125">Port</text><text fill="#FFFFFF" font-family="sans-serif" font-size="16" font-weight="bold" lengthAdjust="spacing" textLength="4" x="276" y="253.8125">&#160;</text><text fill="#FFFFFF" font-family="sans-serif" font-size="16" font-weight="bold" lengthAdjust="spacing" textLength="98" x="280" y="253.8125">Management</text><text fill="#FFFFFF" font-family="sans-serif" font-size="16" font-weight="bold" lengthAdjust="spacing" textLength="4" x="378" y="253.8125">&#160;</text><text fill="#FFFFFF" font-family="sans-serif" font-size="16" font-weight="bold" lengthAdjust="spacing" textLength="57" x="382" y="253.8125">System</text></g><!--entity apiIF--><g id="elem_apiIF"><ellipse cx="341.5" cy="374.1094" fill="#F1F1F1" rx="8" ry="8" style="stroke:#181818;stroke-width:0.5;"/><text fill="#000000" font-family="sans-serif" font-size="14" lengthAdjust="spacing" textLength="21" x="331" y="405.6426">API</text></g><!--link admin to ait--><g id="link_admin_ait"><path d="M105.32,129.5794 C111.02,133.2894 116.82,136.8794 122.5,140.1094 C171.42,167.9394 222.2571,190.7523 266.3671,208.9923 " fill="none" id="admin-to-ait" style="stroke:#666666;stroke-width:1.0;"/><polygon fill="#666666" points="273.76,212.0494,267.5135,206.22,265.2207,211.7647,273.76,212.0494" style="stroke:#666666;stroke-width:1.0;"/><text fill="#666666" font-family="sans-serif" font-size="0" lengthAdjust="spacing" textLength="0" x="206.5" y="171.1094">.</text></g><!--link agent to ait--><g id="link_agent_ait"><path d="M271.94,140.3494 C288.74,164.0794 303.8579,185.4297 318.0079,205.4197 " fill="none" id="agent-to-ait" style="stroke:#666666;stroke-width:1.0;"/><polygon fill="#666666" points="322.63,211.9494,320.4566,203.6864,315.5593,207.153,322.63,211.9494" style="stroke:#666666;stroke-width:1.0;"/><text fill="#666666" font-family="sans-serif" font-size="0" lengthAdjust="spacing" textLength="0" x="300.5" y="171.1094">.</text></g><!--link officer to ait--><g id="link_officer_ait"><path d="M417.9,131.7194 C399.85,156.9794 381.3718,182.8209 365.3118,205.2909 " fill="none" id="officer-to-ait" style="stroke:#666666;stroke-width:1.0;"/><polygon fill="#666666" points="360.66,211.7994,367.7525,207.0353,362.8711,203.5464,360.66,211.7994" style="stroke:#666666;stroke-width:1.0;"/><text fill="#666666" font-family="sans-serif" font-size="0" lengthAdjust="spacing" textLength="0" x="391.5" y="171.1094">.</text></g><!--link operator to ait--><g id="link_operator_ait"><path d="M554.07,131.1094 C548.48,134.1894 542.9,137.2194 537.5,140.1094 C490.3,165.3094 443.0492,188.9897 403.5492,208.4097 " fill="none" id="operator-to-ait" style="stroke:#666666;stroke-width:1.0;"/><polygon fill="#666666" points="396.37,211.9394,404.8729,211.1019,402.2256,205.7175,396.37,211.9394" style="stroke:#666666;stroke-width:1.0;"/><text fill="#666666" font-family="sans-serif" font-size="0" lengthAdjust="spacing" textLength="0" x="480.5" y="171.1094">.</text></g><!--link ait to apiIF--><g id="link_ait_apiIF"><path d="M341.5,267.4194 C341.5,297.9694 341.5,338.1094 341.5,357.0594 " fill="none" id="ait-to-apiIF" style="stroke:#666666;stroke-width:1.0;"/><polygon fill="#666666" points="341.5,365.0594,344.5,357.0594,338.5,357.0594,341.5,365.0594" style="stroke:#666666;stroke-width:1.0;"/><text fill="#666666" font-family="sans-serif" font-size="12" font-weight="bold" lengthAdjust="spacing" textLength="30" x="342.5" y="310.5664">REST</text><text fill="#666666" font-family="sans-serif" font-size="12" font-weight="bold" lengthAdjust="spacing" textLength="3" x="372.5" y="310.5664">&#160;</text><text fill="#666666" font-family="sans-serif" font-size="12" font-weight="bold" lengthAdjust="spacing" textLength="19" x="375.5" y="310.5664">API</text></g><!--SRC=[PL3BQiCm4BpxAxQ-D0Kdfj1JeGSJMZ0a92HDhqLM57j1beIqpkFlkxATDBGwBJEZtPbvG2DrjrVG4BdmckTUd6OrKjDLNL1UMaFAq4pQDdTQ6EfQFGsqrrZbyvVfEaAxvI9lHI3b6VgUnnzdcZbM9WaXQGKBTLGQdc4A2rkZ51g-K9sIv17U-44XoVhGpuc8CuXzYmP014YBE68WBoAnAzEhf6PVC6Ys3Jg7feQY1pVAUHLu4eH7TVV77WuebU__hAqdA3fgh4Uwm6gaxiHE3JUZEleEX3B0wWf7vJN1ziBnso71C4y4KZPUMGh3RjjeRI3Jfz_iwn9ARimVX5Gm2Lt5PwX3u0wLDrnLL5Js_3HinvisPIADveJ3ykEsSACqnxOcS2TZfmnD-aQps5VlYntqQEph7phMbFr1n-3P3HrMOBy01XjCRDwtdz4q2tu0]--></g></svg>