<?xml version="1.0" encoding="us-ascii" standalone="no"?><svg xmlns="http://www.w3.org/2000/svg" xmlns:xlink="http://www.w3.org/1999/xlink" contentStyleType="text/css" height="288px" preserveAspectRatio="none" style="width:418px;height:288px;background:#FFFFFF;" version="1.1" viewBox="0 0 418 288" width="418px" zoomAndPan="magnify"><defs/><g><rect fill="#FFFFFF" height="73.7031" style="stroke:#181818;stroke-width:1.0;" width="10" x="255.5" y="114.9609"/><line style="stroke:#181818;stroke-width:0.5;stroke-dasharray:5.0,5.0;" x1="49" x2="49" y1="82.6094" y2="206.6641"/><line style="stroke:#181818;stroke-width:0.5;stroke-dasharray:5.0,5.0;" x1="260.5" x2="260.5" y1="82.6094" y2="206.6641"/><text fill="#000000" font-family="sans-serif" font-size="14" lengthAdjust="spacing" textLength="83" x="5" y="79.5332">Administrator</text><ellipse cx="49.5" cy="13.5" fill="#E2E2F0" rx="8" ry="8" style="stroke:#181818;stroke-width:0.5;"/><path d="M49.5,21.5 L49.5,48.5 M36.5,29.5 L62.5,29.5 M49.5,48.5 L36.5,63.5 M49.5,48.5 L62.5,63.5 " fill="none" style="stroke:#181818;stroke-width:0.5;"/><text fill="#000000" font-family="sans-serif" font-size="14" lengthAdjust="spacing" textLength="83" x="5" y="220.1973">Administrator</text><ellipse cx="49.5" cy="231.7734" fill="#E2E2F0" rx="8" ry="8" style="stroke:#181818;stroke-width:0.5;"/><path d="M49.5,239.7734 L49.5,266.7734 M36.5,247.7734 L62.5,247.7734 M49.5,266.7734 L36.5,281.7734 M49.5,266.7734 L62.5,281.7734 " fill="none" style="stroke:#181818;stroke-width:0.5;"/><rect fill="#E2E2F0" height="31.6094" rx="2.5" ry="2.5" style="stroke:#181818;stroke-width:0.5;" width="60" x="230.5" y="50"/><text fill="#000000" font-family="sans-serif" font-size="14" lengthAdjust="spacing" textLength="46" x="237.5" y="71.5332">System</text><rect fill="#E2E2F0" height="31.6094" rx="2.5" ry="2.5" style="stroke:#181818;stroke-width:0.5;" width="60" x="230.5" y="205.6641"/><text fill="#000000" font-family="sans-serif" font-size="14" lengthAdjust="spacing" textLength="46" x="237.5" y="227.1973">System</text><rect fill="#FFFFFF" height="73.7031" style="stroke:#181818;stroke-width:1.0;" width="10" x="255.5" y="114.9609"/><polygon fill="#181818" points="243.5,110.9609,253.5,114.9609,243.5,118.9609,247.5,114.9609" style="stroke:#181818;stroke-width:1.0;"/><line style="stroke:#181818;stroke-width:1.0;" x1="49.5" x2="249.5" y1="114.9609" y2="114.9609"/><text fill="#000000" font-family="sans-serif" font-size="13" lengthAdjust="spacing" textLength="174" x="56.5" y="110.1045">Request to assign role to user</text><line style="stroke:#181818;stroke-width:1.0;" x1="265.5" x2="307.5" y1="145.3125" y2="145.3125"/><line style="stroke:#181818;stroke-width:1.0;" x1="307.5" x2="307.5" y1="145.3125" y2="158.3125"/><line style="stroke:#181818;stroke-width:1.0;" x1="266.5" x2="307.5" y1="158.3125" y2="158.3125"/><polygon fill="#181818" points="276.5,154.3125,266.5,158.3125,276.5,162.3125,272.5,158.3125" style="stroke:#181818;stroke-width:1.0;"/><text fill="#000000" font-family="sans-serif" font-size="13" lengthAdjust="spacing" textLength="139" x="272.5" y="140.4561">Validate and assign role</text><polygon fill="#181818" points="60.5,184.6641,50.5,188.6641,60.5,192.6641,56.5,188.6641" style="stroke:#181818;stroke-width:1.0;"/><line style="stroke:#181818;stroke-width:1.0;stroke-dasharray:2.0,2.0;" x1="54.5" x2="259.5" y1="188.6641" y2="188.6641"/><text fill="#000000" font-family="sans-serif" font-size="13" lengthAdjust="spacing" textLength="182" x="66.5" y="183.8076">Notify role assignment success</text><!--SRC=[NOv12W8n34NtEKNetWlCGl02BXJSXpPAODgEJIhCxUsqAeEhvFyy_WzvomNTAKH9ebQeIOUas1rOg9XuMIWPkkkgnh5VnmhGAJmSFyQ45tvMLaFB3LDv92nvvarMvGBaJLva_0qOOnzmerd2Hb0A-uWVsjZUEk4vczpNKJ38oErFhTwpAWJ-Qti3]--></g></svg>