<?xml version="1.0" encoding="us-ascii" standalone="no"?><svg xmlns="http://www.w3.org/2000/svg" xmlns:xlink="http://www.w3.org/1999/xlink" contentStyleType="text/css" height="460px" preserveAspectRatio="none" style="width:608px;height:460px;background:#FFFFFF;" version="1.1" viewBox="0 0 608 460" width="608px" zoomAndPan="magnify"><defs/><g><rect fill="#FFFFFF" height="30.3516" style="stroke:#181818;stroke-width:1.0;" width="10" x="483" y="114.9609"/><rect fill="#FFFFFF" height="30.3516" style="stroke:#181818;stroke-width:1.0;" width="10" x="483" y="175.6641"/><rect fill="#FFFFFF" height="30.3516" style="stroke:#181818;stroke-width:1.0;" width="10" x="483" y="252.7188"/><rect fill="#FFFFFF" height="46.7031" style="stroke:#181818;stroke-width:1.0;" width="10" x="483" y="313.4219"/><line style="stroke:#181818;stroke-width:0.5;stroke-dasharray:5.0,5.0;" x1="74" x2="74" y1="82.6094" y2="378.125"/><line style="stroke:#181818;stroke-width:0.5;stroke-dasharray:5.0,5.0;" x1="488" x2="488" y1="82.6094" y2="378.125"/><text fill="#000000" font-family="sans-serif" font-size="14" lengthAdjust="spacing" textLength="132" x="5" y="79.5332">Port Authority Officer</text><ellipse cx="74" cy="13.5" fill="#E2E2F0" rx="8" ry="8" style="stroke:#181818;stroke-width:0.5;"/><path d="M74,21.5 L74,48.5 M61,29.5 L87,29.5 M74,48.5 L61,63.5 M74,48.5 L87,63.5 " fill="none" style="stroke:#181818;stroke-width:0.5;"/><text fill="#000000" font-family="sans-serif" font-size="14" lengthAdjust="spacing" textLength="132" x="5" y="391.6582">Port Authority Officer</text><ellipse cx="74" cy="403.2344" fill="#E2E2F0" rx="8" ry="8" style="stroke:#181818;stroke-width:0.5;"/><path d="M74,411.2344 L74,438.2344 M61,419.2344 L87,419.2344 M74,438.2344 L61,453.2344 M74,438.2344 L87,453.2344 " fill="none" style="stroke:#181818;stroke-width:0.5;"/><rect fill="#E2E2F0" height="31.6094" rx="2.5" ry="2.5" style="stroke:#181818;stroke-width:0.5;" width="228" x="374" y="50"/><text fill="#000000" font-family="sans-serif" font-size="14" lengthAdjust="spacing" textLength="214" x="381" y="71.5332">&#171;system&#187; Port Operations System</text><rect fill="#E2E2F0" height="31.6094" rx="2.5" ry="2.5" style="stroke:#181818;stroke-width:0.5;" width="228" x="374" y="377.125"/><text fill="#000000" font-family="sans-serif" font-size="14" lengthAdjust="spacing" textLength="214" x="381" y="398.6582">&#171;system&#187; Port Operations System</text><rect fill="#FFFFFF" height="30.3516" style="stroke:#181818;stroke-width:1.0;" width="10" x="483" y="114.9609"/><rect fill="#FFFFFF" height="30.3516" style="stroke:#181818;stroke-width:1.0;" width="10" x="483" y="175.6641"/><rect fill="#FFFFFF" height="30.3516" style="stroke:#181818;stroke-width:1.0;" width="10" x="483" y="252.7188"/><rect fill="#FFFFFF" height="46.7031" style="stroke:#181818;stroke-width:1.0;" width="10" x="483" y="313.4219"/><polygon fill="#181818" points="471,110.9609,481,114.9609,471,118.9609,475,114.9609" style="stroke:#181818;stroke-width:1.0;"/><line style="stroke:#181818;stroke-width:1.0;" x1="74" x2="477" y1="114.9609" y2="114.9609"/><text fill="#000000" font-family="sans-serif" font-size="13" font-weight="bold" lengthAdjust="spacing" textLength="7" x="81" y="110.1045">1</text><text fill="#000000" font-family="sans-serif" font-size="13" lengthAdjust="spacing" textLength="225" x="92" y="110.1045">open "Register New Organization" form</text><polygon fill="#181818" points="85,141.3125,75,145.3125,85,149.3125,81,145.3125" style="stroke:#181818;stroke-width:1.0;"/><line style="stroke:#181818;stroke-width:1.0;stroke-dasharray:2.0,2.0;" x1="79" x2="487" y1="145.3125" y2="145.3125"/><text fill="#000000" font-family="sans-serif" font-size="13" font-weight="bold" lengthAdjust="spacing" textLength="7" x="91" y="140.4561">2</text><text fill="#000000" font-family="sans-serif" font-size="13" lengthAdjust="spacing" textLength="181" x="102" y="140.4561">asks for the needed information</text><polygon fill="#181818" points="471,171.6641,481,175.6641,471,179.6641,475,175.6641" style="stroke:#181818;stroke-width:1.0;"/><line style="stroke:#181818;stroke-width:1.0;" x1="74" x2="477" y1="175.6641" y2="175.6641"/><text fill="#000000" font-family="sans-serif" font-size="13" font-weight="bold" lengthAdjust="spacing" textLength="7" x="81" y="170.8076">3</text><text fill="#000000" font-family="sans-serif" font-size="13" lengthAdjust="spacing" textLength="379" x="92" y="170.8076">enter organization details (identifier, names, address, tax number)</text><polygon fill="#181818" points="85,202.0156,75,206.0156,85,210.0156,81,206.0156" style="stroke:#181818;stroke-width:1.0;"/><line style="stroke:#181818;stroke-width:1.0;stroke-dasharray:2.0,2.0;" x1="79" x2="487" y1="206.0156" y2="206.0156"/><text fill="#000000" font-family="sans-serif" font-size="13" font-weight="bold" lengthAdjust="spacing" textLength="7" x="91" y="201.1592">4</text><text fill="#000000" font-family="sans-serif" font-size="13" lengthAdjust="spacing" textLength="146" x="102" y="201.1592">validate organization data</text><polygon fill="#181818" points="471,248.7188,481,252.7188,471,256.7188,475,252.7188" style="stroke:#181818;stroke-width:1.0;"/><line style="stroke:#181818;stroke-width:1.0;" x1="74" x2="477" y1="252.7188" y2="252.7188"/><text fill="#000000" font-family="sans-serif" font-size="13" font-weight="bold" lengthAdjust="spacing" textLength="7" x="81" y="239.6865">5</text><text fill="#000000" font-family="sans-serif" font-size="13" lengthAdjust="spacing" textLength="221" x="92" y="231.5107">add representative(s) with required info</text><text fill="#000000" font-family="sans-serif" font-size="13" lengthAdjust="spacing" textLength="251" x="92" y="247.8623">(name, citizen ID, nationality, email, phone)</text><polygon fill="#181818" points="85,279.0703,75,283.0703,85,287.0703,81,283.0703" style="stroke:#181818;stroke-width:1.0;"/><line style="stroke:#181818;stroke-width:1.0;stroke-dasharray:2.0,2.0;" x1="79" x2="487" y1="283.0703" y2="283.0703"/><text fill="#000000" font-family="sans-serif" font-size="13" font-weight="bold" lengthAdjust="spacing" textLength="7" x="91" y="278.2139">6</text><text fill="#000000" font-family="sans-serif" font-size="13" lengthAdjust="spacing" textLength="171" x="102" y="278.2139">validate representative(s) data</text><polygon fill="#181818" points="471,309.4219,481,313.4219,471,317.4219,475,313.4219" style="stroke:#181818;stroke-width:1.0;"/><line style="stroke:#181818;stroke-width:1.0;" x1="74" x2="477" y1="313.4219" y2="313.4219"/><text fill="#000000" font-family="sans-serif" font-size="13" font-weight="bold" lengthAdjust="spacing" textLength="7" x="81" y="308.5654">7</text><text fill="#000000" font-family="sans-serif" font-size="13" lengthAdjust="spacing" textLength="107" x="92" y="308.5654">submit registration</text><polygon fill="#181818" points="85,356.125,75,360.125,85,364.125,81,360.125" style="stroke:#181818;stroke-width:1.0;"/><line style="stroke:#181818;stroke-width:1.0;stroke-dasharray:2.0,2.0;" x1="79" x2="487" y1="360.125" y2="360.125"/><text fill="#000000" font-family="sans-serif" font-size="13" font-weight="bold" lengthAdjust="spacing" textLength="7" x="91" y="347.0928">8</text><text fill="#000000" font-family="sans-serif" font-size="13" lengthAdjust="spacing" textLength="163" x="102" y="338.917">confirm registration success</text><text fill="#000000" font-family="sans-serif" font-size="13" lengthAdjust="spacing" textLength="240" x="102" y="355.2686">and send notifications to representative(s)</text><!--SRC=[bPB1Ri8m38RlVGgh9v3A2o24D6cNNSQqNRcOnANMLgTBN1Wy_PnIf34umCroyl__5yVOQv2-tL0i2dGQ8fHl8IeyzTg4o7g0LLsperW2fdDTT1YL7NSe2kLYaGv9gLqkOP2kEege72J1nt0mI4zbKOmMC5kEBPX3w4YWVASjMoF2A-rX5RSeV1nyIgX3R3CUxr3fR3NAP-PqDfrRqcVArq4R0Y7ov84bwmUhmjD_cvj491aa_840JuhybM32tawvPeeL2BQKAa3l8oKh57_WDCxfVRmx_6AVBrrceUAzg9ODaJhBDooJxsYIfh1dRQpztNCS9x2MIQQjmB7oqGR-yfpvSvunwA42Qks15NHD47eK_vhWaJUaVjEocadUWDFot9VlWjGSsmkbkJbdlx4M50_6v452_Z0tRgM6QzmRfBy0]--></g></svg>