<?xml version="1.0" encoding="us-ascii" standalone="no"?><svg xmlns="http://www.w3.org/2000/svg" xmlns:xlink="http://www.w3.org/1999/xlink" contentStyleType="text/css" height="1645px" preserveAspectRatio="none" style="width:2373px;height:1645px;background:#FFFFFF;" version="1.1" viewBox="0 0 2373 1645" width="2373px" zoomAndPan="magnify"><defs/><g><text fill="#000000" font-family="sans-serif" font-size="14" font-weight="bold" lengthAdjust="spacing" textLength="567" x="899" y="29.5332">System Sequence Diagram - US 3.2.4: Role-Based Access Control (Frontend Only)</text><rect fill="#FFFFFF" height="1422.5391" style="stroke:#181818;stroke-width:1.0;" width="10" x="67.5" y="131.2188"/><rect fill="#FFFFFF" height="307.1641" style="stroke:#181818;stroke-width:1.0;" width="10" x="505.5" y="197.9219"/><rect fill="#FFFFFF" height="203.1094" style="stroke:#181818;stroke-width:1.0;" width="10" x="985.5" y="271.625"/><rect fill="#FFFFFF" height="30.3516" style="stroke:#181818;stroke-width:1.0;" width="10" x="1282.5" y="345.3281"/><rect fill="#FFFFFF" height="30.3516" style="stroke:#181818;stroke-width:1.0;" width="10" x="1282.5" y="1088.8672"/><rect fill="#FFFFFF" height="99.0547" style="stroke:#181818;stroke-width:1.0;" width="10" x="1388" y="913.2734"/><rect fill="#FFFFFF" height="159.7578" style="stroke:#181818;stroke-width:1.0;" width="10" x="1682" y="1058.5156"/><rect fill="none" height="448.8906" style="stroke:#000000;stroke-width:1.5;" width="1264.5" x="20" y="390.6797"/><rect fill="none" height="575.1328" style="stroke:#000000;stroke-width:1.5;" width="2346" x="10" y="971.625"/><rect fill="none" height="362.1875" style="stroke:#000000;stroke-width:1.5;" width="1727" x="20" y="1177.5703"/><line style="stroke:#181818;stroke-width:0.5;stroke-dasharray:5.0,5.0;" x1="72" x2="72" y1="121.2188" y2="1563.7578"/><line style="stroke:#181818;stroke-width:0.5;stroke-dasharray:5.0,5.0;" x1="510" x2="510" y1="121.2188" y2="1563.7578"/><line style="stroke:#181818;stroke-width:0.5;stroke-dasharray:5.0,5.0;" x1="990" x2="990" y1="121.2188" y2="1563.7578"/><line style="stroke:#181818;stroke-width:0.5;stroke-dasharray:5.0,5.0;" x1="1287.5" x2="1287.5" y1="121.2188" y2="1563.7578"/><line style="stroke:#181818;stroke-width:0.5;stroke-dasharray:5.0,5.0;" x1="1392.5" x2="1392.5" y1="121.2188" y2="1563.7578"/><line style="stroke:#181818;stroke-width:0.5;stroke-dasharray:5.0,5.0;" x1="1687" x2="1687" y1="121.2188" y2="1563.7578"/><text fill="#000000" font-family="sans-serif" font-size="14" lengthAdjust="spacing" textLength="79" x="30" y="118.1426">System User</text><ellipse cx="72.5" cy="52.1094" fill="#E3E3E3" rx="8" ry="8" style="stroke:#181818;stroke-width:0.5;"/><path d="M72.5,60.1094 L72.5,87.1094 M59.5,68.1094 L85.5,68.1094 M72.5,87.1094 L59.5,102.1094 M72.5,87.1094 L85.5,102.1094 " fill="none" style="stroke:#181818;stroke-width:0.5;"/><text fill="#000000" font-family="sans-serif" font-size="14" lengthAdjust="spacing" textLength="79" x="30" y="1577.291">System User</text><ellipse cx="72.5" cy="1588.8672" fill="#E3E3E3" rx="8" ry="8" style="stroke:#181818;stroke-width:0.5;"/><path d="M72.5,1596.8672 L72.5,1623.8672 M59.5,1604.8672 L85.5,1604.8672 M72.5,1623.8672 L59.5,1638.8672 M72.5,1623.8672 L85.5,1638.8672 " fill="none" style="stroke:#181818;stroke-width:0.5;"/><rect fill="#E3E3E3" height="31.6094" rx="2.5" ry="2.5" style="stroke:#181818;stroke-width:0.5;" width="57" x="482" y="88.6094"/><text fill="#000000" font-family="sans-serif" font-size="14" lengthAdjust="spacing" textLength="43" x="489" y="110.1426">Router</text><rect fill="#E3E3E3" height="31.6094" rx="2.5" ry="2.5" style="stroke:#181818;stroke-width:0.5;" width="57" x="482" y="1562.7578"/><text fill="#000000" font-family="sans-serif" font-size="14" lengthAdjust="spacing" textLength="43" x="489" y="1584.291">Router</text><rect fill="#E3E3E3" height="31.6094" rx="2.5" ry="2.5" style="stroke:#181818;stroke-width:0.5;" width="83" x="949" y="88.6094"/><text fill="#000000" font-family="sans-serif" font-size="14" lengthAdjust="spacing" textLength="69" x="956" y="110.1426">RoleGuard</text><rect fill="#E3E3E3" height="31.6094" rx="2.5" ry="2.5" style="stroke:#181818;stroke-width:0.5;" width="83" x="949" y="1562.7578"/><text fill="#000000" font-family="sans-serif" font-size="14" lengthAdjust="spacing" textLength="69" x="956" y="1584.291">RoleGuard</text><rect fill="#E3E3E3" height="31.6094" rx="2.5" ry="2.5" style="stroke:#181818;stroke-width:0.5;" width="90" x="1242.5" y="88.6094"/><text fill="#000000" font-family="sans-serif" font-size="14" lengthAdjust="spacing" textLength="76" x="1249.5" y="110.1426">AuthService</text><rect fill="#E3E3E3" height="31.6094" rx="2.5" ry="2.5" style="stroke:#181818;stroke-width:0.5;" width="90" x="1242.5" y="1562.7578"/><text fill="#000000" font-family="sans-serif" font-size="14" lengthAdjust="spacing" textLength="76" x="1249.5" y="1584.291">AuthService</text><rect fill="#E3E3E3" height="31.6094" rx="2.5" ry="2.5" style="stroke:#181818;stroke-width:0.5;" width="101" x="1342.5" y="88.6094"/><text fill="#000000" font-family="sans-serif" font-size="14" lengthAdjust="spacing" textLength="87" x="1349.5" y="110.1426">ManageUsers</text><rect fill="#E3E3E3" height="31.6094" rx="2.5" ry="2.5" style="stroke:#181818;stroke-width:0.5;" width="101" x="1342.5" y="1562.7578"/><text fill="#000000" font-family="sans-serif" font-size="14" lengthAdjust="spacing" textLength="87" x="1349.5" y="1584.291">ManageUsers</text><rect fill="#E3E3E3" height="31.6094" rx="2.5" ry="2.5" style="stroke:#181818;stroke-width:0.5;" width="100" x="1637" y="88.6094"/><text fill="#000000" font-family="sans-serif" font-size="14" lengthAdjust="spacing" textLength="86" x="1644" y="110.1426">AdminService</text><rect fill="#E3E3E3" height="31.6094" rx="2.5" ry="2.5" style="stroke:#181818;stroke-width:0.5;" width="100" x="1637" y="1562.7578"/><text fill="#000000" font-family="sans-serif" font-size="14" lengthAdjust="spacing" textLength="86" x="1644" y="1584.291">AdminService</text><rect fill="#FFFFFF" height="1422.5391" style="stroke:#181818;stroke-width:1.0;" width="10" x="67.5" y="131.2188"/><rect fill="#FFFFFF" height="307.1641" style="stroke:#181818;stroke-width:1.0;" width="10" x="505.5" y="197.9219"/><rect fill="#FFFFFF" height="203.1094" style="stroke:#181818;stroke-width:1.0;" width="10" x="985.5" y="271.625"/><rect fill="#FFFFFF" height="30.3516" style="stroke:#181818;stroke-width:1.0;" width="10" x="1282.5" y="345.3281"/><rect fill="#FFFFFF" height="30.3516" style="stroke:#181818;stroke-width:1.0;" width="10" x="1282.5" y="1088.8672"/><rect fill="#FFFFFF" height="99.0547" style="stroke:#181818;stroke-width:1.0;" width="10" x="1388" y="913.2734"/><rect fill="#FFFFFF" height="159.7578" style="stroke:#181818;stroke-width:1.0;" width="10" x="1682" y="1058.5156"/><rect fill="#EEEEEE" height="3" style="stroke:#EEEEEE;stroke-width:1.0;" width="2366" x="0" y="152.3945"/><line style="stroke:#000000;stroke-width:1.0;" x1="0" x2="2366" y1="152.3945" y2="152.3945"/><line style="stroke:#000000;stroke-width:1.0;" x1="0" x2="2366" y1="155.3945" y2="155.3945"/><rect fill="#EEEEEE" height="24.3516" style="stroke:#000000;stroke-width:2.0;" width="292" x="1037" y="141.2188"/><text fill="#000000" font-family="sans-serif" font-size="13" font-weight="bold" lengthAdjust="spacing" textLength="274" x="1043" y="158.7139">Frontend: Route Protection with RoleGuard</text><polygon fill="#181818" points="493.5,193.9219,503.5,197.9219,493.5,201.9219,497.5,197.9219" style="stroke:#181818;stroke-width:1.0;"/><line style="stroke:#181818;stroke-width:1.0;" x1="77.5" x2="499.5" y1="197.9219" y2="197.9219"/><text fill="#000000" font-family="sans-serif" font-size="13" font-weight="bold" lengthAdjust="spacing" textLength="7" x="84.5" y="193.0654">1</text><text fill="#000000" font-family="sans-serif" font-size="13" lengthAdjust="spacing" textLength="398" x="95.5" y="193.0654">Attempts to navigate to restricted page\n(e.g., /admin/manage-users)</text><line style="stroke:#181818;stroke-width:1.0;" x1="515.5" x2="557.5" y1="228.2734" y2="228.2734"/><line style="stroke:#181818;stroke-width:1.0;" x1="557.5" x2="557.5" y1="228.2734" y2="241.2734"/><line style="stroke:#181818;stroke-width:1.0;" x1="516.5" x2="557.5" y1="241.2734" y2="241.2734"/><polygon fill="#181818" points="526.5,237.2734,516.5,241.2734,526.5,245.2734,522.5,241.2734" style="stroke:#181818;stroke-width:1.0;"/><text fill="#000000" font-family="sans-serif" font-size="13" font-weight="bold" lengthAdjust="spacing" textLength="7" x="522.5" y="223.417">2</text><text fill="#000000" font-family="sans-serif" font-size="13" lengthAdjust="spacing" textLength="445" x="533.5" y="223.417">Check route configuration\ncanActivate: [RoleGuard]\ndata: { roles: ['admin'] }</text><polygon fill="#181818" points="973.5,267.625,983.5,271.625,973.5,275.625,977.5,271.625" style="stroke:#181818;stroke-width:1.0;"/><line style="stroke:#181818;stroke-width:1.0;" x1="515.5" x2="979.5" y1="271.625" y2="271.625"/><text fill="#000000" font-family="sans-serif" font-size="13" font-weight="bold" lengthAdjust="spacing" textLength="7" x="522.5" y="266.7686">3</text><text fill="#000000" font-family="sans-serif" font-size="13" lengthAdjust="spacing" textLength="104" x="533.5" y="266.7686">canActivate(route)</text><line style="stroke:#181818;stroke-width:1.0;" x1="995.5" x2="1037.5" y1="301.9766" y2="301.9766"/><line style="stroke:#181818;stroke-width:1.0;" x1="1037.5" x2="1037.5" y1="301.9766" y2="314.9766"/><line style="stroke:#181818;stroke-width:1.0;" x1="996.5" x2="1037.5" y1="314.9766" y2="314.9766"/><polygon fill="#181818" points="1006.5,310.9766,996.5,314.9766,1006.5,318.9766,1002.5,314.9766" style="stroke:#181818;stroke-width:1.0;"/><text fill="#000000" font-family="sans-serif" font-size="13" font-weight="bold" lengthAdjust="spacing" textLength="7" x="1002.5" y="297.1201">4</text><text fill="#000000" font-family="sans-serif" font-size="13" lengthAdjust="spacing" textLength="262" x="1013.5" y="297.1201">Extract expected roles from route.data['roles']</text><polygon fill="#181818" points="1270.5,341.3281,1280.5,345.3281,1270.5,349.3281,1274.5,345.3281" style="stroke:#181818;stroke-width:1.0;"/><line style="stroke:#181818;stroke-width:1.0;" x1="995.5" x2="1276.5" y1="345.3281" y2="345.3281"/><text fill="#000000" font-family="sans-serif" font-size="13" font-weight="bold" lengthAdjust="spacing" textLength="7" x="1002.5" y="340.4717">5</text><text fill="#000000" font-family="sans-serif" font-size="13" lengthAdjust="spacing" textLength="75" x="1013.5" y="340.4717">Get user role</text><polygon fill="#181818" points="1006.5,371.6797,996.5,375.6797,1006.5,379.6797,1002.5,375.6797" style="stroke:#181818;stroke-width:1.0;"/><line style="stroke:#181818;stroke-width:1.0;stroke-dasharray:2.0,2.0;" x1="1000.5" x2="1286.5" y1="375.6797" y2="375.6797"/><text fill="#000000" font-family="sans-serif" font-size="13" font-weight="bold" lengthAdjust="spacing" textLength="7" x="1012.5" y="370.8232">6</text><text fill="#000000" font-family="sans-serif" font-size="13" lengthAdjust="spacing" textLength="224" x="1023.5" y="370.8232">userRole (from localStorage or signals)</text><path d="M20,390.6797 L81,390.6797 L81,399.0313 L71,409.0313 L20,409.0313 L20,390.6797 " fill="#EEEEEE" style="stroke:#000000;stroke-width:1.5;"/><rect fill="none" height="448.8906" style="stroke:#000000;stroke-width:1.5;" width="1264.5" x="20" y="390.6797"/><text fill="#000000" font-family="sans-serif" font-size="13" font-weight="bold" lengthAdjust="spacing" textLength="16" x="35" y="405.1748">alt</text><text fill="#000000" font-family="sans-serif" font-size="11" font-weight="bold" lengthAdjust="spacing" textLength="182" x="96" y="404.0986">[User has no role (not logged in)]</text><line style="stroke:#181818;stroke-width:1.0;" x1="995.5" x2="1037.5" y1="431.3828" y2="431.3828"/><line style="stroke:#181818;stroke-width:1.0;" x1="1037.5" x2="1037.5" y1="431.3828" y2="444.3828"/><line style="stroke:#181818;stroke-width:1.0;" x1="996.5" x2="1037.5" y1="444.3828" y2="444.3828"/><polygon fill="#181818" points="1006.5,440.3828,996.5,444.3828,1006.5,448.3828,1002.5,444.3828" style="stroke:#181818;stroke-width:1.0;"/><text fill="#000000" font-family="sans-serif" font-size="13" font-weight="bold" lengthAdjust="spacing" textLength="7" x="1002.5" y="426.5264">7</text><text fill="#000000" font-family="sans-serif" font-size="13" lengthAdjust="spacing" textLength="233" x="1013.5" y="426.5264">Log warning: "No role &#8594; Access denied"</text><polygon fill="#181818" points="526.5,470.7344,516.5,474.7344,526.5,478.7344,522.5,474.7344" style="stroke:#181818;stroke-width:1.0;"/><line style="stroke:#181818;stroke-width:1.0;" x1="520.5" x2="989.5" y1="474.7344" y2="474.7344"/><text fill="#000000" font-family="sans-serif" font-size="13" font-weight="bold" lengthAdjust="spacing" textLength="7" x="532.5" y="469.8779">8</text><text fill="#000000" font-family="sans-serif" font-size="13" lengthAdjust="spacing" textLength="227" x="543.5" y="469.8779">return false + navigate('/access-denied')</text><polygon fill="#181818" points="88.5,501.0859,78.5,505.0859,88.5,509.0859,84.5,505.0859" style="stroke:#181818;stroke-width:1.0;"/><line style="stroke:#181818;stroke-width:1.0;stroke-dasharray:2.0,2.0;" x1="82.5" x2="509.5" y1="505.0859" y2="505.0859"/><text fill="#000000" font-family="sans-serif" font-size="13" font-weight="bold" lengthAdjust="spacing" textLength="7" x="94.5" y="500.2295">9</text><text fill="#000000" font-family="sans-serif" font-size="13" lengthAdjust="spacing" textLength="177" x="105.5" y="500.2295">Display "Access Denied" page</text><line style="stroke:#000000;stroke-width:1.0;stroke-dasharray:2.0,2.0;" x1="20" x2="1284.5" y1="514.0859" y2="514.0859"/><text fill="#000000" font-family="sans-serif" font-size="11" font-weight="bold" lengthAdjust="spacing" textLength="234" x="25" y="525.5049">[User role does not match expected roles]</text><line style="stroke:#181818;stroke-width:1.0;" x1="990.5" x2="1032.5" y1="551.2734" y2="551.2734"/><line style="stroke:#181818;stroke-width:1.0;" x1="1032.5" x2="1032.5" y1="551.2734" y2="564.2734"/><line style="stroke:#181818;stroke-width:1.0;" x1="991.5" x2="1032.5" y1="564.2734" y2="564.2734"/><polygon fill="#181818" points="1001.5,560.2734,991.5,564.2734,1001.5,568.2734,997.5,564.2734" style="stroke:#181818;stroke-width:1.0;"/><text fill="#000000" font-family="sans-serif" font-size="13" font-weight="bold" lengthAdjust="spacing" textLength="14" x="997.5" y="546.417">10</text><text fill="#000000" font-family="sans-serif" font-size="13" lengthAdjust="spacing" textLength="229" x="1015.5" y="546.417">Normalize user role (trim, toLowerCase)</text><line style="stroke:#181818;stroke-width:1.0;" x1="990.5" x2="1032.5" y1="594.625" y2="594.625"/><line style="stroke:#181818;stroke-width:1.0;" x1="1032.5" x2="1032.5" y1="594.625" y2="607.625"/><line style="stroke:#181818;stroke-width:1.0;" x1="991.5" x2="1032.5" y1="607.625" y2="607.625"/><polygon fill="#181818" points="1001.5,603.625,991.5,607.625,1001.5,611.625,997.5,607.625" style="stroke:#181818;stroke-width:1.0;"/><text fill="#000000" font-family="sans-serif" font-size="13" font-weight="bold" lengthAdjust="spacing" textLength="14" x="997.5" y="589.7686">11</text><text fill="#000000" font-family="sans-serif" font-size="13" lengthAdjust="spacing" textLength="239" x="1015.5" y="589.7686">Check if userRole in expectedRoles array</text><line style="stroke:#181818;stroke-width:1.0;" x1="990.5" x2="1032.5" y1="637.9766" y2="637.9766"/><line style="stroke:#181818;stroke-width:1.0;" x1="1032.5" x2="1032.5" y1="637.9766" y2="650.9766"/><line style="stroke:#181818;stroke-width:1.0;" x1="991.5" x2="1032.5" y1="650.9766" y2="650.9766"/><polygon fill="#181818" points="1001.5,646.9766,991.5,650.9766,1001.5,654.9766,997.5,650.9766" style="stroke:#181818;stroke-width:1.0;"/><text fill="#000000" font-family="sans-serif" font-size="13" font-weight="bold" lengthAdjust="spacing" textLength="14" x="997.5" y="633.1201">12</text><text fill="#000000" font-family="sans-serif" font-size="13" lengthAdjust="spacing" textLength="257" x="1015.5" y="633.1201">Log warning: "Role invalid &#8594; Access denied"</text><polygon fill="#181818" points="521.5,677.3281,511.5,681.3281,521.5,685.3281,517.5,681.3281" style="stroke:#181818;stroke-width:1.0;"/><line style="stroke:#181818;stroke-width:1.0;" x1="515.5" x2="989.5" y1="681.3281" y2="681.3281"/><text fill="#000000" font-family="sans-serif" font-size="13" font-weight="bold" lengthAdjust="spacing" textLength="14" x="527.5" y="676.4717">13</text><text fill="#000000" font-family="sans-serif" font-size="13" lengthAdjust="spacing" textLength="227" x="545.5" y="676.4717">return false + navigate('/access-denied')</text><polygon fill="#181818" points="88.5,707.6797,78.5,711.6797,88.5,715.6797,84.5,711.6797" style="stroke:#181818;stroke-width:1.0;"/><line style="stroke:#181818;stroke-width:1.0;stroke-dasharray:2.0,2.0;" x1="82.5" x2="509.5" y1="711.6797" y2="711.6797"/><text fill="#000000" font-family="sans-serif" font-size="13" font-weight="bold" lengthAdjust="spacing" textLength="14" x="94.5" y="706.8232">14</text><text fill="#000000" font-family="sans-serif" font-size="13" lengthAdjust="spacing" textLength="177" x="112.5" y="706.8232">Display "Access Denied" page</text><line style="stroke:#000000;stroke-width:1.0;stroke-dasharray:2.0,2.0;" x1="20" x2="1284.5" y1="720.6797" y2="720.6797"/><text fill="#000000" font-family="sans-serif" font-size="11" font-weight="bold" lengthAdjust="spacing" textLength="196" x="25" y="732.0986">[User role matches expected roles]</text><line style="stroke:#181818;stroke-width:1.0;" x1="990.5" x2="1032.5" y1="757.8672" y2="757.8672"/><line style="stroke:#181818;stroke-width:1.0;" x1="1032.5" x2="1032.5" y1="757.8672" y2="770.8672"/><line style="stroke:#181818;stroke-width:1.0;" x1="991.5" x2="1032.5" y1="770.8672" y2="770.8672"/><polygon fill="#181818" points="1001.5,766.8672,991.5,770.8672,1001.5,774.8672,997.5,770.8672" style="stroke:#181818;stroke-width:1.0;"/><text fill="#000000" font-family="sans-serif" font-size="13" font-weight="bold" lengthAdjust="spacing" textLength="14" x="997.5" y="753.0107">15</text><text fill="#000000" font-family="sans-serif" font-size="13" lengthAdjust="spacing" textLength="159" x="1015.5" y="753.0107">Log: "ACCESS GRANTED"</text><polygon fill="#181818" points="521.5,797.2188,511.5,801.2188,521.5,805.2188,517.5,801.2188" style="stroke:#181818;stroke-width:1.0;"/><line style="stroke:#181818;stroke-width:1.0;" x1="515.5" x2="989.5" y1="801.2188" y2="801.2188"/><text fill="#000000" font-family="sans-serif" font-size="13" font-weight="bold" lengthAdjust="spacing" textLength="14" x="527.5" y="796.3623">16</text><text fill="#000000" font-family="sans-serif" font-size="13" lengthAdjust="spacing" textLength="59" x="545.5" y="796.3623">return true</text><polygon fill="#181818" points="88.5,827.5703,78.5,831.5703,88.5,835.5703,84.5,831.5703" style="stroke:#181818;stroke-width:1.0;"/><line style="stroke:#181818;stroke-width:1.0;stroke-dasharray:2.0,2.0;" x1="82.5" x2="509.5" y1="831.5703" y2="831.5703"/><text fill="#000000" font-family="sans-serif" font-size="13" font-weight="bold" lengthAdjust="spacing" textLength="14" x="94.5" y="826.7139">17</text><text fill="#000000" font-family="sans-serif" font-size="13" lengthAdjust="spacing" textLength="139" x="112.5" y="826.7139">Display authorized page</text><rect fill="#EEEEEE" height="3" style="stroke:#EEEEEE;stroke-width:1.0;" width="2366" x="0" y="867.7461"/><line style="stroke:#000000;stroke-width:1.0;" x1="0" x2="2366" y1="867.7461" y2="867.7461"/><line style="stroke:#000000;stroke-width:1.0;" x1="0" x2="2366" y1="870.7461" y2="870.7461"/><rect fill="#EEEEEE" height="24.3516" style="stroke:#000000;stroke-width:2.0;" width="254" x="1056" y="856.5703"/><text fill="#000000" font-family="sans-serif" font-size="13" font-weight="bold" lengthAdjust="spacing" textLength="236" x="1062" y="874.0654">Frontend: API Call with Authorization</text><polygon fill="#181818" points="1376,909.2734,1386,913.2734,1376,917.2734,1380,913.2734" style="stroke:#181818;stroke-width:1.0;"/><line style="stroke:#181818;stroke-width:1.0;" x1="77.5" x2="1382" y1="913.2734" y2="913.2734"/><text fill="#000000" font-family="sans-serif" font-size="13" font-weight="bold" lengthAdjust="spacing" textLength="14" x="84.5" y="908.417">18</text><text fill="#000000" font-family="sans-serif" font-size="13" lengthAdjust="spacing" textLength="290" x="102.5" y="908.417">Performs action (e.g., clicks "Create User" button)</text><line style="stroke:#181818;stroke-width:1.0;" x1="1398" x2="1440" y1="943.625" y2="943.625"/><line style="stroke:#181818;stroke-width:1.0;" x1="1440" x2="1440" y1="943.625" y2="956.625"/><line style="stroke:#181818;stroke-width:1.0;" x1="1399" x2="1440" y1="956.625" y2="956.625"/><polygon fill="#181818" points="1409,952.625,1399,956.625,1409,960.625,1405,956.625" style="stroke:#181818;stroke-width:1.0;"/><text fill="#000000" font-family="sans-serif" font-size="13" font-weight="bold" lengthAdjust="spacing" textLength="14" x="1405" y="938.7686">19</text><text fill="#000000" font-family="sans-serif" font-size="13" lengthAdjust="spacing" textLength="105" x="1423" y="938.7686">Validate form data</text><path d="M10,971.625 L71,971.625 L71,979.9766 L61,989.9766 L10,989.9766 L10,971.625 " fill="#EEEEEE" style="stroke:#000000;stroke-width:1.5;"/><rect fill="none" height="575.1328" style="stroke:#000000;stroke-width:1.5;" width="2346" x="10" y="971.625"/><text fill="#000000" font-family="sans-serif" font-size="13" font-weight="bold" lengthAdjust="spacing" textLength="16" x="25" y="986.1201">alt</text><text fill="#000000" font-family="sans-serif" font-size="11" font-weight="bold" lengthAdjust="spacing" textLength="88" x="86" y="985.0439">[Validation fails]</text><polygon fill="#181818" points="88.5,1008.3281,78.5,1012.3281,88.5,1016.3281,84.5,1012.3281" style="stroke:#181818;stroke-width:1.0;"/><line style="stroke:#181818;stroke-width:1.0;stroke-dasharray:2.0,2.0;" x1="82.5" x2="1392" y1="1012.3281" y2="1012.3281"/><text fill="#000000" font-family="sans-serif" font-size="13" font-weight="bold" lengthAdjust="spacing" textLength="14" x="94.5" y="1007.4717">20</text><text fill="#000000" font-family="sans-serif" font-size="13" lengthAdjust="spacing" textLength="130" x="112.5" y="1007.4717">Display validation error</text><line style="stroke:#000000;stroke-width:1.0;stroke-dasharray:2.0,2.0;" x1="10" x2="2356" y1="1021.3281" y2="1021.3281"/><text fill="#000000" font-family="sans-serif" font-size="11" font-weight="bold" lengthAdjust="spacing" textLength="106" x="15" y="1032.7471">[Validation passes]</text><polygon fill="#181818" points="1670,1054.5156,1680,1058.5156,1670,1062.5156,1674,1058.5156" style="stroke:#181818;stroke-width:1.0;"/><line style="stroke:#181818;stroke-width:1.0;" x1="1393" x2="1676" y1="1058.5156" y2="1058.5156"/><text fill="#000000" font-family="sans-serif" font-size="13" font-weight="bold" lengthAdjust="spacing" textLength="14" x="1400" y="1053.6592">21</text><text fill="#000000" font-family="sans-serif" font-size="13" lengthAdjust="spacing" textLength="89" x="1418" y="1053.6592">createUser(dto)</text><polygon fill="#181818" points="1303.5,1084.8672,1293.5,1088.8672,1303.5,1092.8672,1299.5,1088.8672" style="stroke:#181818;stroke-width:1.0;"/><line style="stroke:#181818;stroke-width:1.0;" x1="1297.5" x2="1681" y1="1088.8672" y2="1088.8672"/><text fill="#000000" font-family="sans-serif" font-size="13" font-weight="bold" lengthAdjust="spacing" textLength="14" x="1309.5" y="1084.0107">22</text><text fill="#000000" font-family="sans-serif" font-size="13" lengthAdjust="spacing" textLength="57" x="1327.5" y="1084.0107">Get token</text><polygon fill="#181818" points="1670,1115.2188,1680,1119.2188,1670,1123.2188,1674,1119.2188" style="stroke:#181818;stroke-width:1.0;"/><line style="stroke:#181818;stroke-width:1.0;stroke-dasharray:2.0,2.0;" x1="1287.5" x2="1676" y1="1119.2188" y2="1119.2188"/><text fill="#000000" font-family="sans-serif" font-size="13" font-weight="bold" lengthAdjust="spacing" textLength="14" x="1294.5" y="1114.3623">23</text><text fill="#000000" font-family="sans-serif" font-size="13" lengthAdjust="spacing" textLength="45" x="1312.5" y="1114.3623">idToken</text><line style="stroke:#181818;stroke-width:1.0;" x1="1692" x2="1734" y1="1149.5703" y2="1149.5703"/><line style="stroke:#181818;stroke-width:1.0;" x1="1734" x2="1734" y1="1149.5703" y2="1162.5703"/><line style="stroke:#181818;stroke-width:1.0;" x1="1693" x2="1734" y1="1162.5703" y2="1162.5703"/><polygon fill="#181818" points="1703,1158.5703,1693,1162.5703,1703,1166.5703,1699,1162.5703" style="stroke:#181818;stroke-width:1.0;"/><text fill="#000000" font-family="sans-serif" font-size="13" font-weight="bold" lengthAdjust="spacing" textLength="14" x="1699" y="1144.7139">24</text><text fill="#000000" font-family="sans-serif" font-size="13" lengthAdjust="spacing" textLength="242" x="1717" y="1144.7139">HTTP POST /api/UserManagement/create</text><path d="M1971,1135.7188 L1971,1161.7188 L2336,1161.7188 L2336,1145.7188 L2326,1135.7188 L1971,1135.7188 " fill="#FAFAFA" style="stroke:#181818;stroke-width:0.5;"/><path d="M2326,1135.7188 L2326,1145.7188 L2336,1145.7188 L2326,1135.7188 " fill="#FAFAFA" style="stroke:#181818;stroke-width:0.5;"/><text fill="#000000" font-family="sans-serif" font-size="13" lengthAdjust="spacing" textLength="344" x="1977" y="1154.2139">Authorization: Bearer {idToken}\nBody: { email, name, role }</text><path d="M20,1177.5703 L81,1177.5703 L81,1185.9219 L71,1195.9219 L20,1195.9219 L20,1177.5703 " fill="#EEEEEE" style="stroke:#000000;stroke-width:1.5;"/><rect fill="none" height="362.1875" style="stroke:#000000;stroke-width:1.5;" width="1727" x="20" y="1177.5703"/><text fill="#000000" font-family="sans-serif" font-size="13" font-weight="bold" lengthAdjust="spacing" textLength="16" x="35" y="1192.0654">alt</text><text fill="#000000" font-family="sans-serif" font-size="11" font-weight="bold" lengthAdjust="spacing" textLength="197" x="96" y="1190.9893">[Backend returns 401 Unauthorized]</text><polygon fill="#181818" points="1404,1214.2734,1394,1218.2734,1404,1222.2734,1400,1218.2734" style="stroke:#181818;stroke-width:1.0;"/><line style="stroke:#181818;stroke-width:1.0;stroke-dasharray:2.0,2.0;" x1="1398" x2="1686" y1="1218.2734" y2="1218.2734"/><text fill="#000000" font-family="sans-serif" font-size="13" font-weight="bold" lengthAdjust="spacing" textLength="14" x="1410" y="1213.417">25</text><text fill="#000000" font-family="sans-serif" font-size="13" lengthAdjust="spacing" textLength="89" x="1428" y="1213.417">HTTP Error 401</text><polygon fill="#181818" points="88.5,1244.625,78.5,1248.625,88.5,1252.625,84.5,1248.625" style="stroke:#181818;stroke-width:1.0;"/><line style="stroke:#181818;stroke-width:1.0;stroke-dasharray:2.0,2.0;" x1="82.5" x2="1392" y1="1248.625" y2="1248.625"/><text fill="#000000" font-family="sans-serif" font-size="13" font-weight="bold" lengthAdjust="spacing" textLength="14" x="94.5" y="1243.7686">26</text><text fill="#000000" font-family="sans-serif" font-size="13" lengthAdjust="spacing" textLength="213" x="112.5" y="1243.7686">Display error: "Unauthorized access"</text><line style="stroke:#000000;stroke-width:1.0;stroke-dasharray:2.0,2.0;" x1="20" x2="1747" y1="1257.625" y2="1257.625"/><text fill="#000000" font-family="sans-serif" font-size="11" font-weight="bold" lengthAdjust="spacing" textLength="180" x="25" y="1269.0439">[Backend returns 403 Forbidden]</text><polygon fill="#181818" points="1404,1290.8125,1394,1294.8125,1404,1298.8125,1400,1294.8125" style="stroke:#181818;stroke-width:1.0;"/><line style="stroke:#181818;stroke-width:1.0;stroke-dasharray:2.0,2.0;" x1="1398" x2="1686" y1="1294.8125" y2="1294.8125"/><text fill="#000000" font-family="sans-serif" font-size="13" font-weight="bold" lengthAdjust="spacing" textLength="14" x="1410" y="1289.9561">27</text><text fill="#000000" font-family="sans-serif" font-size="13" lengthAdjust="spacing" textLength="89" x="1428" y="1289.9561">HTTP Error 403</text><polygon fill="#181818" points="88.5,1321.1641,78.5,1325.1641,88.5,1329.1641,84.5,1325.1641" style="stroke:#181818;stroke-width:1.0;"/><line style="stroke:#181818;stroke-width:1.0;stroke-dasharray:2.0,2.0;" x1="82.5" x2="1392" y1="1325.1641" y2="1325.1641"/><text fill="#000000" font-family="sans-serif" font-size="13" font-weight="bold" lengthAdjust="spacing" textLength="14" x="94.5" y="1320.3076">28</text><text fill="#000000" font-family="sans-serif" font-size="13" lengthAdjust="spacing" textLength="326" x="112.5" y="1320.3076">Display error: "Access Denied - Insufficient permissions"</text><line style="stroke:#000000;stroke-width:1.0;stroke-dasharray:2.0,2.0;" x1="20" x2="1747" y1="1334.1641" y2="1334.1641"/><text fill="#000000" font-family="sans-serif" font-size="11" font-weight="bold" lengthAdjust="spacing" textLength="200" x="25" y="1345.583">[Backend returns success (200/201)]</text><polygon fill="#181818" points="1404,1367.3516,1394,1371.3516,1404,1375.3516,1400,1371.3516" style="stroke:#181818;stroke-width:1.0;"/><line style="stroke:#181818;stroke-width:1.0;stroke-dasharray:2.0,2.0;" x1="1398" x2="1686" y1="1371.3516" y2="1371.3516"/><text fill="#000000" font-family="sans-serif" font-size="13" font-weight="bold" lengthAdjust="spacing" textLength="14" x="1410" y="1366.4951">29</text><text fill="#000000" font-family="sans-serif" font-size="13" lengthAdjust="spacing" textLength="127" x="1428" y="1366.4951">Observable&lt;UserDto&gt;</text><line style="stroke:#181818;stroke-width:1.0;" x1="1393" x2="1435" y1="1401.7031" y2="1401.7031"/><line style="stroke:#181818;stroke-width:1.0;" x1="1435" x2="1435" y1="1401.7031" y2="1414.7031"/><line style="stroke:#181818;stroke-width:1.0;" x1="1394" x2="1435" y1="1414.7031" y2="1414.7031"/><polygon fill="#181818" points="1404,1410.7031,1394,1414.7031,1404,1418.7031,1400,1414.7031" style="stroke:#181818;stroke-width:1.0;"/><text fill="#000000" font-family="sans-serif" font-size="13" font-weight="bold" lengthAdjust="spacing" textLength="14" x="1400" y="1396.8467">30</text><text fill="#000000" font-family="sans-serif" font-size="13" lengthAdjust="spacing" textLength="262" x="1418" y="1396.8467">displayMessage("User created successfully")</text><line style="stroke:#181818;stroke-width:1.0;" x1="1393" x2="1435" y1="1445.0547" y2="1445.0547"/><line style="stroke:#181818;stroke-width:1.0;" x1="1435" x2="1435" y1="1445.0547" y2="1458.0547"/><line style="stroke:#181818;stroke-width:1.0;" x1="1394" x2="1435" y1="1458.0547" y2="1458.0547"/><polygon fill="#181818" points="1404,1454.0547,1394,1458.0547,1404,1462.0547,1400,1458.0547" style="stroke:#181818;stroke-width:1.0;"/><text fill="#000000" font-family="sans-serif" font-size="13" font-weight="bold" lengthAdjust="spacing" textLength="14" x="1400" y="1440.1982">31</text><text fill="#000000" font-family="sans-serif" font-size="13" lengthAdjust="spacing" textLength="67" x="1418" y="1440.1982">resetForm()</text><line style="stroke:#181818;stroke-width:1.0;" x1="1393" x2="1435" y1="1488.4063" y2="1488.4063"/><line style="stroke:#181818;stroke-width:1.0;" x1="1435" x2="1435" y1="1488.4063" y2="1501.4063"/><line style="stroke:#181818;stroke-width:1.0;" x1="1394" x2="1435" y1="1501.4063" y2="1501.4063"/><polygon fill="#181818" points="1404,1497.4063,1394,1501.4063,1404,1505.4063,1400,1501.4063" style="stroke:#181818;stroke-width:1.0;"/><text fill="#000000" font-family="sans-serif" font-size="13" font-weight="bold" lengthAdjust="spacing" textLength="14" x="1400" y="1483.5498">32</text><text fill="#000000" font-family="sans-serif" font-size="13" lengthAdjust="spacing" textLength="66" x="1418" y="1483.5498">loadUsers()</text><polygon fill="#181818" points="88.5,1527.7578,78.5,1531.7578,88.5,1535.7578,84.5,1531.7578" style="stroke:#181818;stroke-width:1.0;"/><line style="stroke:#181818;stroke-width:1.0;stroke-dasharray:2.0,2.0;" x1="82.5" x2="1392" y1="1531.7578" y2="1531.7578"/><text fill="#000000" font-family="sans-serif" font-size="13" font-weight="bold" lengthAdjust="spacing" textLength="14" x="94.5" y="1526.9014">33</text><text fill="#000000" font-family="sans-serif" font-size="13" lengthAdjust="spacing" textLength="256" x="112.5" y="1526.9014">Display success message and refreshed list</text><!--SRC=[tLPHKziu47xthzZ9IvmvGYZqoNCm4mBbEjC2G-1UMXw4lN4qs59EaaDp7Lxl1_GdzfVSId9YsK2R3dClnmmWMwjll_rsjMjzpyM2ALP2AOLCvqgM24PL6EdDpeAbzop7gLaL20fJmqHUX0PwpZBvm4KECrPeZ2B33PbELzfW2LFygqAH8fnmbblp8TnCuM1tV_Tj0bUomE4nqvZ1E4rHQvX8OPGi87wdQ8KYWmjHh0PHn2eZHLNUeQ9rQgI2NktXHgFg0TDk4H4dmrE-OC90xqfMfjxqo-vsWMSLKrbjKJ-rZSQLcKzHBNcApYnuRXj-P89qiYIqCmoUEuXPoKKBCdWHHOU7i0u-yRJXKab3odCfu86RUKCL3W-T77p9oCm9OF_0yAWEE86n8P4MHeEH8DYIvzQIrWgrKJmrfFs2U7x-B6BSpNTtOCGidL7fw0yhot_G-AXrZFp_qD5aZkazA4SubMB6yqenovcWKoR6DK82dpRqRsahOuOby9KE5gXfi-_Szs_XiUsaFf90W1KxRorswnn6ZKRjuwTVZ29xm2yBTD4xnp2ZslVaTosZJtttkd_R0Ggody0P6h3wE8Y6H5WXmHg6RIBsf7s4sFakPCgAAHKsgGvKtfhdWkxJ8ChmMUI85SPb7EPKGa8w4X0BQGWgpoamBWOHqCzBIdoGEJmm9UZg9j0xhn6-__DjVHap51opdWDv3iddNQ6fbF2N7txRr5ZS7p47C_GmVKycYAP9Lk309vpWRMW9TGszADYABesdTE8fkP9zYkTA4osFctLQ89DevJ5GCfFEEsd_eJxdKfMiu7zZasI8wSwKEtH_FiW7L1DgNOCNvTa0-Pl1PqtAkTWGkNBbnvHYgvyZjLDMGos9PFQ_ovjB5odp2maZTKYLyMHoEft2sTNu_FhqP4iLtD1xHPmqdkPIKQraFmnHP9t-Fhvy3nDM5BwlZsiKrpPTRrztys2O9729QaQrILNZPqBTkDE2f_SQUXE5wsdGWxlAqE0CMcGubgBWuOcNFsrPsHFM5zYcw7jE_TuwdZ5U-9IqW9weisoEe59ITUK9ERao27micDRuZ9EZrjYaiU2YjfjnPgGlsgPnXXDsaytmxRFDtSXx51sae0KxZ4w3RvFYsVK6ueK-_ZAR5j8VrzUNS7anlQRvlE0Z6wUNeqHXHZvu1qEjZhxJU3utIRkU4ZX6fgYSljQi7cdw7ijiPQSlbfJA7Me29Uxu-_VOCBDPFwRFGFivvk-BXhTxR-16D6Nl39-6qIqg5yQfhG6Bi3aKQjDDrOR6p-lC5HUrW90O-6xMUyvNM7TsozNUqqWFu9rKTppBwap-OfW7_rMOhTvA7zRlXQvcC_hEf9A01QgIQqs9VqNikl8kulszlT7-tfl1bl5VtD7_9Rihy7VxviJ8erUAq76GUIa-4Zbw6VTSd_It85kpdbL5iUeDjiAZhs4qbEKotiw-a2npoy1-o-ojDIqzTs1Exnanc1FtWckpLRfebDZVmCHz_lyB]--></g></svg>