<?xml version="1.0" encoding="us-ascii" standalone="no"?><svg xmlns="http://www.w3.org/2000/svg" xmlns:xlink="http://www.w3.org/1999/xlink" contentStyleType="text/css" height="772px" preserveAspectRatio="none" style="width:1040px;height:772px;background:#FFFFFF;" version="1.1" viewBox="0 0 1040 772" width="1040px" zoomAndPan="magnify"><defs/><g><rect fill="#FFFFFF" height="579.6797" style="stroke:#181818;stroke-width:1.0;" width="10" x="17.5" y="92.6094"/><rect fill="#FFFFFF" height="557.3281" style="stroke:#181818;stroke-width:1.0;" width="10" x="237.5" y="114.9609"/><rect fill="#FFFFFF" height="480.2734" style="stroke:#181818;stroke-width:1.0;" width="10" x="378.5" y="145.3125"/><rect fill="#FFFFFF" height="117.0547" style="stroke:#181818;stroke-width:1.0;" width="10" x="522.5" y="297.0703"/><rect fill="#FFFFFF" height="91.0547" style="stroke:#181818;stroke-width:1.0;" width="10" x="690.5" y="175.6641"/><rect fill="#FFFFFF" height="107.4063" style="stroke:#181818;stroke-width:1.0;" width="10" x="806.5" y="444.4766"/><rect fill="#FFFFFF" height="30.3516" style="stroke:#181818;stroke-width:1.0;" width="10" x="1000.5" y="206.0156"/><rect fill="#FFFFFF" height="30.3516" style="stroke:#181818;stroke-width:1.0;" width="10" x="1000.5" y="491.1797"/><line style="stroke:#181818;stroke-width:0.5;stroke-dasharray:5.0,5.0;" x1="22" x2="22" y1="82.6094" y2="690.2891"/><line style="stroke:#181818;stroke-width:0.5;stroke-dasharray:5.0,5.0;" x1="242" x2="242" y1="82.6094" y2="690.2891"/><line style="stroke:#181818;stroke-width:0.5;stroke-dasharray:5.0,5.0;" x1="383.5" x2="383.5" y1="82.6094" y2="690.2891"/><line style="stroke:#181818;stroke-width:0.5;stroke-dasharray:5.0,5.0;" x1="527" x2="527" y1="82.6094" y2="690.2891"/><line style="stroke:#181818;stroke-width:0.5;stroke-dasharray:5.0,5.0;" x1="695.5" x2="695.5" y1="82.6094" y2="690.2891"/><line style="stroke:#181818;stroke-width:0.5;stroke-dasharray:5.0,5.0;" x1="811.5" x2="811.5" y1="82.6094" y2="690.2891"/><line style="stroke:#181818;stroke-width:0.5;stroke-dasharray:5.0,5.0;" x1="1005" x2="1005" y1="82.6094" y2="690.2891"/><text fill="#000000" font-family="sans-serif" font-size="14" lengthAdjust="spacing" textLength="29" x="5" y="79.5332">User</text><ellipse cx="22.5" cy="13.5" fill="#E2E2F0" rx="8" ry="8" style="stroke:#181818;stroke-width:0.5;"/><path d="M22.5,21.5 L22.5,48.5 M9.5,29.5 L35.5,29.5 M22.5,48.5 L9.5,63.5 M22.5,48.5 L35.5,63.5 " fill="none" style="stroke:#181818;stroke-width:0.5;"/><text fill="#000000" font-family="sans-serif" font-size="14" lengthAdjust="spacing" textLength="29" x="5" y="703.8223">User</text><ellipse cx="22.5" cy="715.3984" fill="#E2E2F0" rx="8" ry="8" style="stroke:#181818;stroke-width:0.5;"/><path d="M22.5,723.3984 L22.5,750.3984 M9.5,731.3984 L35.5,731.3984 M22.5,750.3984 L9.5,765.3984 M22.5,750.3984 L35.5,765.3984 " fill="none" style="stroke:#181818;stroke-width:0.5;"/><rect fill="#E2E2F0" height="31.6094" rx="2.5" ry="2.5" style="stroke:#181818;stroke-width:0.5;" width="117" x="184" y="50"/><text fill="#000000" font-family="sans-serif" font-size="14" lengthAdjust="spacing" textLength="103" x="191" y="71.5332">ObjectController</text><rect fill="#E2E2F0" height="31.6094" rx="2.5" ry="2.5" style="stroke:#181818;stroke-width:0.5;" width="117" x="184" y="689.2891"/><text fill="#000000" font-family="sans-serif" font-size="14" lengthAdjust="spacing" textLength="103" x="191" y="710.8223">ObjectController</text><rect fill="#E2E2F0" height="31.6094" rx="2.5" ry="2.5" style="stroke:#181818;stroke-width:0.5;" width="102" x="332.5" y="50"/><text fill="#000000" font-family="sans-serif" font-size="14" lengthAdjust="spacing" textLength="88" x="339.5" y="71.5332">ObjectService</text><rect fill="#E2E2F0" height="31.6094" rx="2.5" ry="2.5" style="stroke:#181818;stroke-width:0.5;" width="102" x="332.5" y="689.2891"/><text fill="#000000" font-family="sans-serif" font-size="14" lengthAdjust="spacing" textLength="88" x="339.5" y="710.8223">ObjectService</text><rect fill="#E2E2F0" height="31.6094" rx="2.5" ry="2.5" style="stroke:#181818;stroke-width:0.5;" width="55" x="500" y="50"/><text fill="#000000" font-family="sans-serif" font-size="14" lengthAdjust="spacing" textLength="41" x="507" y="71.5332">Object</text><rect fill="#E2E2F0" height="31.6094" rx="2.5" ry="2.5" style="stroke:#181818;stroke-width:0.5;" width="55" x="500" y="689.2891"/><text fill="#000000" font-family="sans-serif" font-size="14" lengthAdjust="spacing" textLength="41" x="507" y="710.8223">Object</text><rect fill="#E2E2F0" height="31.6094" rx="2.5" ry="2.5" style="stroke:#181818;stroke-width:0.5;" width="126" x="632.5" y="50"/><text fill="#000000" font-family="sans-serif" font-size="14" lengthAdjust="spacing" textLength="112" x="639.5" y="71.5332">IObjectRepository</text><rect fill="#E2E2F0" height="31.6094" rx="2.5" ry="2.5" style="stroke:#181818;stroke-width:0.5;" width="126" x="632.5" y="689.2891"/><text fill="#000000" font-family="sans-serif" font-size="14" lengthAdjust="spacing" textLength="112" x="639.5" y="710.8223">IObjectRepository</text><rect fill="#E2E2F0" height="31.6094" rx="2.5" ry="2.5" style="stroke:#181818;stroke-width:0.5;" width="86" x="768.5" y="50"/><text fill="#000000" font-family="sans-serif" font-size="14" lengthAdjust="spacing" textLength="72" x="775.5" y="71.5332">UnitOfWork</text><rect fill="#E2E2F0" height="31.6094" rx="2.5" ry="2.5" style="stroke:#181818;stroke-width:0.5;" width="86" x="768.5" y="689.2891"/><text fill="#000000" font-family="sans-serif" font-size="14" lengthAdjust="spacing" textLength="72" x="775.5" y="710.8223">UnitOfWork</text><text fill="#000000" font-family="sans-serif" font-size="14" lengthAdjust="spacing" textLength="61" x="972" y="79.5332">Database</text><path d="M987.5,29 C987.5,19 1005.5,19 1005.5,19 C1005.5,19 1023.5,19 1023.5,29 L1023.5,55 C1023.5,65 1005.5,65 1005.5,65 C1005.5,65 987.5,65 987.5,55 L987.5,29 " fill="#E2E2F0" style="stroke:#181818;stroke-width:1.5;"/><path d="M987.5,29 C987.5,39 1005.5,39 1005.5,39 C1005.5,39 1023.5,39 1023.5,29 " fill="none" style="stroke:#181818;stroke-width:1.5;"/><text fill="#000000" font-family="sans-serif" font-size="14" lengthAdjust="spacing" textLength="61" x="972" y="703.8223">Database</text><path d="M987.5,716.8984 C987.5,706.8984 1005.5,706.8984 1005.5,706.8984 C1005.5,706.8984 1023.5,706.8984 1023.5,716.8984 L1023.5,742.8984 C1023.5,752.8984 1005.5,752.8984 1005.5,752.8984 C1005.5,752.8984 987.5,752.8984 987.5,742.8984 L987.5,716.8984 " fill="#E2E2F0" style="stroke:#181818;stroke-width:1.5;"/><path d="M987.5,716.8984 C987.5,726.8984 1005.5,726.8984 1005.5,726.8984 C1005.5,726.8984 1023.5,726.8984 1023.5,716.8984 " fill="none" style="stroke:#181818;stroke-width:1.5;"/><rect fill="#FFFFFF" height="579.6797" style="stroke:#181818;stroke-width:1.0;" width="10" x="17.5" y="92.6094"/><rect fill="#FFFFFF" height="557.3281" style="stroke:#181818;stroke-width:1.0;" width="10" x="237.5" y="114.9609"/><rect fill="#FFFFFF" height="480.2734" style="stroke:#181818;stroke-width:1.0;" width="10" x="378.5" y="145.3125"/><rect fill="#FFFFFF" height="117.0547" style="stroke:#181818;stroke-width:1.0;" width="10" x="522.5" y="297.0703"/><rect fill="#FFFFFF" height="91.0547" style="stroke:#181818;stroke-width:1.0;" width="10" x="690.5" y="175.6641"/><rect fill="#FFFFFF" height="107.4063" style="stroke:#181818;stroke-width:1.0;" width="10" x="806.5" y="444.4766"/><rect fill="#FFFFFF" height="30.3516" style="stroke:#181818;stroke-width:1.0;" width="10" x="1000.5" y="206.0156"/><rect fill="#FFFFFF" height="30.3516" style="stroke:#181818;stroke-width:1.0;" width="10" x="1000.5" y="491.1797"/><polygon fill="#181818" points="225.5,110.9609,235.5,114.9609,225.5,118.9609,229.5,114.9609" style="stroke:#181818;stroke-width:1.0;"/><line style="stroke:#181818;stroke-width:1.0;" x1="27.5" x2="231.5" y1="114.9609" y2="114.9609"/><text fill="#000000" font-family="sans-serif" font-size="13" font-weight="bold" lengthAdjust="spacing" textLength="7" x="34.5" y="110.1045">1</text><text fill="#000000" font-family="sans-serif" font-size="13" lengthAdjust="spacing" textLength="180" x="45.5" y="110.1045">PATCH /api/Object/{id}/activate</text><polygon fill="#181818" points="366.5,141.3125,376.5,145.3125,366.5,149.3125,370.5,145.3125" style="stroke:#181818;stroke-width:1.0;"/><line style="stroke:#181818;stroke-width:1.0;" x1="247.5" x2="372.5" y1="145.3125" y2="145.3125"/><text fill="#000000" font-family="sans-serif" font-size="13" font-weight="bold" lengthAdjust="spacing" textLength="7" x="254.5" y="140.4561">2</text><text fill="#000000" font-family="sans-serif" font-size="13" lengthAdjust="spacing" textLength="101" x="265.5" y="140.4561">ActivateAsync(id)</text><polygon fill="#181818" points="678.5,171.6641,688.5,175.6641,678.5,179.6641,682.5,175.6641" style="stroke:#181818;stroke-width:1.0;"/><line style="stroke:#181818;stroke-width:1.0;" x1="388.5" x2="684.5" y1="175.6641" y2="175.6641"/><text fill="#000000" font-family="sans-serif" font-size="13" font-weight="bold" lengthAdjust="spacing" textLength="7" x="395.5" y="170.8076">3</text><text fill="#000000" font-family="sans-serif" font-size="13" lengthAdjust="spacing" textLength="102" x="406.5" y="170.8076">GetByIdAsync(id)</text><polygon fill="#181818" points="988.5,202.0156,998.5,206.0156,988.5,210.0156,992.5,206.0156" style="stroke:#181818;stroke-width:1.0;"/><line style="stroke:#181818;stroke-width:1.0;" x1="700.5" x2="994.5" y1="206.0156" y2="206.0156"/><text fill="#000000" font-family="sans-serif" font-size="13" font-weight="bold" lengthAdjust="spacing" textLength="7" x="707.5" y="201.1592">4</text><text fill="#000000" font-family="sans-serif" font-size="13" lengthAdjust="spacing" textLength="64" x="718.5" y="201.1592">query by id</text><polygon fill="#181818" points="711.5,232.3672,701.5,236.3672,711.5,240.3672,707.5,236.3672" style="stroke:#181818;stroke-width:1.0;"/><line style="stroke:#181818;stroke-width:1.0;stroke-dasharray:2.0,2.0;" x1="705.5" x2="1004.5" y1="236.3672" y2="236.3672"/><text fill="#000000" font-family="sans-serif" font-size="13" font-weight="bold" lengthAdjust="spacing" textLength="7" x="717.5" y="231.5107">5</text><text fill="#000000" font-family="sans-serif" font-size="13" lengthAdjust="spacing" textLength="75" x="728.5" y="231.5107">object record</text><polygon fill="#181818" points="399.5,262.7188,389.5,266.7188,399.5,270.7188,395.5,266.7188" style="stroke:#181818;stroke-width:1.0;"/><line style="stroke:#181818;stroke-width:1.0;stroke-dasharray:2.0,2.0;" x1="393.5" x2="694.5" y1="266.7188" y2="266.7188"/><text fill="#000000" font-family="sans-serif" font-size="13" font-weight="bold" lengthAdjust="spacing" textLength="7" x="405.5" y="261.8623">6</text><text fill="#000000" font-family="sans-serif" font-size="13" lengthAdjust="spacing" textLength="35" x="416.5" y="261.8623">object</text><polygon fill="#181818" points="510.5,293.0703,520.5,297.0703,510.5,301.0703,514.5,297.0703" style="stroke:#181818;stroke-width:1.0;"/><line style="stroke:#181818;stroke-width:1.0;" x1="388.5" x2="516.5" y1="297.0703" y2="297.0703"/><text fill="#000000" font-family="sans-serif" font-size="13" font-weight="bold" lengthAdjust="spacing" textLength="7" x="395.5" y="292.2139">7</text><text fill="#000000" font-family="sans-serif" font-size="13" lengthAdjust="spacing" textLength="54" x="406.5" y="292.2139">Activate()</text><line style="stroke:#181818;stroke-width:1.0;" x1="532.5" x2="574.5" y1="327.4219" y2="327.4219"/><line style="stroke:#181818;stroke-width:1.0;" x1="574.5" x2="574.5" y1="327.4219" y2="340.4219"/><line style="stroke:#181818;stroke-width:1.0;" x1="533.5" x2="574.5" y1="340.4219" y2="340.4219"/><polygon fill="#181818" points="543.5,336.4219,533.5,340.4219,543.5,344.4219,539.5,340.4219" style="stroke:#181818;stroke-width:1.0;"/><text fill="#000000" font-family="sans-serif" font-size="13" font-weight="bold" lengthAdjust="spacing" textLength="7" x="539.5" y="322.5654">8</text><text fill="#000000" font-family="sans-serif" font-size="13" lengthAdjust="spacing" textLength="133" x="550.5" y="322.5654">validate activation rules</text><line style="stroke:#181818;stroke-width:1.0;" x1="532.5" x2="574.5" y1="370.7734" y2="370.7734"/><line style="stroke:#181818;stroke-width:1.0;" x1="574.5" x2="574.5" y1="370.7734" y2="383.7734"/><line style="stroke:#181818;stroke-width:1.0;" x1="533.5" x2="574.5" y1="383.7734" y2="383.7734"/><polygon fill="#181818" points="543.5,379.7734,533.5,383.7734,543.5,387.7734,539.5,383.7734" style="stroke:#181818;stroke-width:1.0;"/><text fill="#000000" font-family="sans-serif" font-size="13" font-weight="bold" lengthAdjust="spacing" textLength="7" x="539.5" y="365.917">9</text><text fill="#000000" font-family="sans-serif" font-size="13" lengthAdjust="spacing" textLength="95" x="550.5" y="365.917">set Active = true</text><polygon fill="#181818" points="399.5,410.125,389.5,414.125,399.5,418.125,395.5,414.125" style="stroke:#181818;stroke-width:1.0;"/><line style="stroke:#181818;stroke-width:1.0;stroke-dasharray:2.0,2.0;" x1="393.5" x2="526.5" y1="414.125" y2="414.125"/><text fill="#000000" font-family="sans-serif" font-size="13" font-weight="bold" lengthAdjust="spacing" textLength="14" x="405.5" y="409.2686">10</text><text fill="#000000" font-family="sans-serif" font-size="13" lengthAdjust="spacing" textLength="22" x="423.5" y="409.2686">void</text><polygon fill="#181818" points="794.5,440.4766,804.5,444.4766,794.5,448.4766,798.5,444.4766" style="stroke:#181818;stroke-width:1.0;"/><line style="stroke:#181818;stroke-width:1.0;" x1="388.5" x2="800.5" y1="444.4766" y2="444.4766"/><text fill="#000000" font-family="sans-serif" font-size="13" font-weight="bold" lengthAdjust="spacing" textLength="14" x="395.5" y="439.6201">11</text><text fill="#000000" font-family="sans-serif" font-size="13" lengthAdjust="spacing" textLength="90" x="413.5" y="439.6201">CommitAsync()</text><polygon fill="#181818" points="988.5,487.1797,998.5,491.1797,988.5,495.1797,992.5,491.1797" style="stroke:#181818;stroke-width:1.0;"/><line style="stroke:#181818;stroke-width:1.0;" x1="816.5" x2="994.5" y1="491.1797" y2="491.1797"/><text fill="#000000" font-family="sans-serif" font-size="13" font-weight="bold" lengthAdjust="spacing" textLength="14" x="823.5" y="478.1475">12</text><text fill="#000000" font-family="sans-serif" font-size="13" lengthAdjust="spacing" textLength="124" x="841.5" y="469.9717">SaveChangesAsync()</text><text fill="#000000" font-family="sans-serif" font-size="13" lengthAdjust="spacing" textLength="147" x="841.5" y="486.3232">(persist tracked changes)</text><polygon fill="#181818" points="827.5,517.5313,817.5,521.5313,827.5,525.5313,823.5,521.5313" style="stroke:#181818;stroke-width:1.0;"/><line style="stroke:#181818;stroke-width:1.0;stroke-dasharray:2.0,2.0;" x1="821.5" x2="1004.5" y1="521.5313" y2="521.5313"/><text fill="#000000" font-family="sans-serif" font-size="13" font-weight="bold" lengthAdjust="spacing" textLength="14" x="833.5" y="516.6748">13</text><text fill="#000000" font-family="sans-serif" font-size="13" lengthAdjust="spacing" textLength="102" x="851.5" y="516.6748">int (rows affected)</text><polygon fill="#181818" points="399.5,547.8828,389.5,551.8828,399.5,555.8828,395.5,551.8828" style="stroke:#181818;stroke-width:1.0;"/><line style="stroke:#181818;stroke-width:1.0;stroke-dasharray:2.0,2.0;" x1="393.5" x2="810.5" y1="551.8828" y2="551.8828"/><text fill="#000000" font-family="sans-serif" font-size="13" font-weight="bold" lengthAdjust="spacing" textLength="14" x="405.5" y="547.0264">14</text><text fill="#000000" font-family="sans-serif" font-size="13" lengthAdjust="spacing" textLength="14" x="423.5" y="547.0264">int</text><line style="stroke:#181818;stroke-width:1.0;" x1="388.5" x2="430.5" y1="582.2344" y2="582.2344"/><line style="stroke:#181818;stroke-width:1.0;" x1="430.5" x2="430.5" y1="582.2344" y2="595.2344"/><line style="stroke:#181818;stroke-width:1.0;" x1="389.5" x2="430.5" y1="595.2344" y2="595.2344"/><polygon fill="#181818" points="399.5,591.2344,389.5,595.2344,399.5,599.2344,395.5,595.2344" style="stroke:#181818;stroke-width:1.0;"/><text fill="#000000" font-family="sans-serif" font-size="13" font-weight="bold" lengthAdjust="spacing" textLength="14" x="395.5" y="577.3779">15</text><text fill="#000000" font-family="sans-serif" font-size="13" lengthAdjust="spacing" textLength="102" x="413.5" y="577.3779">MapToDto(object)</text><polygon fill="#181818" points="258.5,621.5859,248.5,625.5859,258.5,629.5859,254.5,625.5859" style="stroke:#181818;stroke-width:1.0;"/><line style="stroke:#181818;stroke-width:1.0;stroke-dasharray:2.0,2.0;" x1="252.5" x2="382.5" y1="625.5859" y2="625.5859"/><text fill="#000000" font-family="sans-serif" font-size="13" font-weight="bold" lengthAdjust="spacing" textLength="14" x="264.5" y="620.7295">16</text><text fill="#000000" font-family="sans-serif" font-size="13" lengthAdjust="spacing" textLength="58" x="282.5" y="620.7295">ObjectDto</text><polygon fill="#181818" points="33.5,668.2891,23.5,672.2891,33.5,676.2891,29.5,672.2891" style="stroke:#181818;stroke-width:1.0;"/><line style="stroke:#181818;stroke-width:1.0;stroke-dasharray:2.0,2.0;" x1="27.5" x2="241.5" y1="672.2891" y2="672.2891"/><text fill="#000000" font-family="sans-serif" font-size="13" font-weight="bold" lengthAdjust="spacing" textLength="14" x="39.5" y="659.2568">17</text><text fill="#000000" font-family="sans-serif" font-size="13" lengthAdjust="spacing" textLength="44" x="57.5" y="651.0811">200 OK</text><text fill="#000000" font-family="sans-serif" font-size="13" lengthAdjust="spacing" textLength="117" x="57.5" y="667.4326">{activatedObjectDto}</text><!--SRC=[RPFDJiCm48JlUOfLJ-a15N540ga_4bG85T4YBbpSU0kcgHri9oX2l3kRs6asA9VAhhzPpwmtelH6bwSzsYGHcJSM9YyExGI4WsQH5C9wbQb2Q0-JpVuJCxyqsbkJvn7hjsFm5csbCcp9k1x3slEm71wlmv_FM1Ydo5_TalrsIBzevJU7LsEF8O5vJQJmOYySmcGLL-tHQj46LfNm698cpIzStB90S0rFyzto7cQYKBFWPFQZvE-ia_OrM1iILe7gnTXKR1xXkQjrbYevxULTRvAE9c6VahHtw1VrMev8MJEOWlIh1Uc-IgJTlWObUmcbfyEB_tUODY5Op8oLYKJEyzA3K474QMQ8nmdzOsr8MOZuzf7XT2Lo9Hiaiifei6MERWnsw4DvX1lmjiGpDF1S6JN85s_dRcbs25oQqqdvq7JcjXci1kYQl1KLBZ-4VaSNsJUT5cYTSfviYEo84h80JCUU8TocQ8PJQxuTYCE1324zy_0Lsai7KKZ3cSOPZz63ZwBOcPKtQNYmQK_zd_dG3K9vuVE0yk5kdBjMStLv2Pk7D_tJ2UIvoYylmpuJxhhv0Fy0]--></g></svg>