<?xml version="1.0" encoding="us-ascii" standalone="no"?><svg xmlns="http://www.w3.org/2000/svg" xmlns:xlink="http://www.w3.org/1999/xlink" contentStyleType="text/css" height="1871px" preserveAspectRatio="none" style="width:613px;height:1871px;background:#FFFFFF;" version="1.1" viewBox="0 0 613 1871" width="613px" zoomAndPan="magnify"><defs/><g><text fill="#000000" font-family="sans-serif" font-size="14" font-weight="bold" lengthAdjust="spacing" textLength="127" x="236" y="24.5332">Use Case Diagram</text><!--cluster System--><g id="cluster_System"><rect fill="none" height="1820" rx="2.5" ry="2.5" style="stroke:#181818;stroke-width:1.0;" width="361" x="246" y="45.6094"/><text fill="#000000" font-family="sans-serif" font-size="14" font-weight="bold" lengthAdjust="spacing" textLength="50" x="401.5" y="62.1426">System</text></g><g id="elem_CVT"><ellipse cx="426.5583" cy="104.521" fill="#F1F1F1" rx="100.0583" ry="22.4117" style="stroke:#181818;stroke-width:0.5;"/><text fill="#000000" font-family="sans-serif" font-size="14" lengthAdjust="spacing" textLength="161" x="346.0583" y="108.2496">2.2.1 Create Vessel Type</text></g><g id="elem_UVT"><ellipse cx="426.4506" cy="184.6995" fill="#F1F1F1" rx="100.9506" ry="22.5901" style="stroke:#181818;stroke-width:0.5;"/><text fill="#000000" font-family="sans-serif" font-size="14" lengthAdjust="spacing" textLength="163" x="344.9506" y="188.428">2.2.1 Update Vessel Type</text></g><g id="elem_CVR"><ellipse cx="426.3456" cy="265.7785" fill="#F1F1F1" rx="106.3456" ry="23.6691" style="stroke:#181818;stroke-width:0.5;"/><text fill="#000000" font-family="sans-serif" font-size="14" lengthAdjust="spacing" textLength="175" x="338.8456" y="269.507">2.2.2 Create Vessel Record</text></g><g id="elem_UVR"><ellipse cx="426.2512" cy="348.4596" fill="#F1F1F1" rx="107.2512" ry="23.8502" style="stroke:#181818;stroke-width:0.5;"/><text fill="#000000" font-family="sans-serif" font-size="14" lengthAdjust="spacing" textLength="177" x="337.7512" y="352.1881">2.2.2 Update Vessel Record</text></g><g id="elem_CD"><ellipse cx="426.669" cy="426.6432" fill="#F1F1F1" rx="83.169" ry="19.0338" style="stroke:#181818;stroke-width:0.5;"/><text fill="#000000" font-family="sans-serif" font-size="14" lengthAdjust="spacing" textLength="122" x="365.669" y="430.3717">2.2.3 Create Docks</text></g><g id="elem_UD"><ellipse cx="426.5066" cy="499.8107" fill="#F1F1F1" rx="84.0066" ry="19.2013" style="stroke:#181818;stroke-width:0.5;"/><text fill="#000000" font-family="sans-serif" font-size="14" lengthAdjust="spacing" textLength="124" x="364.5066" y="503.5392">2.2.3 Update Docks</text></g><g id="elem_CSA"><ellipse cx="426.7412" cy="576.5576" fill="#F1F1F1" rx="102.7412" ry="22.9482" style="stroke:#181818;stroke-width:0.5;"/><text fill="#000000" font-family="sans-serif" font-size="14" lengthAdjust="spacing" textLength="167" x="343.2412" y="580.2861">2.2.4 Create Storage Area</text></g><g id="elem_USA"><ellipse cx="426.6395" cy="657.7373" fill="#F1F1F1" rx="103.6395" ry="23.1279" style="stroke:#181818;stroke-width:0.5;"/><text fill="#000000" font-family="sans-serif" font-size="14" lengthAdjust="spacing" textLength="169" x="342.1395" y="661.4658">2.2.4 Update Storage Area</text></g><g id="elem_RSA"><ellipse cx="426.7192" cy="740.5532" fill="#F1F1F1" rx="112.7192" ry="24.9438" style="stroke:#181818;stroke-width:0.5;"/><text fill="#000000" font-family="sans-serif" font-size="14" lengthAdjust="spacing" textLength="189" x="332.2192" y="744.2817">2.2.5 Register Shipping Agent</text></g><g id="elem_RSR"><ellipse cx="426.3066" cy="835.4707" fill="#F1F1F1" rx="159.8066" ry="34.3613" style="stroke:#181818;stroke-width:0.5;"/><text fill="#000000" font-family="sans-serif" font-size="14" lengthAdjust="spacing" textLength="289" x="281.8066" y="839.1992">2.2.6 Register Shipping Agent Representative</text></g><g id="elem_MSR"><ellipse cx="426.3471" cy="939.7788" fill="#F1F1F1" rx="158.8471" ry="34.1694" style="stroke:#181818;stroke-width:0.5;"/><text fill="#000000" font-family="sans-serif" font-size="14" lengthAdjust="spacing" textLength="287" x="282.8471" y="943.5073">2.2.6 Manage Shipping Agent Representative</text></g><g id="elem_RVV"><ellipse cx="426.2597" cy="1037.3613" fill="#F1F1F1" rx="131.7597" ry="28.7519" style="stroke:#181818;stroke-width:0.5;"/><text fill="#000000" font-family="sans-serif" font-size="14" lengthAdjust="spacing" textLength="230" x="311.2597" y="1041.0898">2.2.7 Review Vessel Visit Notification</text></g><g id="elem_CVV"><ellipse cx="426.3204" cy="1130.6735" fill="#F1F1F1" rx="130.8204" ry="28.5641" style="stroke:#181818;stroke-width:0.5;"/><text fill="#000000" font-family="sans-serif" font-size="14" lengthAdjust="spacing" textLength="228" x="312.3204" y="1134.402">2.2.8 Create Vessel Visit Notification</text></g><g id="elem_CCVV"><ellipse cx="426.6116" cy="1229.4317" fill="#F1F1F1" rx="164.6116" ry="35.3223" style="stroke:#181818;stroke-width:0.5;"/><text fill="#000000" font-family="sans-serif" font-size="14" lengthAdjust="spacing" textLength="299" x="277.1116" y="1233.1602">2.2.9 Change/Complete Vessel Visit Notification</text></g><g id="elem_VVV"><ellipse cx="426.5541" cy="1325.4202" fill="#F1F1F1" rx="114.5541" ry="25.3108" style="stroke:#181818;stroke-width:0.5;"/><text fill="#000000" font-family="sans-serif" font-size="14" lengthAdjust="spacing" textLength="193" x="330.0541" y="1329.1487">2.2.10 View Vessel Visit Status</text></g><g id="elem_RSM"><ellipse cx="426.5948" cy="1411.8283" fill="#F1F1F1" rx="114.0948" ry="25.219" style="stroke:#181818;stroke-width:0.5;"/><text fill="#000000" font-family="sans-serif" font-size="14" lengthAdjust="spacing" textLength="192" x="330.5948" y="1415.5569">2.2.11 Register Staff Members</text></g><g id="elem_MSM"><ellipse cx="426.6774" cy="1496.6449" fill="#F1F1F1" rx="113.1774" ry="25.0355" style="stroke:#181818;stroke-width:0.5;"/><text fill="#000000" font-family="sans-serif" font-size="14" lengthAdjust="spacing" textLength="190" x="331.6774" y="1500.3734">2.2.11 Manage Staff Members</text></g><g id="elem_RR"><ellipse cx="426.6395" cy="1579.7373" fill="#F1F1F1" rx="103.6395" ry="23.1279" style="stroke:#181818;stroke-width:0.5;"/><text fill="#000000" font-family="sans-serif" font-size="14" lengthAdjust="spacing" textLength="169" x="342.1395" y="1583.4658">2.2.12 Register Resources</text></g><g id="elem_MR"><ellipse cx="426.7412" cy="1660.5576" fill="#F1F1F1" rx="102.7412" ry="22.9482" style="stroke:#181818;stroke-width:0.5;"/><text fill="#000000" font-family="sans-serif" font-size="14" lengthAdjust="spacing" textLength="167" x="343.2412" y="1664.2861">2.2.12 Manage Resources</text></g><g id="elem_CQ"><ellipse cx="426.2982" cy="1742.369" fill="#F1F1F1" rx="106.7982" ry="23.7596" style="stroke:#181818;stroke-width:0.5;"/><text fill="#000000" font-family="sans-serif" font-size="14" lengthAdjust="spacing" textLength="176" x="338.2982" y="1746.0975">2.2.13 Create Qualifications</text></g><g id="elem_UQ"><ellipse cx="426.7046" cy="1825.5503" fill="#F1F1F1" rx="107.7046" ry="23.9409" style="stroke:#181818;stroke-width:0.5;"/><text fill="#000000" font-family="sans-serif" font-size="14" lengthAdjust="spacing" textLength="178" x="337.7046" y="1829.2788">2.2.13 Update Qualifications</text></g><!--entity POA--><g id="elem_POA"><ellipse cx="104" cy="508.1094" fill="#F1F1F1" rx="8" ry="8" style="stroke:#181818;stroke-width:0.5;"/><path d="M104,516.1094 L104,543.1094 M91,524.1094 L117,524.1094 M104,543.1094 L91,558.1094 M104,543.1094 L117,558.1094 " fill="none" style="stroke:#181818;stroke-width:0.5;"/><text fill="#000000" font-family="sans-serif" font-size="14" lengthAdjust="spacing" textLength="132" x="38" y="574.1426">Port Authority Officer</text></g><!--entity SAR--><g id="elem_SAR"><ellipse cx="104" cy="1199.1094" fill="#F1F1F1" rx="8" ry="8" style="stroke:#181818;stroke-width:0.5;"/><path d="M104,1207.1094 L104,1234.1094 M91,1215.1094 L117,1215.1094 M104,1234.1094 L91,1249.1094 M104,1234.1094 L117,1249.1094 " fill="none" style="stroke:#181818;stroke-width:0.5;"/><text fill="#000000" font-family="sans-serif" font-size="14" lengthAdjust="spacing" textLength="196" x="6" y="1265.1426">Shipping Agent Representative</text></g><!--entity LO--><g id="elem_LO"><ellipse cx="104" cy="1589.1094" fill="#F1F1F1" rx="8" ry="8" style="stroke:#181818;stroke-width:0.5;"/><path d="M104,1597.1094 L104,1624.1094 M91,1605.1094 L117,1605.1094 M104,1624.1094 L91,1639.1094 M104,1624.1094 L117,1639.1094 " fill="none" style="stroke:#181818;stroke-width:0.5;"/><text fill="#000000" font-family="sans-serif" font-size="14" lengthAdjust="spacing" textLength="116" x="46" y="1655.1426">Logistics Operator</text></g><!--link POA to CVT--><g id="link_POA_CVT"><path d="M106.08,499.3394 C110.51,419.6894 132.34,238.7294 238,144.6094 C262.23,123.0194 289.2823,113.07 320.8223,107.79 " fill="none" id="POA-to-CVT" style="stroke:#181818;stroke-width:1.0;"/><polygon fill="#181818" points="326.74,106.7994,317.2031,104.3403,321.8086,107.6249,318.524,112.2305,326.74,106.7994" style="stroke:#181818;stroke-width:1.0;"/></g><!--link POA to UVT--><g id="link_POA_UVT"><path d="M109.91,499.4494 C120.51,432.3194 151.94,295.6594 238,224.6094 C262.64,204.2694 289.2605,194.5973 320.2905,189.1473 " fill="none" id="POA-to-UVT" style="stroke:#181818;stroke-width:1.0;"/><polygon fill="#181818" points="326.2,188.1094,316.6437,185.7266,321.2754,188.9743,318.0276,193.606,326.2,188.1094" style="stroke:#181818;stroke-width:1.0;"/></g><!--link POA to CVR--><g id="link_POA_CVR"><path d="M116.4,499.3994 C133.74,446.9894 171.92,355.0694 238,306.6094 C262.72,288.4794 288.0036,279.2512 317.7936,273.3712 " fill="none" id="POA-to-CVR" style="stroke:#181818;stroke-width:1.0;"/><polygon fill="#181818" points="323.68,272.2094,314.0758,270.0279,318.7746,273.1776,315.6249,277.8765,323.68,272.2094" style="stroke:#181818;stroke-width:1.0;"/></g><!--link POA to UVR--><g id="link_POA_UVR"><path d="M129.56,499.3194 C153.13,464.9894 191.89,416.5394 238,389.6094 C265.05,373.8094 291.6238,365.2526 321.8838,359.2726 " fill="none" id="POA-to-UVR" style="stroke:#181818;stroke-width:1.0;"/><polygon fill="#181818" points="327.77,358.1094,318.1653,355.9301,322.8649,359.0787,319.7162,363.7783,327.77,358.1094" style="stroke:#181818;stroke-width:1.0;"/></g><!--link POA to CD--><g id="link_POA_CD"><path d="M163.54,499.6094 C186.02,486.1394 212.44,472.0694 238,462.6094 C274.37,449.1494 310.7306,441.3874 345.9306,435.9374 " fill="none" id="POA-to-CD" style="stroke:#181818;stroke-width:1.0;"/><polygon fill="#181818" points="351.86,435.0194,342.3539,432.4435,346.9189,435.7844,343.578,440.3493,351.86,435.0194" style="stroke:#181818;stroke-width:1.0;"/></g><!--link POA to UD--><g id="link_POA_UD"><path d="M170.24,530.6694 C223.05,524.2494 291.4339,515.9238 346.2739,509.2538 " fill="none" id="POA-to-UD" style="stroke:#181818;stroke-width:1.0;"/><polygon fill="#181818" points="352.23,508.5294,342.8129,505.6453,347.2666,509.1331,343.7788,513.5867,352.23,508.5294" style="stroke:#181818;stroke-width:1.0;"/></g><!--link POA to CSA--><g id="link_POA_CSA"><path d="M170.24,546.3494 C217.83,551.9894 276.9517,558.9929 329.4917,565.2229 " fill="none" id="POA-to-CSA" style="stroke:#181818;stroke-width:1.0;"/><polygon fill="#181818" points="335.45,565.9294,326.9836,560.8974,330.4848,565.3406,326.0416,568.8418,335.45,565.9294" style="stroke:#181818;stroke-width:1.0;"/></g><!--link POA to USA--><g id="link_POA_USA"><path d="M162.56,577.7294 C185.26,591.6894 212.07,606.4694 238,616.6094 C270.43,629.2894 301.742,637.2956 334.402,643.6956 " fill="none" id="POA-to-USA" style="stroke:#181818;stroke-width:1.0;"/><polygon fill="#181818" points="340.29,644.8494,332.2272,639.1933,335.3833,643.8879,330.6888,647.044,340.29,644.8494" style="stroke:#181818;stroke-width:1.0;"/></g><!--link POA to RSA--><g id="link_POA_RSA"><path d="M127.24,577.6094 C150.22,614.2994 189.52,667.8994 238,697.6094 C263.91,713.4894 289.2241,722.2481 318.6641,728.5781 " fill="none" id="POA-to-RSA" style="stroke:#181818;stroke-width:1.0;"/><polygon fill="#181818" points="324.53,729.8394,316.5719,724.0369,319.6417,728.7883,314.8903,731.8581,324.53,729.8394" style="stroke:#181818;stroke-width:1.0;"/></g><!--link POA to RSR--><g id="link_POA_RSR"><path d="M115.82,577.8394 C132.8,631.9994 170.88,729.0394 238,782.6094 C255.71,796.7494 271.3353,805.1418 293.1053,812.7418 " fill="none" id="POA-to-RSR" style="stroke:#181818;stroke-width:1.0;"/><polygon fill="#181818" points="298.77,814.7194,291.5913,807.9765,294.0494,813.0714,288.9545,815.5295,298.77,814.7194" style="stroke:#181818;stroke-width:1.0;"/></g><!--link POA to MSR--><g id="link_POA_MSR"><path d="M108.56,577.7094 C117.24,649.7894 146.07,803.8994 238,887.6094 C254.11,902.2794 268.3781,910.7902 289.1181,918.4102 " fill="none" id="POA-to-MSR" style="stroke:#181818;stroke-width:1.0;"/><polygon fill="#181818" points="294.75,920.4794,287.6816,913.621,290.0567,918.755,284.9227,921.1302,294.75,920.4794" style="stroke:#181818;stroke-width:1.0;"/></g><!--link POA to RVV--><g id="link_POA_RVV"><path d="M104.37,577.7694 C105.2,665.1594 120,877.2994 238,990.6094 C256.15,1008.0394 274.0164,1017.5977 298.3264,1024.7877 " fill="none" id="POA-to-RVV" style="stroke:#181818;stroke-width:1.0;"/><polygon fill="#181818" points="304.08,1026.4894,296.584,1020.1011,299.2853,1025.0713,294.3151,1027.7726,304.08,1026.4894" style="stroke:#181818;stroke-width:1.0;"/></g><!--link SAR to CVV--><g id="link_SAR_CVV"><path d="M198.14,1190.6094 C211.42,1185.5994 224.98,1180.7794 238,1176.6094 C268.48,1166.8494 296.4854,1159.3686 326.9254,1152.0686 " fill="none" id="SAR-to-CVV" style="stroke:#181818;stroke-width:1.0;"/><polygon fill="#181818" points="332.76,1150.6694,323.0753,1148.8785,327.8979,1151.8354,324.941,1156.6579,332.76,1150.6694" style="stroke:#181818;stroke-width:1.0;"/></g><!--link SAR to CCVV--><g id="link_SAR_CCVV"><path d="M202.03,1229.6094 C221.01,1229.6094 235.39,1229.6094 255.85,1229.6094 " fill="none" id="SAR-to-CCVV" style="stroke:#181818;stroke-width:1.0;"/><polygon fill="#181818" points="261.85,1229.6094,252.85,1225.6094,256.85,1229.6094,252.85,1233.6094,261.85,1229.6094" style="stroke:#181818;stroke-width:1.0;"/></g><!--link SAR to VVV--><g id="link_SAR_VVV"><path d="M197.72,1268.6594 C211.12,1273.6894 224.83,1278.4994 238,1282.6094 C270.84,1292.8494 301.7491,1300.5248 333.9591,1307.5848 " fill="none" id="SAR-to-VVV" style="stroke:#181818;stroke-width:1.0;"/><polygon fill="#181818" points="339.82,1308.8694,331.8851,1303.0352,334.9359,1307.7989,330.1723,1310.8497,339.82,1308.8694" style="stroke:#181818;stroke-width:1.0;"/></g><!--link LO to RSM--><g id="link_LO_RSM"><path d="M125.93,1580.2794 C148.45,1541.9094 187.87,1484.8894 238,1453.6094 C263.19,1437.8894 287.663,1429.2857 316.523,1423.1057 " fill="none" id="LO-to-RSM" style="stroke:#181818;stroke-width:1.0;"/><polygon fill="#181818" points="322.39,1421.8494,312.7519,1419.8226,317.5008,1422.8963,314.4271,1427.6452,322.39,1421.8494" style="stroke:#181818;stroke-width:1.0;"/></g><!--link LO to MSM--><g id="link_LO_MSM"><path d="M160.13,1580.4494 C183.28,1565.5194 211.05,1549.4894 238,1538.6094 C268.16,1526.4294 296.6664,1518.6645 327.6864,1512.1945 " fill="none" id="LO-to-MSM" style="stroke:#181818;stroke-width:1.0;"/><polygon fill="#181818" points="333.56,1510.9694,323.9329,1508.8913,328.6653,1511.9903,325.5663,1516.7227,333.56,1510.9694" style="stroke:#181818;stroke-width:1.0;"/></g><!--link LO to RR--><g id="link_LO_RR"><path d="M162.3,1612.4594 C210.46,1606.4494 274.1861,1598.4919 329.7561,1591.5619 " fill="none" id="LO-to-RR" style="stroke:#181818;stroke-width:1.0;"/><polygon fill="#181818" points="335.71,1590.8194,326.2842,1587.9639,330.7484,1591.4381,327.2742,1595.9024,335.71,1590.8194" style="stroke:#181818;stroke-width:1.0;"/></g><!--link LO to MR--><g id="link_LO_MR"><path d="M162.3,1626.9394 C210.82,1633.1494 275.2384,1641.3885 331.0084,1648.5185 " fill="none" id="LO-to-MR" style="stroke:#181818;stroke-width:1.0;"/><polygon fill="#181818" points="336.96,1649.2794,328.5399,1644.1703,332.0004,1648.6453,327.5254,1652.1058,336.96,1649.2794" style="stroke:#181818;stroke-width:1.0;"/></g><!--link LO to CQ--><g id="link_LO_CQ"><path d="M160.13,1658.7694 C183.28,1673.6994 211.05,1689.7294 238,1700.6094 C269.55,1713.3494 299.8504,1721.4033 331.9504,1727.9333 " fill="none" id="LO-to-CQ" style="stroke:#181818;stroke-width:1.0;"/><polygon fill="#181818" points="337.83,1729.1294,329.808,1723.4156,332.9304,1728.1327,328.2133,1731.255,337.83,1729.1294" style="stroke:#181818;stroke-width:1.0;"/></g><!--link LO to UQ--><g id="link_LO_UQ"><path d="M126.26,1658.8194 C148.9,1696.7194 188.3,1752.8094 238,1783.6094 C264.65,1800.1294 291.1285,1808.9926 321.4085,1815.1026 " fill="none" id="LO-to-UQ" style="stroke:#181818;stroke-width:1.0;"/><polygon fill="#181818" points="327.29,1816.2894,319.259,1810.5882,322.3888,1815.3004,317.6766,1818.4302,327.29,1816.2894" style="stroke:#181818;stroke-width:1.0;"/></g><!--SRC=[XLHDZvim4BtxLunosTDkc_HhUra9aMCe6xDmTyb0h1ACRBDLLFM_rmJpbSnsEQ37wBtdOMOy5HOMh08jowE5WzIOMwbgngoq5K9g44BXNbifIYrEZ8dSAWshPwKj1AqzAYtj6UAYa3dg5GW3pt4mi9AZR1fPbn2KM5lWs6Wq3WahN_52JW8-a7UgbCRAt43Se1OkTc7iOiQwh4HTkeIIix5uWZyCtDCQpBlaLfk7pSCQGet28cHe35RmScxw8yBiXMAdpO5YfnHxS-NDCLVwuDqvnL-wp_WfnVyq-6zL_ilqlbkAvcqdMahGFWzkYQkXA142zzcR9W55zwutz9IYVt5_qpKADIpRUv5mIlBrBGar4JpXb4CawYwtz_KHfV_ccAyIVmyDoQIH5dueAztSYcxY-xEpx5RxUDNyDxGXfVqEuT4DBdu8rQcfy7qJqcNzqV6laq_SFxVz46IaQ3shkXL50H6UVg8slieHAHdAV2E8IC5cEeEZKQtEqVjpaktjbzo8uevNOj-AQYoIlnjxKk37c12aU_QNiJkWjnRaggxxlMUOsrvmV_zqsHe3JcUuk-zJVCBklexX2NONRWpFC5_WoIMQuMuONSx_dVX5wcwN-XIp2Sy_ijxnTj4kR7QnJoiQO3H1rzSXE2BN3ezSdVy1]--></g></svg>