<?xml version="1.0" encoding="us-ascii" standalone="no"?><svg xmlns="http://www.w3.org/2000/svg" xmlns:xlink="http://www.w3.org/1999/xlink" contentStyleType="text/css" height="615px" preserveAspectRatio="none" style="width:738px;height:615px;background:#FFFFFF;" version="1.1" viewBox="0 0 738 615" width="738px" zoomAndPan="magnify"><defs/><g><text fill="#000000" font-family="sans-serif" font-size="14" font-weight="bold" lengthAdjust="spacing" textLength="278" x="223" y="24.5332">Level 3 Implementation View - Frontend</text><!--cluster Port Management System - Frontend--><g id="cluster_Port Management System - Frontend"><rect fill="#87CEFA" height="564" rx="2.5" ry="2.5" style="stroke:#000000;stroke-width:1.0;" width="725" x="7" y="45.6094"/><text fill="#000000" font-family="sans-serif" font-size="14" font-weight="bold" lengthAdjust="spacing" textLength="256" x="241.5" y="62.1426">Port Management System - Frontend</text></g><!--cluster infra--><g id="cluster_infra"><rect fill="#87CEFA" height="90" rx="2.5" ry="2.5" style="stroke:#000000;stroke-width:1.0;" width="513" x="126" y="97.6094"/><text fill="#000000" font-family="sans-serif" font-size="14" font-weight="bold" lengthAdjust="spacing" textLength="97" x="134" y="114.1426">Infrastructure</text></g><!--cluster adapters--><g id="cluster_adapters"><rect fill="#87CEFA" height="90" rx="2.5" ry="2.5" style="stroke:#000000;stroke-width:1.0;" width="530" x="105" y="227.6094"/><text fill="#000000" font-family="sans-serif" font-size="14" font-weight="bold" lengthAdjust="spacing" textLength="130" x="113" y="244.1426">Interface Adapters</text></g><!--cluster appserv--><g id="cluster_appserv"><rect fill="#87CEFA" height="90" rx="2.5" ry="2.5" style="stroke:#000000;stroke-width:1.0;" width="548" x="96" y="357.6094"/><text fill="#000000" font-family="sans-serif" font-size="14" font-weight="bold" lengthAdjust="spacing" textLength="288" x="104" y="374.1426">Application Services / Use Case Services</text></g><!--cluster domain--><g id="cluster_domain"><rect fill="#87CEFA" height="90" rx="2.5" ry="2.5" style="stroke:#000000;stroke-width:1.0;" width="661" x="39" y="487.6094"/><text fill="#000000" font-family="sans-serif" font-size="14" font-weight="bold" lengthAdjust="spacing" textLength="147" x="112" y="504.1426">Entities/Core/Domain</text></g><!--entity Routes--><g id="elem_Routes"><path d="M170.5,133.6094 L223.5,133.6094 A3.75,3.75 0 0 1 226,136.1094 L233,154.7031 L247.5,154.7031 A2.5,2.5 0 0 1 250,157.2031 L250,169.2031 A2.5,2.5 0 0 1 247.5,171.7031 L170.5,171.7031 A2.5,2.5 0 0 1 168,169.2031 L168,136.1094 A2.5,2.5 0 0 1 170.5,133.6094 " fill="#87CEFA" style="stroke:#000000;stroke-width:0.5;"/><line style="stroke:#000000;stroke-width:0.5;" x1="168" x2="233" y1="154.7031" y2="154.7031"/><text fill="#000000" font-family="sans-serif" font-size="12" font-weight="bold" lengthAdjust="spacing" textLength="40" x="178" y="149.0664">Routes</text></g><!--entity Interceptors--><g id="elem_Interceptors"><path d="M406.5,133.6094 L489.5,133.6094 A3.75,3.75 0 0 1 492,136.1094 L499,154.7031 L513.5,154.7031 A2.5,2.5 0 0 1 516,157.2031 L516,169.2031 A2.5,2.5 0 0 1 513.5,171.7031 L406.5,171.7031 A2.5,2.5 0 0 1 404,169.2031 L404,136.1094 A2.5,2.5 0 0 1 406.5,133.6094 " fill="#87CEFA" style="stroke:#000000;stroke-width:0.5;"/><line style="stroke:#000000;stroke-width:0.5;" x1="404" x2="499" y1="154.7031" y2="154.7031"/><text fill="#000000" font-family="sans-serif" font-size="12" font-weight="bold" lengthAdjust="spacing" textLength="70" x="414" y="149.0664">Interceptors</text></g><!--entity Guards--><g id="elem_Guards"><path d="M288,133.6094 L342,133.6094 A3.75,3.75 0 0 1 344.5,136.1094 L351.5,154.7031 L366,154.7031 A2.5,2.5 0 0 1 368.5,157.2031 L368.5,169.2031 A2.5,2.5 0 0 1 366,171.7031 L288,171.7031 A2.5,2.5 0 0 1 285.5,169.2031 L285.5,136.1094 A2.5,2.5 0 0 1 288,133.6094 " fill="#87CEFA" style="stroke:#000000;stroke-width:0.5;"/><line style="stroke:#000000;stroke-width:0.5;" x1="285.5" x2="351.5" y1="154.7031" y2="154.7031"/><text fill="#000000" font-family="sans-serif" font-size="12" font-weight="bold" lengthAdjust="spacing" textLength="41" x="295.5" y="149.0664">Guards</text></g><!--entity Components--><g id="elem_Components"><path d="M267.5,263.6094 L352.5,263.6094 A3.75,3.75 0 0 1 355,266.1094 L362,284.7031 L376.5,284.7031 A2.5,2.5 0 0 1 379,287.2031 L379,299.2031 A2.5,2.5 0 0 1 376.5,301.7031 L267.5,301.7031 A2.5,2.5 0 0 1 265,299.2031 L265,266.1094 A2.5,2.5 0 0 1 267.5,263.6094 " fill="#87CEFA" style="stroke:#000000;stroke-width:0.5;"/><line style="stroke:#000000;stroke-width:0.5;" x1="265" x2="362" y1="284.7031" y2="284.7031"/><text fill="#000000" font-family="sans-serif" font-size="12" font-weight="bold" lengthAdjust="spacing" textLength="72" x="275" y="279.0664">Components</text></g><!--entity Services--><g id="elem_Services"><path d="M416.5,263.6094 L479.5,263.6094 A3.75,3.75 0 0 1 482,266.1094 L489,284.7031 L503.5,284.7031 A2.5,2.5 0 0 1 506,287.2031 L506,299.2031 A2.5,2.5 0 0 1 503.5,301.7031 L416.5,301.7031 A2.5,2.5 0 0 1 414,299.2031 L414,266.1094 A2.5,2.5 0 0 1 416.5,263.6094 " fill="#87CEFA" style="stroke:#000000;stroke-width:0.5;"/><line style="stroke:#000000;stroke-width:0.5;" x1="414" x2="489" y1="284.7031" y2="284.7031"/><text fill="#000000" font-family="sans-serif" font-size="12" font-weight="bold" lengthAdjust="spacing" textLength="50" x="424" y="279.0664">Services</text></g><!--entity HTTP Services--><g id="elem_HTTP Services"><path d="M339,393.6094 L435,393.6094 A3.75,3.75 0 0 1 437.5,396.1094 L444.5,414.7031 L459,414.7031 A2.5,2.5 0 0 1 461.5,417.2031 L461.5,429.2031 A2.5,2.5 0 0 1 459,431.7031 L339,431.7031 A2.5,2.5 0 0 1 336.5,429.2031 L336.5,396.1094 A2.5,2.5 0 0 1 339,393.6094 " fill="#87CEFA" style="stroke:#000000;stroke-width:0.5;"/><line style="stroke:#000000;stroke-width:0.5;" x1="336.5" x2="444.5" y1="414.7031" y2="414.7031"/><text fill="#000000" font-family="sans-serif" font-size="12" font-weight="bold" lengthAdjust="spacing" textLength="83" x="346.5" y="409.0664">HTTP Services</text></g><!--entity Interfaces--><g id="elem_Interfaces"><path d="M586.5,523.6094 L657.5,523.6094 A3.75,3.75 0 0 1 660,526.1094 L667,544.7031 L681.5,544.7031 A2.5,2.5 0 0 1 684,547.2031 L684,559.2031 A2.5,2.5 0 0 1 681.5,561.7031 L586.5,561.7031 A2.5,2.5 0 0 1 584,559.2031 L584,526.1094 A2.5,2.5 0 0 1 586.5,523.6094 " fill="#87CEFA" style="stroke:#000000;stroke-width:0.5;"/><line style="stroke:#000000;stroke-width:0.5;" x1="584" x2="667" y1="544.7031" y2="544.7031"/><text fill="#000000" font-family="sans-serif" font-size="12" font-weight="bold" lengthAdjust="spacing" textLength="58" x="594" y="539.0664">Interfaces</text></g><!--entity DTOs--><g id="elem_DTOs"><path d="M478,523.6094 L522,523.6094 A3.75,3.75 0 0 1 524.5,526.1094 L531.5,544.7031 L546,544.7031 A2.5,2.5 0 0 1 548.5,547.2031 L548.5,559.2031 A2.5,2.5 0 0 1 546,561.7031 L478,561.7031 A2.5,2.5 0 0 1 475.5,559.2031 L475.5,526.1094 A2.5,2.5 0 0 1 478,523.6094 " fill="#87CEFA" style="stroke:#000000;stroke-width:0.5;"/><line style="stroke:#000000;stroke-width:0.5;" x1="475.5" x2="531.5" y1="544.7031" y2="544.7031"/><text fill="#000000" font-family="sans-serif" font-size="12" font-weight="bold" lengthAdjust="spacing" textLength="31" x="485.5" y="539.0664">DTOs</text></g><!--entity Models--><g id="elem_Models"><path d="M360,523.6094 L414,523.6094 A3.75,3.75 0 0 1 416.5,526.1094 L423.5,544.7031 L438,544.7031 A2.5,2.5 0 0 1 440.5,547.2031 L440.5,559.2031 A2.5,2.5 0 0 1 438,561.7031 L360,561.7031 A2.5,2.5 0 0 1 357.5,559.2031 L357.5,526.1094 A2.5,2.5 0 0 1 360,523.6094 " fill="#87CEFA" style="stroke:#000000;stroke-width:0.5;"/><line style="stroke:#000000;stroke-width:0.5;" x1="357.5" x2="423.5" y1="544.7031" y2="544.7031"/><text fill="#000000" font-family="sans-serif" font-size="12" font-weight="bold" lengthAdjust="spacing" textLength="41" x="367.5" y="539.0664">Models</text></g><!--entity Configuration--><g id="elem_Configuration"><path d="M206.5,523.6094 L295.5,523.6094 A3.75,3.75 0 0 1 298,526.1094 L305,544.7031 L319.5,544.7031 A2.5,2.5 0 0 1 322,547.2031 L322,559.2031 A2.5,2.5 0 0 1 319.5,561.7031 L206.5,561.7031 A2.5,2.5 0 0 1 204,559.2031 L204,526.1094 A2.5,2.5 0 0 1 206.5,523.6094 " fill="#87CEFA" style="stroke:#000000;stroke-width:0.5;"/><line style="stroke:#000000;stroke-width:0.5;" x1="204" x2="305" y1="544.7031" y2="544.7031"/><text fill="#000000" font-family="sans-serif" font-size="12" font-weight="bold" lengthAdjust="spacing" textLength="76" x="214" y="539.0664">Configuration</text></g><!--entity Translations--><g id="elem_Translations"><path d="M58,523.6094 L142,523.6094 A3.75,3.75 0 0 1 144.5,526.1094 L151.5,544.7031 L166,544.7031 A2.5,2.5 0 0 1 168.5,547.2031 L168.5,559.2031 A2.5,2.5 0 0 1 166,561.7031 L58,561.7031 A2.5,2.5 0 0 1 55.5,559.2031 L55.5,526.1094 A2.5,2.5 0 0 1 58,523.6094 " fill="#87CEFA" style="stroke:#000000;stroke-width:0.5;"/><line style="stroke:#000000;stroke-width:0.5;" x1="55.5" x2="151.5" y1="544.7031" y2="544.7031"/><text fill="#000000" font-family="sans-serif" font-size="12" font-weight="bold" lengthAdjust="spacing" textLength="71" x="65.5" y="539.0664">Translations</text></g><!--link Routes to Components--><g id="link_Routes_Components"><path d="M224.95,171.6794 C246.37,195.9394 280.24,234.3006 301.79,258.7206 " fill="none" id="Routes-to-Components" style="stroke:#181818;stroke-width:1.0;stroke-dasharray:7.0,7.0;"/><polygon fill="#181818" points="305.76,263.2194,302.8041,253.8245,302.4516,259.4704,296.8058,259.1179,305.76,263.2194" style="stroke:#181818;stroke-width:1.0;"/></g><!--link Components to HTTP Services--><g id="link_Components_HTTP Services"><path d="M332.87,301.6794 C347.46,325.9394 370.1571,363.658 384.8471,388.078 " fill="none" id="Components-to-HTTP Services" style="stroke:#181818;stroke-width:1.0;stroke-dasharray:7.0,7.0;"/><polygon fill="#181818" points="387.94,393.2194,386.7283,383.4453,385.3626,388.9349,379.8731,387.5691,387.94,393.2194" style="stroke:#181818;stroke-width:1.0;"/></g><!--reverse link Guards to Components--><g id="link_Guards_Components"><path d="M326.0577,177.6749 C325.1177,201.9349 323.67,238.7994 322.72,263.2194 " fill="none" id="Guards-backto-Components" style="stroke:#181818;stroke-width:1.0;stroke-dasharray:7.0,7.0;"/><polygon fill="#181818" points="326.29,171.6794,321.9445,180.5178,326.0964,176.6756,329.9385,180.8275,326.29,171.6794" style="stroke:#181818;stroke-width:1.0;"/></g><!--reverse link Interceptors to Services--><g id="link_Interceptors_Services"><path d="M460,177.6794 C460,201.9394 460,238.7994 460,263.2194 " fill="none" id="Interceptors-backto-Services" style="stroke:#181818;stroke-width:1.0;stroke-dasharray:7.0,7.0;"/><polygon fill="#181818" points="460,171.6794,456,180.6794,460,176.6794,464,180.6794,460,171.6794" style="stroke:#181818;stroke-width:1.0;"/></g><!--link Services to HTTP Services--><g id="link_Services_HTTP Services"><path d="M451.39,301.6794 C439.83,325.9394 421.9817,363.3832 410.3417,387.8032 " fill="none" id="Services-to-HTTP Services" style="stroke:#181818;stroke-width:1.0;stroke-dasharray:7.0,7.0;"/><polygon fill="#181818" points="407.76,393.2194,415.2433,386.8162,409.9114,388.7059,408.0217,383.374,407.76,393.2194" style="stroke:#181818;stroke-width:1.0;"/></g><!--link HTTP Services to Interfaces--><g id="link_HTTP Services_Interfaces"><path d="M461.61,427.8894 C494.36,437.1494 534.16,451.3294 566,471.6094 C587.87,485.5294 604.1271,503.138 616.6971,518.818 " fill="none" id="HTTP Services-to-Interfaces" style="stroke:#181818;stroke-width:1.0;stroke-dasharray:7.0,7.0;"/><polygon fill="#181818" points="620.45,523.4994,617.9416,513.9753,617.3226,519.5982,611.6997,518.9792,620.45,523.4994" style="stroke:#181818;stroke-width:1.0;"/></g><!--link HTTP Services to DTOs--><g id="link_HTTP Services_DTOs"><path d="M418.8,431.7794 C430.59,442.8994 445.61,457.6394 458,471.6094 C472.97,488.4894 485.0114,504.2239 495.5714,518.6839 " fill="none" id="HTTP Services-to-DTOs" style="stroke:#181818;stroke-width:1.0;stroke-dasharray:7.0,7.0;"/><polygon fill="#181818" points="499.11,523.5294,497.0324,513.9021,496.1612,519.4915,490.5718,518.6203,499.11,523.5294" style="stroke:#181818;stroke-width:1.0;"/></g><!--link HTTP Services to Models--><g id="link_HTTP Services_Models"><path d="M399,431.6794 C399,455.9394 399,492.7994 399,517.2194 " fill="none" id="HTTP Services-to-Models" style="stroke:#181818;stroke-width:1.0;stroke-dasharray:7.0,7.0;"/><polygon fill="#181818" points="399,523.2194,403,514.2194,399,518.2194,395,514.2194,399,523.2194" style="stroke:#181818;stroke-width:1.0;"/></g><!--link HTTP Services to Configuration--><g id="link_HTTP Services_Configuration"><path d="M379.8,431.6794 C354.03,455.9394 312.8595,494.6875 286.9095,519.1075 " fill="none" id="HTTP Services-to-Configuration" style="stroke:#181818;stroke-width:1.0;stroke-dasharray:7.0,7.0;"/><polygon fill="#181818" points="282.54,523.2194,291.8355,519.9646,286.1812,519.7928,286.353,514.1386,282.54,523.2194" style="stroke:#181818;stroke-width:1.0;"/></g><!--link HTTP Services to Translations--><g id="link_HTTP Services_Translations"><path d="M336.13,422.5994 C292.26,430.7794 233.48,445.6694 187,471.6094 C163.05,484.9794 144.727,503.0792 130.777,518.9792 " fill="none" id="HTTP Services-to-Translations" style="stroke:#181818;stroke-width:1.0;stroke-dasharray:7.0,7.0;"/><polygon fill="#181818" points="126.82,523.4894,135.7624,519.3621,130.1175,519.7309,129.7488,514.0861,126.82,523.4894" style="stroke:#181818;stroke-width:1.0;"/></g><!--SRC=[lLHDRzim3BthLn3UUSq-3jkfG9OsMu0LBPgqTysYNQ6sA51qYtR8Vw_i9BRJE5qHTDN1aFbeFhudocAbGFYDTrZ0LvYLli0IdMYnvE3QuZryX2cJ4tH6gN1hdTUiI_0wlTKvpkKXViwOYdPvWRi9y5S1_8ZxdAboPa85CNpu_Yt5J6TPZH4Rv7NyKxDYT1ePv_OHuVCNjUnLRPaEghjKIiY34FmX4Ih1sBfWbAhKfj_aWbZWJBluKZi1yuSWMFPiI3gUfWk0vY6KezmWhsFrwhfDPYvZ7OIhL2f6U8ULW0vWQzgwtydfTDphh5uRnPTK2OP1Q1O5SufUY8SJVbQQJGSjLVTybIcnVAPJXB7HFkx3kvYYDsGl-pAXqfEB8p0iVOvyPrCyMFpO-yAcguksgGKZk0gHMOUk_XlezJx4Ol-Gc_nQB2vQrkHGMQTEh5WCemanZawerDRzznCrAvgN1RRJDdoU9ulpOU2C31PXpuYupEOLDwSucB5WxKBHuBkJ4lz7gyi7HuRktT5nV-QwROi-Fw9-IkLZmlewjgEpYcxTuWvZcz_8G5NrBD3IzmpSbzAOk0zS6xa3DxhxHWvbR1dv1000]--></g></svg>