<?xml version="1.0" encoding="us-ascii" standalone="no"?><svg xmlns="http://www.w3.org/2000/svg" xmlns:xlink="http://www.w3.org/1999/xlink" contentStyleType="text/css" height="1251px" preserveAspectRatio="none" style="width:2149px;height:1251px;background:#FFFFFF;" version="1.1" viewBox="0 0 2149 1251" width="2149px" zoomAndPan="magnify"><defs/><g><text fill="#000000" font-family="sans-serif" font-size="14" font-weight="bold" lengthAdjust="spacing" textLength="100" x="1017.5" y="24.5332">Domain Model</text><!--cluster Vessel Aggregate--><g id="cluster_Vessel Aggregate"><path d="M8.5,278.1094 L133.5,278.1094 A3.75,3.75 0 0 1 136,280.6094 L143,301.7188 L385.5,301.7188 A2.5,2.5 0 0 1 388,304.2188 L388,960.6094 A2.5,2.5 0 0 1 385.5,963.1094 L8.5,963.1094 A2.5,2.5 0 0 1 6,960.6094 L6,280.6094 A2.5,2.5 0 0 1 8.5,278.1094 " fill="none" style="stroke:#000000;stroke-width:1.5;"/><line style="stroke:#000000;stroke-width:1.5;" x1="6" x2="143" y1="301.7188" y2="301.7188"/><text fill="#000000" font-family="sans-serif" font-size="14" font-weight="bold" lengthAdjust="spacing" textLength="124" x="10" y="294.6426">Vessel Aggregate</text></g><!--cluster VesselType Aggregate--><g id="cluster_VesselType Aggregate"><path d="M166.5,1028.6094 L324.5,1028.6094 A3.75,3.75 0 0 1 327,1031.1094 L334,1052.2188 L385.5,1052.2188 A2.5,2.5 0 0 1 388,1054.7188 L388,1242.1094 A2.5,2.5 0 0 1 385.5,1244.6094 L166.5,1244.6094 A2.5,2.5 0 0 1 164,1242.1094 L164,1031.1094 A2.5,2.5 0 0 1 166.5,1028.6094 " fill="none" style="stroke:#000000;stroke-width:1.5;"/><line style="stroke:#000000;stroke-width:1.5;" x1="164" x2="334" y1="1052.2188" y2="1052.2188"/><text fill="#000000" font-family="sans-serif" font-size="14" font-weight="bold" lengthAdjust="spacing" textLength="157" x="168" y="1045.1426">VesselType Aggregate</text></g><!--cluster VesselVisitNotification Aggregate--><g id="cluster_VesselVisitNotification Aggregate"><path d="M994.5,518.1094 L1229.5,518.1094 A3.75,3.75 0 0 1 1232,520.6094 L1239,541.7188 L1588.5,541.7188 A2.5,2.5 0 0 1 1591,544.2188 L1591,1207.1094 A2.5,2.5 0 0 1 1588.5,1209.6094 L994.5,1209.6094 A2.5,2.5 0 0 1 992,1207.1094 L992,520.6094 A2.5,2.5 0 0 1 994.5,518.1094 " fill="none" style="stroke:#000000;stroke-width:1.5;"/><line style="stroke:#000000;stroke-width:1.5;" x1="992" x2="1239" y1="541.7188" y2="541.7188"/><text fill="#000000" font-family="sans-serif" font-size="14" font-weight="bold" lengthAdjust="spacing" textLength="234" x="996" y="534.6426">VesselVisitNotification Aggregate</text></g><!--cluster ShippingAgentOrganization Aggregate--><g id="cluster_ShippingAgentOrganization Aggregate"><path d="M682.5,44.6094 L952.5,44.6094 A3.75,3.75 0 0 1 955,47.1094 L962,68.2188 L1082.5,68.2188 A2.5,2.5 0 0 1 1085,70.7188 L1085,448.1094 A2.5,2.5 0 0 1 1082.5,450.6094 L682.5,450.6094 A2.5,2.5 0 0 1 680,448.1094 L680,47.1094 A2.5,2.5 0 0 1 682.5,44.6094 " fill="none" style="stroke:#000000;stroke-width:1.5;"/><line style="stroke:#000000;stroke-width:1.5;" x1="680" x2="962" y1="68.2188" y2="68.2188"/><text fill="#000000" font-family="sans-serif" font-size="14" font-weight="bold" lengthAdjust="spacing" textLength="269" x="684" y="61.1426">ShippingAgentOrganization Aggregate</text></g><!--cluster Port Infrastructure Aggregate--><g id="cluster_Port Infrastructure Aggregate"><path d="M414.5,518.1094 L622.5,518.1094 A3.75,3.75 0 0 1 625,520.6094 L632,541.7188 L732.5,541.7188 A2.5,2.5 0 0 1 735,544.2188 L735,1207.1094 A2.5,2.5 0 0 1 732.5,1209.6094 L414.5,1209.6094 A2.5,2.5 0 0 1 412,1207.1094 L412,520.6094 A2.5,2.5 0 0 1 414.5,518.1094 " fill="none" style="stroke:#000000;stroke-width:1.5;"/><line style="stroke:#000000;stroke-width:1.5;" x1="412" x2="632" y1="541.7188" y2="541.7188"/><text fill="#000000" font-family="sans-serif" font-size="14" font-weight="bold" lengthAdjust="spacing" textLength="207" x="416" y="534.6426">Port Infrastructure Aggregate</text></g><!--cluster Staff Management Aggregate--><g id="cluster_Staff Management Aggregate"><path d="M1617.5,500.6094 L1822.5,500.6094 A3.75,3.75 0 0 1 1825,503.1094 L1832,524.2188 L1832.5,524.2188 A2.5,2.5 0 0 1 1835,526.7188 L1835,929.1094 A2.5,2.5 0 0 1 1832.5,931.6094 L1617.5,931.6094 A2.5,2.5 0 0 1 1615,929.1094 L1615,503.1094 A2.5,2.5 0 0 1 1617.5,500.6094 " fill="none" style="stroke:#000000;stroke-width:1.5;"/><line style="stroke:#000000;stroke-width:1.5;" x1="1615" x2="1832" y1="524.2188" y2="524.2188"/><text fill="#000000" font-family="sans-serif" font-size="14" font-weight="bold" lengthAdjust="spacing" textLength="204" x="1619" y="517.1426">Staff Management Aggregate</text></g><!--cluster Qualification Aggregate--><g id="cluster_Qualification Aggregate"><path d="M1704.5,1054.6094 L1870.5,1054.6094 A3.75,3.75 0 0 1 1873,1057.1094 L1880,1078.2188 L1893.5,1078.2188 A2.5,2.5 0 0 1 1896,1080.7188 L1896,1216.1094 A2.5,2.5 0 0 1 1893.5,1218.6094 L1704.5,1218.6094 A2.5,2.5 0 0 1 1702,1216.1094 L1702,1057.1094 A2.5,2.5 0 0 1 1704.5,1054.6094 " fill="none" style="stroke:#000000;stroke-width:1.5;"/><line style="stroke:#000000;stroke-width:1.5;" x1="1702" x2="1880" y1="1078.2188" y2="1078.2188"/><text fill="#000000" font-family="sans-serif" font-size="14" font-weight="bold" lengthAdjust="spacing" textLength="165" x="1706" y="1071.1426">Qualification Aggregate</text></g><!--cluster Physical Resource Aggregate--><g id="cluster_Physical Resource Aggregate"><path d="M1922.5,764.6094 L2129.5,764.6094 A3.75,3.75 0 0 1 2132,767.1094 L2139,788.2188 L2139.5,788.2188 A2.5,2.5 0 0 1 2142,790.7188 L2142,1193.1094 A2.5,2.5 0 0 1 2139.5,1195.6094 L1922.5,1195.6094 A2.5,2.5 0 0 1 1920,1193.1094 L1920,767.1094 A2.5,2.5 0 0 1 1922.5,764.6094 " fill="none" style="stroke:#000000;stroke-width:1.5;"/><line style="stroke:#000000;stroke-width:1.5;" x1="1920" x2="2139" y1="788.2188" y2="788.2188"/><text fill="#000000" font-family="sans-serif" font-size="14" font-weight="bold" lengthAdjust="spacing" textLength="206" x="1924" y="781.1426">Physical Resource Aggregate</text></g><!--class Vessel--><g id="elem_Vessel"><rect codeLine="4" fill="#F1F1F1" height="93.9219" id="Vessel" rx="2.5" ry="2.5" style="stroke:#181818;stroke-width:0.5;" width="161" x="210.5" y="314.1094"/><ellipse cx="225.5" cy="335.4609" fill="#ADD1B2" rx="11" ry="11" style="stroke:#181818;stroke-width:1.0;"/><path d="M228.2656,331.3359 Q228.4219,331.1172 228.6094,331.0078 Q228.7969,330.8984 229.0156,330.8984 Q229.3906,330.8984 229.625,331.1641 Q229.8594,331.4141 229.8594,332.0234 L229.8594,333.4766 Q229.8594,334.0859 229.625,334.3516 Q229.3906,334.6172 229.0156,334.6172 Q228.6719,334.6172 228.4688,334.4141 Q228.2656,334.2266 228.1563,333.7109 Q228.1094,333.3516 227.9219,333.1641 Q227.5938,332.7891 226.9844,332.5703 Q226.375,332.3516 225.75,332.3516 Q224.9844,332.3516 224.3438,332.6797 Q223.7188,333.0078 223.2188,333.7578 Q222.7344,334.5078 222.7344,335.5391 L222.7344,336.6328 Q222.7344,337.8672 223.625,338.6953 Q224.5156,339.5078 226.1094,339.5078 Q227.0469,339.5078 227.7031,339.2578 Q228.0938,339.1016 228.5156,338.6641 Q228.7813,338.3984 228.9219,338.3203 Q229.0781,338.2422 229.2813,338.2422 Q229.6094,338.2422 229.8594,338.5078 Q230.125,338.7578 230.125,339.1016 Q230.125,339.4453 229.7813,339.8516 Q229.2813,340.4297 228.4844,340.7578 Q227.4063,341.2109 226.1094,341.2109 Q224.5938,341.2109 223.3906,340.5859 Q222.4063,340.0859 221.7188,339.0234 Q221.0313,337.9453 221.0313,336.6641 L221.0313,335.5078 Q221.0313,334.1797 221.6406,333.0391 Q222.2656,331.8828 223.3594,331.2734 Q224.4531,330.6484 225.6875,330.6484 Q226.4219,330.6484 227.0625,330.8203 Q227.7188,330.9766 228.2656,331.3359 Z " fill="#000000"/><text fill="#000000" font-family="sans-serif" font-size="12" font-style="italic" lengthAdjust="spacing" textLength="133" x="237.5" y="331.5664">&#171;Entity, AggregateRoot&#187;</text><text fill="#000000" font-family="sans-serif" font-size="14" lengthAdjust="spacing" textLength="42" x="283" y="348.7363">Vessel</text><line style="stroke:#181818;stroke-width:0.5;" x1="211.5" x2="370.5" y1="356.8125" y2="356.8125"/><text fill="#000000" font-family="sans-serif" font-size="14" lengthAdjust="spacing" textLength="96" x="216.5" y="375.3457">IMOnumber: int</text><text fill="#000000" font-family="sans-serif" font-size="14" lengthAdjust="spacing" textLength="80" x="216.5" y="392.9551">name: String</text><line style="stroke:#181818;stroke-width:0.5;" x1="211.5" x2="370.5" y1="400.0313" y2="400.0313"/></g><!--class Owner--><g id="elem_Owner"><rect codeLine="9" fill="#F1F1F1" height="93.9219" id="Owner" rx="2.5" ry="2.5" style="stroke:#181818;stroke-width:0.5;" width="92" x="22" y="571.6094"/><ellipse cx="45.55" cy="592.9609" fill="#ADD1B2" rx="11" ry="11" style="stroke:#181818;stroke-width:1.0;"/><path d="M48.3156,588.8359 Q48.4719,588.6172 48.6594,588.5078 Q48.8469,588.3984 49.0656,588.3984 Q49.4406,588.3984 49.675,588.6641 Q49.9094,588.9141 49.9094,589.5234 L49.9094,590.9766 Q49.9094,591.5859 49.675,591.8516 Q49.4406,592.1172 49.0656,592.1172 Q48.7219,592.1172 48.5188,591.9141 Q48.3156,591.7266 48.2063,591.2109 Q48.1594,590.8516 47.9719,590.6641 Q47.6438,590.2891 47.0344,590.0703 Q46.425,589.8516 45.8,589.8516 Q45.0344,589.8516 44.3938,590.1797 Q43.7688,590.5078 43.2688,591.2578 Q42.7844,592.0078 42.7844,593.0391 L42.7844,594.1328 Q42.7844,595.3672 43.675,596.1953 Q44.5656,597.0078 46.1594,597.0078 Q47.0969,597.0078 47.7531,596.7578 Q48.1438,596.6016 48.5656,596.1641 Q48.8313,595.8984 48.9719,595.8203 Q49.1281,595.7422 49.3313,595.7422 Q49.6594,595.7422 49.9094,596.0078 Q50.175,596.2578 50.175,596.6016 Q50.175,596.9453 49.8313,597.3516 Q49.3313,597.9297 48.5344,598.2578 Q47.4563,598.7109 46.1594,598.7109 Q44.6438,598.7109 43.4406,598.0859 Q42.4563,597.5859 41.7688,596.5234 Q41.0813,595.4453 41.0813,594.1641 L41.0813,593.0078 Q41.0813,591.6797 41.6906,590.5391 Q42.3156,589.3828 43.4094,588.7734 Q44.5031,588.1484 45.7375,588.1484 Q46.4719,588.1484 47.1125,588.3203 Q47.7688,588.4766 48.3156,588.8359 Z " fill="#000000"/><text fill="#000000" font-family="sans-serif" font-size="12" font-style="italic" lengthAdjust="spacing" textLength="44" x="59.95" y="589.0664">&#171;Entity&#187;</text><text fill="#000000" font-family="sans-serif" font-size="14" lengthAdjust="spacing" textLength="41" x="61.45" y="606.2363">Owner</text><line style="stroke:#181818;stroke-width:0.5;" x1="23" x2="113" y1="614.3125" y2="614.3125"/><text fill="#000000" font-family="sans-serif" font-size="14" lengthAdjust="spacing" textLength="80" x="28" y="632.8457">name: String</text><text fill="#000000" font-family="sans-serif" font-size="14" lengthAdjust="spacing" textLength="36" x="28" y="650.4551">ID: int</text><line style="stroke:#181818;stroke-width:0.5;" x1="23" x2="113" y1="657.5313" y2="657.5313"/></g><!--class Cargo--><g id="elem_Cargo"><rect codeLine="14" fill="#F1F1F1" height="93.9219" id="Cargo" rx="2.5" ry="2.5" style="stroke:#181818;stroke-width:0.5;" width="116" x="149" y="571.6094"/><ellipse cx="165.35" cy="592.9609" fill="#ADD1B2" rx="11" ry="11" style="stroke:#181818;stroke-width:1.0;"/><path d="M168.1156,588.8359 Q168.2719,588.6172 168.4594,588.5078 Q168.6469,588.3984 168.8656,588.3984 Q169.2406,588.3984 169.475,588.6641 Q169.7094,588.9141 169.7094,589.5234 L169.7094,590.9766 Q169.7094,591.5859 169.475,591.8516 Q169.2406,592.1172 168.8656,592.1172 Q168.5219,592.1172 168.3188,591.9141 Q168.1156,591.7266 168.0063,591.2109 Q167.9594,590.8516 167.7719,590.6641 Q167.4438,590.2891 166.8344,590.0703 Q166.225,589.8516 165.6,589.8516 Q164.8344,589.8516 164.1938,590.1797 Q163.5688,590.5078 163.0688,591.2578 Q162.5844,592.0078 162.5844,593.0391 L162.5844,594.1328 Q162.5844,595.3672 163.475,596.1953 Q164.3656,597.0078 165.9594,597.0078 Q166.8969,597.0078 167.5531,596.7578 Q167.9438,596.6016 168.3656,596.1641 Q168.6313,595.8984 168.7719,595.8203 Q168.9281,595.7422 169.1313,595.7422 Q169.4594,595.7422 169.7094,596.0078 Q169.975,596.2578 169.975,596.6016 Q169.975,596.9453 169.6313,597.3516 Q169.1313,597.9297 168.3344,598.2578 Q167.2563,598.7109 165.9594,598.7109 Q164.4438,598.7109 163.2406,598.0859 Q162.2563,597.5859 161.5688,596.5234 Q160.8813,595.4453 160.8813,594.1641 L160.8813,593.0078 Q160.8813,591.6797 161.4906,590.5391 Q162.1156,589.3828 163.2094,588.7734 Q164.3031,588.1484 165.5375,588.1484 Q166.2719,588.1484 166.9125,588.3203 Q167.5688,588.4766 168.1156,588.8359 Z " fill="#000000"/><text fill="#000000" font-family="sans-serif" font-size="12" font-style="italic" lengthAdjust="spacing" textLength="85" x="177.65" y="589.0664">&#171;Value Object&#187;</text><text fill="#000000" font-family="sans-serif" font-size="14" lengthAdjust="spacing" textLength="39" x="200.65" y="606.2363">Cargo</text><line style="stroke:#181818;stroke-width:0.5;" x1="150" x2="264" y1="614.3125" y2="614.3125"/><text fill="#000000" font-family="sans-serif" font-size="14" lengthAdjust="spacing" textLength="77" x="155" y="632.8457">Type: String</text><text fill="#000000" font-family="sans-serif" font-size="14" lengthAdjust="spacing" textLength="104" x="155" y="650.4551">Quantity: double</text><line style="stroke:#181818;stroke-width:0.5;" x1="150" x2="264" y1="657.5313" y2="657.5313"/></g><!--class Crew--><g id="elem_Crew"><rect codeLine="19" fill="#F1F1F1" height="76.3125" id="Crew" rx="2.5" ry="2.5" style="stroke:#181818;stroke-width:0.5;" width="72" x="300" y="580.6094"/><ellipse cx="315" cy="601.9609" fill="#ADD1B2" rx="11" ry="11" style="stroke:#181818;stroke-width:1.0;"/><path d="M317.7656,597.8359 Q317.9219,597.6172 318.1094,597.5078 Q318.2969,597.3984 318.5156,597.3984 Q318.8906,597.3984 319.125,597.6641 Q319.3594,597.9141 319.3594,598.5234 L319.3594,599.9766 Q319.3594,600.5859 319.125,600.8516 Q318.8906,601.1172 318.5156,601.1172 Q318.1719,601.1172 317.9688,600.9141 Q317.7656,600.7266 317.6563,600.2109 Q317.6094,599.8516 317.4219,599.6641 Q317.0938,599.2891 316.4844,599.0703 Q315.875,598.8516 315.25,598.8516 Q314.4844,598.8516 313.8438,599.1797 Q313.2188,599.5078 312.7188,600.2578 Q312.2344,601.0078 312.2344,602.0391 L312.2344,603.1328 Q312.2344,604.3672 313.125,605.1953 Q314.0156,606.0078 315.6094,606.0078 Q316.5469,606.0078 317.2031,605.7578 Q317.5938,605.6016 318.0156,605.1641 Q318.2813,604.8984 318.4219,604.8203 Q318.5781,604.7422 318.7813,604.7422 Q319.1094,604.7422 319.3594,605.0078 Q319.625,605.2578 319.625,605.6016 Q319.625,605.9453 319.2813,606.3516 Q318.7813,606.9297 317.9844,607.2578 Q316.9063,607.7109 315.6094,607.7109 Q314.0938,607.7109 312.8906,607.0859 Q311.9063,606.5859 311.2188,605.5234 Q310.5313,604.4453 310.5313,603.1641 L310.5313,602.0078 Q310.5313,600.6797 311.1406,599.5391 Q311.7656,598.3828 312.8594,597.7734 Q313.9531,597.1484 315.1875,597.1484 Q315.9219,597.1484 316.5625,597.3203 Q317.2188,597.4766 317.7656,597.8359 Z " fill="#000000"/><text fill="#000000" font-family="sans-serif" font-size="12" font-style="italic" lengthAdjust="spacing" textLength="44" x="327" y="598.0664">&#171;Entity&#187;</text><text fill="#000000" font-family="sans-serif" font-size="14" lengthAdjust="spacing" textLength="32" x="333" y="615.2363">Crew</text><line style="stroke:#181818;stroke-width:0.5;" x1="301" x2="371" y1="623.3125" y2="623.3125"/><text fill="#000000" font-family="sans-serif" font-size="14" lengthAdjust="spacing" textLength="36" x="306" y="641.8457">ID: int</text><line style="stroke:#181818;stroke-width:0.5;" x1="301" x2="371" y1="648.9219" y2="648.9219"/></g><!--class CrewMember--><g id="elem_CrewMember"><rect codeLine="23" fill="#F1F1F1" height="129.1406" id="CrewMember" rx="2.5" ry="2.5" style="stroke:#181818;stroke-width:0.5;" width="129" x="192.5" y="818.1094"/><ellipse cx="213.8" cy="839.4609" fill="#ADD1B2" rx="11" ry="11" style="stroke:#181818;stroke-width:1.0;"/><path d="M216.5656,835.3359 Q216.7219,835.1172 216.9094,835.0078 Q217.0969,834.8984 217.3156,834.8984 Q217.6906,834.8984 217.925,835.1641 Q218.1594,835.4141 218.1594,836.0234 L218.1594,837.4766 Q218.1594,838.0859 217.925,838.3516 Q217.6906,838.6172 217.3156,838.6172 Q216.9719,838.6172 216.7688,838.4141 Q216.5656,838.2266 216.4563,837.7109 Q216.4094,837.3516 216.2219,837.1641 Q215.8938,836.7891 215.2844,836.5703 Q214.675,836.3516 214.05,836.3516 Q213.2844,836.3516 212.6438,836.6797 Q212.0188,837.0078 211.5188,837.7578 Q211.0344,838.5078 211.0344,839.5391 L211.0344,840.6328 Q211.0344,841.8672 211.925,842.6953 Q212.8156,843.5078 214.4094,843.5078 Q215.3469,843.5078 216.0031,843.2578 Q216.3938,843.1016 216.8156,842.6641 Q217.0813,842.3984 217.2219,842.3203 Q217.3781,842.2422 217.5813,842.2422 Q217.9094,842.2422 218.1594,842.5078 Q218.425,842.7578 218.425,843.1016 Q218.425,843.4453 218.0813,843.8516 Q217.5813,844.4297 216.7844,844.7578 Q215.7063,845.2109 214.4094,845.2109 Q212.8938,845.2109 211.6906,844.5859 Q210.7063,844.0859 210.0188,843.0234 Q209.3313,841.9453 209.3313,840.6641 L209.3313,839.5078 Q209.3313,838.1797 209.9406,837.0391 Q210.5656,835.8828 211.6594,835.2734 Q212.7531,834.6484 213.9875,834.6484 Q214.7219,834.6484 215.3625,834.8203 Q216.0188,834.9766 216.5656,835.3359 Z " fill="#000000"/><text fill="#000000" font-family="sans-serif" font-size="12" font-style="italic" lengthAdjust="spacing" textLength="44" x="248.7" y="835.5664">&#171;Entity&#187;</text><text fill="#000000" font-family="sans-serif" font-size="14" lengthAdjust="spacing" textLength="83" x="229.2" y="852.7363">CrewMember</text><line style="stroke:#181818;stroke-width:0.5;" x1="193.5" x2="320.5" y1="860.8125" y2="860.8125"/><text fill="#000000" font-family="sans-serif" font-size="14" lengthAdjust="spacing" textLength="36" x="198.5" y="879.3457">ID: int</text><text fill="#000000" font-family="sans-serif" font-size="14" lengthAdjust="spacing" textLength="80" x="198.5" y="896.9551">name: String</text><text fill="#000000" font-family="sans-serif" font-size="14" lengthAdjust="spacing" textLength="109" x="198.5" y="914.5645">nationality: String</text><text fill="#000000" font-family="sans-serif" font-size="14" lengthAdjust="spacing" textLength="117" x="198.5" y="932.1738">dateOfBirth: String</text><line style="stroke:#181818;stroke-width:0.5;" x1="193.5" x2="320.5" y1="939.25" y2="939.25"/></g><!--class VesselType--><g id="elem_VesselType"><rect codeLine="32" fill="#F1F1F1" height="164.3594" id="VesselType" rx="2.5" ry="2.5" style="stroke:#181818;stroke-width:0.5;" width="191" x="180.5" y="1064.6094"/><ellipse cx="234.75" cy="1085.9609" fill="#ADD1B2" rx="11" ry="11" style="stroke:#181818;stroke-width:1.0;"/><path d="M237.5156,1081.8359 Q237.6719,1081.6172 237.8594,1081.5078 Q238.0469,1081.3984 238.2656,1081.3984 Q238.6406,1081.3984 238.875,1081.6641 Q239.1094,1081.9141 239.1094,1082.5234 L239.1094,1083.9766 Q239.1094,1084.5859 238.875,1084.8516 Q238.6406,1085.1172 238.2656,1085.1172 Q237.9219,1085.1172 237.7188,1084.9141 Q237.5156,1084.7266 237.4063,1084.2109 Q237.3594,1083.8516 237.1719,1083.6641 Q236.8438,1083.2891 236.2344,1083.0703 Q235.625,1082.8516 235,1082.8516 Q234.2344,1082.8516 233.5938,1083.1797 Q232.9688,1083.5078 232.4688,1084.2578 Q231.9844,1085.0078 231.9844,1086.0391 L231.9844,1087.1328 Q231.9844,1088.3672 232.875,1089.1953 Q233.7656,1090.0078 235.3594,1090.0078 Q236.2969,1090.0078 236.9531,1089.7578 Q237.3438,1089.6016 237.7656,1089.1641 Q238.0313,1088.8984 238.1719,1088.8203 Q238.3281,1088.7422 238.5313,1088.7422 Q238.8594,1088.7422 239.1094,1089.0078 Q239.375,1089.2578 239.375,1089.6016 Q239.375,1089.9453 239.0313,1090.3516 Q238.5313,1090.9297 237.7344,1091.2578 Q236.6563,1091.7109 235.3594,1091.7109 Q233.8438,1091.7109 232.6406,1091.0859 Q231.6563,1090.5859 230.9688,1089.5234 Q230.2813,1088.4453 230.2813,1087.1641 L230.2813,1086.0078 Q230.2813,1084.6797 230.8906,1083.5391 Q231.5156,1082.3828 232.6094,1081.7734 Q233.7031,1081.1484 234.9375,1081.1484 Q235.6719,1081.1484 236.3125,1081.3203 Q236.9688,1081.4766 237.5156,1081.8359 Z " fill="#000000"/><text fill="#000000" font-family="sans-serif" font-size="12" font-style="italic" lengthAdjust="spacing" textLength="44" x="270.25" y="1082.0664">&#171;Entity&#187;</text><text fill="#000000" font-family="sans-serif" font-size="14" lengthAdjust="spacing" textLength="74" x="255.25" y="1099.2363">VesselType</text><line style="stroke:#181818;stroke-width:0.5;" x1="181.5" x2="370.5" y1="1107.3125" y2="1107.3125"/><text fill="#000000" font-family="sans-serif" font-size="14" lengthAdjust="spacing" textLength="80" x="186.5" y="1125.8457">name: String</text><text fill="#000000" font-family="sans-serif" font-size="14" lengthAdjust="spacing" textLength="114" x="186.5" y="1143.4551">description: String</text><text fill="#000000" font-family="sans-serif" font-size="14" lengthAdjust="spacing" textLength="103" x="186.5" y="1161.0645">capacity: double</text><text fill="#000000" font-family="sans-serif" font-size="14" lengthAdjust="spacing" textLength="179" x="186.5" y="1178.6738">maximumNumberOfRows: int</text><text fill="#000000" font-family="sans-serif" font-size="14" lengthAdjust="spacing" textLength="53" x="186.5" y="1196.2832">bays: int</text><text fill="#000000" font-family="sans-serif" font-size="14" lengthAdjust="spacing" textLength="50" x="186.5" y="1213.8926">tiers: int</text><line style="stroke:#181818;stroke-width:0.5;" x1="181.5" x2="370.5" y1="1220.9688" y2="1220.9688"/></g><!--class VesselVisitNotification--><g id="elem_VesselVisitNotification"><rect codeLine="43" fill="#F1F1F1" height="129.1406" id="VesselVisitNotification" rx="2.5" ry="2.5" style="stroke:#181818;stroke-width:0.5;" width="262" x="1008" y="554.1094"/><ellipse cx="1066.25" cy="575.4609" fill="#ADD1B2" rx="11" ry="11" style="stroke:#181818;stroke-width:1.0;"/><path d="M1069.0156,571.3359 Q1069.1719,571.1172 1069.3594,571.0078 Q1069.5469,570.8984 1069.7656,570.8984 Q1070.1406,570.8984 1070.375,571.1641 Q1070.6094,571.4141 1070.6094,572.0234 L1070.6094,573.4766 Q1070.6094,574.0859 1070.375,574.3516 Q1070.1406,574.6172 1069.7656,574.6172 Q1069.4219,574.6172 1069.2188,574.4141 Q1069.0156,574.2266 1068.9063,573.7109 Q1068.8594,573.3516 1068.6719,573.1641 Q1068.3438,572.7891 1067.7344,572.5703 Q1067.125,572.3516 1066.5,572.3516 Q1065.7344,572.3516 1065.0938,572.6797 Q1064.4688,573.0078 1063.9688,573.7578 Q1063.4844,574.5078 1063.4844,575.5391 L1063.4844,576.6328 Q1063.4844,577.8672 1064.375,578.6953 Q1065.2656,579.5078 1066.8594,579.5078 Q1067.7969,579.5078 1068.4531,579.2578 Q1068.8438,579.1016 1069.2656,578.6641 Q1069.5313,578.3984 1069.6719,578.3203 Q1069.8281,578.2422 1070.0313,578.2422 Q1070.3594,578.2422 1070.6094,578.5078 Q1070.875,578.7578 1070.875,579.1016 Q1070.875,579.4453 1070.5313,579.8516 Q1070.0313,580.4297 1069.2344,580.7578 Q1068.1563,581.2109 1066.8594,581.2109 Q1065.3438,581.2109 1064.1406,580.5859 Q1063.1563,580.0859 1062.4688,579.0234 Q1061.7813,577.9453 1061.7813,576.6641 L1061.7813,575.5078 Q1061.7813,574.1797 1062.3906,573.0391 Q1063.0156,571.8828 1064.1094,571.2734 Q1065.2031,570.6484 1066.4375,570.6484 Q1067.1719,570.6484 1067.8125,570.8203 Q1068.4688,570.9766 1069.0156,571.3359 Z " fill="#000000"/><text fill="#000000" font-family="sans-serif" font-size="12" font-style="italic" lengthAdjust="spacing" textLength="133" x="1088.75" y="571.5664">&#171;Entity, AggregateRoot&#187;</text><text fill="#000000" font-family="sans-serif" font-size="14" lengthAdjust="spacing" textLength="137" x="1086.75" y="588.7363">VesselVisitNotification</text><line style="stroke:#181818;stroke-width:0.5;" x1="1009" x2="1269" y1="596.8125" y2="596.8125"/><text fill="#000000" font-family="sans-serif" font-size="14" lengthAdjust="spacing" textLength="36" x="1014" y="615.3457">ID: int</text><text fill="#000000" font-family="sans-serif" font-size="14" lengthAdjust="spacing" textLength="250" x="1014" y="632.9551">rejectionReason: String? #pode ser null</text><text fill="#000000" font-family="sans-serif" font-size="14" lengthAdjust="spacing" textLength="168" x="1014" y="650.5645">decisionTimeStamp: String</text><text fill="#000000" font-family="sans-serif" font-size="14" lengthAdjust="spacing" textLength="154" x="1014" y="668.1738">decisionOutcome: String</text><line style="stroke:#181818;stroke-width:0.5;" x1="1009" x2="1269" y1="675.25" y2="675.25"/></g><!--class NotificationState--><g id="elem_NotificationState"><rect codeLine="50" fill="#F1F1F1" height="65.6094" id="NotificationState" rx="2.5" ry="2.5" style="stroke:#181818;stroke-width:0.5;" width="134" x="1008" y="849.6094"/><ellipse cx="1023" cy="865.6094" fill="#EB937F" rx="11" ry="11" style="stroke:#181818;stroke-width:1.0;"/><path d="M1021.8594,866.4063 L1021.8594,868.9063 L1026.1875,868.9063 L1026.1875,867.9844 Q1026.1875,867.375 1026.4219,867.1094 Q1026.6719,866.8438 1027.0469,866.8438 Q1027.4219,866.8438 1027.6563,867.1094 Q1027.8906,867.375 1027.8906,867.9844 L1027.8906,870.6094 L1019.8906,870.6094 Q1019.2656,870.6094 1019,870.375 Q1018.75,870.1406 1018.75,869.75 Q1018.75,869.375 1019.0156,869.1406 Q1019.2813,868.9063 1019.8906,868.9063 L1020.1563,868.9063 L1020.1563,862.25 L1019.8906,862.25 Q1019.2656,862.25 1019,862.0156 Q1018.75,861.7813 1018.75,861.3906 Q1018.75,861.0156 1019,860.7813 Q1019.2656,860.5469 1019.8906,860.5469 L1027.5156,860.5469 L1027.5156,863.1406 Q1027.5156,863.75 1027.2813,864.0156 Q1027.0625,864.2656 1026.6719,864.2656 Q1026.2969,864.2656 1026.0625,864.0156 Q1025.8281,863.75 1025.8281,863.1406 L1025.8281,862.25 L1021.8594,862.25 L1021.8594,864.7031 L1023.3438,864.7031 Q1023.3438,864.0469 1023.4688,863.8594 Q1023.7344,863.4531 1024.2031,863.4531 Q1024.5781,863.4531 1024.8125,863.7188 Q1025.0469,863.9688 1025.0469,864.5781 L1025.0469,866.5469 Q1025.0469,867.0938 1024.9219,867.2813 Q1024.6563,867.6719 1024.2031,867.6719 Q1023.7344,867.6719 1023.4688,867.2656 Q1023.3438,867.0781 1023.3438,866.4063 L1021.8594,866.4063 Z " fill="#000000"/><text fill="#000000" font-family="sans-serif" font-size="14" lengthAdjust="spacing" textLength="102" x="1037" y="871.3379">NotificationState</text><line style="stroke:#181818;stroke-width:0.5;" x1="1009" x2="1141" y1="881.6094" y2="881.6094"/><text fill="#000000" font-family="sans-serif" font-size="14" lengthAdjust="spacing" textLength="80" x="1014" y="900.1426">name: String</text><line style="stroke:#181818;stroke-width:0.5;" x1="1009" x2="1141" y1="907.2188" y2="907.2188"/></g><!--class ManifestCargo--><g id="elem_ManifestCargo"><rect codeLine="54" fill="#F1F1F1" height="93.9219" id="ManifestCargo" rx="2.5" ry="2.5" style="stroke:#181818;stroke-width:0.5;" width="124" x="1272" y="1099.6094"/><ellipse cx="1287" cy="1120.9609" fill="#ADD1B2" rx="11" ry="11" style="stroke:#181818;stroke-width:1.0;"/><path d="M1289.7656,1116.8359 Q1289.9219,1116.6172 1290.1094,1116.5078 Q1290.2969,1116.3984 1290.5156,1116.3984 Q1290.8906,1116.3984 1291.125,1116.6641 Q1291.3594,1116.9141 1291.3594,1117.5234 L1291.3594,1118.9766 Q1291.3594,1119.5859 1291.125,1119.8516 Q1290.8906,1120.1172 1290.5156,1120.1172 Q1290.1719,1120.1172 1289.9688,1119.9141 Q1289.7656,1119.7266 1289.6563,1119.2109 Q1289.6094,1118.8516 1289.4219,1118.6641 Q1289.0938,1118.2891 1288.4844,1118.0703 Q1287.875,1117.8516 1287.25,1117.8516 Q1286.4844,1117.8516 1285.8438,1118.1797 Q1285.2188,1118.5078 1284.7188,1119.2578 Q1284.2344,1120.0078 1284.2344,1121.0391 L1284.2344,1122.1328 Q1284.2344,1123.3672 1285.125,1124.1953 Q1286.0156,1125.0078 1287.6094,1125.0078 Q1288.5469,1125.0078 1289.2031,1124.7578 Q1289.5938,1124.6016 1290.0156,1124.1641 Q1290.2813,1123.8984 1290.4219,1123.8203 Q1290.5781,1123.7422 1290.7813,1123.7422 Q1291.1094,1123.7422 1291.3594,1124.0078 Q1291.625,1124.2578 1291.625,1124.6016 Q1291.625,1124.9453 1291.2813,1125.3516 Q1290.7813,1125.9297 1289.9844,1126.2578 Q1288.9063,1126.7109 1287.6094,1126.7109 Q1286.0938,1126.7109 1284.8906,1126.0859 Q1283.9063,1125.5859 1283.2188,1124.5234 Q1282.5313,1123.4453 1282.5313,1122.1641 L1282.5313,1121.0078 Q1282.5313,1119.6797 1283.1406,1118.5391 Q1283.7656,1117.3828 1284.8594,1116.7734 Q1285.9531,1116.1484 1287.1875,1116.1484 Q1287.9219,1116.1484 1288.5625,1116.3203 Q1289.2188,1116.4766 1289.7656,1116.8359 Z " fill="#000000"/><text fill="#000000" font-family="sans-serif" font-size="12" font-style="italic" lengthAdjust="spacing" textLength="85" x="1304.5" y="1117.0664">&#171;Value Object&#187;</text><text fill="#000000" font-family="sans-serif" font-size="14" lengthAdjust="spacing" textLength="92" x="1301" y="1134.2363">ManifestCargo</text><line style="stroke:#181818;stroke-width:0.5;" x1="1273" x2="1395" y1="1142.3125" y2="1142.3125"/><text fill="#000000" font-family="sans-serif" font-size="14" lengthAdjust="spacing" textLength="72" x="1278" y="1160.8457">type: String</text><text fill="#000000" font-family="sans-serif" font-size="14" lengthAdjust="spacing" textLength="101" x="1278" y="1178.4551">quantity: double</text><line style="stroke:#181818;stroke-width:0.5;" x1="1273" x2="1395" y1="1185.5313" y2="1185.5313"/></g><!--class LoadingCargoManifest--><g id="elem_LoadingCargoManifest"><rect codeLine="59" fill="#F1F1F1" height="58.7031" id="LoadingCargoManifest" rx="2.5" ry="2.5" style="stroke:#181818;stroke-width:0.5;" width="175" x="1177.5" y="853.1094"/><ellipse cx="1192.5" cy="874.4609" fill="#ADD1B2" rx="11" ry="11" style="stroke:#181818;stroke-width:1.0;"/><path d="M1195.2656,870.3359 Q1195.4219,870.1172 1195.6094,870.0078 Q1195.7969,869.8984 1196.0156,869.8984 Q1196.3906,869.8984 1196.625,870.1641 Q1196.8594,870.4141 1196.8594,871.0234 L1196.8594,872.4766 Q1196.8594,873.0859 1196.625,873.3516 Q1196.3906,873.6172 1196.0156,873.6172 Q1195.6719,873.6172 1195.4688,873.4141 Q1195.2656,873.2266 1195.1563,872.7109 Q1195.1094,872.3516 1194.9219,872.1641 Q1194.5938,871.7891 1193.9844,871.5703 Q1193.375,871.3516 1192.75,871.3516 Q1191.9844,871.3516 1191.3438,871.6797 Q1190.7188,872.0078 1190.2188,872.7578 Q1189.7344,873.5078 1189.7344,874.5391 L1189.7344,875.6328 Q1189.7344,876.8672 1190.625,877.6953 Q1191.5156,878.5078 1193.1094,878.5078 Q1194.0469,878.5078 1194.7031,878.2578 Q1195.0938,878.1016 1195.5156,877.6641 Q1195.7813,877.3984 1195.9219,877.3203 Q1196.0781,877.2422 1196.2813,877.2422 Q1196.6094,877.2422 1196.8594,877.5078 Q1197.125,877.7578 1197.125,878.1016 Q1197.125,878.4453 1196.7813,878.8516 Q1196.2813,879.4297 1195.4844,879.7578 Q1194.4063,880.2109 1193.1094,880.2109 Q1191.5938,880.2109 1190.3906,879.5859 Q1189.4063,879.0859 1188.7188,878.0234 Q1188.0313,876.9453 1188.0313,875.6641 L1188.0313,874.5078 Q1188.0313,873.1797 1188.6406,872.0391 Q1189.2656,870.8828 1190.3594,870.2734 Q1191.4531,869.6484 1192.6875,869.6484 Q1193.4219,869.6484 1194.0625,869.8203 Q1194.7188,869.9766 1195.2656,870.3359 Z " fill="#000000"/><text fill="#000000" font-family="sans-serif" font-size="12" font-style="italic" lengthAdjust="spacing" textLength="85" x="1235.5" y="870.5664">&#171;Value Object&#187;</text><text fill="#000000" font-family="sans-serif" font-size="14" lengthAdjust="spacing" textLength="143" x="1206.5" y="887.7363">LoadingCargoManifest</text><line style="stroke:#181818;stroke-width:0.5;" x1="1178.5" x2="1351.5" y1="895.8125" y2="895.8125"/><line style="stroke:#181818;stroke-width:0.5;" x1="1178.5" x2="1351.5" y1="903.8125" y2="903.8125"/></g><!--class UnloadingCargoManifest--><g id="elem_UnloadingCargoManifest"><rect codeLine="63" fill="#F1F1F1" height="58.7031" id="UnloadingCargoManifest" rx="2.5" ry="2.5" style="stroke:#181818;stroke-width:0.5;" width="187" x="1387.5" y="853.1094"/><ellipse cx="1402.5" cy="874.4609" fill="#ADD1B2" rx="11" ry="11" style="stroke:#181818;stroke-width:1.0;"/><path d="M1405.2656,870.3359 Q1405.4219,870.1172 1405.6094,870.0078 Q1405.7969,869.8984 1406.0156,869.8984 Q1406.3906,869.8984 1406.625,870.1641 Q1406.8594,870.4141 1406.8594,871.0234 L1406.8594,872.4766 Q1406.8594,873.0859 1406.625,873.3516 Q1406.3906,873.6172 1406.0156,873.6172 Q1405.6719,873.6172 1405.4688,873.4141 Q1405.2656,873.2266 1405.1563,872.7109 Q1405.1094,872.3516 1404.9219,872.1641 Q1404.5938,871.7891 1403.9844,871.5703 Q1403.375,871.3516 1402.75,871.3516 Q1401.9844,871.3516 1401.3438,871.6797 Q1400.7188,872.0078 1400.2188,872.7578 Q1399.7344,873.5078 1399.7344,874.5391 L1399.7344,875.6328 Q1399.7344,876.8672 1400.625,877.6953 Q1401.5156,878.5078 1403.1094,878.5078 Q1404.0469,878.5078 1404.7031,878.2578 Q1405.0938,878.1016 1405.5156,877.6641 Q1405.7813,877.3984 1405.9219,877.3203 Q1406.0781,877.2422 1406.2813,877.2422 Q1406.6094,877.2422 1406.8594,877.5078 Q1407.125,877.7578 1407.125,878.1016 Q1407.125,878.4453 1406.7813,878.8516 Q1406.2813,879.4297 1405.4844,879.7578 Q1404.4063,880.2109 1403.1094,880.2109 Q1401.5938,880.2109 1400.3906,879.5859 Q1399.4063,879.0859 1398.7188,878.0234 Q1398.0313,876.9453 1398.0313,875.6641 L1398.0313,874.5078 Q1398.0313,873.1797 1398.6406,872.0391 Q1399.2656,870.8828 1400.3594,870.2734 Q1401.4531,869.6484 1402.6875,869.6484 Q1403.4219,869.6484 1404.0625,869.8203 Q1404.7188,869.9766 1405.2656,870.3359 Z " fill="#000000"/><text fill="#000000" font-family="sans-serif" font-size="12" font-style="italic" lengthAdjust="spacing" textLength="85" x="1451.5" y="870.5664">&#171;Value Object&#187;</text><text fill="#000000" font-family="sans-serif" font-size="14" lengthAdjust="spacing" textLength="155" x="1416.5" y="887.7363">UnloadingCargoManifest</text><line style="stroke:#181818;stroke-width:0.5;" x1="1388.5" x2="1573.5" y1="895.8125" y2="895.8125"/><line style="stroke:#181818;stroke-width:0.5;" x1="1388.5" x2="1573.5" y1="903.8125" y2="903.8125"/></g><!--class ShippingAgentOrganization--><g id="elem_ShippingAgentOrganization"><rect codeLine="69" fill="#F1F1F1" height="129.1406" id="ShippingAgentOrganization" rx="2.5" ry="2.5" style="stroke:#181818;stroke-width:0.5;" width="204" x="696" y="80.6094"/><ellipse cx="711" cy="101.9609" fill="#ADD1B2" rx="11" ry="11" style="stroke:#181818;stroke-width:1.0;"/><path d="M713.7656,97.8359 Q713.9219,97.6172 714.1094,97.5078 Q714.2969,97.3984 714.5156,97.3984 Q714.8906,97.3984 715.125,97.6641 Q715.3594,97.9141 715.3594,98.5234 L715.3594,99.9766 Q715.3594,100.5859 715.125,100.8516 Q714.8906,101.1172 714.5156,101.1172 Q714.1719,101.1172 713.9688,100.9141 Q713.7656,100.7266 713.6563,100.2109 Q713.6094,99.8516 713.4219,99.6641 Q713.0938,99.2891 712.4844,99.0703 Q711.875,98.8516 711.25,98.8516 Q710.4844,98.8516 709.8438,99.1797 Q709.2188,99.5078 708.7188,100.2578 Q708.2344,101.0078 708.2344,102.0391 L708.2344,103.1328 Q708.2344,104.3672 709.125,105.1953 Q710.0156,106.0078 711.6094,106.0078 Q712.5469,106.0078 713.2031,105.7578 Q713.5938,105.6016 714.0156,105.1641 Q714.2813,104.8984 714.4219,104.8203 Q714.5781,104.7422 714.7813,104.7422 Q715.1094,104.7422 715.3594,105.0078 Q715.625,105.2578 715.625,105.6016 Q715.625,105.9453 715.2813,106.3516 Q714.7813,106.9297 713.9844,107.2578 Q712.9063,107.7109 711.6094,107.7109 Q710.0938,107.7109 708.8906,107.0859 Q707.9063,106.5859 707.2188,105.5234 Q706.5313,104.4453 706.5313,103.1641 L706.5313,102.0078 Q706.5313,100.6797 707.1406,99.5391 Q707.7656,98.3828 708.8594,97.7734 Q709.9531,97.1484 711.1875,97.1484 Q711.9219,97.1484 712.5625,97.3203 Q713.2188,97.4766 713.7656,97.8359 Z " fill="#000000"/><text fill="#000000" font-family="sans-serif" font-size="12" font-style="italic" lengthAdjust="spacing" textLength="133" x="744.5" y="98.0664">&#171;Entity, AggregateRoot&#187;</text><text fill="#000000" font-family="sans-serif" font-size="14" lengthAdjust="spacing" textLength="172" x="725" y="115.2363">ShippingAgentOrganization</text><line style="stroke:#181818;stroke-width:0.5;" x1="697" x2="899" y1="123.3125" y2="123.3125"/><text fill="#000000" font-family="sans-serif" font-size="14" lengthAdjust="spacing" textLength="36" x="702" y="141.8457">ID: int</text><text fill="#000000" font-family="sans-serif" font-size="14" lengthAdjust="spacing" textLength="111" x="702" y="159.4551">legalName: String</text><text fill="#000000" font-family="sans-serif" font-size="14" lengthAdjust="spacing" textLength="96" x="702" y="177.0645">altName: String</text><text fill="#000000" font-family="sans-serif" font-size="14" lengthAdjust="spacing" textLength="90" x="702" y="194.6738">taxNumber: int</text><line style="stroke:#181818;stroke-width:0.5;" x1="697" x2="899" y1="201.75" y2="201.75"/></g><!--class Address--><g id="elem_Address"><rect codeLine="76" fill="#F1F1F1" height="129.1406" id="Address" rx="2.5" ry="2.5" style="stroke:#181818;stroke-width:0.5;" width="129" x="696.5" y="296.6094"/><ellipse cx="720.05" cy="317.9609" fill="#ADD1B2" rx="11" ry="11" style="stroke:#181818;stroke-width:1.0;"/><path d="M722.8156,313.8359 Q722.9719,313.6172 723.1594,313.5078 Q723.3469,313.3984 723.5656,313.3984 Q723.9406,313.3984 724.175,313.6641 Q724.4094,313.9141 724.4094,314.5234 L724.4094,315.9766 Q724.4094,316.5859 724.175,316.8516 Q723.9406,317.1172 723.5656,317.1172 Q723.2219,317.1172 723.0188,316.9141 Q722.8156,316.7266 722.7063,316.2109 Q722.6594,315.8516 722.4719,315.6641 Q722.1438,315.2891 721.5344,315.0703 Q720.925,314.8516 720.3,314.8516 Q719.5344,314.8516 718.8938,315.1797 Q718.2688,315.5078 717.7688,316.2578 Q717.2844,317.0078 717.2844,318.0391 L717.2844,319.1328 Q717.2844,320.3672 718.175,321.1953 Q719.0656,322.0078 720.6594,322.0078 Q721.5969,322.0078 722.2531,321.7578 Q722.6438,321.6016 723.0656,321.1641 Q723.3313,320.8984 723.4719,320.8203 Q723.6281,320.7422 723.8313,320.7422 Q724.1594,320.7422 724.4094,321.0078 Q724.675,321.2578 724.675,321.6016 Q724.675,321.9453 724.3313,322.3516 Q723.8313,322.9297 723.0344,323.2578 Q721.9563,323.7109 720.6594,323.7109 Q719.1438,323.7109 717.9406,323.0859 Q716.9563,322.5859 716.2688,321.5234 Q715.5813,320.4453 715.5813,319.1641 L715.5813,318.0078 Q715.5813,316.6797 716.1906,315.5391 Q716.8156,314.3828 717.9094,313.7734 Q719.0031,313.1484 720.2375,313.1484 Q720.9719,313.1484 721.6125,313.3203 Q722.2688,313.4766 722.8156,313.8359 Z " fill="#000000"/><text fill="#000000" font-family="sans-serif" font-size="12" font-style="italic" lengthAdjust="spacing" textLength="82" x="733.95" y="314.0664">&#171;ValueObject&#187;</text><text fill="#000000" font-family="sans-serif" font-size="14" lengthAdjust="spacing" textLength="52" x="748.95" y="331.2363">Address</text><line style="stroke:#181818;stroke-width:0.5;" x1="697.5" x2="824.5" y1="339.3125" y2="339.3125"/><text fill="#000000" font-family="sans-serif" font-size="14" lengthAdjust="spacing" textLength="81" x="702.5" y="357.8457">street: String</text><text fill="#000000" font-family="sans-serif" font-size="14" lengthAdjust="spacing" textLength="66" x="702.5" y="375.4551">city: String</text><text fill="#000000" font-family="sans-serif" font-size="14" lengthAdjust="spacing" textLength="117" x="702.5" y="393.0645">postalCode: String</text><text fill="#000000" font-family="sans-serif" font-size="14" lengthAdjust="spacing" textLength="92" x="702.5" y="410.6738">country: String</text><line style="stroke:#181818;stroke-width:0.5;" x1="697.5" x2="824.5" y1="417.75" y2="417.75"/></g><!--class OrganizationRepresentative--><g id="elem_OrganizationRepresentative"><rect codeLine="83" fill="#F1F1F1" height="146.75" id="OrganizationRepresentative" rx="2.5" ry="2.5" style="stroke:#181818;stroke-width:0.5;" width="208" x="861" y="287.6094"/><ellipse cx="876" cy="308.9609" fill="#ADD1B2" rx="11" ry="11" style="stroke:#181818;stroke-width:1.0;"/><path d="M878.7656,304.8359 Q878.9219,304.6172 879.1094,304.5078 Q879.2969,304.3984 879.5156,304.3984 Q879.8906,304.3984 880.125,304.6641 Q880.3594,304.9141 880.3594,305.5234 L880.3594,306.9766 Q880.3594,307.5859 880.125,307.8516 Q879.8906,308.1172 879.5156,308.1172 Q879.1719,308.1172 878.9688,307.9141 Q878.7656,307.7266 878.6563,307.2109 Q878.6094,306.8516 878.4219,306.6641 Q878.0938,306.2891 877.4844,306.0703 Q876.875,305.8516 876.25,305.8516 Q875.4844,305.8516 874.8438,306.1797 Q874.2188,306.5078 873.7188,307.2578 Q873.2344,308.0078 873.2344,309.0391 L873.2344,310.1328 Q873.2344,311.3672 874.125,312.1953 Q875.0156,313.0078 876.6094,313.0078 Q877.5469,313.0078 878.2031,312.7578 Q878.5938,312.6016 879.0156,312.1641 Q879.2813,311.8984 879.4219,311.8203 Q879.5781,311.7422 879.7813,311.7422 Q880.1094,311.7422 880.3594,312.0078 Q880.625,312.2578 880.625,312.6016 Q880.625,312.9453 880.2813,313.3516 Q879.7813,313.9297 878.9844,314.2578 Q877.9063,314.7109 876.6094,314.7109 Q875.0938,314.7109 873.8906,314.0859 Q872.9063,313.5859 872.2188,312.5234 Q871.5313,311.4453 871.5313,310.1641 L871.5313,309.0078 Q871.5313,307.6797 872.1406,306.5391 Q872.7656,305.3828 873.8594,304.7734 Q874.9531,304.1484 876.1875,304.1484 Q876.9219,304.1484 877.5625,304.3203 Q878.2188,304.4766 878.7656,304.8359 Z " fill="#000000"/><text fill="#000000" font-family="sans-serif" font-size="12" font-style="italic" lengthAdjust="spacing" textLength="44" x="956" y="305.0664">&#171;Entity&#187;</text><text fill="#000000" font-family="sans-serif" font-size="14" lengthAdjust="spacing" textLength="176" x="890" y="322.2363">OrganizationRepresentative</text><line style="stroke:#181818;stroke-width:0.5;" x1="862" x2="1068" y1="330.3125" y2="330.3125"/><text fill="#000000" font-family="sans-serif" font-size="14" lengthAdjust="spacing" textLength="80" x="867" y="348.8457">name: String</text><text fill="#000000" font-family="sans-serif" font-size="14" lengthAdjust="spacing" textLength="36" x="867" y="366.4551">ID: int</text><text fill="#000000" font-family="sans-serif" font-size="14" lengthAdjust="spacing" textLength="109" x="867" y="384.0645">nationality: String</text><text fill="#000000" font-family="sans-serif" font-size="14" lengthAdjust="spacing" textLength="78" x="867" y="401.6738">email: String</text><text fill="#000000" font-family="sans-serif" font-size="14" lengthAdjust="spacing" textLength="112" x="867" y="419.2832">phoneNumber: int</text><line style="stroke:#181818;stroke-width:0.5;" x1="862" x2="1068" y1="426.3594" y2="426.3594"/></g><!--class Dock--><g id="elem_Dock"><rect codeLine="93" fill="#F1F1F1" height="146.75" id="Dock" rx="2.5" ry="2.5" style="stroke:#181818;stroke-width:0.5;" width="161" x="557.5" y="809.1094"/><ellipse cx="572.5" cy="830.4609" fill="#ADD1B2" rx="11" ry="11" style="stroke:#181818;stroke-width:1.0;"/><path d="M575.2656,826.3359 Q575.4219,826.1172 575.6094,826.0078 Q575.7969,825.8984 576.0156,825.8984 Q576.3906,825.8984 576.625,826.1641 Q576.8594,826.4141 576.8594,827.0234 L576.8594,828.4766 Q576.8594,829.0859 576.625,829.3516 Q576.3906,829.6172 576.0156,829.6172 Q575.6719,829.6172 575.4688,829.4141 Q575.2656,829.2266 575.1563,828.7109 Q575.1094,828.3516 574.9219,828.1641 Q574.5938,827.7891 573.9844,827.5703 Q573.375,827.3516 572.75,827.3516 Q571.9844,827.3516 571.3438,827.6797 Q570.7188,828.0078 570.2188,828.7578 Q569.7344,829.5078 569.7344,830.5391 L569.7344,831.6328 Q569.7344,832.8672 570.625,833.6953 Q571.5156,834.5078 573.1094,834.5078 Q574.0469,834.5078 574.7031,834.2578 Q575.0938,834.1016 575.5156,833.6641 Q575.7813,833.3984 575.9219,833.3203 Q576.0781,833.2422 576.2813,833.2422 Q576.6094,833.2422 576.8594,833.5078 Q577.125,833.7578 577.125,834.1016 Q577.125,834.4453 576.7813,834.8516 Q576.2813,835.4297 575.4844,835.7578 Q574.4063,836.2109 573.1094,836.2109 Q571.5938,836.2109 570.3906,835.5859 Q569.4063,835.0859 568.7188,834.0234 Q568.0313,832.9453 568.0313,831.6641 L568.0313,830.5078 Q568.0313,829.1797 568.6406,828.0391 Q569.2656,826.8828 570.3594,826.2734 Q571.4531,825.6484 572.6875,825.6484 Q573.4219,825.6484 574.0625,825.8203 Q574.7188,825.9766 575.2656,826.3359 Z " fill="#000000"/><text fill="#000000" font-family="sans-serif" font-size="12" font-style="italic" lengthAdjust="spacing" textLength="133" x="584.5" y="826.5664">&#171;Entity, AggregateRoot&#187;</text><text fill="#000000" font-family="sans-serif" font-size="14" lengthAdjust="spacing" textLength="32" x="635" y="843.7363">Dock</text><line style="stroke:#181818;stroke-width:0.5;" x1="558.5" x2="717.5" y1="851.8125" y2="851.8125"/><text fill="#000000" font-family="sans-serif" font-size="14" lengthAdjust="spacing" textLength="36" x="563.5" y="870.3457">ID: int</text><text fill="#000000" font-family="sans-serif" font-size="14" lengthAdjust="spacing" textLength="80" x="563.5" y="887.9551">name: String</text><text fill="#000000" font-family="sans-serif" font-size="14" lengthAdjust="spacing" textLength="90" x="563.5" y="905.5645">length: double</text><text fill="#000000" font-family="sans-serif" font-size="14" lengthAdjust="spacing" textLength="87" x="563.5" y="923.1738">depth: double</text><text fill="#000000" font-family="sans-serif" font-size="14" lengthAdjust="spacing" textLength="79" x="563.5" y="940.7832">maxDraft: int</text><line style="stroke:#181818;stroke-width:0.5;" x1="558.5" x2="717.5" y1="947.8594" y2="947.8594"/></g><!--class StorageArea--><g id="elem_StorageArea"><rect codeLine="101" fill="#F1F1F1" height="129.1406" id="StorageArea" rx="2.5" ry="2.5" style="stroke:#181818;stroke-width:0.5;" width="179" x="483.5" y="554.1094"/><ellipse cx="528.75" cy="575.4609" fill="#ADD1B2" rx="11" ry="11" style="stroke:#181818;stroke-width:1.0;"/><path d="M531.5156,571.3359 Q531.6719,571.1172 531.8594,571.0078 Q532.0469,570.8984 532.2656,570.8984 Q532.6406,570.8984 532.875,571.1641 Q533.1094,571.4141 533.1094,572.0234 L533.1094,573.4766 Q533.1094,574.0859 532.875,574.3516 Q532.6406,574.6172 532.2656,574.6172 Q531.9219,574.6172 531.7188,574.4141 Q531.5156,574.2266 531.4063,573.7109 Q531.3594,573.3516 531.1719,573.1641 Q530.8438,572.7891 530.2344,572.5703 Q529.625,572.3516 529,572.3516 Q528.2344,572.3516 527.5938,572.6797 Q526.9688,573.0078 526.4688,573.7578 Q525.9844,574.5078 525.9844,575.5391 L525.9844,576.6328 Q525.9844,577.8672 526.875,578.6953 Q527.7656,579.5078 529.3594,579.5078 Q530.2969,579.5078 530.9531,579.2578 Q531.3438,579.1016 531.7656,578.6641 Q532.0313,578.3984 532.1719,578.3203 Q532.3281,578.2422 532.5313,578.2422 Q532.8594,578.2422 533.1094,578.5078 Q533.375,578.7578 533.375,579.1016 Q533.375,579.4453 533.0313,579.8516 Q532.5313,580.4297 531.7344,580.7578 Q530.6563,581.2109 529.3594,581.2109 Q527.8438,581.2109 526.6406,580.5859 Q525.6563,580.0859 524.9688,579.0234 Q524.2813,577.9453 524.2813,576.6641 L524.2813,575.5078 Q524.2813,574.1797 524.8906,573.0391 Q525.5156,571.8828 526.6094,571.2734 Q527.7031,570.6484 528.9375,570.6484 Q529.6719,570.6484 530.3125,570.8203 Q530.9688,570.9766 531.5156,571.3359 Z " fill="#000000"/><text fill="#000000" font-family="sans-serif" font-size="12" font-style="italic" lengthAdjust="spacing" textLength="44" x="567.25" y="571.5664">&#171;Entity&#187;</text><text fill="#000000" font-family="sans-serif" font-size="14" lengthAdjust="spacing" textLength="80" x="549.25" y="588.7363">StorageArea</text><line style="stroke:#181818;stroke-width:0.5;" x1="484.5" x2="661.5" y1="596.8125" y2="596.8125"/><text fill="#000000" font-family="sans-serif" font-size="14" lengthAdjust="spacing" textLength="36" x="489.5" y="615.3457">ID: int</text><text fill="#000000" font-family="sans-serif" font-size="14" lengthAdjust="spacing" textLength="72" x="489.5" y="632.9551">type: String</text><text fill="#000000" font-family="sans-serif" font-size="14" lengthAdjust="spacing" textLength="131" x="489.5" y="650.5645">maxCapacity: double</text><text fill="#000000" font-family="sans-serif" font-size="14" lengthAdjust="spacing" textLength="167" x="489.5" y="668.1738">currentOccupancy: double</text><line style="stroke:#181818;stroke-width:0.5;" x1="484.5" x2="661.5" y1="675.25" y2="675.25"/></g><!--class Location--><g id="elem_Location"><rect codeLine="108" fill="#F1F1F1" height="93.9219" id="Location" rx="2.5" ry="2.5" style="stroke:#181818;stroke-width:0.5;" width="131" x="467.5" y="1099.6094"/><ellipse cx="491.95" cy="1120.9609" fill="#ADD1B2" rx="11" ry="11" style="stroke:#181818;stroke-width:1.0;"/><path d="M494.7156,1116.8359 Q494.8719,1116.6172 495.0594,1116.5078 Q495.2469,1116.3984 495.4656,1116.3984 Q495.8406,1116.3984 496.075,1116.6641 Q496.3094,1116.9141 496.3094,1117.5234 L496.3094,1118.9766 Q496.3094,1119.5859 496.075,1119.8516 Q495.8406,1120.1172 495.4656,1120.1172 Q495.1219,1120.1172 494.9188,1119.9141 Q494.7156,1119.7266 494.6063,1119.2109 Q494.5594,1118.8516 494.3719,1118.6641 Q494.0438,1118.2891 493.4344,1118.0703 Q492.825,1117.8516 492.2,1117.8516 Q491.4344,1117.8516 490.7938,1118.1797 Q490.1688,1118.5078 489.6688,1119.2578 Q489.1844,1120.0078 489.1844,1121.0391 L489.1844,1122.1328 Q489.1844,1123.3672 490.075,1124.1953 Q490.9656,1125.0078 492.5594,1125.0078 Q493.4969,1125.0078 494.1531,1124.7578 Q494.5438,1124.6016 494.9656,1124.1641 Q495.2313,1123.8984 495.3719,1123.8203 Q495.5281,1123.7422 495.7313,1123.7422 Q496.0594,1123.7422 496.3094,1124.0078 Q496.575,1124.2578 496.575,1124.6016 Q496.575,1124.9453 496.2313,1125.3516 Q495.7313,1125.9297 494.9344,1126.2578 Q493.8563,1126.7109 492.5594,1126.7109 Q491.0438,1126.7109 489.8406,1126.0859 Q488.8563,1125.5859 488.1688,1124.5234 Q487.4813,1123.4453 487.4813,1122.1641 L487.4813,1121.0078 Q487.4813,1119.6797 488.0906,1118.5391 Q488.7156,1117.3828 489.8094,1116.7734 Q490.9031,1116.1484 492.1375,1116.1484 Q492.8719,1116.1484 493.5125,1116.3203 Q494.1688,1116.4766 494.7156,1116.8359 Z " fill="#000000"/><text fill="#000000" font-family="sans-serif" font-size="12" font-style="italic" lengthAdjust="spacing" textLength="82" x="506.05" y="1117.0664">&#171;ValueObject&#187;</text><text fill="#000000" font-family="sans-serif" font-size="14" lengthAdjust="spacing" textLength="54" x="520.05" y="1134.2363">Location</text><line style="stroke:#181818;stroke-width:0.5;" x1="468.5" x2="597.5" y1="1142.3125" y2="1142.3125"/><text fill="#000000" font-family="sans-serif" font-size="14" lengthAdjust="spacing" textLength="119" x="473.5" y="1160.8457">coordinates: String</text><text fill="#000000" font-family="sans-serif" font-size="14" lengthAdjust="spacing" textLength="114" x="473.5" y="1178.4551">description: String</text><line style="stroke:#181818;stroke-width:0.5;" x1="468.5" x2="597.5" y1="1185.5313" y2="1185.5313"/></g><!--class StaffMember--><g id="elem_StaffMember"><rect codeLine="115" fill="#F1F1F1" height="164.3594" id="StaffMember" rx="2.5" ry="2.5" style="stroke:#181818;stroke-width:0.5;" width="177" x="1631.5" y="536.6094"/><ellipse cx="1653.7" cy="557.9609" fill="#ADD1B2" rx="11" ry="11" style="stroke:#181818;stroke-width:1.0;"/><path d="M1656.4656,553.8359 Q1656.6219,553.6172 1656.8094,553.5078 Q1656.9969,553.3984 1657.2156,553.3984 Q1657.5906,553.3984 1657.825,553.6641 Q1658.0594,553.9141 1658.0594,554.5234 L1658.0594,555.9766 Q1658.0594,556.5859 1657.825,556.8516 Q1657.5906,557.1172 1657.2156,557.1172 Q1656.8719,557.1172 1656.6688,556.9141 Q1656.4656,556.7266 1656.3563,556.2109 Q1656.3094,555.8516 1656.1219,555.6641 Q1655.7938,555.2891 1655.1844,555.0703 Q1654.575,554.8516 1653.95,554.8516 Q1653.1844,554.8516 1652.5438,555.1797 Q1651.9188,555.5078 1651.4188,556.2578 Q1650.9344,557.0078 1650.9344,558.0391 L1650.9344,559.1328 Q1650.9344,560.3672 1651.825,561.1953 Q1652.7156,562.0078 1654.3094,562.0078 Q1655.2469,562.0078 1655.9031,561.7578 Q1656.2938,561.6016 1656.7156,561.1641 Q1656.9813,560.8984 1657.1219,560.8203 Q1657.2781,560.7422 1657.4813,560.7422 Q1657.8094,560.7422 1658.0594,561.0078 Q1658.325,561.2578 1658.325,561.6016 Q1658.325,561.9453 1657.9813,562.3516 Q1657.4813,562.9297 1656.6844,563.2578 Q1655.6063,563.7109 1654.3094,563.7109 Q1652.7938,563.7109 1651.5906,563.0859 Q1650.6063,562.5859 1649.9188,561.5234 Q1649.2313,560.4453 1649.2313,559.1641 L1649.2313,558.0078 Q1649.2313,556.6797 1649.8406,555.5391 Q1650.4656,554.3828 1651.5594,553.7734 Q1652.6531,553.1484 1653.8875,553.1484 Q1654.6219,553.1484 1655.2625,553.3203 Q1655.9188,553.4766 1656.4656,553.8359 Z " fill="#000000"/><text fill="#000000" font-family="sans-serif" font-size="12" font-style="italic" lengthAdjust="spacing" textLength="133" x="1667.3" y="554.0664">&#171;Entity, AggregateRoot&#187;</text><text fill="#000000" font-family="sans-serif" font-size="14" lengthAdjust="spacing" textLength="80" x="1693.8" y="571.2363">StaffMember</text><line style="stroke:#181818;stroke-width:0.5;" x1="1632.5" x2="1807.5" y1="579.3125" y2="579.3125"/><text fill="#000000" font-family="sans-serif" font-size="14" lengthAdjust="spacing" textLength="36" x="1637.5" y="597.8457">ID: int</text><text fill="#000000" font-family="sans-serif" font-size="14" lengthAdjust="spacing" textLength="80" x="1637.5" y="615.4551">name: String</text><text fill="#000000" font-family="sans-serif" font-size="14" lengthAdjust="spacing" textLength="78" x="1637.5" y="633.0645">email: String</text><text fill="#000000" font-family="sans-serif" font-size="14" lengthAdjust="spacing" textLength="112" x="1637.5" y="650.6738">phoneNumber: int</text><text fill="#000000" font-family="sans-serif" font-size="14" lengthAdjust="spacing" textLength="165" x="1637.5" y="668.2832">operationalWindow: String</text><text fill="#000000" font-family="sans-serif" font-size="14" lengthAdjust="spacing" textLength="130" x="1637.5" y="685.8926">currentStatus: String</text><line style="stroke:#181818;stroke-width:0.5;" x1="1632.5" x2="1807.5" y1="692.9688" y2="692.9688"/></g><!--class MemberStatus--><g id="elem_MemberStatus"><rect codeLine="124" fill="#F1F1F1" height="65.6094" id="MemberStatus" rx="2.5" ry="2.5" style="stroke:#181818;stroke-width:0.5;" width="123" x="1631.5" y="849.6094"/><ellipse cx="1646.5" cy="865.6094" fill="#EB937F" rx="11" ry="11" style="stroke:#181818;stroke-width:1.0;"/><path d="M1645.3594,866.4063 L1645.3594,868.9063 L1649.6875,868.9063 L1649.6875,867.9844 Q1649.6875,867.375 1649.9219,867.1094 Q1650.1719,866.8438 1650.5469,866.8438 Q1650.9219,866.8438 1651.1563,867.1094 Q1651.3906,867.375 1651.3906,867.9844 L1651.3906,870.6094 L1643.3906,870.6094 Q1642.7656,870.6094 1642.5,870.375 Q1642.25,870.1406 1642.25,869.75 Q1642.25,869.375 1642.5156,869.1406 Q1642.7813,868.9063 1643.3906,868.9063 L1643.6563,868.9063 L1643.6563,862.25 L1643.3906,862.25 Q1642.7656,862.25 1642.5,862.0156 Q1642.25,861.7813 1642.25,861.3906 Q1642.25,861.0156 1642.5,860.7813 Q1642.7656,860.5469 1643.3906,860.5469 L1651.0156,860.5469 L1651.0156,863.1406 Q1651.0156,863.75 1650.7813,864.0156 Q1650.5625,864.2656 1650.1719,864.2656 Q1649.7969,864.2656 1649.5625,864.0156 Q1649.3281,863.75 1649.3281,863.1406 L1649.3281,862.25 L1645.3594,862.25 L1645.3594,864.7031 L1646.8438,864.7031 Q1646.8438,864.0469 1646.9688,863.8594 Q1647.2344,863.4531 1647.7031,863.4531 Q1648.0781,863.4531 1648.3125,863.7188 Q1648.5469,863.9688 1648.5469,864.5781 L1648.5469,866.5469 Q1648.5469,867.0938 1648.4219,867.2813 Q1648.1563,867.6719 1647.7031,867.6719 Q1647.2344,867.6719 1646.9688,867.2656 Q1646.8438,867.0781 1646.8438,866.4063 L1645.3594,866.4063 Z " fill="#000000"/><text fill="#000000" font-family="sans-serif" font-size="14" lengthAdjust="spacing" textLength="91" x="1660.5" y="871.3379">MemberStatus</text><line style="stroke:#181818;stroke-width:0.5;" x1="1632.5" x2="1753.5" y1="881.6094" y2="881.6094"/><text fill="#000000" font-family="sans-serif" font-size="14" lengthAdjust="spacing" textLength="80" x="1637.5" y="900.1426">name: String</text><line style="stroke:#181818;stroke-width:0.5;" x1="1632.5" x2="1753.5" y1="907.2188" y2="907.2188"/></g><!--class Qualification--><g id="elem_Qualification"><rect codeLine="130" fill="#F1F1F1" height="111.5313" id="Qualification" rx="2.5" ry="2.5" style="stroke:#181818;stroke-width:0.5;" width="161" x="1718.5" y="1090.6094"/><ellipse cx="1733.5" cy="1111.9609" fill="#ADD1B2" rx="11" ry="11" style="stroke:#181818;stroke-width:1.0;"/><path d="M1736.2656,1107.8359 Q1736.4219,1107.6172 1736.6094,1107.5078 Q1736.7969,1107.3984 1737.0156,1107.3984 Q1737.3906,1107.3984 1737.625,1107.6641 Q1737.8594,1107.9141 1737.8594,1108.5234 L1737.8594,1109.9766 Q1737.8594,1110.5859 1737.625,1110.8516 Q1737.3906,1111.1172 1737.0156,1111.1172 Q1736.6719,1111.1172 1736.4688,1110.9141 Q1736.2656,1110.7266 1736.1563,1110.2109 Q1736.1094,1109.8516 1735.9219,1109.6641 Q1735.5938,1109.2891 1734.9844,1109.0703 Q1734.375,1108.8516 1733.75,1108.8516 Q1732.9844,1108.8516 1732.3438,1109.1797 Q1731.7188,1109.5078 1731.2188,1110.2578 Q1730.7344,1111.0078 1730.7344,1112.0391 L1730.7344,1113.1328 Q1730.7344,1114.3672 1731.625,1115.1953 Q1732.5156,1116.0078 1734.1094,1116.0078 Q1735.0469,1116.0078 1735.7031,1115.7578 Q1736.0938,1115.6016 1736.5156,1115.1641 Q1736.7813,1114.8984 1736.9219,1114.8203 Q1737.0781,1114.7422 1737.2813,1114.7422 Q1737.6094,1114.7422 1737.8594,1115.0078 Q1738.125,1115.2578 1738.125,1115.6016 Q1738.125,1115.9453 1737.7813,1116.3516 Q1737.2813,1116.9297 1736.4844,1117.2578 Q1735.4063,1117.7109 1734.1094,1117.7109 Q1732.5938,1117.7109 1731.3906,1117.0859 Q1730.4063,1116.5859 1729.7188,1115.5234 Q1729.0313,1114.4453 1729.0313,1113.1641 L1729.0313,1112.0078 Q1729.0313,1110.6797 1729.6406,1109.5391 Q1730.2656,1108.3828 1731.3594,1107.7734 Q1732.4531,1107.1484 1733.6875,1107.1484 Q1734.4219,1107.1484 1735.0625,1107.3203 Q1735.7188,1107.4766 1736.2656,1107.8359 Z " fill="#000000"/><text fill="#000000" font-family="sans-serif" font-size="12" font-style="italic" lengthAdjust="spacing" textLength="133" x="1745.5" y="1108.0664">&#171;Entity, AggregateRoot&#187;</text><text fill="#000000" font-family="sans-serif" font-size="14" lengthAdjust="spacing" textLength="78" x="1773" y="1125.2363">Qualification</text><line style="stroke:#181818;stroke-width:0.5;" x1="1719.5" x2="1878.5" y1="1133.3125" y2="1133.3125"/><text fill="#000000" font-family="sans-serif" font-size="14" lengthAdjust="spacing" textLength="36" x="1724.5" y="1151.8457">ID: int</text><text fill="#000000" font-family="sans-serif" font-size="14" lengthAdjust="spacing" textLength="80" x="1724.5" y="1169.4551">name: String</text><text fill="#000000" font-family="sans-serif" font-size="14" lengthAdjust="spacing" textLength="114" x="1724.5" y="1187.0645">description: String</text><line style="stroke:#181818;stroke-width:0.5;" x1="1719.5" x2="1878.5" y1="1194.1406" y2="1194.1406"/></g><!--class PhysicalResource--><g id="elem_PhysicalResource"><rect codeLine="138" fill="#F1F1F1" height="164.3594" id="PhysicalResource" rx="2.5" ry="2.5" style="stroke:#181818;stroke-width:0.5;" width="179" x="1936.5" y="800.6094"/><ellipse cx="1959.6" cy="821.9609" fill="#ADD1B2" rx="11" ry="11" style="stroke:#181818;stroke-width:1.0;"/><path d="M1962.3656,817.8359 Q1962.5219,817.6172 1962.7094,817.5078 Q1962.8969,817.3984 1963.1156,817.3984 Q1963.4906,817.3984 1963.725,817.6641 Q1963.9594,817.9141 1963.9594,818.5234 L1963.9594,819.9766 Q1963.9594,820.5859 1963.725,820.8516 Q1963.4906,821.1172 1963.1156,821.1172 Q1962.7719,821.1172 1962.5688,820.9141 Q1962.3656,820.7266 1962.2563,820.2109 Q1962.2094,819.8516 1962.0219,819.6641 Q1961.6938,819.2891 1961.0844,819.0703 Q1960.475,818.8516 1959.85,818.8516 Q1959.0844,818.8516 1958.4438,819.1797 Q1957.8188,819.5078 1957.3188,820.2578 Q1956.8344,821.0078 1956.8344,822.0391 L1956.8344,823.1328 Q1956.8344,824.3672 1957.725,825.1953 Q1958.6156,826.0078 1960.2094,826.0078 Q1961.1469,826.0078 1961.8031,825.7578 Q1962.1938,825.6016 1962.6156,825.1641 Q1962.8813,824.8984 1963.0219,824.8203 Q1963.1781,824.7422 1963.3813,824.7422 Q1963.7094,824.7422 1963.9594,825.0078 Q1964.225,825.2578 1964.225,825.6016 Q1964.225,825.9453 1963.8813,826.3516 Q1963.3813,826.9297 1962.5844,827.2578 Q1961.5063,827.7109 1960.2094,827.7109 Q1958.6938,827.7109 1957.4906,827.0859 Q1956.5063,826.5859 1955.8188,825.5234 Q1955.1313,824.4453 1955.1313,823.1641 L1955.1313,822.0078 Q1955.1313,820.6797 1955.7406,819.5391 Q1956.3656,818.3828 1957.4594,817.7734 Q1958.5531,817.1484 1959.7875,817.1484 Q1960.5219,817.1484 1961.1625,817.3203 Q1961.8188,817.4766 1962.3656,817.8359 Z " fill="#000000"/><text fill="#000000" font-family="sans-serif" font-size="12" font-style="italic" lengthAdjust="spacing" textLength="133" x="1973.4" y="818.0664">&#171;Entity, AggregateRoot&#187;</text><text fill="#000000" font-family="sans-serif" font-size="14" lengthAdjust="spacing" textLength="113" x="1983.4" y="835.2363">PhysicalResource</text><line style="stroke:#181818;stroke-width:0.5;" x1="1937.5" x2="2114.5" y1="843.3125" y2="843.3125"/><text fill="#000000" font-family="sans-serif" font-size="14" lengthAdjust="spacing" textLength="58" x="1942.5" y="861.8457">ID: String</text><text fill="#000000" font-family="sans-serif" font-size="14" lengthAdjust="spacing" textLength="80" x="1942.5" y="879.4551">name: String</text><text fill="#000000" font-family="sans-serif" font-size="14" lengthAdjust="spacing" textLength="114" x="1942.5" y="897.0645">description: String</text><text fill="#000000" font-family="sans-serif" font-size="14" lengthAdjust="spacing" textLength="149" x="1942.5" y="914.6738">operationalCapacity: int</text><text fill="#000000" font-family="sans-serif" font-size="14" lengthAdjust="spacing" textLength="111" x="1942.5" y="932.2832">setupTime: String</text><text fill="#000000" font-family="sans-serif" font-size="14" lengthAdjust="spacing" textLength="167" x="1942.5" y="949.8926">qualifRequirements: String</text><line style="stroke:#181818;stroke-width:0.5;" x1="1937.5" x2="2114.5" y1="956.9688" y2="956.9688"/></g><!--class ResourceStatus--><g id="elem_ResourceStatus"><rect codeLine="147" fill="#F1F1F1" height="65.6094" id="ResourceStatus" rx="2.5" ry="2.5" style="stroke:#181818;stroke-width:0.5;" width="133" x="1959.5" y="1113.6094"/><ellipse cx="1974.5" cy="1129.6094" fill="#EB937F" rx="11" ry="11" style="stroke:#181818;stroke-width:1.0;"/><path d="M1973.3594,1130.4063 L1973.3594,1132.9063 L1977.6875,1132.9063 L1977.6875,1131.9844 Q1977.6875,1131.375 1977.9219,1131.1094 Q1978.1719,1130.8438 1978.5469,1130.8438 Q1978.9219,1130.8438 1979.1563,1131.1094 Q1979.3906,1131.375 1979.3906,1131.9844 L1979.3906,1134.6094 L1971.3906,1134.6094 Q1970.7656,1134.6094 1970.5,1134.375 Q1970.25,1134.1406 1970.25,1133.75 Q1970.25,1133.375 1970.5156,1133.1406 Q1970.7813,1132.9063 1971.3906,1132.9063 L1971.6563,1132.9063 L1971.6563,1126.25 L1971.3906,1126.25 Q1970.7656,1126.25 1970.5,1126.0156 Q1970.25,1125.7813 1970.25,1125.3906 Q1970.25,1125.0156 1970.5,1124.7813 Q1970.7656,1124.5469 1971.3906,1124.5469 L1979.0156,1124.5469 L1979.0156,1127.1406 Q1979.0156,1127.75 1978.7813,1128.0156 Q1978.5625,1128.2656 1978.1719,1128.2656 Q1977.7969,1128.2656 1977.5625,1128.0156 Q1977.3281,1127.75 1977.3281,1127.1406 L1977.3281,1126.25 L1973.3594,1126.25 L1973.3594,1128.7031 L1974.8438,1128.7031 Q1974.8438,1128.0469 1974.9688,1127.8594 Q1975.2344,1127.4531 1975.7031,1127.4531 Q1976.0781,1127.4531 1976.3125,1127.7188 Q1976.5469,1127.9688 1976.5469,1128.5781 L1976.5469,1130.5469 Q1976.5469,1131.0938 1976.4219,1131.2813 Q1976.1563,1131.6719 1975.7031,1131.6719 Q1975.2344,1131.6719 1974.9688,1131.2656 Q1974.8438,1131.0781 1974.8438,1130.4063 L1973.3594,1130.4063 Z " fill="#000000"/><text fill="#000000" font-family="sans-serif" font-size="14" lengthAdjust="spacing" textLength="101" x="1988.5" y="1135.3379">ResourceStatus</text><line style="stroke:#181818;stroke-width:0.5;" x1="1960.5" x2="2091.5" y1="1145.6094" y2="1145.6094"/><text fill="#000000" font-family="sans-serif" font-size="14" lengthAdjust="spacing" textLength="80" x="1965.5" y="1164.1426">name: String</text><line style="stroke:#181818;stroke-width:0.5;" x1="1960.5" x2="2091.5" y1="1171.2188" y2="1171.2188"/></g><!--link Vessel to VesselType--><g id="link_Vessel_VesselType"><path codeLine="152" d="M371.85,380.3694 C493.77,408.6994 712.89,463.0594 735,492.6094 C803.17,583.6994 814.45,667.1694 735,748.6094 C722.47,761.4594 426.46,745.9794 412,756.6094 C330.85,816.2394 372.32,876.0794 339,971.1094 C328.29,1001.6594 318.3231,1029.4679 307.6831,1058.8479 " fill="none" id="Vessel-to-VesselType" style="stroke:#181818;stroke-width:1.0;"/><polygon fill="#181818" points="305.64,1064.4894,312.4655,1057.3892,307.3425,1059.7882,304.9436,1054.6652,305.64,1064.4894" style="stroke:#181818;stroke-width:1.0;"/><text fill="#000000" font-family="sans-serif" font-size="13" lengthAdjust="spacing" textLength="21" x="752" y="745.1045">has</text><text fill="#000000" font-family="sans-serif" font-size="13" lengthAdjust="spacing" textLength="5" x="379.5338" y="378.9223">*</text><text fill="#000000" font-family="sans-serif" font-size="13" lengthAdjust="spacing" textLength="7" x="301.0498" y="1053.6762">1</text></g><!--link Vessel to Owner--><g id="link_Vessel_Owner"><path codeLine="153" d="M221.95,408.3194 C191.42,431.1294 156.7,460.6094 131,492.6094 C111.98,516.2894 98.9092,541.1499 88.0592,566.0199 " fill="none" id="Vessel-to-Owner" style="stroke:#181818;stroke-width:1.0;"/><polygon fill="#181818" points="85.66,571.5194,92.9251,564.8697,87.6594,566.9365,85.5926,561.6707,85.66,571.5194" style="stroke:#181818;stroke-width:1.0;"/><text fill="#000000" font-family="sans-serif" font-size="13" lengthAdjust="spacing" textLength="21" x="155" y="481.1045">has</text><text fill="#000000" font-family="sans-serif" font-size="13" lengthAdjust="spacing" textLength="5" x="206.8883" y="429.6086">*</text><text fill="#000000" font-family="sans-serif" font-size="13" lengthAdjust="spacing" textLength="20" x="66.8329" y="560.6117">1..*</text></g><!--link Dock to VesselType--><g id="link_Dock_VesselType"><path codeLine="154" d="M557.22,953.0294 C548.28,959.4994 539.11,965.6594 530,971.1094 C481.19,1000.2994 459.87,989.9094 412,1020.6094 C392.43,1033.1594 377.5206,1044.6501 359.7806,1060.3701 " fill="none" id="Dock-to-VesselType" style="stroke:#181818;stroke-width:1.0;"/><polygon fill="#181818" points="355.29,1064.3494,364.6787,1061.3742,359.0322,1061.0333,359.3731,1055.3867,355.29,1064.3494" style="stroke:#181818;stroke-width:1.0;"/><text fill="#000000" font-family="sans-serif" font-size="13" lengthAdjust="spacing" textLength="21" x="474" y="1009.1045">has</text><text fill="#000000" font-family="sans-serif" font-size="13" lengthAdjust="spacing" textLength="5" x="544.5426" y="956.3066">*</text><text fill="#000000" font-family="sans-serif" font-size="13" lengthAdjust="spacing" textLength="5" x="357.1291" y="1053.8054">*</text></g><!--link Dock to Location--><g id="link_Dock_Location"><path codeLine="155" d="M608.89,956.2394 C590.56,1001.9794 569.6815,1054.0698 553.8115,1093.6798 " fill="none" id="Dock-to-Location" style="stroke:#181818;stroke-width:1.0;"/><polygon fill="#181818" points="551.58,1099.2494,558.6403,1092.3826,553.4396,1094.608,551.2142,1089.4073,551.58,1099.2494" style="stroke:#181818;stroke-width:1.0;"/><text fill="#000000" font-family="sans-serif" font-size="13" lengthAdjust="spacing" textLength="57" x="593" y="1009.1045">located at</text><text fill="#000000" font-family="sans-serif" font-size="13" lengthAdjust="spacing" textLength="7" x="598.8838" y="977.2875">1</text><text fill="#000000" font-family="sans-serif" font-size="13" lengthAdjust="spacing" textLength="7" x="546.7949" y="1088.645">1</text></g><!--link StorageArea to Location--><g id="link_StorageArea_Location"><path codeLine="156" d="M519.02,683.1194 C503.65,704.9894 488.93,730.5694 481,756.6094 C444.42,876.6994 485.3733,1019.7929 512.3533,1093.7329 " fill="none" id="StorageArea-to-Location" style="stroke:#181818;stroke-width:1.0;"/><polygon fill="#181818" points="514.41,1099.3694,515.0826,1089.5435,512.6961,1094.6723,507.5673,1092.2858,514.41,1099.3694" style="stroke:#181818;stroke-width:1.0;"/><text fill="#000000" font-family="sans-serif" font-size="13" lengthAdjust="spacing" textLength="57" x="482" y="888.1045">located at</text><text fill="#000000" font-family="sans-serif" font-size="13" lengthAdjust="spacing" textLength="7" x="505.7331" y="704.5568">1</text><text fill="#000000" font-family="sans-serif" font-size="13" lengthAdjust="spacing" textLength="7" x="504.1655" y="1088.7827">1</text></g><!--link StorageArea to Dock--><g id="link_StorageArea_Dock"><path codeLine="157" d="M588.82,683.3694 C598.21,721.2294 608.7159,763.5657 618.4759,802.9257 " fill="none" id="StorageArea-to-Dock" style="stroke:#181818;stroke-width:1.0;"/><polygon fill="#181818" points="619.92,808.7494,621.6363,799.0512,618.7166,803.8964,613.8715,800.9766,619.92,808.7494" style="stroke:#181818;stroke-width:1.0;"/><text fill="#000000" font-family="sans-serif" font-size="13" lengthAdjust="spacing" textLength="37" x="605" y="745.1045">serves</text><text fill="#000000" font-family="sans-serif" font-size="13" lengthAdjust="spacing" textLength="5" x="585.2769" y="704.8342">*</text><text fill="#000000" font-family="sans-serif" font-size="13" lengthAdjust="spacing" textLength="5" x="612.8942" y="798.216">*</text></g><!--link ShippingAgentOrganization to OrganizationRepresentative--><g id="link_ShippingAgentOrganization_OrganizationRepresentative"><path codeLine="158" d="M847.65,209.7394 C866.69,234.1294 884.8584,257.4194 904.5184,282.6094 " fill="none" id="ShippingAgentOrganization-to-OrganizationRepresentative" style="stroke:#181818;stroke-width:1.0;"/><polygon fill="#181818" points="908.21,287.3394,905.8259,277.7834,905.1337,283.3978,899.5194,282.7055,908.21,287.3394" style="stroke:#181818;stroke-width:1.0;"/><text fill="#000000" font-family="sans-serif" font-size="13" lengthAdjust="spacing" textLength="21" x="883" y="254.1045">has</text><text fill="#000000" font-family="sans-serif" font-size="13" lengthAdjust="spacing" textLength="7" x="845.6977" y="231.1899">1</text><text fill="#000000" font-family="sans-serif" font-size="13" lengthAdjust="spacing" textLength="20" x="881.6354" y="276.8149">1..*</text></g><!--link ShippingAgentOrganization to Vessel--><g id="link_ShippingAgentOrganization_Vessel"><path codeLine="159" d="M695.71,189.2894 C600.25,229.5794 465.2478,286.5562 377.3978,323.6362 " fill="none" id="ShippingAgentOrganization-to-Vessel" style="stroke:#181818;stroke-width:1.0;"/><polygon fill="#181818" points="371.87,325.9694,381.7171,326.1548,376.4765,324.0251,378.6062,318.7844,371.87,325.9694" style="stroke:#181818;stroke-width:1.0;"/><text fill="#000000" font-family="sans-serif" font-size="13" lengthAdjust="spacing" textLength="21" x="576" y="254.1045">has</text><text fill="#000000" font-family="sans-serif" font-size="13" lengthAdjust="spacing" textLength="7" x="680.941" y="189.4492">1</text><text fill="#000000" font-family="sans-serif" font-size="13" lengthAdjust="spacing" textLength="5" x="379.5557" y="319.5073">*</text></g><!--link ShippingAgentOrganization to Address--><g id="link_ShippingAgentOrganization_Address"><path codeLine="160" d="M787,209.7394 C782.27,237.0894 777.7718,263.077 773.0418,290.447 " fill="none" id="ShippingAgentOrganization-to-Address" style="stroke:#181818;stroke-width:1.0;"/><polygon fill="#181818" points="772.02,296.3594,777.4942,288.172,772.8715,291.4324,769.6111,286.8097,772.02,296.3594" style="stroke:#181818;stroke-width:1.0;"/><text fill="#000000" font-family="sans-serif" font-size="13" lengthAdjust="spacing" textLength="57" x="783" y="254.1045">located at</text><text fill="#000000" font-family="sans-serif" font-size="13" lengthAdjust="spacing" textLength="7" x="778.4141" y="231.1899">1</text><text fill="#000000" font-family="sans-serif" font-size="13" lengthAdjust="spacing" textLength="20" x="752.1316" y="285.909">1..*</text></g><!--link Vessel to VesselVisitNotification--><g id="link_Vessel_VesselVisitNotification"><path codeLine="161" d="M371.71,386.7194 C449.78,409.4294 571.84,442.0594 680,458.6094 C738.1,467.4994 755,452.2594 812,466.6094 C887.5,485.6094 961.5819,519.0713 1023.2419,551.2813 " fill="none" id="Vessel-to-VesselVisitNotification" style="stroke:#181818;stroke-width:1.0;"/><polygon fill="#181818" points="1028.56,554.0594,1022.4349,546.3469,1024.1282,551.7443,1018.7308,553.4377,1028.56,554.0594" style="stroke:#181818;stroke-width:1.0;"/><text fill="#000000" font-family="sans-serif" font-size="13" lengthAdjust="spacing" textLength="21" x="870" y="481.1045">has</text><text fill="#000000" font-family="sans-serif" font-size="13" lengthAdjust="spacing" textLength="7" x="379.4731" y="403.3327">1</text><text fill="#000000" font-family="sans-serif" font-size="13" lengthAdjust="spacing" textLength="5" x="1010.5013" y="543.1781">*</text></g><!--link VesselVisitNotification to Dock--><g id="link_VesselVisitNotification_Dock"><path codeLine="162" d="M1007.73,660.9294 C955.97,679.3694 896.86,703.1494 846,730.6094 C801.63,754.5594 760.6629,783.1405 723.4229,811.6705 " fill="none" id="VesselVisitNotification-to-Dock" style="stroke:#181818;stroke-width:1.0;"/><polygon fill="#181818" points="718.66,815.3194,728.237,813.0213,722.6291,812.2786,723.3718,806.6707,718.66,815.3194" style="stroke:#181818;stroke-width:1.0;"/><text fill="#000000" font-family="sans-serif" font-size="13" lengthAdjust="spacing" textLength="49" x="847" y="745.1045">happens</text><text fill="#000000" font-family="sans-serif" font-size="13" lengthAdjust="spacing" textLength="5" x="994.9964" y="660.4147">*</text><text fill="#000000" font-family="sans-serif" font-size="13" lengthAdjust="spacing" textLength="7" x="726.4185" y="805.9014">1</text></g><!--link Vessel to Cargo--><g id="link_Vessel_Cargo"><path codeLine="163" d="M275.79,408.3794 C260.61,454.5394 239.3044,519.3597 224.1144,565.5497 " fill="none" id="Vessel-to-Cargo" style="stroke:#181818;stroke-width:1.0;"/><polygon fill="#181818" points="222.24,571.2494,228.8514,563.9494,223.802,566.4996,221.2518,561.4502,222.24,571.2494" style="stroke:#181818;stroke-width:1.0;"/><text fill="#000000" font-family="sans-serif" font-size="13" lengthAdjust="spacing" textLength="21" x="258" y="481.1045">has</text><text fill="#000000" font-family="sans-serif" font-size="13" lengthAdjust="spacing" textLength="7" x="266.1589" y="429.677">1</text><text fill="#000000" font-family="sans-serif" font-size="13" lengthAdjust="spacing" textLength="5" x="219.1112" y="560.645">*</text></g><!--link LoadingCargoManifest to ManifestCargo--><g id="link_LoadingCargoManifest_ManifestCargo"><path codeLine="164" d="M1272.52,912.1494 C1284.39,957.2394 1306.0818,1039.5973 1320.3418,1093.7373 " fill="none" id="LoadingCargoManifest-to-ManifestCargo" style="stroke:#181818;stroke-width:1.0;"/><polygon fill="#181818" points="1321.87,1099.5394,1323.4457,1089.8174,1320.5965,1094.7043,1315.7096,1091.855,1321.87,1099.5394" style="stroke:#181818;stroke-width:1.0;"/><text fill="#000000" font-family="sans-serif" font-size="13" lengthAdjust="spacing" textLength="21" x="1299" y="1009.1045">has</text><text fill="#000000" font-family="sans-serif" font-size="13" lengthAdjust="spacing" textLength="7" x="1266.3491" y="933.454">1</text><text fill="#000000" font-family="sans-serif" font-size="13" lengthAdjust="spacing" textLength="5" x="1314.6298" y="1088.6348">*</text></g><!--link UnloadingCargoManifest to ManifestCargo--><g id="link_UnloadingCargoManifest_ManifestCargo"><path codeLine="165" d="M1464.99,912.1494 C1439.69,957.2394 1393.1662,1040.1669 1362.7862,1094.3069 " fill="none" id="UnloadingCargoManifest-to-ManifestCargo" style="stroke:#181818;stroke-width:1.0;"/><polygon fill="#181818" points="1359.85,1099.5394,1367.7426,1093.6481,1362.2968,1095.179,1360.7659,1089.7332,1359.85,1099.5394" style="stroke:#181818;stroke-width:1.0;"/><text fill="#000000" font-family="sans-serif" font-size="13" lengthAdjust="spacing" textLength="21" x="1418" y="1009.1045">has</text><text fill="#000000" font-family="sans-serif" font-size="13" lengthAdjust="spacing" textLength="7" x="1453.9661" y="933.454">1</text><text fill="#000000" font-family="sans-serif" font-size="13" lengthAdjust="spacing" textLength="5" x="1358.4255" y="1088.6348">*</text></g><!--link VesselVisitNotification to LoadingCargoManifest--><g id="link_VesselVisitNotification_LoadingCargoManifest"><path codeLine="166" d="M1169.66,683.3694 C1195.67,737.4394 1229.1593,807.0823 1248.6293,847.5623 " fill="none" id="VesselVisitNotification-to-LoadingCargoManifest" style="stroke:#181818;stroke-width:1.0;"/><polygon fill="#181818" points="1251.23,852.9694,1250.9337,843.125,1249.0628,848.4635,1243.7243,846.5926,1251.23,852.9694" style="stroke:#181818;stroke-width:1.0;"/><text fill="#000000" font-family="sans-serif" font-size="13" lengthAdjust="spacing" textLength="21" x="1200" y="745.1045">has</text><text fill="#000000" font-family="sans-serif" font-size="13" lengthAdjust="spacing" textLength="7" x="1165.6306" y="704.8342">1</text><text fill="#000000" font-family="sans-serif" font-size="13" lengthAdjust="spacing" textLength="22" x="1223.8116" y="842.3017">0..1</text></g><!--link VesselVisitNotification to UnloadingCargoManifest--><g id="link_VesselVisitNotification_UnloadingCargoManifest"><path codeLine="167" d="M1262.1,683.1494 C1298.41,704.3494 1337.19,729.5294 1370,756.6094 C1405.14,785.6094 1435.2544,821.317 1456.1344,848.257 " fill="none" id="VesselVisitNotification-to-UnloadingCargoManifest" style="stroke:#181818;stroke-width:1.0;"/><polygon fill="#181818" points="1459.81,852.9994,1457.4582,843.4354,1456.747,849.0474,1451.135,848.3362,1459.81,852.9994" style="stroke:#181818;stroke-width:1.0;"/><text fill="#000000" font-family="sans-serif" font-size="13" lengthAdjust="spacing" textLength="21" x="1360" y="745.1045">has</text><text fill="#000000" font-family="sans-serif" font-size="13" lengthAdjust="spacing" textLength="7" x="1268.1812" y="704.5901">1</text><text fill="#000000" font-family="sans-serif" font-size="13" lengthAdjust="spacing" textLength="22" x="1430.7684" y="842.3382">0..1</text></g><!--link VesselVisitNotification to NotificationState--><g id="link_VesselVisitNotification_NotificationState"><path codeLine="168" d="M1123.43,683.3694 C1110.59,735.9294 1094.3336,802.4707 1084.2736,843.6607 " fill="none" id="VesselVisitNotification-to-NotificationState" style="stroke:#181818;stroke-width:1.0;"/><polygon fill="#181818" points="1082.85,849.4894,1088.8711,841.6954,1084.0363,844.6321,1081.0996,839.7973,1082.85,849.4894" style="stroke:#181818;stroke-width:1.0;"/><text fill="#000000" font-family="sans-serif" font-size="13" lengthAdjust="spacing" textLength="21" x="1112" y="745.1045">has</text><text fill="#000000" font-family="sans-serif" font-size="13" lengthAdjust="spacing" textLength="5" x="1116.4536" y="704.8342">*</text><text fill="#000000" font-family="sans-serif" font-size="13" lengthAdjust="spacing" textLength="7" x="1076.7472" y="838.58">1</text></g><!--link Vessel to Crew--><g id="link_Vessel_Crew"><path codeLine="169" d="M299.15,408.3794 C307.84,457.6994 320.3783,528.9305 328.4083,574.4805 " fill="none" id="Vessel-to-Crew" style="stroke:#181818;stroke-width:1.0;"/><polygon fill="#181818" points="329.45,580.3894,331.8267,570.8316,328.5819,575.4653,323.9482,572.2205,329.45,580.3894" style="stroke:#181818;stroke-width:1.0;"/><text fill="#000000" font-family="sans-serif" font-size="13" lengthAdjust="spacing" textLength="21" x="314" y="481.1045">has</text><text fill="#000000" font-family="sans-serif" font-size="13" lengthAdjust="spacing" textLength="7" x="292.8039" y="429.677">1</text><text fill="#000000" font-family="sans-serif" font-size="13" lengthAdjust="spacing" textLength="7" x="320.6598" y="569.655">1</text></g><!--link Crew to CrewMember--><g id="link_Crew_CrewMember"><path codeLine="170" d="M324.77,656.8694 C312.13,698.7594 293.1419,761.7548 277.9319,812.2048 " fill="none" id="Crew-to-CrewMember" style="stroke:#181818;stroke-width:1.0;"/><polygon fill="#181818" points="276.2,817.9494,282.6276,810.4871,277.6433,813.1622,274.9681,808.1779,276.2,817.9494" style="stroke:#181818;stroke-width:1.0;"/><text fill="#000000" font-family="sans-serif" font-size="13" lengthAdjust="spacing" textLength="21" x="303" y="745.1045">has</text><text fill="#000000" font-family="sans-serif" font-size="13" lengthAdjust="spacing" textLength="7" x="315.2383" y="678.3188">1</text><text fill="#000000" font-family="sans-serif" font-size="13" lengthAdjust="spacing" textLength="5" x="273.1309" y="807.0554">*</text></g><!--link OrganizationRepresentative to VesselVisitNotification--><g id="link_OrganizationRepresentative_VesselVisitNotification"><path codeLine="171" d="M1014.4,434.6394 C1040.02,472.2594 1067.6421,512.8406 1092.3221,549.0706 " fill="none" id="OrganizationRepresentative-to-VesselVisitNotification" style="stroke:#181818;stroke-width:1.0;"/><polygon fill="#181818" points="1095.7,554.0294,1093.9389,544.3392,1092.8851,549.8971,1087.3272,548.8432,1095.7,554.0294" style="stroke:#181818;stroke-width:1.0;"/><text fill="#000000" font-family="sans-serif" font-size="13" lengthAdjust="spacing" textLength="46" x="1048" y="481.1045">submits</text><text fill="#000000" font-family="sans-serif" font-size="13" lengthAdjust="spacing" textLength="7" x="1011.7748" y="455.934">1</text><text fill="#000000" font-family="sans-serif" font-size="13" lengthAdjust="spacing" textLength="5" x="1085.4044" y="543.1446">*</text></g><!--link StaffMember to PhysicalResource--><g id="link_StaffMember_PhysicalResource"><path codeLine="172" d="M1808.53,694.4394 C1822.75,706.5094 1837.29,718.8894 1851,730.6094 C1878.75,754.3394 1904.3479,776.359 1931.6679,799.939 " fill="none" id="StaffMember-to-PhysicalResource" style="stroke:#181818;stroke-width:1.0;"/><polygon fill="#181818" points="1936.21,803.8594,1932.0104,794.9508,1932.4249,800.5924,1926.7832,801.007,1936.21,803.8594" style="stroke:#181818;stroke-width:1.0;"/><text fill="#000000" font-family="sans-serif" font-size="13" lengthAdjust="spacing" textLength="28" x="1871" y="745.1045">uses</text><text fill="#000000" font-family="sans-serif" font-size="13" lengthAdjust="spacing" textLength="5" x="1816.6374" y="697.9753">*</text><text fill="#000000" font-family="sans-serif" font-size="13" lengthAdjust="spacing" textLength="5" x="1923.5672" y="794.1702">*</text></g><!--link StaffMember to Dock--><g id="link_StaffMember_Dock"><path codeLine="173" d="M1631.25,683.3394 C1618.24,690.2594 1604.63,696.3394 1591,700.6094 C1456.21,742.8894 1093.04,696.3094 956,730.6094 C908.57,742.4794 801.5336,795.7319 723.9336,836.0719 " fill="none" id="StaffMember-to-Dock" style="stroke:#181818;stroke-width:1.0;"/><polygon fill="#181818" points="718.61,838.8394,728.4404,838.2373,723.0464,836.5332,724.7505,831.1391,718.61,838.8394" style="stroke:#181818;stroke-width:1.0;"/><text fill="#000000" font-family="sans-serif" font-size="13" lengthAdjust="spacing" textLength="34" x="957" y="745.1045">works</text><text fill="#000000" font-family="sans-serif" font-size="13" lengthAdjust="spacing" textLength="5" x="1618.4082" y="685.7094">*</text><text fill="#000000" font-family="sans-serif" font-size="13" lengthAdjust="spacing" textLength="5" x="726.5314" y="831.4288">*</text></g><!--link StaffMember to Qualification--><g id="link_StaffMember_Qualification"><path codeLine="174" d="M1755.23,700.6394 C1761.84,718.7594 1767.94,738.0994 1772,756.6094 C1797.65,873.4794 1800.7926,1008.3995 1800.2526,1084.4495 " fill="none" id="StaffMember-to-Qualification" style="stroke:#181818;stroke-width:1.0;"/><polygon fill="#181818" points="1800.21,1090.4494,1804.2738,1081.478,1800.2455,1085.4495,1796.274,1081.4212,1800.21,1090.4494" style="stroke:#181818;stroke-width:1.0;"/><text fill="#000000" font-family="sans-serif" font-size="13" lengthAdjust="spacing" textLength="21" x="1799" y="888.1045">has</text><text fill="#000000" font-family="sans-serif" font-size="13" lengthAdjust="spacing" textLength="5" x="1753.2473" y="722.4338">*</text><text fill="#000000" font-family="sans-serif" font-size="13" lengthAdjust="spacing" textLength="5" x="1795.0447" y="1079.7765">*</text></g><!--link StaffMember to MemberStatus--><g id="link_StaffMember_MemberStatus"><path codeLine="175" d="M1711.64,700.7094 C1706.47,750.9094 1700.7244,806.6309 1696.9344,843.4509 " fill="none" id="StaffMember-to-MemberStatus" style="stroke:#181818;stroke-width:1.0;"/><polygon fill="#181818" points="1696.32,849.4194,1701.2205,840.8762,1696.832,844.4457,1693.2626,840.0571,1696.32,849.4194" style="stroke:#181818;stroke-width:1.0;"/><text fill="#000000" font-family="sans-serif" font-size="13" lengthAdjust="spacing" textLength="21" x="1710" y="745.1045">has</text><text fill="#000000" font-family="sans-serif" font-size="13" lengthAdjust="spacing" textLength="5" x="1705.6388" y="722.5102">*</text><text fill="#000000" font-family="sans-serif" font-size="13" lengthAdjust="spacing" textLength="7" x="1689.2846" y="838.8783">1</text></g><!--link PhysicalResource to Qualification--><g id="link_PhysicalResource_Qualification"><path codeLine="176" d="M1955.73,964.7094 C1920.31,1005.5894 1882.2185,1049.5543 1850.6085,1086.0443 " fill="none" id="PhysicalResource-to-Qualification" style="stroke:#181818;stroke-width:1.0;"/><polygon fill="#181818" points="1846.68,1090.5794,1855.5962,1086.3958,1849.9538,1086.8002,1849.5495,1081.1578,1846.68,1090.5794" style="stroke:#181818;stroke-width:1.0;"/><text fill="#000000" font-family="sans-serif" font-size="13" lengthAdjust="spacing" textLength="21" x="1927" y="1009.1045">has</text><text fill="#000000" font-family="sans-serif" font-size="13" lengthAdjust="spacing" textLength="5" x="1944.0215" y="986.5102">*</text><text fill="#000000" font-family="sans-serif" font-size="13" lengthAdjust="spacing" textLength="5" x="1847.4687" y="1079.9232">*</text></g><!--link PhysicalResource to ResourceStatus--><g id="link_PhysicalResource_ResourceStatus"><path codeLine="177" d="M2026,964.7094 C2026,1014.9094 2026,1070.5994 2026,1107.4194 " fill="none" id="PhysicalResource-to-ResourceStatus" style="stroke:#181818;stroke-width:1.0;"/><polygon fill="#181818" points="2026,1113.4194,2030,1104.4194,2026,1108.4194,2022,1104.4194,2026,1113.4194" style="stroke:#181818;stroke-width:1.0;"/><text fill="#000000" font-family="sans-serif" font-size="13" lengthAdjust="spacing" textLength="21" x="2027" y="1009.1045">has</text><text fill="#000000" font-family="sans-serif" font-size="13" lengthAdjust="spacing" textLength="5" x="2020.7695" y="986.5102">*</text><text fill="#000000" font-family="sans-serif" font-size="13" lengthAdjust="spacing" textLength="7" x="2018.3109" y="1102.8783">1</text></g><!--SRC=[hLTBSzCm4BxxLsZ2ZO4CN3DCcT9ow0nj82tbhDWRHrIMZ1vDGwV_dVKZYMn9ZjF1boJMFh_T_RGnp70WbxAWJ91hcG5FafAc3pG7Cha7hO6JypnNa5C34_AS47nIJhKcxUcdJr-5OMRxxY2taDASdJMorNDrFHUsM8AQ4IRC_hMW1Sp8hL5CvFNBbyGnFzy8K7lhhZbFh_PnUJ3UiND1LIxHpZtb5iXy-HlIJd1tszAtziFIsksCPD8kEGJCAjWuqP7d4P6WoZLKE1nNZEOfg65IK5u7rplB4FlvwWjJPjt3zSMhQfNsS6LhYT7uPw1JnSegEEyifUYyZsRr5FI95RQugPjZlbh8ZUv2iAJRtXl3G6aNO3-rUwQPkP66hLXQepMSfoyURUc1OYce6Wkr5q3r0OFFv4s9KqKq5brOpXsyKlGhnHqhuDRGeWmWsaZChKbbU580nugueQCb0yyZ9-oQ2hO2ROvDY0bDo9-Z4_9DqWmrQkixLm4llk9FmKzITJlWTitA4bNFSn1chd9K_ZlO0t65CSJMQmAEKlmcD1wKc-1xGvzkUjJOmU8yonHswIvvlpZQA03ZZro87qgf3UKNs8- -lBJ2gEq07JlGBA34e10l_FK8h-FeOrm6U2DnFuEr5E03vdR0TwaCkH8hHH4QcngheZntATE7rvGvc1m7aLUyswEu3Ch0MoI-IqLN9bBrMoCL9dEkW0RHxGSKd53qSH4ZtjGgLVLxcjgIYdHmYlUa6Ed0L4g5quguwT6t0fQi-d07rz3Lgg8a_5LWQD5vhUHwj-WfF1sitGdDLZso1DMsxYycChdnnwd1jw9ZgwFCtQJH20sITXyiN4_uqTkjA_I_sdoWekuGhhSQFNEo02sjIgCZk1FSousCqzkAJbn9d18UXiHDNeEnPNKvXsu-n7K1VonJTQl62xpBQao9awHTg2Tl9-Jz-pCo-JXnDx4PMLDDVA7f5Bysot8jajIijZz_wnjf9JuUtEo7V4PuzHKoGatYij29qextsjciMe0UGIVnw_RWeSaeVjyqIOomjCzzl4hZV7VhTXBS8UzPznV8nbtir2rmYywQbYK87VBHR6UDnU1AvGftLxf6AR9E7LEBHh_J-p2TriqGi7sIXKXyup7q5k2ERgTrwtzjpMdzjGFquUzP8p7GWkEQGDjbmGpsdNDdkQFXaT-CM0rn-RPPDb8zn8MwjDysVaWMKt0le5RKY-cOxRW2EkWIOAln3m00]--></g></svg>