<?xml version="1.0" encoding="us-ascii" standalone="no"?><svg xmlns="http://www.w3.org/2000/svg" xmlns:xlink="http://www.w3.org/1999/xlink" contentStyleType="text/css" height="1443px" preserveAspectRatio="none" style="width:2280px;height:1443px;background:#FFFFFF;" version="1.1" viewBox="0 0 2280 1443" width="2280px" zoomAndPan="magnify"><defs/><g><text fill="#000000" font-family="sans-serif" font-size="14" font-weight="bold" lengthAdjust="spacing" textLength="100" x="1083" y="24.5332">Domain Model</text><!--cluster Vessel Aggregate--><g id="cluster_Vessel Aggregate"><path d="M124.5,782.6094 L249.5,782.6094 A3.75,3.75 0 0 1 252,785.1094 L259,806.2188 L501.5,806.2188 A2.5,2.5 0 0 1 504,808.7188 L504,1434.1094 A2.5,2.5 0 0 1 501.5,1436.6094 L124.5,1436.6094 A2.5,2.5 0 0 1 122,1434.1094 L122,785.1094 A2.5,2.5 0 0 1 124.5,782.6094 " fill="none" style="stroke:#000000;stroke-width:1.5;"/><line style="stroke:#000000;stroke-width:1.5;" x1="122" x2="259" y1="806.2188" y2="806.2188"/><text fill="#000000" font-family="sans-serif" font-size="14" font-weight="bold" lengthAdjust="spacing" textLength="124" x="126" y="799.1426">Vessel Aggregate</text></g><!--cluster VesselType Aggregate--><g id="cluster_VesselType Aggregate"><path d="M1153.5,1011.6094 L1311.5,1011.6094 A3.75,3.75 0 0 1 1314,1014.1094 L1321,1035.2188 L1372.5,1035.2188 A2.5,2.5 0 0 1 1375,1037.7188 L1375,1225.1094 A2.5,2.5 0 0 1 1372.5,1227.6094 L1153.5,1227.6094 A2.5,2.5 0 0 1 1151,1225.1094 L1151,1014.1094 A2.5,2.5 0 0 1 1153.5,1011.6094 " fill="none" style="stroke:#000000;stroke-width:1.5;"/><line style="stroke:#000000;stroke-width:1.5;" x1="1151" x2="1321" y1="1035.2188" y2="1035.2188"/><text fill="#000000" font-family="sans-serif" font-size="14" font-weight="bold" lengthAdjust="spacing" textLength="157" x="1155" y="1028.1426">VesselType Aggregate</text></g><!--cluster VesselVisitNotification Aggregate--><g id="cluster_VesselVisitNotification Aggregate"><path d="M530.5,509.6094 L765.5,509.6094 A3.75,3.75 0 0 1 768,512.1094 L775,533.2188 L1124.5,533.2188 A2.5,2.5 0 0 1 1127,535.7188 L1127,1190.1094 A2.5,2.5 0 0 1 1124.5,1192.6094 L530.5,1192.6094 A2.5,2.5 0 0 1 528,1190.1094 L528,512.1094 A2.5,2.5 0 0 1 530.5,509.6094 " fill="none" style="stroke:#000000;stroke-width:1.5;"/><line style="stroke:#000000;stroke-width:1.5;" x1="528" x2="775" y1="533.2188" y2="533.2188"/><text fill="#000000" font-family="sans-serif" font-size="14" font-weight="bold" lengthAdjust="spacing" textLength="234" x="532" y="526.1426">VesselVisitNotification Aggregate</text></g><!--cluster ShippingAgentOrganization Aggregate--><g id="cluster_ShippingAgentOrganization Aggregate"><path d="M8.5,44.6094 L278.5,44.6094 A3.75,3.75 0 0 1 281,47.1094 L288,68.2188 L408.5,68.2188 A2.5,2.5 0 0 1 411,70.7188 L411,448.1094 A2.5,2.5 0 0 1 408.5,450.6094 L8.5,450.6094 A2.5,2.5 0 0 1 6,448.1094 L6,47.1094 A2.5,2.5 0 0 1 8.5,44.6094 " fill="none" style="stroke:#000000;stroke-width:1.5;"/><line style="stroke:#000000;stroke-width:1.5;" x1="6" x2="288" y1="68.2188" y2="68.2188"/><text fill="#000000" font-family="sans-serif" font-size="14" font-weight="bold" lengthAdjust="spacing" textLength="269" x="10" y="61.1426">ShippingAgentOrganization Aggregate</text></g><!--cluster Port Infrastructure Aggregate--><g id="cluster_Port Infrastructure Aggregate"><path d="M1401.5,509.6094 L1609.5,509.6094 A3.75,3.75 0 0 1 1612,512.1094 L1619,533.2188 L1719.5,533.2188 A2.5,2.5 0 0 1 1722,535.7188 L1722,1190.1094 A2.5,2.5 0 0 1 1719.5,1192.6094 L1401.5,1192.6094 A2.5,2.5 0 0 1 1399,1190.1094 L1399,512.1094 A2.5,2.5 0 0 1 1401.5,509.6094 " fill="none" style="stroke:#000000;stroke-width:1.5;"/><line style="stroke:#000000;stroke-width:1.5;" x1="1399" x2="1619" y1="533.2188" y2="533.2188"/><text fill="#000000" font-family="sans-serif" font-size="14" font-weight="bold" lengthAdjust="spacing" textLength="207" x="1403" y="526.1426">Port Infrastructure Aggregate</text></g><!--cluster Staff Management Aggregate--><g id="cluster_Staff Management Aggregate"><path d="M1748.5,500.6094 L1953.5,500.6094 A3.75,3.75 0 0 1 1956,503.1094 L1963,524.2188 L1963.5,524.2188 A2.5,2.5 0 0 1 1966,526.7188 L1966,912.1094 A2.5,2.5 0 0 1 1963.5,914.6094 L1748.5,914.6094 A2.5,2.5 0 0 1 1746,912.1094 L1746,503.1094 A2.5,2.5 0 0 1 1748.5,500.6094 " fill="none" style="stroke:#000000;stroke-width:1.5;"/><line style="stroke:#000000;stroke-width:1.5;" x1="1746" x2="1963" y1="524.2188" y2="524.2188"/><text fill="#000000" font-family="sans-serif" font-size="14" font-weight="bold" lengthAdjust="spacing" textLength="204" x="1750" y="517.1426">Staff Management Aggregate</text></g><!--cluster Qualification Aggregate--><g id="cluster_Qualification Aggregate"><path d="M1835.5,1037.6094 L2001.5,1037.6094 A3.75,3.75 0 0 1 2004,1040.1094 L2011,1061.2188 L2024.5,1061.2188 A2.5,2.5 0 0 1 2027,1063.7188 L2027,1199.1094 A2.5,2.5 0 0 1 2024.5,1201.6094 L1835.5,1201.6094 A2.5,2.5 0 0 1 1833,1199.1094 L1833,1040.1094 A2.5,2.5 0 0 1 1835.5,1037.6094 " fill="none" style="stroke:#000000;stroke-width:1.5;"/><line style="stroke:#000000;stroke-width:1.5;" x1="1833" x2="2011" y1="1061.2188" y2="1061.2188"/><text fill="#000000" font-family="sans-serif" font-size="14" font-weight="bold" lengthAdjust="spacing" textLength="165" x="1837" y="1054.1426">Qualification Aggregate</text></g><!--cluster Physical Resource Aggregate--><g id="cluster_Physical Resource Aggregate"><path d="M2053.5,747.6094 L2260.5,747.6094 A3.75,3.75 0 0 1 2263,750.1094 L2270,771.2188 L2270.5,771.2188 A2.5,2.5 0 0 1 2273,773.7188 L2273,1176.1094 A2.5,2.5 0 0 1 2270.5,1178.6094 L2053.5,1178.6094 A2.5,2.5 0 0 1 2051,1176.1094 L2051,750.1094 A2.5,2.5 0 0 1 2053.5,747.6094 " fill="none" style="stroke:#000000;stroke-width:1.5;"/><line style="stroke:#000000;stroke-width:1.5;" x1="2051" x2="2270" y1="771.2188" y2="771.2188"/><text fill="#000000" font-family="sans-serif" font-size="14" font-weight="bold" lengthAdjust="spacing" textLength="206" x="2055" y="764.1426">Physical Resource Aggregate</text></g><!--class Vessel--><g id="elem_Vessel"><rect codeLine="4" fill="#F1F1F1" height="93.9219" id="Vessel" rx="2.5" ry="2.5" style="stroke:#181818;stroke-width:0.5;" width="161" x="326.5" y="818.6094"/><ellipse cx="341.5" cy="839.9609" fill="#ADD1B2" rx="11" ry="11" style="stroke:#181818;stroke-width:1.0;"/><path d="M344.2656,835.8359 Q344.4219,835.6172 344.6094,835.5078 Q344.7969,835.3984 345.0156,835.3984 Q345.3906,835.3984 345.625,835.6641 Q345.8594,835.9141 345.8594,836.5234 L345.8594,837.9766 Q345.8594,838.5859 345.625,838.8516 Q345.3906,839.1172 345.0156,839.1172 Q344.6719,839.1172 344.4688,838.9141 Q344.2656,838.7266 344.1563,838.2109 Q344.1094,837.8516 343.9219,837.6641 Q343.5938,837.2891 342.9844,837.0703 Q342.375,836.8516 341.75,836.8516 Q340.9844,836.8516 340.3438,837.1797 Q339.7188,837.5078 339.2188,838.2578 Q338.7344,839.0078 338.7344,840.0391 L338.7344,841.1328 Q338.7344,842.3672 339.625,843.1953 Q340.5156,844.0078 342.1094,844.0078 Q343.0469,844.0078 343.7031,843.7578 Q344.0938,843.6016 344.5156,843.1641 Q344.7813,842.8984 344.9219,842.8203 Q345.0781,842.7422 345.2813,842.7422 Q345.6094,842.7422 345.8594,843.0078 Q346.125,843.2578 346.125,843.6016 Q346.125,843.9453 345.7813,844.3516 Q345.2813,844.9297 344.4844,845.2578 Q343.4063,845.7109 342.1094,845.7109 Q340.5938,845.7109 339.3906,845.0859 Q338.4063,844.5859 337.7188,843.5234 Q337.0313,842.4453 337.0313,841.1641 L337.0313,840.0078 Q337.0313,838.6797 337.6406,837.5391 Q338.2656,836.3828 339.3594,835.7734 Q340.4531,835.1484 341.6875,835.1484 Q342.4219,835.1484 343.0625,835.3203 Q343.7188,835.4766 344.2656,835.8359 Z " fill="#000000"/><text fill="#000000" font-family="sans-serif" font-size="12" font-style="italic" lengthAdjust="spacing" textLength="133" x="353.5" y="836.0664">&#171;Entity, AggregateRoot&#187;</text><text fill="#000000" font-family="sans-serif" font-size="14" lengthAdjust="spacing" textLength="42" x="399" y="853.2363">Vessel</text><line style="stroke:#181818;stroke-width:0.5;" x1="327.5" x2="486.5" y1="861.3125" y2="861.3125"/><text fill="#000000" font-family="sans-serif" font-size="14" lengthAdjust="spacing" textLength="96" x="332.5" y="879.8457">IMOnumber: int</text><text fill="#000000" font-family="sans-serif" font-size="14" lengthAdjust="spacing" textLength="80" x="332.5" y="897.4551">name: String</text><line style="stroke:#181818;stroke-width:0.5;" x1="327.5" x2="486.5" y1="904.5313" y2="904.5313"/></g><!--class Owner--><g id="elem_Owner"><rect codeLine="9" fill="#F1F1F1" height="93.9219" id="Owner" rx="2.5" ry="2.5" style="stroke:#181818;stroke-width:0.5;" width="92" x="138" y="1082.6094"/><ellipse cx="161.55" cy="1103.9609" fill="#ADD1B2" rx="11" ry="11" style="stroke:#181818;stroke-width:1.0;"/><path d="M164.3156,1099.8359 Q164.4719,1099.6172 164.6594,1099.5078 Q164.8469,1099.3984 165.0656,1099.3984 Q165.4406,1099.3984 165.675,1099.6641 Q165.9094,1099.9141 165.9094,1100.5234 L165.9094,1101.9766 Q165.9094,1102.5859 165.675,1102.8516 Q165.4406,1103.1172 165.0656,1103.1172 Q164.7219,1103.1172 164.5188,1102.9141 Q164.3156,1102.7266 164.2063,1102.2109 Q164.1594,1101.8516 163.9719,1101.6641 Q163.6438,1101.2891 163.0344,1101.0703 Q162.425,1100.8516 161.8,1100.8516 Q161.0344,1100.8516 160.3938,1101.1797 Q159.7688,1101.5078 159.2688,1102.2578 Q158.7844,1103.0078 158.7844,1104.0391 L158.7844,1105.1328 Q158.7844,1106.3672 159.675,1107.1953 Q160.5656,1108.0078 162.1594,1108.0078 Q163.0969,1108.0078 163.7531,1107.7578 Q164.1438,1107.6016 164.5656,1107.1641 Q164.8313,1106.8984 164.9719,1106.8203 Q165.1281,1106.7422 165.3313,1106.7422 Q165.6594,1106.7422 165.9094,1107.0078 Q166.175,1107.2578 166.175,1107.6016 Q166.175,1107.9453 165.8313,1108.3516 Q165.3313,1108.9297 164.5344,1109.2578 Q163.4563,1109.7109 162.1594,1109.7109 Q160.6438,1109.7109 159.4406,1109.0859 Q158.4563,1108.5859 157.7688,1107.5234 Q157.0813,1106.4453 157.0813,1105.1641 L157.0813,1104.0078 Q157.0813,1102.6797 157.6906,1101.5391 Q158.3156,1100.3828 159.4094,1099.7734 Q160.5031,1099.1484 161.7375,1099.1484 Q162.4719,1099.1484 163.1125,1099.3203 Q163.7688,1099.4766 164.3156,1099.8359 Z " fill="#000000"/><text fill="#000000" font-family="sans-serif" font-size="12" font-style="italic" lengthAdjust="spacing" textLength="44" x="175.95" y="1100.0664">&#171;Entity&#187;</text><text fill="#000000" font-family="sans-serif" font-size="14" lengthAdjust="spacing" textLength="41" x="177.45" y="1117.2363">Owner</text><line style="stroke:#181818;stroke-width:0.5;" x1="139" x2="229" y1="1125.3125" y2="1125.3125"/><text fill="#000000" font-family="sans-serif" font-size="14" lengthAdjust="spacing" textLength="80" x="144" y="1143.8457">name: String</text><text fill="#000000" font-family="sans-serif" font-size="14" lengthAdjust="spacing" textLength="36" x="144" y="1161.4551">ID: int</text><line style="stroke:#181818;stroke-width:0.5;" x1="139" x2="229" y1="1168.5313" y2="1168.5313"/></g><!--class Cargo--><g id="elem_Cargo"><rect codeLine="14" fill="#F1F1F1" height="93.9219" id="Cargo" rx="2.5" ry="2.5" style="stroke:#181818;stroke-width:0.5;" width="116" x="265" y="1082.6094"/><ellipse cx="281.35" cy="1103.9609" fill="#ADD1B2" rx="11" ry="11" style="stroke:#181818;stroke-width:1.0;"/><path d="M284.1156,1099.8359 Q284.2719,1099.6172 284.4594,1099.5078 Q284.6469,1099.3984 284.8656,1099.3984 Q285.2406,1099.3984 285.475,1099.6641 Q285.7094,1099.9141 285.7094,1100.5234 L285.7094,1101.9766 Q285.7094,1102.5859 285.475,1102.8516 Q285.2406,1103.1172 284.8656,1103.1172 Q284.5219,1103.1172 284.3188,1102.9141 Q284.1156,1102.7266 284.0063,1102.2109 Q283.9594,1101.8516 283.7719,1101.6641 Q283.4438,1101.2891 282.8344,1101.0703 Q282.225,1100.8516 281.6,1100.8516 Q280.8344,1100.8516 280.1938,1101.1797 Q279.5688,1101.5078 279.0688,1102.2578 Q278.5844,1103.0078 278.5844,1104.0391 L278.5844,1105.1328 Q278.5844,1106.3672 279.475,1107.1953 Q280.3656,1108.0078 281.9594,1108.0078 Q282.8969,1108.0078 283.5531,1107.7578 Q283.9438,1107.6016 284.3656,1107.1641 Q284.6313,1106.8984 284.7719,1106.8203 Q284.9281,1106.7422 285.1313,1106.7422 Q285.4594,1106.7422 285.7094,1107.0078 Q285.975,1107.2578 285.975,1107.6016 Q285.975,1107.9453 285.6313,1108.3516 Q285.1313,1108.9297 284.3344,1109.2578 Q283.2563,1109.7109 281.9594,1109.7109 Q280.4438,1109.7109 279.2406,1109.0859 Q278.2563,1108.5859 277.5688,1107.5234 Q276.8813,1106.4453 276.8813,1105.1641 L276.8813,1104.0078 Q276.8813,1102.6797 277.4906,1101.5391 Q278.1156,1100.3828 279.2094,1099.7734 Q280.3031,1099.1484 281.5375,1099.1484 Q282.2719,1099.1484 282.9125,1099.3203 Q283.5688,1099.4766 284.1156,1099.8359 Z " fill="#000000"/><text fill="#000000" font-family="sans-serif" font-size="12" font-style="italic" lengthAdjust="spacing" textLength="85" x="293.65" y="1100.0664">&#171;Value Object&#187;</text><text fill="#000000" font-family="sans-serif" font-size="14" lengthAdjust="spacing" textLength="39" x="316.65" y="1117.2363">Cargo</text><line style="stroke:#181818;stroke-width:0.5;" x1="266" x2="380" y1="1125.3125" y2="1125.3125"/><text fill="#000000" font-family="sans-serif" font-size="14" lengthAdjust="spacing" textLength="77" x="271" y="1143.8457">Type: String</text><text fill="#000000" font-family="sans-serif" font-size="14" lengthAdjust="spacing" textLength="104" x="271" y="1161.4551">Quantity: double</text><line style="stroke:#181818;stroke-width:0.5;" x1="266" x2="380" y1="1168.5313" y2="1168.5313"/></g><!--class Crew--><g id="elem_Crew"><rect codeLine="19" fill="#F1F1F1" height="76.3125" id="Crew" rx="2.5" ry="2.5" style="stroke:#181818;stroke-width:0.5;" width="72" x="416" y="1091.6094"/><ellipse cx="431" cy="1112.9609" fill="#ADD1B2" rx="11" ry="11" style="stroke:#181818;stroke-width:1.0;"/><path d="M433.7656,1108.8359 Q433.9219,1108.6172 434.1094,1108.5078 Q434.2969,1108.3984 434.5156,1108.3984 Q434.8906,1108.3984 435.125,1108.6641 Q435.3594,1108.9141 435.3594,1109.5234 L435.3594,1110.9766 Q435.3594,1111.5859 435.125,1111.8516 Q434.8906,1112.1172 434.5156,1112.1172 Q434.1719,1112.1172 433.9688,1111.9141 Q433.7656,1111.7266 433.6563,1111.2109 Q433.6094,1110.8516 433.4219,1110.6641 Q433.0938,1110.2891 432.4844,1110.0703 Q431.875,1109.8516 431.25,1109.8516 Q430.4844,1109.8516 429.8438,1110.1797 Q429.2188,1110.5078 428.7188,1111.2578 Q428.2344,1112.0078 428.2344,1113.0391 L428.2344,1114.1328 Q428.2344,1115.3672 429.125,1116.1953 Q430.0156,1117.0078 431.6094,1117.0078 Q432.5469,1117.0078 433.2031,1116.7578 Q433.5938,1116.6016 434.0156,1116.1641 Q434.2813,1115.8984 434.4219,1115.8203 Q434.5781,1115.7422 434.7813,1115.7422 Q435.1094,1115.7422 435.3594,1116.0078 Q435.625,1116.2578 435.625,1116.6016 Q435.625,1116.9453 435.2813,1117.3516 Q434.7813,1117.9297 433.9844,1118.2578 Q432.9063,1118.7109 431.6094,1118.7109 Q430.0938,1118.7109 428.8906,1118.0859 Q427.9063,1117.5859 427.2188,1116.5234 Q426.5313,1115.4453 426.5313,1114.1641 L426.5313,1113.0078 Q426.5313,1111.6797 427.1406,1110.5391 Q427.7656,1109.3828 428.8594,1108.7734 Q429.9531,1108.1484 431.1875,1108.1484 Q431.9219,1108.1484 432.5625,1108.3203 Q433.2188,1108.4766 433.7656,1108.8359 Z " fill="#000000"/><text fill="#000000" font-family="sans-serif" font-size="12" font-style="italic" lengthAdjust="spacing" textLength="44" x="443" y="1109.0664">&#171;Entity&#187;</text><text fill="#000000" font-family="sans-serif" font-size="14" lengthAdjust="spacing" textLength="32" x="449" y="1126.2363">Crew</text><line style="stroke:#181818;stroke-width:0.5;" x1="417" x2="487" y1="1134.3125" y2="1134.3125"/><text fill="#000000" font-family="sans-serif" font-size="14" lengthAdjust="spacing" textLength="36" x="422" y="1152.8457">ID: int</text><line style="stroke:#181818;stroke-width:0.5;" x1="417" x2="487" y1="1159.9219" y2="1159.9219"/></g><!--class CrewMember--><g id="elem_CrewMember"><rect codeLine="23" fill="#F1F1F1" height="129.1406" id="CrewMember" rx="2.5" ry="2.5" style="stroke:#181818;stroke-width:0.5;" width="129" x="358.5" y="1291.6094"/><ellipse cx="379.8" cy="1312.9609" fill="#ADD1B2" rx="11" ry="11" style="stroke:#181818;stroke-width:1.0;"/><path d="M382.5656,1308.8359 Q382.7219,1308.6172 382.9094,1308.5078 Q383.0969,1308.3984 383.3156,1308.3984 Q383.6906,1308.3984 383.925,1308.6641 Q384.1594,1308.9141 384.1594,1309.5234 L384.1594,1310.9766 Q384.1594,1311.5859 383.925,1311.8516 Q383.6906,1312.1172 383.3156,1312.1172 Q382.9719,1312.1172 382.7688,1311.9141 Q382.5656,1311.7266 382.4563,1311.2109 Q382.4094,1310.8516 382.2219,1310.6641 Q381.8938,1310.2891 381.2844,1310.0703 Q380.675,1309.8516 380.05,1309.8516 Q379.2844,1309.8516 378.6438,1310.1797 Q378.0188,1310.5078 377.5188,1311.2578 Q377.0344,1312.0078 377.0344,1313.0391 L377.0344,1314.1328 Q377.0344,1315.3672 377.925,1316.1953 Q378.8156,1317.0078 380.4094,1317.0078 Q381.3469,1317.0078 382.0031,1316.7578 Q382.3938,1316.6016 382.8156,1316.1641 Q383.0813,1315.8984 383.2219,1315.8203 Q383.3781,1315.7422 383.5813,1315.7422 Q383.9094,1315.7422 384.1594,1316.0078 Q384.425,1316.2578 384.425,1316.6016 Q384.425,1316.9453 384.0813,1317.3516 Q383.5813,1317.9297 382.7844,1318.2578 Q381.7063,1318.7109 380.4094,1318.7109 Q378.8938,1318.7109 377.6906,1318.0859 Q376.7063,1317.5859 376.0188,1316.5234 Q375.3313,1315.4453 375.3313,1314.1641 L375.3313,1313.0078 Q375.3313,1311.6797 375.9406,1310.5391 Q376.5656,1309.3828 377.6594,1308.7734 Q378.7531,1308.1484 379.9875,1308.1484 Q380.7219,1308.1484 381.3625,1308.3203 Q382.0188,1308.4766 382.5656,1308.8359 Z " fill="#000000"/><text fill="#000000" font-family="sans-serif" font-size="12" font-style="italic" lengthAdjust="spacing" textLength="44" x="414.7" y="1309.0664">&#171;Entity&#187;</text><text fill="#000000" font-family="sans-serif" font-size="14" lengthAdjust="spacing" textLength="83" x="395.2" y="1326.2363">CrewMember</text><line style="stroke:#181818;stroke-width:0.5;" x1="359.5" x2="486.5" y1="1334.3125" y2="1334.3125"/><text fill="#000000" font-family="sans-serif" font-size="14" lengthAdjust="spacing" textLength="36" x="364.5" y="1352.8457">ID: int</text><text fill="#000000" font-family="sans-serif" font-size="14" lengthAdjust="spacing" textLength="80" x="364.5" y="1370.4551">name: String</text><text fill="#000000" font-family="sans-serif" font-size="14" lengthAdjust="spacing" textLength="109" x="364.5" y="1388.0645">nationality: String</text><text fill="#000000" font-family="sans-serif" font-size="14" lengthAdjust="spacing" textLength="117" x="364.5" y="1405.6738">dateOfBirth: String</text><line style="stroke:#181818;stroke-width:0.5;" x1="359.5" x2="486.5" y1="1412.75" y2="1412.75"/></g><!--class VesselType--><g id="elem_VesselType"><rect codeLine="32" fill="#F1F1F1" height="164.3594" id="VesselType" rx="2.5" ry="2.5" style="stroke:#181818;stroke-width:0.5;" width="191" x="1167.5" y="1047.6094"/><ellipse cx="1221.75" cy="1068.9609" fill="#ADD1B2" rx="11" ry="11" style="stroke:#181818;stroke-width:1.0;"/><path d="M1224.5156,1064.8359 Q1224.6719,1064.6172 1224.8594,1064.5078 Q1225.0469,1064.3984 1225.2656,1064.3984 Q1225.6406,1064.3984 1225.875,1064.6641 Q1226.1094,1064.9141 1226.1094,1065.5234 L1226.1094,1066.9766 Q1226.1094,1067.5859 1225.875,1067.8516 Q1225.6406,1068.1172 1225.2656,1068.1172 Q1224.9219,1068.1172 1224.7188,1067.9141 Q1224.5156,1067.7266 1224.4063,1067.2109 Q1224.3594,1066.8516 1224.1719,1066.6641 Q1223.8438,1066.2891 1223.2344,1066.0703 Q1222.625,1065.8516 1222,1065.8516 Q1221.2344,1065.8516 1220.5938,1066.1797 Q1219.9688,1066.5078 1219.4688,1067.2578 Q1218.9844,1068.0078 1218.9844,1069.0391 L1218.9844,1070.1328 Q1218.9844,1071.3672 1219.875,1072.1953 Q1220.7656,1073.0078 1222.3594,1073.0078 Q1223.2969,1073.0078 1223.9531,1072.7578 Q1224.3438,1072.6016 1224.7656,1072.1641 Q1225.0313,1071.8984 1225.1719,1071.8203 Q1225.3281,1071.7422 1225.5313,1071.7422 Q1225.8594,1071.7422 1226.1094,1072.0078 Q1226.375,1072.2578 1226.375,1072.6016 Q1226.375,1072.9453 1226.0313,1073.3516 Q1225.5313,1073.9297 1224.7344,1074.2578 Q1223.6563,1074.7109 1222.3594,1074.7109 Q1220.8438,1074.7109 1219.6406,1074.0859 Q1218.6563,1073.5859 1217.9688,1072.5234 Q1217.2813,1071.4453 1217.2813,1070.1641 L1217.2813,1069.0078 Q1217.2813,1067.6797 1217.8906,1066.5391 Q1218.5156,1065.3828 1219.6094,1064.7734 Q1220.7031,1064.1484 1221.9375,1064.1484 Q1222.6719,1064.1484 1223.3125,1064.3203 Q1223.9688,1064.4766 1224.5156,1064.8359 Z " fill="#000000"/><text fill="#000000" font-family="sans-serif" font-size="12" font-style="italic" lengthAdjust="spacing" textLength="44" x="1257.25" y="1065.0664">&#171;Entity&#187;</text><text fill="#000000" font-family="sans-serif" font-size="14" lengthAdjust="spacing" textLength="74" x="1242.25" y="1082.2363">VesselType</text><line style="stroke:#181818;stroke-width:0.5;" x1="1168.5" x2="1357.5" y1="1090.3125" y2="1090.3125"/><text fill="#000000" font-family="sans-serif" font-size="14" lengthAdjust="spacing" textLength="80" x="1173.5" y="1108.8457">name: String</text><text fill="#000000" font-family="sans-serif" font-size="14" lengthAdjust="spacing" textLength="114" x="1173.5" y="1126.4551">description: String</text><text fill="#000000" font-family="sans-serif" font-size="14" lengthAdjust="spacing" textLength="103" x="1173.5" y="1144.0645">capacity: double</text><text fill="#000000" font-family="sans-serif" font-size="14" lengthAdjust="spacing" textLength="179" x="1173.5" y="1161.6738">maximumNumberOfRows: int</text><text fill="#000000" font-family="sans-serif" font-size="14" lengthAdjust="spacing" textLength="53" x="1173.5" y="1179.2832">bays: int</text><text fill="#000000" font-family="sans-serif" font-size="14" lengthAdjust="spacing" textLength="50" x="1173.5" y="1196.8926">tiers: int</text><line style="stroke:#181818;stroke-width:0.5;" x1="1168.5" x2="1357.5" y1="1203.9688" y2="1203.9688"/></g><!--class VesselVisitNotification--><g id="elem_VesselVisitNotification"><rect codeLine="43" fill="#F1F1F1" height="129.1406" id="VesselVisitNotification" rx="2.5" ry="2.5" style="stroke:#181818;stroke-width:0.5;" width="262" x="607" y="545.6094"/><ellipse cx="665.25" cy="566.9609" fill="#ADD1B2" rx="11" ry="11" style="stroke:#181818;stroke-width:1.0;"/><path d="M668.0156,562.8359 Q668.1719,562.6172 668.3594,562.5078 Q668.5469,562.3984 668.7656,562.3984 Q669.1406,562.3984 669.375,562.6641 Q669.6094,562.9141 669.6094,563.5234 L669.6094,564.9766 Q669.6094,565.5859 669.375,565.8516 Q669.1406,566.1172 668.7656,566.1172 Q668.4219,566.1172 668.2188,565.9141 Q668.0156,565.7266 667.9063,565.2109 Q667.8594,564.8516 667.6719,564.6641 Q667.3438,564.2891 666.7344,564.0703 Q666.125,563.8516 665.5,563.8516 Q664.7344,563.8516 664.0938,564.1797 Q663.4688,564.5078 662.9688,565.2578 Q662.4844,566.0078 662.4844,567.0391 L662.4844,568.1328 Q662.4844,569.3672 663.375,570.1953 Q664.2656,571.0078 665.8594,571.0078 Q666.7969,571.0078 667.4531,570.7578 Q667.8438,570.6016 668.2656,570.1641 Q668.5313,569.8984 668.6719,569.8203 Q668.8281,569.7422 669.0313,569.7422 Q669.3594,569.7422 669.6094,570.0078 Q669.875,570.2578 669.875,570.6016 Q669.875,570.9453 669.5313,571.3516 Q669.0313,571.9297 668.2344,572.2578 Q667.1563,572.7109 665.8594,572.7109 Q664.3438,572.7109 663.1406,572.0859 Q662.1563,571.5859 661.4688,570.5234 Q660.7813,569.4453 660.7813,568.1641 L660.7813,567.0078 Q660.7813,565.6797 661.3906,564.5391 Q662.0156,563.3828 663.1094,562.7734 Q664.2031,562.1484 665.4375,562.1484 Q666.1719,562.1484 666.8125,562.3203 Q667.4688,562.4766 668.0156,562.8359 Z " fill="#000000"/><text fill="#000000" font-family="sans-serif" font-size="12" font-style="italic" lengthAdjust="spacing" textLength="133" x="687.75" y="563.0664">&#171;Entity, AggregateRoot&#187;</text><text fill="#000000" font-family="sans-serif" font-size="14" lengthAdjust="spacing" textLength="137" x="685.75" y="580.2363">VesselVisitNotification</text><line style="stroke:#181818;stroke-width:0.5;" x1="608" x2="868" y1="588.3125" y2="588.3125"/><text fill="#000000" font-family="sans-serif" font-size="14" lengthAdjust="spacing" textLength="36" x="613" y="606.8457">ID: int</text><text fill="#000000" font-family="sans-serif" font-size="14" lengthAdjust="spacing" textLength="250" x="613" y="624.4551">rejectionReason: String? #pode ser null</text><text fill="#000000" font-family="sans-serif" font-size="14" lengthAdjust="spacing" textLength="168" x="613" y="642.0645">decisionTimeStamp: String</text><text fill="#000000" font-family="sans-serif" font-size="14" lengthAdjust="spacing" textLength="154" x="613" y="659.6738">decisionOutcome: String</text><line style="stroke:#181818;stroke-width:0.5;" x1="608" x2="868" y1="666.75" y2="666.75"/></g><!--class NotificationState--><g id="elem_NotificationState"><rect codeLine="50" fill="#F1F1F1" height="65.6094" id="NotificationState" rx="2.5" ry="2.5" style="stroke:#181818;stroke-width:0.5;" width="134" x="544" y="832.6094"/><ellipse cx="559" cy="848.6094" fill="#EB937F" rx="11" ry="11" style="stroke:#181818;stroke-width:1.0;"/><path d="M557.8594,849.4063 L557.8594,851.9063 L562.1875,851.9063 L562.1875,850.9844 Q562.1875,850.375 562.4219,850.1094 Q562.6719,849.8438 563.0469,849.8438 Q563.4219,849.8438 563.6563,850.1094 Q563.8906,850.375 563.8906,850.9844 L563.8906,853.6094 L555.8906,853.6094 Q555.2656,853.6094 555,853.375 Q554.75,853.1406 554.75,852.75 Q554.75,852.375 555.0156,852.1406 Q555.2813,851.9063 555.8906,851.9063 L556.1563,851.9063 L556.1563,845.25 L555.8906,845.25 Q555.2656,845.25 555,845.0156 Q554.75,844.7813 554.75,844.3906 Q554.75,844.0156 555,843.7813 Q555.2656,843.5469 555.8906,843.5469 L563.5156,843.5469 L563.5156,846.1406 Q563.5156,846.75 563.2813,847.0156 Q563.0625,847.2656 562.6719,847.2656 Q562.2969,847.2656 562.0625,847.0156 Q561.8281,846.75 561.8281,846.1406 L561.8281,845.25 L557.8594,845.25 L557.8594,847.7031 L559.3438,847.7031 Q559.3438,847.0469 559.4688,846.8594 Q559.7344,846.4531 560.2031,846.4531 Q560.5781,846.4531 560.8125,846.7188 Q561.0469,846.9688 561.0469,847.5781 L561.0469,849.5469 Q561.0469,850.0938 560.9219,850.2813 Q560.6563,850.6719 560.2031,850.6719 Q559.7344,850.6719 559.4688,850.2656 Q559.3438,850.0781 559.3438,849.4063 L557.8594,849.4063 Z " fill="#000000"/><text fill="#000000" font-family="sans-serif" font-size="14" lengthAdjust="spacing" textLength="102" x="573" y="854.3379">NotificationState</text><line style="stroke:#181818;stroke-width:0.5;" x1="545" x2="677" y1="864.6094" y2="864.6094"/><text fill="#000000" font-family="sans-serif" font-size="14" lengthAdjust="spacing" textLength="80" x="550" y="883.1426">name: String</text><line style="stroke:#181818;stroke-width:0.5;" x1="545" x2="677" y1="890.2188" y2="890.2188"/></g><!--class ManifestCargo--><g id="elem_ManifestCargo"><rect codeLine="54" fill="#F1F1F1" height="93.9219" id="ManifestCargo" rx="2.5" ry="2.5" style="stroke:#181818;stroke-width:0.5;" width="124" x="808" y="1082.6094"/><ellipse cx="823" cy="1103.9609" fill="#ADD1B2" rx="11" ry="11" style="stroke:#181818;stroke-width:1.0;"/><path d="M825.7656,1099.8359 Q825.9219,1099.6172 826.1094,1099.5078 Q826.2969,1099.3984 826.5156,1099.3984 Q826.8906,1099.3984 827.125,1099.6641 Q827.3594,1099.9141 827.3594,1100.5234 L827.3594,1101.9766 Q827.3594,1102.5859 827.125,1102.8516 Q826.8906,1103.1172 826.5156,1103.1172 Q826.1719,1103.1172 825.9688,1102.9141 Q825.7656,1102.7266 825.6563,1102.2109 Q825.6094,1101.8516 825.4219,1101.6641 Q825.0938,1101.2891 824.4844,1101.0703 Q823.875,1100.8516 823.25,1100.8516 Q822.4844,1100.8516 821.8438,1101.1797 Q821.2188,1101.5078 820.7188,1102.2578 Q820.2344,1103.0078 820.2344,1104.0391 L820.2344,1105.1328 Q820.2344,1106.3672 821.125,1107.1953 Q822.0156,1108.0078 823.6094,1108.0078 Q824.5469,1108.0078 825.2031,1107.7578 Q825.5938,1107.6016 826.0156,1107.1641 Q826.2813,1106.8984 826.4219,1106.8203 Q826.5781,1106.7422 826.7813,1106.7422 Q827.1094,1106.7422 827.3594,1107.0078 Q827.625,1107.2578 827.625,1107.6016 Q827.625,1107.9453 827.2813,1108.3516 Q826.7813,1108.9297 825.9844,1109.2578 Q824.9063,1109.7109 823.6094,1109.7109 Q822.0938,1109.7109 820.8906,1109.0859 Q819.9063,1108.5859 819.2188,1107.5234 Q818.5313,1106.4453 818.5313,1105.1641 L818.5313,1104.0078 Q818.5313,1102.6797 819.1406,1101.5391 Q819.7656,1100.3828 820.8594,1099.7734 Q821.9531,1099.1484 823.1875,1099.1484 Q823.9219,1099.1484 824.5625,1099.3203 Q825.2188,1099.4766 825.7656,1099.8359 Z " fill="#000000"/><text fill="#000000" font-family="sans-serif" font-size="12" font-style="italic" lengthAdjust="spacing" textLength="85" x="840.5" y="1100.0664">&#171;Value Object&#187;</text><text fill="#000000" font-family="sans-serif" font-size="14" lengthAdjust="spacing" textLength="92" x="837" y="1117.2363">ManifestCargo</text><line style="stroke:#181818;stroke-width:0.5;" x1="809" x2="931" y1="1125.3125" y2="1125.3125"/><text fill="#000000" font-family="sans-serif" font-size="14" lengthAdjust="spacing" textLength="72" x="814" y="1143.8457">type: String</text><text fill="#000000" font-family="sans-serif" font-size="14" lengthAdjust="spacing" textLength="101" x="814" y="1161.4551">quantity: double</text><line style="stroke:#181818;stroke-width:0.5;" x1="809" x2="931" y1="1168.5313" y2="1168.5313"/></g><!--class LoadingCargoManifest--><g id="elem_LoadingCargoManifest"><rect codeLine="59" fill="#F1F1F1" height="58.7031" id="LoadingCargoManifest" rx="2.5" ry="2.5" style="stroke:#181818;stroke-width:0.5;" width="175" x="713.5" y="836.1094"/><ellipse cx="728.5" cy="857.4609" fill="#ADD1B2" rx="11" ry="11" style="stroke:#181818;stroke-width:1.0;"/><path d="M731.2656,853.3359 Q731.4219,853.1172 731.6094,853.0078 Q731.7969,852.8984 732.0156,852.8984 Q732.3906,852.8984 732.625,853.1641 Q732.8594,853.4141 732.8594,854.0234 L732.8594,855.4766 Q732.8594,856.0859 732.625,856.3516 Q732.3906,856.6172 732.0156,856.6172 Q731.6719,856.6172 731.4688,856.4141 Q731.2656,856.2266 731.1563,855.7109 Q731.1094,855.3516 730.9219,855.1641 Q730.5938,854.7891 729.9844,854.5703 Q729.375,854.3516 728.75,854.3516 Q727.9844,854.3516 727.3438,854.6797 Q726.7188,855.0078 726.2188,855.7578 Q725.7344,856.5078 725.7344,857.5391 L725.7344,858.6328 Q725.7344,859.8672 726.625,860.6953 Q727.5156,861.5078 729.1094,861.5078 Q730.0469,861.5078 730.7031,861.2578 Q731.0938,861.1016 731.5156,860.6641 Q731.7813,860.3984 731.9219,860.3203 Q732.0781,860.2422 732.2813,860.2422 Q732.6094,860.2422 732.8594,860.5078 Q733.125,860.7578 733.125,861.1016 Q733.125,861.4453 732.7813,861.8516 Q732.2813,862.4297 731.4844,862.7578 Q730.4063,863.2109 729.1094,863.2109 Q727.5938,863.2109 726.3906,862.5859 Q725.4063,862.0859 724.7188,861.0234 Q724.0313,859.9453 724.0313,858.6641 L724.0313,857.5078 Q724.0313,856.1797 724.6406,855.0391 Q725.2656,853.8828 726.3594,853.2734 Q727.4531,852.6484 728.6875,852.6484 Q729.4219,852.6484 730.0625,852.8203 Q730.7188,852.9766 731.2656,853.3359 Z " fill="#000000"/><text fill="#000000" font-family="sans-serif" font-size="12" font-style="italic" lengthAdjust="spacing" textLength="85" x="771.5" y="853.5664">&#171;Value Object&#187;</text><text fill="#000000" font-family="sans-serif" font-size="14" lengthAdjust="spacing" textLength="143" x="742.5" y="870.7363">LoadingCargoManifest</text><line style="stroke:#181818;stroke-width:0.5;" x1="714.5" x2="887.5" y1="878.8125" y2="878.8125"/><line style="stroke:#181818;stroke-width:0.5;" x1="714.5" x2="887.5" y1="886.8125" y2="886.8125"/></g><!--class UnloadingCargoManifest--><g id="elem_UnloadingCargoManifest"><rect codeLine="63" fill="#F1F1F1" height="58.7031" id="UnloadingCargoManifest" rx="2.5" ry="2.5" style="stroke:#181818;stroke-width:0.5;" width="187" x="923.5" y="836.1094"/><ellipse cx="938.5" cy="857.4609" fill="#ADD1B2" rx="11" ry="11" style="stroke:#181818;stroke-width:1.0;"/><path d="M941.2656,853.3359 Q941.4219,853.1172 941.6094,853.0078 Q941.7969,852.8984 942.0156,852.8984 Q942.3906,852.8984 942.625,853.1641 Q942.8594,853.4141 942.8594,854.0234 L942.8594,855.4766 Q942.8594,856.0859 942.625,856.3516 Q942.3906,856.6172 942.0156,856.6172 Q941.6719,856.6172 941.4688,856.4141 Q941.2656,856.2266 941.1563,855.7109 Q941.1094,855.3516 940.9219,855.1641 Q940.5938,854.7891 939.9844,854.5703 Q939.375,854.3516 938.75,854.3516 Q937.9844,854.3516 937.3438,854.6797 Q936.7188,855.0078 936.2188,855.7578 Q935.7344,856.5078 935.7344,857.5391 L935.7344,858.6328 Q935.7344,859.8672 936.625,860.6953 Q937.5156,861.5078 939.1094,861.5078 Q940.0469,861.5078 940.7031,861.2578 Q941.0938,861.1016 941.5156,860.6641 Q941.7813,860.3984 941.9219,860.3203 Q942.0781,860.2422 942.2813,860.2422 Q942.6094,860.2422 942.8594,860.5078 Q943.125,860.7578 943.125,861.1016 Q943.125,861.4453 942.7813,861.8516 Q942.2813,862.4297 941.4844,862.7578 Q940.4063,863.2109 939.1094,863.2109 Q937.5938,863.2109 936.3906,862.5859 Q935.4063,862.0859 934.7188,861.0234 Q934.0313,859.9453 934.0313,858.6641 L934.0313,857.5078 Q934.0313,856.1797 934.6406,855.0391 Q935.2656,853.8828 936.3594,853.2734 Q937.4531,852.6484 938.6875,852.6484 Q939.4219,852.6484 940.0625,852.8203 Q940.7188,852.9766 941.2656,853.3359 Z " fill="#000000"/><text fill="#000000" font-family="sans-serif" font-size="12" font-style="italic" lengthAdjust="spacing" textLength="85" x="987.5" y="853.5664">&#171;Value Object&#187;</text><text fill="#000000" font-family="sans-serif" font-size="14" lengthAdjust="spacing" textLength="155" x="952.5" y="870.7363">UnloadingCargoManifest</text><line style="stroke:#181818;stroke-width:0.5;" x1="924.5" x2="1109.5" y1="878.8125" y2="878.8125"/><line style="stroke:#181818;stroke-width:0.5;" x1="924.5" x2="1109.5" y1="886.8125" y2="886.8125"/></g><!--class ShippingAgentOrganization--><g id="elem_ShippingAgentOrganization"><rect codeLine="69" fill="#F1F1F1" height="129.1406" id="ShippingAgentOrganization" rx="2.5" ry="2.5" style="stroke:#181818;stroke-width:0.5;" width="204" x="189" y="80.6094"/><ellipse cx="204" cy="101.9609" fill="#ADD1B2" rx="11" ry="11" style="stroke:#181818;stroke-width:1.0;"/><path d="M206.7656,97.8359 Q206.9219,97.6172 207.1094,97.5078 Q207.2969,97.3984 207.5156,97.3984 Q207.8906,97.3984 208.125,97.6641 Q208.3594,97.9141 208.3594,98.5234 L208.3594,99.9766 Q208.3594,100.5859 208.125,100.8516 Q207.8906,101.1172 207.5156,101.1172 Q207.1719,101.1172 206.9688,100.9141 Q206.7656,100.7266 206.6563,100.2109 Q206.6094,99.8516 206.4219,99.6641 Q206.0938,99.2891 205.4844,99.0703 Q204.875,98.8516 204.25,98.8516 Q203.4844,98.8516 202.8438,99.1797 Q202.2188,99.5078 201.7188,100.2578 Q201.2344,101.0078 201.2344,102.0391 L201.2344,103.1328 Q201.2344,104.3672 202.125,105.1953 Q203.0156,106.0078 204.6094,106.0078 Q205.5469,106.0078 206.2031,105.7578 Q206.5938,105.6016 207.0156,105.1641 Q207.2813,104.8984 207.4219,104.8203 Q207.5781,104.7422 207.7813,104.7422 Q208.1094,104.7422 208.3594,105.0078 Q208.625,105.2578 208.625,105.6016 Q208.625,105.9453 208.2813,106.3516 Q207.7813,106.9297 206.9844,107.2578 Q205.9063,107.7109 204.6094,107.7109 Q203.0938,107.7109 201.8906,107.0859 Q200.9063,106.5859 200.2188,105.5234 Q199.5313,104.4453 199.5313,103.1641 L199.5313,102.0078 Q199.5313,100.6797 200.1406,99.5391 Q200.7656,98.3828 201.8594,97.7734 Q202.9531,97.1484 204.1875,97.1484 Q204.9219,97.1484 205.5625,97.3203 Q206.2188,97.4766 206.7656,97.8359 Z " fill="#000000"/><text fill="#000000" font-family="sans-serif" font-size="12" font-style="italic" lengthAdjust="spacing" textLength="133" x="237.5" y="98.0664">&#171;Entity, AggregateRoot&#187;</text><text fill="#000000" font-family="sans-serif" font-size="14" lengthAdjust="spacing" textLength="172" x="218" y="115.2363">ShippingAgentOrganization</text><line style="stroke:#181818;stroke-width:0.5;" x1="190" x2="392" y1="123.3125" y2="123.3125"/><text fill="#000000" font-family="sans-serif" font-size="14" lengthAdjust="spacing" textLength="36" x="195" y="141.8457">ID: int</text><text fill="#000000" font-family="sans-serif" font-size="14" lengthAdjust="spacing" textLength="111" x="195" y="159.4551">legalName: String</text><text fill="#000000" font-family="sans-serif" font-size="14" lengthAdjust="spacing" textLength="96" x="195" y="177.0645">altName: String</text><text fill="#000000" font-family="sans-serif" font-size="14" lengthAdjust="spacing" textLength="90" x="195" y="194.6738">taxNumber: int</text><line style="stroke:#181818;stroke-width:0.5;" x1="190" x2="392" y1="201.75" y2="201.75"/></g><!--class Address--><g id="elem_Address"><rect codeLine="76" fill="#F1F1F1" height="129.1406" id="Address" rx="2.5" ry="2.5" style="stroke:#181818;stroke-width:0.5;" width="129" x="22.5" y="296.6094"/><ellipse cx="46.05" cy="317.9609" fill="#ADD1B2" rx="11" ry="11" style="stroke:#181818;stroke-width:1.0;"/><path d="M48.8156,313.8359 Q48.9719,313.6172 49.1594,313.5078 Q49.3469,313.3984 49.5656,313.3984 Q49.9406,313.3984 50.175,313.6641 Q50.4094,313.9141 50.4094,314.5234 L50.4094,315.9766 Q50.4094,316.5859 50.175,316.8516 Q49.9406,317.1172 49.5656,317.1172 Q49.2219,317.1172 49.0188,316.9141 Q48.8156,316.7266 48.7063,316.2109 Q48.6594,315.8516 48.4719,315.6641 Q48.1438,315.2891 47.5344,315.0703 Q46.925,314.8516 46.3,314.8516 Q45.5344,314.8516 44.8938,315.1797 Q44.2688,315.5078 43.7688,316.2578 Q43.2844,317.0078 43.2844,318.0391 L43.2844,319.1328 Q43.2844,320.3672 44.175,321.1953 Q45.0656,322.0078 46.6594,322.0078 Q47.5969,322.0078 48.2531,321.7578 Q48.6438,321.6016 49.0656,321.1641 Q49.3313,320.8984 49.4719,320.8203 Q49.6281,320.7422 49.8313,320.7422 Q50.1594,320.7422 50.4094,321.0078 Q50.675,321.2578 50.675,321.6016 Q50.675,321.9453 50.3313,322.3516 Q49.8313,322.9297 49.0344,323.2578 Q47.9563,323.7109 46.6594,323.7109 Q45.1438,323.7109 43.9406,323.0859 Q42.9563,322.5859 42.2688,321.5234 Q41.5813,320.4453 41.5813,319.1641 L41.5813,318.0078 Q41.5813,316.6797 42.1906,315.5391 Q42.8156,314.3828 43.9094,313.7734 Q45.0031,313.1484 46.2375,313.1484 Q46.9719,313.1484 47.6125,313.3203 Q48.2688,313.4766 48.8156,313.8359 Z " fill="#000000"/><text fill="#000000" font-family="sans-serif" font-size="12" font-style="italic" lengthAdjust="spacing" textLength="82" x="59.95" y="314.0664">&#171;ValueObject&#187;</text><text fill="#000000" font-family="sans-serif" font-size="14" lengthAdjust="spacing" textLength="52" x="74.95" y="331.2363">Address</text><line style="stroke:#181818;stroke-width:0.5;" x1="23.5" x2="150.5" y1="339.3125" y2="339.3125"/><text fill="#000000" font-family="sans-serif" font-size="14" lengthAdjust="spacing" textLength="81" x="28.5" y="357.8457">street: String</text><text fill="#000000" font-family="sans-serif" font-size="14" lengthAdjust="spacing" textLength="66" x="28.5" y="375.4551">city: String</text><text fill="#000000" font-family="sans-serif" font-size="14" lengthAdjust="spacing" textLength="117" x="28.5" y="393.0645">postalCode: String</text><text fill="#000000" font-family="sans-serif" font-size="14" lengthAdjust="spacing" textLength="92" x="28.5" y="410.6738">country: String</text><line style="stroke:#181818;stroke-width:0.5;" x1="23.5" x2="150.5" y1="417.75" y2="417.75"/></g><!--class OrganizationRepresentative--><g id="elem_OrganizationRepresentative"><rect codeLine="83" fill="#F1F1F1" height="146.75" id="OrganizationRepresentative" rx="2.5" ry="2.5" style="stroke:#181818;stroke-width:0.5;" width="208" x="187" y="287.6094"/><ellipse cx="202" cy="308.9609" fill="#ADD1B2" rx="11" ry="11" style="stroke:#181818;stroke-width:1.0;"/><path d="M204.7656,304.8359 Q204.9219,304.6172 205.1094,304.5078 Q205.2969,304.3984 205.5156,304.3984 Q205.8906,304.3984 206.125,304.6641 Q206.3594,304.9141 206.3594,305.5234 L206.3594,306.9766 Q206.3594,307.5859 206.125,307.8516 Q205.8906,308.1172 205.5156,308.1172 Q205.1719,308.1172 204.9688,307.9141 Q204.7656,307.7266 204.6563,307.2109 Q204.6094,306.8516 204.4219,306.6641 Q204.0938,306.2891 203.4844,306.0703 Q202.875,305.8516 202.25,305.8516 Q201.4844,305.8516 200.8438,306.1797 Q200.2188,306.5078 199.7188,307.2578 Q199.2344,308.0078 199.2344,309.0391 L199.2344,310.1328 Q199.2344,311.3672 200.125,312.1953 Q201.0156,313.0078 202.6094,313.0078 Q203.5469,313.0078 204.2031,312.7578 Q204.5938,312.6016 205.0156,312.1641 Q205.2813,311.8984 205.4219,311.8203 Q205.5781,311.7422 205.7813,311.7422 Q206.1094,311.7422 206.3594,312.0078 Q206.625,312.2578 206.625,312.6016 Q206.625,312.9453 206.2813,313.3516 Q205.7813,313.9297 204.9844,314.2578 Q203.9063,314.7109 202.6094,314.7109 Q201.0938,314.7109 199.8906,314.0859 Q198.9063,313.5859 198.2188,312.5234 Q197.5313,311.4453 197.5313,310.1641 L197.5313,309.0078 Q197.5313,307.6797 198.1406,306.5391 Q198.7656,305.3828 199.8594,304.7734 Q200.9531,304.1484 202.1875,304.1484 Q202.9219,304.1484 203.5625,304.3203 Q204.2188,304.4766 204.7656,304.8359 Z " fill="#000000"/><text fill="#000000" font-family="sans-serif" font-size="12" font-style="italic" lengthAdjust="spacing" textLength="44" x="282" y="305.0664">&#171;Entity&#187;</text><text fill="#000000" font-family="sans-serif" font-size="14" lengthAdjust="spacing" textLength="176" x="216" y="322.2363">OrganizationRepresentative</text><line style="stroke:#181818;stroke-width:0.5;" x1="188" x2="394" y1="330.3125" y2="330.3125"/><text fill="#000000" font-family="sans-serif" font-size="14" lengthAdjust="spacing" textLength="80" x="193" y="348.8457">name: String</text><text fill="#000000" font-family="sans-serif" font-size="14" lengthAdjust="spacing" textLength="36" x="193" y="366.4551">ID: int</text><text fill="#000000" font-family="sans-serif" font-size="14" lengthAdjust="spacing" textLength="109" x="193" y="384.0645">nationality: String</text><text fill="#000000" font-family="sans-serif" font-size="14" lengthAdjust="spacing" textLength="78" x="193" y="401.6738">email: String</text><text fill="#000000" font-family="sans-serif" font-size="14" lengthAdjust="spacing" textLength="112" x="193" y="419.2832">phoneNumber: int</text><line style="stroke:#181818;stroke-width:0.5;" x1="188" x2="394" y1="426.3594" y2="426.3594"/></g><!--class Dock--><g id="elem_Dock"><rect codeLine="93" fill="#F1F1F1" height="146.75" id="Dock" rx="2.5" ry="2.5" style="stroke:#181818;stroke-width:0.5;" width="161" x="1415.5" y="792.1094"/><ellipse cx="1430.5" cy="813.4609" fill="#ADD1B2" rx="11" ry="11" style="stroke:#181818;stroke-width:1.0;"/><path d="M1433.2656,809.3359 Q1433.4219,809.1172 1433.6094,809.0078 Q1433.7969,808.8984 1434.0156,808.8984 Q1434.3906,808.8984 1434.625,809.1641 Q1434.8594,809.4141 1434.8594,810.0234 L1434.8594,811.4766 Q1434.8594,812.0859 1434.625,812.3516 Q1434.3906,812.6172 1434.0156,812.6172 Q1433.6719,812.6172 1433.4688,812.4141 Q1433.2656,812.2266 1433.1563,811.7109 Q1433.1094,811.3516 1432.9219,811.1641 Q1432.5938,810.7891 1431.9844,810.5703 Q1431.375,810.3516 1430.75,810.3516 Q1429.9844,810.3516 1429.3438,810.6797 Q1428.7188,811.0078 1428.2188,811.7578 Q1427.7344,812.5078 1427.7344,813.5391 L1427.7344,814.6328 Q1427.7344,815.8672 1428.625,816.6953 Q1429.5156,817.5078 1431.1094,817.5078 Q1432.0469,817.5078 1432.7031,817.2578 Q1433.0938,817.1016 1433.5156,816.6641 Q1433.7813,816.3984 1433.9219,816.3203 Q1434.0781,816.2422 1434.2813,816.2422 Q1434.6094,816.2422 1434.8594,816.5078 Q1435.125,816.7578 1435.125,817.1016 Q1435.125,817.4453 1434.7813,817.8516 Q1434.2813,818.4297 1433.4844,818.7578 Q1432.4063,819.2109 1431.1094,819.2109 Q1429.5938,819.2109 1428.3906,818.5859 Q1427.4063,818.0859 1426.7188,817.0234 Q1426.0313,815.9453 1426.0313,814.6641 L1426.0313,813.5078 Q1426.0313,812.1797 1426.6406,811.0391 Q1427.2656,809.8828 1428.3594,809.2734 Q1429.4531,808.6484 1430.6875,808.6484 Q1431.4219,808.6484 1432.0625,808.8203 Q1432.7188,808.9766 1433.2656,809.3359 Z " fill="#000000"/><text fill="#000000" font-family="sans-serif" font-size="12" font-style="italic" lengthAdjust="spacing" textLength="133" x="1442.5" y="809.5664">&#171;Entity, AggregateRoot&#187;</text><text fill="#000000" font-family="sans-serif" font-size="14" lengthAdjust="spacing" textLength="32" x="1493" y="826.7363">Dock</text><line style="stroke:#181818;stroke-width:0.5;" x1="1416.5" x2="1575.5" y1="834.8125" y2="834.8125"/><text fill="#000000" font-family="sans-serif" font-size="14" lengthAdjust="spacing" textLength="36" x="1421.5" y="853.3457">ID: int</text><text fill="#000000" font-family="sans-serif" font-size="14" lengthAdjust="spacing" textLength="80" x="1421.5" y="870.9551">name: String</text><text fill="#000000" font-family="sans-serif" font-size="14" lengthAdjust="spacing" textLength="90" x="1421.5" y="888.5645">length: double</text><text fill="#000000" font-family="sans-serif" font-size="14" lengthAdjust="spacing" textLength="87" x="1421.5" y="906.1738">depth: double</text><text fill="#000000" font-family="sans-serif" font-size="14" lengthAdjust="spacing" textLength="79" x="1421.5" y="923.7832">maxDraft: int</text><line style="stroke:#181818;stroke-width:0.5;" x1="1416.5" x2="1575.5" y1="930.8594" y2="930.8594"/></g><!--class StorageArea--><g id="elem_StorageArea"><rect codeLine="101" fill="#F1F1F1" height="129.1406" id="StorageArea" rx="2.5" ry="2.5" style="stroke:#181818;stroke-width:0.5;" width="179" x="1471.5" y="545.6094"/><ellipse cx="1516.75" cy="566.9609" fill="#ADD1B2" rx="11" ry="11" style="stroke:#181818;stroke-width:1.0;"/><path d="M1519.5156,562.8359 Q1519.6719,562.6172 1519.8594,562.5078 Q1520.0469,562.3984 1520.2656,562.3984 Q1520.6406,562.3984 1520.875,562.6641 Q1521.1094,562.9141 1521.1094,563.5234 L1521.1094,564.9766 Q1521.1094,565.5859 1520.875,565.8516 Q1520.6406,566.1172 1520.2656,566.1172 Q1519.9219,566.1172 1519.7188,565.9141 Q1519.5156,565.7266 1519.4063,565.2109 Q1519.3594,564.8516 1519.1719,564.6641 Q1518.8438,564.2891 1518.2344,564.0703 Q1517.625,563.8516 1517,563.8516 Q1516.2344,563.8516 1515.5938,564.1797 Q1514.9688,564.5078 1514.4688,565.2578 Q1513.9844,566.0078 1513.9844,567.0391 L1513.9844,568.1328 Q1513.9844,569.3672 1514.875,570.1953 Q1515.7656,571.0078 1517.3594,571.0078 Q1518.2969,571.0078 1518.9531,570.7578 Q1519.3438,570.6016 1519.7656,570.1641 Q1520.0313,569.8984 1520.1719,569.8203 Q1520.3281,569.7422 1520.5313,569.7422 Q1520.8594,569.7422 1521.1094,570.0078 Q1521.375,570.2578 1521.375,570.6016 Q1521.375,570.9453 1521.0313,571.3516 Q1520.5313,571.9297 1519.7344,572.2578 Q1518.6563,572.7109 1517.3594,572.7109 Q1515.8438,572.7109 1514.6406,572.0859 Q1513.6563,571.5859 1512.9688,570.5234 Q1512.2813,569.4453 1512.2813,568.1641 L1512.2813,567.0078 Q1512.2813,565.6797 1512.8906,564.5391 Q1513.5156,563.3828 1514.6094,562.7734 Q1515.7031,562.1484 1516.9375,562.1484 Q1517.6719,562.1484 1518.3125,562.3203 Q1518.9688,562.4766 1519.5156,562.8359 Z " fill="#000000"/><text fill="#000000" font-family="sans-serif" font-size="12" font-style="italic" lengthAdjust="spacing" textLength="44" x="1555.25" y="563.0664">&#171;Entity&#187;</text><text fill="#000000" font-family="sans-serif" font-size="14" lengthAdjust="spacing" textLength="80" x="1537.25" y="580.2363">StorageArea</text><line style="stroke:#181818;stroke-width:0.5;" x1="1472.5" x2="1649.5" y1="588.3125" y2="588.3125"/><text fill="#000000" font-family="sans-serif" font-size="14" lengthAdjust="spacing" textLength="36" x="1477.5" y="606.8457">ID: int</text><text fill="#000000" font-family="sans-serif" font-size="14" lengthAdjust="spacing" textLength="72" x="1477.5" y="624.4551">type: String</text><text fill="#000000" font-family="sans-serif" font-size="14" lengthAdjust="spacing" textLength="131" x="1477.5" y="642.0645">maxCapacity: double</text><text fill="#000000" font-family="sans-serif" font-size="14" lengthAdjust="spacing" textLength="167" x="1477.5" y="659.6738">currentOccupancy: double</text><line style="stroke:#181818;stroke-width:0.5;" x1="1472.5" x2="1649.5" y1="666.75" y2="666.75"/></g><!--class Location--><g id="elem_Location"><rect codeLine="108" fill="#F1F1F1" height="93.9219" id="Location" rx="2.5" ry="2.5" style="stroke:#181818;stroke-width:0.5;" width="131" x="1538.5" y="1082.6094"/><ellipse cx="1562.95" cy="1103.9609" fill="#ADD1B2" rx="11" ry="11" style="stroke:#181818;stroke-width:1.0;"/><path d="M1565.7156,1099.8359 Q1565.8719,1099.6172 1566.0594,1099.5078 Q1566.2469,1099.3984 1566.4656,1099.3984 Q1566.8406,1099.3984 1567.075,1099.6641 Q1567.3094,1099.9141 1567.3094,1100.5234 L1567.3094,1101.9766 Q1567.3094,1102.5859 1567.075,1102.8516 Q1566.8406,1103.1172 1566.4656,1103.1172 Q1566.1219,1103.1172 1565.9188,1102.9141 Q1565.7156,1102.7266 1565.6063,1102.2109 Q1565.5594,1101.8516 1565.3719,1101.6641 Q1565.0438,1101.2891 1564.4344,1101.0703 Q1563.825,1100.8516 1563.2,1100.8516 Q1562.4344,1100.8516 1561.7938,1101.1797 Q1561.1688,1101.5078 1560.6688,1102.2578 Q1560.1844,1103.0078 1560.1844,1104.0391 L1560.1844,1105.1328 Q1560.1844,1106.3672 1561.075,1107.1953 Q1561.9656,1108.0078 1563.5594,1108.0078 Q1564.4969,1108.0078 1565.1531,1107.7578 Q1565.5438,1107.6016 1565.9656,1107.1641 Q1566.2313,1106.8984 1566.3719,1106.8203 Q1566.5281,1106.7422 1566.7313,1106.7422 Q1567.0594,1106.7422 1567.3094,1107.0078 Q1567.575,1107.2578 1567.575,1107.6016 Q1567.575,1107.9453 1567.2313,1108.3516 Q1566.7313,1108.9297 1565.9344,1109.2578 Q1564.8563,1109.7109 1563.5594,1109.7109 Q1562.0438,1109.7109 1560.8406,1109.0859 Q1559.8563,1108.5859 1559.1688,1107.5234 Q1558.4813,1106.4453 1558.4813,1105.1641 L1558.4813,1104.0078 Q1558.4813,1102.6797 1559.0906,1101.5391 Q1559.7156,1100.3828 1560.8094,1099.7734 Q1561.9031,1099.1484 1563.1375,1099.1484 Q1563.8719,1099.1484 1564.5125,1099.3203 Q1565.1688,1099.4766 1565.7156,1099.8359 Z " fill="#000000"/><text fill="#000000" font-family="sans-serif" font-size="12" font-style="italic" lengthAdjust="spacing" textLength="82" x="1577.05" y="1100.0664">&#171;ValueObject&#187;</text><text fill="#000000" font-family="sans-serif" font-size="14" lengthAdjust="spacing" textLength="54" x="1591.05" y="1117.2363">Location</text><line style="stroke:#181818;stroke-width:0.5;" x1="1539.5" x2="1668.5" y1="1125.3125" y2="1125.3125"/><text fill="#000000" font-family="sans-serif" font-size="14" lengthAdjust="spacing" textLength="119" x="1544.5" y="1143.8457">coordinates: String</text><text fill="#000000" font-family="sans-serif" font-size="14" lengthAdjust="spacing" textLength="114" x="1544.5" y="1161.4551">description: String</text><line style="stroke:#181818;stroke-width:0.5;" x1="1539.5" x2="1668.5" y1="1168.5313" y2="1168.5313"/></g><!--class StaffMember--><g id="elem_StaffMember"><rect codeLine="115" fill="#F1F1F1" height="146.75" id="StaffMember" rx="2.5" ry="2.5" style="stroke:#181818;stroke-width:0.5;" width="177" x="1762.5" y="536.6094"/><ellipse cx="1784.7" cy="557.9609" fill="#ADD1B2" rx="11" ry="11" style="stroke:#181818;stroke-width:1.0;"/><path d="M1787.4656,553.8359 Q1787.6219,553.6172 1787.8094,553.5078 Q1787.9969,553.3984 1788.2156,553.3984 Q1788.5906,553.3984 1788.825,553.6641 Q1789.0594,553.9141 1789.0594,554.5234 L1789.0594,555.9766 Q1789.0594,556.5859 1788.825,556.8516 Q1788.5906,557.1172 1788.2156,557.1172 Q1787.8719,557.1172 1787.6688,556.9141 Q1787.4656,556.7266 1787.3563,556.2109 Q1787.3094,555.8516 1787.1219,555.6641 Q1786.7938,555.2891 1786.1844,555.0703 Q1785.575,554.8516 1784.95,554.8516 Q1784.1844,554.8516 1783.5438,555.1797 Q1782.9188,555.5078 1782.4188,556.2578 Q1781.9344,557.0078 1781.9344,558.0391 L1781.9344,559.1328 Q1781.9344,560.3672 1782.825,561.1953 Q1783.7156,562.0078 1785.3094,562.0078 Q1786.2469,562.0078 1786.9031,561.7578 Q1787.2938,561.6016 1787.7156,561.1641 Q1787.9813,560.8984 1788.1219,560.8203 Q1788.2781,560.7422 1788.4813,560.7422 Q1788.8094,560.7422 1789.0594,561.0078 Q1789.325,561.2578 1789.325,561.6016 Q1789.325,561.9453 1788.9813,562.3516 Q1788.4813,562.9297 1787.6844,563.2578 Q1786.6063,563.7109 1785.3094,563.7109 Q1783.7938,563.7109 1782.5906,563.0859 Q1781.6063,562.5859 1780.9188,561.5234 Q1780.2313,560.4453 1780.2313,559.1641 L1780.2313,558.0078 Q1780.2313,556.6797 1780.8406,555.5391 Q1781.4656,554.3828 1782.5594,553.7734 Q1783.6531,553.1484 1784.8875,553.1484 Q1785.6219,553.1484 1786.2625,553.3203 Q1786.9188,553.4766 1787.4656,553.8359 Z " fill="#000000"/><text fill="#000000" font-family="sans-serif" font-size="12" font-style="italic" lengthAdjust="spacing" textLength="133" x="1798.3" y="554.0664">&#171;Entity, AggregateRoot&#187;</text><text fill="#000000" font-family="sans-serif" font-size="14" lengthAdjust="spacing" textLength="80" x="1824.8" y="571.2363">StaffMember</text><line style="stroke:#181818;stroke-width:0.5;" x1="1763.5" x2="1938.5" y1="579.3125" y2="579.3125"/><text fill="#000000" font-family="sans-serif" font-size="14" lengthAdjust="spacing" textLength="36" x="1768.5" y="597.8457">ID: int</text><text fill="#000000" font-family="sans-serif" font-size="14" lengthAdjust="spacing" textLength="80" x="1768.5" y="615.4551">name: String</text><text fill="#000000" font-family="sans-serif" font-size="14" lengthAdjust="spacing" textLength="78" x="1768.5" y="633.0645">email: String</text><text fill="#000000" font-family="sans-serif" font-size="14" lengthAdjust="spacing" textLength="112" x="1768.5" y="650.6738">phoneNumber: int</text><text fill="#000000" font-family="sans-serif" font-size="14" lengthAdjust="spacing" textLength="165" x="1768.5" y="668.2832">operationalWindow: String</text><line style="stroke:#181818;stroke-width:0.5;" x1="1763.5" x2="1938.5" y1="675.3594" y2="675.3594"/></g><!--class MemberStatus--><g id="elem_MemberStatus"><rect codeLine="123" fill="#F1F1F1" height="65.6094" id="MemberStatus" rx="2.5" ry="2.5" style="stroke:#181818;stroke-width:0.5;" width="123" x="1762.5" y="832.6094"/><ellipse cx="1777.5" cy="848.6094" fill="#EB937F" rx="11" ry="11" style="stroke:#181818;stroke-width:1.0;"/><path d="M1776.3594,849.4063 L1776.3594,851.9063 L1780.6875,851.9063 L1780.6875,850.9844 Q1780.6875,850.375 1780.9219,850.1094 Q1781.1719,849.8438 1781.5469,849.8438 Q1781.9219,849.8438 1782.1563,850.1094 Q1782.3906,850.375 1782.3906,850.9844 L1782.3906,853.6094 L1774.3906,853.6094 Q1773.7656,853.6094 1773.5,853.375 Q1773.25,853.1406 1773.25,852.75 Q1773.25,852.375 1773.5156,852.1406 Q1773.7813,851.9063 1774.3906,851.9063 L1774.6563,851.9063 L1774.6563,845.25 L1774.3906,845.25 Q1773.7656,845.25 1773.5,845.0156 Q1773.25,844.7813 1773.25,844.3906 Q1773.25,844.0156 1773.5,843.7813 Q1773.7656,843.5469 1774.3906,843.5469 L1782.0156,843.5469 L1782.0156,846.1406 Q1782.0156,846.75 1781.7813,847.0156 Q1781.5625,847.2656 1781.1719,847.2656 Q1780.7969,847.2656 1780.5625,847.0156 Q1780.3281,846.75 1780.3281,846.1406 L1780.3281,845.25 L1776.3594,845.25 L1776.3594,847.7031 L1777.8438,847.7031 Q1777.8438,847.0469 1777.9688,846.8594 Q1778.2344,846.4531 1778.7031,846.4531 Q1779.0781,846.4531 1779.3125,846.7188 Q1779.5469,846.9688 1779.5469,847.5781 L1779.5469,849.5469 Q1779.5469,850.0938 1779.4219,850.2813 Q1779.1563,850.6719 1778.7031,850.6719 Q1778.2344,850.6719 1777.9688,850.2656 Q1777.8438,850.0781 1777.8438,849.4063 L1776.3594,849.4063 Z " fill="#000000"/><text fill="#000000" font-family="sans-serif" font-size="14" lengthAdjust="spacing" textLength="91" x="1791.5" y="854.3379">MemberStatus</text><line style="stroke:#181818;stroke-width:0.5;" x1="1763.5" x2="1884.5" y1="864.6094" y2="864.6094"/><text fill="#000000" font-family="sans-serif" font-size="14" lengthAdjust="spacing" textLength="80" x="1768.5" y="883.1426">name: String</text><line style="stroke:#181818;stroke-width:0.5;" x1="1763.5" x2="1884.5" y1="890.2188" y2="890.2188"/></g><!--class Qualification--><g id="elem_Qualification"><rect codeLine="129" fill="#F1F1F1" height="111.5313" id="Qualification" rx="2.5" ry="2.5" style="stroke:#181818;stroke-width:0.5;" width="161" x="1849.5" y="1073.6094"/><ellipse cx="1864.5" cy="1094.9609" fill="#ADD1B2" rx="11" ry="11" style="stroke:#181818;stroke-width:1.0;"/><path d="M1867.2656,1090.8359 Q1867.4219,1090.6172 1867.6094,1090.5078 Q1867.7969,1090.3984 1868.0156,1090.3984 Q1868.3906,1090.3984 1868.625,1090.6641 Q1868.8594,1090.9141 1868.8594,1091.5234 L1868.8594,1092.9766 Q1868.8594,1093.5859 1868.625,1093.8516 Q1868.3906,1094.1172 1868.0156,1094.1172 Q1867.6719,1094.1172 1867.4688,1093.9141 Q1867.2656,1093.7266 1867.1563,1093.2109 Q1867.1094,1092.8516 1866.9219,1092.6641 Q1866.5938,1092.2891 1865.9844,1092.0703 Q1865.375,1091.8516 1864.75,1091.8516 Q1863.9844,1091.8516 1863.3438,1092.1797 Q1862.7188,1092.5078 1862.2188,1093.2578 Q1861.7344,1094.0078 1861.7344,1095.0391 L1861.7344,1096.1328 Q1861.7344,1097.3672 1862.625,1098.1953 Q1863.5156,1099.0078 1865.1094,1099.0078 Q1866.0469,1099.0078 1866.7031,1098.7578 Q1867.0938,1098.6016 1867.5156,1098.1641 Q1867.7813,1097.8984 1867.9219,1097.8203 Q1868.0781,1097.7422 1868.2813,1097.7422 Q1868.6094,1097.7422 1868.8594,1098.0078 Q1869.125,1098.2578 1869.125,1098.6016 Q1869.125,1098.9453 1868.7813,1099.3516 Q1868.2813,1099.9297 1867.4844,1100.2578 Q1866.4063,1100.7109 1865.1094,1100.7109 Q1863.5938,1100.7109 1862.3906,1100.0859 Q1861.4063,1099.5859 1860.7188,1098.5234 Q1860.0313,1097.4453 1860.0313,1096.1641 L1860.0313,1095.0078 Q1860.0313,1093.6797 1860.6406,1092.5391 Q1861.2656,1091.3828 1862.3594,1090.7734 Q1863.4531,1090.1484 1864.6875,1090.1484 Q1865.4219,1090.1484 1866.0625,1090.3203 Q1866.7188,1090.4766 1867.2656,1090.8359 Z " fill="#000000"/><text fill="#000000" font-family="sans-serif" font-size="12" font-style="italic" lengthAdjust="spacing" textLength="133" x="1876.5" y="1091.0664">&#171;Entity, AggregateRoot&#187;</text><text fill="#000000" font-family="sans-serif" font-size="14" lengthAdjust="spacing" textLength="78" x="1904" y="1108.2363">Qualification</text><line style="stroke:#181818;stroke-width:0.5;" x1="1850.5" x2="2009.5" y1="1116.3125" y2="1116.3125"/><text fill="#000000" font-family="sans-serif" font-size="14" lengthAdjust="spacing" textLength="36" x="1855.5" y="1134.8457">ID: int</text><text fill="#000000" font-family="sans-serif" font-size="14" lengthAdjust="spacing" textLength="80" x="1855.5" y="1152.4551">name: String</text><text fill="#000000" font-family="sans-serif" font-size="14" lengthAdjust="spacing" textLength="114" x="1855.5" y="1170.0645">description: String</text><line style="stroke:#181818;stroke-width:0.5;" x1="1850.5" x2="2009.5" y1="1177.1406" y2="1177.1406"/></g><!--class PhysicalResource--><g id="elem_PhysicalResource"><rect codeLine="137" fill="#F1F1F1" height="164.3594" id="PhysicalResource" rx="2.5" ry="2.5" style="stroke:#181818;stroke-width:0.5;" width="179" x="2067.5" y="783.6094"/><ellipse cx="2090.6" cy="804.9609" fill="#ADD1B2" rx="11" ry="11" style="stroke:#181818;stroke-width:1.0;"/><path d="M2093.3656,800.8359 Q2093.5219,800.6172 2093.7094,800.5078 Q2093.8969,800.3984 2094.1156,800.3984 Q2094.4906,800.3984 2094.725,800.6641 Q2094.9594,800.9141 2094.9594,801.5234 L2094.9594,802.9766 Q2094.9594,803.5859 2094.725,803.8516 Q2094.4906,804.1172 2094.1156,804.1172 Q2093.7719,804.1172 2093.5688,803.9141 Q2093.3656,803.7266 2093.2563,803.2109 Q2093.2094,802.8516 2093.0219,802.6641 Q2092.6938,802.2891 2092.0844,802.0703 Q2091.475,801.8516 2090.85,801.8516 Q2090.0844,801.8516 2089.4438,802.1797 Q2088.8188,802.5078 2088.3188,803.2578 Q2087.8344,804.0078 2087.8344,805.0391 L2087.8344,806.1328 Q2087.8344,807.3672 2088.725,808.1953 Q2089.6156,809.0078 2091.2094,809.0078 Q2092.1469,809.0078 2092.8031,808.7578 Q2093.1938,808.6016 2093.6156,808.1641 Q2093.8813,807.8984 2094.0219,807.8203 Q2094.1781,807.7422 2094.3813,807.7422 Q2094.7094,807.7422 2094.9594,808.0078 Q2095.225,808.2578 2095.225,808.6016 Q2095.225,808.9453 2094.8813,809.3516 Q2094.3813,809.9297 2093.5844,810.2578 Q2092.5063,810.7109 2091.2094,810.7109 Q2089.6938,810.7109 2088.4906,810.0859 Q2087.5063,809.5859 2086.8188,808.5234 Q2086.1313,807.4453 2086.1313,806.1641 L2086.1313,805.0078 Q2086.1313,803.6797 2086.7406,802.5391 Q2087.3656,801.3828 2088.4594,800.7734 Q2089.5531,800.1484 2090.7875,800.1484 Q2091.5219,800.1484 2092.1625,800.3203 Q2092.8188,800.4766 2093.3656,800.8359 Z " fill="#000000"/><text fill="#000000" font-family="sans-serif" font-size="12" font-style="italic" lengthAdjust="spacing" textLength="133" x="2104.4" y="801.0664">&#171;Entity, AggregateRoot&#187;</text><text fill="#000000" font-family="sans-serif" font-size="14" lengthAdjust="spacing" textLength="113" x="2114.4" y="818.2363">PhysicalResource</text><line style="stroke:#181818;stroke-width:0.5;" x1="2068.5" x2="2245.5" y1="826.3125" y2="826.3125"/><text fill="#000000" font-family="sans-serif" font-size="14" lengthAdjust="spacing" textLength="58" x="2073.5" y="844.8457">ID: String</text><text fill="#000000" font-family="sans-serif" font-size="14" lengthAdjust="spacing" textLength="80" x="2073.5" y="862.4551">name: String</text><text fill="#000000" font-family="sans-serif" font-size="14" lengthAdjust="spacing" textLength="114" x="2073.5" y="880.0645">description: String</text><text fill="#000000" font-family="sans-serif" font-size="14" lengthAdjust="spacing" textLength="149" x="2073.5" y="897.6738">operationalCapacity: int</text><text fill="#000000" font-family="sans-serif" font-size="14" lengthAdjust="spacing" textLength="111" x="2073.5" y="915.2832">setupTime: String</text><text fill="#000000" font-family="sans-serif" font-size="14" lengthAdjust="spacing" textLength="167" x="2073.5" y="932.8926">qualifRequirements: String</text><line style="stroke:#181818;stroke-width:0.5;" x1="2068.5" x2="2245.5" y1="939.9688" y2="939.9688"/></g><!--class ResourceStatus--><g id="elem_ResourceStatus"><rect codeLine="146" fill="#F1F1F1" height="65.6094" id="ResourceStatus" rx="2.5" ry="2.5" style="stroke:#181818;stroke-width:0.5;" width="133" x="2090.5" y="1096.6094"/><ellipse cx="2105.5" cy="1112.6094" fill="#EB937F" rx="11" ry="11" style="stroke:#181818;stroke-width:1.0;"/><path d="M2104.3594,1113.4063 L2104.3594,1115.9063 L2108.6875,1115.9063 L2108.6875,1114.9844 Q2108.6875,1114.375 2108.9219,1114.1094 Q2109.1719,1113.8438 2109.5469,1113.8438 Q2109.9219,1113.8438 2110.1563,1114.1094 Q2110.3906,1114.375 2110.3906,1114.9844 L2110.3906,1117.6094 L2102.3906,1117.6094 Q2101.7656,1117.6094 2101.5,1117.375 Q2101.25,1117.1406 2101.25,1116.75 Q2101.25,1116.375 2101.5156,1116.1406 Q2101.7813,1115.9063 2102.3906,1115.9063 L2102.6563,1115.9063 L2102.6563,1109.25 L2102.3906,1109.25 Q2101.7656,1109.25 2101.5,1109.0156 Q2101.25,1108.7813 2101.25,1108.3906 Q2101.25,1108.0156 2101.5,1107.7813 Q2101.7656,1107.5469 2102.3906,1107.5469 L2110.0156,1107.5469 L2110.0156,1110.1406 Q2110.0156,1110.75 2109.7813,1111.0156 Q2109.5625,1111.2656 2109.1719,1111.2656 Q2108.7969,1111.2656 2108.5625,1111.0156 Q2108.3281,1110.75 2108.3281,1110.1406 L2108.3281,1109.25 L2104.3594,1109.25 L2104.3594,1111.7031 L2105.8438,1111.7031 Q2105.8438,1111.0469 2105.9688,1110.8594 Q2106.2344,1110.4531 2106.7031,1110.4531 Q2107.0781,1110.4531 2107.3125,1110.7188 Q2107.5469,1110.9688 2107.5469,1111.5781 L2107.5469,1113.5469 Q2107.5469,1114.0938 2107.4219,1114.2813 Q2107.1563,1114.6719 2106.7031,1114.6719 Q2106.2344,1114.6719 2105.9688,1114.2656 Q2105.8438,1114.0781 2105.8438,1113.4063 L2104.3594,1113.4063 Z " fill="#000000"/><text fill="#000000" font-family="sans-serif" font-size="14" lengthAdjust="spacing" textLength="101" x="2119.5" y="1118.3379">ResourceStatus</text><line style="stroke:#181818;stroke-width:0.5;" x1="2091.5" x2="2222.5" y1="1128.6094" y2="1128.6094"/><text fill="#000000" font-family="sans-serif" font-size="14" lengthAdjust="spacing" textLength="80" x="2096.5" y="1147.1426">name: String</text><line style="stroke:#181818;stroke-width:0.5;" x1="2091.5" x2="2222.5" y1="1154.2188" y2="1154.2188"/></g><!--link Vessel to VesselType--><g id="link_Vessel_VesselType"><path codeLine="151" d="M462.42,912.8194 C481.95,926.5394 504.84,939.9394 528,947.6094 C654.51,989.5294 1006.63,920.3794 1127,977.6094 C1159.66,993.1394 1184.1728,1015.7938 1206.3728,1042.9538 " fill="none" id="Vessel-to-VesselType" style="stroke:#181818;stroke-width:1.0;"/><polygon fill="#181818" points="1210.17,1047.5994,1207.5713,1038.0996,1207.0057,1043.7281,1201.3772,1043.1625,1210.17,1047.5994" style="stroke:#181818;stroke-width:1.0;"/><text fill="#000000" font-family="sans-serif" font-size="13" lengthAdjust="spacing" textLength="21" x="1157" y="992.1045">has</text><text fill="#000000" font-family="sans-serif" font-size="13" lengthAdjust="spacing" textLength="5" x="464.8619" y="934.1086">*</text><text fill="#000000" font-family="sans-serif" font-size="13" lengthAdjust="spacing" textLength="7" x="1197.9771" y="1036.7963">1</text></g><!--link Vessel to Owner--><g id="link_Vessel_Owner"><path codeLine="152" d="M341.64,912.8994 C310.31,937.3494 273.84,969.3594 247,1003.6094 C228.34,1027.4194 215.3493,1052.1488 204.4393,1076.9088 " fill="none" id="Vessel-to-Owner" style="stroke:#181818;stroke-width:1.0;"/><polygon fill="#181818" points="202.02,1082.3994,209.3094,1075.7763,204.0361,1077.8239,201.9886,1072.5506,202.02,1082.3994" style="stroke:#181818;stroke-width:1.0;"/><text fill="#000000" font-family="sans-serif" font-size="13" lengthAdjust="spacing" textLength="21" x="271" y="992.1045">has</text><text fill="#000000" font-family="sans-serif" font-size="13" lengthAdjust="spacing" textLength="5" x="327.5213" y="933.853">*</text><text fill="#000000" font-family="sans-serif" font-size="13" lengthAdjust="spacing" textLength="20" x="183.1979" y="1071.8171">1..*</text></g><!--link Dock to VesselType--><g id="link_Dock_VesselType"><path codeLine="153" d="M1431.41,939.2394 C1401.51,972.8594 1369.868,1008.4465 1339.088,1043.0465 " fill="none" id="Dock-to-VesselType" style="stroke:#181818;stroke-width:1.0;"/><polygon fill="#181818" points="1335.1,1047.5294,1344.0705,1043.4637,1338.4233,1043.7936,1338.0933,1038.1464,1335.1,1047.5294" style="stroke:#181818;stroke-width:1.0;"/><text fill="#000000" font-family="sans-serif" font-size="13" lengthAdjust="spacing" textLength="21" x="1395" y="992.1045">has</text><text fill="#000000" font-family="sans-serif" font-size="13" lengthAdjust="spacing" textLength="5" x="1420.2251" y="960.2875">*</text><text fill="#000000" font-family="sans-serif" font-size="13" lengthAdjust="spacing" textLength="5" x="1336.5163" y="1036.7199">*</text></g><!--link Dock to Location--><g id="link_Dock_Location"><path codeLine="154" d="M1525.94,939.2394 C1544.79,984.9794 1566.2731,1037.0923 1582.6031,1076.7023 " fill="none" id="Dock-to-Location" style="stroke:#181818;stroke-width:1.0;"/><polygon fill="#181818" points="1584.89,1082.2494,1585.1577,1072.4042,1582.9843,1077.6268,1577.7616,1075.4533,1584.89,1082.2494" style="stroke:#181818;stroke-width:1.0;"/><text fill="#000000" font-family="sans-serif" font-size="13" lengthAdjust="spacing" textLength="57" x="1548" y="992.1045">located at</text><text fill="#000000" font-family="sans-serif" font-size="13" lengthAdjust="spacing" textLength="7" x="1521.3774" y="960.2875">1</text><text fill="#000000" font-family="sans-serif" font-size="13" lengthAdjust="spacing" textLength="7" x="1574.5692" y="1071.645">1</text></g><!--link StorageArea to Location--><g id="link_StorageArea_Location"><path codeLine="155" d="M1579.58,674.7094 C1584.98,695.2694 1590.39,718.2594 1594,739.6094 C1613.04,852.1394 1618.28,881.5694 1614,995.6094 C1612.91,1024.5294 1611.0097,1050.9411 1608.8297,1076.5111 " fill="none" id="StorageArea-to-Location" style="stroke:#181818;stroke-width:1.0;"/><polygon fill="#181818" points="1608.32,1082.4894,1613.0701,1073.8617,1608.7447,1077.5074,1605.099,1073.1821,1608.32,1082.4894" style="stroke:#181818;stroke-width:1.0;"/><text fill="#000000" font-family="sans-serif" font-size="13" lengthAdjust="spacing" textLength="57" x="1617" y="871.1045">located at</text><text fill="#000000" font-family="sans-serif" font-size="13" lengthAdjust="spacing" textLength="7" x="1574.2294" y="696.1567">1</text><text fill="#000000" font-family="sans-serif" font-size="13" lengthAdjust="spacing" textLength="7" x="1601.4404" y="1071.9203">1</text></g><!--link StorageArea to Dock--><g id="link_StorageArea_Dock"><path codeLine="156" d="M1544.68,674.7494 C1535.54,710.3894 1525.5992,749.1571 1516.1192,786.1571 " fill="none" id="StorageArea-to-Dock" style="stroke:#181818;stroke-width:1.0;"/><polygon fill="#181818" points="1514.63,791.9694,1520.7386,784.2438,1515.871,787.1258,1512.989,782.2582,1514.63,791.9694" style="stroke:#181818;stroke-width:1.0;"/><text fill="#000000" font-family="sans-serif" font-size="13" lengthAdjust="spacing" textLength="37" x="1536" y="728.1045">serves</text><text fill="#000000" font-family="sans-serif" font-size="13" lengthAdjust="spacing" textLength="5" x="1537.6216" y="696.201">*</text><text fill="#000000" font-family="sans-serif" font-size="13" lengthAdjust="spacing" textLength="5" x="1511.2934" y="781.0764">*</text></g><!--link ShippingAgentOrganization to OrganizationRepresentative--><g id="link_ShippingAgentOrganization_OrganizationRepresentative"><path codeLine="157" d="M291,209.7394 C291,234.1294 291,256.1494 291,281.3394 " fill="none" id="ShippingAgentOrganization-to-OrganizationRepresentative" style="stroke:#181818;stroke-width:1.0;"/><polygon fill="#181818" points="291,287.3394,295,278.3394,291,282.3394,287,278.3394,291,287.3394" style="stroke:#181818;stroke-width:1.0;"/><text fill="#000000" font-family="sans-serif" font-size="13" lengthAdjust="spacing" textLength="21" x="292" y="254.1045">has</text><text fill="#000000" font-family="sans-serif" font-size="13" lengthAdjust="spacing" textLength="7" x="283.6172" y="231.1899">1</text><text fill="#000000" font-family="sans-serif" font-size="13" lengthAdjust="spacing" textLength="20" x="270.0156" y="276.8149">1..*</text></g><!--link ShippingAgentOrganization to Vessel--><g id="link_ShippingAgentOrganization_Vessel"><path codeLine="158" d="M362.08,209.7894 C382.16,232.1794 401.42,258.9594 412,287.6094 C480.88,474.1494 441.2186,712.4572 419.3486,812.7272 " fill="none" id="ShippingAgentOrganization-to-Vessel" style="stroke:#181818;stroke-width:1.0;"/><polygon fill="#181818" points="418.07,818.5894,423.896,810.6485,419.1355,813.7042,416.0798,808.9437,418.07,818.5894" style="stroke:#181818;stroke-width:1.0;"/><text fill="#000000" font-family="sans-serif" font-size="13" lengthAdjust="spacing" textLength="21" x="450" y="481.1045">has</text><text fill="#000000" font-family="sans-serif" font-size="13" lengthAdjust="spacing" textLength="7" x="362.4716" y="231.2454">1</text><text fill="#000000" font-family="sans-serif" font-size="13" lengthAdjust="spacing" textLength="5" x="414.3823" y="807.6925">*</text></g><!--link ShippingAgentOrganization to Address--><g id="link_ShippingAgentOrganization_Address"><path codeLine="159" d="M230.35,209.7394 C204.27,237.0894 177.9999,264.6464 151.9099,292.0164 " fill="none" id="ShippingAgentOrganization-to-Address" style="stroke:#181818;stroke-width:1.0;"/><polygon fill="#181818" points="147.77,296.3594,156.8751,292.6048,151.2199,292.7402,151.0845,287.085,147.77,296.3594" style="stroke:#181818;stroke-width:1.0;"/><text fill="#000000" font-family="sans-serif" font-size="13" lengthAdjust="spacing" textLength="57" x="203" y="254.1045">located at</text><text fill="#000000" font-family="sans-serif" font-size="13" lengthAdjust="spacing" textLength="7" x="216.3336" y="231.1899">1</text><text fill="#000000" font-family="sans-serif" font-size="13" lengthAdjust="spacing" textLength="20" x="133.323" y="285.909">1..*</text></g><!--link VesselVisitNotification to Vessel--><g id="link_VesselVisitNotification_Vessel"><path codeLine="160" d="M622.49,674.6094 C590.76,693.9494 557.11,716.2894 528,739.6094 C498.53,763.2094 473.0255,789.1202 450.5055,814.0102 " fill="none" id="VesselVisitNotification-to-Vessel" style="stroke:#181818;stroke-width:1.0;"/><polygon fill="#181818" points="446.48,818.4594,455.4844,814.4693,449.8346,814.7517,449.5522,809.1019,446.48,818.4594" style="stroke:#181818;stroke-width:1.0;"/><text fill="#000000" font-family="sans-serif" font-size="13" lengthAdjust="spacing" textLength="21" x="562" y="728.1045">has</text><text fill="#000000" font-family="sans-serif" font-size="13" lengthAdjust="spacing" textLength="5" x="604.5827" y="696.0457">*</text><text fill="#000000" font-family="sans-serif" font-size="13" lengthAdjust="spacing" textLength="7" x="444.7646" y="807.8859">1</text></g><!--link VesselVisitNotification to Dock--><g id="link_VesselVisitNotification_Dock"><path codeLine="161" d="M869.08,654.1394 C944.55,678.9794 1041.17,710.8994 1127,739.6094 C1226.42,772.8694 1335.0402,809.7456 1409.7602,835.1856 " fill="none" id="VesselVisitNotification-to-Dock" style="stroke:#181818;stroke-width:1.0;"/><polygon fill="#181818" points="1415.44,837.1194,1408.2095,830.4321,1410.7068,835.5079,1405.6311,838.0052,1415.44,837.1194" style="stroke:#181818;stroke-width:1.0;"/><text fill="#000000" font-family="sans-serif" font-size="13" lengthAdjust="spacing" textLength="49" x="1097" y="728.1045">happens</text><text fill="#000000" font-family="sans-serif" font-size="13" lengthAdjust="spacing" textLength="5" x="876.8026" y="653.7236">*</text><text fill="#000000" font-family="sans-serif" font-size="13" lengthAdjust="spacing" textLength="7" x="1400.428" y="831.1652">1</text></g><!--link Vessel to Cargo--><g id="link_Vessel_Cargo"><path codeLine="162" d="M392.18,912.8494 C376.87,960.5894 354.9512,1028.9456 339.6512,1076.6856 " fill="none" id="Vessel-to-Cargo" style="stroke:#181818;stroke-width:1.0;"/><polygon fill="#181818" points="337.82,1082.3994,344.3759,1075.0495,339.346,1077.6379,336.7576,1072.608,337.82,1082.3994" style="stroke:#181818;stroke-width:1.0;"/><text fill="#000000" font-family="sans-serif" font-size="13" lengthAdjust="spacing" textLength="21" x="372" y="992.1045">has</text><text fill="#000000" font-family="sans-serif" font-size="13" lengthAdjust="spacing" textLength="7" x="382.6038" y="934.1428">1</text><text fill="#000000" font-family="sans-serif" font-size="13" lengthAdjust="spacing" textLength="5" x="334.6295" y="1071.8171">*</text></g><!--link LoadingCargoManifest to ManifestCargo--><g id="link_LoadingCargoManifest_ManifestCargo"><path codeLine="163" d="M808.52,895.1494 C820.39,940.2394 842.0818,1022.5973 856.3418,1076.7373 " fill="none" id="LoadingCargoManifest-to-ManifestCargo" style="stroke:#181818;stroke-width:1.0;"/><polygon fill="#181818" points="857.87,1082.5394,859.4457,1072.8174,856.5965,1077.7043,851.7096,1074.855,857.87,1082.5394" style="stroke:#181818;stroke-width:1.0;"/><text fill="#000000" font-family="sans-serif" font-size="13" lengthAdjust="spacing" textLength="21" x="835" y="992.1045">has</text><text fill="#000000" font-family="sans-serif" font-size="13" lengthAdjust="spacing" textLength="7" x="802.3491" y="916.454">1</text><text fill="#000000" font-family="sans-serif" font-size="13" lengthAdjust="spacing" textLength="5" x="850.6298" y="1071.6348">*</text></g><!--link UnloadingCargoManifest to ManifestCargo--><g id="link_UnloadingCargoManifest_ManifestCargo"><path codeLine="164" d="M1000.99,895.1494 C975.69,940.2394 929.1662,1023.1669 898.7862,1077.3069 " fill="none" id="UnloadingCargoManifest-to-ManifestCargo" style="stroke:#181818;stroke-width:1.0;"/><polygon fill="#181818" points="895.85,1082.5394,903.7426,1076.6481,898.2968,1078.179,896.7659,1072.7332,895.85,1082.5394" style="stroke:#181818;stroke-width:1.0;"/><text fill="#000000" font-family="sans-serif" font-size="13" lengthAdjust="spacing" textLength="21" x="954" y="992.1045">has</text><text fill="#000000" font-family="sans-serif" font-size="13" lengthAdjust="spacing" textLength="7" x="989.9661" y="916.454">1</text><text fill="#000000" font-family="sans-serif" font-size="13" lengthAdjust="spacing" textLength="5" x="894.4255" y="1071.6348">*</text></g><!--link VesselVisitNotification to LoadingCargoManifest--><g id="link_VesselVisitNotification_LoadingCargoManifest"><path codeLine="165" d="M753.82,674.7494 C766.68,726.5194 782.7929,791.3365 792.4529,830.2065 " fill="none" id="VesselVisitNotification-to-LoadingCargoManifest" style="stroke:#181818;stroke-width:1.0;"/><polygon fill="#181818" points="793.9,836.0294,795.6113,826.3303,792.6941,831.177,787.8474,828.2598,793.9,836.0294" style="stroke:#181818;stroke-width:1.0;"/><text fill="#000000" font-family="sans-serif" font-size="13" lengthAdjust="spacing" textLength="21" x="769" y="728.1045">has</text><text fill="#000000" font-family="sans-serif" font-size="13" lengthAdjust="spacing" textLength="7" x="748.1675" y="696.201">1</text><text fill="#000000" font-family="sans-serif" font-size="13" lengthAdjust="spacing" textLength="22" x="767.9406" y="825.3748">0..1</text></g><!--link VesselVisitNotification to UnloadingCargoManifest--><g id="link_VesselVisitNotification_UnloadingCargoManifest"><path codeLine="166" d="M827.77,674.7494 C853.84,694.5494 881.79,717.1094 906,739.6094 C938.95,770.2294 968.8916,804.9548 990.3916,831.2448 " fill="none" id="VesselVisitNotification-to-UnloadingCargoManifest" style="stroke:#181818;stroke-width:1.0;"/><polygon fill="#181818" points="994.19,835.8894,991.5889,826.3902,991.0247,832.0189,985.396,831.4547,994.19,835.8894" style="stroke:#181818;stroke-width:1.0;"/><text fill="#000000" font-family="sans-serif" font-size="13" lengthAdjust="spacing" textLength="21" x="895" y="728.1045">has</text><text fill="#000000" font-family="sans-serif" font-size="13" lengthAdjust="spacing" textLength="7" x="830.2058" y="696.201">1</text><text fill="#000000" font-family="sans-serif" font-size="13" lengthAdjust="spacing" textLength="22" x="964.7941" y="825.2042">0..1</text></g><!--link VesselVisitNotification to NotificationState--><g id="link_VesselVisitNotification_NotificationState"><path codeLine="167" d="M706.12,674.7494 C680.99,724.9094 649.6776,787.405 629.8676,826.945 " fill="none" id="VesselVisitNotification-to-NotificationState" style="stroke:#181818;stroke-width:1.0;"/><polygon fill="#181818" points="627.18,832.3094,634.7877,826.0545,629.4197,827.839,627.6352,822.471,627.18,832.3094" style="stroke:#181818;stroke-width:1.0;"/><text fill="#000000" font-family="sans-serif" font-size="13" lengthAdjust="spacing" textLength="21" x="687" y="728.1045">has</text><text fill="#000000" font-family="sans-serif" font-size="13" lengthAdjust="spacing" textLength="5" x="697.3597" y="696.201">*</text><text fill="#000000" font-family="sans-serif" font-size="13" lengthAdjust="spacing" textLength="7" x="622.6764" y="821.7466">1</text></g><!--link Vessel to Crew--><g id="link_Vessel_Crew"><path codeLine="168" d="M414.94,912.8494 C423.67,963.6794 436.515,1038.4258 444.575,1085.3858 " fill="none" id="Vessel-to-Crew" style="stroke:#181818;stroke-width:1.0;"/><polygon fill="#181818" points="445.59,1091.2994,448.0099,1081.7524,444.7442,1086.3714,440.1252,1083.1057,445.59,1091.2994" style="stroke:#181818;stroke-width:1.0;"/><text fill="#000000" font-family="sans-serif" font-size="13" lengthAdjust="spacing" textLength="21" x="430" y="992.1045">has</text><text fill="#000000" font-family="sans-serif" font-size="13" lengthAdjust="spacing" textLength="7" x="408.5644" y="934.1428">1</text><text fill="#000000" font-family="sans-serif" font-size="13" lengthAdjust="spacing" textLength="7" x="436.8867" y="1080.8383">1</text></g><!--link Crew to CrewMember--><g id="link_Crew_CrewMember"><path codeLine="169" d="M447.21,1167.6794 C442.88,1201.1794 437.1886,1245.2688 432.0286,1285.2188 " fill="none" id="Crew-to-CrewMember" style="stroke:#181818;stroke-width:1.0;"/><polygon fill="#181818" points="431.26,1291.1694,436.3799,1282.7559,431.9005,1286.2106,428.4458,1281.7311,431.26,1291.1694" style="stroke:#181818;stroke-width:1.0;"/><text fill="#000000" font-family="sans-serif" font-size="13" lengthAdjust="spacing" textLength="21" x="438" y="1258.1045">has</text><text fill="#000000" font-family="sans-serif" font-size="13" lengthAdjust="spacing" textLength="7" x="438.7333" y="1189.3842">1</text><text fill="#000000" font-family="sans-serif" font-size="13" lengthAdjust="spacing" textLength="5" x="426.89" y="1280.6982">*</text></g><!--link OrganizationRepresentative to VesselVisitNotification--><g id="link_OrganizationRepresentative_VesselVisitNotification"><path codeLine="170" d="M318.57,434.7994 C328.38,453.0894 341.06,471.2894 357,484.6094 C427.75,543.7394 521.4435,573.8082 601.0635,590.2182 " fill="none" id="OrganizationRepresentative-to-VesselVisitNotification" style="stroke:#181818;stroke-width:1.0;"/><polygon fill="#181818" points="606.94,591.4294,598.9327,585.695,602.0429,590.4201,597.3178,593.5303,606.94,591.4294" style="stroke:#181818;stroke-width:1.0;"/><text fill="#000000" font-family="sans-serif" font-size="13" lengthAdjust="spacing" textLength="46" x="358" y="481.1045">submits</text><text fill="#000000" font-family="sans-serif" font-size="13" lengthAdjust="spacing" textLength="7" x="313.789" y="455.853">1</text><text fill="#000000" font-family="sans-serif" font-size="13" lengthAdjust="spacing" textLength="5" x="593.8012" y="587.3051">*</text></g><!--link StaffMember to PhysicalResource--><g id="link_StaffMember_PhysicalResource"><path codeLine="171" d="M1939.54,679.4594 C1953.83,690.7494 1968.39,702.4294 1982,713.6094 C2010.06,736.6694 2035.6104,758.3761 2062.7904,781.8661 " fill="none" id="StaffMember-to-PhysicalResource" style="stroke:#181818;stroke-width:1.0;"/><polygon fill="#181818" points="2067.33,785.7894,2063.1361,776.8781,2063.547,782.52,2057.9051,782.9308,2067.33,785.7894" style="stroke:#181818;stroke-width:1.0;"/><text fill="#000000" font-family="sans-serif" font-size="13" lengthAdjust="spacing" textLength="28" x="2002" y="728.1045">uses</text><text fill="#000000" font-family="sans-serif" font-size="13" lengthAdjust="spacing" textLength="5" x="1947.3638" y="682.2526">*</text><text fill="#000000" font-family="sans-serif" font-size="13" lengthAdjust="spacing" textLength="5" x="2054.4091" y="775.7371">*</text></g><!--link StaffMember to Dock--><g id="link_StaffMember_Dock"><path codeLine="172" d="M1762.26,662.0294 C1748.85,669.4194 1735.12,676.8194 1722,683.6094 C1670.44,710.2894 1650.19,704.4494 1604,739.6094 C1584.49,754.4594 1569.8817,768.7984 1553.8617,787.3484 " fill="none" id="StaffMember-to-Dock" style="stroke:#181818;stroke-width:1.0;"/><polygon fill="#181818" points="1549.94,791.8894,1558.8498,787.6923,1553.208,788.1052,1552.7952,782.4634,1549.94,791.8894" style="stroke:#181818;stroke-width:1.0;"/><text fill="#000000" font-family="sans-serif" font-size="13" lengthAdjust="spacing" textLength="34" x="1648" y="728.1045">works</text><text fill="#000000" font-family="sans-serif" font-size="13" lengthAdjust="spacing" textLength="5" x="1749.4191" y="663.3247">*</text><text fill="#000000" font-family="sans-serif" font-size="13" lengthAdjust="spacing" textLength="5" x="1550.0036" y="781.3698">*</text></g><!--link StaffMember to Qualification--><g id="link_StaffMember_Qualification"><path codeLine="173" d="M1885.07,683.8794 C1892.13,701.7594 1898.72,721.0794 1903,739.6094 C1929.92,856.1994 1932.6156,991.2299 1931.6556,1067.3699 " fill="none" id="StaffMember-to-Qualification" style="stroke:#181818;stroke-width:1.0;"/><polygon fill="#181818" points="1931.58,1073.3694,1935.6931,1064.4205,1931.643,1068.3698,1927.6938,1064.3197,1931.58,1073.3694" style="stroke:#181818;stroke-width:1.0;"/><text fill="#000000" font-family="sans-serif" font-size="13" lengthAdjust="spacing" textLength="21" x="1931" y="871.1045">has</text><text fill="#000000" font-family="sans-serif" font-size="13" lengthAdjust="spacing" textLength="5" x="1882.9804" y="704.9404">*</text><text fill="#000000" font-family="sans-serif" font-size="13" lengthAdjust="spacing" textLength="5" x="1926.4621" y="1062.6863">*</text></g><!--link StaffMember to MemberStatus--><g id="link_StaffMember_MemberStatus"><path codeLine="174" d="M1843.26,683.7494 C1838.04,732.7694 1832.0465,789.1032 1828.0765,826.3132 " fill="none" id="StaffMember-to-MemberStatus" style="stroke:#181818;stroke-width:1.0;"/><polygon fill="#181818" points="1827.44,832.2794,1832.3722,823.7545,1827.9704,827.3076,1824.4174,822.9058,1827.44,832.2794" style="stroke:#181818;stroke-width:1.0;"/><text fill="#000000" font-family="sans-serif" font-size="13" lengthAdjust="spacing" textLength="21" x="1841" y="728.1045">has</text><text fill="#000000" font-family="sans-serif" font-size="13" lengthAdjust="spacing" textLength="5" x="1837.316" y="704.7984">*</text><text fill="#000000" font-family="sans-serif" font-size="13" lengthAdjust="spacing" textLength="7" x="1820.4282" y="821.7107">1</text></g><!--link PhysicalResource to Qualification--><g id="link_PhysicalResource_Qualification"><path codeLine="175" d="M2086.73,947.7094 C2051.31,988.5894 2013.2185,1032.5543 1981.6085,1069.0443 " fill="none" id="PhysicalResource-to-Qualification" style="stroke:#181818;stroke-width:1.0;"/><polygon fill="#181818" points="1977.68,1073.5794,1986.5962,1069.3958,1980.9538,1069.8002,1980.5495,1064.1578,1977.68,1073.5794" style="stroke:#181818;stroke-width:1.0;"/><text fill="#000000" font-family="sans-serif" font-size="13" lengthAdjust="spacing" textLength="21" x="2058" y="992.1045">has</text><text fill="#000000" font-family="sans-serif" font-size="13" lengthAdjust="spacing" textLength="5" x="2075.0215" y="969.5102">*</text><text fill="#000000" font-family="sans-serif" font-size="13" lengthAdjust="spacing" textLength="5" x="1978.4687" y="1062.9232">*</text></g><!--link PhysicalResource to ResourceStatus--><g id="link_PhysicalResource_ResourceStatus"><path codeLine="176" d="M2157,947.7094 C2157,997.9094 2157,1053.5994 2157,1090.4194 " fill="none" id="PhysicalResource-to-ResourceStatus" style="stroke:#181818;stroke-width:1.0;"/><polygon fill="#181818" points="2157,1096.4194,2161,1087.4194,2157,1091.4194,2153,1087.4194,2157,1096.4194" style="stroke:#181818;stroke-width:1.0;"/><text fill="#000000" font-family="sans-serif" font-size="13" lengthAdjust="spacing" textLength="21" x="2158" y="992.1045">has</text><text fill="#000000" font-family="sans-serif" font-size="13" lengthAdjust="spacing" textLength="5" x="2151.7695" y="969.5102">*</text><text fill="#000000" font-family="sans-serif" font-size="13" lengthAdjust="spacing" textLength="7" x="2149.3109" y="1085.8783">1</text></g><!--SRC=[hLTBSzCm4BxxLsZ2ZO4CN3DCcT9ow0nj82tbhDWRHrIMZ1vDGwV_dVKZYMn9ZjF1b_Ynps-_NMqCCnp8fIme4-HQPi2JfAJf0ys1JEv1Q-3aFCyLvDJ0X3md1A-KKwr9-_NJfw_2CBDzTv1RI6dEpXhPwhgwdWjRB47D21Dc_rhG0cRarYWcylhbI-AOdsy4gBrrrvodL_kuF1ZlsBcWAfTevvvo2sI-_0rf9xYxRUbR-s5fxNP6CccN709c5MoSwCZpY4XGvHeg78uhHlCKr30fAA-3wttB4FlvwWjJPjt3zSMhQfNsS6LhYT7uPw1JnSegEEzRIj5v7ytgAkWJAsnnKvDZlbh8ZUv2iAJRtXl3G6aNO3-rUwQPkP66hLXQepMSfoyUfVH0iHHKn4Bj1L1zmE0pULDYLn6DHHUMSmUl5FrASSSAk3MqA0E8DX9pQr8PxXJ0jY9kw6Z9mFF83hkcWgr0csCTOa8TykTeXtoJD4EDslhELS2Bh_XJy9DKNGRShbbPekfv3iBCLOxAVmSv45SOCzXw9E0enMz2xK6v2RutzEccDnexM9ndcKAMxfBtYwED0Z1-ouNcGocreVm2-UZBIokCsWwCOmUQ1PGO5EA5Ju_mkXbzR9O1daZSps0j1VY0kGpuBfKXLsAbA49ZKsDLTCvTolJXDMKE9iT1vDNSxOsu3Ch0MnnybugkJAJgjqOgJEPS0GsYsmyesA7euo8sU5EhLCNtDBKb5UbW5- -7OeI1gPGAknLnqwDF1InPzUCshg6hLJMIyAd0qABzMidrJj5JvdImTYUGhRfa2QgbxYycChc9pkOcq6egMpqubljmu0B2ZvvVNQ7_HUI1chbjjjvgzCp90hIqAeqssKvmBpSoJc_lEN7fS8fqQ0CtUGt6bjNn6phR4DS5_B5CrMJKqGBliXfJuYHfL-R9smbv__wCJ3vEt5rhHjPK4rzeEiNRPXskHP9wRks_l_MDj18V3sxsRJmZlBg5Z52Jk7FcH6d7U-riLgquZw2J-85wyD1a53zHcYH6MDhdFbwbSRuxLpi9nlP1lrwjkp4ABJfhMfOWzBwwJWRD_jLO32vDhd1tQMkK8WlJCRLez3kz3zDfJOQ0xPCiHE8RZw6tudPqEzIj_vSrN-lR3j27Fs2Dn005VOhv8IBdxR9W1dddd4fkQtZ3RqQiXhXyIvQDL0zneUxORuaVaiKKt0Ee5VLYEcOxhe0EkWEmrVW7]--></g></svg>