<?xml version="1.0" encoding="us-ascii" standalone="no"?><svg xmlns="http://www.w3.org/2000/svg" xmlns:xlink="http://www.w3.org/1999/xlink" contentStyleType="text/css" height="772px" preserveAspectRatio="none" style="width:1031px;height:772px;background:#FFFFFF;" version="1.1" viewBox="0 0 1031 772" width="1031px" zoomAndPan="magnify"><defs/><g><rect fill="#FFFFFF" height="579.6797" style="stroke:#181818;stroke-width:1.0;" width="10" x="17.5" y="92.6094"/><rect fill="#FFFFFF" height="557.3281" style="stroke:#181818;stroke-width:1.0;" width="10" x="200.5" y="114.9609"/><rect fill="#FFFFFF" height="480.2734" style="stroke:#181818;stroke-width:1.0;" width="10" x="355.5" y="145.3125"/><rect fill="#FFFFFF" height="117.0547" style="stroke:#181818;stroke-width:1.0;" width="10" x="499.5" y="297.0703"/><rect fill="#FFFFFF" height="91.0547" style="stroke:#181818;stroke-width:1.0;" width="10" x="681.5" y="175.6641"/><rect fill="#FFFFFF" height="107.4063" style="stroke:#181818;stroke-width:1.0;" width="10" x="797.5" y="444.4766"/><rect fill="#FFFFFF" height="30.3516" style="stroke:#181818;stroke-width:1.0;" width="10" x="991.5" y="206.0156"/><rect fill="#FFFFFF" height="30.3516" style="stroke:#181818;stroke-width:1.0;" width="10" x="991.5" y="491.1797"/><line style="stroke:#181818;stroke-width:0.5;stroke-dasharray:5.0,5.0;" x1="22" x2="22" y1="82.6094" y2="690.2891"/><line style="stroke:#181818;stroke-width:0.5;stroke-dasharray:5.0,5.0;" x1="205" x2="205" y1="82.6094" y2="690.2891"/><line style="stroke:#181818;stroke-width:0.5;stroke-dasharray:5.0,5.0;" x1="360.5" x2="360.5" y1="82.6094" y2="690.2891"/><line style="stroke:#181818;stroke-width:0.5;stroke-dasharray:5.0,5.0;" x1="504" x2="504" y1="82.6094" y2="690.2891"/><line style="stroke:#181818;stroke-width:0.5;stroke-dasharray:5.0,5.0;" x1="686.5" x2="686.5" y1="82.6094" y2="690.2891"/><line style="stroke:#181818;stroke-width:0.5;stroke-dasharray:5.0,5.0;" x1="802.5" x2="802.5" y1="82.6094" y2="690.2891"/><line style="stroke:#181818;stroke-width:0.5;stroke-dasharray:5.0,5.0;" x1="996" x2="996" y1="82.6094" y2="690.2891"/><text fill="#000000" font-family="sans-serif" font-size="14" lengthAdjust="spacing" textLength="29" x="5" y="79.5332">User</text><ellipse cx="22.5" cy="13.5" fill="#E2E2F0" rx="8" ry="8" style="stroke:#181818;stroke-width:0.5;"/><path d="M22.5,21.5 L22.5,48.5 M9.5,29.5 L35.5,29.5 M22.5,48.5 L9.5,63.5 M22.5,48.5 L35.5,63.5 " fill="none" style="stroke:#181818;stroke-width:0.5;"/><text fill="#000000" font-family="sans-serif" font-size="14" lengthAdjust="spacing" textLength="29" x="5" y="703.8223">User</text><ellipse cx="22.5" cy="715.3984" fill="#E2E2F0" rx="8" ry="8" style="stroke:#181818;stroke-width:0.5;"/><path d="M22.5,723.3984 L22.5,750.3984 M9.5,731.3984 L35.5,731.3984 M22.5,750.3984 L9.5,765.3984 M22.5,750.3984 L35.5,765.3984 " fill="none" style="stroke:#181818;stroke-width:0.5;"/><rect fill="#E2E2F0" height="31.6094" rx="2.5" ry="2.5" style="stroke:#181818;stroke-width:0.5;" width="117" x="147" y="50"/><text fill="#000000" font-family="sans-serif" font-size="14" lengthAdjust="spacing" textLength="103" x="154" y="71.5332">ObjectController</text><rect fill="#E2E2F0" height="31.6094" rx="2.5" ry="2.5" style="stroke:#181818;stroke-width:0.5;" width="117" x="147" y="689.2891"/><text fill="#000000" font-family="sans-serif" font-size="14" lengthAdjust="spacing" textLength="103" x="154" y="710.8223">ObjectController</text><rect fill="#E2E2F0" height="31.6094" rx="2.5" ry="2.5" style="stroke:#181818;stroke-width:0.5;" width="102" x="309.5" y="50"/><text fill="#000000" font-family="sans-serif" font-size="14" lengthAdjust="spacing" textLength="88" x="316.5" y="71.5332">ObjectService</text><rect fill="#E2E2F0" height="31.6094" rx="2.5" ry="2.5" style="stroke:#181818;stroke-width:0.5;" width="102" x="309.5" y="689.2891"/><text fill="#000000" font-family="sans-serif" font-size="14" lengthAdjust="spacing" textLength="88" x="316.5" y="710.8223">ObjectService</text><rect fill="#E2E2F0" height="31.6094" rx="2.5" ry="2.5" style="stroke:#181818;stroke-width:0.5;" width="55" x="477" y="50"/><text fill="#000000" font-family="sans-serif" font-size="14" lengthAdjust="spacing" textLength="41" x="484" y="71.5332">Object</text><rect fill="#E2E2F0" height="31.6094" rx="2.5" ry="2.5" style="stroke:#181818;stroke-width:0.5;" width="55" x="477" y="689.2891"/><text fill="#000000" font-family="sans-serif" font-size="14" lengthAdjust="spacing" textLength="41" x="484" y="710.8223">Object</text><rect fill="#E2E2F0" height="31.6094" rx="2.5" ry="2.5" style="stroke:#181818;stroke-width:0.5;" width="126" x="623.5" y="50"/><text fill="#000000" font-family="sans-serif" font-size="14" lengthAdjust="spacing" textLength="112" x="630.5" y="71.5332">IObjectRepository</text><rect fill="#E2E2F0" height="31.6094" rx="2.5" ry="2.5" style="stroke:#181818;stroke-width:0.5;" width="126" x="623.5" y="689.2891"/><text fill="#000000" font-family="sans-serif" font-size="14" lengthAdjust="spacing" textLength="112" x="630.5" y="710.8223">IObjectRepository</text><rect fill="#E2E2F0" height="31.6094" rx="2.5" ry="2.5" style="stroke:#181818;stroke-width:0.5;" width="86" x="759.5" y="50"/><text fill="#000000" font-family="sans-serif" font-size="14" lengthAdjust="spacing" textLength="72" x="766.5" y="71.5332">UnitOfWork</text><rect fill="#E2E2F0" height="31.6094" rx="2.5" ry="2.5" style="stroke:#181818;stroke-width:0.5;" width="86" x="759.5" y="689.2891"/><text fill="#000000" font-family="sans-serif" font-size="14" lengthAdjust="spacing" textLength="72" x="766.5" y="710.8223">UnitOfWork</text><text fill="#000000" font-family="sans-serif" font-size="14" lengthAdjust="spacing" textLength="61" x="963" y="79.5332">Database</text><path d="M978.5,29 C978.5,19 996.5,19 996.5,19 C996.5,19 1014.5,19 1014.5,29 L1014.5,55 C1014.5,65 996.5,65 996.5,65 C996.5,65 978.5,65 978.5,55 L978.5,29 " fill="#E2E2F0" style="stroke:#181818;stroke-width:1.5;"/><path d="M978.5,29 C978.5,39 996.5,39 996.5,39 C996.5,39 1014.5,39 1014.5,29 " fill="none" style="stroke:#181818;stroke-width:1.5;"/><text fill="#000000" font-family="sans-serif" font-size="14" lengthAdjust="spacing" textLength="61" x="963" y="703.8223">Database</text><path d="M978.5,716.8984 C978.5,706.8984 996.5,706.8984 996.5,706.8984 C996.5,706.8984 1014.5,706.8984 1014.5,716.8984 L1014.5,742.8984 C1014.5,752.8984 996.5,752.8984 996.5,752.8984 C996.5,752.8984 978.5,752.8984 978.5,742.8984 L978.5,716.8984 " fill="#E2E2F0" style="stroke:#181818;stroke-width:1.5;"/><path d="M978.5,716.8984 C978.5,726.8984 996.5,726.8984 996.5,726.8984 C996.5,726.8984 1014.5,726.8984 1014.5,716.8984 " fill="none" style="stroke:#181818;stroke-width:1.5;"/><rect fill="#FFFFFF" height="579.6797" style="stroke:#181818;stroke-width:1.0;" width="10" x="17.5" y="92.6094"/><rect fill="#FFFFFF" height="557.3281" style="stroke:#181818;stroke-width:1.0;" width="10" x="200.5" y="114.9609"/><rect fill="#FFFFFF" height="480.2734" style="stroke:#181818;stroke-width:1.0;" width="10" x="355.5" y="145.3125"/><rect fill="#FFFFFF" height="117.0547" style="stroke:#181818;stroke-width:1.0;" width="10" x="499.5" y="297.0703"/><rect fill="#FFFFFF" height="91.0547" style="stroke:#181818;stroke-width:1.0;" width="10" x="681.5" y="175.6641"/><rect fill="#FFFFFF" height="107.4063" style="stroke:#181818;stroke-width:1.0;" width="10" x="797.5" y="444.4766"/><rect fill="#FFFFFF" height="30.3516" style="stroke:#181818;stroke-width:1.0;" width="10" x="991.5" y="206.0156"/><rect fill="#FFFFFF" height="30.3516" style="stroke:#181818;stroke-width:1.0;" width="10" x="991.5" y="491.1797"/><polygon fill="#181818" points="188.5,110.9609,198.5,114.9609,188.5,118.9609,192.5,114.9609" style="stroke:#181818;stroke-width:1.0;"/><line style="stroke:#181818;stroke-width:1.0;" x1="27.5" x2="194.5" y1="114.9609" y2="114.9609"/><text fill="#000000" font-family="sans-serif" font-size="13" font-weight="bold" lengthAdjust="spacing" textLength="7" x="34.5" y="110.1045">1</text><text fill="#000000" font-family="sans-serif" font-size="13" lengthAdjust="spacing" textLength="139" x="45.5" y="110.1045">DELETE /api/Object/{id}</text><polygon fill="#181818" points="343.5,141.3125,353.5,145.3125,343.5,149.3125,347.5,145.3125" style="stroke:#181818;stroke-width:1.0;"/><line style="stroke:#181818;stroke-width:1.0;" x1="210.5" x2="349.5" y1="145.3125" y2="145.3125"/><text fill="#000000" font-family="sans-serif" font-size="13" font-weight="bold" lengthAdjust="spacing" textLength="7" x="217.5" y="140.4561">2</text><text fill="#000000" font-family="sans-serif" font-size="13" lengthAdjust="spacing" textLength="115" x="228.5" y="140.4561">DeactivateAsync(id)</text><polygon fill="#181818" points="669.5,171.6641,679.5,175.6641,669.5,179.6641,673.5,175.6641" style="stroke:#181818;stroke-width:1.0;"/><line style="stroke:#181818;stroke-width:1.0;" x1="365.5" x2="675.5" y1="175.6641" y2="175.6641"/><text fill="#000000" font-family="sans-serif" font-size="13" font-weight="bold" lengthAdjust="spacing" textLength="7" x="372.5" y="170.8076">3</text><text fill="#000000" font-family="sans-serif" font-size="13" lengthAdjust="spacing" textLength="102" x="383.5" y="170.8076">GetByIdAsync(id)</text><polygon fill="#181818" points="979.5,202.0156,989.5,206.0156,979.5,210.0156,983.5,206.0156" style="stroke:#181818;stroke-width:1.0;"/><line style="stroke:#181818;stroke-width:1.0;" x1="691.5" x2="985.5" y1="206.0156" y2="206.0156"/><text fill="#000000" font-family="sans-serif" font-size="13" font-weight="bold" lengthAdjust="spacing" textLength="7" x="698.5" y="201.1592">4</text><text fill="#000000" font-family="sans-serif" font-size="13" lengthAdjust="spacing" textLength="64" x="709.5" y="201.1592">query by id</text><polygon fill="#181818" points="702.5,232.3672,692.5,236.3672,702.5,240.3672,698.5,236.3672" style="stroke:#181818;stroke-width:1.0;"/><line style="stroke:#181818;stroke-width:1.0;stroke-dasharray:2.0,2.0;" x1="696.5" x2="995.5" y1="236.3672" y2="236.3672"/><text fill="#000000" font-family="sans-serif" font-size="13" font-weight="bold" lengthAdjust="spacing" textLength="7" x="708.5" y="231.5107">5</text><text fill="#000000" font-family="sans-serif" font-size="13" lengthAdjust="spacing" textLength="75" x="719.5" y="231.5107">object record</text><polygon fill="#181818" points="376.5,262.7188,366.5,266.7188,376.5,270.7188,372.5,266.7188" style="stroke:#181818;stroke-width:1.0;"/><line style="stroke:#181818;stroke-width:1.0;stroke-dasharray:2.0,2.0;" x1="370.5" x2="685.5" y1="266.7188" y2="266.7188"/><text fill="#000000" font-family="sans-serif" font-size="13" font-weight="bold" lengthAdjust="spacing" textLength="7" x="382.5" y="261.8623">6</text><text fill="#000000" font-family="sans-serif" font-size="13" lengthAdjust="spacing" textLength="35" x="393.5" y="261.8623">object</text><polygon fill="#181818" points="487.5,293.0703,497.5,297.0703,487.5,301.0703,491.5,297.0703" style="stroke:#181818;stroke-width:1.0;"/><line style="stroke:#181818;stroke-width:1.0;" x1="365.5" x2="493.5" y1="297.0703" y2="297.0703"/><text fill="#000000" font-family="sans-serif" font-size="13" font-weight="bold" lengthAdjust="spacing" textLength="7" x="372.5" y="292.2139">7</text><text fill="#000000" font-family="sans-serif" font-size="13" lengthAdjust="spacing" textLength="68" x="383.5" y="292.2139">Deactivate()</text><line style="stroke:#181818;stroke-width:1.0;" x1="509.5" x2="551.5" y1="327.4219" y2="327.4219"/><line style="stroke:#181818;stroke-width:1.0;" x1="551.5" x2="551.5" y1="327.4219" y2="340.4219"/><line style="stroke:#181818;stroke-width:1.0;" x1="510.5" x2="551.5" y1="340.4219" y2="340.4219"/><polygon fill="#181818" points="520.5,336.4219,510.5,340.4219,520.5,344.4219,516.5,340.4219" style="stroke:#181818;stroke-width:1.0;"/><text fill="#000000" font-family="sans-serif" font-size="13" font-weight="bold" lengthAdjust="spacing" textLength="7" x="516.5" y="322.5654">8</text><text fill="#000000" font-family="sans-serif" font-size="13" lengthAdjust="spacing" textLength="147" x="527.5" y="322.5654">validate deactivation rules</text><line style="stroke:#181818;stroke-width:1.0;" x1="509.5" x2="551.5" y1="370.7734" y2="370.7734"/><line style="stroke:#181818;stroke-width:1.0;" x1="551.5" x2="551.5" y1="370.7734" y2="383.7734"/><line style="stroke:#181818;stroke-width:1.0;" x1="510.5" x2="551.5" y1="383.7734" y2="383.7734"/><polygon fill="#181818" points="520.5,379.7734,510.5,383.7734,520.5,387.7734,516.5,383.7734" style="stroke:#181818;stroke-width:1.0;"/><text fill="#000000" font-family="sans-serif" font-size="13" font-weight="bold" lengthAdjust="spacing" textLength="7" x="516.5" y="365.917">9</text><text fill="#000000" font-family="sans-serif" font-size="13" lengthAdjust="spacing" textLength="100" x="527.5" y="365.917">set Active = false</text><polygon fill="#181818" points="376.5,410.125,366.5,414.125,376.5,418.125,372.5,414.125" style="stroke:#181818;stroke-width:1.0;"/><line style="stroke:#181818;stroke-width:1.0;stroke-dasharray:2.0,2.0;" x1="370.5" x2="503.5" y1="414.125" y2="414.125"/><text fill="#000000" font-family="sans-serif" font-size="13" font-weight="bold" lengthAdjust="spacing" textLength="14" x="382.5" y="409.2686">10</text><text fill="#000000" font-family="sans-serif" font-size="13" lengthAdjust="spacing" textLength="22" x="400.5" y="409.2686">void</text><polygon fill="#181818" points="785.5,440.4766,795.5,444.4766,785.5,448.4766,789.5,444.4766" style="stroke:#181818;stroke-width:1.0;"/><line style="stroke:#181818;stroke-width:1.0;" x1="365.5" x2="791.5" y1="444.4766" y2="444.4766"/><text fill="#000000" font-family="sans-serif" font-size="13" font-weight="bold" lengthAdjust="spacing" textLength="14" x="372.5" y="439.6201">11</text><text fill="#000000" font-family="sans-serif" font-size="13" lengthAdjust="spacing" textLength="90" x="390.5" y="439.6201">CommitAsync()</text><polygon fill="#181818" points="979.5,487.1797,989.5,491.1797,979.5,495.1797,983.5,491.1797" style="stroke:#181818;stroke-width:1.0;"/><line style="stroke:#181818;stroke-width:1.0;" x1="807.5" x2="985.5" y1="491.1797" y2="491.1797"/><text fill="#000000" font-family="sans-serif" font-size="13" font-weight="bold" lengthAdjust="spacing" textLength="14" x="814.5" y="478.1475">12</text><text fill="#000000" font-family="sans-serif" font-size="13" lengthAdjust="spacing" textLength="124" x="832.5" y="469.9717">SaveChangesAsync()</text><text fill="#000000" font-family="sans-serif" font-size="13" lengthAdjust="spacing" textLength="147" x="832.5" y="486.3232">(persist tracked changes)</text><polygon fill="#181818" points="818.5,517.5313,808.5,521.5313,818.5,525.5313,814.5,521.5313" style="stroke:#181818;stroke-width:1.0;"/><line style="stroke:#181818;stroke-width:1.0;stroke-dasharray:2.0,2.0;" x1="812.5" x2="995.5" y1="521.5313" y2="521.5313"/><text fill="#000000" font-family="sans-serif" font-size="13" font-weight="bold" lengthAdjust="spacing" textLength="14" x="824.5" y="516.6748">13</text><text fill="#000000" font-family="sans-serif" font-size="13" lengthAdjust="spacing" textLength="102" x="842.5" y="516.6748">int (rows affected)</text><polygon fill="#181818" points="376.5,547.8828,366.5,551.8828,376.5,555.8828,372.5,551.8828" style="stroke:#181818;stroke-width:1.0;"/><line style="stroke:#181818;stroke-width:1.0;stroke-dasharray:2.0,2.0;" x1="370.5" x2="801.5" y1="551.8828" y2="551.8828"/><text fill="#000000" font-family="sans-serif" font-size="13" font-weight="bold" lengthAdjust="spacing" textLength="14" x="382.5" y="547.0264">14</text><text fill="#000000" font-family="sans-serif" font-size="13" lengthAdjust="spacing" textLength="14" x="400.5" y="547.0264">int</text><line style="stroke:#181818;stroke-width:1.0;" x1="365.5" x2="407.5" y1="582.2344" y2="582.2344"/><line style="stroke:#181818;stroke-width:1.0;" x1="407.5" x2="407.5" y1="582.2344" y2="595.2344"/><line style="stroke:#181818;stroke-width:1.0;" x1="366.5" x2="407.5" y1="595.2344" y2="595.2344"/><polygon fill="#181818" points="376.5,591.2344,366.5,595.2344,376.5,599.2344,372.5,595.2344" style="stroke:#181818;stroke-width:1.0;"/><text fill="#000000" font-family="sans-serif" font-size="13" font-weight="bold" lengthAdjust="spacing" textLength="14" x="372.5" y="577.3779">15</text><text fill="#000000" font-family="sans-serif" font-size="13" lengthAdjust="spacing" textLength="102" x="390.5" y="577.3779">MapToDto(object)</text><polygon fill="#181818" points="221.5,621.5859,211.5,625.5859,221.5,629.5859,217.5,625.5859" style="stroke:#181818;stroke-width:1.0;"/><line style="stroke:#181818;stroke-width:1.0;stroke-dasharray:2.0,2.0;" x1="215.5" x2="359.5" y1="625.5859" y2="625.5859"/><text fill="#000000" font-family="sans-serif" font-size="13" font-weight="bold" lengthAdjust="spacing" textLength="14" x="227.5" y="620.7295">16</text><text fill="#000000" font-family="sans-serif" font-size="13" lengthAdjust="spacing" textLength="58" x="245.5" y="620.7295">ObjectDto</text><polygon fill="#181818" points="33.5,668.2891,23.5,672.2891,33.5,676.2891,29.5,672.2891" style="stroke:#181818;stroke-width:1.0;"/><line style="stroke:#181818;stroke-width:1.0;stroke-dasharray:2.0,2.0;" x1="27.5" x2="204.5" y1="672.2891" y2="672.2891"/><text fill="#000000" font-family="sans-serif" font-size="13" font-weight="bold" lengthAdjust="spacing" textLength="14" x="39.5" y="659.2568">17</text><text fill="#000000" font-family="sans-serif" font-size="13" lengthAdjust="spacing" textLength="44" x="57.5" y="651.0811">200 OK</text><text fill="#000000" font-family="sans-serif" font-size="13" lengthAdjust="spacing" textLength="131" x="57.5" y="667.4326">{deactivatedObjectDto}</text><!--SRC=[RPDHJzim4CVV_IbEVKeV2gM3QQkqQPGM1hG2qHPUU77ZAtYaTcOxcIh4TzyvJXi7zIMouz__VF-xCo-SLiLcXOOndZfjeBEqQ3h0BVW5oxbnCfKvLmuwTwi_cBeBhPpHMLPZpVOGF4TJoXGhibuVmghpi6mVNuUV3vXhAoc_RKKsspQzLDBThP-qUGiEz1CJtF4LjmYTSRsgZiQZoh0ikSFWbFalz7v6Xc08uybqifZ0CS_bSKZb-5sAZqORsMUHakBKTdqGtE7dTglIH8fk4s1N5RRZIThu8_KLkj7sMXoGHcM85AGVZqZtjq3QhROWHICXttJO-to7hgo1mLGRmGJ6V1owPIk8OZfAABOJ2jSgH1BPgFjUKp5VyamAZ-pla5g1AJAqXt2B3iuzX_03rZopkATQYPTQjapM2SGfq-WGUA4t6-b2vQE4_LnvO5VfEI_nufMh5xGr-woI78sLre4pF7r30Ma0keTw4MwJDCA9qVyiyFMQ4aBgTRiLrQKjAwI96PzPRAC1PpnVwB7JIUXQjw4-Ztoe1g5nuFsKnZFkCxULPj3lmztjitfl968VvoCE5BsNE6__0d-X4epTP_IKbxCfbBw0rEwJeq5_S7hq9Lcy5d29ApWvWvFlmzF-i7y6JvC5-ECkIwxkf-K0h2uCkH9KUYDNXH-OBhlX9OU7GZcvmI7uNRAOTM4-sVs4YIgbqMg3LC-Rnrc0uBTsyrox2lvwsXj9LnM2B3_Es1ZNlCWSILCjf7ePmd9nsVl6fjJdWh_GHQYeN7I1sTBP_3y0]--></g></svg>