<?xml version="1.0" encoding="us-ascii" standalone="no"?><svg xmlns="http://www.w3.org/2000/svg" xmlns:xlink="http://www.w3.org/1999/xlink" contentStyleType="text/css" height="788px" preserveAspectRatio="none" style="width:1003px;height:788px;background:#FFFFFF;" version="1.1" viewBox="0 0 1003 788" width="1003px" zoomAndPan="magnify"><defs/><g><rect fill="#FFFFFF" height="596.0313" style="stroke:#181818;stroke-width:1.0;" width="10" x="17.5" y="92.6094"/><rect fill="#FFFFFF" height="557.3281" style="stroke:#181818;stroke-width:1.0;" width="10" x="181.5" y="131.3125"/><rect fill="#FFFFFF" height="480.2734" style="stroke:#181818;stroke-width:1.0;" width="10" x="343.5" y="161.6641"/><rect fill="#FFFFFF" height="117.0547" style="stroke:#181818;stroke-width:1.0;" width="10" x="487.5" y="313.4219"/><rect fill="#FFFFFF" height="91.0547" style="stroke:#181818;stroke-width:1.0;" width="10" x="653.5" y="192.0156"/><rect fill="#FFFFFF" height="107.4063" style="stroke:#181818;stroke-width:1.0;" width="10" x="769.5" y="460.8281"/><rect fill="#FFFFFF" height="30.3516" style="stroke:#181818;stroke-width:1.0;" width="10" x="963.5" y="222.3672"/><rect fill="#FFFFFF" height="30.3516" style="stroke:#181818;stroke-width:1.0;" width="10" x="963.5" y="507.5313"/><line style="stroke:#181818;stroke-width:0.5;stroke-dasharray:5.0,5.0;" x1="22" x2="22" y1="82.6094" y2="706.6406"/><line style="stroke:#181818;stroke-width:0.5;stroke-dasharray:5.0,5.0;" x1="186" x2="186" y1="82.6094" y2="706.6406"/><line style="stroke:#181818;stroke-width:0.5;stroke-dasharray:5.0,5.0;" x1="348.5" x2="348.5" y1="82.6094" y2="706.6406"/><line style="stroke:#181818;stroke-width:0.5;stroke-dasharray:5.0,5.0;" x1="492" x2="492" y1="82.6094" y2="706.6406"/><line style="stroke:#181818;stroke-width:0.5;stroke-dasharray:5.0,5.0;" x1="658.5" x2="658.5" y1="82.6094" y2="706.6406"/><line style="stroke:#181818;stroke-width:0.5;stroke-dasharray:5.0,5.0;" x1="774.5" x2="774.5" y1="82.6094" y2="706.6406"/><line style="stroke:#181818;stroke-width:0.5;stroke-dasharray:5.0,5.0;" x1="968" x2="968" y1="82.6094" y2="706.6406"/><text fill="#000000" font-family="sans-serif" font-size="14" lengthAdjust="spacing" textLength="29" x="5" y="79.5332">User</text><ellipse cx="22.5" cy="13.5" fill="#E2E2F0" rx="8" ry="8" style="stroke:#181818;stroke-width:0.5;"/><path d="M22.5,21.5 L22.5,48.5 M9.5,29.5 L35.5,29.5 M22.5,48.5 L9.5,63.5 M22.5,48.5 L35.5,63.5 " fill="none" style="stroke:#181818;stroke-width:0.5;"/><text fill="#000000" font-family="sans-serif" font-size="14" lengthAdjust="spacing" textLength="29" x="5" y="720.1738">User</text><ellipse cx="22.5" cy="731.75" fill="#E2E2F0" rx="8" ry="8" style="stroke:#181818;stroke-width:0.5;"/><path d="M22.5,739.75 L22.5,766.75 M9.5,747.75 L35.5,747.75 M22.5,766.75 L9.5,781.75 M22.5,766.75 L35.5,781.75 " fill="none" style="stroke:#181818;stroke-width:0.5;"/><rect fill="#E2E2F0" height="31.6094" rx="2.5" ry="2.5" style="stroke:#181818;stroke-width:0.5;" width="117" x="128" y="50"/><text fill="#000000" font-family="sans-serif" font-size="14" lengthAdjust="spacing" textLength="103" x="135" y="71.5332">ObjectController</text><rect fill="#E2E2F0" height="31.6094" rx="2.5" ry="2.5" style="stroke:#181818;stroke-width:0.5;" width="117" x="128" y="705.6406"/><text fill="#000000" font-family="sans-serif" font-size="14" lengthAdjust="spacing" textLength="103" x="135" y="727.1738">ObjectController</text><rect fill="#E2E2F0" height="31.6094" rx="2.5" ry="2.5" style="stroke:#181818;stroke-width:0.5;" width="102" x="297.5" y="50"/><text fill="#000000" font-family="sans-serif" font-size="14" lengthAdjust="spacing" textLength="88" x="304.5" y="71.5332">ObjectService</text><rect fill="#E2E2F0" height="31.6094" rx="2.5" ry="2.5" style="stroke:#181818;stroke-width:0.5;" width="102" x="297.5" y="705.6406"/><text fill="#000000" font-family="sans-serif" font-size="14" lengthAdjust="spacing" textLength="88" x="304.5" y="727.1738">ObjectService</text><rect fill="#E2E2F0" height="31.6094" rx="2.5" ry="2.5" style="stroke:#181818;stroke-width:0.5;" width="55" x="465" y="50"/><text fill="#000000" font-family="sans-serif" font-size="14" lengthAdjust="spacing" textLength="41" x="472" y="71.5332">Object</text><rect fill="#E2E2F0" height="31.6094" rx="2.5" ry="2.5" style="stroke:#181818;stroke-width:0.5;" width="55" x="465" y="705.6406"/><text fill="#000000" font-family="sans-serif" font-size="14" lengthAdjust="spacing" textLength="41" x="472" y="727.1738">Object</text><rect fill="#E2E2F0" height="31.6094" rx="2.5" ry="2.5" style="stroke:#181818;stroke-width:0.5;" width="126" x="595.5" y="50"/><text fill="#000000" font-family="sans-serif" font-size="14" lengthAdjust="spacing" textLength="112" x="602.5" y="71.5332">IObjectRepository</text><rect fill="#E2E2F0" height="31.6094" rx="2.5" ry="2.5" style="stroke:#181818;stroke-width:0.5;" width="126" x="595.5" y="705.6406"/><text fill="#000000" font-family="sans-serif" font-size="14" lengthAdjust="spacing" textLength="112" x="602.5" y="727.1738">IObjectRepository</text><rect fill="#E2E2F0" height="31.6094" rx="2.5" ry="2.5" style="stroke:#181818;stroke-width:0.5;" width="86" x="731.5" y="50"/><text fill="#000000" font-family="sans-serif" font-size="14" lengthAdjust="spacing" textLength="72" x="738.5" y="71.5332">UnitOfWork</text><rect fill="#E2E2F0" height="31.6094" rx="2.5" ry="2.5" style="stroke:#181818;stroke-width:0.5;" width="86" x="731.5" y="705.6406"/><text fill="#000000" font-family="sans-serif" font-size="14" lengthAdjust="spacing" textLength="72" x="738.5" y="727.1738">UnitOfWork</text><text fill="#000000" font-family="sans-serif" font-size="14" lengthAdjust="spacing" textLength="61" x="935" y="79.5332">Database</text><path d="M950.5,29 C950.5,19 968.5,19 968.5,19 C968.5,19 986.5,19 986.5,29 L986.5,55 C986.5,65 968.5,65 968.5,65 C968.5,65 950.5,65 950.5,55 L950.5,29 " fill="#E2E2F0" style="stroke:#181818;stroke-width:1.5;"/><path d="M950.5,29 C950.5,39 968.5,39 968.5,39 C968.5,39 986.5,39 986.5,29 " fill="none" style="stroke:#181818;stroke-width:1.5;"/><text fill="#000000" font-family="sans-serif" font-size="14" lengthAdjust="spacing" textLength="61" x="935" y="720.1738">Database</text><path d="M950.5,733.25 C950.5,723.25 968.5,723.25 968.5,723.25 C968.5,723.25 986.5,723.25 986.5,733.25 L986.5,759.25 C986.5,769.25 968.5,769.25 968.5,769.25 C968.5,769.25 950.5,769.25 950.5,759.25 L950.5,733.25 " fill="#E2E2F0" style="stroke:#181818;stroke-width:1.5;"/><path d="M950.5,733.25 C950.5,743.25 968.5,743.25 968.5,743.25 C968.5,743.25 986.5,743.25 986.5,733.25 " fill="none" style="stroke:#181818;stroke-width:1.5;"/><rect fill="#FFFFFF" height="596.0313" style="stroke:#181818;stroke-width:1.0;" width="10" x="17.5" y="92.6094"/><rect fill="#FFFFFF" height="557.3281" style="stroke:#181818;stroke-width:1.0;" width="10" x="181.5" y="131.3125"/><rect fill="#FFFFFF" height="480.2734" style="stroke:#181818;stroke-width:1.0;" width="10" x="343.5" y="161.6641"/><rect fill="#FFFFFF" height="117.0547" style="stroke:#181818;stroke-width:1.0;" width="10" x="487.5" y="313.4219"/><rect fill="#FFFFFF" height="91.0547" style="stroke:#181818;stroke-width:1.0;" width="10" x="653.5" y="192.0156"/><rect fill="#FFFFFF" height="107.4063" style="stroke:#181818;stroke-width:1.0;" width="10" x="769.5" y="460.8281"/><rect fill="#FFFFFF" height="30.3516" style="stroke:#181818;stroke-width:1.0;" width="10" x="963.5" y="222.3672"/><rect fill="#FFFFFF" height="30.3516" style="stroke:#181818;stroke-width:1.0;" width="10" x="963.5" y="507.5313"/><polygon fill="#181818" points="169.5,127.3125,179.5,131.3125,169.5,135.3125,173.5,131.3125" style="stroke:#181818;stroke-width:1.0;"/><line style="stroke:#181818;stroke-width:1.0;" x1="27.5" x2="175.5" y1="131.3125" y2="131.3125"/><text fill="#000000" font-family="sans-serif" font-size="13" font-weight="bold" lengthAdjust="spacing" textLength="7" x="34.5" y="118.2803">1</text><text fill="#000000" font-family="sans-serif" font-size="13" lengthAdjust="spacing" textLength="114" x="45.5" y="110.1045">PUT /api/Object/{id}</text><text fill="#000000" font-family="sans-serif" font-size="13" lengthAdjust="spacing" textLength="119" x="45.5" y="126.4561">{updatedObjectData}</text><polygon fill="#181818" points="331.5,157.6641,341.5,161.6641,331.5,165.6641,335.5,161.6641" style="stroke:#181818;stroke-width:1.0;"/><line style="stroke:#181818;stroke-width:1.0;" x1="191.5" x2="337.5" y1="161.6641" y2="161.6641"/><text fill="#000000" font-family="sans-serif" font-size="13" font-weight="bold" lengthAdjust="spacing" textLength="7" x="198.5" y="156.8076">2</text><text fill="#000000" font-family="sans-serif" font-size="13" lengthAdjust="spacing" textLength="122" x="209.5" y="156.8076">UpdateAsync(id, dto)</text><polygon fill="#181818" points="641.5,188.0156,651.5,192.0156,641.5,196.0156,645.5,192.0156" style="stroke:#181818;stroke-width:1.0;"/><line style="stroke:#181818;stroke-width:1.0;" x1="353.5" x2="647.5" y1="192.0156" y2="192.0156"/><text fill="#000000" font-family="sans-serif" font-size="13" font-weight="bold" lengthAdjust="spacing" textLength="7" x="360.5" y="187.1592">3</text><text fill="#000000" font-family="sans-serif" font-size="13" lengthAdjust="spacing" textLength="102" x="371.5" y="187.1592">GetByIdAsync(id)</text><polygon fill="#181818" points="951.5,218.3672,961.5,222.3672,951.5,226.3672,955.5,222.3672" style="stroke:#181818;stroke-width:1.0;"/><line style="stroke:#181818;stroke-width:1.0;" x1="663.5" x2="957.5" y1="222.3672" y2="222.3672"/><text fill="#000000" font-family="sans-serif" font-size="13" font-weight="bold" lengthAdjust="spacing" textLength="7" x="670.5" y="217.5107">4</text><text fill="#000000" font-family="sans-serif" font-size="13" lengthAdjust="spacing" textLength="64" x="681.5" y="217.5107">query by id</text><polygon fill="#181818" points="674.5,248.7188,664.5,252.7188,674.5,256.7188,670.5,252.7188" style="stroke:#181818;stroke-width:1.0;"/><line style="stroke:#181818;stroke-width:1.0;stroke-dasharray:2.0,2.0;" x1="668.5" x2="967.5" y1="252.7188" y2="252.7188"/><text fill="#000000" font-family="sans-serif" font-size="13" font-weight="bold" lengthAdjust="spacing" textLength="7" x="680.5" y="247.8623">5</text><text fill="#000000" font-family="sans-serif" font-size="13" lengthAdjust="spacing" textLength="75" x="691.5" y="247.8623">object record</text><polygon fill="#181818" points="364.5,279.0703,354.5,283.0703,364.5,287.0703,360.5,283.0703" style="stroke:#181818;stroke-width:1.0;"/><line style="stroke:#181818;stroke-width:1.0;stroke-dasharray:2.0,2.0;" x1="358.5" x2="657.5" y1="283.0703" y2="283.0703"/><text fill="#000000" font-family="sans-serif" font-size="13" font-weight="bold" lengthAdjust="spacing" textLength="7" x="370.5" y="278.2139">6</text><text fill="#000000" font-family="sans-serif" font-size="13" lengthAdjust="spacing" textLength="35" x="381.5" y="278.2139">object</text><polygon fill="#181818" points="475.5,309.4219,485.5,313.4219,475.5,317.4219,479.5,313.4219" style="stroke:#181818;stroke-width:1.0;"/><line style="stroke:#181818;stroke-width:1.0;" x1="353.5" x2="481.5" y1="313.4219" y2="313.4219"/><text fill="#000000" font-family="sans-serif" font-size="13" font-weight="bold" lengthAdjust="spacing" textLength="7" x="360.5" y="308.5654">7</text><text fill="#000000" font-family="sans-serif" font-size="13" lengthAdjust="spacing" textLength="67" x="371.5" y="308.5654">Update(dto)</text><line style="stroke:#181818;stroke-width:1.0;" x1="497.5" x2="539.5" y1="343.7734" y2="343.7734"/><line style="stroke:#181818;stroke-width:1.0;" x1="539.5" x2="539.5" y1="343.7734" y2="356.7734"/><line style="stroke:#181818;stroke-width:1.0;" x1="498.5" x2="539.5" y1="356.7734" y2="356.7734"/><polygon fill="#181818" points="508.5,352.7734,498.5,356.7734,508.5,360.7734,504.5,356.7734" style="stroke:#181818;stroke-width:1.0;"/><text fill="#000000" font-family="sans-serif" font-size="13" font-weight="bold" lengthAdjust="spacing" textLength="7" x="504.5" y="338.917">8</text><text fill="#000000" font-family="sans-serif" font-size="13" lengthAdjust="spacing" textLength="131" x="515.5" y="338.917">validate business rules</text><line style="stroke:#181818;stroke-width:1.0;" x1="497.5" x2="539.5" y1="387.125" y2="387.125"/><line style="stroke:#181818;stroke-width:1.0;" x1="539.5" x2="539.5" y1="387.125" y2="400.125"/><line style="stroke:#181818;stroke-width:1.0;" x1="498.5" x2="539.5" y1="400.125" y2="400.125"/><polygon fill="#181818" points="508.5,396.125,498.5,400.125,508.5,404.125,504.5,400.125" style="stroke:#181818;stroke-width:1.0;"/><text fill="#000000" font-family="sans-serif" font-size="13" font-weight="bold" lengthAdjust="spacing" textLength="7" x="504.5" y="382.2686">9</text><text fill="#000000" font-family="sans-serif" font-size="13" lengthAdjust="spacing" textLength="100" x="515.5" y="382.2686">update properties</text><polygon fill="#181818" points="364.5,426.4766,354.5,430.4766,364.5,434.4766,360.5,430.4766" style="stroke:#181818;stroke-width:1.0;"/><line style="stroke:#181818;stroke-width:1.0;stroke-dasharray:2.0,2.0;" x1="358.5" x2="491.5" y1="430.4766" y2="430.4766"/><text fill="#000000" font-family="sans-serif" font-size="13" font-weight="bold" lengthAdjust="spacing" textLength="14" x="370.5" y="425.6201">10</text><text fill="#000000" font-family="sans-serif" font-size="13" lengthAdjust="spacing" textLength="22" x="388.5" y="425.6201">void</text><polygon fill="#181818" points="757.5,456.8281,767.5,460.8281,757.5,464.8281,761.5,460.8281" style="stroke:#181818;stroke-width:1.0;"/><line style="stroke:#181818;stroke-width:1.0;" x1="353.5" x2="763.5" y1="460.8281" y2="460.8281"/><text fill="#000000" font-family="sans-serif" font-size="13" font-weight="bold" lengthAdjust="spacing" textLength="14" x="360.5" y="455.9717">11</text><text fill="#000000" font-family="sans-serif" font-size="13" lengthAdjust="spacing" textLength="90" x="378.5" y="455.9717">CommitAsync()</text><polygon fill="#181818" points="951.5,503.5313,961.5,507.5313,951.5,511.5313,955.5,507.5313" style="stroke:#181818;stroke-width:1.0;"/><line style="stroke:#181818;stroke-width:1.0;" x1="779.5" x2="957.5" y1="507.5313" y2="507.5313"/><text fill="#000000" font-family="sans-serif" font-size="13" font-weight="bold" lengthAdjust="spacing" textLength="14" x="786.5" y="494.499">12</text><text fill="#000000" font-family="sans-serif" font-size="13" lengthAdjust="spacing" textLength="124" x="804.5" y="486.3232">SaveChangesAsync()</text><text fill="#000000" font-family="sans-serif" font-size="13" lengthAdjust="spacing" textLength="147" x="804.5" y="502.6748">(persist tracked changes)</text><polygon fill="#181818" points="790.5,533.8828,780.5,537.8828,790.5,541.8828,786.5,537.8828" style="stroke:#181818;stroke-width:1.0;"/><line style="stroke:#181818;stroke-width:1.0;stroke-dasharray:2.0,2.0;" x1="784.5" x2="967.5" y1="537.8828" y2="537.8828"/><text fill="#000000" font-family="sans-serif" font-size="13" font-weight="bold" lengthAdjust="spacing" textLength="14" x="796.5" y="533.0264">13</text><text fill="#000000" font-family="sans-serif" font-size="13" lengthAdjust="spacing" textLength="102" x="814.5" y="533.0264">int (rows affected)</text><polygon fill="#181818" points="364.5,564.2344,354.5,568.2344,364.5,572.2344,360.5,568.2344" style="stroke:#181818;stroke-width:1.0;"/><line style="stroke:#181818;stroke-width:1.0;stroke-dasharray:2.0,2.0;" x1="358.5" x2="773.5" y1="568.2344" y2="568.2344"/><text fill="#000000" font-family="sans-serif" font-size="13" font-weight="bold" lengthAdjust="spacing" textLength="14" x="370.5" y="563.3779">14</text><text fill="#000000" font-family="sans-serif" font-size="13" lengthAdjust="spacing" textLength="14" x="388.5" y="563.3779">int</text><line style="stroke:#181818;stroke-width:1.0;" x1="353.5" x2="395.5" y1="598.5859" y2="598.5859"/><line style="stroke:#181818;stroke-width:1.0;" x1="395.5" x2="395.5" y1="598.5859" y2="611.5859"/><line style="stroke:#181818;stroke-width:1.0;" x1="354.5" x2="395.5" y1="611.5859" y2="611.5859"/><polygon fill="#181818" points="364.5,607.5859,354.5,611.5859,364.5,615.5859,360.5,611.5859" style="stroke:#181818;stroke-width:1.0;"/><text fill="#000000" font-family="sans-serif" font-size="13" font-weight="bold" lengthAdjust="spacing" textLength="14" x="360.5" y="593.7295">15</text><text fill="#000000" font-family="sans-serif" font-size="13" lengthAdjust="spacing" textLength="102" x="378.5" y="593.7295">MapToDto(object)</text><polygon fill="#181818" points="202.5,637.9375,192.5,641.9375,202.5,645.9375,198.5,641.9375" style="stroke:#181818;stroke-width:1.0;"/><line style="stroke:#181818;stroke-width:1.0;stroke-dasharray:2.0,2.0;" x1="196.5" x2="347.5" y1="641.9375" y2="641.9375"/><text fill="#000000" font-family="sans-serif" font-size="13" font-weight="bold" lengthAdjust="spacing" textLength="14" x="208.5" y="637.0811">16</text><text fill="#000000" font-family="sans-serif" font-size="13" lengthAdjust="spacing" textLength="58" x="226.5" y="637.0811">ObjectDto</text><polygon fill="#181818" points="33.5,684.6406,23.5,688.6406,33.5,692.6406,29.5,688.6406" style="stroke:#181818;stroke-width:1.0;"/><line style="stroke:#181818;stroke-width:1.0;stroke-dasharray:2.0,2.0;" x1="27.5" x2="185.5" y1="688.6406" y2="688.6406"/><text fill="#000000" font-family="sans-serif" font-size="13" font-weight="bold" lengthAdjust="spacing" textLength="14" x="39.5" y="675.6084">17</text><text fill="#000000" font-family="sans-serif" font-size="13" lengthAdjust="spacing" textLength="44" x="57.5" y="667.4326">200 OK</text><text fill="#000000" font-family="sans-serif" font-size="13" lengthAdjust="spacing" textLength="112" x="57.5" y="683.7842">{updatedObjectDto}</text><!--SRC=[RLFBRjim4BphAnO-oK031ptcKA2sWI8e2WT9Z5noeSHroyRcgYIbm0Zyxrq-7AqINmHId1dEx2vL7yZsXmPTLQasa8FPrgERWV8G5rMdN32jwPGDCDiqVx4DAxB1qNvVOEFs4lW1tM1QJCYolWHBvtavFRxDF- -n8s_Otp4Xn-qKlRKcR7PFv5vo0dggj0ggKHvXjYwhTBHUfi1cK05pqYf-uUgR20GtSBTzX8Ngp2BxMBmPVNgsRtt7kgZppoXy6jL4GIgXnSgb02oxJVpl_cZRskWle0FDHuLpeQepWRbZPAR_mB0ytkepNr15PGI3-Uiby_xroBlc24QF52u57rvzl8DIDd3OajELHecNqfDScIJHmf2CaoltNebwMe0o2GKauOFQcqY0flV6elVW-ZtwIz3S8-WSTSWp8a0JomEPIRnojpJBSyJ05HqE9kIQ2wzno2BWNEC7DU3gZxA_qHViiwtPWJS-G72gVK4DRGRCBtKXtsPudcj7hnxKRiU6aBiyRKAwT1A5EH8JdSaO8_2NwXvf7QZE_PgFg8_pNoOya1H-dqyvtj6vJvolrzUm-VdfbGGwIH7nJAJd-1J_0m00]--></g></svg>