<?xml version="1.0" encoding="us-ascii" standalone="no"?><svg xmlns="http://www.w3.org/2000/svg" xmlns:xlink="http://www.w3.org/1999/xlink" contentStyleType="text/css" height="1580px" preserveAspectRatio="none" style="width:1152px;height:1580px;background:#FFFFFF;" version="1.1" viewBox="0 0 1152 1580" width="1152px" zoomAndPan="magnify"><defs/><g><text fill="#000000" font-family="sans-serif" font-size="14" font-weight="bold" lengthAdjust="spacing" textLength="579" x="282.5" y="29.5332">System Sequence Diagram - US 3.1.3: Role-Based Menu Rendering (Frontend Only)</text><rect fill="#FFFFFF" height="1357.2734" style="stroke:#181818;stroke-width:1.0;" width="10" x="57.5" y="131.2188"/><rect fill="#FFFFFF" height="253.5156" style="stroke:#181818;stroke-width:1.0;" width="10" x="281.5" y="197.9219"/><rect fill="#FFFFFF" height="281.1641" style="stroke:#181818;stroke-width:1.0;" width="10" x="281.5" y="1085.4375"/><rect fill="#FFFFFF" height="30.3516" style="stroke:#181818;stroke-width:1.0;" width="10" x="504.5" y="228.2734"/><rect fill="#FFFFFF" height="30.3516" style="stroke:#181818;stroke-width:1.0;" width="10" x="504.5" y="288.9766"/><rect fill="#FFFFFF" height="30.3516" style="stroke:#181818;stroke-width:1.0;" width="10" x="504.5" y="630.1953"/><rect fill="#FFFFFF" height="30.3516" style="stroke:#181818;stroke-width:1.0;" width="10" x="504.5" y="1176.4922"/><rect fill="#FFFFFF" height="250.8125" style="stroke:#181818;stroke-width:1.0;" width="10" x="588" y="526.1406"/><rect fill="#FFFFFF" height="220.4609" style="stroke:#181818;stroke-width:1.0;" width="10" x="588" y="1115.7891"/><rect fill="#FFFFFF" height="190.1094" style="stroke:#181818;stroke-width:1.0;" width="10" x="857" y="556.4922"/><rect fill="#FFFFFF" height="159.7578" style="stroke:#181818;stroke-width:1.0;" width="10" x="857" y="1146.1406"/><rect fill="none" height="336.1875" style="stroke:#000000;stroke-width:1.5;" width="1104" x="10" y="675.5469"/><rect fill="none" height="216.2969" style="stroke:#000000;stroke-width:1.5;" width="903.5" x="10" y="1265.1953"/><line style="stroke:#181818;stroke-width:0.5;stroke-dasharray:5.0,5.0;" x1="62" x2="62" y1="121.2188" y2="1498.4922"/><line style="stroke:#181818;stroke-width:0.5;stroke-dasharray:5.0,5.0;" x1="286.5" x2="286.5" y1="121.2188" y2="1498.4922"/><line style="stroke:#181818;stroke-width:0.5;stroke-dasharray:5.0,5.0;" x1="509.5" x2="509.5" y1="121.2188" y2="1498.4922"/><line style="stroke:#181818;stroke-width:0.5;stroke-dasharray:5.0,5.0;" x1="592.5" x2="592.5" y1="121.2188" y2="1498.4922"/><line style="stroke:#181818;stroke-width:0.5;stroke-dasharray:5.0,5.0;" x1="861.5" x2="861.5" y1="121.2188" y2="1498.4922"/><text fill="#000000" font-family="sans-serif" font-size="14" lengthAdjust="spacing" textLength="79" x="20" y="118.1426">System User</text><ellipse cx="62.5" cy="52.1094" fill="#E3E3E3" rx="8" ry="8" style="stroke:#181818;stroke-width:0.5;"/><path d="M62.5,60.1094 L62.5,87.1094 M49.5,68.1094 L75.5,68.1094 M62.5,87.1094 L49.5,102.1094 M62.5,87.1094 L75.5,102.1094 " fill="none" style="stroke:#181818;stroke-width:0.5;"/><text fill="#000000" font-family="sans-serif" font-size="14" lengthAdjust="spacing" textLength="79" x="20" y="1512.0254">System User</text><ellipse cx="62.5" cy="1523.6016" fill="#E3E3E3" rx="8" ry="8" style="stroke:#181818;stroke-width:0.5;"/><path d="M62.5,1531.6016 L62.5,1558.6016 M49.5,1539.6016 L75.5,1539.6016 M62.5,1558.6016 L49.5,1573.6016 M62.5,1558.6016 L75.5,1573.6016 " fill="none" style="stroke:#181818;stroke-width:0.5;"/><rect fill="#E3E3E3" height="31.6094" rx="2.5" ry="2.5" style="stroke:#181818;stroke-width:0.5;" width="116" x="228.5" y="88.6094"/><text fill="#000000" font-family="sans-serif" font-size="14" lengthAdjust="spacing" textLength="102" x="235.5" y="110.1426">App Component</text><rect fill="#E3E3E3" height="31.6094" rx="2.5" ry="2.5" style="stroke:#181818;stroke-width:0.5;" width="116" x="228.5" y="1497.4922"/><text fill="#000000" font-family="sans-serif" font-size="14" lengthAdjust="spacing" textLength="102" x="235.5" y="1519.0254">App Component</text><rect fill="#E3E3E3" height="31.6094" rx="2.5" ry="2.5" style="stroke:#181818;stroke-width:0.5;" width="90" x="464.5" y="88.6094"/><text fill="#000000" font-family="sans-serif" font-size="14" lengthAdjust="spacing" textLength="76" x="471.5" y="110.1426">AuthService</text><rect fill="#E3E3E3" height="31.6094" rx="2.5" ry="2.5" style="stroke:#181818;stroke-width:0.5;" width="90" x="464.5" y="1497.4922"/><text fill="#000000" font-family="sans-serif" font-size="14" lengthAdjust="spacing" textLength="76" x="471.5" y="1519.0254">AuthService</text><rect fill="#E3E3E3" height="31.6094" rx="2.5" ry="2.5" style="stroke:#181818;stroke-width:0.5;" width="57" x="564.5" y="88.6094"/><text fill="#000000" font-family="sans-serif" font-size="14" lengthAdjust="spacing" textLength="43" x="571.5" y="110.1426">Router</text><rect fill="#E3E3E3" height="31.6094" rx="2.5" ry="2.5" style="stroke:#181818;stroke-width:0.5;" width="57" x="564.5" y="1497.4922"/><text fill="#000000" font-family="sans-serif" font-size="14" lengthAdjust="spacing" textLength="43" x="571.5" y="1519.0254">Router</text><rect fill="#E3E3E3" height="31.6094" rx="2.5" ry="2.5" style="stroke:#181818;stroke-width:0.5;" width="83" x="820.5" y="88.6094"/><text fill="#000000" font-family="sans-serif" font-size="14" lengthAdjust="spacing" textLength="69" x="827.5" y="110.1426">RoleGuard</text><rect fill="#E3E3E3" height="31.6094" rx="2.5" ry="2.5" style="stroke:#181818;stroke-width:0.5;" width="83" x="820.5" y="1497.4922"/><text fill="#000000" font-family="sans-serif" font-size="14" lengthAdjust="spacing" textLength="69" x="827.5" y="1519.0254">RoleGuard</text><rect fill="#FFFFFF" height="1357.2734" style="stroke:#181818;stroke-width:1.0;" width="10" x="57.5" y="131.2188"/><rect fill="#FFFFFF" height="253.5156" style="stroke:#181818;stroke-width:1.0;" width="10" x="281.5" y="197.9219"/><rect fill="#FFFFFF" height="281.1641" style="stroke:#181818;stroke-width:1.0;" width="10" x="281.5" y="1085.4375"/><rect fill="#FFFFFF" height="30.3516" style="stroke:#181818;stroke-width:1.0;" width="10" x="504.5" y="228.2734"/><rect fill="#FFFFFF" height="30.3516" style="stroke:#181818;stroke-width:1.0;" width="10" x="504.5" y="288.9766"/><rect fill="#FFFFFF" height="30.3516" style="stroke:#181818;stroke-width:1.0;" width="10" x="504.5" y="630.1953"/><rect fill="#FFFFFF" height="30.3516" style="stroke:#181818;stroke-width:1.0;" width="10" x="504.5" y="1176.4922"/><rect fill="#FFFFFF" height="250.8125" style="stroke:#181818;stroke-width:1.0;" width="10" x="588" y="526.1406"/><rect fill="#FFFFFF" height="220.4609" style="stroke:#181818;stroke-width:1.0;" width="10" x="588" y="1115.7891"/><rect fill="#FFFFFF" height="190.1094" style="stroke:#181818;stroke-width:1.0;" width="10" x="857" y="556.4922"/><rect fill="#FFFFFF" height="159.7578" style="stroke:#181818;stroke-width:1.0;" width="10" x="857" y="1146.1406"/><rect fill="#EEEEEE" height="3" style="stroke:#EEEEEE;stroke-width:1.0;" width="1145" x="0" y="152.3945"/><line style="stroke:#000000;stroke-width:1.0;" x1="0" x2="1145" y1="152.3945" y2="152.3945"/><line style="stroke:#000000;stroke-width:1.0;" x1="0" x2="1145" y1="155.3945" y2="155.3945"/><rect fill="#EEEEEE" height="24.3516" style="stroke:#000000;stroke-width:2.0;" width="191" x="477" y="141.2188"/><text fill="#000000" font-family="sans-serif" font-size="13" font-weight="bold" lengthAdjust="spacing" textLength="173" x="483" y="158.7139">User Already Authenticated</text><polygon fill="#181818" points="269.5,193.9219,279.5,197.9219,269.5,201.9219,273.5,197.9219" style="stroke:#181818;stroke-width:1.0;"/><line style="stroke:#181818;stroke-width:1.0;" x1="67.5" x2="275.5" y1="197.9219" y2="197.9219"/><text fill="#000000" font-family="sans-serif" font-size="13" font-weight="bold" lengthAdjust="spacing" textLength="7" x="74.5" y="193.0654">1</text><text fill="#000000" font-family="sans-serif" font-size="13" lengthAdjust="spacing" textLength="110" x="85.5" y="193.0654">Access application</text><polygon fill="#181818" points="492.5,224.2734,502.5,228.2734,492.5,232.2734,496.5,228.2734" style="stroke:#181818;stroke-width:1.0;"/><line style="stroke:#181818;stroke-width:1.0;" x1="291.5" x2="498.5" y1="228.2734" y2="228.2734"/><text fill="#000000" font-family="sans-serif" font-size="13" font-weight="bold" lengthAdjust="spacing" textLength="7" x="298.5" y="223.417">2</text><text fill="#000000" font-family="sans-serif" font-size="13" lengthAdjust="spacing" textLength="70" x="309.5" y="223.417">isLoggedIn()</text><polygon fill="#181818" points="302.5,254.625,292.5,258.625,302.5,262.625,298.5,258.625" style="stroke:#181818;stroke-width:1.0;"/><line style="stroke:#181818;stroke-width:1.0;stroke-dasharray:2.0,2.0;" x1="296.5" x2="508.5" y1="258.625" y2="258.625"/><text fill="#000000" font-family="sans-serif" font-size="13" font-weight="bold" lengthAdjust="spacing" textLength="7" x="308.5" y="253.7686">3</text><text fill="#000000" font-family="sans-serif" font-size="13" lengthAdjust="spacing" textLength="22" x="319.5" y="253.7686">true</text><polygon fill="#181818" points="492.5,284.9766,502.5,288.9766,492.5,292.9766,496.5,288.9766" style="stroke:#181818;stroke-width:1.0;"/><line style="stroke:#181818;stroke-width:1.0;" x1="291.5" x2="498.5" y1="288.9766" y2="288.9766"/><text fill="#000000" font-family="sans-serif" font-size="13" font-weight="bold" lengthAdjust="spacing" textLength="7" x="298.5" y="284.1201">4</text><text fill="#000000" font-family="sans-serif" font-size="13" lengthAdjust="spacing" textLength="75" x="309.5" y="284.1201">Get user role</text><polygon fill="#181818" points="302.5,315.3281,292.5,319.3281,302.5,323.3281,298.5,319.3281" style="stroke:#181818;stroke-width:1.0;"/><line style="stroke:#181818;stroke-width:1.0;stroke-dasharray:2.0,2.0;" x1="296.5" x2="508.5" y1="319.3281" y2="319.3281"/><text fill="#000000" font-family="sans-serif" font-size="13" font-weight="bold" lengthAdjust="spacing" textLength="7" x="308.5" y="314.4717">5</text><text fill="#000000" font-family="sans-serif" font-size="13" lengthAdjust="spacing" textLength="140" x="319.5" y="314.4717">userRole (e.g., "Admin")</text><line style="stroke:#181818;stroke-width:1.0;" x1="291.5" x2="333.5" y1="378.8828" y2="378.8828"/><line style="stroke:#181818;stroke-width:1.0;" x1="333.5" x2="333.5" y1="378.8828" y2="391.8828"/><line style="stroke:#181818;stroke-width:1.0;" x1="292.5" x2="333.5" y1="391.8828" y2="391.8828"/><polygon fill="#181818" points="302.5,387.8828,292.5,391.8828,302.5,395.8828,298.5,391.8828" style="stroke:#181818;stroke-width:1.0;"/><text fill="#000000" font-family="sans-serif" font-size="13" font-weight="bold" lengthAdjust="spacing" textLength="7" x="298.5" y="374.0264">6</text><text fill="#000000" font-family="sans-serif" font-size="13" lengthAdjust="spacing" textLength="188" x="309.5" y="374.0264">Calculate rolePath based on role</text><path d="M509,332.3281 L509,423.3281 L737,423.3281 L737,342.3281 L727,332.3281 L509,332.3281 " fill="#FAFAFA" style="stroke:#181818;stroke-width:0.5;"/><path d="M727,332.3281 L727,342.3281 L737,342.3281 L727,332.3281 " fill="#FAFAFA" style="stroke:#181818;stroke-width:0.5;"/><text fill="#000000" font-family="sans-serif" font-size="13" lengthAdjust="spacing" textLength="95" x="515" y="350.8232">Admin &#8594; /admin</text><text fill="#000000" font-family="sans-serif" font-size="13" lengthAdjust="spacing" textLength="188" x="515" y="367.1748">Representative &#8594; /representative</text><text fill="#000000" font-family="sans-serif" font-size="13" lengthAdjust="spacing" textLength="196" x="515" y="383.5264">PortAuthorityOfficer &#8594; /port-officer</text><text fill="#000000" font-family="sans-serif" font-size="13" lengthAdjust="spacing" textLength="173" x="515" y="399.8779">LogisticsOperator &#8594; /logistics</text><text fill="#000000" font-family="sans-serif" font-size="13" lengthAdjust="spacing" textLength="207" x="515" y="416.2295">ProjectManager &#8594; /project-manager</text><polygon fill="#181818" points="78.5,447.4375,68.5,451.4375,78.5,455.4375,74.5,451.4375" style="stroke:#181818;stroke-width:1.0;"/><line style="stroke:#181818;stroke-width:1.0;stroke-dasharray:2.0,2.0;" x1="72.5" x2="285.5" y1="451.4375" y2="451.4375"/><text fill="#000000" font-family="sans-serif" font-size="13" font-weight="bold" lengthAdjust="spacing" textLength="7" x="84.5" y="446.5811">7</text><text fill="#000000" font-family="sans-serif" font-size="13" lengthAdjust="spacing" textLength="143" x="95.5" y="446.5811">Display role-based menu</text><rect fill="#EEEEEE" height="3" style="stroke:#EEEEEE;stroke-width:1.0;" width="1145" x="0" y="480.6133"/><line style="stroke:#000000;stroke-width:1.0;" x1="0" x2="1145" y1="480.6133" y2="480.6133"/><line style="stroke:#000000;stroke-width:1.0;" x1="0" x2="1145" y1="483.6133" y2="483.6133"/><rect fill="#EEEEEE" height="24.3516" style="stroke:#000000;stroke-width:2.0;" width="243" x="451" y="469.4375"/><text fill="#000000" font-family="sans-serif" font-size="13" font-weight="bold" lengthAdjust="spacing" textLength="225" x="457" y="486.9326">Role-Based Route Guard Validation</text><polygon fill="#181818" points="576,522.1406,586,526.1406,576,530.1406,580,526.1406" style="stroke:#181818;stroke-width:1.0;"/><line style="stroke:#181818;stroke-width:1.0;" x1="67.5" x2="582" y1="526.1406" y2="526.1406"/><text fill="#000000" font-family="sans-serif" font-size="13" font-weight="bold" lengthAdjust="spacing" textLength="7" x="74.5" y="521.2842">8</text><text fill="#000000" font-family="sans-serif" font-size="13" lengthAdjust="spacing" textLength="155" x="85.5" y="521.2842">Navigate to protected route</text><polygon fill="#181818" points="845,552.4922,855,556.4922,845,560.4922,849,556.4922" style="stroke:#181818;stroke-width:1.0;"/><line style="stroke:#181818;stroke-width:1.0;" x1="598" x2="851" y1="556.4922" y2="556.4922"/><text fill="#000000" font-family="sans-serif" font-size="13" font-weight="bold" lengthAdjust="spacing" textLength="7" x="605" y="551.6357">9</text><text fill="#000000" font-family="sans-serif" font-size="13" lengthAdjust="spacing" textLength="104" x="616" y="551.6357">canActivate(route)</text><line style="stroke:#181818;stroke-width:1.0;" x1="867" x2="909" y1="586.8438" y2="586.8438"/><line style="stroke:#181818;stroke-width:1.0;" x1="909" x2="909" y1="586.8438" y2="599.8438"/><line style="stroke:#181818;stroke-width:1.0;" x1="868" x2="909" y1="599.8438" y2="599.8438"/><polygon fill="#181818" points="878,595.8438,868,599.8438,878,603.8438,874,599.8438" style="stroke:#181818;stroke-width:1.0;"/><text fill="#000000" font-family="sans-serif" font-size="13" font-weight="bold" lengthAdjust="spacing" textLength="14" x="874" y="581.9873">10</text><text fill="#000000" font-family="sans-serif" font-size="13" lengthAdjust="spacing" textLength="241" x="892" y="581.9873">Get expected roles from route.data['roles']</text><polygon fill="#181818" points="525.5,626.1953,515.5,630.1953,525.5,634.1953,521.5,630.1953" style="stroke:#181818;stroke-width:1.0;"/><line style="stroke:#181818;stroke-width:1.0;" x1="519.5" x2="856" y1="630.1953" y2="630.1953"/><text fill="#000000" font-family="sans-serif" font-size="13" font-weight="bold" lengthAdjust="spacing" textLength="14" x="531.5" y="625.3389">11</text><text fill="#000000" font-family="sans-serif" font-size="13" lengthAdjust="spacing" textLength="75" x="549.5" y="625.3389">Get user role</text><polygon fill="#181818" points="845,656.5469,855,660.5469,845,664.5469,849,660.5469" style="stroke:#181818;stroke-width:1.0;"/><line style="stroke:#181818;stroke-width:1.0;stroke-dasharray:2.0,2.0;" x1="509.5" x2="851" y1="660.5469" y2="660.5469"/><text fill="#000000" font-family="sans-serif" font-size="13" font-weight="bold" lengthAdjust="spacing" textLength="14" x="516.5" y="655.6904">12</text><text fill="#000000" font-family="sans-serif" font-size="13" lengthAdjust="spacing" textLength="51" x="534.5" y="655.6904">userRole</text><path d="M10,675.5469 L71,675.5469 L71,683.8984 L61,693.8984 L10,693.8984 L10,675.5469 " fill="#EEEEEE" style="stroke:#000000;stroke-width:1.5;"/><rect fill="none" height="336.1875" style="stroke:#000000;stroke-width:1.5;" width="1104" x="10" y="675.5469"/><text fill="#000000" font-family="sans-serif" font-size="13" font-weight="bold" lengthAdjust="spacing" textLength="16" x="25" y="690.042">alt</text><text fill="#000000" font-family="sans-serif" font-size="11" font-weight="bold" lengthAdjust="spacing" textLength="99" x="86" y="688.9658">[User has no role]</text><polygon fill="#181818" points="609,712.25,599,716.25,609,720.25,605,716.25" style="stroke:#181818;stroke-width:1.0;"/><line style="stroke:#181818;stroke-width:1.0;" x1="603" x2="856" y1="716.25" y2="716.25"/><text fill="#000000" font-family="sans-serif" font-size="13" font-weight="bold" lengthAdjust="spacing" textLength="14" x="615" y="711.3936">13</text><text fill="#000000" font-family="sans-serif" font-size="13" lengthAdjust="spacing" textLength="155" x="633" y="711.3936">navigate(['/access-denied'])</text><polygon fill="#181818" points="609,742.6016,599,746.6016,609,750.6016,605,746.6016" style="stroke:#181818;stroke-width:1.0;"/><line style="stroke:#181818;stroke-width:1.0;stroke-dasharray:2.0,2.0;" x1="603" x2="861" y1="746.6016" y2="746.6016"/><text fill="#000000" font-family="sans-serif" font-size="13" font-weight="bold" lengthAdjust="spacing" textLength="14" x="615" y="741.7451">14</text><text fill="#000000" font-family="sans-serif" font-size="13" lengthAdjust="spacing" textLength="64" x="633" y="741.7451">return false</text><polygon fill="#181818" points="78.5,772.9531,68.5,776.9531,78.5,780.9531,74.5,776.9531" style="stroke:#181818;stroke-width:1.0;"/><line style="stroke:#181818;stroke-width:1.0;stroke-dasharray:2.0,2.0;" x1="72.5" x2="592" y1="776.9531" y2="776.9531"/><text fill="#000000" font-family="sans-serif" font-size="13" font-weight="bold" lengthAdjust="spacing" textLength="14" x="84.5" y="772.0967">15</text><text fill="#000000" font-family="sans-serif" font-size="13" lengthAdjust="spacing" textLength="177" x="102.5" y="772.0967">Display "Access Denied" page</text><line style="stroke:#000000;stroke-width:1.0;stroke-dasharray:2.0,2.0;" x1="10" x2="1114" y1="785.9531" y2="785.9531"/><text fill="#000000" font-family="sans-serif" font-size="11" font-weight="bold" lengthAdjust="spacing" textLength="99" x="15" y="797.3721">[Role not allowed]</text><line style="stroke:#181818;stroke-width:1.0;" x1="862" x2="904" y1="823.1406" y2="823.1406"/><line style="stroke:#181818;stroke-width:1.0;" x1="904" x2="904" y1="823.1406" y2="836.1406"/><line style="stroke:#181818;stroke-width:1.0;" x1="863" x2="904" y1="836.1406" y2="836.1406"/><polygon fill="#181818" points="873,832.1406,863,836.1406,873,840.1406,869,836.1406" style="stroke:#181818;stroke-width:1.0;"/><text fill="#000000" font-family="sans-serif" font-size="13" font-weight="bold" lengthAdjust="spacing" textLength="14" x="869" y="818.2842">16</text><text fill="#000000" font-family="sans-serif" font-size="13" lengthAdjust="spacing" textLength="215" x="887" y="818.2842">Validate role matches expected roles</text><polygon fill="#181818" points="604,862.4922,594,866.4922,604,870.4922,600,866.4922" style="stroke:#181818;stroke-width:1.0;"/><line style="stroke:#181818;stroke-width:1.0;" x1="598" x2="861" y1="866.4922" y2="866.4922"/><text fill="#000000" font-family="sans-serif" font-size="13" font-weight="bold" lengthAdjust="spacing" textLength="14" x="610" y="861.6357">17</text><text fill="#000000" font-family="sans-serif" font-size="13" lengthAdjust="spacing" textLength="155" x="628" y="861.6357">navigate(['/access-denied'])</text><polygon fill="#181818" points="604,892.8438,594,896.8438,604,900.8438,600,896.8438" style="stroke:#181818;stroke-width:1.0;"/><line style="stroke:#181818;stroke-width:1.0;stroke-dasharray:2.0,2.0;" x1="598" x2="861" y1="896.8438" y2="896.8438"/><text fill="#000000" font-family="sans-serif" font-size="13" font-weight="bold" lengthAdjust="spacing" textLength="14" x="610" y="891.9873">18</text><text fill="#000000" font-family="sans-serif" font-size="13" lengthAdjust="spacing" textLength="64" x="628" y="891.9873">return false</text><polygon fill="#181818" points="78.5,923.1953,68.5,927.1953,78.5,931.1953,74.5,927.1953" style="stroke:#181818;stroke-width:1.0;"/><line style="stroke:#181818;stroke-width:1.0;stroke-dasharray:2.0,2.0;" x1="72.5" x2="592" y1="927.1953" y2="927.1953"/><text fill="#000000" font-family="sans-serif" font-size="13" font-weight="bold" lengthAdjust="spacing" textLength="14" x="84.5" y="922.3389">19</text><text fill="#000000" font-family="sans-serif" font-size="13" lengthAdjust="spacing" textLength="177" x="102.5" y="922.3389">Display "Access Denied" page</text><line style="stroke:#000000;stroke-width:1.0;stroke-dasharray:2.0,2.0;" x1="10" x2="1114" y1="936.1953" y2="936.1953"/><text fill="#000000" font-family="sans-serif" font-size="11" font-weight="bold" lengthAdjust="spacing" textLength="91" x="15" y="947.6143">[Role is allowed]</text><polygon fill="#181818" points="604,969.3828,594,973.3828,604,977.3828,600,973.3828" style="stroke:#181818;stroke-width:1.0;"/><line style="stroke:#181818;stroke-width:1.0;stroke-dasharray:2.0,2.0;" x1="598" x2="861" y1="973.3828" y2="973.3828"/><text fill="#000000" font-family="sans-serif" font-size="13" font-weight="bold" lengthAdjust="spacing" textLength="14" x="610" y="968.5264">20</text><text fill="#000000" font-family="sans-serif" font-size="13" lengthAdjust="spacing" textLength="59" x="628" y="968.5264">return true</text><polygon fill="#181818" points="78.5,999.7344,68.5,1003.7344,78.5,1007.7344,74.5,1003.7344" style="stroke:#181818;stroke-width:1.0;"/><line style="stroke:#181818;stroke-width:1.0;stroke-dasharray:2.0,2.0;" x1="72.5" x2="592" y1="1003.7344" y2="1003.7344"/><text fill="#000000" font-family="sans-serif" font-size="13" font-weight="bold" lengthAdjust="spacing" textLength="14" x="84.5" y="998.8779">21</text><text fill="#000000" font-family="sans-serif" font-size="13" lengthAdjust="spacing" textLength="169" x="102.5" y="998.8779">Load role-specific component</text><rect fill="#EEEEEE" height="3" style="stroke:#EEEEEE;stroke-width:1.0;" width="1145" x="0" y="1039.9102"/><line style="stroke:#000000;stroke-width:1.0;" x1="0" x2="1145" y1="1039.9102" y2="1039.9102"/><line style="stroke:#000000;stroke-width:1.0;" x1="0" x2="1145" y1="1042.9102" y2="1042.9102"/><rect fill="#EEEEEE" height="24.3516" style="stroke:#000000;stroke-width:2.0;" width="174" x="485.5" y="1028.7344"/><text fill="#000000" font-family="sans-serif" font-size="13" font-weight="bold" lengthAdjust="spacing" textLength="156" x="491.5" y="1046.2295">User Navigates via Menu</text><polygon fill="#181818" points="269.5,1081.4375,279.5,1085.4375,269.5,1089.4375,273.5,1085.4375" style="stroke:#181818;stroke-width:1.0;"/><line style="stroke:#181818;stroke-width:1.0;" x1="67.5" x2="275.5" y1="1085.4375" y2="1085.4375"/><text fill="#000000" font-family="sans-serif" font-size="13" font-weight="bold" lengthAdjust="spacing" textLength="14" x="74.5" y="1080.5811">22</text><text fill="#000000" font-family="sans-serif" font-size="13" lengthAdjust="spacing" textLength="104" x="92.5" y="1080.5811">Click menu option</text><polygon fill="#181818" points="576,1111.7891,586,1115.7891,576,1119.7891,580,1115.7891" style="stroke:#181818;stroke-width:1.0;"/><line style="stroke:#181818;stroke-width:1.0;" x1="291.5" x2="582" y1="1115.7891" y2="1115.7891"/><text fill="#000000" font-family="sans-serif" font-size="13" font-weight="bold" lengthAdjust="spacing" textLength="14" x="298.5" y="1110.9326">23</text><text fill="#000000" font-family="sans-serif" font-size="13" lengthAdjust="spacing" textLength="150" x="316.5" y="1110.9326">Navigate to selected route</text><polygon fill="#181818" points="845,1142.1406,855,1146.1406,845,1150.1406,849,1146.1406" style="stroke:#181818;stroke-width:1.0;"/><line style="stroke:#181818;stroke-width:1.0;" x1="598" x2="851" y1="1146.1406" y2="1146.1406"/><text fill="#000000" font-family="sans-serif" font-size="13" font-weight="bold" lengthAdjust="spacing" textLength="14" x="605" y="1141.2842">24</text><text fill="#000000" font-family="sans-serif" font-size="13" lengthAdjust="spacing" textLength="93" x="623" y="1141.2842">Validate access</text><polygon fill="#181818" points="525.5,1172.4922,515.5,1176.4922,525.5,1180.4922,521.5,1176.4922" style="stroke:#181818;stroke-width:1.0;"/><line style="stroke:#181818;stroke-width:1.0;" x1="519.5" x2="856" y1="1176.4922" y2="1176.4922"/><text fill="#000000" font-family="sans-serif" font-size="13" font-weight="bold" lengthAdjust="spacing" textLength="14" x="531.5" y="1171.6357">25</text><text fill="#000000" font-family="sans-serif" font-size="13" lengthAdjust="spacing" textLength="75" x="549.5" y="1171.6357">Get user role</text><polygon fill="#181818" points="845,1202.8438,855,1206.8438,845,1210.8438,849,1206.8438" style="stroke:#181818;stroke-width:1.0;"/><line style="stroke:#181818;stroke-width:1.0;stroke-dasharray:2.0,2.0;" x1="509.5" x2="851" y1="1206.8438" y2="1206.8438"/><text fill="#000000" font-family="sans-serif" font-size="13" font-weight="bold" lengthAdjust="spacing" textLength="14" x="516.5" y="1201.9873">26</text><text fill="#000000" font-family="sans-serif" font-size="13" lengthAdjust="spacing" textLength="51" x="534.5" y="1201.9873">userRole</text><line style="stroke:#181818;stroke-width:1.0;" x1="867" x2="909" y1="1237.1953" y2="1237.1953"/><line style="stroke:#181818;stroke-width:1.0;" x1="909" x2="909" y1="1237.1953" y2="1250.1953"/><line style="stroke:#181818;stroke-width:1.0;" x1="868" x2="909" y1="1250.1953" y2="1250.1953"/><polygon fill="#181818" points="878,1246.1953,868,1250.1953,878,1254.1953,874,1250.1953" style="stroke:#181818;stroke-width:1.0;"/><text fill="#000000" font-family="sans-serif" font-size="13" font-weight="bold" lengthAdjust="spacing" textLength="14" x="874" y="1232.3389">27</text><text fill="#000000" font-family="sans-serif" font-size="13" lengthAdjust="spacing" textLength="119" x="892" y="1232.3389">Check if role allowed</text><path d="M10,1265.1953 L71,1265.1953 L71,1273.5469 L61,1283.5469 L10,1283.5469 L10,1265.1953 " fill="#EEEEEE" style="stroke:#000000;stroke-width:1.5;"/><rect fill="none" height="216.2969" style="stroke:#000000;stroke-width:1.5;" width="903.5" x="10" y="1265.1953"/><text fill="#000000" font-family="sans-serif" font-size="13" font-weight="bold" lengthAdjust="spacing" textLength="16" x="25" y="1279.6904">alt</text><text fill="#000000" font-family="sans-serif" font-size="11" font-weight="bold" lengthAdjust="spacing" textLength="95" x="86" y="1278.6143">[Access granted]</text><polygon fill="#181818" points="609,1301.8984,599,1305.8984,609,1309.8984,605,1305.8984" style="stroke:#181818;stroke-width:1.0;"/><line style="stroke:#181818;stroke-width:1.0;stroke-dasharray:2.0,2.0;" x1="603" x2="861" y1="1305.8984" y2="1305.8984"/><text fill="#000000" font-family="sans-serif" font-size="13" font-weight="bold" lengthAdjust="spacing" textLength="14" x="615" y="1301.042">28</text><text fill="#000000" font-family="sans-serif" font-size="13" lengthAdjust="spacing" textLength="59" x="633" y="1301.042">return true</text><polygon fill="#181818" points="302.5,1332.25,292.5,1336.25,302.5,1340.25,298.5,1336.25" style="stroke:#181818;stroke-width:1.0;"/><line style="stroke:#181818;stroke-width:1.0;stroke-dasharray:2.0,2.0;" x1="296.5" x2="592" y1="1336.25" y2="1336.25"/><text fill="#000000" font-family="sans-serif" font-size="13" font-weight="bold" lengthAdjust="spacing" textLength="14" x="308.5" y="1331.3936">29</text><text fill="#000000" font-family="sans-serif" font-size="13" lengthAdjust="spacing" textLength="96" x="326.5" y="1331.3936">Load component</text><polygon fill="#181818" points="78.5,1362.6016,68.5,1366.6016,78.5,1370.6016,74.5,1366.6016" style="stroke:#181818;stroke-width:1.0;"/><line style="stroke:#181818;stroke-width:1.0;stroke-dasharray:2.0,2.0;" x1="72.5" x2="285.5" y1="1366.6016" y2="1366.6016"/><text fill="#000000" font-family="sans-serif" font-size="13" font-weight="bold" lengthAdjust="spacing" textLength="14" x="84.5" y="1361.7451">30</text><text fill="#000000" font-family="sans-serif" font-size="13" lengthAdjust="spacing" textLength="136" x="102.5" y="1361.7451">Display requested page</text><line style="stroke:#000000;stroke-width:1.0;stroke-dasharray:2.0,2.0;" x1="10" x2="913.5" y1="1375.6016" y2="1375.6016"/><text fill="#000000" font-family="sans-serif" font-size="11" font-weight="bold" lengthAdjust="spacing" textLength="90" x="15" y="1387.0205">[Access denied]</text><polygon fill="#181818" points="604,1408.7891,594,1412.7891,604,1416.7891,600,1412.7891" style="stroke:#181818;stroke-width:1.0;"/><line style="stroke:#181818;stroke-width:1.0;stroke-dasharray:2.0,2.0;" x1="598" x2="861" y1="1412.7891" y2="1412.7891"/><text fill="#000000" font-family="sans-serif" font-size="13" font-weight="bold" lengthAdjust="spacing" textLength="14" x="610" y="1407.9326">31</text><text fill="#000000" font-family="sans-serif" font-size="13" lengthAdjust="spacing" textLength="227" x="628" y="1407.9326">return false + navigate('/access-denied')</text><polygon fill="#181818" points="297.5,1439.1406,287.5,1443.1406,297.5,1447.1406,293.5,1443.1406" style="stroke:#181818;stroke-width:1.0;"/><line style="stroke:#181818;stroke-width:1.0;stroke-dasharray:2.0,2.0;" x1="291.5" x2="592" y1="1443.1406" y2="1443.1406"/><text fill="#000000" font-family="sans-serif" font-size="13" font-weight="bold" lengthAdjust="spacing" textLength="14" x="303.5" y="1438.2842">32</text><text fill="#000000" font-family="sans-serif" font-size="13" lengthAdjust="spacing" textLength="48" x="321.5" y="1438.2842">Redirect</text><polygon fill="#181818" points="78.5,1469.4922,68.5,1473.4922,78.5,1477.4922,74.5,1473.4922" style="stroke:#181818;stroke-width:1.0;"/><line style="stroke:#181818;stroke-width:1.0;stroke-dasharray:2.0,2.0;" x1="72.5" x2="285.5" y1="1473.4922" y2="1473.4922"/><text fill="#000000" font-family="sans-serif" font-size="13" font-weight="bold" lengthAdjust="spacing" textLength="14" x="84.5" y="1468.6357">33</text><text fill="#000000" font-family="sans-serif" font-size="13" lengthAdjust="spacing" textLength="177" x="102.5" y="1468.6357">Display "Access Denied" page</text><!--SRC=[tLRDJXin4BxlKuno8L6xGHMtI5HAGKMLeA14z08SXjt9niLhRsrlQ5wW3z17x9DqREycIqW4KQiUcakyzlpFzurj7uIgq609fLOwcnjT4ZXJKs9N9nLc3rZGr2qbWQ7CeIfaLy3ECTUFGXKmGsafIPnmB3fTMaSbJEbRJIeZE1LOUF4KhgTmD7mtF1h1H4jAFw2b72v8rJ0XbPFnfleVZLQEF-5IoUKWIR1sMjNbFHbUPquRw3KUhYsP7g0DYuHZSY8J5Ie7lN5LmOakAwr8kI33EniYjPjFoIn4Hb5W_VrKSA9hrpYAoyrZIMSrchoHQBwIvFWu10PZQGZpPN30qOWC7QTzV1pI4Gl-YWa4uVIzZtG4uomZQm6hIde5eTLQsgUI-0ozy3hg4GXxhek2ya-gF-Y8TnBhh25jVOM-vxHLOQkVCt9G-sWDPxk78w_Z2mHz6XR3jzo3l1IgDtZHkLS-GPdLqejuhrVevd0V0AHLZ4DfVoQAkUFoUSFmwyTFE4I_l5KJgWnPhZyNSq7no3pPkrLNsZZlNnlXbfUp6STWecJ59wcEExUAgomiDz9ULcJGGp88oNQRBHdzbHbpWOePrDg8UsaPDvliE3tV-17Jn5OIbo6ND6PMCZMUrCOtdc7LOKz090J4mHUK8WzO2UXgyHH1EuBFk125D-CqS2oEOs43nf-kUzWWF8d_KRr1z0WoLED6i1_q1bt55V1Nomrr3nlwNhL-9LcOyU298GmvShmv2Di7Tnj6_XHzdI1Q3Ex474eNUJjdEYiTlG3_DjAAHLLDKVit1uSOE9lcf0Jb1tU3JQsEcY5N6zNCJI_MYMPToQWV6_4C9xrcH9m6TpqUryKMKw6Rn5w2MSx70Kgf7odVbjEgIWsK8jUWH9VDkLjFc_VV54NONJLv7boObVl5TgunLYorN3x1CmIozchQ5Plgt1yjRoqi1CRhiallE1pvbdW8ym9qjVkss3OABCdz9y4A7x6zBu-1VydWNQ0-cHCNISmYgDkM1y8tiE5t2hyz_ZOCGeS22bxgkz_TSIlurvJrRTe6QT_ZWEScZyYsLr8Dtgm9kydNmNv9JYWN_gMuTtgluMr8qXEZinSUJhy1]--></g></svg>