<?xml version="1.0" encoding="us-ascii" standalone="no"?><svg xmlns="http://www.w3.org/2000/svg" xmlns:xlink="http://www.w3.org/1999/xlink" contentStyleType="text/css" height="533px" preserveAspectRatio="none" style="width:428px;height:533px;background:#FFFFFF;" version="1.1" viewBox="0 0 428 533" width="428px" zoomAndPan="magnify"><defs/><g><text fill="#000000" font-family="sans-serif" font-size="14" font-weight="bold" lengthAdjust="spacing" textLength="200" x="107" y="24.5332">Level 2 Implementation View</text><!--cluster Port Management System--><g id="cluster_Port Management System"><path d="M8.5,44.6094 L187.5,44.6094 A3.75,3.75 0 0 1 190,47.1094 L197,68.2188 L381.5,68.2188 A2.5,2.5 0 0 1 384,70.7188 L384,524.1094 A2.5,2.5 0 0 1 381.5,526.6094 L8.5,526.6094 A2.5,2.5 0 0 1 6,524.1094 L6,47.1094 A2.5,2.5 0 0 1 8.5,44.6094 " fill="#87CEFA" style="stroke:#000000;stroke-width:1.5;"/><line style="stroke:#000000;stroke-width:1.5;" x1="6" x2="197" y1="68.2188" y2="68.2188"/><text fill="#000000" font-family="sans-serif" font-size="14" font-weight="bold" lengthAdjust="spacing" textLength="178" x="10" y="61.1426">Port Management System</text></g><!--entity UI--><g id="elem_UI"><path d="M170.5,80.6094 L197.5,80.6094 A3.75,3.75 0 0 1 200,83.1094 L207,104.2188 L221.5,104.2188 A2.5,2.5 0 0 1 224,106.7188 L224,118.7188 A2.5,2.5 0 0 1 221.5,121.2188 L170.5,121.2188 A2.5,2.5 0 0 1 168,118.7188 L168,83.1094 A2.5,2.5 0 0 1 170.5,80.6094 " fill="#87CEFA" style="stroke:#000000;stroke-width:0.5;"/><line style="stroke:#000000;stroke-width:0.5;" x1="168" x2="207" y1="104.2188" y2="104.2188"/><text fill="#000000" font-family="sans-serif" font-size="14" font-weight="bold" lengthAdjust="spacing" textLength="14" x="178" y="98.1426">UI</text></g><!--entity Planning--><g id="elem_Planning"><path d="M25,199.6094 L99,199.6094 A3.75,3.75 0 0 1 101.5,202.1094 L108.5,223.2188 L123,223.2188 A2.5,2.5 0 0 1 125.5,225.7188 L125.5,237.7188 A2.5,2.5 0 0 1 123,240.2188 L25,240.2188 A2.5,2.5 0 0 1 22.5,237.7188 L22.5,202.1094 A2.5,2.5 0 0 1 25,199.6094 " fill="#87CEFA" style="stroke:#000000;stroke-width:0.5;"/><line style="stroke:#000000;stroke-width:0.5;" x1="22.5" x2="108.5" y1="223.2188" y2="223.2188"/><text fill="#000000" font-family="sans-serif" font-size="14" font-weight="bold" lengthAdjust="spacing" textLength="61" x="32.5" y="217.1426">Planning</text></g><!--entity VVN_Service--><g id="elem_VVN_Service"><path d="M65.5,334.6094 L168.5,334.6094 A3.75,3.75 0 0 1 171,337.1094 L178,358.2188 L192.5,358.2188 A2.5,2.5 0 0 1 195,360.7188 L195,372.7188 A2.5,2.5 0 0 1 192.5,375.2188 L65.5,375.2188 A2.5,2.5 0 0 1 63,372.7188 L63,337.1094 A2.5,2.5 0 0 1 65.5,334.6094 " fill="#87CEFA" style="stroke:#000000;stroke-width:0.5;"/><line style="stroke:#000000;stroke-width:0.5;" x1="63" x2="178" y1="358.2188" y2="358.2188"/><text fill="#000000" font-family="sans-serif" font-size="14" font-weight="bold" lengthAdjust="spacing" textLength="90" x="73" y="352.1426">VVN_Service</text></g><!--entity Data_Service--><g id="elem_Data_Service"><path d="M117,469.6094 L223,469.6094 A3.75,3.75 0 0 1 225.5,472.1094 L232.5,493.2188 L247,493.2188 A2.5,2.5 0 0 1 249.5,495.7188 L249.5,507.7188 A2.5,2.5 0 0 1 247,510.2188 L117,510.2188 A2.5,2.5 0 0 1 114.5,507.7188 L114.5,472.1094 A2.5,2.5 0 0 1 117,469.6094 " fill="#87CEFA" style="stroke:#000000;stroke-width:0.5;"/><line style="stroke:#000000;stroke-width:0.5;" x1="114.5" x2="232.5" y1="493.2188" y2="493.2188"/><text fill="#000000" font-family="sans-serif" font-size="14" font-weight="bold" lengthAdjust="spacing" textLength="93" x="124.5" y="487.1426">Data_Service</text></g><!--link UI to Planning--><g id="link_UI_Planning"><path d="M167.85,105.4394 C140.02,110.3694 98.68,122.4294 78,151.6094 C68.23,165.3994 67.4267,179.0868 69.2667,193.6268 " fill="none" id="UI-to-Planning" style="stroke:#181818;stroke-width:1.0;"/><polygon fill="#181818" points="70.02,199.5794,72.8584,190.1484,69.3923,194.6189,64.9217,191.1528,70.02,199.5794" style="stroke:#181818;stroke-width:1.0;"/><text fill="#000000" font-family="sans-serif" font-size="13" lengthAdjust="spacing" textLength="107" x="79" y="166.1045">uses Planning API</text></g><!--link UI to VVN_Service--><g id="link_UI_VVN_Service"><path d="M197.46,121.7494 C200.43,166.1594 205.67,272.9294 190,304.6094 C184.07,316.5894 178.5533,323.0538 168.0533,330.9138 " fill="none" id="UI-to-VVN_Service" style="stroke:#181818;stroke-width:1.0;"/><polygon fill="#181818" points="163.25,334.5094,172.852,332.3182,167.2527,331.513,168.0579,325.9138,163.25,334.5094" style="stroke:#181818;stroke-width:1.0;"/><text fill="#000000" font-family="sans-serif" font-size="13" lengthAdjust="spacing" textLength="84" x="201" y="225.6045">uses VVN API</text></g><!--link UI to Data_Service--><g id="link_UI_Data_Service"><path d="M224.45,120.6294 C248.07,137.8694 280,165.9194 294,199.6094 C300.99,216.4394 296.78,222.5994 294,240.6094 C279.83,332.2894 278.97,360.2094 231,439.6094 C224.31,450.6794 219.0222,457.0404 210.0522,465.4704 " fill="none" id="UI-to-Data_Service" style="stroke:#181818;stroke-width:1.0;"/><polygon fill="#181818" points="205.68,469.5794,214.9776,466.3307,209.3235,466.1552,209.499,460.5011,205.68,469.5794" style="stroke:#181818;stroke-width:1.0;"/><text fill="#000000" font-family="sans-serif" font-size="13" lengthAdjust="spacing" textLength="130" x="290" y="293.1045">uses Data Service API</text></g><!--link Planning to VVN_Service--><g id="link_Planning_VVN_Service"><path d="M61.82,240.6894 C52.57,258.2794 43.12,284.3994 54,304.6094 C60.73,317.1094 67.0762,323.7769 79.0062,331.3069 " fill="none" id="Planning-to-VVN_Service" style="stroke:#181818;stroke-width:1.0;"/><polygon fill="#181818" points="84.08,334.5094,78.6042,326.323,79.8518,331.8406,74.3342,333.0882,84.08,334.5094" style="stroke:#181818;stroke-width:1.0;"/><text fill="#000000" font-family="sans-serif" font-size="13" lengthAdjust="spacing" textLength="130" x="55" y="285.1045">obtains approved visits</text><text fill="#000000" font-family="sans-serif" font-size="13" lengthAdjust="spacing" textLength="68" x="86" y="301.4561">+ manifests</text></g><!--link VVN_Service to Data_Service--><g id="link_VVN_Service_Data_Service"><path d="M123.58,375.6094 C119.77,393.1594 116.82,419.2394 126,439.6094 C131.33,451.4394 136.3738,457.8076 146.2338,465.7776 " fill="none" id="VVN_Service-to-Data_Service" style="stroke:#181818;stroke-width:1.0;"/><polygon fill="#181818" points="150.9,469.5494,146.4152,460.7809,147.0115,466.4062,141.3861,467.0025,150.9,469.5494" style="stroke:#181818;stroke-width:1.0;"/><text fill="#000000" font-family="sans-serif" font-size="13" lengthAdjust="spacing" textLength="99" x="127" y="420.1045">obtains maindata</text><text fill="#000000" font-family="sans-serif" font-size="13" lengthAdjust="spacing" textLength="4" x="174.5" y="436.4561">&#160;</text></g><!--SRC=[ROx1IWCn48RlUOgn7gKNBue7eTOY2xKirkwf8DFTsMLeCbcIT4MaxsvMIHlHIyXyyyq_4pXeWYKDfE4Q2jDhCYG10rk1YkbTgOk6MXQ2byNyTRPwMYwWrkYzKdxFqgD30ptMU-m8FXN0G_ntpXwacLjj7LpUtjJKOjkEFUiQSZzyfwEeZagbuKbfNO1db5YCDy3wmmSoa-_K96sAh2WrYh1q6QggrTkQtC0rPVGH0vvmv9i2fjFxqppSmS6JFzUpiZXRMMGI8_hjv0kID398RBIZVjhmDzZk0h9umBvtTg061lOS_5QkmA1mIpxuc90F_RCvfPZuDh6r5NNy0W00]--></g></svg>