<?xml version="1.0" encoding="us-ascii" standalone="no"?><svg xmlns="http://www.w3.org/2000/svg" xmlns:xlink="http://www.w3.org/1999/xlink" contentStyleType="text/css" height="807px" preserveAspectRatio="none" style="width:521px;height:807px;background:#FFFFFF;" version="1.1" viewBox="0 0 521 807" width="521px" zoomAndPan="magnify"><defs/><g><rect fill="#FFFFFF" height="600.4844" style="stroke:#181818;stroke-width:1.0;" width="10" x="317.5" y="114.9609"/><rect fill="none" height="535.1328" style="stroke:#000000;stroke-width:1.5;" width="504.5" x="10" y="173.3125"/><rect fill="none" height="292.8359" style="stroke:#000000;stroke-width:1.5;" width="484.5" x="20" y="346.0703"/><rect fill="none" height="154.5938" style="stroke:#000000;stroke-width:1.5;" width="441.5" x="30" y="414.7734"/><line style="stroke:#181818;stroke-width:0.5;stroke-dasharray:5.0,5.0;" x1="82" x2="82" y1="82.6094" y2="725.4453"/><line style="stroke:#181818;stroke-width:0.5;stroke-dasharray:5.0,5.0;" x1="322.5" x2="322.5" y1="82.6094" y2="725.4453"/><text fill="#000000" font-family="sans-serif" font-size="14" lengthAdjust="spacing" textLength="79" x="40" y="79.5332">System User</text><ellipse cx="82.5" cy="13.5" fill="#E2E2F0" rx="8" ry="8" style="stroke:#181818;stroke-width:0.5;"/><path d="M82.5,21.5 L82.5,48.5 M69.5,29.5 L95.5,29.5 M82.5,48.5 L69.5,63.5 M82.5,48.5 L95.5,63.5 " fill="none" style="stroke:#181818;stroke-width:0.5;"/><text fill="#000000" font-family="sans-serif" font-size="14" lengthAdjust="spacing" textLength="79" x="40" y="738.9785">System User</text><ellipse cx="82.5" cy="750.5547" fill="#E2E2F0" rx="8" ry="8" style="stroke:#181818;stroke-width:0.5;"/><path d="M82.5,758.5547 L82.5,785.5547 M69.5,766.5547 L95.5,766.5547 M82.5,785.5547 L69.5,800.5547 M82.5,785.5547 L95.5,800.5547 " fill="none" style="stroke:#181818;stroke-width:0.5;"/><rect fill="#E2E2F0" height="31.6094" rx="2.5" ry="2.5" style="stroke:#181818;stroke-width:0.5;" width="60" x="292.5" y="50"/><text fill="#000000" font-family="sans-serif" font-size="14" lengthAdjust="spacing" textLength="46" x="299.5" y="71.5332">System</text><rect fill="#E2E2F0" height="31.6094" rx="2.5" ry="2.5" style="stroke:#181818;stroke-width:0.5;" width="60" x="292.5" y="724.4453"/><text fill="#000000" font-family="sans-serif" font-size="14" lengthAdjust="spacing" textLength="46" x="299.5" y="745.9785">System</text><rect fill="#FFFFFF" height="600.4844" style="stroke:#181818;stroke-width:1.0;" width="10" x="317.5" y="114.9609"/><polygon fill="#181818" points="305.5,110.9609,315.5,114.9609,305.5,118.9609,309.5,114.9609" style="stroke:#181818;stroke-width:1.0;"/><line style="stroke:#181818;stroke-width:1.0;" x1="82.5" x2="311.5" y1="114.9609" y2="114.9609"/><text fill="#000000" font-family="sans-serif" font-size="13" lengthAdjust="spacing" textLength="182" x="89.5" y="110.1045">Click activation link (with token)</text><line style="stroke:#181818;stroke-width:1.0;" x1="327.5" x2="369.5" y1="145.3125" y2="145.3125"/><line style="stroke:#181818;stroke-width:1.0;" x1="369.5" x2="369.5" y1="145.3125" y2="158.3125"/><line style="stroke:#181818;stroke-width:1.0;" x1="328.5" x2="369.5" y1="158.3125" y2="158.3125"/><polygon fill="#181818" points="338.5,154.3125,328.5,158.3125,338.5,162.3125,334.5,158.3125" style="stroke:#181818;stroke-width:1.0;"/><text fill="#000000" font-family="sans-serif" font-size="13" lengthAdjust="spacing" textLength="83" x="334.5" y="140.4561">Validate token</text><path d="M10,173.3125 L71,173.3125 L71,181.6641 L61,191.6641 L10,191.6641 L10,173.3125 " fill="#EEEEEE" style="stroke:#000000;stroke-width:1.5;"/><rect fill="none" height="535.1328" style="stroke:#000000;stroke-width:1.5;" width="504.5" x="10" y="173.3125"/><text fill="#000000" font-family="sans-serif" font-size="13" font-weight="bold" lengthAdjust="spacing" textLength="16" x="25" y="187.8076">alt</text><text fill="#000000" font-family="sans-serif" font-size="11" font-weight="bold" lengthAdjust="spacing" textLength="84" x="86" y="186.7314">[Token is valid]</text><line style="stroke:#181818;stroke-width:1.0;" x1="327.5" x2="369.5" y1="214.0156" y2="214.0156"/><line style="stroke:#181818;stroke-width:1.0;" x1="369.5" x2="369.5" y1="214.0156" y2="227.0156"/><line style="stroke:#181818;stroke-width:1.0;" x1="328.5" x2="369.5" y1="227.0156" y2="227.0156"/><polygon fill="#181818" points="338.5,223.0156,328.5,227.0156,338.5,231.0156,334.5,227.0156" style="stroke:#181818;stroke-width:1.0;"/><text fill="#000000" font-family="sans-serif" font-size="13" lengthAdjust="spacing" textLength="133" x="334.5" y="209.1592">Request authentication</text><polygon fill="#181818" points="93.5,253.3672,83.5,257.3672,93.5,261.3672,89.5,257.3672" style="stroke:#181818;stroke-width:1.0;"/><line style="stroke:#181818;stroke-width:1.0;" x1="87.5" x2="316.5" y1="257.3672" y2="257.3672"/><text fill="#000000" font-family="sans-serif" font-size="13" lengthAdjust="spacing" textLength="115" x="99.5" y="252.5107">Request credentials</text><polygon fill="#181818" points="305.5,283.7188,315.5,287.7188,305.5,291.7188,309.5,287.7188" style="stroke:#181818;stroke-width:1.0;"/><line style="stroke:#181818;stroke-width:1.0;" x1="82.5" x2="311.5" y1="287.7188" y2="287.7188"/><text fill="#000000" font-family="sans-serif" font-size="13" lengthAdjust="spacing" textLength="109" x="89.5" y="282.8623">Provide credentials</text><line style="stroke:#181818;stroke-width:1.0;" x1="327.5" x2="369.5" y1="318.0703" y2="318.0703"/><line style="stroke:#181818;stroke-width:1.0;" x1="369.5" x2="369.5" y1="318.0703" y2="331.0703"/><line style="stroke:#181818;stroke-width:1.0;" x1="328.5" x2="369.5" y1="331.0703" y2="331.0703"/><polygon fill="#181818" points="338.5,327.0703,328.5,331.0703,338.5,335.0703,334.5,331.0703" style="stroke:#181818;stroke-width:1.0;"/><text fill="#000000" font-family="sans-serif" font-size="13" lengthAdjust="spacing" textLength="148" x="334.5" y="313.2139">Authenticate user via IAM</text><path d="M20,346.0703 L81,346.0703 L81,354.4219 L71,364.4219 L20,364.4219 L20,346.0703 " fill="#EEEEEE" style="stroke:#000000;stroke-width:1.5;"/><rect fill="none" height="292.8359" style="stroke:#000000;stroke-width:1.5;" width="484.5" x="20" y="346.0703"/><text fill="#000000" font-family="sans-serif" font-size="13" font-weight="bold" lengthAdjust="spacing" textLength="16" x="35" y="360.5654">alt</text><text fill="#000000" font-family="sans-serif" font-size="11" font-weight="bold" lengthAdjust="spacing" textLength="152" x="96" y="359.4893">[Authentication successful]</text><line style="stroke:#181818;stroke-width:1.0;" x1="327.5" x2="369.5" y1="386.7734" y2="386.7734"/><line style="stroke:#181818;stroke-width:1.0;" x1="369.5" x2="369.5" y1="386.7734" y2="399.7734"/><line style="stroke:#181818;stroke-width:1.0;" x1="328.5" x2="369.5" y1="399.7734" y2="399.7734"/><polygon fill="#181818" points="338.5,395.7734,328.5,399.7734,338.5,403.7734,334.5,399.7734" style="stroke:#181818;stroke-width:1.0;"/><text fill="#000000" font-family="sans-serif" font-size="13" lengthAdjust="spacing" textLength="158" x="334.5" y="381.917">Verify email matches token</text><path d="M30,414.7734 L91,414.7734 L91,423.125 L81,433.125 L30,433.125 L30,414.7734 " fill="#EEEEEE" style="stroke:#000000;stroke-width:1.5;"/><rect fill="none" height="154.5938" style="stroke:#000000;stroke-width:1.5;" width="441.5" x="30" y="414.7734"/><text fill="#000000" font-family="sans-serif" font-size="13" font-weight="bold" lengthAdjust="spacing" textLength="16" x="45" y="429.2686">alt</text><text fill="#000000" font-family="sans-serif" font-size="11" font-weight="bold" lengthAdjust="spacing" textLength="88" x="106" y="428.1924">[Email matches]</text><line style="stroke:#181818;stroke-width:1.0;" x1="327.5" x2="369.5" y1="455.4766" y2="455.4766"/><line style="stroke:#181818;stroke-width:1.0;" x1="369.5" x2="369.5" y1="455.4766" y2="468.4766"/><line style="stroke:#181818;stroke-width:1.0;" x1="328.5" x2="369.5" y1="468.4766" y2="468.4766"/><polygon fill="#181818" points="338.5,464.4766,328.5,468.4766,338.5,472.4766,334.5,468.4766" style="stroke:#181818;stroke-width:1.0;"/><text fill="#000000" font-family="sans-serif" font-size="13" lengthAdjust="spacing" textLength="125" x="334.5" y="450.6201">Activate user account</text><polygon fill="#181818" points="93.5,494.8281,83.5,498.8281,93.5,502.8281,89.5,498.8281" style="stroke:#181818;stroke-width:1.0;"/><line style="stroke:#181818;stroke-width:1.0;stroke-dasharray:2.0,2.0;" x1="87.5" x2="316.5" y1="498.8281" y2="498.8281"/><text fill="#000000" font-family="sans-serif" font-size="13" lengthAdjust="spacing" textLength="211" x="99.5" y="493.9717">Display activation success message</text><line style="stroke:#000000;stroke-width:1.0;stroke-dasharray:2.0,2.0;" x1="30" x2="471.5" y1="507.8281" y2="507.8281"/><text fill="#000000" font-family="sans-serif" font-size="11" font-weight="bold" lengthAdjust="spacing" textLength="95" x="35" y="519.2471">[Email mismatch]</text><polygon fill="#181818" points="93.5,557.3672,83.5,561.3672,93.5,565.3672,89.5,561.3672" style="stroke:#181818;stroke-width:1.0;"/><line style="stroke:#181818;stroke-width:1.0;stroke-dasharray:2.0,2.0;" x1="87.5" x2="316.5" y1="561.3672" y2="561.3672"/><text fill="#000000" font-family="sans-serif" font-size="13" lengthAdjust="spacing" textLength="130" x="99.5" y="540.1592">Display error message</text><text fill="#000000" font-family="sans-serif" font-size="13" lengthAdjust="spacing" textLength="127" x="99.5" y="556.5107">"User data mismatch"</text><line style="stroke:#000000;stroke-width:1.0;stroke-dasharray:2.0,2.0;" x1="20" x2="504.5" y1="577.3672" y2="577.3672"/><text fill="#000000" font-family="sans-serif" font-size="11" font-weight="bold" lengthAdjust="spacing" textLength="121" x="25" y="588.7861">[Authentication failed]</text><polygon fill="#181818" points="93.5,626.9063,83.5,630.9063,93.5,634.9063,89.5,630.9063" style="stroke:#181818;stroke-width:1.0;"/><line style="stroke:#181818;stroke-width:1.0;stroke-dasharray:2.0,2.0;" x1="87.5" x2="316.5" y1="630.9063" y2="630.9063"/><text fill="#000000" font-family="sans-serif" font-size="13" lengthAdjust="spacing" textLength="130" x="99.5" y="609.6982">Display error message</text><text fill="#000000" font-family="sans-serif" font-size="13" lengthAdjust="spacing" textLength="127" x="99.5" y="626.0498">"Authentication failed"</text><line style="stroke:#000000;stroke-width:1.0;stroke-dasharray:2.0,2.0;" x1="10" x2="514.5" y1="646.9063" y2="646.9063"/><text fill="#000000" font-family="sans-serif" font-size="11" font-weight="bold" lengthAdjust="spacing" textLength="154" x="15" y="658.3252">[Token is invalid or expired]</text><polygon fill="#181818" points="93.5,696.4453,83.5,700.4453,93.5,704.4453,89.5,700.4453" style="stroke:#181818;stroke-width:1.0;"/><line style="stroke:#181818;stroke-width:1.0;stroke-dasharray:2.0,2.0;" x1="87.5" x2="316.5" y1="700.4453" y2="700.4453"/><text fill="#000000" font-family="sans-serif" font-size="13" lengthAdjust="spacing" textLength="130" x="99.5" y="679.2373">Display error message</text><text fill="#000000" font-family="sans-serif" font-size="13" lengthAdjust="spacing" textLength="188" x="99.5" y="695.5889">"Invalid or expired activation link"</text><!--SRC=[bLDDJyCm3BtdLrWzmO4_m06f0Wux824-Tk9YfHwpbgObIGlzzoHUcstj4D13vChFxpqx3khGE2YU1n-eXbTFhW3q4gWMNM3DBTem8IIv3vLA8BYw6V-luTQmtW7gm3q6RYmOjZku-EImXT3io5wgCKcPOnG-ObcZuIf1f4GfD05UKWZieKz91V5R5ZxHHqS-07PXIpOw5nCpSF9yW6f7LOAYyOART_JecfuhMk2MukL1bA1BD3qZhCe7mSkH6YbFl87lj2RlDvqHn7dgDJdU340rie4QWzwI7uSp5UKWQTmV0tFc1zlJVOXbrBhfR3XRasTtnxurE1pVyzW6rF70TyhrP3nDTjYBexznatDnAqUwDrl8lSIbmCnJ74JiVY54R3RVJPIcIlrRxopDNZB9YLJUIRQobH0PwAjbHwSB-glOQb4_VqE5Igggeldp-GO0]--></g></svg>