<?xml version="1.0" encoding="us-ascii" standalone="no"?><svg xmlns="http://www.w3.org/2000/svg" xmlns:xlink="http://www.w3.org/1999/xlink" contentStyleType="text/css" height="381px" preserveAspectRatio="none" style="width:310px;height:381px;background:#FFFFFF;" version="1.1" viewBox="0 0 310 381" width="310px" zoomAndPan="magnify"><defs/><g><rect fill="#FFFFFF" height="30.3516" style="stroke:#181818;stroke-width:1.0;" width="10" x="257" y="122.7891"/><rect fill="#FFFFFF" height="30.3516" style="stroke:#181818;stroke-width:1.0;" width="10" x="257" y="183.4922"/><rect fill="#FFFFFF" height="30.3516" style="stroke:#181818;stroke-width:1.0;" width="10" x="257" y="244.1953"/><line style="stroke:#181818;stroke-width:0.5;stroke-dasharray:5.0,5.0;" x1="66" x2="66" y1="90.4375" y2="292.5469"/><line style="stroke:#181818;stroke-width:0.5;stroke-dasharray:5.0,5.0;" x1="262" x2="262" y1="90.4375" y2="292.5469"/><text fill="#000000" font-family="sans-serif" font-size="14" lengthAdjust="spacing" textLength="116" x="5" y="87.3613">Logistics Operator</text><ellipse cx="66" cy="21.3281" fill="#E2E2F0" rx="8" ry="8" style="stroke:#181818;stroke-width:0.5;"/><path d="M66,29.3281 L66,56.3281 M53,37.3281 L79,37.3281 M66,56.3281 L53,71.3281 M66,56.3281 L79,71.3281 " fill="none" style="stroke:#181818;stroke-width:0.5;"/><text fill="#000000" font-family="sans-serif" font-size="14" lengthAdjust="spacing" textLength="116" x="5" y="306.0801">Logistics Operator</text><ellipse cx="66" cy="317.6563" fill="#E2E2F0" rx="8" ry="8" style="stroke:#181818;stroke-width:0.5;"/><path d="M66,325.6563 L66,352.6563 M53,333.6563 L79,333.6563 M66,352.6563 L53,367.6563 M66,352.6563 L79,367.6563 " fill="none" style="stroke:#181818;stroke-width:0.5;"/><rect fill="#E2E2F0" height="84.4375" rx="2.5" ry="2.5" style="stroke:#181818;stroke-width:0.5;" width="84" x="220" y="5"/><text fill="#000000" font-family="sans-serif" font-size="14" lengthAdjust="spacing" textLength="60" x="232" y="26.5332">&#171;system&#187;</text><text fill="#000000" font-family="sans-serif" font-size="14" lengthAdjust="spacing" textLength="26" x="249" y="44.1426">Port</text><text fill="#000000" font-family="sans-serif" font-size="14" lengthAdjust="spacing" textLength="70" x="227" y="61.752">Operations</text><text fill="#000000" font-family="sans-serif" font-size="14" lengthAdjust="spacing" textLength="46" x="239" y="79.3613">System</text><rect fill="#E2E2F0" height="84.4375" rx="2.5" ry="2.5" style="stroke:#181818;stroke-width:0.5;" width="84" x="220" y="291.5469"/><text fill="#000000" font-family="sans-serif" font-size="14" lengthAdjust="spacing" textLength="60" x="232" y="313.0801">&#171;system&#187;</text><text fill="#000000" font-family="sans-serif" font-size="14" lengthAdjust="spacing" textLength="26" x="249" y="330.6895">Port</text><text fill="#000000" font-family="sans-serif" font-size="14" lengthAdjust="spacing" textLength="70" x="227" y="348.2988">Operations</text><text fill="#000000" font-family="sans-serif" font-size="14" lengthAdjust="spacing" textLength="46" x="239" y="365.9082">System</text><rect fill="#FFFFFF" height="30.3516" style="stroke:#181818;stroke-width:1.0;" width="10" x="257" y="122.7891"/><rect fill="#FFFFFF" height="30.3516" style="stroke:#181818;stroke-width:1.0;" width="10" x="257" y="183.4922"/><rect fill="#FFFFFF" height="30.3516" style="stroke:#181818;stroke-width:1.0;" width="10" x="257" y="244.1953"/><polygon fill="#181818" points="245,118.7891,255,122.7891,245,126.7891,249,122.7891" style="stroke:#181818;stroke-width:1.0;"/><line style="stroke:#181818;stroke-width:1.0;" x1="66" x2="251" y1="122.7891" y2="122.7891"/><text fill="#000000" font-family="sans-serif" font-size="13" font-weight="bold" lengthAdjust="spacing" textLength="7" x="73" y="117.9326">1</text><text fill="#000000" font-family="sans-serif" font-size="13" lengthAdjust="spacing" textLength="118" x="84" y="117.9326">update qualifications</text><polygon fill="#181818" points="77,149.1406,67,153.1406,77,157.1406,73,153.1406" style="stroke:#181818;stroke-width:1.0;"/><line style="stroke:#181818;stroke-width:1.0;stroke-dasharray:2.0,2.0;" x1="71" x2="261" y1="153.1406" y2="153.1406"/><text fill="#000000" font-family="sans-serif" font-size="13" font-weight="bold" lengthAdjust="spacing" textLength="7" x="83" y="148.2842">2</text><text fill="#000000" font-family="sans-serif" font-size="13" lengthAdjust="spacing" textLength="107" x="94" y="148.2842">select qualification</text><polygon fill="#181818" points="245,179.4922,255,183.4922,245,187.4922,249,183.4922" style="stroke:#181818;stroke-width:1.0;"/><line style="stroke:#181818;stroke-width:1.0;" x1="66" x2="251" y1="183.4922" y2="183.4922"/><text fill="#000000" font-family="sans-serif" font-size="13" font-weight="bold" lengthAdjust="spacing" textLength="7" x="73" y="178.6357">3</text><text fill="#000000" font-family="sans-serif" font-size="13" lengthAdjust="spacing" textLength="121" x="84" y="178.6357">selected qualification</text><polygon fill="#181818" points="77,209.8438,67,213.8438,77,217.8438,73,213.8438" style="stroke:#181818;stroke-width:1.0;"/><line style="stroke:#181818;stroke-width:1.0;stroke-dasharray:2.0,2.0;" x1="71" x2="261" y1="213.8438" y2="213.8438"/><text fill="#000000" font-family="sans-serif" font-size="13" font-weight="bold" lengthAdjust="spacing" textLength="7" x="83" y="208.9873">4</text><text fill="#000000" font-family="sans-serif" font-size="13" lengthAdjust="spacing" textLength="110" x="94" y="208.9873">insert the new data</text><polygon fill="#181818" points="245,240.1953,255,244.1953,245,248.1953,249,244.1953" style="stroke:#181818;stroke-width:1.0;"/><line style="stroke:#181818;stroke-width:1.0;" x1="66" x2="251" y1="244.1953" y2="244.1953"/><text fill="#000000" font-family="sans-serif" font-size="13" font-weight="bold" lengthAdjust="spacing" textLength="7" x="73" y="239.3389">5</text><text fill="#000000" font-family="sans-serif" font-size="13" lengthAdjust="spacing" textLength="124" x="84" y="239.3389">new qualification data</text><polygon fill="#181818" points="77,270.5469,67,274.5469,77,278.5469,73,274.5469" style="stroke:#181818;stroke-width:1.0;"/><line style="stroke:#181818;stroke-width:1.0;stroke-dasharray:2.0,2.0;" x1="71" x2="261" y1="274.5469" y2="274.5469"/><text fill="#000000" font-family="sans-serif" font-size="13" font-weight="bold" lengthAdjust="spacing" textLength="7" x="83" y="269.6904">6</text><text fill="#000000" font-family="sans-serif" font-size="13" lengthAdjust="spacing" textLength="156" x="94" y="269.6904">qualification updated / error</text><!--SRC=[ZP713e8m38RlUug6E_5E34zWeebNBdMhkWIwkHMDR-zWg04zS5l_zklVTjYBuxuxKL0AjRW0nSvTR1Ih8-mz1KnQ0VWDbCUGijOZ2nJRRNn6eQwk6pwu80tdEkiuDdmSSoEUdqgzsq1PJnfKq7k3Gd3hiRLdgpC-p6FlWpwnKtcPo4-N2YArf6NEAaDB-BznXiaiy7NEbYC50RaIC3qWhO2hZGTWvfdnTSPpC1_Fm0OeXFG_loEy0000]--></g></svg>