<?xml version="1.0" encoding="us-ascii" standalone="no"?><svg xmlns="http://www.w3.org/2000/svg" xmlns:xlink="http://www.w3.org/1999/xlink" contentStyleType="text/css" height="1514px" preserveAspectRatio="none" style="width:1480px;height:1514px;background:#FFFFFF;" version="1.1" viewBox="0 0 1480 1514" width="1480px" zoomAndPan="magnify"><defs/><g><rect fill="#FFFFFF" height="1321.4688" style="stroke:#181818;stroke-width:1.0;" width="10" x="101" y="92.6094"/><rect fill="#FFFFFF" height="573.6797" style="stroke:#181818;stroke-width:1.0;" width="10" x="404" y="175.6641"/><rect fill="#FFFFFF" height="590.0313" style="stroke:#181818;stroke-width:1.0;" width="10" x="404" y="824.0469"/><rect fill="#FFFFFF" height="496.625" style="stroke:#181818;stroke-width:1.0;" width="10" x="623" y="206.0156"/><rect fill="#FFFFFF" height="512.9766" style="stroke:#181818;stroke-width:1.0;" width="10" x="623" y="854.3984"/><rect fill="#FFFFFF" height="117.0547" style="stroke:#181818;stroke-width:1.0;" width="10" x="807.5" y="357.7734"/><rect fill="#FFFFFF" height="133.4063" style="stroke:#181818;stroke-width:1.0;" width="10" x="807.5" y="1006.1563"/><rect fill="#FFFFFF" height="91.0547" style="stroke:#181818;stroke-width:1.0;" width="10" x="1092.5" y="236.3672"/><rect fill="#FFFFFF" height="91.0547" style="stroke:#181818;stroke-width:1.0;" width="10" x="1092.5" y="884.75"/><rect fill="#FFFFFF" height="107.4063" style="stroke:#181818;stroke-width:1.0;" width="10" x="1256.5" y="505.1797"/><rect fill="#FFFFFF" height="107.4063" style="stroke:#181818;stroke-width:1.0;" width="10" x="1256.5" y="1169.9141"/><rect fill="#FFFFFF" height="30.3516" style="stroke:#181818;stroke-width:1.0;" width="10" x="1429.5" y="266.7188"/><rect fill="#FFFFFF" height="30.3516" style="stroke:#181818;stroke-width:1.0;" width="10" x="1429.5" y="551.8828"/><rect fill="#FFFFFF" height="30.3516" style="stroke:#181818;stroke-width:1.0;" width="10" x="1429.5" y="915.1016"/><rect fill="#FFFFFF" height="30.3516" style="stroke:#181818;stroke-width:1.0;" width="10" x="1429.5" y="1216.6172"/><line style="stroke:#181818;stroke-width:0.5;stroke-dasharray:5.0,5.0;" x1="106" x2="106" y1="82.6094" y2="1432.0781"/><line style="stroke:#181818;stroke-width:0.5;stroke-dasharray:5.0,5.0;" x1="409" x2="409" y1="82.6094" y2="1432.0781"/><line style="stroke:#181818;stroke-width:0.5;stroke-dasharray:5.0,5.0;" x1="628" x2="628" y1="82.6094" y2="1432.0781"/><line style="stroke:#181818;stroke-width:0.5;stroke-dasharray:5.0,5.0;" x1="812" x2="812" y1="82.6094" y2="1432.0781"/><line style="stroke:#181818;stroke-width:0.5;stroke-dasharray:5.0,5.0;" x1="1097.5" x2="1097.5" y1="82.6094" y2="1432.0781"/><line style="stroke:#181818;stroke-width:0.5;stroke-dasharray:5.0,5.0;" x1="1261.5" x2="1261.5" y1="82.6094" y2="1432.0781"/><line style="stroke:#181818;stroke-width:0.5;stroke-dasharray:5.0,5.0;" x1="1434" x2="1434" y1="82.6094" y2="1432.0781"/><text fill="#000000" font-family="sans-serif" font-size="14" lengthAdjust="spacing" textLength="196" x="5" y="79.5332">Shipping Agent Representative</text><ellipse cx="106" cy="13.5" fill="#E2E2F0" rx="8" ry="8" style="stroke:#181818;stroke-width:0.5;"/><path d="M106,21.5 L106,48.5 M93,29.5 L119,29.5 M106,48.5 L93,63.5 M106,48.5 L119,63.5 " fill="none" style="stroke:#181818;stroke-width:0.5;"/><text fill="#000000" font-family="sans-serif" font-size="14" lengthAdjust="spacing" textLength="196" x="5" y="1445.6113">Shipping Agent Representative</text><ellipse cx="106" cy="1457.1875" fill="#E2E2F0" rx="8" ry="8" style="stroke:#181818;stroke-width:0.5;"/><path d="M106,1465.1875 L106,1492.1875 M93,1473.1875 L119,1473.1875 M106,1492.1875 L93,1507.1875 M106,1492.1875 L119,1507.1875 " fill="none" style="stroke:#181818;stroke-width:0.5;"/><rect fill="#E2E2F0" height="31.6094" rx="2.5" ry="2.5" style="stroke:#181818;stroke-width:0.5;" width="220" x="299" y="50"/><text fill="#000000" font-family="sans-serif" font-size="14" lengthAdjust="spacing" textLength="206" x="306" y="71.5332">VesselVisitNotificationsController</text><rect fill="#E2E2F0" height="31.6094" rx="2.5" ry="2.5" style="stroke:#181818;stroke-width:0.5;" width="220" x="299" y="1431.0781"/><text fill="#000000" font-family="sans-serif" font-size="14" lengthAdjust="spacing" textLength="206" x="306" y="1452.6113">VesselVisitNotificationsController</text><rect fill="#E2E2F0" height="31.6094" rx="2.5" ry="2.5" style="stroke:#181818;stroke-width:0.5;" width="198" x="529" y="50"/><text fill="#000000" font-family="sans-serif" font-size="14" lengthAdjust="spacing" textLength="184" x="536" y="71.5332">VesselVisitNotificationService</text><rect fill="#E2E2F0" height="31.6094" rx="2.5" ry="2.5" style="stroke:#181818;stroke-width:0.5;" width="198" x="529" y="1431.0781"/><text fill="#000000" font-family="sans-serif" font-size="14" lengthAdjust="spacing" textLength="184" x="536" y="1452.6113">VesselVisitNotificationService</text><rect fill="#E2E2F0" height="31.6094" rx="2.5" ry="2.5" style="stroke:#181818;stroke-width:0.5;" width="151" x="737" y="50"/><text fill="#000000" font-family="sans-serif" font-size="14" lengthAdjust="spacing" textLength="137" x="744" y="71.5332">VesselVisitNotification</text><rect fill="#E2E2F0" height="31.6094" rx="2.5" ry="2.5" style="stroke:#181818;stroke-width:0.5;" width="151" x="737" y="1431.0781"/><text fill="#000000" font-family="sans-serif" font-size="14" lengthAdjust="spacing" textLength="137" x="744" y="1452.6113">VesselVisitNotification</text><rect fill="#E2E2F0" height="31.6094" rx="2.5" ry="2.5" style="stroke:#181818;stroke-width:0.5;" width="222" x="986.5" y="50"/><text fill="#000000" font-family="sans-serif" font-size="14" lengthAdjust="spacing" textLength="208" x="993.5" y="71.5332">IVesselVisitNotificationRepository</text><rect fill="#E2E2F0" height="31.6094" rx="2.5" ry="2.5" style="stroke:#181818;stroke-width:0.5;" width="222" x="986.5" y="1431.0781"/><text fill="#000000" font-family="sans-serif" font-size="14" lengthAdjust="spacing" textLength="208" x="993.5" y="1452.6113">IVesselVisitNotificationRepository</text><rect fill="#E2E2F0" height="31.6094" rx="2.5" ry="2.5" style="stroke:#181818;stroke-width:0.5;" width="86" x="1218.5" y="50"/><text fill="#000000" font-family="sans-serif" font-size="14" lengthAdjust="spacing" textLength="72" x="1225.5" y="71.5332">UnitOfWork</text><rect fill="#E2E2F0" height="31.6094" rx="2.5" ry="2.5" style="stroke:#181818;stroke-width:0.5;" width="86" x="1218.5" y="1431.0781"/><text fill="#000000" font-family="sans-serif" font-size="14" lengthAdjust="spacing" textLength="72" x="1225.5" y="1452.6113">UnitOfWork</text><text fill="#000000" font-family="sans-serif" font-size="14" lengthAdjust="spacing" textLength="61" x="1401" y="79.5332">Database</text><path d="M1416.5,29 C1416.5,19 1434.5,19 1434.5,19 C1434.5,19 1452.5,19 1452.5,29 L1452.5,55 C1452.5,65 1434.5,65 1434.5,65 C1434.5,65 1416.5,65 1416.5,55 L1416.5,29 " fill="#E2E2F0" style="stroke:#181818;stroke-width:1.5;"/><path d="M1416.5,29 C1416.5,39 1434.5,39 1434.5,39 C1434.5,39 1452.5,39 1452.5,29 " fill="none" style="stroke:#181818;stroke-width:1.5;"/><text fill="#000000" font-family="sans-serif" font-size="14" lengthAdjust="spacing" textLength="61" x="1401" y="1445.6113">Database</text><path d="M1416.5,1458.6875 C1416.5,1448.6875 1434.5,1448.6875 1434.5,1448.6875 C1434.5,1448.6875 1452.5,1448.6875 1452.5,1458.6875 L1452.5,1484.6875 C1452.5,1494.6875 1434.5,1494.6875 1434.5,1494.6875 C1434.5,1494.6875 1416.5,1494.6875 1416.5,1484.6875 L1416.5,1458.6875 " fill="#E2E2F0" style="stroke:#181818;stroke-width:1.5;"/><path d="M1416.5,1458.6875 C1416.5,1468.6875 1434.5,1468.6875 1434.5,1468.6875 C1434.5,1468.6875 1452.5,1468.6875 1452.5,1458.6875 " fill="none" style="stroke:#181818;stroke-width:1.5;"/><rect fill="#FFFFFF" height="1321.4688" style="stroke:#181818;stroke-width:1.0;" width="10" x="101" y="92.6094"/><rect fill="#FFFFFF" height="573.6797" style="stroke:#181818;stroke-width:1.0;" width="10" x="404" y="175.6641"/><rect fill="#FFFFFF" height="590.0313" style="stroke:#181818;stroke-width:1.0;" width="10" x="404" y="824.0469"/><rect fill="#FFFFFF" height="496.625" style="stroke:#181818;stroke-width:1.0;" width="10" x="623" y="206.0156"/><rect fill="#FFFFFF" height="512.9766" style="stroke:#181818;stroke-width:1.0;" width="10" x="623" y="854.3984"/><rect fill="#FFFFFF" height="117.0547" style="stroke:#181818;stroke-width:1.0;" width="10" x="807.5" y="357.7734"/><rect fill="#FFFFFF" height="133.4063" style="stroke:#181818;stroke-width:1.0;" width="10" x="807.5" y="1006.1563"/><rect fill="#FFFFFF" height="91.0547" style="stroke:#181818;stroke-width:1.0;" width="10" x="1092.5" y="236.3672"/><rect fill="#FFFFFF" height="91.0547" style="stroke:#181818;stroke-width:1.0;" width="10" x="1092.5" y="884.75"/><rect fill="#FFFFFF" height="107.4063" style="stroke:#181818;stroke-width:1.0;" width="10" x="1256.5" y="505.1797"/><rect fill="#FFFFFF" height="107.4063" style="stroke:#181818;stroke-width:1.0;" width="10" x="1256.5" y="1169.9141"/><rect fill="#FFFFFF" height="30.3516" style="stroke:#181818;stroke-width:1.0;" width="10" x="1429.5" y="266.7188"/><rect fill="#FFFFFF" height="30.3516" style="stroke:#181818;stroke-width:1.0;" width="10" x="1429.5" y="551.8828"/><rect fill="#FFFFFF" height="30.3516" style="stroke:#181818;stroke-width:1.0;" width="10" x="1429.5" y="915.1016"/><rect fill="#FFFFFF" height="30.3516" style="stroke:#181818;stroke-width:1.0;" width="10" x="1429.5" y="1216.6172"/><rect fill="#EEEEEE" height="3" style="stroke:#EEEEEE;stroke-width:1.0;" width="1473" x="0" y="113.7852"/><line style="stroke:#000000;stroke-width:1.0;" x1="0" x2="1473" y1="113.7852" y2="113.7852"/><line style="stroke:#000000;stroke-width:1.0;" x1="0" x2="1473" y1="116.7852" y2="116.7852"/><rect fill="#EEEEEE" height="24.3516" style="stroke:#000000;stroke-width:2.0;" width="240" x="616.5" y="102.6094"/><text fill="#000000" font-family="sans-serif" font-size="13" font-weight="bold" lengthAdjust="spacing" textLength="222" x="622.5" y="120.1045">Agent Edits In-Progress Notification</text><polygon fill="#181818" points="392,171.6641,402,175.6641,392,179.6641,396,175.6641" style="stroke:#181818;stroke-width:1.0;"/><line style="stroke:#181818;stroke-width:1.0;" x1="111" x2="398" y1="175.6641" y2="175.6641"/><text fill="#000000" font-family="sans-serif" font-size="13" font-weight="bold" lengthAdjust="spacing" textLength="7" x="118" y="162.6318">1</text><text fill="#000000" font-family="sans-serif" font-size="13" lengthAdjust="spacing" textLength="256" x="129" y="154.4561">PUT /api/VesselVisitNotifications/{id}/update</text><text fill="#000000" font-family="sans-serif" font-size="13" lengthAdjust="spacing" textLength="145" x="129" y="170.8076">{updatedNotificationData}</text><polygon fill="#181818" points="611,202.0156,621,206.0156,611,210.0156,615,206.0156" style="stroke:#181818;stroke-width:1.0;"/><line style="stroke:#181818;stroke-width:1.0;" x1="414" x2="617" y1="206.0156" y2="206.0156"/><text fill="#000000" font-family="sans-serif" font-size="13" font-weight="bold" lengthAdjust="spacing" textLength="7" x="421" y="201.1592">2</text><text fill="#000000" font-family="sans-serif" font-size="13" lengthAdjust="spacing" textLength="122" x="432" y="201.1592">UpdateAsync(id, dto)</text><polygon fill="#181818" points="1080.5,232.3672,1090.5,236.3672,1080.5,240.3672,1084.5,236.3672" style="stroke:#181818;stroke-width:1.0;"/><line style="stroke:#181818;stroke-width:1.0;" x1="633" x2="1086.5" y1="236.3672" y2="236.3672"/><text fill="#000000" font-family="sans-serif" font-size="13" font-weight="bold" lengthAdjust="spacing" textLength="7" x="640" y="231.5107">3</text><text fill="#000000" font-family="sans-serif" font-size="13" lengthAdjust="spacing" textLength="102" x="651" y="231.5107">GetByIdAsync(id)</text><polygon fill="#181818" points="1417.5,262.7188,1427.5,266.7188,1417.5,270.7188,1421.5,266.7188" style="stroke:#181818;stroke-width:1.0;"/><line style="stroke:#181818;stroke-width:1.0;" x1="1102.5" x2="1423.5" y1="266.7188" y2="266.7188"/><text fill="#000000" font-family="sans-serif" font-size="13" font-weight="bold" lengthAdjust="spacing" textLength="7" x="1109.5" y="261.8623">4</text><text fill="#000000" font-family="sans-serif" font-size="13" lengthAdjust="spacing" textLength="64" x="1120.5" y="261.8623">query by id</text><polygon fill="#181818" points="1113.5,293.0703,1103.5,297.0703,1113.5,301.0703,1109.5,297.0703" style="stroke:#181818;stroke-width:1.0;"/><line style="stroke:#181818;stroke-width:1.0;stroke-dasharray:2.0,2.0;" x1="1107.5" x2="1433.5" y1="297.0703" y2="297.0703"/><text fill="#000000" font-family="sans-serif" font-size="13" font-weight="bold" lengthAdjust="spacing" textLength="7" x="1119.5" y="292.2139">5</text><text fill="#000000" font-family="sans-serif" font-size="13" lengthAdjust="spacing" textLength="102" x="1130.5" y="292.2139">notification record</text><polygon fill="#181818" points="644,323.4219,634,327.4219,644,331.4219,640,327.4219" style="stroke:#181818;stroke-width:1.0;"/><line style="stroke:#181818;stroke-width:1.0;stroke-dasharray:2.0,2.0;" x1="638" x2="1096.5" y1="327.4219" y2="327.4219"/><text fill="#000000" font-family="sans-serif" font-size="13" font-weight="bold" lengthAdjust="spacing" textLength="7" x="650" y="322.5654">6</text><text fill="#000000" font-family="sans-serif" font-size="13" lengthAdjust="spacing" textLength="130" x="661" y="322.5654">VesselVisitNotification</text><polygon fill="#181818" points="795.5,353.7734,805.5,357.7734,795.5,361.7734,799.5,357.7734" style="stroke:#181818;stroke-width:1.0;"/><line style="stroke:#181818;stroke-width:1.0;" x1="633" x2="801.5" y1="357.7734" y2="357.7734"/><text fill="#000000" font-family="sans-serif" font-size="13" font-weight="bold" lengthAdjust="spacing" textLength="7" x="640" y="352.917">7</text><text fill="#000000" font-family="sans-serif" font-size="13" lengthAdjust="spacing" textLength="67" x="651" y="352.917">Update(dto)</text><line style="stroke:#181818;stroke-width:1.0;" x1="817.5" x2="859.5" y1="388.125" y2="388.125"/><line style="stroke:#181818;stroke-width:1.0;" x1="859.5" x2="859.5" y1="388.125" y2="401.125"/><line style="stroke:#181818;stroke-width:1.0;" x1="818.5" x2="859.5" y1="401.125" y2="401.125"/><polygon fill="#181818" points="828.5,397.125,818.5,401.125,828.5,405.125,824.5,401.125" style="stroke:#181818;stroke-width:1.0;"/><text fill="#000000" font-family="sans-serif" font-size="13" font-weight="bold" lengthAdjust="spacing" textLength="7" x="824.5" y="383.2686">8</text><text fill="#000000" font-family="sans-serif" font-size="13" lengthAdjust="spacing" textLength="250" x="835.5" y="383.2686">validate editable state (must be InProgress)</text><line style="stroke:#181818;stroke-width:1.0;" x1="817.5" x2="859.5" y1="431.4766" y2="431.4766"/><line style="stroke:#181818;stroke-width:1.0;" x1="859.5" x2="859.5" y1="431.4766" y2="444.4766"/><line style="stroke:#181818;stroke-width:1.0;" x1="818.5" x2="859.5" y1="444.4766" y2="444.4766"/><polygon fill="#181818" points="828.5,440.4766,818.5,444.4766,828.5,448.4766,824.5,444.4766" style="stroke:#181818;stroke-width:1.0;"/><text fill="#000000" font-family="sans-serif" font-size="13" font-weight="bold" lengthAdjust="spacing" textLength="7" x="824.5" y="426.6201">9</text><text fill="#000000" font-family="sans-serif" font-size="13" lengthAdjust="spacing" textLength="132" x="835.5" y="426.6201">apply property updates</text><polygon fill="#181818" points="644,470.8281,634,474.8281,644,478.8281,640,474.8281" style="stroke:#181818;stroke-width:1.0;"/><line style="stroke:#181818;stroke-width:1.0;stroke-dasharray:2.0,2.0;" x1="638" x2="811.5" y1="474.8281" y2="474.8281"/><text fill="#000000" font-family="sans-serif" font-size="13" font-weight="bold" lengthAdjust="spacing" textLength="14" x="650" y="469.9717">10</text><text fill="#000000" font-family="sans-serif" font-size="13" lengthAdjust="spacing" textLength="22" x="668" y="469.9717">void</text><polygon fill="#181818" points="1244.5,501.1797,1254.5,505.1797,1244.5,509.1797,1248.5,505.1797" style="stroke:#181818;stroke-width:1.0;"/><line style="stroke:#181818;stroke-width:1.0;" x1="633" x2="1250.5" y1="505.1797" y2="505.1797"/><text fill="#000000" font-family="sans-serif" font-size="13" font-weight="bold" lengthAdjust="spacing" textLength="14" x="640" y="500.3232">11</text><text fill="#000000" font-family="sans-serif" font-size="13" lengthAdjust="spacing" textLength="90" x="658" y="500.3232">CommitAsync()</text><polygon fill="#181818" points="1417.5,547.8828,1427.5,551.8828,1417.5,555.8828,1421.5,551.8828" style="stroke:#181818;stroke-width:1.0;"/><line style="stroke:#181818;stroke-width:1.0;" x1="1266.5" x2="1423.5" y1="551.8828" y2="551.8828"/><text fill="#000000" font-family="sans-serif" font-size="13" font-weight="bold" lengthAdjust="spacing" textLength="14" x="1273.5" y="538.8506">12</text><text fill="#000000" font-family="sans-serif" font-size="13" lengthAdjust="spacing" textLength="124" x="1291.5" y="530.6748">SaveChangesAsync()</text><text fill="#000000" font-family="sans-serif" font-size="13" lengthAdjust="spacing" textLength="126" x="1291.5" y="547.0264">(persist updated data)</text><polygon fill="#181818" points="1277.5,578.2344,1267.5,582.2344,1277.5,586.2344,1273.5,582.2344" style="stroke:#181818;stroke-width:1.0;"/><line style="stroke:#181818;stroke-width:1.0;stroke-dasharray:2.0,2.0;" x1="1271.5" x2="1433.5" y1="582.2344" y2="582.2344"/><text fill="#000000" font-family="sans-serif" font-size="13" font-weight="bold" lengthAdjust="spacing" textLength="14" x="1283.5" y="577.3779">13</text><text fill="#000000" font-family="sans-serif" font-size="13" lengthAdjust="spacing" textLength="49" x="1301.5" y="577.3779">success</text><polygon fill="#181818" points="644,608.5859,634,612.5859,644,616.5859,640,612.5859" style="stroke:#181818;stroke-width:1.0;"/><line style="stroke:#181818;stroke-width:1.0;stroke-dasharray:2.0,2.0;" x1="638" x2="1260.5" y1="612.5859" y2="612.5859"/><text fill="#000000" font-family="sans-serif" font-size="13" font-weight="bold" lengthAdjust="spacing" textLength="14" x="650" y="607.7295">14</text><text fill="#000000" font-family="sans-serif" font-size="13" lengthAdjust="spacing" textLength="49" x="668" y="607.7295">success</text><line style="stroke:#181818;stroke-width:1.0;" x1="633" x2="675" y1="642.9375" y2="642.9375"/><line style="stroke:#181818;stroke-width:1.0;" x1="675" x2="675" y1="642.9375" y2="655.9375"/><line style="stroke:#181818;stroke-width:1.0;" x1="634" x2="675" y1="655.9375" y2="655.9375"/><polygon fill="#181818" points="644,651.9375,634,655.9375,644,659.9375,640,655.9375" style="stroke:#181818;stroke-width:1.0;"/><text fill="#000000" font-family="sans-serif" font-size="13" font-weight="bold" lengthAdjust="spacing" textLength="14" x="640" y="638.0811">15</text><text fill="#000000" font-family="sans-serif" font-size="13" lengthAdjust="spacing" textLength="129" x="658" y="638.0811">MapToDto(notification)</text><polygon fill="#181818" points="425,698.6406,415,702.6406,425,706.6406,421,702.6406" style="stroke:#181818;stroke-width:1.0;"/><line style="stroke:#181818;stroke-width:1.0;stroke-dasharray:2.0,2.0;" x1="419" x2="627" y1="702.6406" y2="702.6406"/><text fill="#000000" font-family="sans-serif" font-size="13" font-weight="bold" lengthAdjust="spacing" textLength="14" x="431" y="689.6084">16</text><text fill="#000000" font-family="sans-serif" font-size="13" lengthAdjust="spacing" textLength="150" x="449" y="681.4326">VesselVisitNotificationDto</text><text fill="#000000" font-family="sans-serif" font-size="13" lengthAdjust="spacing" textLength="54" x="449" y="697.7842">(updated)</text><polygon fill="#181818" points="122,745.3438,112,749.3438,122,753.3438,118,749.3438" style="stroke:#181818;stroke-width:1.0;"/><line style="stroke:#181818;stroke-width:1.0;stroke-dasharray:2.0,2.0;" x1="116" x2="408" y1="749.3438" y2="749.3438"/><text fill="#000000" font-family="sans-serif" font-size="13" font-weight="bold" lengthAdjust="spacing" textLength="14" x="128" y="736.3115">17</text><text fill="#000000" font-family="sans-serif" font-size="13" lengthAdjust="spacing" textLength="44" x="146" y="728.1357">200 OK</text><text fill="#000000" font-family="sans-serif" font-size="13" lengthAdjust="spacing" textLength="162" x="146" y="744.4873">(updated notification details)</text><rect fill="#EEEEEE" height="3" style="stroke:#EEEEEE;stroke-width:1.0;" width="1473" x="0" y="778.5195"/><line style="stroke:#000000;stroke-width:1.0;" x1="0" x2="1473" y1="778.5195" y2="778.5195"/><line style="stroke:#000000;stroke-width:1.0;" x1="0" x2="1473" y1="781.5195" y2="781.5195"/><rect fill="#EEEEEE" height="24.3516" style="stroke:#000000;stroke-width:2.0;" width="186" x="643.5" y="767.3438"/><text fill="#000000" font-family="sans-serif" font-size="13" font-weight="bold" lengthAdjust="spacing" textLength="168" x="649.5" y="784.8389">Agent Submits Notification</text><polygon fill="#181818" points="392,820.0469,402,824.0469,392,828.0469,396,824.0469" style="stroke:#181818;stroke-width:1.0;"/><line style="stroke:#181818;stroke-width:1.0;" x1="111" x2="398" y1="824.0469" y2="824.0469"/><text fill="#000000" font-family="sans-serif" font-size="13" font-weight="bold" lengthAdjust="spacing" textLength="14" x="118" y="819.1904">18</text><text fill="#000000" font-family="sans-serif" font-size="13" lengthAdjust="spacing" textLength="256" x="136" y="819.1904">PUT /api/VesselVisitNotifications/{id}/submit</text><polygon fill="#181818" points="611,850.3984,621,854.3984,611,858.3984,615,854.3984" style="stroke:#181818;stroke-width:1.0;"/><line style="stroke:#181818;stroke-width:1.0;" x1="414" x2="617" y1="854.3984" y2="854.3984"/><text fill="#000000" font-family="sans-serif" font-size="13" font-weight="bold" lengthAdjust="spacing" textLength="14" x="421" y="849.542">19</text><text fill="#000000" font-family="sans-serif" font-size="13" lengthAdjust="spacing" textLength="96" x="439" y="849.542">SubmitAsync(id)</text><polygon fill="#181818" points="1080.5,880.75,1090.5,884.75,1080.5,888.75,1084.5,884.75" style="stroke:#181818;stroke-width:1.0;"/><line style="stroke:#181818;stroke-width:1.0;" x1="633" x2="1086.5" y1="884.75" y2="884.75"/><text fill="#000000" font-family="sans-serif" font-size="13" font-weight="bold" lengthAdjust="spacing" textLength="14" x="640" y="879.8936">20</text><text fill="#000000" font-family="sans-serif" font-size="13" lengthAdjust="spacing" textLength="102" x="658" y="879.8936">GetByIdAsync(id)</text><polygon fill="#181818" points="1417.5,911.1016,1427.5,915.1016,1417.5,919.1016,1421.5,915.1016" style="stroke:#181818;stroke-width:1.0;"/><line style="stroke:#181818;stroke-width:1.0;" x1="1102.5" x2="1423.5" y1="915.1016" y2="915.1016"/><text fill="#000000" font-family="sans-serif" font-size="13" font-weight="bold" lengthAdjust="spacing" textLength="14" x="1109.5" y="910.2451">21</text><text fill="#000000" font-family="sans-serif" font-size="13" lengthAdjust="spacing" textLength="64" x="1127.5" y="910.2451">query by id</text><polygon fill="#181818" points="1113.5,941.4531,1103.5,945.4531,1113.5,949.4531,1109.5,945.4531" style="stroke:#181818;stroke-width:1.0;"/><line style="stroke:#181818;stroke-width:1.0;stroke-dasharray:2.0,2.0;" x1="1107.5" x2="1433.5" y1="945.4531" y2="945.4531"/><text fill="#000000" font-family="sans-serif" font-size="13" font-weight="bold" lengthAdjust="spacing" textLength="14" x="1119.5" y="940.5967">22</text><text fill="#000000" font-family="sans-serif" font-size="13" lengthAdjust="spacing" textLength="102" x="1137.5" y="940.5967">notification record</text><polygon fill="#181818" points="644,971.8047,634,975.8047,644,979.8047,640,975.8047" style="stroke:#181818;stroke-width:1.0;"/><line style="stroke:#181818;stroke-width:1.0;stroke-dasharray:2.0,2.0;" x1="638" x2="1096.5" y1="975.8047" y2="975.8047"/><text fill="#000000" font-family="sans-serif" font-size="13" font-weight="bold" lengthAdjust="spacing" textLength="14" x="650" y="970.9482">23</text><text fill="#000000" font-family="sans-serif" font-size="13" lengthAdjust="spacing" textLength="130" x="668" y="970.9482">VesselVisitNotification</text><polygon fill="#181818" points="795.5,1002.1563,805.5,1006.1563,795.5,1010.1563,799.5,1006.1563" style="stroke:#181818;stroke-width:1.0;"/><line style="stroke:#181818;stroke-width:1.0;" x1="633" x2="801.5" y1="1006.1563" y2="1006.1563"/><text fill="#000000" font-family="sans-serif" font-size="13" font-weight="bold" lengthAdjust="spacing" textLength="14" x="640" y="1001.2998">24</text><text fill="#000000" font-family="sans-serif" font-size="13" lengthAdjust="spacing" textLength="49" x="658" y="1001.2998">Submit()</text><line style="stroke:#181818;stroke-width:1.0;" x1="817.5" x2="859.5" y1="1036.5078" y2="1036.5078"/><line style="stroke:#181818;stroke-width:1.0;" x1="859.5" x2="859.5" y1="1036.5078" y2="1049.5078"/><line style="stroke:#181818;stroke-width:1.0;" x1="818.5" x2="859.5" y1="1049.5078" y2="1049.5078"/><polygon fill="#181818" points="828.5,1045.5078,818.5,1049.5078,828.5,1053.5078,824.5,1049.5078" style="stroke:#181818;stroke-width:1.0;"/><text fill="#000000" font-family="sans-serif" font-size="13" font-weight="bold" lengthAdjust="spacing" textLength="14" x="824.5" y="1031.6514">25</text><text fill="#000000" font-family="sans-serif" font-size="13" lengthAdjust="spacing" textLength="201" x="842.5" y="1031.6514">validate state (must be InProgress)</text><line style="stroke:#181818;stroke-width:1.0;" x1="817.5" x2="859.5" y1="1096.2109" y2="1096.2109"/><line style="stroke:#181818;stroke-width:1.0;" x1="859.5" x2="859.5" y1="1096.2109" y2="1109.2109"/><line style="stroke:#181818;stroke-width:1.0;" x1="818.5" x2="859.5" y1="1109.2109" y2="1109.2109"/><polygon fill="#181818" points="828.5,1105.2109,818.5,1109.2109,828.5,1113.2109,824.5,1109.2109" style="stroke:#181818;stroke-width:1.0;"/><text fill="#000000" font-family="sans-serif" font-size="13" font-weight="bold" lengthAdjust="spacing" textLength="14" x="824.5" y="1083.1787">26</text><text fill="#000000" font-family="sans-serif" font-size="13" lengthAdjust="spacing" textLength="135" x="842.5" y="1075.0029">set Status = Submitted</text><text fill="#000000" font-family="sans-serif" font-size="13" lengthAdjust="spacing" textLength="141" x="842.5" y="1091.3545">set SubmittedAt = now()</text><polygon fill="#181818" points="644,1135.5625,634,1139.5625,644,1143.5625,640,1139.5625" style="stroke:#181818;stroke-width:1.0;"/><line style="stroke:#181818;stroke-width:1.0;stroke-dasharray:2.0,2.0;" x1="638" x2="811.5" y1="1139.5625" y2="1139.5625"/><text fill="#000000" font-family="sans-serif" font-size="13" font-weight="bold" lengthAdjust="spacing" textLength="14" x="650" y="1134.7061">27</text><text fill="#000000" font-family="sans-serif" font-size="13" lengthAdjust="spacing" textLength="22" x="668" y="1134.7061">void</text><polygon fill="#181818" points="1244.5,1165.9141,1254.5,1169.9141,1244.5,1173.9141,1248.5,1169.9141" style="stroke:#181818;stroke-width:1.0;"/><line style="stroke:#181818;stroke-width:1.0;" x1="633" x2="1250.5" y1="1169.9141" y2="1169.9141"/><text fill="#000000" font-family="sans-serif" font-size="13" font-weight="bold" lengthAdjust="spacing" textLength="14" x="640" y="1165.0576">28</text><text fill="#000000" font-family="sans-serif" font-size="13" lengthAdjust="spacing" textLength="90" x="658" y="1165.0576">CommitAsync()</text><polygon fill="#181818" points="1417.5,1212.6172,1427.5,1216.6172,1417.5,1220.6172,1421.5,1216.6172" style="stroke:#181818;stroke-width:1.0;"/><line style="stroke:#181818;stroke-width:1.0;" x1="1266.5" x2="1423.5" y1="1216.6172" y2="1216.6172"/><text fill="#000000" font-family="sans-serif" font-size="13" font-weight="bold" lengthAdjust="spacing" textLength="14" x="1273.5" y="1203.585">29</text><text fill="#000000" font-family="sans-serif" font-size="13" lengthAdjust="spacing" textLength="124" x="1291.5" y="1195.4092">SaveChangesAsync()</text><text fill="#000000" font-family="sans-serif" font-size="13" lengthAdjust="spacing" textLength="117" x="1291.5" y="1211.7607">(persist submission)</text><polygon fill="#181818" points="1277.5,1242.9688,1267.5,1246.9688,1277.5,1250.9688,1273.5,1246.9688" style="stroke:#181818;stroke-width:1.0;"/><line style="stroke:#181818;stroke-width:1.0;stroke-dasharray:2.0,2.0;" x1="1271.5" x2="1433.5" y1="1246.9688" y2="1246.9688"/><text fill="#000000" font-family="sans-serif" font-size="13" font-weight="bold" lengthAdjust="spacing" textLength="14" x="1283.5" y="1242.1123">30</text><text fill="#000000" font-family="sans-serif" font-size="13" lengthAdjust="spacing" textLength="49" x="1301.5" y="1242.1123">success</text><polygon fill="#181818" points="644,1273.3203,634,1277.3203,644,1281.3203,640,1277.3203" style="stroke:#181818;stroke-width:1.0;"/><line style="stroke:#181818;stroke-width:1.0;stroke-dasharray:2.0,2.0;" x1="638" x2="1260.5" y1="1277.3203" y2="1277.3203"/><text fill="#000000" font-family="sans-serif" font-size="13" font-weight="bold" lengthAdjust="spacing" textLength="14" x="650" y="1272.4639">31</text><text fill="#000000" font-family="sans-serif" font-size="13" lengthAdjust="spacing" textLength="49" x="668" y="1272.4639">success</text><line style="stroke:#181818;stroke-width:1.0;" x1="633" x2="675" y1="1307.6719" y2="1307.6719"/><line style="stroke:#181818;stroke-width:1.0;" x1="675" x2="675" y1="1307.6719" y2="1320.6719"/><line style="stroke:#181818;stroke-width:1.0;" x1="634" x2="675" y1="1320.6719" y2="1320.6719"/><polygon fill="#181818" points="644,1316.6719,634,1320.6719,644,1324.6719,640,1320.6719" style="stroke:#181818;stroke-width:1.0;"/><text fill="#000000" font-family="sans-serif" font-size="13" font-weight="bold" lengthAdjust="spacing" textLength="14" x="640" y="1302.8154">32</text><text fill="#000000" font-family="sans-serif" font-size="13" lengthAdjust="spacing" textLength="129" x="658" y="1302.8154">MapToDto(notification)</text><polygon fill="#181818" points="425,1363.375,415,1367.375,425,1371.375,421,1367.375" style="stroke:#181818;stroke-width:1.0;"/><line style="stroke:#181818;stroke-width:1.0;stroke-dasharray:2.0,2.0;" x1="419" x2="627" y1="1367.375" y2="1367.375"/><text fill="#000000" font-family="sans-serif" font-size="13" font-weight="bold" lengthAdjust="spacing" textLength="14" x="431" y="1354.3428">33</text><text fill="#000000" font-family="sans-serif" font-size="13" lengthAdjust="spacing" textLength="150" x="449" y="1346.167">VesselVisitNotificationDto</text><text fill="#000000" font-family="sans-serif" font-size="13" lengthAdjust="spacing" textLength="65" x="449" y="1362.5186">(submitted)</text><polygon fill="#181818" points="117,1410.0781,107,1414.0781,117,1418.0781,113,1414.0781" style="stroke:#181818;stroke-width:1.0;"/><line style="stroke:#181818;stroke-width:1.0;stroke-dasharray:2.0,2.0;" x1="111" x2="408" y1="1414.0781" y2="1414.0781"/><text fill="#000000" font-family="sans-serif" font-size="13" font-weight="bold" lengthAdjust="spacing" textLength="14" x="123" y="1401.0459">34</text><text fill="#000000" font-family="sans-serif" font-size="13" lengthAdjust="spacing" textLength="44" x="141" y="1392.8701">200 OK</text><text fill="#000000" font-family="sans-serif" font-size="13" lengthAdjust="spacing" textLength="134" x="141" y="1409.2217">(submission confirmed)</text><!--SRC=[xLN1Qjj04BthAnQV9AXnw37WWcE7OagRKCV9nPULD7Q6Ihlgxah5XFnxHzBA6XaRulJIGc-xslTsPjxCMydIQLNcCPWWa8dJHenMprWKg7PYjWFbn7Se35XQIOSLZ8IqxK5GIECmmK8IQFG8raBsY1RTD-rmYmd1jR9phPpHMGQcOVRRDz5NO2fCsg1-_IPUGxXL3jr-Y5-U8L2HcZvfis-e_NP8NojqTzidRNuqiBL-2bBfP2mjYD72hvgZnKqGJATUmjiKdHLBDRutUaTYMi5ZY-cqbXuhwS1BszB6dvXUubhShn_4H1OuEIVsv0NJrqbPK4wmKI_j8kMGEiVNFXfhHy12KM2lDaLTDxVCx5ub8QOVHEfqrD_GTINe2CJjrIFwPt0t-sNQyHcLYSmOn5_S4Ezd2RIBzmBJdaAgqk7uE8RYQXf8j4c353YB1nXKTqPAJcTvyYhRyJe850vrySFdGHnUoGnhWW2Q2Xbd8Aohjs5UMYTYe3dfnYGwnPT5aUr5ONG1XZwqJRO7vA2wIkD02PyLBuDcc81pdUVesYQnAke1hm5TKrQoWlcpL3km7hjH8ULXaLBtuoPgHqIdUjQ6icMIK6r73MgY378_WQlJuRdtuA-oUD0BfqC-2b6FFRRIcRRJ3LIGBoJYeGzppcr2jxPElHOVhwx4tPUUF9p959p4p0vkvDuxl1IhCixhj-BuVVYZ1y4sbrxc-ZQH4wxzRtYlJNYPsoypkGMQ1MAKLanzF1ggZMg-TzkPeqEbVuNHN-3-PiYiRMpt3tlVTkA-p_sz2YBHQeicFxg9UOzzRV_wlm40]--></g></svg>