<?xml version="1.0" encoding="us-ascii" standalone="no"?><svg xmlns="http://www.w3.org/2000/svg" xmlns:xlink="http://www.w3.org/1999/xlink" contentStyleType="text/css" height="1565px" preserveAspectRatio="none" style="width:1402px;height:1565px;background:#FFFFFF;" version="1.1" viewBox="0 0 1402 1565" width="1402px" zoomAndPan="magnify"><defs/><g><rect fill="#FFFFFF" height="1381.6563" style="stroke:#181818;stroke-width:1.0;" width="10" x="84" y="92.6094"/><rect fill="#FFFFFF" height="272.1641" style="stroke:#181818;stroke-width:1.0;" width="10" x="443" y="159.3125"/><rect fill="#FFFFFF" height="556.6797" style="stroke:#181818;stroke-width:1.0;" width="10" x="443" y="506.1797"/><rect fill="#FFFFFF" height="195.1094" style="stroke:#181818;stroke-width:1.0;" width="10" x="699" y="189.6641"/><rect fill="#FFFFFF" height="479.625" style="stroke:#181818;stroke-width:1.0;" width="10" x="699" y="536.5313"/><rect fill="#FFFFFF" height="30.3516" style="stroke:#181818;stroke-width:1.0;" width="10" x="890" y="713.6406"/><rect fill="#FFFFFF" height="30.3516" style="stroke:#181818;stroke-width:1.0;" width="10" x="890" y="1109.0469"/><rect fill="#FFFFFF" height="91.0547" style="stroke:#181818;stroke-width:1.0;" width="10" x="1086.5" y="220.0156"/><rect fill="#FFFFFF" height="91.0547" style="stroke:#181818;stroke-width:1.0;" width="10" x="1086.5" y="566.8828"/><rect fill="#FFFFFF" height="91.0547" style="stroke:#181818;stroke-width:1.0;" width="10" x="1086.5" y="804.6953"/><rect fill="#FFFFFF" height="91.0547" style="stroke:#181818;stroke-width:1.0;" width="10" x="1086.5" y="1200.1016"/><rect fill="#FFFFFF" height="151.7578" style="stroke:#181818;stroke-width:1.0;" width="10" x="1250.5" y="774.3438"/><rect fill="#FFFFFF" height="151.7578" style="stroke:#181818;stroke-width:1.0;" width="10" x="1250.5" y="1169.75"/><rect fill="#FFFFFF" height="30.3516" style="stroke:#181818;stroke-width:1.0;" width="10" x="1337" y="250.3672"/><rect fill="#FFFFFF" height="30.3516" style="stroke:#181818;stroke-width:1.0;" width="10" x="1337" y="597.2344"/><rect fill="#FFFFFF" height="30.3516" style="stroke:#181818;stroke-width:1.0;" width="10" x="1337" y="835.0469"/><rect fill="#FFFFFF" height="30.3516" style="stroke:#181818;stroke-width:1.0;" width="10" x="1337" y="1230.4531"/><rect fill="none" height="793.3281" style="stroke:#000000;stroke-width:1.5;" width="1375.5" x="10" y="672.9375"/><line style="stroke:#181818;stroke-width:0.5;stroke-dasharray:5.0,5.0;" x1="89" x2="89" y1="82.6094" y2="1483.2656"/><line style="stroke:#181818;stroke-width:0.5;stroke-dasharray:5.0,5.0;" x1="448" x2="448" y1="82.6094" y2="1483.2656"/><line style="stroke:#181818;stroke-width:0.5;stroke-dasharray:5.0,5.0;" x1="704" x2="704" y1="82.6094" y2="1483.2656"/><line style="stroke:#181818;stroke-width:0.5;stroke-dasharray:5.0,5.0;" x1="894.5" x2="894.5" y1="82.6094" y2="1483.2656"/><line style="stroke:#181818;stroke-width:0.5;stroke-dasharray:5.0,5.0;" x1="1091.5" x2="1091.5" y1="82.6094" y2="1483.2656"/><line style="stroke:#181818;stroke-width:0.5;stroke-dasharray:5.0,5.0;" x1="1255.5" x2="1255.5" y1="82.6094" y2="1483.2656"/><line style="stroke:#181818;stroke-width:0.5;stroke-dasharray:5.0,5.0;" x1="1341.5" x2="1341.5" y1="82.6094" y2="1483.2656"/><text fill="#000000" font-family="sans-serif" font-size="14" lengthAdjust="spacing" textLength="132" x="20" y="79.5332">Port Authority Officer</text><ellipse cx="89" cy="13.5" fill="#E2E2F0" rx="8" ry="8" style="stroke:#181818;stroke-width:0.5;"/><path d="M89,21.5 L89,48.5 M76,29.5 L102,29.5 M89,48.5 L76,63.5 M89,48.5 L102,63.5 " fill="none" style="stroke:#181818;stroke-width:0.5;"/><text fill="#000000" font-family="sans-serif" font-size="14" lengthAdjust="spacing" textLength="132" x="20" y="1496.7988">Port Authority Officer</text><ellipse cx="89" cy="1508.375" fill="#E2E2F0" rx="8" ry="8" style="stroke:#181818;stroke-width:0.5;"/><path d="M89,1516.375 L89,1543.375 M76,1524.375 L102,1524.375 M89,1543.375 L76,1558.375 M89,1543.375 L102,1558.375 " fill="none" style="stroke:#181818;stroke-width:0.5;"/><rect fill="#E2E2F0" height="31.6094" rx="2.5" ry="2.5" style="stroke:#181818;stroke-width:0.5;" width="220" x="338" y="50"/><text fill="#000000" font-family="sans-serif" font-size="14" lengthAdjust="spacing" textLength="206" x="345" y="71.5332">VesselVisitNotificationsController</text><rect fill="#E2E2F0" height="31.6094" rx="2.5" ry="2.5" style="stroke:#181818;stroke-width:0.5;" width="220" x="338" y="1482.2656"/><text fill="#000000" font-family="sans-serif" font-size="14" lengthAdjust="spacing" textLength="206" x="345" y="1503.7988">VesselVisitNotificationsController</text><rect fill="#E2E2F0" height="31.6094" rx="2.5" ry="2.5" style="stroke:#181818;stroke-width:0.5;" width="198" x="605" y="50"/><text fill="#000000" font-family="sans-serif" font-size="14" lengthAdjust="spacing" textLength="184" x="612" y="71.5332">VesselVisitNotificationService</text><rect fill="#E2E2F0" height="31.6094" rx="2.5" ry="2.5" style="stroke:#181818;stroke-width:0.5;" width="198" x="605" y="1482.2656"/><text fill="#000000" font-family="sans-serif" font-size="14" lengthAdjust="spacing" textLength="184" x="612" y="1503.7988">VesselVisitNotificationService</text><rect fill="#E2E2F0" height="31.6094" rx="2.5" ry="2.5" style="stroke:#181818;stroke-width:0.5;" width="151" x="819.5" y="50"/><text fill="#000000" font-family="sans-serif" font-size="14" lengthAdjust="spacing" textLength="137" x="826.5" y="71.5332">VesselVisitNotification</text><rect fill="#E2E2F0" height="31.6094" rx="2.5" ry="2.5" style="stroke:#181818;stroke-width:0.5;" width="151" x="819.5" y="1482.2656"/><text fill="#000000" font-family="sans-serif" font-size="14" lengthAdjust="spacing" textLength="137" x="826.5" y="1503.7988">VesselVisitNotification</text><rect fill="#E2E2F0" height="31.6094" rx="2.5" ry="2.5" style="stroke:#181818;stroke-width:0.5;" width="222" x="980.5" y="50"/><text fill="#000000" font-family="sans-serif" font-size="14" lengthAdjust="spacing" textLength="208" x="987.5" y="71.5332">IVesselVisitNotificationRepository</text><rect fill="#E2E2F0" height="31.6094" rx="2.5" ry="2.5" style="stroke:#181818;stroke-width:0.5;" width="222" x="980.5" y="1482.2656"/><text fill="#000000" font-family="sans-serif" font-size="14" lengthAdjust="spacing" textLength="208" x="987.5" y="1503.7988">IVesselVisitNotificationRepository</text><rect fill="#E2E2F0" height="31.6094" rx="2.5" ry="2.5" style="stroke:#181818;stroke-width:0.5;" width="86" x="1212.5" y="50"/><text fill="#000000" font-family="sans-serif" font-size="14" lengthAdjust="spacing" textLength="72" x="1219.5" y="71.5332">UnitOfWork</text><rect fill="#E2E2F0" height="31.6094" rx="2.5" ry="2.5" style="stroke:#181818;stroke-width:0.5;" width="86" x="1212.5" y="1482.2656"/><text fill="#000000" font-family="sans-serif" font-size="14" lengthAdjust="spacing" textLength="72" x="1219.5" y="1503.7988">UnitOfWork</text><text fill="#000000" font-family="sans-serif" font-size="14" lengthAdjust="spacing" textLength="61" x="1308.5" y="79.5332">Database</text><path d="M1324,29 C1324,19 1342,19 1342,19 C1342,19 1360,19 1360,29 L1360,55 C1360,65 1342,65 1342,65 C1342,65 1324,65 1324,55 L1324,29 " fill="#E2E2F0" style="stroke:#181818;stroke-width:1.5;"/><path d="M1324,29 C1324,39 1342,39 1342,39 C1342,39 1360,39 1360,29 " fill="none" style="stroke:#181818;stroke-width:1.5;"/><text fill="#000000" font-family="sans-serif" font-size="14" lengthAdjust="spacing" textLength="61" x="1308.5" y="1496.7988">Database</text><path d="M1324,1509.875 C1324,1499.875 1342,1499.875 1342,1499.875 C1342,1499.875 1360,1499.875 1360,1509.875 L1360,1535.875 C1360,1545.875 1342,1545.875 1342,1545.875 C1342,1545.875 1324,1545.875 1324,1535.875 L1324,1509.875 " fill="#E2E2F0" style="stroke:#181818;stroke-width:1.5;"/><path d="M1324,1509.875 C1324,1519.875 1342,1519.875 1342,1519.875 C1342,1519.875 1360,1519.875 1360,1509.875 " fill="none" style="stroke:#181818;stroke-width:1.5;"/><rect fill="#FFFFFF" height="1381.6563" style="stroke:#181818;stroke-width:1.0;" width="10" x="84" y="92.6094"/><rect fill="#FFFFFF" height="272.1641" style="stroke:#181818;stroke-width:1.0;" width="10" x="443" y="159.3125"/><rect fill="#FFFFFF" height="556.6797" style="stroke:#181818;stroke-width:1.0;" width="10" x="443" y="506.1797"/><rect fill="#FFFFFF" height="195.1094" style="stroke:#181818;stroke-width:1.0;" width="10" x="699" y="189.6641"/><rect fill="#FFFFFF" height="479.625" style="stroke:#181818;stroke-width:1.0;" width="10" x="699" y="536.5313"/><rect fill="#FFFFFF" height="30.3516" style="stroke:#181818;stroke-width:1.0;" width="10" x="890" y="713.6406"/><rect fill="#FFFFFF" height="30.3516" style="stroke:#181818;stroke-width:1.0;" width="10" x="890" y="1109.0469"/><rect fill="#FFFFFF" height="91.0547" style="stroke:#181818;stroke-width:1.0;" width="10" x="1086.5" y="220.0156"/><rect fill="#FFFFFF" height="91.0547" style="stroke:#181818;stroke-width:1.0;" width="10" x="1086.5" y="566.8828"/><rect fill="#FFFFFF" height="91.0547" style="stroke:#181818;stroke-width:1.0;" width="10" x="1086.5" y="804.6953"/><rect fill="#FFFFFF" height="91.0547" style="stroke:#181818;stroke-width:1.0;" width="10" x="1086.5" y="1200.1016"/><rect fill="#FFFFFF" height="151.7578" style="stroke:#181818;stroke-width:1.0;" width="10" x="1250.5" y="774.3438"/><rect fill="#FFFFFF" height="151.7578" style="stroke:#181818;stroke-width:1.0;" width="10" x="1250.5" y="1169.75"/><rect fill="#FFFFFF" height="30.3516" style="stroke:#181818;stroke-width:1.0;" width="10" x="1337" y="250.3672"/><rect fill="#FFFFFF" height="30.3516" style="stroke:#181818;stroke-width:1.0;" width="10" x="1337" y="597.2344"/><rect fill="#FFFFFF" height="30.3516" style="stroke:#181818;stroke-width:1.0;" width="10" x="1337" y="835.0469"/><rect fill="#FFFFFF" height="30.3516" style="stroke:#181818;stroke-width:1.0;" width="10" x="1337" y="1230.4531"/><rect fill="#EEEEEE" height="3" style="stroke:#EEEEEE;stroke-width:1.0;" width="1395.5" x="0" y="113.7852"/><line style="stroke:#000000;stroke-width:1.0;" x1="0" x2="1395.5" y1="113.7852" y2="113.7852"/><line style="stroke:#000000;stroke-width:1.0;" x1="0" x2="1395.5" y1="116.7852" y2="116.7852"/><rect fill="#EEEEEE" height="24.3516" style="stroke:#000000;stroke-width:2.0;" width="272" x="561.75" y="102.6094"/><text fill="#000000" font-family="sans-serif" font-size="13" font-weight="bold" lengthAdjust="spacing" textLength="254" x="567.75" y="120.1045">Officer Reviews Completed Notifications</text><polygon fill="#181818" points="431,155.3125,441,159.3125,431,163.3125,435,159.3125" style="stroke:#181818;stroke-width:1.0;"/><line style="stroke:#181818;stroke-width:1.0;" x1="94" x2="437" y1="159.3125" y2="159.3125"/><text fill="#000000" font-family="sans-serif" font-size="13" font-weight="bold" lengthAdjust="spacing" textLength="7" x="101" y="154.4561">1</text><text fill="#000000" font-family="sans-serif" font-size="13" lengthAdjust="spacing" textLength="256" x="112" y="154.4561">GET /api/VesselVisitNotifications/completed</text><polygon fill="#181818" points="687,185.6641,697,189.6641,687,193.6641,691,189.6641" style="stroke:#181818;stroke-width:1.0;"/><line style="stroke:#181818;stroke-width:1.0;" x1="453" x2="693" y1="189.6641" y2="189.6641"/><text fill="#000000" font-family="sans-serif" font-size="13" font-weight="bold" lengthAdjust="spacing" textLength="7" x="460" y="184.8076">2</text><text fill="#000000" font-family="sans-serif" font-size="13" lengthAdjust="spacing" textLength="199" x="471" y="184.8076">GetCompletedNotificationsAsync()</text><polygon fill="#181818" points="1074.5,216.0156,1084.5,220.0156,1074.5,224.0156,1078.5,220.0156" style="stroke:#181818;stroke-width:1.0;"/><line style="stroke:#181818;stroke-width:1.0;" x1="709" x2="1080.5" y1="220.0156" y2="220.0156"/><text fill="#000000" font-family="sans-serif" font-size="13" font-weight="bold" lengthAdjust="spacing" textLength="7" x="716" y="215.1592">3</text><text fill="#000000" font-family="sans-serif" font-size="13" lengthAdjust="spacing" textLength="199" x="727" y="215.1592">GetCompletedNotificationsAsync()</text><polygon fill="#181818" points="1325,246.3672,1335,250.3672,1325,254.3672,1329,250.3672" style="stroke:#181818;stroke-width:1.0;"/><line style="stroke:#181818;stroke-width:1.0;" x1="1096.5" x2="1331" y1="250.3672" y2="250.3672"/><text fill="#000000" font-family="sans-serif" font-size="13" font-weight="bold" lengthAdjust="spacing" textLength="7" x="1103.5" y="245.5107">4</text><text fill="#000000" font-family="sans-serif" font-size="13" lengthAdjust="spacing" textLength="205" x="1114.5" y="245.5107">query WHERE Status = Completed</text><polygon fill="#181818" points="1107.5,276.7188,1097.5,280.7188,1107.5,284.7188,1103.5,280.7188" style="stroke:#181818;stroke-width:1.0;"/><line style="stroke:#181818;stroke-width:1.0;stroke-dasharray:2.0,2.0;" x1="1101.5" x2="1341" y1="280.7188" y2="280.7188"/><text fill="#000000" font-family="sans-serif" font-size="13" font-weight="bold" lengthAdjust="spacing" textLength="7" x="1113.5" y="275.8623">5</text><text fill="#000000" font-family="sans-serif" font-size="13" lengthAdjust="spacing" textLength="109" x="1124.5" y="275.8623">notification records</text><polygon fill="#181818" points="720,307.0703,710,311.0703,720,315.0703,716,311.0703" style="stroke:#181818;stroke-width:1.0;"/><line style="stroke:#181818;stroke-width:1.0;stroke-dasharray:2.0,2.0;" x1="714" x2="1090.5" y1="311.0703" y2="311.0703"/><text fill="#000000" font-family="sans-serif" font-size="13" font-weight="bold" lengthAdjust="spacing" textLength="7" x="726" y="306.2139">6</text><text fill="#000000" font-family="sans-serif" font-size="13" lengthAdjust="spacing" textLength="167" x="737" y="306.2139">List&lt;VesselVisitNotification&gt;</text><line style="stroke:#181818;stroke-width:1.0;" x1="709" x2="751" y1="341.4219" y2="341.4219"/><line style="stroke:#181818;stroke-width:1.0;" x1="751" x2="751" y1="341.4219" y2="354.4219"/><line style="stroke:#181818;stroke-width:1.0;" x1="710" x2="751" y1="354.4219" y2="354.4219"/><polygon fill="#181818" points="720,350.4219,710,354.4219,720,358.4219,716,354.4219" style="stroke:#181818;stroke-width:1.0;"/><text fill="#000000" font-family="sans-serif" font-size="13" font-weight="bold" lengthAdjust="spacing" textLength="7" x="716" y="336.5654">7</text><text fill="#000000" font-family="sans-serif" font-size="13" lengthAdjust="spacing" textLength="136" x="727" y="336.5654">MapToDto(notifications)</text><polygon fill="#181818" points="464,380.7734,454,384.7734,464,388.7734,460,384.7734" style="stroke:#181818;stroke-width:1.0;"/><line style="stroke:#181818;stroke-width:1.0;stroke-dasharray:2.0,2.0;" x1="458" x2="703" y1="384.7734" y2="384.7734"/><text fill="#000000" font-family="sans-serif" font-size="13" font-weight="bold" lengthAdjust="spacing" textLength="7" x="470" y="379.917">8</text><text fill="#000000" font-family="sans-serif" font-size="13" lengthAdjust="spacing" textLength="187" x="481" y="379.917">List&lt;VesselVisitNotificationDto&gt;</text><polygon fill="#181818" points="105,427.4766,95,431.4766,105,435.4766,101,431.4766" style="stroke:#181818;stroke-width:1.0;"/><line style="stroke:#181818;stroke-width:1.0;stroke-dasharray:2.0,2.0;" x1="99" x2="447" y1="431.4766" y2="431.4766"/><text fill="#000000" font-family="sans-serif" font-size="13" font-weight="bold" lengthAdjust="spacing" textLength="7" x="111" y="418.4443">9</text><text fill="#000000" font-family="sans-serif" font-size="13" lengthAdjust="spacing" textLength="44" x="122" y="410.2686">200 OK</text><text fill="#000000" font-family="sans-serif" font-size="13" lengthAdjust="spacing" textLength="227" x="122" y="426.6201">[completedNotifications with audit data]</text><rect fill="#EEEEEE" height="3" style="stroke:#EEEEEE;stroke-width:1.0;" width="1395.5" x="0" y="460.6523"/><line style="stroke:#000000;stroke-width:1.0;" x1="0" x2="1395.5" y1="460.6523" y2="460.6523"/><line style="stroke:#000000;stroke-width:1.0;" x1="0" x2="1395.5" y1="463.6523" y2="463.6523"/><rect fill="#EEEEEE" height="24.3516" style="stroke:#000000;stroke-width:2.0;" width="162" x="616.75" y="449.4766"/><text fill="#000000" font-family="sans-serif" font-size="13" font-weight="bold" lengthAdjust="spacing" textLength="144" x="622.75" y="466.9717">Officer Makes Decision</text><polygon fill="#181818" points="431,502.1797,441,506.1797,431,510.1797,435,506.1797" style="stroke:#181818;stroke-width:1.0;"/><line style="stroke:#181818;stroke-width:1.0;" x1="94" x2="437" y1="506.1797" y2="506.1797"/><text fill="#000000" font-family="sans-serif" font-size="13" font-weight="bold" lengthAdjust="spacing" textLength="14" x="101" y="501.3232">10</text><text fill="#000000" font-family="sans-serif" font-size="13" lengthAdjust="spacing" textLength="312" x="119" y="501.3232">PUT /api/VesselVisitNotifications/{id}/approve-or-reject</text><polygon fill="#181818" points="687,532.5313,697,536.5313,687,540.5313,691,536.5313" style="stroke:#181818;stroke-width:1.0;"/><line style="stroke:#181818;stroke-width:1.0;" x1="453" x2="693" y1="536.5313" y2="536.5313"/><text fill="#000000" font-family="sans-serif" font-size="13" font-weight="bold" lengthAdjust="spacing" textLength="14" x="460" y="531.6748">11</text><text fill="#000000" font-family="sans-serif" font-size="13" lengthAdjust="spacing" textLength="192" x="478" y="531.6748">ApproveAsync() or RejectAsync()</text><polygon fill="#181818" points="1074.5,562.8828,1084.5,566.8828,1074.5,570.8828,1078.5,566.8828" style="stroke:#181818;stroke-width:1.0;"/><line style="stroke:#181818;stroke-width:1.0;" x1="709" x2="1080.5" y1="566.8828" y2="566.8828"/><text fill="#000000" font-family="sans-serif" font-size="13" font-weight="bold" lengthAdjust="spacing" textLength="14" x="716" y="562.0264">12</text><text fill="#000000" font-family="sans-serif" font-size="13" lengthAdjust="spacing" textLength="252" x="734" y="562.0264">GetByIdAsync(VesselVisitNotificationID(id))</text><polygon fill="#181818" points="1325,593.2344,1335,597.2344,1325,601.2344,1329,597.2344" style="stroke:#181818;stroke-width:1.0;"/><line style="stroke:#181818;stroke-width:1.0;" x1="1096.5" x2="1331" y1="597.2344" y2="597.2344"/><text fill="#000000" font-family="sans-serif" font-size="13" font-weight="bold" lengthAdjust="spacing" textLength="14" x="1103.5" y="592.3779">13</text><text fill="#000000" font-family="sans-serif" font-size="13" lengthAdjust="spacing" textLength="64" x="1121.5" y="592.3779">query by id</text><polygon fill="#181818" points="1107.5,623.5859,1097.5,627.5859,1107.5,631.5859,1103.5,627.5859" style="stroke:#181818;stroke-width:1.0;"/><line style="stroke:#181818;stroke-width:1.0;stroke-dasharray:2.0,2.0;" x1="1101.5" x2="1341" y1="627.5859" y2="627.5859"/><text fill="#000000" font-family="sans-serif" font-size="13" font-weight="bold" lengthAdjust="spacing" textLength="14" x="1113.5" y="622.7295">14</text><text fill="#000000" font-family="sans-serif" font-size="13" lengthAdjust="spacing" textLength="102" x="1131.5" y="622.7295">notification record</text><polygon fill="#181818" points="720,653.9375,710,657.9375,720,661.9375,716,657.9375" style="stroke:#181818;stroke-width:1.0;"/><line style="stroke:#181818;stroke-width:1.0;stroke-dasharray:2.0,2.0;" x1="714" x2="1090.5" y1="657.9375" y2="657.9375"/><text fill="#000000" font-family="sans-serif" font-size="13" font-weight="bold" lengthAdjust="spacing" textLength="14" x="726" y="653.0811">15</text><text fill="#000000" font-family="sans-serif" font-size="13" lengthAdjust="spacing" textLength="130" x="744" y="653.0811">VesselVisitNotification</text><path d="M10,672.9375 L71,672.9375 L71,681.2891 L61,691.2891 L10,691.2891 L10,672.9375 " fill="#EEEEEE" style="stroke:#000000;stroke-width:1.5;"/><rect fill="none" height="793.3281" style="stroke:#000000;stroke-width:1.5;" width="1375.5" x="10" y="672.9375"/><text fill="#000000" font-family="sans-serif" font-size="13" font-weight="bold" lengthAdjust="spacing" textLength="16" x="25" y="687.4326">alt</text><text fill="#000000" font-family="sans-serif" font-size="11" font-weight="bold" lengthAdjust="spacing" textLength="62" x="86" y="686.3564">[Approved]</text><polygon fill="#181818" points="878,709.6406,888,713.6406,878,717.6406,882,713.6406" style="stroke:#181818;stroke-width:1.0;"/><line style="stroke:#181818;stroke-width:1.0;" x1="709" x2="884" y1="713.6406" y2="713.6406"/><text fill="#000000" font-family="sans-serif" font-size="13" font-weight="bold" lengthAdjust="spacing" textLength="14" x="716" y="708.7842">16</text><text fill="#000000" font-family="sans-serif" font-size="13" lengthAdjust="spacing" textLength="144" x="734" y="708.7842">Approve(dockId, officerId)</text><polygon fill="#181818" points="720,739.9922,710,743.9922,720,747.9922,716,743.9922" style="stroke:#181818;stroke-width:1.0;"/><line style="stroke:#181818;stroke-width:1.0;stroke-dasharray:2.0,2.0;" x1="714" x2="894" y1="743.9922" y2="743.9922"/><text fill="#000000" font-family="sans-serif" font-size="13" font-weight="bold" lengthAdjust="spacing" textLength="14" x="726" y="739.1357">17</text><text fill="#000000" font-family="sans-serif" font-size="13" lengthAdjust="spacing" textLength="22" x="744" y="739.1357">void</text><polygon fill="#181818" points="1238.5,770.3438,1248.5,774.3438,1238.5,778.3438,1242.5,774.3438" style="stroke:#181818;stroke-width:1.0;"/><line style="stroke:#181818;stroke-width:1.0;" x1="709" x2="1244.5" y1="774.3438" y2="774.3438"/><text fill="#000000" font-family="sans-serif" font-size="13" font-weight="bold" lengthAdjust="spacing" textLength="14" x="716" y="769.4873">18</text><text fill="#000000" font-family="sans-serif" font-size="13" lengthAdjust="spacing" textLength="90" x="734" y="769.4873">CommitAsync()</text><polygon fill="#181818" points="1107.5,800.6953,1097.5,804.6953,1107.5,808.6953,1103.5,804.6953" style="stroke:#181818;stroke-width:1.0;"/><line style="stroke:#181818;stroke-width:1.0;" x1="1101.5" x2="1249.5" y1="804.6953" y2="804.6953"/><text fill="#000000" font-family="sans-serif" font-size="13" font-weight="bold" lengthAdjust="spacing" textLength="14" x="1113.5" y="799.8389">19</text><text fill="#000000" font-family="sans-serif" font-size="13" lengthAdjust="spacing" textLength="79" x="1131.5" y="799.8389">save changes</text><polygon fill="#181818" points="1325,831.0469,1335,835.0469,1325,839.0469,1329,835.0469" style="stroke:#181818;stroke-width:1.0;"/><line style="stroke:#181818;stroke-width:1.0;" x1="1096.5" x2="1331" y1="835.0469" y2="835.0469"/><text fill="#000000" font-family="sans-serif" font-size="13" font-weight="bold" lengthAdjust="spacing" textLength="14" x="1103.5" y="830.1904">20</text><text fill="#000000" font-family="sans-serif" font-size="13" lengthAdjust="spacing" textLength="162" x="1121.5" y="830.1904">persist (with assigned dock)</text><polygon fill="#181818" points="1107.5,861.3984,1097.5,865.3984,1107.5,869.3984,1103.5,865.3984" style="stroke:#181818;stroke-width:1.0;"/><line style="stroke:#181818;stroke-width:1.0;stroke-dasharray:2.0,2.0;" x1="1101.5" x2="1341" y1="865.3984" y2="865.3984"/><text fill="#000000" font-family="sans-serif" font-size="13" font-weight="bold" lengthAdjust="spacing" textLength="14" x="1113.5" y="860.542">21</text><text fill="#000000" font-family="sans-serif" font-size="13" lengthAdjust="spacing" textLength="82" x="1131.5" y="860.542">dockAssigned</text><polygon fill="#181818" points="1238.5,891.75,1248.5,895.75,1238.5,899.75,1242.5,895.75" style="stroke:#181818;stroke-width:1.0;"/><line style="stroke:#181818;stroke-width:1.0;stroke-dasharray:2.0,2.0;" x1="1091.5" x2="1244.5" y1="895.75" y2="895.75"/><text fill="#000000" font-family="sans-serif" font-size="13" font-weight="bold" lengthAdjust="spacing" textLength="14" x="1098.5" y="890.8936">22</text><text fill="#000000" font-family="sans-serif" font-size="13" lengthAdjust="spacing" textLength="53" x="1116.5" y="890.8936">persisted</text><polygon fill="#181818" points="720,922.1016,710,926.1016,720,930.1016,716,926.1016" style="stroke:#181818;stroke-width:1.0;"/><line style="stroke:#181818;stroke-width:1.0;stroke-dasharray:2.0,2.0;" x1="714" x2="1254.5" y1="926.1016" y2="926.1016"/><text fill="#000000" font-family="sans-serif" font-size="13" font-weight="bold" lengthAdjust="spacing" textLength="14" x="726" y="921.2451">23</text><text fill="#000000" font-family="sans-serif" font-size="13" lengthAdjust="spacing" textLength="49" x="744" y="921.2451">success</text><line style="stroke:#181818;stroke-width:1.0;" x1="709" x2="751" y1="956.4531" y2="956.4531"/><line style="stroke:#181818;stroke-width:1.0;" x1="751" x2="751" y1="956.4531" y2="969.4531"/><line style="stroke:#181818;stroke-width:1.0;" x1="710" x2="751" y1="969.4531" y2="969.4531"/><polygon fill="#181818" points="720,965.4531,710,969.4531,720,973.4531,716,969.4531" style="stroke:#181818;stroke-width:1.0;"/><text fill="#000000" font-family="sans-serif" font-size="13" font-weight="bold" lengthAdjust="spacing" textLength="14" x="716" y="951.5967">24</text><text fill="#000000" font-family="sans-serif" font-size="13" lengthAdjust="spacing" textLength="129" x="734" y="951.5967">MapToDto(notification)</text><polygon fill="#181818" points="464,1012.1563,454,1016.1563,464,1020.1563,460,1016.1563" style="stroke:#181818;stroke-width:1.0;"/><line style="stroke:#181818;stroke-width:1.0;stroke-dasharray:2.0,2.0;" x1="458" x2="703" y1="1016.1563" y2="1016.1563"/><text fill="#000000" font-family="sans-serif" font-size="13" font-weight="bold" lengthAdjust="spacing" textLength="14" x="470" y="1003.124">25</text><text fill="#000000" font-family="sans-serif" font-size="13" lengthAdjust="spacing" textLength="150" x="488" y="994.9482">VesselVisitNotificationDto</text><text fill="#000000" font-family="sans-serif" font-size="13" lengthAdjust="spacing" textLength="204" x="488" y="1011.2998">(approved with dock and audit data)</text><polygon fill="#181818" points="105,1058.8594,95,1062.8594,105,1066.8594,101,1062.8594" style="stroke:#181818;stroke-width:1.0;"/><line style="stroke:#181818;stroke-width:1.0;stroke-dasharray:2.0,2.0;" x1="99" x2="447" y1="1062.8594" y2="1062.8594"/><text fill="#000000" font-family="sans-serif" font-size="13" font-weight="bold" lengthAdjust="spacing" textLength="14" x="111" y="1049.8271">26</text><text fill="#000000" font-family="sans-serif" font-size="13" lengthAdjust="spacing" textLength="44" x="129" y="1041.6514">200 OK</text><text fill="#000000" font-family="sans-serif" font-size="13" lengthAdjust="spacing" textLength="125" x="129" y="1058.0029">(approved notification)</text><line style="stroke:#000000;stroke-width:1.0;stroke-dasharray:2.0,2.0;" x1="10" x2="1385.5" y1="1071.8594" y2="1071.8594"/><text fill="#000000" font-family="sans-serif" font-size="11" font-weight="bold" lengthAdjust="spacing" textLength="56" x="15" y="1083.2783">[Rejected]</text><polygon fill="#181818" points="878,1105.0469,888,1109.0469,878,1113.0469,882,1109.0469" style="stroke:#181818;stroke-width:1.0;"/><line style="stroke:#181818;stroke-width:1.0;" x1="704" x2="884" y1="1109.0469" y2="1109.0469"/><text fill="#000000" font-family="sans-serif" font-size="13" font-weight="bold" lengthAdjust="spacing" textLength="14" x="711" y="1104.1904">27</text><text fill="#000000" font-family="sans-serif" font-size="13" lengthAdjust="spacing" textLength="136" x="729" y="1104.1904">Reject(reason, officerId)</text><polygon fill="#181818" points="715,1135.3984,705,1139.3984,715,1143.3984,711,1139.3984" style="stroke:#181818;stroke-width:1.0;"/><line style="stroke:#181818;stroke-width:1.0;stroke-dasharray:2.0,2.0;" x1="709" x2="894" y1="1139.3984" y2="1139.3984"/><text fill="#000000" font-family="sans-serif" font-size="13" font-weight="bold" lengthAdjust="spacing" textLength="14" x="721" y="1134.542">28</text><text fill="#000000" font-family="sans-serif" font-size="13" lengthAdjust="spacing" textLength="22" x="739" y="1134.542">void</text><polygon fill="#181818" points="1238.5,1165.75,1248.5,1169.75,1238.5,1173.75,1242.5,1169.75" style="stroke:#181818;stroke-width:1.0;"/><line style="stroke:#181818;stroke-width:1.0;" x1="704" x2="1244.5" y1="1169.75" y2="1169.75"/><text fill="#000000" font-family="sans-serif" font-size="13" font-weight="bold" lengthAdjust="spacing" textLength="14" x="711" y="1164.8936">29</text><text fill="#000000" font-family="sans-serif" font-size="13" lengthAdjust="spacing" textLength="90" x="729" y="1164.8936">CommitAsync()</text><polygon fill="#181818" points="1107.5,1196.1016,1097.5,1200.1016,1107.5,1204.1016,1103.5,1200.1016" style="stroke:#181818;stroke-width:1.0;"/><line style="stroke:#181818;stroke-width:1.0;" x1="1101.5" x2="1249.5" y1="1200.1016" y2="1200.1016"/><text fill="#000000" font-family="sans-serif" font-size="13" font-weight="bold" lengthAdjust="spacing" textLength="14" x="1113.5" y="1195.2451">30</text><text fill="#000000" font-family="sans-serif" font-size="13" lengthAdjust="spacing" textLength="79" x="1131.5" y="1195.2451">save changes</text><polygon fill="#181818" points="1325,1226.4531,1335,1230.4531,1325,1234.4531,1329,1230.4531" style="stroke:#181818;stroke-width:1.0;"/><line style="stroke:#181818;stroke-width:1.0;" x1="1096.5" x2="1331" y1="1230.4531" y2="1230.4531"/><text fill="#000000" font-family="sans-serif" font-size="13" font-weight="bold" lengthAdjust="spacing" textLength="14" x="1103.5" y="1225.5967">31</text><text fill="#000000" font-family="sans-serif" font-size="13" lengthAdjust="spacing" textLength="170" x="1121.5" y="1225.5967">persist (with rejection reason)</text><polygon fill="#181818" points="1107.5,1256.8047,1097.5,1260.8047,1107.5,1264.8047,1103.5,1260.8047" style="stroke:#181818;stroke-width:1.0;"/><line style="stroke:#181818;stroke-width:1.0;stroke-dasharray:2.0,2.0;" x1="1101.5" x2="1341" y1="1260.8047" y2="1260.8047"/><text fill="#000000" font-family="sans-serif" font-size="13" font-weight="bold" lengthAdjust="spacing" textLength="14" x="1113.5" y="1255.9482">32</text><text fill="#000000" font-family="sans-serif" font-size="13" lengthAdjust="spacing" textLength="69" x="1131.5" y="1255.9482">rejectionSet</text><polygon fill="#181818" points="1238.5,1287.1563,1248.5,1291.1563,1238.5,1295.1563,1242.5,1291.1563" style="stroke:#181818;stroke-width:1.0;"/><line style="stroke:#181818;stroke-width:1.0;stroke-dasharray:2.0,2.0;" x1="1091.5" x2="1244.5" y1="1291.1563" y2="1291.1563"/><text fill="#000000" font-family="sans-serif" font-size="13" font-weight="bold" lengthAdjust="spacing" textLength="14" x="1098.5" y="1286.2998">33</text><text fill="#000000" font-family="sans-serif" font-size="13" lengthAdjust="spacing" textLength="53" x="1116.5" y="1286.2998">persisted</text><polygon fill="#181818" points="715,1317.5078,705,1321.5078,715,1325.5078,711,1321.5078" style="stroke:#181818;stroke-width:1.0;"/><line style="stroke:#181818;stroke-width:1.0;stroke-dasharray:2.0,2.0;" x1="709" x2="1254.5" y1="1321.5078" y2="1321.5078"/><text fill="#000000" font-family="sans-serif" font-size="13" font-weight="bold" lengthAdjust="spacing" textLength="14" x="721" y="1316.6514">34</text><text fill="#000000" font-family="sans-serif" font-size="13" lengthAdjust="spacing" textLength="49" x="739" y="1316.6514">success</text><line style="stroke:#181818;stroke-width:1.0;" x1="704" x2="746" y1="1351.8594" y2="1351.8594"/><line style="stroke:#181818;stroke-width:1.0;" x1="746" x2="746" y1="1351.8594" y2="1364.8594"/><line style="stroke:#181818;stroke-width:1.0;" x1="705" x2="746" y1="1364.8594" y2="1364.8594"/><polygon fill="#181818" points="715,1360.8594,705,1364.8594,715,1368.8594,711,1364.8594" style="stroke:#181818;stroke-width:1.0;"/><text fill="#000000" font-family="sans-serif" font-size="13" font-weight="bold" lengthAdjust="spacing" textLength="14" x="711" y="1347.0029">35</text><text fill="#000000" font-family="sans-serif" font-size="13" lengthAdjust="spacing" textLength="129" x="729" y="1347.0029">MapToDto(notification)</text><polygon fill="#181818" points="459,1407.5625,449,1411.5625,459,1415.5625,455,1411.5625" style="stroke:#181818;stroke-width:1.0;"/><line style="stroke:#181818;stroke-width:1.0;stroke-dasharray:2.0,2.0;" x1="453" x2="703" y1="1411.5625" y2="1411.5625"/><text fill="#000000" font-family="sans-serif" font-size="13" font-weight="bold" lengthAdjust="spacing" textLength="14" x="465" y="1398.5303">36</text><text fill="#000000" font-family="sans-serif" font-size="13" lengthAdjust="spacing" textLength="150" x="483" y="1390.3545">VesselVisitNotificationDto</text><text fill="#000000" font-family="sans-serif" font-size="13" lengthAdjust="spacing" textLength="210" x="483" y="1406.7061">(rejected with reason and audit data)</text><polygon fill="#181818" points="105,1454.2656,95,1458.2656,105,1462.2656,101,1458.2656" style="stroke:#181818;stroke-width:1.0;"/><line style="stroke:#181818;stroke-width:1.0;stroke-dasharray:2.0,2.0;" x1="99" x2="447" y1="1458.2656" y2="1458.2656"/><text fill="#000000" font-family="sans-serif" font-size="13" font-weight="bold" lengthAdjust="spacing" textLength="14" x="111" y="1445.2334">37</text><text fill="#000000" font-family="sans-serif" font-size="13" lengthAdjust="spacing" textLength="44" x="129" y="1437.0576">200 OK</text><text fill="#000000" font-family="sans-serif" font-size="13" lengthAdjust="spacing" textLength="120" x="129" y="1453.4092">(rejected notification)</text><!--SRC=[vLHDJzj04BtxLunoSgH6e1vHWnIQg8rQ2kBpK7fOl0Di2RlkxZWeglhVcRNNyTfW2AWtSl9kvhsPUVDsH4565tUNQ9D4P6Gi30wD9PWKT6EieXKSN5sf3Eq0XAk_arnOKfdAXIOOdA5pk3XJJj4FGueZ12cZtMUZoPh58c2RuqRmOxHBpbL2m_T6k18mqyIbj-FdFO0Zp0rV6RigeSsn3J_LYWwkpeszBSDEpNaY1ObBuH06q_1L_ZNTIvBnkDQA2PSAxtt_T_a22IMqL8Bns0klbe9mhM-D7Ur6ii4EV9cTm9R8rLQVvbjPdQKXZOIFo9WwoEfvaTRbjVWcRgMpTDYGrQEeiKpJAFOgfaZeY87vfdlCywT0Ffr_dHtDu9W45InK8s73mc9p_AXRXevIWyNCMEaIYJ4iJjeIuxjozAb7uDsO9EeWagCXsXVvYPcIIUDgtB09xextkSpCqqfU3o8UAVFLpjc1ZzlRSF3jGl_Cdfm7t2kw0L58HU2D_2icZomJMtbVt2Bx6pCkZdLbv_OPzV3q9QF-LV8VH-JMB75axCZYRypeLQwTLEZWB33-hNcIjvXsRpMN5QwdulaqLNBuIlzUha2zoQoRUhMds1wN9c91jMeo0Vv5YbGxiv4rbIQxdSiFOAePp-MmXAo9mvBrTm7RhcrfL9KaAYR2TFFpHcKGF_4xjPvWAvzVkVx21tObT6A9aDq8VOskZOhQz_TFZ2f7w_ZXGLgz2EVKjUOjxTllLC2JyEUdPkYZ9m7QRJh0EaEi-Wt97uCwTPTDj-HrHPRnzBkuMgMkl2-ifM4xllkU-vVIXKx3AvRLIl5AWD0osYt3Rf7rW_JNBowmXlznmJqx2nSEmp9unkXLG6fHEAFVcy-hVLjj7D__vbPV8u-HtflLRV0K10szSl_NxEiCcveTjNm0]--></g></svg>