<?xml version="1.0" encoding="us-ascii" standalone="no"?><svg xmlns="http://www.w3.org/2000/svg" xmlns:xlink="http://www.w3.org/1999/xlink" contentStyleType="text/css" height="908px" preserveAspectRatio="none" style="width:1348px;height:908px;background:#FFFFFF;" version="1.1" viewBox="0 0 1348 908" width="1348px" zoomAndPan="magnify"><defs/><g><text fill="#000000" font-family="sans-serif" font-size="14" font-weight="bold" lengthAdjust="spacing" textLength="594" x="373.25" y="29.5332">System Sequence Diagram - US 3.2.6: First Access via Activation Link (Frontend Only)</text><rect fill="#FFFFFF" height="216.1094" style="stroke:#181818;stroke-width:1.0;" width="10" x="658.5" y="197.9219"/><rect fill="#FFFFFF" height="117.0547" style="stroke:#181818;stroke-width:1.0;" width="10" x="934.5" y="296.9766"/><rect fill="#FFFFFF" height="117.0547" style="stroke:#181818;stroke-width:1.0;" width="10" x="934.5" y="460.2188"/><rect fill="#FFFFFF" height="117.0547" style="stroke:#181818;stroke-width:1.0;" width="10" x="934.5" y="623.4609"/><rect fill="#FFFFFF" height="30.3516" style="stroke:#181818;stroke-width:1.0;" width="10" x="934.5" y="770.8672"/><rect fill="none" height="552.9453" style="stroke:#000000;stroke-width:1.5;" width="1286.5" x="10" y="256.2734"/><line style="stroke:#181818;stroke-width:0.5;stroke-dasharray:5.0,5.0;" x1="62" x2="62" y1="121.2188" y2="826.2188"/><line style="stroke:#181818;stroke-width:0.5;stroke-dasharray:5.0,5.0;" x1="663" x2="663" y1="121.2188" y2="826.2188"/><line style="stroke:#181818;stroke-width:0.5;stroke-dasharray:5.0,5.0;" x1="939.5" x2="939.5" y1="121.2188" y2="826.2188"/><text fill="#000000" font-family="sans-serif" font-size="14" lengthAdjust="spacing" textLength="79" x="20" y="118.1426">System User</text><ellipse cx="62.5" cy="52.1094" fill="#E3E3E3" rx="8" ry="8" style="stroke:#181818;stroke-width:0.5;"/><path d="M62.5,60.1094 L62.5,87.1094 M49.5,68.1094 L75.5,68.1094 M62.5,87.1094 L49.5,102.1094 M62.5,87.1094 L75.5,102.1094 " fill="none" style="stroke:#181818;stroke-width:0.5;"/><text fill="#000000" font-family="sans-serif" font-size="14" lengthAdjust="spacing" textLength="79" x="20" y="839.752">System User</text><ellipse cx="62.5" cy="851.3281" fill="#E3E3E3" rx="8" ry="8" style="stroke:#181818;stroke-width:0.5;"/><path d="M62.5,859.3281 L62.5,886.3281 M49.5,867.3281 L75.5,867.3281 M62.5,886.3281 L49.5,901.3281 M62.5,886.3281 L75.5,901.3281 " fill="none" style="stroke:#181818;stroke-width:0.5;"/><rect fill="#E3E3E3" height="31.6094" rx="2.5" ry="2.5" style="stroke:#181818;stroke-width:0.5;" width="65" x="631" y="88.6094"/><text fill="#000000" font-family="sans-serif" font-size="14" lengthAdjust="spacing" textLength="51" x="638" y="110.1426">Browser</text><rect fill="#E3E3E3" height="31.6094" rx="2.5" ry="2.5" style="stroke:#181818;stroke-width:0.5;" width="65" x="631" y="825.2188"/><text fill="#000000" font-family="sans-serif" font-size="14" lengthAdjust="spacing" textLength="51" x="638" y="846.752">Browser</text><rect fill="#E3E3E3" height="31.6094" rx="2.5" ry="2.5" style="stroke:#181818;stroke-width:0.5;" width="128" x="875.5" y="88.6094"/><text fill="#000000" font-family="sans-serif" font-size="14" lengthAdjust="spacing" textLength="114" x="882.5" y="110.1426">ActivationSuccess</text><rect fill="#E3E3E3" height="31.6094" rx="2.5" ry="2.5" style="stroke:#181818;stroke-width:0.5;" width="128" x="875.5" y="825.2188"/><text fill="#000000" font-family="sans-serif" font-size="14" lengthAdjust="spacing" textLength="114" x="882.5" y="846.752">ActivationSuccess</text><rect fill="#FFFFFF" height="216.1094" style="stroke:#181818;stroke-width:1.0;" width="10" x="658.5" y="197.9219"/><rect fill="#FFFFFF" height="117.0547" style="stroke:#181818;stroke-width:1.0;" width="10" x="934.5" y="296.9766"/><rect fill="#FFFFFF" height="117.0547" style="stroke:#181818;stroke-width:1.0;" width="10" x="934.5" y="460.2188"/><rect fill="#FFFFFF" height="117.0547" style="stroke:#181818;stroke-width:1.0;" width="10" x="934.5" y="623.4609"/><rect fill="#FFFFFF" height="30.3516" style="stroke:#181818;stroke-width:1.0;" width="10" x="934.5" y="770.8672"/><rect fill="#EEEEEE" height="3" style="stroke:#EEEEEE;stroke-width:1.0;" width="1341.5" x="0" y="152.3945"/><line style="stroke:#000000;stroke-width:1.0;" x1="0" x2="1341.5" y1="152.3945" y2="152.3945"/><line style="stroke:#000000;stroke-width:1.0;" x1="0" x2="1341.5" y1="155.3945" y2="155.3945"/><rect fill="#EEEEEE" height="24.3516" style="stroke:#000000;stroke-width:2.0;" width="185" x="578.25" y="141.2188"/><text fill="#000000" font-family="sans-serif" font-size="13" font-weight="bold" lengthAdjust="spacing" textLength="167" x="584.25" y="158.7139">User Clicks Activation Link</text><polygon fill="#181818" points="646.5,193.9219,656.5,197.9219,646.5,201.9219,650.5,197.9219" style="stroke:#181818;stroke-width:1.0;"/><line style="stroke:#181818;stroke-width:1.0;" x1="62.5" x2="652.5" y1="197.9219" y2="197.9219"/><text fill="#000000" font-family="sans-serif" font-size="13" font-weight="bold" lengthAdjust="spacing" textLength="7" x="69.5" y="193.0654">1</text><text fill="#000000" font-family="sans-serif" font-size="13" lengthAdjust="spacing" textLength="566" x="80.5" y="193.0654">Click activation link in email\n(https://localhost:5001/api/UserManagement/activate?token={token})</text><line style="stroke:#181818;stroke-width:1.0;" x1="668.5" x2="710.5" y1="228.2734" y2="228.2734"/><line style="stroke:#181818;stroke-width:1.0;" x1="710.5" x2="710.5" y1="228.2734" y2="241.2734"/><line style="stroke:#181818;stroke-width:1.0;" x1="669.5" x2="710.5" y1="241.2734" y2="241.2734"/><polygon fill="#181818" points="679.5,237.2734,669.5,241.2734,679.5,245.2734,675.5,241.2734" style="stroke:#181818;stroke-width:1.0;"/><text fill="#000000" font-family="sans-serif" font-size="13" font-weight="bold" lengthAdjust="spacing" textLength="7" x="675.5" y="223.417">2</text><text fill="#000000" font-family="sans-serif" font-size="13" lengthAdjust="spacing" textLength="241" x="686.5" y="223.417">HTTP GET to backend activation endpoint</text><path d="M939,214.4219 L939,240.4219 L1326,240.4219 L1326,224.4219 L1316,214.4219 L939,214.4219 " fill="#FAFAFA" style="stroke:#181818;stroke-width:0.5;"/><path d="M1316,214.4219 L1316,224.4219 L1326,224.4219 L1316,214.4219 " fill="#FAFAFA" style="stroke:#181818;stroke-width:0.5;"/><text fill="#000000" font-family="sans-serif" font-size="13" lengthAdjust="spacing" textLength="366" x="945" y="232.917">Backend validates token,\nactivates user,\nredirects to frontend</text><path d="M10,256.2734 L71,256.2734 L71,264.625 L61,274.625 L10,274.625 L10,256.2734 " fill="#EEEEEE" style="stroke:#000000;stroke-width:1.5;"/><rect fill="none" height="552.9453" style="stroke:#000000;stroke-width:1.5;" width="1286.5" x="10" y="256.2734"/><text fill="#000000" font-family="sans-serif" font-size="13" font-weight="bold" lengthAdjust="spacing" textLength="16" x="25" y="270.7686">alt</text><text fill="#000000" font-family="sans-serif" font-size="11" font-weight="bold" lengthAdjust="spacing" textLength="159" x="86" y="269.6924">[Token not found or expired]</text><polygon fill="#181818" points="922.5,292.9766,932.5,296.9766,922.5,300.9766,926.5,296.9766" style="stroke:#181818;stroke-width:1.0;"/><line style="stroke:#181818;stroke-width:1.0;" x1="668.5" x2="928.5" y1="296.9766" y2="296.9766"/><text fill="#000000" font-family="sans-serif" font-size="13" font-weight="bold" lengthAdjust="spacing" textLength="7" x="675.5" y="292.1201">3</text><text fill="#000000" font-family="sans-serif" font-size="13" lengthAdjust="spacing" textLength="193" x="686.5" y="292.1201">Navigate to /activate?status=error</text><line style="stroke:#181818;stroke-width:1.0;" x1="944.5" x2="986.5" y1="327.3281" y2="327.3281"/><line style="stroke:#181818;stroke-width:1.0;" x1="986.5" x2="986.5" y1="327.3281" y2="340.3281"/><line style="stroke:#181818;stroke-width:1.0;" x1="945.5" x2="986.5" y1="340.3281" y2="340.3281"/><polygon fill="#181818" points="955.5,336.3281,945.5,340.3281,955.5,344.3281,951.5,340.3281" style="stroke:#181818;stroke-width:1.0;"/><text fill="#000000" font-family="sans-serif" font-size="13" font-weight="bold" lengthAdjust="spacing" textLength="7" x="951.5" y="322.4717">4</text><text fill="#000000" font-family="sans-serif" font-size="13" lengthAdjust="spacing" textLength="180" x="962.5" y="322.4717">Read query param status=error</text><line style="stroke:#181818;stroke-width:1.0;" x1="944.5" x2="986.5" y1="370.6797" y2="370.6797"/><line style="stroke:#181818;stroke-width:1.0;" x1="986.5" x2="986.5" y1="370.6797" y2="383.6797"/><line style="stroke:#181818;stroke-width:1.0;" x1="945.5" x2="986.5" y1="383.6797" y2="383.6797"/><polygon fill="#181818" points="955.5,379.6797,945.5,383.6797,955.5,387.6797,951.5,383.6797" style="stroke:#181818;stroke-width:1.0;"/><text fill="#000000" font-family="sans-serif" font-size="13" font-weight="bold" lengthAdjust="spacing" textLength="7" x="951.5" y="365.8232">5</text><text fill="#000000" font-family="sans-serif" font-size="13" lengthAdjust="spacing" textLength="292" x="962.5" y="365.8232">Set message = translate('activation.errorMessage')</text><polygon fill="#181818" points="73.5,410.0313,63.5,414.0313,73.5,418.0313,69.5,414.0313" style="stroke:#181818;stroke-width:1.0;"/><line style="stroke:#181818;stroke-width:1.0;" x1="67.5" x2="938.5" y1="414.0313" y2="414.0313"/><text fill="#000000" font-family="sans-serif" font-size="13" font-weight="bold" lengthAdjust="spacing" textLength="7" x="79.5" y="409.1748">6</text><text fill="#000000" font-family="sans-serif" font-size="13" lengthAdjust="spacing" textLength="393" x="90.5" y="409.1748">Display error message\n"The activation link is invalid or has expired"</text><line style="stroke:#000000;stroke-width:1.0;stroke-dasharray:2.0,2.0;" x1="10" x2="1296.5" y1="423.0313" y2="423.0313"/><text fill="#000000" font-family="sans-serif" font-size="11" font-weight="bold" lengthAdjust="spacing" textLength="90" x="15" y="434.4502">[User not found]</text><polygon fill="#181818" points="922.5,456.2188,932.5,460.2188,922.5,464.2188,926.5,460.2188" style="stroke:#181818;stroke-width:1.0;"/><line style="stroke:#181818;stroke-width:1.0;" x1="663.5" x2="928.5" y1="460.2188" y2="460.2188"/><text fill="#000000" font-family="sans-serif" font-size="13" font-weight="bold" lengthAdjust="spacing" textLength="7" x="670.5" y="455.3623">7</text><text fill="#000000" font-family="sans-serif" font-size="13" lengthAdjust="spacing" textLength="193" x="681.5" y="455.3623">Navigate to /activate?status=error</text><line style="stroke:#181818;stroke-width:1.0;" x1="944.5" x2="986.5" y1="490.5703" y2="490.5703"/><line style="stroke:#181818;stroke-width:1.0;" x1="986.5" x2="986.5" y1="490.5703" y2="503.5703"/><line style="stroke:#181818;stroke-width:1.0;" x1="945.5" x2="986.5" y1="503.5703" y2="503.5703"/><polygon fill="#181818" points="955.5,499.5703,945.5,503.5703,955.5,507.5703,951.5,503.5703" style="stroke:#181818;stroke-width:1.0;"/><text fill="#000000" font-family="sans-serif" font-size="13" font-weight="bold" lengthAdjust="spacing" textLength="7" x="951.5" y="485.7139">8</text><text fill="#000000" font-family="sans-serif" font-size="13" lengthAdjust="spacing" textLength="180" x="962.5" y="485.7139">Read query param status=error</text><line style="stroke:#181818;stroke-width:1.0;" x1="944.5" x2="986.5" y1="533.9219" y2="533.9219"/><line style="stroke:#181818;stroke-width:1.0;" x1="986.5" x2="986.5" y1="533.9219" y2="546.9219"/><line style="stroke:#181818;stroke-width:1.0;" x1="945.5" x2="986.5" y1="546.9219" y2="546.9219"/><polygon fill="#181818" points="955.5,542.9219,945.5,546.9219,955.5,550.9219,951.5,546.9219" style="stroke:#181818;stroke-width:1.0;"/><text fill="#000000" font-family="sans-serif" font-size="13" font-weight="bold" lengthAdjust="spacing" textLength="7" x="951.5" y="529.0654">9</text><text fill="#000000" font-family="sans-serif" font-size="13" lengthAdjust="spacing" textLength="292" x="962.5" y="529.0654">Set message = translate('activation.errorMessage')</text><polygon fill="#181818" points="73.5,573.2734,63.5,577.2734,73.5,581.2734,69.5,577.2734" style="stroke:#181818;stroke-width:1.0;"/><line style="stroke:#181818;stroke-width:1.0;" x1="67.5" x2="938.5" y1="577.2734" y2="577.2734"/><text fill="#000000" font-family="sans-serif" font-size="13" font-weight="bold" lengthAdjust="spacing" textLength="14" x="79.5" y="572.417">10</text><text fill="#000000" font-family="sans-serif" font-size="13" lengthAdjust="spacing" textLength="393" x="97.5" y="572.417">Display error message\n"The activation link is invalid or has expired"</text><line style="stroke:#000000;stroke-width:1.0;stroke-dasharray:2.0,2.0;" x1="10" x2="1296.5" y1="586.2734" y2="586.2734"/><text fill="#000000" font-family="sans-serif" font-size="11" font-weight="bold" lengthAdjust="spacing" textLength="126" x="15" y="597.6924">[Activation successful]</text><polygon fill="#181818" points="922.5,619.4609,932.5,623.4609,922.5,627.4609,926.5,623.4609" style="stroke:#181818;stroke-width:1.0;"/><line style="stroke:#181818;stroke-width:1.0;" x1="663.5" x2="928.5" y1="623.4609" y2="623.4609"/><text fill="#000000" font-family="sans-serif" font-size="13" font-weight="bold" lengthAdjust="spacing" textLength="14" x="670.5" y="618.6045">11</text><text fill="#000000" font-family="sans-serif" font-size="13" lengthAdjust="spacing" textLength="216" x="688.5" y="618.6045">Navigate to /activate?status=success</text><line style="stroke:#181818;stroke-width:1.0;" x1="944.5" x2="986.5" y1="653.8125" y2="653.8125"/><line style="stroke:#181818;stroke-width:1.0;" x1="986.5" x2="986.5" y1="653.8125" y2="666.8125"/><line style="stroke:#181818;stroke-width:1.0;" x1="945.5" x2="986.5" y1="666.8125" y2="666.8125"/><polygon fill="#181818" points="955.5,662.8125,945.5,666.8125,955.5,670.8125,951.5,666.8125" style="stroke:#181818;stroke-width:1.0;"/><text fill="#000000" font-family="sans-serif" font-size="13" font-weight="bold" lengthAdjust="spacing" textLength="14" x="951.5" y="648.9561">12</text><text fill="#000000" font-family="sans-serif" font-size="13" lengthAdjust="spacing" textLength="203" x="969.5" y="648.9561">Read query param status=success</text><line style="stroke:#181818;stroke-width:1.0;" x1="944.5" x2="986.5" y1="697.1641" y2="697.1641"/><line style="stroke:#181818;stroke-width:1.0;" x1="986.5" x2="986.5" y1="697.1641" y2="710.1641"/><line style="stroke:#181818;stroke-width:1.0;" x1="945.5" x2="986.5" y1="710.1641" y2="710.1641"/><polygon fill="#181818" points="955.5,706.1641,945.5,710.1641,955.5,714.1641,951.5,710.1641" style="stroke:#181818;stroke-width:1.0;"/><text fill="#000000" font-family="sans-serif" font-size="13" font-weight="bold" lengthAdjust="spacing" textLength="14" x="951.5" y="692.3076">13</text><text fill="#000000" font-family="sans-serif" font-size="13" lengthAdjust="spacing" textLength="315" x="969.5" y="692.3076">Set message = translate('activation.successMessage')</text><polygon fill="#181818" points="73.5,736.5156,63.5,740.5156,73.5,744.5156,69.5,740.5156" style="stroke:#181818;stroke-width:1.0;"/><line style="stroke:#181818;stroke-width:1.0;" x1="67.5" x2="938.5" y1="740.5156" y2="740.5156"/><text fill="#000000" font-family="sans-serif" font-size="13" font-weight="bold" lengthAdjust="spacing" textLength="14" x="79.5" y="735.6592">14</text><text fill="#000000" font-family="sans-serif" font-size="13" lengthAdjust="spacing" textLength="439" x="97.5" y="735.6592">Display success message\n"Your account has been activated successfully"</text><polygon fill="#181818" points="922.5,766.8672,932.5,770.8672,922.5,774.8672,926.5,770.8672" style="stroke:#181818;stroke-width:1.0;"/><line style="stroke:#181818;stroke-width:1.0;" x1="62.5" x2="928.5" y1="770.8672" y2="770.8672"/><text fill="#000000" font-family="sans-serif" font-size="13" font-weight="bold" lengthAdjust="spacing" textLength="14" x="69.5" y="766.0107">15</text><text fill="#000000" font-family="sans-serif" font-size="13" lengthAdjust="spacing" textLength="166" x="87.5" y="766.0107">Click "Back to Home" button</text><polygon fill="#181818" points="674.5,797.2188,664.5,801.2188,674.5,805.2188,670.5,801.2188" style="stroke:#181818;stroke-width:1.0;"/><line style="stroke:#181818;stroke-width:1.0;" x1="668.5" x2="938.5" y1="801.2188" y2="801.2188"/><text fill="#000000" font-family="sans-serif" font-size="13" font-weight="bold" lengthAdjust="spacing" textLength="14" x="680.5" y="796.3623">16</text><text fill="#000000" font-family="sans-serif" font-size="13" lengthAdjust="spacing" textLength="72" x="698.5" y="796.3623">Navigate to /</text><!--SRC=[xLLDZzCm4BtxLunosLPYsmK4Xqe1iIpB7bX0j3qWxSLDferLnmxsf4kruhypTfCqfO2M3t6YXzQrdz_Cl3UP-BKobNIoXD8QcnNEbWZaQXI-EwbajfOhdD9M8pZCI9gLxWDy8NDxgymAbb9x588KCNIwzOGbJF5JZIP3k51o5U2dC9_2uz6ZqTC9N2hd2Lva6NeF6oLvIMeZILa3RvHPm-3IMKDeSdXdz7OeXAp9chfSeEDrHjP1qWIQUtG9I1yNWbCZbQbA6eBatDdRzhHP7mBsOQTrJ2P2szX2f6baXPTQPMj_b6MQ2X7FJv-r_33PWK7kiJfWbG4ifT8tDsPG45L-CXvhcqbTM4-J9sTd3yUoKkD0ToqD2r-YeN73Wi_9hj6aT_7dor2q-rrPeer_aChLRFOUNh-Q0LbOi9z1q5vY_BUoof0mbgcSMXKqWVC6jv5QvHp2GmpwW1DletgecJ_iECnLw8q0WcMdczG4it0Bc1cMjcO-jWm_LupE1V2dbs_dzGJUoerQXRgORb-y9qcrJz4vw-BbhlpEgh3RyHnoVa2P0pUZsqBJkD_I_U3Y50bARWes0r9-FAJnceCEJlOIZYB9zGvqCZnYc-zyk52-qd8B4Troidp9hC3ZJl7SB57ze5d13TdebaJw7BzVVM-_ROgmBP2VpLqUdHV_3VZd1lH6Xz-DccMjVzU7Xk7lET4d_0Cl6ffxkz7W-tvyjBNZcZ9kKuhIBv2dI5jatXDFRtzkH_oQ7okx6yz967D1t2j-zIMmg8dVB_SKT3zV3rpwrUO8Hry1]--></g></svg>