<?xml version="1.0" encoding="us-ascii" standalone="no"?><svg xmlns="http://www.w3.org/2000/svg" xmlns:xlink="http://www.w3.org/1999/xlink" contentStyleType="text/css" height="1947px" preserveAspectRatio="none" style="width:2586px;height:1947px;background:#FFFFFF;" version="1.1" viewBox="0 0 2586 1947" width="2586px" zoomAndPan="magnify"><defs/><g><text fill="#000000" font-family="sans-serif" font-size="14" font-weight="bold" lengthAdjust="spacing" textLength="480" x="1049" y="29.5332">System Sequence Diagram - US 3.2.6: First Access via Activation Link</text><rect fill="#FFFFFF" height="1641.0859" style="stroke:#181818;stroke-width:1.0;" width="10" x="497.5" y="214.2734"/><rect fill="#FFFFFF" height="346.7031" style="stroke:#181818;stroke-width:1.0;" width="10" x="829.5" y="244.625"/><rect fill="#FFFFFF" height="286" style="stroke:#181818;stroke-width:1.0;" width="10" x="1147.5" y="274.9766"/><rect fill="#FFFFFF" height="60.7031" style="stroke:#181818;stroke-width:1.0;" width="10" x="1336.5" y="305.3281"/><rect fill="#FFFFFF" height="60.7031" style="stroke:#181818;stroke-width:1.0;" width="10" x="1336.5" y="1457.1406"/><rect fill="#FFFFFF" height="116.8906" style="stroke:#181818;stroke-width:1.0;" width="10" x="1484.5" y="421.7344"/><rect fill="#FFFFFF" height="73.7031" style="stroke:#181818;stroke-width:1.0;" width="10" x="1484.5" y="801.2734"/><rect fill="#FFFFFF" height="60.7031" style="stroke:#181818;stroke-width:1.0;" width="10" x="1869.5" y="905.3281"/><rect fill="#FFFFFF" height="60.7031" style="stroke:#181818;stroke-width:1.0;" width="10" x="1869.5" y="1366.0859"/><rect fill="#FFFFFF" height="73.7031" style="stroke:#181818;stroke-width:1.0;" width="10" x="1956.5" y="1262.0313"/><rect fill="#FFFFFF" height="133.4063" style="stroke:#181818;stroke-width:1.0;" width="10" x="2153.5" y="621.6797"/><rect fill="#FFFFFF" height="133.4063" style="stroke:#181818;stroke-width:1.0;" width="10" x="2153.5" y="1082.4375"/><rect fill="#FFFFFF" height="194.1094" style="stroke:#181818;stroke-width:1.0;" width="10" x="2153.5" y="1639.25"/><rect fill="none" height="1467.3281" style="stroke:#000000;stroke-width:1.5;" width="2559" x="10" y="381.0313"/><rect fill="none" height="94.8906" style="stroke:#000000;stroke-width:1.5;" width="454" x="1097.5" y="436.7344"/><rect fill="none" height="860.3281" style="stroke:#000000;stroke-width:1.5;" width="2539" x="20" y="981.0313"/><line style="stroke:#181818;stroke-width:0.5;stroke-dasharray:5.0,5.0;" x1="72" x2="72" y1="121.2188" y2="1865.3594"/><line style="stroke:#181818;stroke-width:0.5;stroke-dasharray:5.0,5.0;" x1="502" x2="502" y1="121.2188" y2="1865.3594"/><line style="stroke:#181818;stroke-width:0.5;stroke-dasharray:5.0,5.0;" x1="834" x2="834" y1="121.2188" y2="1865.3594"/><line style="stroke:#181818;stroke-width:0.5;stroke-dasharray:5.0,5.0;" x1="1152.5" x2="1152.5" y1="121.2188" y2="1865.3594"/><line style="stroke:#181818;stroke-width:0.5;stroke-dasharray:5.0,5.0;" x1="1341.5" x2="1341.5" y1="121.2188" y2="1865.3594"/><line style="stroke:#181818;stroke-width:0.5;stroke-dasharray:5.0,5.0;" x1="1489.5" x2="1489.5" y1="121.2188" y2="1865.3594"/><line style="stroke:#181818;stroke-width:0.5;stroke-dasharray:5.0,5.0;" x1="1874" x2="1874" y1="121.2188" y2="1865.3594"/><line style="stroke:#181818;stroke-width:0.5;stroke-dasharray:5.0,5.0;" x1="1961" x2="1961" y1="121.2188" y2="1865.3594"/><line style="stroke:#181818;stroke-width:0.5;stroke-dasharray:5.0,5.0;" x1="2158.5" x2="2158.5" y1="121.2188" y2="1865.3594"/><line style="stroke:#181818;stroke-width:0.5;stroke-dasharray:5.0,5.0;" x1="2515" x2="2515" y1="121.2188" y2="1865.3594"/><text fill="#000000" font-family="sans-serif" font-size="14" lengthAdjust="spacing" textLength="79" x="30" y="118.1426">System User</text><ellipse cx="72.5" cy="52.1094" fill="#E3E3E3" rx="8" ry="8" style="stroke:#181818;stroke-width:0.5;"/><path d="M72.5,60.1094 L72.5,87.1094 M59.5,68.1094 L85.5,68.1094 M72.5,87.1094 L59.5,102.1094 M72.5,87.1094 L85.5,102.1094 " fill="none" style="stroke:#181818;stroke-width:0.5;"/><text fill="#000000" font-family="sans-serif" font-size="14" lengthAdjust="spacing" textLength="79" x="30" y="1878.8926">System User</text><ellipse cx="72.5" cy="1890.4688" fill="#E3E3E3" rx="8" ry="8" style="stroke:#181818;stroke-width:0.5;"/><path d="M72.5,1898.4688 L72.5,1925.4688 M59.5,1906.4688 L85.5,1906.4688 M72.5,1925.4688 L59.5,1940.4688 M72.5,1925.4688 L85.5,1940.4688 " fill="none" style="stroke:#181818;stroke-width:0.5;"/><rect fill="#E3E3E3" height="31.6094" rx="2.5" ry="2.5" style="stroke:#181818;stroke-width:0.5;" width="65" x="470" y="88.6094"/><text fill="#000000" font-family="sans-serif" font-size="14" lengthAdjust="spacing" textLength="51" x="477" y="110.1426">Browser</text><rect fill="#E3E3E3" height="31.6094" rx="2.5" ry="2.5" style="stroke:#181818;stroke-width:0.5;" width="65" x="470" y="1864.3594"/><text fill="#000000" font-family="sans-serif" font-size="14" lengthAdjust="spacing" textLength="51" x="477" y="1885.8926">Browser</text><rect fill="#E3E3E3" height="31.6094" rx="2.5" ry="2.5" style="stroke:#181818;stroke-width:0.5;" width="187" x="741" y="88.6094"/><text fill="#000000" font-family="sans-serif" font-size="14" lengthAdjust="spacing" textLength="173" x="748" y="110.1426">UserManagementController</text><rect fill="#E3E3E3" height="31.6094" rx="2.5" ry="2.5" style="stroke:#181818;stroke-width:0.5;" width="187" x="741" y="1864.3594"/><text fill="#000000" font-family="sans-serif" font-size="14" lengthAdjust="spacing" textLength="173" x="748" y="1885.8926">UserManagementController</text><rect fill="#E3E3E3" height="31.6094" rx="2.5" ry="2.5" style="stroke:#181818;stroke-width:0.5;" width="90" x="1107.5" y="88.6094"/><text fill="#000000" font-family="sans-serif" font-size="14" lengthAdjust="spacing" textLength="76" x="1114.5" y="110.1426">UserService</text><rect fill="#E3E3E3" height="31.6094" rx="2.5" ry="2.5" style="stroke:#181818;stroke-width:0.5;" width="90" x="1107.5" y="1864.3594"/><text fill="#000000" font-family="sans-serif" font-size="14" lengthAdjust="spacing" textLength="76" x="1114.5" y="1885.8926">UserService</text><rect fill="#E3E3E3" height="31.6094" rx="2.5" ry="2.5" style="stroke:#181818;stroke-width:0.5;" width="172" x="1255.5" y="88.6094"/><text fill="#000000" font-family="sans-serif" font-size="14" lengthAdjust="spacing" textLength="158" x="1262.5" y="110.1426">UserActivationRepository</text><rect fill="#E3E3E3" height="31.6094" rx="2.5" ry="2.5" style="stroke:#181818;stroke-width:0.5;" width="172" x="1255.5" y="1864.3594"/><text fill="#000000" font-family="sans-serif" font-size="14" lengthAdjust="spacing" textLength="158" x="1262.5" y="1885.8926">UserActivationRepository</text><rect fill="#E3E3E3" height="31.6094" rx="2.5" ry="2.5" style="stroke:#181818;stroke-width:0.5;" width="104" x="1437.5" y="88.6094"/><text fill="#000000" font-family="sans-serif" font-size="14" lengthAdjust="spacing" textLength="90" x="1444.5" y="110.1426">UserActivation</text><rect fill="#E3E3E3" height="31.6094" rx="2.5" ry="2.5" style="stroke:#181818;stroke-width:0.5;" width="104" x="1437.5" y="1864.3594"/><text fill="#000000" font-family="sans-serif" font-size="14" lengthAdjust="spacing" textLength="90" x="1444.5" y="1885.8926">UserActivation</text><rect fill="#E3E3E3" height="31.6094" rx="2.5" ry="2.5" style="stroke:#181818;stroke-width:0.5;" width="111" x="1819" y="88.6094"/><text fill="#000000" font-family="sans-serif" font-size="14" lengthAdjust="spacing" textLength="97" x="1826" y="110.1426">UserRepository</text><rect fill="#E3E3E3" height="31.6094" rx="2.5" ry="2.5" style="stroke:#181818;stroke-width:0.5;" width="111" x="1819" y="1864.3594"/><text fill="#000000" font-family="sans-serif" font-size="14" lengthAdjust="spacing" textLength="97" x="1826" y="1885.8926">UserRepository</text><rect fill="#E3E3E3" height="31.6094" rx="2.5" ry="2.5" style="stroke:#181818;stroke-width:0.5;" width="43" x="1940" y="88.6094"/><text fill="#000000" font-family="sans-serif" font-size="14" lengthAdjust="spacing" textLength="29" x="1947" y="110.1426">User</text><rect fill="#E3E3E3" height="31.6094" rx="2.5" ry="2.5" style="stroke:#181818;stroke-width:0.5;" width="43" x="1940" y="1864.3594"/><text fill="#000000" font-family="sans-serif" font-size="14" lengthAdjust="spacing" textLength="29" x="1947" y="1885.8926">User</text><rect fill="#E3E3E3" height="31.6094" rx="2.5" ry="2.5" style="stroke:#181818;stroke-width:0.5;" width="128" x="2094.5" y="88.6094"/><text fill="#000000" font-family="sans-serif" font-size="14" lengthAdjust="spacing" textLength="114" x="2101.5" y="110.1426">ActivationSuccess</text><rect fill="#E3E3E3" height="31.6094" rx="2.5" ry="2.5" style="stroke:#181818;stroke-width:0.5;" width="128" x="2094.5" y="1864.3594"/><text fill="#000000" font-family="sans-serif" font-size="14" lengthAdjust="spacing" textLength="114" x="2101.5" y="1885.8926">ActivationSuccess</text><text fill="#000000" font-family="sans-serif" font-size="14" lengthAdjust="spacing" textLength="61" x="2482" y="118.1426">Database</text><path d="M2497.5,67.6094 C2497.5,57.6094 2515.5,57.6094 2515.5,57.6094 C2515.5,57.6094 2533.5,57.6094 2533.5,67.6094 L2533.5,93.6094 C2533.5,103.6094 2515.5,103.6094 2515.5,103.6094 C2515.5,103.6094 2497.5,103.6094 2497.5,93.6094 L2497.5,67.6094 " fill="#E3E3E3" style="stroke:#181818;stroke-width:1.5;"/><path d="M2497.5,67.6094 C2497.5,77.6094 2515.5,77.6094 2515.5,77.6094 C2515.5,77.6094 2533.5,77.6094 2533.5,67.6094 " fill="none" style="stroke:#181818;stroke-width:1.5;"/><text fill="#000000" font-family="sans-serif" font-size="14" lengthAdjust="spacing" textLength="61" x="2482" y="1878.8926">Database</text><path d="M2497.5,1891.9688 C2497.5,1881.9688 2515.5,1881.9688 2515.5,1881.9688 C2515.5,1881.9688 2533.5,1881.9688 2533.5,1891.9688 L2533.5,1917.9688 C2533.5,1927.9688 2515.5,1927.9688 2515.5,1927.9688 C2515.5,1927.9688 2497.5,1927.9688 2497.5,1917.9688 L2497.5,1891.9688 " fill="#E3E3E3" style="stroke:#181818;stroke-width:1.5;"/><path d="M2497.5,1891.9688 C2497.5,1901.9688 2515.5,1901.9688 2515.5,1901.9688 C2515.5,1901.9688 2533.5,1901.9688 2533.5,1891.9688 " fill="none" style="stroke:#181818;stroke-width:1.5;"/><rect fill="#FFFFFF" height="1641.0859" style="stroke:#181818;stroke-width:1.0;" width="10" x="497.5" y="214.2734"/><rect fill="#FFFFFF" height="346.7031" style="stroke:#181818;stroke-width:1.0;" width="10" x="829.5" y="244.625"/><rect fill="#FFFFFF" height="286" style="stroke:#181818;stroke-width:1.0;" width="10" x="1147.5" y="274.9766"/><rect fill="#FFFFFF" height="60.7031" style="stroke:#181818;stroke-width:1.0;" width="10" x="1336.5" y="305.3281"/><rect fill="#FFFFFF" height="60.7031" style="stroke:#181818;stroke-width:1.0;" width="10" x="1336.5" y="1457.1406"/><rect fill="#FFFFFF" height="116.8906" style="stroke:#181818;stroke-width:1.0;" width="10" x="1484.5" y="421.7344"/><rect fill="#FFFFFF" height="73.7031" style="stroke:#181818;stroke-width:1.0;" width="10" x="1484.5" y="801.2734"/><rect fill="#FFFFFF" height="60.7031" style="stroke:#181818;stroke-width:1.0;" width="10" x="1869.5" y="905.3281"/><rect fill="#FFFFFF" height="60.7031" style="stroke:#181818;stroke-width:1.0;" width="10" x="1869.5" y="1366.0859"/><rect fill="#FFFFFF" height="73.7031" style="stroke:#181818;stroke-width:1.0;" width="10" x="1956.5" y="1262.0313"/><rect fill="#FFFFFF" height="133.4063" style="stroke:#181818;stroke-width:1.0;" width="10" x="2153.5" y="621.6797"/><rect fill="#FFFFFF" height="133.4063" style="stroke:#181818;stroke-width:1.0;" width="10" x="2153.5" y="1082.4375"/><rect fill="#FFFFFF" height="194.1094" style="stroke:#181818;stroke-width:1.0;" width="10" x="2153.5" y="1639.25"/><rect fill="#EEEEEE" height="3" style="stroke:#EEEEEE;stroke-width:1.0;" width="2579" x="0" y="152.3945"/><line style="stroke:#000000;stroke-width:1.0;" x1="0" x2="2579" y1="152.3945" y2="152.3945"/><line style="stroke:#000000;stroke-width:1.0;" x1="0" x2="2579" y1="155.3945" y2="155.3945"/><rect fill="#EEEEEE" height="24.3516" style="stroke:#000000;stroke-width:2.0;" width="185" x="1197" y="141.2188"/><text fill="#000000" font-family="sans-serif" font-size="13" font-weight="bold" lengthAdjust="spacing" textLength="167" x="1203" y="158.7139">User Clicks Activation Link</text><polygon fill="#181818" points="485.5,210.2734,495.5,214.2734,485.5,218.2734,489.5,214.2734" style="stroke:#181818;stroke-width:1.0;"/><line style="stroke:#181818;stroke-width:1.0;" x1="72.5" x2="491.5" y1="214.2734" y2="214.2734"/><text fill="#000000" font-family="sans-serif" font-size="13" font-weight="bold" lengthAdjust="spacing" textLength="7" x="79.5" y="201.2412">1</text><text fill="#000000" font-family="sans-serif" font-size="13" lengthAdjust="spacing" textLength="160" x="90.5" y="193.0654">Click activation link in email</text><text fill="#000000" font-family="sans-serif" font-size="13" lengthAdjust="spacing" textLength="395" x="90.5" y="209.417">(https://localhost:5001/api/UserManagement/activate?token={token})</text><polygon fill="#181818" points="817.5,240.625,827.5,244.625,817.5,248.625,821.5,244.625" style="stroke:#181818;stroke-width:1.0;"/><line style="stroke:#181818;stroke-width:1.0;" x1="507.5" x2="823.5" y1="244.625" y2="244.625"/><text fill="#000000" font-family="sans-serif" font-size="13" font-weight="bold" lengthAdjust="spacing" textLength="7" x="514.5" y="239.7686">2</text><text fill="#000000" font-family="sans-serif" font-size="13" lengthAdjust="spacing" textLength="292" x="525.5" y="239.7686">GET /api/UserManagement/activate?token={token}</text><polygon fill="#181818" points="1135.5,270.9766,1145.5,274.9766,1135.5,278.9766,1139.5,274.9766" style="stroke:#181818;stroke-width:1.0;"/><line style="stroke:#181818;stroke-width:1.0;" x1="839.5" x2="1141.5" y1="274.9766" y2="274.9766"/><text fill="#000000" font-family="sans-serif" font-size="13" font-weight="bold" lengthAdjust="spacing" textLength="7" x="846.5" y="270.1201">3</text><text fill="#000000" font-family="sans-serif" font-size="13" lengthAdjust="spacing" textLength="150" x="857.5" y="270.1201">ActivateUserAsync(token)</text><polygon fill="#181818" points="1324.5,301.3281,1334.5,305.3281,1324.5,309.3281,1328.5,305.3281" style="stroke:#181818;stroke-width:1.0;"/><line style="stroke:#181818;stroke-width:1.0;" x1="1157.5" x2="1330.5" y1="305.3281" y2="305.3281"/><text fill="#000000" font-family="sans-serif" font-size="13" font-weight="bold" lengthAdjust="spacing" textLength="7" x="1164.5" y="300.4717">4</text><text fill="#000000" font-family="sans-serif" font-size="13" lengthAdjust="spacing" textLength="149" x="1175.5" y="300.4717">GetByTokenAsync(token)</text><polygon fill="#181818" points="2503.5,331.6797,2513.5,335.6797,2503.5,339.6797,2507.5,335.6797" style="stroke:#181818;stroke-width:1.0;"/><line style="stroke:#181818;stroke-width:1.0;" x1="1346.5" x2="2509.5" y1="335.6797" y2="335.6797"/><text fill="#000000" font-family="sans-serif" font-size="13" font-weight="bold" lengthAdjust="spacing" textLength="7" x="1353.5" y="330.8232">5</text><text fill="#000000" font-family="sans-serif" font-size="13" lengthAdjust="spacing" textLength="343" x="1364.5" y="330.8232">SELECT * FROM UserActivations WHERE Token = {token}</text><polygon fill="#181818" points="1168.5,362.0313,1158.5,366.0313,1168.5,370.0313,1164.5,366.0313" style="stroke:#181818;stroke-width:1.0;"/><line style="stroke:#181818;stroke-width:1.0;stroke-dasharray:2.0,2.0;" x1="1162.5" x2="1340.5" y1="366.0313" y2="366.0313"/><text fill="#000000" font-family="sans-serif" font-size="13" font-weight="bold" lengthAdjust="spacing" textLength="7" x="1174.5" y="361.1748">6</text><text fill="#000000" font-family="sans-serif" font-size="13" lengthAdjust="spacing" textLength="122" x="1185.5" y="361.1748">UserActivation or null</text><path d="M10,381.0313 L71,381.0313 L71,389.3828 L61,399.3828 L10,399.3828 L10,381.0313 " fill="#EEEEEE" style="stroke:#000000;stroke-width:1.5;"/><rect fill="none" height="1467.3281" style="stroke:#000000;stroke-width:1.5;" width="2559" x="10" y="381.0313"/><text fill="#000000" font-family="sans-serif" font-size="13" font-weight="bold" lengthAdjust="spacing" textLength="16" x="25" y="395.5264">alt</text><text fill="#000000" font-family="sans-serif" font-size="11" font-weight="bold" lengthAdjust="spacing" textLength="159" x="86" y="394.4502">[Token not found or expired]</text><polygon fill="#181818" points="1472.5,417.7344,1482.5,421.7344,1472.5,425.7344,1476.5,421.7344" style="stroke:#181818;stroke-width:1.0;"/><line style="stroke:#181818;stroke-width:1.0;" x1="1157.5" x2="1478.5" y1="421.7344" y2="421.7344"/><text fill="#000000" font-family="sans-serif" font-size="13" font-weight="bold" lengthAdjust="spacing" textLength="7" x="1164.5" y="416.8779">7</text><text fill="#000000" font-family="sans-serif" font-size="13" lengthAdjust="spacing" textLength="79" x="1175.5" y="416.8779">IsValid(token)</text><path d="M1097.5,436.7344 L1158.5,436.7344 L1158.5,445.0859 L1148.5,455.0859 L1097.5,455.0859 L1097.5,436.7344 " fill="#EEEEEE" style="stroke:#000000;stroke-width:1.5;"/><rect fill="none" height="94.8906" style="stroke:#000000;stroke-width:1.5;" width="454" x="1097.5" y="436.7344"/><text fill="#000000" font-family="sans-serif" font-size="13" font-weight="bold" lengthAdjust="spacing" textLength="16" x="1112.5" y="451.2295">alt</text><text fill="#000000" font-family="sans-serif" font-size="11" font-weight="bold" lengthAdjust="spacing" textLength="98" x="1173.5" y="450.1533">[activation == null]</text><polygon fill="#181818" points="1168.5,473.4375,1158.5,477.4375,1168.5,481.4375,1164.5,477.4375" style="stroke:#181818;stroke-width:1.0;"/><line style="stroke:#181818;stroke-width:1.0;stroke-dasharray:2.0,2.0;" x1="1162.5" x2="1483.5" y1="477.4375" y2="477.4375"/><text fill="#000000" font-family="sans-serif" font-size="13" font-weight="bold" lengthAdjust="spacing" textLength="7" x="1174.5" y="472.5811">8</text><text fill="#000000" font-family="sans-serif" font-size="13" lengthAdjust="spacing" textLength="128" x="1185.5" y="472.5811">false (token not found)</text><line style="stroke:#000000;stroke-width:1.0;stroke-dasharray:2.0,2.0;" x1="1097.5" x2="1551.5" y1="486.4375" y2="486.4375"/><text fill="#000000" font-family="sans-serif" font-size="11" font-weight="bold" lengthAdjust="spacing" textLength="169" x="1102.5" y="497.8564">[DateTime.UtcNow &gt; ExpiresAt]</text><polygon fill="#181818" points="1168.5,519.625,1158.5,523.625,1168.5,527.625,1164.5,523.625" style="stroke:#181818;stroke-width:1.0;"/><line style="stroke:#181818;stroke-width:1.0;stroke-dasharray:2.0,2.0;" x1="1162.5" x2="1483.5" y1="523.625" y2="523.625"/><text fill="#000000" font-family="sans-serif" font-size="13" font-weight="bold" lengthAdjust="spacing" textLength="7" x="1174.5" y="518.7686">9</text><text fill="#000000" font-family="sans-serif" font-size="13" lengthAdjust="spacing" textLength="117" x="1185.5" y="518.7686">false (token expired)</text><polygon fill="#181818" points="850.5,556.9766,840.5,560.9766,850.5,564.9766,846.5,560.9766" style="stroke:#181818;stroke-width:1.0;"/><line style="stroke:#181818;stroke-width:1.0;stroke-dasharray:2.0,2.0;" x1="844.5" x2="1151.5" y1="560.9766" y2="560.9766"/><text fill="#000000" font-family="sans-serif" font-size="13" font-weight="bold" lengthAdjust="spacing" textLength="14" x="856.5" y="556.1201">10</text><text fill="#000000" font-family="sans-serif" font-size="13" lengthAdjust="spacing" textLength="253" x="874.5" y="556.1201">"http://localhost:4200/activate?status=error"</text><polygon fill="#181818" points="518.5,587.3281,508.5,591.3281,518.5,595.3281,514.5,591.3281" style="stroke:#181818;stroke-width:1.0;"/><line style="stroke:#181818;stroke-width:1.0;" x1="512.5" x2="833.5" y1="591.3281" y2="591.3281"/><text fill="#000000" font-family="sans-serif" font-size="13" font-weight="bold" lengthAdjust="spacing" textLength="14" x="524.5" y="586.4717">11</text><text fill="#000000" font-family="sans-serif" font-size="13" lengthAdjust="spacing" textLength="98" x="542.5" y="586.4717">Redirect(errorUrl)</text><polygon fill="#181818" points="2141.5,617.6797,2151.5,621.6797,2141.5,625.6797,2145.5,621.6797" style="stroke:#181818;stroke-width:1.0;"/><line style="stroke:#181818;stroke-width:1.0;" x1="507.5" x2="2147.5" y1="621.6797" y2="621.6797"/><text fill="#000000" font-family="sans-serif" font-size="13" font-weight="bold" lengthAdjust="spacing" textLength="14" x="514.5" y="616.8232">12</text><text fill="#000000" font-family="sans-serif" font-size="13" lengthAdjust="spacing" textLength="193" x="532.5" y="616.8232">Navigate to /activate?status=error</text><line style="stroke:#181818;stroke-width:1.0;" x1="2163.5" x2="2205.5" y1="652.0313" y2="652.0313"/><line style="stroke:#181818;stroke-width:1.0;" x1="2205.5" x2="2205.5" y1="652.0313" y2="665.0313"/><line style="stroke:#181818;stroke-width:1.0;" x1="2164.5" x2="2205.5" y1="665.0313" y2="665.0313"/><polygon fill="#181818" points="2174.5,661.0313,2164.5,665.0313,2174.5,669.0313,2170.5,665.0313" style="stroke:#181818;stroke-width:1.0;"/><text fill="#000000" font-family="sans-serif" font-size="13" font-weight="bold" lengthAdjust="spacing" textLength="14" x="2170.5" y="647.1748">13</text><text fill="#000000" font-family="sans-serif" font-size="13" lengthAdjust="spacing" textLength="180" x="2188.5" y="647.1748">Read query param status=error</text><line style="stroke:#181818;stroke-width:1.0;" x1="2163.5" x2="2205.5" y1="695.3828" y2="695.3828"/><line style="stroke:#181818;stroke-width:1.0;" x1="2205.5" x2="2205.5" y1="695.3828" y2="708.3828"/><line style="stroke:#181818;stroke-width:1.0;" x1="2164.5" x2="2205.5" y1="708.3828" y2="708.3828"/><polygon fill="#181818" points="2174.5,704.3828,2164.5,708.3828,2174.5,712.3828,2170.5,708.3828" style="stroke:#181818;stroke-width:1.0;"/><text fill="#000000" font-family="sans-serif" font-size="13" font-weight="bold" lengthAdjust="spacing" textLength="14" x="2170.5" y="690.5264">14</text><text fill="#000000" font-family="sans-serif" font-size="13" lengthAdjust="spacing" textLength="292" x="2188.5" y="690.5264">Set message = translate('activation.errorMessage')</text><polygon fill="#181818" points="83.5,751.0859,73.5,755.0859,83.5,759.0859,79.5,755.0859" style="stroke:#181818;stroke-width:1.0;"/><line style="stroke:#181818;stroke-width:1.0;" x1="77.5" x2="2157.5" y1="755.0859" y2="755.0859"/><text fill="#000000" font-family="sans-serif" font-size="13" font-weight="bold" lengthAdjust="spacing" textLength="14" x="89.5" y="742.0537">15</text><text fill="#000000" font-family="sans-serif" font-size="13" lengthAdjust="spacing" textLength="130" x="107.5" y="733.8779">Display error message</text><text fill="#000000" font-family="sans-serif" font-size="13" lengthAdjust="spacing" textLength="252" x="107.5" y="750.2295">"The activation link is invalid or has expired"</text><line style="stroke:#000000;stroke-width:1.0;stroke-dasharray:2.0,2.0;" x1="10" x2="2569" y1="764.0859" y2="764.0859"/><text fill="#000000" font-family="sans-serif" font-size="11" font-weight="bold" lengthAdjust="spacing" textLength="84" x="15" y="775.5049">[Token is valid]</text><polygon fill="#181818" points="1472.5,797.2734,1482.5,801.2734,1472.5,805.2734,1476.5,801.2734" style="stroke:#181818;stroke-width:1.0;"/><line style="stroke:#181818;stroke-width:1.0;" x1="1152.5" x2="1478.5" y1="801.2734" y2="801.2734"/><text fill="#000000" font-family="sans-serif" font-size="13" font-weight="bold" lengthAdjust="spacing" textLength="14" x="1159.5" y="796.417">16</text><text fill="#000000" font-family="sans-serif" font-size="13" lengthAdjust="spacing" textLength="79" x="1177.5" y="796.417">IsValid(token)</text><line style="stroke:#181818;stroke-width:1.0;" x1="1494.5" x2="1536.5" y1="831.625" y2="831.625"/><line style="stroke:#181818;stroke-width:1.0;" x1="1536.5" x2="1536.5" y1="831.625" y2="844.625"/><line style="stroke:#181818;stroke-width:1.0;" x1="1495.5" x2="1536.5" y1="844.625" y2="844.625"/><polygon fill="#181818" points="1505.5,840.625,1495.5,844.625,1505.5,848.625,1501.5,844.625" style="stroke:#181818;stroke-width:1.0;"/><text fill="#000000" font-family="sans-serif" font-size="13" font-weight="bold" lengthAdjust="spacing" textLength="14" x="1501.5" y="826.7686">17</text><text fill="#000000" font-family="sans-serif" font-size="13" lengthAdjust="spacing" textLength="343" x="1519.5" y="826.7686">Check Token == token &amp;&amp; DateTime.UtcNow &lt;= ExpiresAt</text><polygon fill="#181818" points="1163.5,870.9766,1153.5,874.9766,1163.5,878.9766,1159.5,874.9766" style="stroke:#181818;stroke-width:1.0;"/><line style="stroke:#181818;stroke-width:1.0;stroke-dasharray:2.0,2.0;" x1="1157.5" x2="1488.5" y1="874.9766" y2="874.9766"/><text fill="#000000" font-family="sans-serif" font-size="13" font-weight="bold" lengthAdjust="spacing" textLength="14" x="1169.5" y="870.1201">18</text><text fill="#000000" font-family="sans-serif" font-size="13" lengthAdjust="spacing" textLength="22" x="1187.5" y="870.1201">true</text><polygon fill="#181818" points="1857.5,901.3281,1867.5,905.3281,1857.5,909.3281,1861.5,905.3281" style="stroke:#181818;stroke-width:1.0;"/><line style="stroke:#181818;stroke-width:1.0;" x1="1152.5" x2="1863.5" y1="905.3281" y2="905.3281"/><text fill="#000000" font-family="sans-serif" font-size="13" font-weight="bold" lengthAdjust="spacing" textLength="14" x="1159.5" y="900.4717">19</text><text fill="#000000" font-family="sans-serif" font-size="13" lengthAdjust="spacing" textLength="187" x="1177.5" y="900.4717">GetByIdAsync(activation.UserId)</text><polygon fill="#181818" points="2503.5,931.6797,2513.5,935.6797,2503.5,939.6797,2507.5,935.6797" style="stroke:#181818;stroke-width:1.0;"/><line style="stroke:#181818;stroke-width:1.0;" x1="1879.5" x2="2509.5" y1="935.6797" y2="935.6797"/><text fill="#000000" font-family="sans-serif" font-size="13" font-weight="bold" lengthAdjust="spacing" textLength="14" x="1886.5" y="930.8232">20</text><text fill="#000000" font-family="sans-serif" font-size="13" lengthAdjust="spacing" textLength="265" x="1904.5" y="930.8232">SELECT * FROM Users WHERE Id = {userId}</text><polygon fill="#181818" points="1163.5,962.0313,1153.5,966.0313,1163.5,970.0313,1159.5,966.0313" style="stroke:#181818;stroke-width:1.0;"/><line style="stroke:#181818;stroke-width:1.0;stroke-dasharray:2.0,2.0;" x1="1157.5" x2="1873.5" y1="966.0313" y2="966.0313"/><text fill="#000000" font-family="sans-serif" font-size="13" font-weight="bold" lengthAdjust="spacing" textLength="14" x="1169.5" y="961.1748">21</text><text fill="#000000" font-family="sans-serif" font-size="13" lengthAdjust="spacing" textLength="66" x="1187.5" y="961.1748">User or null</text><path d="M20,981.0313 L81,981.0313 L81,989.3828 L71,999.3828 L20,999.3828 L20,981.0313 " fill="#EEEEEE" style="stroke:#000000;stroke-width:1.5;"/><rect fill="none" height="860.3281" style="stroke:#000000;stroke-width:1.5;" width="2539" x="20" y="981.0313"/><text fill="#000000" font-family="sans-serif" font-size="13" font-weight="bold" lengthAdjust="spacing" textLength="16" x="35" y="995.5264">alt</text><text fill="#000000" font-family="sans-serif" font-size="11" font-weight="bold" lengthAdjust="spacing" textLength="90" x="96" y="994.4502">[User not found]</text><polygon fill="#181818" points="845.5,1017.7344,835.5,1021.7344,845.5,1025.7344,841.5,1021.7344" style="stroke:#181818;stroke-width:1.0;"/><line style="stroke:#181818;stroke-width:1.0;stroke-dasharray:2.0,2.0;" x1="839.5" x2="1151.5" y1="1021.7344" y2="1021.7344"/><text fill="#000000" font-family="sans-serif" font-size="13" font-weight="bold" lengthAdjust="spacing" textLength="14" x="851.5" y="1016.8779">22</text><text fill="#000000" font-family="sans-serif" font-size="13" lengthAdjust="spacing" textLength="253" x="869.5" y="1016.8779">"http://localhost:4200/activate?status=error"</text><polygon fill="#181818" points="518.5,1048.0859,508.5,1052.0859,518.5,1056.0859,514.5,1052.0859" style="stroke:#181818;stroke-width:1.0;"/><line style="stroke:#181818;stroke-width:1.0;" x1="512.5" x2="833.5" y1="1052.0859" y2="1052.0859"/><text fill="#000000" font-family="sans-serif" font-size="13" font-weight="bold" lengthAdjust="spacing" textLength="14" x="524.5" y="1047.2295">23</text><text fill="#000000" font-family="sans-serif" font-size="13" lengthAdjust="spacing" textLength="98" x="542.5" y="1047.2295">Redirect(errorUrl)</text><polygon fill="#181818" points="2141.5,1078.4375,2151.5,1082.4375,2141.5,1086.4375,2145.5,1082.4375" style="stroke:#181818;stroke-width:1.0;"/><line style="stroke:#181818;stroke-width:1.0;" x1="507.5" x2="2147.5" y1="1082.4375" y2="1082.4375"/><text fill="#000000" font-family="sans-serif" font-size="13" font-weight="bold" lengthAdjust="spacing" textLength="14" x="514.5" y="1077.5811">24</text><text fill="#000000" font-family="sans-serif" font-size="13" lengthAdjust="spacing" textLength="193" x="532.5" y="1077.5811">Navigate to /activate?status=error</text><line style="stroke:#181818;stroke-width:1.0;" x1="2163.5" x2="2205.5" y1="1112.7891" y2="1112.7891"/><line style="stroke:#181818;stroke-width:1.0;" x1="2205.5" x2="2205.5" y1="1112.7891" y2="1125.7891"/><line style="stroke:#181818;stroke-width:1.0;" x1="2164.5" x2="2205.5" y1="1125.7891" y2="1125.7891"/><polygon fill="#181818" points="2174.5,1121.7891,2164.5,1125.7891,2174.5,1129.7891,2170.5,1125.7891" style="stroke:#181818;stroke-width:1.0;"/><text fill="#000000" font-family="sans-serif" font-size="13" font-weight="bold" lengthAdjust="spacing" textLength="14" x="2170.5" y="1107.9326">25</text><text fill="#000000" font-family="sans-serif" font-size="13" lengthAdjust="spacing" textLength="180" x="2188.5" y="1107.9326">Read query param status=error</text><line style="stroke:#181818;stroke-width:1.0;" x1="2163.5" x2="2205.5" y1="1156.1406" y2="1156.1406"/><line style="stroke:#181818;stroke-width:1.0;" x1="2205.5" x2="2205.5" y1="1156.1406" y2="1169.1406"/><line style="stroke:#181818;stroke-width:1.0;" x1="2164.5" x2="2205.5" y1="1169.1406" y2="1169.1406"/><polygon fill="#181818" points="2174.5,1165.1406,2164.5,1169.1406,2174.5,1173.1406,2170.5,1169.1406" style="stroke:#181818;stroke-width:1.0;"/><text fill="#000000" font-family="sans-serif" font-size="13" font-weight="bold" lengthAdjust="spacing" textLength="14" x="2170.5" y="1151.2842">26</text><text fill="#000000" font-family="sans-serif" font-size="13" lengthAdjust="spacing" textLength="292" x="2188.5" y="1151.2842">Set message = translate('activation.errorMessage')</text><polygon fill="#181818" points="83.5,1211.8438,73.5,1215.8438,83.5,1219.8438,79.5,1215.8438" style="stroke:#181818;stroke-width:1.0;"/><line style="stroke:#181818;stroke-width:1.0;" x1="77.5" x2="2157.5" y1="1215.8438" y2="1215.8438"/><text fill="#000000" font-family="sans-serif" font-size="13" font-weight="bold" lengthAdjust="spacing" textLength="14" x="89.5" y="1202.8115">27</text><text fill="#000000" font-family="sans-serif" font-size="13" lengthAdjust="spacing" textLength="130" x="107.5" y="1194.6357">Display error message</text><text fill="#000000" font-family="sans-serif" font-size="13" lengthAdjust="spacing" textLength="252" x="107.5" y="1210.9873">"The activation link is invalid or has expired"</text><line style="stroke:#000000;stroke-width:1.0;stroke-dasharray:2.0,2.0;" x1="20" x2="2559" y1="1224.8438" y2="1224.8438"/><text fill="#000000" font-family="sans-serif" font-size="11" font-weight="bold" lengthAdjust="spacing" textLength="188" x="25" y="1236.2627">[User found - Complete activation]</text><polygon fill="#181818" points="1944.5,1258.0313,1954.5,1262.0313,1944.5,1266.0313,1948.5,1262.0313" style="stroke:#181818;stroke-width:1.0;"/><line style="stroke:#181818;stroke-width:1.0;" x1="1152.5" x2="1950.5" y1="1262.0313" y2="1262.0313"/><text fill="#000000" font-family="sans-serif" font-size="13" font-weight="bold" lengthAdjust="spacing" textLength="14" x="1159.5" y="1257.1748">28</text><text fill="#000000" font-family="sans-serif" font-size="13" lengthAdjust="spacing" textLength="54" x="1177.5" y="1257.1748">Activate()</text><line style="stroke:#181818;stroke-width:1.0;" x1="1966.5" x2="2008.5" y1="1292.3828" y2="1292.3828"/><line style="stroke:#181818;stroke-width:1.0;" x1="2008.5" x2="2008.5" y1="1292.3828" y2="1305.3828"/><line style="stroke:#181818;stroke-width:1.0;" x1="1967.5" x2="2008.5" y1="1305.3828" y2="1305.3828"/><polygon fill="#181818" points="1977.5,1301.3828,1967.5,1305.3828,1977.5,1309.3828,1973.5,1305.3828" style="stroke:#181818;stroke-width:1.0;"/><text fill="#000000" font-family="sans-serif" font-size="13" font-weight="bold" lengthAdjust="spacing" textLength="14" x="1973.5" y="1287.5264">29</text><text fill="#000000" font-family="sans-serif" font-size="13" lengthAdjust="spacing" textLength="155" x="1991.5" y="1287.5264">Set Status = Status.Active</text><polygon fill="#181818" points="1163.5,1331.7344,1153.5,1335.7344,1163.5,1339.7344,1159.5,1335.7344" style="stroke:#181818;stroke-width:1.0;"/><line style="stroke:#181818;stroke-width:1.0;stroke-dasharray:2.0,2.0;" x1="1157.5" x2="1960.5" y1="1335.7344" y2="1335.7344"/><text fill="#000000" font-family="sans-serif" font-size="13" font-weight="bold" lengthAdjust="spacing" textLength="14" x="1169.5" y="1330.8779">30</text><text fill="#000000" font-family="sans-serif" font-size="13" lengthAdjust="spacing" textLength="19" x="1187.5" y="1330.8779">OK</text><polygon fill="#181818" points="1857.5,1362.0859,1867.5,1366.0859,1857.5,1370.0859,1861.5,1366.0859" style="stroke:#181818;stroke-width:1.0;"/><line style="stroke:#181818;stroke-width:1.0;" x1="1152.5" x2="1863.5" y1="1366.0859" y2="1366.0859"/><text fill="#000000" font-family="sans-serif" font-size="13" font-weight="bold" lengthAdjust="spacing" textLength="14" x="1159.5" y="1361.2295">31</text><text fill="#000000" font-family="sans-serif" font-size="13" lengthAdjust="spacing" textLength="111" x="1177.5" y="1361.2295">UpdateAsync(user)</text><polygon fill="#181818" points="2503.5,1392.4375,2513.5,1396.4375,2503.5,1400.4375,2507.5,1396.4375" style="stroke:#181818;stroke-width:1.0;"/><line style="stroke:#181818;stroke-width:1.0;" x1="1879.5" x2="2509.5" y1="1396.4375" y2="1396.4375"/><text fill="#000000" font-family="sans-serif" font-size="13" font-weight="bold" lengthAdjust="spacing" textLength="14" x="1886.5" y="1391.5811">32</text><text fill="#000000" font-family="sans-serif" font-size="13" lengthAdjust="spacing" textLength="342" x="1904.5" y="1391.5811">UPDATE Users SET Status = 'Active' WHERE Id = {userId}</text><polygon fill="#181818" points="1163.5,1422.7891,1153.5,1426.7891,1163.5,1430.7891,1159.5,1426.7891" style="stroke:#181818;stroke-width:1.0;"/><line style="stroke:#181818;stroke-width:1.0;stroke-dasharray:2.0,2.0;" x1="1157.5" x2="1873.5" y1="1426.7891" y2="1426.7891"/><text fill="#000000" font-family="sans-serif" font-size="13" font-weight="bold" lengthAdjust="spacing" textLength="14" x="1169.5" y="1421.9326">33</text><text fill="#000000" font-family="sans-serif" font-size="13" lengthAdjust="spacing" textLength="19" x="1187.5" y="1421.9326">OK</text><polygon fill="#181818" points="1324.5,1453.1406,1334.5,1457.1406,1324.5,1461.1406,1328.5,1457.1406" style="stroke:#181818;stroke-width:1.0;"/><line style="stroke:#181818;stroke-width:1.0;" x1="1152.5" x2="1330.5" y1="1457.1406" y2="1457.1406"/><text fill="#000000" font-family="sans-serif" font-size="13" font-weight="bold" lengthAdjust="spacing" textLength="14" x="1159.5" y="1452.2842">34</text><text fill="#000000" font-family="sans-serif" font-size="13" lengthAdjust="spacing" textLength="136" x="1177.5" y="1452.2842">DeleteAsync(activation)</text><polygon fill="#181818" points="2503.5,1483.4922,2513.5,1487.4922,2503.5,1491.4922,2507.5,1487.4922" style="stroke:#181818;stroke-width:1.0;"/><line style="stroke:#181818;stroke-width:1.0;" x1="1346.5" x2="2509.5" y1="1487.4922" y2="1487.4922"/><text fill="#000000" font-family="sans-serif" font-size="13" font-weight="bold" lengthAdjust="spacing" textLength="14" x="1353.5" y="1482.6357">35</text><text fill="#000000" font-family="sans-serif" font-size="13" lengthAdjust="spacing" textLength="334" x="1371.5" y="1482.6357">DELETE FROM UserActivations WHERE Token = {token}</text><polygon fill="#181818" points="1163.5,1513.8438,1153.5,1517.8438,1163.5,1521.8438,1159.5,1517.8438" style="stroke:#181818;stroke-width:1.0;"/><line style="stroke:#181818;stroke-width:1.0;stroke-dasharray:2.0,2.0;" x1="1157.5" x2="1340.5" y1="1517.8438" y2="1517.8438"/><text fill="#000000" font-family="sans-serif" font-size="13" font-weight="bold" lengthAdjust="spacing" textLength="14" x="1169.5" y="1512.9873">36</text><text fill="#000000" font-family="sans-serif" font-size="13" lengthAdjust="spacing" textLength="19" x="1187.5" y="1512.9873">OK</text><polygon fill="#181818" points="2503.5,1544.1953,2513.5,1548.1953,2503.5,1552.1953,2507.5,1548.1953" style="stroke:#181818;stroke-width:1.0;"/><line style="stroke:#181818;stroke-width:1.0;" x1="1152.5" x2="2509.5" y1="1548.1953" y2="1548.1953"/><text fill="#000000" font-family="sans-serif" font-size="13" font-weight="bold" lengthAdjust="spacing" textLength="14" x="1159.5" y="1543.3389">37</text><text fill="#000000" font-family="sans-serif" font-size="13" lengthAdjust="spacing" textLength="90" x="1177.5" y="1543.3389">CommitAsync()</text><polygon fill="#181818" points="845.5,1574.5469,835.5,1578.5469,845.5,1582.5469,841.5,1578.5469" style="stroke:#181818;stroke-width:1.0;"/><line style="stroke:#181818;stroke-width:1.0;stroke-dasharray:2.0,2.0;" x1="839.5" x2="1151.5" y1="1578.5469" y2="1578.5469"/><text fill="#000000" font-family="sans-serif" font-size="13" font-weight="bold" lengthAdjust="spacing" textLength="14" x="851.5" y="1573.6904">38</text><text fill="#000000" font-family="sans-serif" font-size="13" lengthAdjust="spacing" textLength="276" x="869.5" y="1573.6904">"http://localhost:4200/activate?status=success"</text><polygon fill="#181818" points="518.5,1604.8984,508.5,1608.8984,518.5,1612.8984,514.5,1608.8984" style="stroke:#181818;stroke-width:1.0;"/><line style="stroke:#181818;stroke-width:1.0;" x1="512.5" x2="833.5" y1="1608.8984" y2="1608.8984"/><text fill="#000000" font-family="sans-serif" font-size="13" font-weight="bold" lengthAdjust="spacing" textLength="14" x="524.5" y="1604.042">39</text><text fill="#000000" font-family="sans-serif" font-size="13" lengthAdjust="spacing" textLength="121" x="542.5" y="1604.042">Redirect(successUrl)</text><polygon fill="#181818" points="2141.5,1635.25,2151.5,1639.25,2141.5,1643.25,2145.5,1639.25" style="stroke:#181818;stroke-width:1.0;"/><line style="stroke:#181818;stroke-width:1.0;" x1="507.5" x2="2147.5" y1="1639.25" y2="1639.25"/><text fill="#000000" font-family="sans-serif" font-size="13" font-weight="bold" lengthAdjust="spacing" textLength="14" x="514.5" y="1634.3936">40</text><text fill="#000000" font-family="sans-serif" font-size="13" lengthAdjust="spacing" textLength="216" x="532.5" y="1634.3936">Navigate to /activate?status=success</text><line style="stroke:#181818;stroke-width:1.0;" x1="2163.5" x2="2205.5" y1="1669.6016" y2="1669.6016"/><line style="stroke:#181818;stroke-width:1.0;" x1="2205.5" x2="2205.5" y1="1669.6016" y2="1682.6016"/><line style="stroke:#181818;stroke-width:1.0;" x1="2164.5" x2="2205.5" y1="1682.6016" y2="1682.6016"/><polygon fill="#181818" points="2174.5,1678.6016,2164.5,1682.6016,2174.5,1686.6016,2170.5,1682.6016" style="stroke:#181818;stroke-width:1.0;"/><text fill="#000000" font-family="sans-serif" font-size="13" font-weight="bold" lengthAdjust="spacing" textLength="14" x="2170.5" y="1664.7451">41</text><text fill="#000000" font-family="sans-serif" font-size="13" lengthAdjust="spacing" textLength="203" x="2188.5" y="1664.7451">Read query param status=success</text><line style="stroke:#181818;stroke-width:1.0;" x1="2163.5" x2="2205.5" y1="1712.9531" y2="1712.9531"/><line style="stroke:#181818;stroke-width:1.0;" x1="2205.5" x2="2205.5" y1="1712.9531" y2="1725.9531"/><line style="stroke:#181818;stroke-width:1.0;" x1="2164.5" x2="2205.5" y1="1725.9531" y2="1725.9531"/><polygon fill="#181818" points="2174.5,1721.9531,2164.5,1725.9531,2174.5,1729.9531,2170.5,1725.9531" style="stroke:#181818;stroke-width:1.0;"/><text fill="#000000" font-family="sans-serif" font-size="13" font-weight="bold" lengthAdjust="spacing" textLength="14" x="2170.5" y="1708.0967">42</text><text fill="#000000" font-family="sans-serif" font-size="13" lengthAdjust="spacing" textLength="315" x="2188.5" y="1708.0967">Set message = translate('activation.successMessage')</text><polygon fill="#181818" points="83.5,1768.6563,73.5,1772.6563,83.5,1776.6563,79.5,1772.6563" style="stroke:#181818;stroke-width:1.0;"/><line style="stroke:#181818;stroke-width:1.0;" x1="77.5" x2="2152.5" y1="1772.6563" y2="1772.6563"/><text fill="#000000" font-family="sans-serif" font-size="13" font-weight="bold" lengthAdjust="spacing" textLength="14" x="89.5" y="1759.624">43</text><text fill="#000000" font-family="sans-serif" font-size="13" lengthAdjust="spacing" textLength="153" x="107.5" y="1751.4482">Display success message</text><text fill="#000000" font-family="sans-serif" font-size="13" lengthAdjust="spacing" textLength="275" x="107.5" y="1767.7998">"Your account has been activated successfully"</text><polygon fill="#181818" points="2141.5,1799.0078,2151.5,1803.0078,2141.5,1807.0078,2145.5,1803.0078" style="stroke:#181818;stroke-width:1.0;"/><line style="stroke:#181818;stroke-width:1.0;" x1="72.5" x2="2147.5" y1="1803.0078" y2="1803.0078"/><text fill="#000000" font-family="sans-serif" font-size="13" font-weight="bold" lengthAdjust="spacing" textLength="14" x="79.5" y="1798.1514">44</text><text fill="#000000" font-family="sans-serif" font-size="13" lengthAdjust="spacing" textLength="166" x="97.5" y="1798.1514">Click "Back to Home" button</text><polygon fill="#181818" points="518.5,1829.3594,508.5,1833.3594,518.5,1837.3594,514.5,1833.3594" style="stroke:#181818;stroke-width:1.0;"/><line style="stroke:#181818;stroke-width:1.0;" x1="512.5" x2="2157.5" y1="1833.3594" y2="1833.3594"/><text fill="#000000" font-family="sans-serif" font-size="13" font-weight="bold" lengthAdjust="spacing" textLength="14" x="524.5" y="1828.5029">45</text><text fill="#000000" font-family="sans-serif" font-size="13" lengthAdjust="spacing" textLength="72" x="542.5" y="1828.5029">Navigate to /</text><!--SRC=[lLTRRzis57xNhpZmGvCKo6NTkeTWpf34pXgiQOV8tZ2WBunq4XEHI4sad1b3__iEAKgYRhaqtWmafiLpldF_IAbxBZAMinHIAMIqocMAeFC20rNlP2owPtSOwas2a6EacRXBV06rOh5yuE8ERbcYC0WqroGQRfJ654Bygq0H8SmukpFY-x0CuVk3TmS_7iC5pvM6qoX2fM3D6IqrNpFDfO2FNDm70Ikq54LwWpcj8orpc3ZWfS9y0apPHK2kQ1xnZ0aDaxDSFbIxRjqMC2fNJ51OAGfzBeNEPP8uZUPdNod4VCqZhEswttt19f1hpAJYvFd6QhKt7bFiYFT5EyZLexvWlJqNL9jDMw2n41Qs45Rw8gSie8Y3c6bsmnJ2PEPMTdzs5WJJgGM5yuH7zwfREvXEWy3kxvzKLO3ZKXXO8viOMIu0KyQJBs9tfNMcZWyF4ncnP2MLFdv_TFJT8SluORjiXmu4VzRo7iNq7_lrTI-edjUr3ohpv4bJNNBcb_a2de_S07ij4dY01Eyr1U6xbA0jhDg8QDSYUIxwJHJuoeJLRXNZBkgppS8W38DrUgkZJuYpCq89vn_dvmju2nVNdw-WtNCA_lWmlvw3DG9Jg2BlGlKYRSC0pQaeaYI8SSovW2NQcH5ImwqiH6pKyE-CvnW7G9_HV931I_KxItXSvS283vWgdvCbh-6eRQrlu3uUR3ykIsbGMcaSBUsXsQAfm0LFyM2feq_o0KvWRYDGf_eRBBZe7Rueqp2OHBlJprAtmoTcd5hJzCExewEcmPLckb1Jp7EPJxhM_EOqM-rMRsRw6cDkJePT2xFCaxqkaZSmjT_UK5PiGrYVs9hV6HKjOTZDTgrheZ9FQvmsvZMo6EWOoZVWZgmkt8XYY1fIeaJY1He6dJEX4ZAwkzEqqu45kIg5TlPwQCioHJEkieHjm4fNc5_4PB72FXaguiErwMup42jYMzSMlGArWWziFvOZHH0MO9jZv7Tn1-LyXKJgZZGeKNRnvarlE7wQTgRZqScm5v6N3i19VGvMX7aPbspfrSo8NCQTSElpiy9yWZKhhhoC3L4M5l9hHtcG9sjs71Ytse6QkQn6pJmrfsnvwf-O_6-O_iSPe0xnrKmmpWQlOeJjiy9_pmoFiKETSCiIrdPvvkvJQT8iGUsR6swp4-yIwTrkTlVwXV1kcpwKq-qYcOo6jWAKq79nOD5nKBitLPz_7MlYZW-FnUKuOvdHbHTBoZ13FH9SFQY3RB7yRNQwc3kQ2EcMMKUtKyQrCqeUJn38UAWjZyO2xTqfPsXAtsN8WQ0xzxV-tQQLW1dH9INW1LVCCS1dPc34lR4yM2UfyLEkozZtjigiohrAFPTRdq-o3lb_ebbdRVj4smL-1TKwg1UHhTFnwFPFMUGKNaISg2sptY2rPnLlN6dSqhczcRHwfUDo-O8xEMFqdrBwGQRqndnJQEsngkzPK-DM9PuaTFDj_lnthEg5zry0]--></g></svg>