<?xml version="1.0" encoding="us-ascii" standalone="no"?><svg xmlns="http://www.w3.org/2000/svg" xmlns:xlink="http://www.w3.org/1999/xlink" contentStyleType="text/css" height="1594px" preserveAspectRatio="none" style="width:1617px;height:1594px;background:#FFFFFF;" version="1.1" viewBox="0 0 1617 1594" width="1617px" zoomAndPan="magnify"><defs/><g><text fill="#000000" font-family="sans-serif" font-size="14" font-weight="bold" lengthAdjust="spacing" textLength="686" x="461.75" y="29.5332">System Sequence Diagram - US 3.2.5: Assign/Update Internal Roles with Activation (Frontend Only)</text><rect fill="#FFFFFF" height="185.7578" style="stroke:#181818;stroke-width:1.0;" width="10" x="528.5" y="197.9219"/><rect fill="#FFFFFF" height="99.0547" style="stroke:#181818;stroke-width:1.0;" width="10" x="944.5" y="498.5703"/><rect fill="#FFFFFF" height="99.0547" style="stroke:#181818;stroke-width:1.0;" width="10" x="944.5" y="974.4609"/><rect fill="none" height="1196.0781" style="stroke:#000000;stroke-width:1.5;" width="1590.5" x="10" y="299.625"/><rect fill="none" height="1030.8359" style="stroke:#000000;stroke-width:1.5;" width="1570.5" x="20" y="457.8672"/><rect fill="none" height="372.3516" style="stroke:#000000;stroke-width:1.5;" width="979.5" x="30" y="556.9219"/><rect fill="none" height="448.8906" style="stroke:#000000;stroke-width:1.5;" width="979.5" x="30" y="1032.8125"/><line style="stroke:#181818;stroke-width:0.5;stroke-dasharray:5.0,5.0;" x1="62" x2="62" y1="121.2188" y2="1512.7031"/><line style="stroke:#181818;stroke-width:0.5;stroke-dasharray:5.0,5.0;" x1="533" x2="533" y1="121.2188" y2="1512.7031"/><line style="stroke:#181818;stroke-width:0.5;stroke-dasharray:5.0,5.0;" x1="949.5" x2="949.5" y1="121.2188" y2="1512.7031"/><text fill="#000000" font-family="sans-serif" font-size="14" lengthAdjust="spacing" textLength="39" x="40" y="118.1426">Admin</text><ellipse cx="62.5" cy="52.1094" fill="#E3E3E3" rx="8" ry="8" style="stroke:#181818;stroke-width:0.5;"/><path d="M62.5,60.1094 L62.5,87.1094 M49.5,68.1094 L75.5,68.1094 M62.5,87.1094 L49.5,102.1094 M62.5,87.1094 L75.5,102.1094 " fill="none" style="stroke:#181818;stroke-width:0.5;"/><text fill="#000000" font-family="sans-serif" font-size="14" lengthAdjust="spacing" textLength="39" x="40" y="1526.2363">Admin</text><ellipse cx="62.5" cy="1537.8125" fill="#E3E3E3" rx="8" ry="8" style="stroke:#181818;stroke-width:0.5;"/><path d="M62.5,1545.8125 L62.5,1572.8125 M49.5,1553.8125 L75.5,1553.8125 M62.5,1572.8125 L49.5,1587.8125 M62.5,1572.8125 L75.5,1587.8125 " fill="none" style="stroke:#181818;stroke-width:0.5;"/><rect fill="#E3E3E3" height="31.6094" rx="2.5" ry="2.5" style="stroke:#181818;stroke-width:0.5;" width="101" x="483" y="88.6094"/><text fill="#000000" font-family="sans-serif" font-size="14" lengthAdjust="spacing" textLength="87" x="490" y="110.1426">ManageUsers</text><rect fill="#E3E3E3" height="31.6094" rx="2.5" ry="2.5" style="stroke:#181818;stroke-width:0.5;" width="101" x="483" y="1511.7031"/><text fill="#000000" font-family="sans-serif" font-size="14" lengthAdjust="spacing" textLength="87" x="490" y="1533.2363">ManageUsers</text><rect fill="#E3E3E3" height="31.6094" rx="2.5" ry="2.5" style="stroke:#181818;stroke-width:0.5;" width="100" x="899.5" y="88.6094"/><text fill="#000000" font-family="sans-serif" font-size="14" lengthAdjust="spacing" textLength="86" x="906.5" y="110.1426">AdminService</text><rect fill="#E3E3E3" height="31.6094" rx="2.5" ry="2.5" style="stroke:#181818;stroke-width:0.5;" width="100" x="899.5" y="1511.7031"/><text fill="#000000" font-family="sans-serif" font-size="14" lengthAdjust="spacing" textLength="86" x="906.5" y="1533.2363">AdminService</text><rect fill="#FFFFFF" height="185.7578" style="stroke:#181818;stroke-width:1.0;" width="10" x="528.5" y="197.9219"/><rect fill="#FFFFFF" height="99.0547" style="stroke:#181818;stroke-width:1.0;" width="10" x="944.5" y="498.5703"/><rect fill="#FFFFFF" height="99.0547" style="stroke:#181818;stroke-width:1.0;" width="10" x="944.5" y="974.4609"/><rect fill="#EEEEEE" height="3" style="stroke:#EEEEEE;stroke-width:1.0;" width="1610.5" x="0" y="152.3945"/><line style="stroke:#000000;stroke-width:1.0;" x1="0" x2="1610.5" y1="152.3945" y2="152.3945"/><line style="stroke:#000000;stroke-width:1.0;" x1="0" x2="1610.5" y1="155.3945" y2="155.3945"/><rect fill="#EEEEEE" height="24.3516" style="stroke:#000000;stroke-width:2.0;" width="173" x="718.75" y="141.2188"/><text fill="#000000" font-family="sans-serif" font-size="13" font-weight="bold" lengthAdjust="spacing" textLength="155" x="724.75" y="158.7139">Assign/Update User Role</text><polygon fill="#181818" points="516.5,193.9219,526.5,197.9219,516.5,201.9219,520.5,197.9219" style="stroke:#181818;stroke-width:1.0;"/><line style="stroke:#181818;stroke-width:1.0;" x1="62.5" x2="522.5" y1="197.9219" y2="197.9219"/><text fill="#000000" font-family="sans-serif" font-size="13" font-weight="bold" lengthAdjust="spacing" textLength="7" x="69.5" y="193.0654">1</text><text fill="#000000" font-family="sans-serif" font-size="13" lengthAdjust="spacing" textLength="61" x="80.5" y="193.0654">saveUser()</text><line style="stroke:#181818;stroke-width:1.0;" x1="538.5" x2="580.5" y1="228.2734" y2="228.2734"/><line style="stroke:#181818;stroke-width:1.0;" x1="580.5" x2="580.5" y1="228.2734" y2="241.2734"/><line style="stroke:#181818;stroke-width:1.0;" x1="539.5" x2="580.5" y1="241.2734" y2="241.2734"/><polygon fill="#181818" points="549.5,237.2734,539.5,241.2734,549.5,245.2734,545.5,241.2734" style="stroke:#181818;stroke-width:1.0;"/><text fill="#000000" font-family="sans-serif" font-size="13" font-weight="bold" lengthAdjust="spacing" textLength="7" x="545.5" y="223.417">2</text><text fill="#000000" font-family="sans-serif" font-size="13" lengthAdjust="spacing" textLength="84" x="556.5" y="223.417">validateEmail()</text><line style="stroke:#181818;stroke-width:1.0;" x1="538.5" x2="580.5" y1="271.625" y2="271.625"/><line style="stroke:#181818;stroke-width:1.0;" x1="580.5" x2="580.5" y1="271.625" y2="284.625"/><line style="stroke:#181818;stroke-width:1.0;" x1="539.5" x2="580.5" y1="284.625" y2="284.625"/><polygon fill="#181818" points="549.5,280.625,539.5,284.625,549.5,288.625,545.5,284.625" style="stroke:#181818;stroke-width:1.0;"/><text fill="#000000" font-family="sans-serif" font-size="13" font-weight="bold" lengthAdjust="spacing" textLength="7" x="545.5" y="266.7686">3</text><text fill="#000000" font-family="sans-serif" font-size="13" lengthAdjust="spacing" textLength="85" x="556.5" y="266.7686">validateName()</text><path d="M10,299.625 L71,299.625 L71,307.9766 L61,317.9766 L10,317.9766 L10,299.625 " fill="#EEEEEE" style="stroke:#000000;stroke-width:1.5;"/><rect fill="none" height="1196.0781" style="stroke:#000000;stroke-width:1.5;" width="1590.5" x="10" y="299.625"/><text fill="#000000" font-family="sans-serif" font-size="13" font-weight="bold" lengthAdjust="spacing" textLength="16" x="25" y="314.1201">alt</text><text fill="#000000" font-family="sans-serif" font-size="11" font-weight="bold" lengthAdjust="spacing" textLength="118" x="86" y="313.0439">[Local validation fails]</text><line style="stroke:#181818;stroke-width:1.0;" x1="538.5" x2="580.5" y1="340.3281" y2="340.3281"/><line style="stroke:#181818;stroke-width:1.0;" x1="580.5" x2="580.5" y1="340.3281" y2="353.3281"/><line style="stroke:#181818;stroke-width:1.0;" x1="539.5" x2="580.5" y1="353.3281" y2="353.3281"/><polygon fill="#181818" points="549.5,349.3281,539.5,353.3281,549.5,357.3281,545.5,353.3281" style="stroke:#181818;stroke-width:1.0;"/><text fill="#000000" font-family="sans-serif" font-size="13" font-weight="bold" lengthAdjust="spacing" textLength="7" x="545.5" y="335.4717">4</text><text fill="#000000" font-family="sans-serif" font-size="13" lengthAdjust="spacing" textLength="96" x="556.5" y="335.4717">Set errors object</text><polygon fill="#181818" points="73.5,379.6797,63.5,383.6797,73.5,387.6797,69.5,383.6797" style="stroke:#181818;stroke-width:1.0;"/><line style="stroke:#181818;stroke-width:1.0;" x1="67.5" x2="532.5" y1="383.6797" y2="383.6797"/><text fill="#000000" font-family="sans-serif" font-size="13" font-weight="bold" lengthAdjust="spacing" textLength="7" x="79.5" y="378.8232">5</text><text fill="#000000" font-family="sans-serif" font-size="13" lengthAdjust="spacing" textLength="137" x="90.5" y="378.8232">Display validation errors</text><line style="stroke:#000000;stroke-width:1.0;stroke-dasharray:2.0,2.0;" x1="10" x2="1600.5" y1="392.6797" y2="392.6797"/><text fill="#000000" font-family="sans-serif" font-size="11" font-weight="bold" lengthAdjust="spacing" textLength="142" x="15" y="404.0986">[Local validation success]</text><line style="stroke:#181818;stroke-width:1.0;" x1="533.5" x2="575.5" y1="429.8672" y2="429.8672"/><line style="stroke:#181818;stroke-width:1.0;" x1="575.5" x2="575.5" y1="429.8672" y2="442.8672"/><line style="stroke:#181818;stroke-width:1.0;" x1="534.5" x2="575.5" y1="442.8672" y2="442.8672"/><polygon fill="#181818" points="544.5,438.8672,534.5,442.8672,544.5,446.8672,540.5,442.8672" style="stroke:#181818;stroke-width:1.0;"/><text fill="#000000" font-family="sans-serif" font-size="13" font-weight="bold" lengthAdjust="spacing" textLength="7" x="540.5" y="425.0107">6</text><text fill="#000000" font-family="sans-serif" font-size="13" lengthAdjust="spacing" textLength="110" x="551.5" y="425.0107">Set isSaving = true</text><path d="M20,457.8672 L81,457.8672 L81,466.2188 L71,476.2188 L20,476.2188 L20,457.8672 " fill="#EEEEEE" style="stroke:#000000;stroke-width:1.5;"/><rect fill="none" height="1030.8359" style="stroke:#000000;stroke-width:1.5;" width="1570.5" x="20" y="457.8672"/><text fill="#000000" font-family="sans-serif" font-size="13" font-weight="bold" lengthAdjust="spacing" textLength="16" x="35" y="472.3623">alt</text><text fill="#000000" font-family="sans-serif" font-size="11" font-weight="bold" lengthAdjust="spacing" textLength="101" x="96" y="471.2861">[Create new user]</text><polygon fill="#181818" points="932.5,494.5703,942.5,498.5703,932.5,502.5703,936.5,498.5703" style="stroke:#181818;stroke-width:1.0;"/><line style="stroke:#181818;stroke-width:1.0;" x1="533.5" x2="938.5" y1="498.5703" y2="498.5703"/><text fill="#000000" font-family="sans-serif" font-size="13" font-weight="bold" lengthAdjust="spacing" textLength="7" x="540.5" y="493.7139">7</text><text fill="#000000" font-family="sans-serif" font-size="13" lengthAdjust="spacing" textLength="127" x="551.5" y="493.7139">createUser(createDto)</text><line style="stroke:#181818;stroke-width:1.0;" x1="954.5" x2="996.5" y1="528.9219" y2="528.9219"/><line style="stroke:#181818;stroke-width:1.0;" x1="996.5" x2="996.5" y1="528.9219" y2="541.9219"/><line style="stroke:#181818;stroke-width:1.0;" x1="955.5" x2="996.5" y1="541.9219" y2="541.9219"/><polygon fill="#181818" points="965.5,537.9219,955.5,541.9219,965.5,545.9219,961.5,541.9219" style="stroke:#181818;stroke-width:1.0;"/><text fill="#000000" font-family="sans-serif" font-size="13" font-weight="bold" lengthAdjust="spacing" textLength="7" x="961.5" y="524.0654">8</text><text fill="#000000" font-family="sans-serif" font-size="13" lengthAdjust="spacing" textLength="242" x="972.5" y="524.0654">HTTP POST /api/UserManagement/create</text><path d="M1226,515.0703 L1226,541.0703 L1570,541.0703 L1570,525.0703 L1560,515.0703 L1226,515.0703 " fill="#FAFAFA" style="stroke:#181818;stroke-width:0.5;"/><path d="M1560,515.0703 L1560,525.0703 L1570,525.0703 L1560,515.0703 " fill="#FAFAFA" style="stroke:#181818;stroke-width:0.5;"/><text fill="#000000" font-family="sans-serif" font-size="13" lengthAdjust="spacing" textLength="323" x="1232" y="533.5654">Authorization: Bearer token\nBody: { email, name, role }</text><path d="M30,556.9219 L91,556.9219 L91,565.2734 L81,575.2734 L30,575.2734 L30,556.9219 " fill="#EEEEEE" style="stroke:#000000;stroke-width:1.5;"/><rect fill="none" height="372.3516" style="stroke:#000000;stroke-width:1.5;" width="979.5" x="30" y="556.9219"/><text fill="#000000" font-family="sans-serif" font-size="13" font-weight="bold" lengthAdjust="spacing" textLength="16" x="45" y="571.417">alt</text><text fill="#000000" font-family="sans-serif" font-size="11" font-weight="bold" lengthAdjust="spacing" textLength="203" x="106" y="570.3408">[Backend error - User already exists]</text><polygon fill="#181818" points="544.5,593.625,534.5,597.625,544.5,601.625,540.5,597.625" style="stroke:#181818;stroke-width:1.0;"/><line style="stroke:#181818;stroke-width:1.0;stroke-dasharray:2.0,2.0;" x1="538.5" x2="948.5" y1="597.625" y2="597.625"/><text fill="#000000" font-family="sans-serif" font-size="13" font-weight="bold" lengthAdjust="spacing" textLength="7" x="550.5" y="592.7686">9</text><text fill="#000000" font-family="sans-serif" font-size="13" lengthAdjust="spacing" textLength="100" x="561.5" y="592.7686">400 Bad Request</text><line style="stroke:#181818;stroke-width:1.0;" x1="533.5" x2="575.5" y1="627.9766" y2="627.9766"/><line style="stroke:#181818;stroke-width:1.0;" x1="575.5" x2="575.5" y1="627.9766" y2="640.9766"/><line style="stroke:#181818;stroke-width:1.0;" x1="534.5" x2="575.5" y1="640.9766" y2="640.9766"/><polygon fill="#181818" points="544.5,636.9766,534.5,640.9766,544.5,644.9766,540.5,640.9766" style="stroke:#181818;stroke-width:1.0;"/><text fill="#000000" font-family="sans-serif" font-size="13" font-weight="bold" lengthAdjust="spacing" textLength="14" x="540.5" y="623.1201">10</text><text fill="#000000" font-family="sans-serif" font-size="13" lengthAdjust="spacing" textLength="115" x="558.5" y="623.1201">Set isSaving = false</text><line style="stroke:#181818;stroke-width:1.0;" x1="533.5" x2="575.5" y1="671.3281" y2="671.3281"/><line style="stroke:#181818;stroke-width:1.0;" x1="575.5" x2="575.5" y1="671.3281" y2="684.3281"/><line style="stroke:#181818;stroke-width:1.0;" x1="534.5" x2="575.5" y1="684.3281" y2="684.3281"/><polygon fill="#181818" points="544.5,680.3281,534.5,684.3281,544.5,688.3281,540.5,684.3281" style="stroke:#181818;stroke-width:1.0;"/><text fill="#000000" font-family="sans-serif" font-size="13" font-weight="bold" lengthAdjust="spacing" textLength="14" x="540.5" y="666.4717">11</text><text fill="#000000" font-family="sans-serif" font-size="13" lengthAdjust="spacing" textLength="195" x="558.5" y="666.4717">Set errors.email (if race condition)</text><polygon fill="#181818" points="73.5,710.6797,63.5,714.6797,73.5,718.6797,69.5,714.6797" style="stroke:#181818;stroke-width:1.0;"/><line style="stroke:#181818;stroke-width:1.0;" x1="67.5" x2="532.5" y1="714.6797" y2="714.6797"/><text fill="#000000" font-family="sans-serif" font-size="13" font-weight="bold" lengthAdjust="spacing" textLength="14" x="79.5" y="709.8232">12</text><text fill="#000000" font-family="sans-serif" font-size="13" lengthAdjust="spacing" textLength="130" x="97.5" y="709.8232">Display error message</text><line style="stroke:#000000;stroke-width:1.0;stroke-dasharray:2.0,2.0;" x1="30" x2="1009.5" y1="723.6797" y2="723.6797"/><text fill="#000000" font-family="sans-serif" font-size="11" font-weight="bold" lengthAdjust="spacing" textLength="105" x="35" y="735.0986">[Backend success]</text><polygon fill="#181818" points="544.5,756.8672,534.5,760.8672,544.5,764.8672,540.5,760.8672" style="stroke:#181818;stroke-width:1.0;"/><line style="stroke:#181818;stroke-width:1.0;stroke-dasharray:2.0,2.0;" x1="538.5" x2="948.5" y1="760.8672" y2="760.8672"/><text fill="#000000" font-family="sans-serif" font-size="13" font-weight="bold" lengthAdjust="spacing" textLength="14" x="550.5" y="756.0107">13</text><text fill="#000000" font-family="sans-serif" font-size="13" lengthAdjust="spacing" textLength="264" x="568.5" y="756.0107">200 OK "User created. Activation email sent."</text><line style="stroke:#181818;stroke-width:1.0;" x1="533.5" x2="575.5" y1="791.2188" y2="791.2188"/><line style="stroke:#181818;stroke-width:1.0;" x1="575.5" x2="575.5" y1="791.2188" y2="804.2188"/><line style="stroke:#181818;stroke-width:1.0;" x1="534.5" x2="575.5" y1="804.2188" y2="804.2188"/><polygon fill="#181818" points="544.5,800.2188,534.5,804.2188,544.5,808.2188,540.5,804.2188" style="stroke:#181818;stroke-width:1.0;"/><text fill="#000000" font-family="sans-serif" font-size="13" font-weight="bold" lengthAdjust="spacing" textLength="14" x="540.5" y="786.3623">14</text><text fill="#000000" font-family="sans-serif" font-size="13" lengthAdjust="spacing" textLength="115" x="558.5" y="786.3623">Set isSaving = false</text><line style="stroke:#181818;stroke-width:1.0;" x1="533.5" x2="575.5" y1="834.5703" y2="834.5703"/><line style="stroke:#181818;stroke-width:1.0;" x1="575.5" x2="575.5" y1="834.5703" y2="847.5703"/><line style="stroke:#181818;stroke-width:1.0;" x1="534.5" x2="575.5" y1="847.5703" y2="847.5703"/><polygon fill="#181818" points="544.5,843.5703,534.5,847.5703,544.5,851.5703,540.5,847.5703" style="stroke:#181818;stroke-width:1.0;"/><text fill="#000000" font-family="sans-serif" font-size="13" font-weight="bold" lengthAdjust="spacing" textLength="14" x="540.5" y="829.7139">15</text><text fill="#000000" font-family="sans-serif" font-size="13" lengthAdjust="spacing" textLength="67" x="558.5" y="829.7139">resetForm()</text><line style="stroke:#181818;stroke-width:1.0;" x1="533.5" x2="575.5" y1="877.9219" y2="877.9219"/><line style="stroke:#181818;stroke-width:1.0;" x1="575.5" x2="575.5" y1="877.9219" y2="890.9219"/><line style="stroke:#181818;stroke-width:1.0;" x1="534.5" x2="575.5" y1="890.9219" y2="890.9219"/><polygon fill="#181818" points="544.5,886.9219,534.5,890.9219,544.5,894.9219,540.5,890.9219" style="stroke:#181818;stroke-width:1.0;"/><text fill="#000000" font-family="sans-serif" font-size="13" font-weight="bold" lengthAdjust="spacing" textLength="14" x="540.5" y="873.0654">16</text><text fill="#000000" font-family="sans-serif" font-size="13" lengthAdjust="spacing" textLength="66" x="558.5" y="873.0654">loadUsers()</text><polygon fill="#181818" points="73.5,917.2734,63.5,921.2734,73.5,925.2734,69.5,921.2734" style="stroke:#181818;stroke-width:1.0;"/><line style="stroke:#181818;stroke-width:1.0;" x1="67.5" x2="532.5" y1="921.2734" y2="921.2734"/><text fill="#000000" font-family="sans-serif" font-size="13" font-weight="bold" lengthAdjust="spacing" textLength="14" x="79.5" y="916.417">17</text><text fill="#000000" font-family="sans-serif" font-size="13" lengthAdjust="spacing" textLength="405" x="97.5" y="916.417">Display success message "Usu&#225;rio criado; email de ativa&#231;&#227;o enviado"</text><line style="stroke:#000000;stroke-width:1.0;stroke-dasharray:2.0,2.0;" x1="20" x2="1590.5" y1="937.2734" y2="937.2734"/><text fill="#000000" font-family="sans-serif" font-size="11" font-weight="bold" lengthAdjust="spacing" textLength="147" x="25" y="948.6924">[Update existing user role]</text><polygon fill="#181818" points="932.5,970.4609,942.5,974.4609,932.5,978.4609,936.5,974.4609" style="stroke:#181818;stroke-width:1.0;"/><line style="stroke:#181818;stroke-width:1.0;" x1="533.5" x2="938.5" y1="974.4609" y2="974.4609"/><text fill="#000000" font-family="sans-serif" font-size="13" font-weight="bold" lengthAdjust="spacing" textLength="14" x="540.5" y="969.6045">18</text><text fill="#000000" font-family="sans-serif" font-size="13" lengthAdjust="spacing" textLength="160" x="558.5" y="969.6045">updateUserRole(email, role)</text><line style="stroke:#181818;stroke-width:1.0;" x1="954.5" x2="996.5" y1="1004.8125" y2="1004.8125"/><line style="stroke:#181818;stroke-width:1.0;" x1="996.5" x2="996.5" y1="1004.8125" y2="1017.8125"/><line style="stroke:#181818;stroke-width:1.0;" x1="955.5" x2="996.5" y1="1017.8125" y2="1017.8125"/><polygon fill="#181818" points="965.5,1013.8125,955.5,1017.8125,965.5,1021.8125,961.5,1017.8125" style="stroke:#181818;stroke-width:1.0;"/><text fill="#000000" font-family="sans-serif" font-size="13" font-weight="bold" lengthAdjust="spacing" textLength="14" x="961.5" y="999.9561">19</text><text fill="#000000" font-family="sans-serif" font-size="13" lengthAdjust="spacing" textLength="260" x="979.5" y="999.9561">HTTP PUT /api/UserManagement/{email}/role</text><path d="M1251,990.9609 L1251,1016.9609 L1516,1016.9609 L1516,1000.9609 L1506,990.9609 L1251,990.9609 " fill="#FAFAFA" style="stroke:#181818;stroke-width:0.5;"/><path d="M1506,990.9609 L1506,1000.9609 L1516,1000.9609 L1506,990.9609 " fill="#FAFAFA" style="stroke:#181818;stroke-width:0.5;"/><text fill="#000000" font-family="sans-serif" font-size="13" lengthAdjust="spacing" textLength="244" x="1257" y="1009.4561">Authorization: Bearer token\nBody: { role }</text><path d="M30,1032.8125 L91,1032.8125 L91,1041.1641 L81,1051.1641 L30,1051.1641 L30,1032.8125 " fill="#EEEEEE" style="stroke:#000000;stroke-width:1.5;"/><rect fill="none" height="448.8906" style="stroke:#000000;stroke-width:1.5;" width="979.5" x="30" y="1032.8125"/><text fill="#000000" font-family="sans-serif" font-size="13" font-weight="bold" lengthAdjust="spacing" textLength="16" x="45" y="1047.3076">alt</text><text fill="#000000" font-family="sans-serif" font-size="11" font-weight="bold" lengthAdjust="spacing" textLength="179" x="106" y="1046.2314">[Backend error - User not found]</text><polygon fill="#181818" points="544.5,1069.5156,534.5,1073.5156,544.5,1077.5156,540.5,1073.5156" style="stroke:#181818;stroke-width:1.0;"/><line style="stroke:#181818;stroke-width:1.0;stroke-dasharray:2.0,2.0;" x1="538.5" x2="948.5" y1="1073.5156" y2="1073.5156"/><text fill="#000000" font-family="sans-serif" font-size="13" font-weight="bold" lengthAdjust="spacing" textLength="14" x="550.5" y="1068.6592">20</text><text fill="#000000" font-family="sans-serif" font-size="13" lengthAdjust="spacing" textLength="85" x="568.5" y="1068.6592">404 Not Found</text><line style="stroke:#181818;stroke-width:1.0;" x1="533.5" x2="575.5" y1="1103.8672" y2="1103.8672"/><line style="stroke:#181818;stroke-width:1.0;" x1="575.5" x2="575.5" y1="1103.8672" y2="1116.8672"/><line style="stroke:#181818;stroke-width:1.0;" x1="534.5" x2="575.5" y1="1116.8672" y2="1116.8672"/><polygon fill="#181818" points="544.5,1112.8672,534.5,1116.8672,544.5,1120.8672,540.5,1116.8672" style="stroke:#181818;stroke-width:1.0;"/><text fill="#000000" font-family="sans-serif" font-size="13" font-weight="bold" lengthAdjust="spacing" textLength="14" x="540.5" y="1099.0107">21</text><text fill="#000000" font-family="sans-serif" font-size="13" lengthAdjust="spacing" textLength="115" x="558.5" y="1099.0107">Set isSaving = false</text><polygon fill="#181818" points="73.5,1143.2188,63.5,1147.2188,73.5,1151.2188,69.5,1147.2188" style="stroke:#181818;stroke-width:1.0;"/><line style="stroke:#181818;stroke-width:1.0;" x1="67.5" x2="532.5" y1="1147.2188" y2="1147.2188"/><text fill="#000000" font-family="sans-serif" font-size="13" font-weight="bold" lengthAdjust="spacing" textLength="14" x="79.5" y="1142.3623">22</text><text fill="#000000" font-family="sans-serif" font-size="13" lengthAdjust="spacing" textLength="130" x="97.5" y="1142.3623">Display error message</text><line style="stroke:#000000;stroke-width:1.0;stroke-dasharray:2.0,2.0;" x1="30" x2="1009.5" y1="1156.2188" y2="1156.2188"/><text fill="#000000" font-family="sans-serif" font-size="11" font-weight="bold" lengthAdjust="spacing" textLength="206" x="35" y="1167.6377">[Backend error - Representative role]</text><polygon fill="#181818" points="544.5,1189.4063,534.5,1193.4063,544.5,1197.4063,540.5,1193.4063" style="stroke:#181818;stroke-width:1.0;"/><line style="stroke:#181818;stroke-width:1.0;stroke-dasharray:2.0,2.0;" x1="538.5" x2="948.5" y1="1193.4063" y2="1193.4063"/><text fill="#000000" font-family="sans-serif" font-size="13" font-weight="bold" lengthAdjust="spacing" textLength="14" x="550.5" y="1188.5498">23</text><text fill="#000000" font-family="sans-serif" font-size="13" lengthAdjust="spacing" textLength="374" x="568.5" y="1188.5498">400 Bad Request\n"Cannot manually assign Representative role"</text><line style="stroke:#181818;stroke-width:1.0;" x1="533.5" x2="575.5" y1="1223.7578" y2="1223.7578"/><line style="stroke:#181818;stroke-width:1.0;" x1="575.5" x2="575.5" y1="1223.7578" y2="1236.7578"/><line style="stroke:#181818;stroke-width:1.0;" x1="534.5" x2="575.5" y1="1236.7578" y2="1236.7578"/><polygon fill="#181818" points="544.5,1232.7578,534.5,1236.7578,544.5,1240.7578,540.5,1236.7578" style="stroke:#181818;stroke-width:1.0;"/><text fill="#000000" font-family="sans-serif" font-size="13" font-weight="bold" lengthAdjust="spacing" textLength="14" x="540.5" y="1218.9014">24</text><text fill="#000000" font-family="sans-serif" font-size="13" lengthAdjust="spacing" textLength="115" x="558.5" y="1218.9014">Set isSaving = false</text><polygon fill="#181818" points="73.5,1263.1094,63.5,1267.1094,73.5,1271.1094,69.5,1267.1094" style="stroke:#181818;stroke-width:1.0;"/><line style="stroke:#181818;stroke-width:1.0;" x1="67.5" x2="532.5" y1="1267.1094" y2="1267.1094"/><text fill="#000000" font-family="sans-serif" font-size="13" font-weight="bold" lengthAdjust="spacing" textLength="14" x="79.5" y="1262.2529">25</text><text fill="#000000" font-family="sans-serif" font-size="13" lengthAdjust="spacing" textLength="130" x="97.5" y="1262.2529">Display error message</text><line style="stroke:#000000;stroke-width:1.0;stroke-dasharray:2.0,2.0;" x1="30" x2="1009.5" y1="1276.1094" y2="1276.1094"/><text fill="#000000" font-family="sans-serif" font-size="11" font-weight="bold" lengthAdjust="spacing" textLength="105" x="35" y="1287.5283">[Backend success]</text><polygon fill="#181818" points="544.5,1309.2969,534.5,1313.2969,544.5,1317.2969,540.5,1313.2969" style="stroke:#181818;stroke-width:1.0;"/><line style="stroke:#181818;stroke-width:1.0;stroke-dasharray:2.0,2.0;" x1="538.5" x2="948.5" y1="1313.2969" y2="1313.2969"/><text fill="#000000" font-family="sans-serif" font-size="13" font-weight="bold" lengthAdjust="spacing" textLength="14" x="550.5" y="1308.4404">26</text><text fill="#000000" font-family="sans-serif" font-size="13" lengthAdjust="spacing" textLength="285" x="568.5" y="1308.4404">200 OK "Role updated and activation email sent."</text><line style="stroke:#181818;stroke-width:1.0;" x1="533.5" x2="575.5" y1="1343.6484" y2="1343.6484"/><line style="stroke:#181818;stroke-width:1.0;" x1="575.5" x2="575.5" y1="1343.6484" y2="1356.6484"/><line style="stroke:#181818;stroke-width:1.0;" x1="534.5" x2="575.5" y1="1356.6484" y2="1356.6484"/><polygon fill="#181818" points="544.5,1352.6484,534.5,1356.6484,544.5,1360.6484,540.5,1356.6484" style="stroke:#181818;stroke-width:1.0;"/><text fill="#000000" font-family="sans-serif" font-size="13" font-weight="bold" lengthAdjust="spacing" textLength="14" x="540.5" y="1338.792">27</text><text fill="#000000" font-family="sans-serif" font-size="13" lengthAdjust="spacing" textLength="115" x="558.5" y="1338.792">Set isSaving = false</text><line style="stroke:#181818;stroke-width:1.0;" x1="533.5" x2="575.5" y1="1387" y2="1387"/><line style="stroke:#181818;stroke-width:1.0;" x1="575.5" x2="575.5" y1="1387" y2="1400"/><line style="stroke:#181818;stroke-width:1.0;" x1="534.5" x2="575.5" y1="1400" y2="1400"/><polygon fill="#181818" points="544.5,1396,534.5,1400,544.5,1404,540.5,1400" style="stroke:#181818;stroke-width:1.0;"/><text fill="#000000" font-family="sans-serif" font-size="13" font-weight="bold" lengthAdjust="spacing" textLength="14" x="540.5" y="1382.1436">28</text><text fill="#000000" font-family="sans-serif" font-size="13" lengthAdjust="spacing" textLength="67" x="558.5" y="1382.1436">resetForm()</text><line style="stroke:#181818;stroke-width:1.0;" x1="533.5" x2="575.5" y1="1430.3516" y2="1430.3516"/><line style="stroke:#181818;stroke-width:1.0;" x1="575.5" x2="575.5" y1="1430.3516" y2="1443.3516"/><line style="stroke:#181818;stroke-width:1.0;" x1="534.5" x2="575.5" y1="1443.3516" y2="1443.3516"/><polygon fill="#181818" points="544.5,1439.3516,534.5,1443.3516,544.5,1447.3516,540.5,1443.3516" style="stroke:#181818;stroke-width:1.0;"/><text fill="#000000" font-family="sans-serif" font-size="13" font-weight="bold" lengthAdjust="spacing" textLength="14" x="540.5" y="1425.4951">29</text><text fill="#000000" font-family="sans-serif" font-size="13" lengthAdjust="spacing" textLength="66" x="558.5" y="1425.4951">loadUsers()</text><polygon fill="#181818" points="73.5,1469.7031,63.5,1473.7031,73.5,1477.7031,69.5,1473.7031" style="stroke:#181818;stroke-width:1.0;"/><line style="stroke:#181818;stroke-width:1.0;" x1="67.5" x2="532.5" y1="1473.7031" y2="1473.7031"/><text fill="#000000" font-family="sans-serif" font-size="13" font-weight="bold" lengthAdjust="spacing" textLength="14" x="79.5" y="1468.8467">30</text><text fill="#000000" font-family="sans-serif" font-size="13" lengthAdjust="spacing" textLength="429" x="97.5" y="1468.8467">Display success message "Usu&#225;rio atualizado; email de ativa&#231;&#227;o enviado"</text><!--SRC=[xLPDRzD04BtxLunoIgIILALSWeBK3oeGq5PrS-jbQa-IfVPks5sdXAe_1d7WX_IFCRDEt7mq90NA0H6faTMTUJlpvisBtPNIGxIOGswqIGRMv0JU5XIvwcI8oHNsAVRZZC1Iub7tiza0Dy3KN2lTXnvcZgB8Ay-XyTXvoY6cJmNfXE1GOL_2dq4tXkVDdUQBDkmvf_gwrHscw0dUQazMOmPd9YC7ryeFO2_nQeHU6Gtr8siuGgTmehDn8ugmy4ON-ILPVawyiR2Nvae3Ea1vYBW-hn8rHEsXzW4rjz5rP5rDGdeJjFceW12J7Qc4GfWhdwEeqraeLw12gT3fS07XwcUlAbneWyDHkB3UaFga3xg_Dge2vvD6c2d1VvsZoZXpJTWnvbGNCZ8Fxqt2x4rEXB8UGxW8-BC29IOFPAsn3ipbHnxkKd3PLvl7vuOPZcVHoyIGaT9oWyHYM2x95Kb2RcrHoiKu4arrIZrAUFYIFWyioKsQhg5WUiF_5_4cSsEu94I7EPIFXzuqgfogxkcWfmTJW3ciD-Vdft1w4fz32uUg9Q2bhdBIlbN2LmZQCAnL_O5dfHT-OApw4aXempwXPVLuSqNwuaBlctJSXXiWcVaMQ9xf5bYHrcs5TbynCx3FIocDXX78IeaMCUFxqp7GP-Myg-BdcfbdUdTxcw5IE9CbTNukPMQaYzHiFhlI4JRCA_NK32H0NVN08fUS69qgOQsn4cTHeoKhESkC9xEggKgdqxEWrocnip9TG-8EatZo3cfX1gK4qkQiSPKDELP8i_OOYf-IRqkE_96nURsnINXcC0tMMTzy2XCAftCGWegxhrOP9adnJyRB2J4f0GeBTz_llXaWFPB3skPZctcEgZbEF3giWb0ZFX4sQerP525FMXLdhqyMKX9_ppAw3pl6JRZWjZLNsUDzuz5MmLT0pnGprFtK9NRXc1EEbXB-WaSymMvFcJYZeQo1zY8_cbV7vgR9OwWTe1P6SzG5PjcOtnlaHU6X2sh_07-_u8tXDQdShHIGZ_2_FQwqH_Ii8bxvFswHuQsC_tu0]--></g></svg>