<?xml version="1.0" encoding="us-ascii" standalone="no"?><svg xmlns="http://www.w3.org/2000/svg" xmlns:xlink="http://www.w3.org/1999/xlink" contentStyleType="text/css" height="1218px" preserveAspectRatio="none" style="width:2773px;height:1218px;background:#FFFFFF;" version="1.1" viewBox="0 0 2773 1218" width="2773px" zoomAndPan="magnify"><defs/><g><text fill="#000000" font-family="sans-serif" font-size="14" font-weight="bold" lengthAdjust="spacing" textLength="100" x="1329.5" y="24.5332">Domain Model</text><!--cluster Vessel Aggregate--><g id="cluster_Vessel Aggregate"><path d="M8.5,557.6094 L133.5,557.6094 A3.75,3.75 0 0 1 136,560.1094 L143,581.2188 L385.5,581.2188 A2.5,2.5 0 0 1 388,583.7188 L388,1209.1094 A2.5,2.5 0 0 1 385.5,1211.6094 L8.5,1211.6094 A2.5,2.5 0 0 1 6,1209.1094 L6,560.1094 A2.5,2.5 0 0 1 8.5,557.6094 " fill="none" style="stroke:#000000;stroke-width:1.5;"/><line style="stroke:#000000;stroke-width:1.5;" x1="6" x2="143" y1="581.2188" y2="581.2188"/><text fill="#000000" font-family="sans-serif" font-size="14" font-weight="bold" lengthAdjust="spacing" textLength="124" x="10" y="574.1426">Vessel Aggregate</text></g><!--cluster VesselType Aggregate--><g id="cluster_VesselType Aggregate"><path d="M414.5,786.6094 L572.5,786.6094 A3.75,3.75 0 0 1 575,789.1094 L582,810.2188 L633.5,810.2188 A2.5,2.5 0 0 1 636,812.7188 L636,1000.1094 A2.5,2.5 0 0 1 633.5,1002.6094 L414.5,1002.6094 A2.5,2.5 0 0 1 412,1000.1094 L412,789.1094 A2.5,2.5 0 0 1 414.5,786.6094 " fill="none" style="stroke:#000000;stroke-width:1.5;"/><line style="stroke:#000000;stroke-width:1.5;" x1="412" x2="582" y1="810.2188" y2="810.2188"/><text fill="#000000" font-family="sans-serif" font-size="14" font-weight="bold" lengthAdjust="spacing" textLength="157" x="416" y="803.1426">VesselType Aggregate</text></g><!--cluster VesselVisitNotification Aggregate--><g id="cluster_VesselVisitNotification Aggregate"><path d="M662.5,282.6094 L897.5,282.6094 A3.75,3.75 0 0 1 900,285.1094 L907,306.2188 L1257.5,306.2188 A2.5,2.5 0 0 1 1260,308.7188 L1260,965.1094 A2.5,2.5 0 0 1 1257.5,967.6094 L662.5,967.6094 A2.5,2.5 0 0 1 660,965.1094 L660,285.1094 A2.5,2.5 0 0 1 662.5,282.6094 " fill="none" style="stroke:#000000;stroke-width:1.5;"/><line style="stroke:#000000;stroke-width:1.5;" x1="660" x2="907" y1="306.2188" y2="306.2188"/><text fill="#000000" font-family="sans-serif" font-size="14" font-weight="bold" lengthAdjust="spacing" textLength="234" x="664" y="299.1426">VesselVisitNotification Aggregate</text></g><!--cluster ShippingAgentOrganization Aggregate--><g id="cluster_ShippingAgentOrganization Aggregate"><path d="M1286.5,44.6094 L1556.5,44.6094 A3.75,3.75 0 0 1 1559,47.1094 L1566,68.2188 L1686.5,68.2188 A2.5,2.5 0 0 1 1689,70.7188 L1689,470.1094 A2.5,2.5 0 0 1 1686.5,472.6094 L1286.5,472.6094 A2.5,2.5 0 0 1 1284,470.1094 L1284,47.1094 A2.5,2.5 0 0 1 1286.5,44.6094 " fill="none" style="stroke:#000000;stroke-width:1.5;"/><line style="stroke:#000000;stroke-width:1.5;" x1="1284" x2="1566" y1="68.2188" y2="68.2188"/><text fill="#000000" font-family="sans-serif" font-size="14" font-weight="bold" lengthAdjust="spacing" textLength="269" x="1288" y="61.1426">ShippingAgentOrganization Aggregate</text></g><!--cluster Port Infrastructure Aggregate--><g id="cluster_Port Infrastructure Aggregate"><path d="M1715.5,282.6094 L1923.5,282.6094 A3.75,3.75 0 0 1 1926,285.1094 L1933,306.2188 L2212.5,306.2188 A2.5,2.5 0 0 1 2215,308.7188 L2215,965.1094 A2.5,2.5 0 0 1 2212.5,967.6094 L1715.5,967.6094 A2.5,2.5 0 0 1 1713,965.1094 L1713,285.1094 A2.5,2.5 0 0 1 1715.5,282.6094 " fill="none" style="stroke:#000000;stroke-width:1.5;"/><line style="stroke:#000000;stroke-width:1.5;" x1="1713" x2="1933" y1="306.2188" y2="306.2188"/><text fill="#000000" font-family="sans-serif" font-size="14" font-weight="bold" lengthAdjust="spacing" textLength="207" x="1717" y="299.1426">Port Infrastructure Aggregate</text></g><!--cluster Staff Management Aggregate--><g id="cluster_Staff Management Aggregate"><path d="M2241.5,273.6094 L2446.5,273.6094 A3.75,3.75 0 0 1 2449,276.1094 L2456,297.2188 L2456.5,297.2188 A2.5,2.5 0 0 1 2459,299.7188 L2459,687.1094 A2.5,2.5 0 0 1 2456.5,689.6094 L2241.5,689.6094 A2.5,2.5 0 0 1 2239,687.1094 L2239,276.1094 A2.5,2.5 0 0 1 2241.5,273.6094 " fill="none" style="stroke:#000000;stroke-width:1.5;"/><line style="stroke:#000000;stroke-width:1.5;" x1="2239" x2="2456" y1="297.2188" y2="297.2188"/><text fill="#000000" font-family="sans-serif" font-size="14" font-weight="bold" lengthAdjust="spacing" textLength="204" x="2243" y="290.1426">Staff Management Aggregate</text></g><!--cluster Qualification Aggregate--><g id="cluster_Qualification Aggregate"><path d="M2328.5,812.6094 L2494.5,812.6094 A3.75,3.75 0 0 1 2497,815.1094 L2504,836.2188 L2517.5,836.2188 A2.5,2.5 0 0 1 2520,838.7188 L2520,974.1094 A2.5,2.5 0 0 1 2517.5,976.6094 L2328.5,976.6094 A2.5,2.5 0 0 1 2326,974.1094 L2326,815.1094 A2.5,2.5 0 0 1 2328.5,812.6094 " fill="none" style="stroke:#000000;stroke-width:1.5;"/><line style="stroke:#000000;stroke-width:1.5;" x1="2326" x2="2504" y1="836.2188" y2="836.2188"/><text fill="#000000" font-family="sans-serif" font-size="14" font-weight="bold" lengthAdjust="spacing" textLength="165" x="2330" y="829.1426">Qualification Aggregate</text></g><!--cluster Physical Resource Aggregate--><g id="cluster_Physical Resource Aggregate"><path d="M2546.5,522.6094 L2753.5,522.6094 A3.75,3.75 0 0 1 2756,525.1094 L2763,546.2188 L2763.5,546.2188 A2.5,2.5 0 0 1 2766,548.7188 L2766,951.1094 A2.5,2.5 0 0 1 2763.5,953.6094 L2546.5,953.6094 A2.5,2.5 0 0 1 2544,951.1094 L2544,525.1094 A2.5,2.5 0 0 1 2546.5,522.6094 " fill="none" style="stroke:#000000;stroke-width:1.5;"/><line style="stroke:#000000;stroke-width:1.5;" x1="2544" x2="2763" y1="546.2188" y2="546.2188"/><text fill="#000000" font-family="sans-serif" font-size="14" font-weight="bold" lengthAdjust="spacing" textLength="206" x="2548" y="539.1426">Physical Resource Aggregate</text></g><!--class Vessel--><g id="elem_Vessel"><rect codeLine="4" fill="#F1F1F1" height="93.9219" id="Vessel" rx="2.5" ry="2.5" style="stroke:#181818;stroke-width:0.5;" width="161" x="210.5" y="593.6094"/><ellipse cx="225.5" cy="614.9609" fill="#ADD1B2" rx="11" ry="11" style="stroke:#181818;stroke-width:1.0;"/><path d="M228.2656,610.8359 Q228.4219,610.6172 228.6094,610.5078 Q228.7969,610.3984 229.0156,610.3984 Q229.3906,610.3984 229.625,610.6641 Q229.8594,610.9141 229.8594,611.5234 L229.8594,612.9766 Q229.8594,613.5859 229.625,613.8516 Q229.3906,614.1172 229.0156,614.1172 Q228.6719,614.1172 228.4688,613.9141 Q228.2656,613.7266 228.1563,613.2109 Q228.1094,612.8516 227.9219,612.6641 Q227.5938,612.2891 226.9844,612.0703 Q226.375,611.8516 225.75,611.8516 Q224.9844,611.8516 224.3438,612.1797 Q223.7188,612.5078 223.2188,613.2578 Q222.7344,614.0078 222.7344,615.0391 L222.7344,616.1328 Q222.7344,617.3672 223.625,618.1953 Q224.5156,619.0078 226.1094,619.0078 Q227.0469,619.0078 227.7031,618.7578 Q228.0938,618.6016 228.5156,618.1641 Q228.7813,617.8984 228.9219,617.8203 Q229.0781,617.7422 229.2813,617.7422 Q229.6094,617.7422 229.8594,618.0078 Q230.125,618.2578 230.125,618.6016 Q230.125,618.9453 229.7813,619.3516 Q229.2813,619.9297 228.4844,620.2578 Q227.4063,620.7109 226.1094,620.7109 Q224.5938,620.7109 223.3906,620.0859 Q222.4063,619.5859 221.7188,618.5234 Q221.0313,617.4453 221.0313,616.1641 L221.0313,615.0078 Q221.0313,613.6797 221.6406,612.5391 Q222.2656,611.3828 223.3594,610.7734 Q224.4531,610.1484 225.6875,610.1484 Q226.4219,610.1484 227.0625,610.3203 Q227.7188,610.4766 228.2656,610.8359 Z " fill="#000000"/><text fill="#000000" font-family="sans-serif" font-size="12" font-style="italic" lengthAdjust="spacing" textLength="133" x="237.5" y="611.0664">&#171;Entity, AggregateRoot&#187;</text><text fill="#000000" font-family="sans-serif" font-size="14" lengthAdjust="spacing" textLength="42" x="283" y="628.2363">Vessel</text><line style="stroke:#181818;stroke-width:0.5;" x1="211.5" x2="370.5" y1="636.3125" y2="636.3125"/><text fill="#000000" font-family="sans-serif" font-size="14" lengthAdjust="spacing" textLength="96" x="216.5" y="654.8457">IMOnumber: int</text><text fill="#000000" font-family="sans-serif" font-size="14" lengthAdjust="spacing" textLength="80" x="216.5" y="672.4551">name: String</text><line style="stroke:#181818;stroke-width:0.5;" x1="211.5" x2="370.5" y1="679.5313" y2="679.5313"/></g><!--class Owner--><g id="elem_Owner"><rect codeLine="9" fill="#F1F1F1" height="93.9219" id="Owner" rx="2.5" ry="2.5" style="stroke:#181818;stroke-width:0.5;" width="92" x="22" y="857.6094"/><ellipse cx="45.55" cy="878.9609" fill="#ADD1B2" rx="11" ry="11" style="stroke:#181818;stroke-width:1.0;"/><path d="M48.3156,874.8359 Q48.4719,874.6172 48.6594,874.5078 Q48.8469,874.3984 49.0656,874.3984 Q49.4406,874.3984 49.675,874.6641 Q49.9094,874.9141 49.9094,875.5234 L49.9094,876.9766 Q49.9094,877.5859 49.675,877.8516 Q49.4406,878.1172 49.0656,878.1172 Q48.7219,878.1172 48.5188,877.9141 Q48.3156,877.7266 48.2063,877.2109 Q48.1594,876.8516 47.9719,876.6641 Q47.6438,876.2891 47.0344,876.0703 Q46.425,875.8516 45.8,875.8516 Q45.0344,875.8516 44.3938,876.1797 Q43.7688,876.5078 43.2688,877.2578 Q42.7844,878.0078 42.7844,879.0391 L42.7844,880.1328 Q42.7844,881.3672 43.675,882.1953 Q44.5656,883.0078 46.1594,883.0078 Q47.0969,883.0078 47.7531,882.7578 Q48.1438,882.6016 48.5656,882.1641 Q48.8313,881.8984 48.9719,881.8203 Q49.1281,881.7422 49.3313,881.7422 Q49.6594,881.7422 49.9094,882.0078 Q50.175,882.2578 50.175,882.6016 Q50.175,882.9453 49.8313,883.3516 Q49.3313,883.9297 48.5344,884.2578 Q47.4563,884.7109 46.1594,884.7109 Q44.6438,884.7109 43.4406,884.0859 Q42.4563,883.5859 41.7688,882.5234 Q41.0813,881.4453 41.0813,880.1641 L41.0813,879.0078 Q41.0813,877.6797 41.6906,876.5391 Q42.3156,875.3828 43.4094,874.7734 Q44.5031,874.1484 45.7375,874.1484 Q46.4719,874.1484 47.1125,874.3203 Q47.7688,874.4766 48.3156,874.8359 Z " fill="#000000"/><text fill="#000000" font-family="sans-serif" font-size="12" font-style="italic" lengthAdjust="spacing" textLength="44" x="59.95" y="875.0664">&#171;Entity&#187;</text><text fill="#000000" font-family="sans-serif" font-size="14" lengthAdjust="spacing" textLength="41" x="61.45" y="892.2363">Owner</text><line style="stroke:#181818;stroke-width:0.5;" x1="23" x2="113" y1="900.3125" y2="900.3125"/><text fill="#000000" font-family="sans-serif" font-size="14" lengthAdjust="spacing" textLength="80" x="28" y="918.8457">name: String</text><text fill="#000000" font-family="sans-serif" font-size="14" lengthAdjust="spacing" textLength="36" x="28" y="936.4551">ID: int</text><line style="stroke:#181818;stroke-width:0.5;" x1="23" x2="113" y1="943.5313" y2="943.5313"/></g><!--class Cargo--><g id="elem_Cargo"><rect codeLine="14" fill="#F1F1F1" height="93.9219" id="Cargo" rx="2.5" ry="2.5" style="stroke:#181818;stroke-width:0.5;" width="116" x="149" y="857.6094"/><ellipse cx="165.35" cy="878.9609" fill="#ADD1B2" rx="11" ry="11" style="stroke:#181818;stroke-width:1.0;"/><path d="M168.1156,874.8359 Q168.2719,874.6172 168.4594,874.5078 Q168.6469,874.3984 168.8656,874.3984 Q169.2406,874.3984 169.475,874.6641 Q169.7094,874.9141 169.7094,875.5234 L169.7094,876.9766 Q169.7094,877.5859 169.475,877.8516 Q169.2406,878.1172 168.8656,878.1172 Q168.5219,878.1172 168.3188,877.9141 Q168.1156,877.7266 168.0063,877.2109 Q167.9594,876.8516 167.7719,876.6641 Q167.4438,876.2891 166.8344,876.0703 Q166.225,875.8516 165.6,875.8516 Q164.8344,875.8516 164.1938,876.1797 Q163.5688,876.5078 163.0688,877.2578 Q162.5844,878.0078 162.5844,879.0391 L162.5844,880.1328 Q162.5844,881.3672 163.475,882.1953 Q164.3656,883.0078 165.9594,883.0078 Q166.8969,883.0078 167.5531,882.7578 Q167.9438,882.6016 168.3656,882.1641 Q168.6313,881.8984 168.7719,881.8203 Q168.9281,881.7422 169.1313,881.7422 Q169.4594,881.7422 169.7094,882.0078 Q169.975,882.2578 169.975,882.6016 Q169.975,882.9453 169.6313,883.3516 Q169.1313,883.9297 168.3344,884.2578 Q167.2563,884.7109 165.9594,884.7109 Q164.4438,884.7109 163.2406,884.0859 Q162.2563,883.5859 161.5688,882.5234 Q160.8813,881.4453 160.8813,880.1641 L160.8813,879.0078 Q160.8813,877.6797 161.4906,876.5391 Q162.1156,875.3828 163.2094,874.7734 Q164.3031,874.1484 165.5375,874.1484 Q166.2719,874.1484 166.9125,874.3203 Q167.5688,874.4766 168.1156,874.8359 Z " fill="#000000"/><text fill="#000000" font-family="sans-serif" font-size="12" font-style="italic" lengthAdjust="spacing" textLength="85" x="177.65" y="875.0664">&#171;Value Object&#187;</text><text fill="#000000" font-family="sans-serif" font-size="14" lengthAdjust="spacing" textLength="39" x="200.65" y="892.2363">Cargo</text><line style="stroke:#181818;stroke-width:0.5;" x1="150" x2="264" y1="900.3125" y2="900.3125"/><text fill="#000000" font-family="sans-serif" font-size="14" lengthAdjust="spacing" textLength="77" x="155" y="918.8457">Type: String</text><text fill="#000000" font-family="sans-serif" font-size="14" lengthAdjust="spacing" textLength="104" x="155" y="936.4551">Quantity: double</text><line style="stroke:#181818;stroke-width:0.5;" x1="150" x2="264" y1="943.5313" y2="943.5313"/></g><!--class Crew--><g id="elem_Crew"><rect codeLine="19" fill="#F1F1F1" height="76.3125" id="Crew" rx="2.5" ry="2.5" style="stroke:#181818;stroke-width:0.5;" width="72" x="300" y="866.6094"/><ellipse cx="315" cy="887.9609" fill="#ADD1B2" rx="11" ry="11" style="stroke:#181818;stroke-width:1.0;"/><path d="M317.7656,883.8359 Q317.9219,883.6172 318.1094,883.5078 Q318.2969,883.3984 318.5156,883.3984 Q318.8906,883.3984 319.125,883.6641 Q319.3594,883.9141 319.3594,884.5234 L319.3594,885.9766 Q319.3594,886.5859 319.125,886.8516 Q318.8906,887.1172 318.5156,887.1172 Q318.1719,887.1172 317.9688,886.9141 Q317.7656,886.7266 317.6563,886.2109 Q317.6094,885.8516 317.4219,885.6641 Q317.0938,885.2891 316.4844,885.0703 Q315.875,884.8516 315.25,884.8516 Q314.4844,884.8516 313.8438,885.1797 Q313.2188,885.5078 312.7188,886.2578 Q312.2344,887.0078 312.2344,888.0391 L312.2344,889.1328 Q312.2344,890.3672 313.125,891.1953 Q314.0156,892.0078 315.6094,892.0078 Q316.5469,892.0078 317.2031,891.7578 Q317.5938,891.6016 318.0156,891.1641 Q318.2813,890.8984 318.4219,890.8203 Q318.5781,890.7422 318.7813,890.7422 Q319.1094,890.7422 319.3594,891.0078 Q319.625,891.2578 319.625,891.6016 Q319.625,891.9453 319.2813,892.3516 Q318.7813,892.9297 317.9844,893.2578 Q316.9063,893.7109 315.6094,893.7109 Q314.0938,893.7109 312.8906,893.0859 Q311.9063,892.5859 311.2188,891.5234 Q310.5313,890.4453 310.5313,889.1641 L310.5313,888.0078 Q310.5313,886.6797 311.1406,885.5391 Q311.7656,884.3828 312.8594,883.7734 Q313.9531,883.1484 315.1875,883.1484 Q315.9219,883.1484 316.5625,883.3203 Q317.2188,883.4766 317.7656,883.8359 Z " fill="#000000"/><text fill="#000000" font-family="sans-serif" font-size="12" font-style="italic" lengthAdjust="spacing" textLength="44" x="327" y="884.0664">&#171;Entity&#187;</text><text fill="#000000" font-family="sans-serif" font-size="14" lengthAdjust="spacing" textLength="32" x="333" y="901.2363">Crew</text><line style="stroke:#181818;stroke-width:0.5;" x1="301" x2="371" y1="909.3125" y2="909.3125"/><text fill="#000000" font-family="sans-serif" font-size="14" lengthAdjust="spacing" textLength="36" x="306" y="927.8457">ID: int</text><line style="stroke:#181818;stroke-width:0.5;" x1="301" x2="371" y1="934.9219" y2="934.9219"/></g><!--class CrewMember--><g id="elem_CrewMember"><rect codeLine="23" fill="#F1F1F1" height="129.1406" id="CrewMember" rx="2.5" ry="2.5" style="stroke:#181818;stroke-width:0.5;" width="129" x="242.5" y="1066.6094"/><ellipse cx="263.8" cy="1087.9609" fill="#ADD1B2" rx="11" ry="11" style="stroke:#181818;stroke-width:1.0;"/><path d="M266.5656,1083.8359 Q266.7219,1083.6172 266.9094,1083.5078 Q267.0969,1083.3984 267.3156,1083.3984 Q267.6906,1083.3984 267.925,1083.6641 Q268.1594,1083.9141 268.1594,1084.5234 L268.1594,1085.9766 Q268.1594,1086.5859 267.925,1086.8516 Q267.6906,1087.1172 267.3156,1087.1172 Q266.9719,1087.1172 266.7688,1086.9141 Q266.5656,1086.7266 266.4563,1086.2109 Q266.4094,1085.8516 266.2219,1085.6641 Q265.8938,1085.2891 265.2844,1085.0703 Q264.675,1084.8516 264.05,1084.8516 Q263.2844,1084.8516 262.6438,1085.1797 Q262.0188,1085.5078 261.5188,1086.2578 Q261.0344,1087.0078 261.0344,1088.0391 L261.0344,1089.1328 Q261.0344,1090.3672 261.925,1091.1953 Q262.8156,1092.0078 264.4094,1092.0078 Q265.3469,1092.0078 266.0031,1091.7578 Q266.3938,1091.6016 266.8156,1091.1641 Q267.0813,1090.8984 267.2219,1090.8203 Q267.3781,1090.7422 267.5813,1090.7422 Q267.9094,1090.7422 268.1594,1091.0078 Q268.425,1091.2578 268.425,1091.6016 Q268.425,1091.9453 268.0813,1092.3516 Q267.5813,1092.9297 266.7844,1093.2578 Q265.7063,1093.7109 264.4094,1093.7109 Q262.8938,1093.7109 261.6906,1093.0859 Q260.7063,1092.5859 260.0188,1091.5234 Q259.3313,1090.4453 259.3313,1089.1641 L259.3313,1088.0078 Q259.3313,1086.6797 259.9406,1085.5391 Q260.5656,1084.3828 261.6594,1083.7734 Q262.7531,1083.1484 263.9875,1083.1484 Q264.7219,1083.1484 265.3625,1083.3203 Q266.0188,1083.4766 266.5656,1083.8359 Z " fill="#000000"/><text fill="#000000" font-family="sans-serif" font-size="12" font-style="italic" lengthAdjust="spacing" textLength="44" x="298.7" y="1084.0664">&#171;Entity&#187;</text><text fill="#000000" font-family="sans-serif" font-size="14" lengthAdjust="spacing" textLength="83" x="279.2" y="1101.2363">CrewMember</text><line style="stroke:#181818;stroke-width:0.5;" x1="243.5" x2="370.5" y1="1109.3125" y2="1109.3125"/><text fill="#000000" font-family="sans-serif" font-size="14" lengthAdjust="spacing" textLength="36" x="248.5" y="1127.8457">ID: int</text><text fill="#000000" font-family="sans-serif" font-size="14" lengthAdjust="spacing" textLength="80" x="248.5" y="1145.4551">name: String</text><text fill="#000000" font-family="sans-serif" font-size="14" lengthAdjust="spacing" textLength="109" x="248.5" y="1163.0645">nationality: String</text><text fill="#000000" font-family="sans-serif" font-size="14" lengthAdjust="spacing" textLength="117" x="248.5" y="1180.6738">dateOfBirth: String</text><line style="stroke:#181818;stroke-width:0.5;" x1="243.5" x2="370.5" y1="1187.75" y2="1187.75"/></g><!--class VesselType--><g id="elem_VesselType"><rect codeLine="32" fill="#F1F1F1" height="164.3594" id="VesselType" rx="2.5" ry="2.5" style="stroke:#181818;stroke-width:0.5;" width="191" x="428.5" y="822.6094"/><ellipse cx="482.75" cy="843.9609" fill="#ADD1B2" rx="11" ry="11" style="stroke:#181818;stroke-width:1.0;"/><path d="M485.5156,839.8359 Q485.6719,839.6172 485.8594,839.5078 Q486.0469,839.3984 486.2656,839.3984 Q486.6406,839.3984 486.875,839.6641 Q487.1094,839.9141 487.1094,840.5234 L487.1094,841.9766 Q487.1094,842.5859 486.875,842.8516 Q486.6406,843.1172 486.2656,843.1172 Q485.9219,843.1172 485.7188,842.9141 Q485.5156,842.7266 485.4063,842.2109 Q485.3594,841.8516 485.1719,841.6641 Q484.8438,841.2891 484.2344,841.0703 Q483.625,840.8516 483,840.8516 Q482.2344,840.8516 481.5938,841.1797 Q480.9688,841.5078 480.4688,842.2578 Q479.9844,843.0078 479.9844,844.0391 L479.9844,845.1328 Q479.9844,846.3672 480.875,847.1953 Q481.7656,848.0078 483.3594,848.0078 Q484.2969,848.0078 484.9531,847.7578 Q485.3438,847.6016 485.7656,847.1641 Q486.0313,846.8984 486.1719,846.8203 Q486.3281,846.7422 486.5313,846.7422 Q486.8594,846.7422 487.1094,847.0078 Q487.375,847.2578 487.375,847.6016 Q487.375,847.9453 487.0313,848.3516 Q486.5313,848.9297 485.7344,849.2578 Q484.6563,849.7109 483.3594,849.7109 Q481.8438,849.7109 480.6406,849.0859 Q479.6563,848.5859 478.9688,847.5234 Q478.2813,846.4453 478.2813,845.1641 L478.2813,844.0078 Q478.2813,842.6797 478.8906,841.5391 Q479.5156,840.3828 480.6094,839.7734 Q481.7031,839.1484 482.9375,839.1484 Q483.6719,839.1484 484.3125,839.3203 Q484.9688,839.4766 485.5156,839.8359 Z " fill="#000000"/><text fill="#000000" font-family="sans-serif" font-size="12" font-style="italic" lengthAdjust="spacing" textLength="44" x="518.25" y="840.0664">&#171;Entity&#187;</text><text fill="#000000" font-family="sans-serif" font-size="14" lengthAdjust="spacing" textLength="74" x="503.25" y="857.2363">VesselType</text><line style="stroke:#181818;stroke-width:0.5;" x1="429.5" x2="618.5" y1="865.3125" y2="865.3125"/><text fill="#000000" font-family="sans-serif" font-size="14" lengthAdjust="spacing" textLength="80" x="434.5" y="883.8457">name: String</text><text fill="#000000" font-family="sans-serif" font-size="14" lengthAdjust="spacing" textLength="114" x="434.5" y="901.4551">description: String</text><text fill="#000000" font-family="sans-serif" font-size="14" lengthAdjust="spacing" textLength="103" x="434.5" y="919.0645">capacity: double</text><text fill="#000000" font-family="sans-serif" font-size="14" lengthAdjust="spacing" textLength="179" x="434.5" y="936.6738">maximumNumberOfRows: int</text><text fill="#000000" font-family="sans-serif" font-size="14" lengthAdjust="spacing" textLength="53" x="434.5" y="954.2832">bays: int</text><text fill="#000000" font-family="sans-serif" font-size="14" lengthAdjust="spacing" textLength="50" x="434.5" y="971.8926">tiers: int</text><line style="stroke:#181818;stroke-width:0.5;" x1="429.5" x2="618.5" y1="978.9688" y2="978.9688"/></g><!--class VesselVisitNotification--><g id="elem_VesselVisitNotification"><rect codeLine="43" fill="#F1F1F1" height="129.1406" id="VesselVisitNotification" rx="2.5" ry="2.5" style="stroke:#181818;stroke-width:0.5;" width="262" x="898" y="318.6094"/><ellipse cx="956.25" cy="339.9609" fill="#ADD1B2" rx="11" ry="11" style="stroke:#181818;stroke-width:1.0;"/><path d="M959.0156,335.8359 Q959.1719,335.6172 959.3594,335.5078 Q959.5469,335.3984 959.7656,335.3984 Q960.1406,335.3984 960.375,335.6641 Q960.6094,335.9141 960.6094,336.5234 L960.6094,337.9766 Q960.6094,338.5859 960.375,338.8516 Q960.1406,339.1172 959.7656,339.1172 Q959.4219,339.1172 959.2188,338.9141 Q959.0156,338.7266 958.9063,338.2109 Q958.8594,337.8516 958.6719,337.6641 Q958.3438,337.2891 957.7344,337.0703 Q957.125,336.8516 956.5,336.8516 Q955.7344,336.8516 955.0938,337.1797 Q954.4688,337.5078 953.9688,338.2578 Q953.4844,339.0078 953.4844,340.0391 L953.4844,341.1328 Q953.4844,342.3672 954.375,343.1953 Q955.2656,344.0078 956.8594,344.0078 Q957.7969,344.0078 958.4531,343.7578 Q958.8438,343.6016 959.2656,343.1641 Q959.5313,342.8984 959.6719,342.8203 Q959.8281,342.7422 960.0313,342.7422 Q960.3594,342.7422 960.6094,343.0078 Q960.875,343.2578 960.875,343.6016 Q960.875,343.9453 960.5313,344.3516 Q960.0313,344.9297 959.2344,345.2578 Q958.1563,345.7109 956.8594,345.7109 Q955.3438,345.7109 954.1406,345.0859 Q953.1563,344.5859 952.4688,343.5234 Q951.7813,342.4453 951.7813,341.1641 L951.7813,340.0078 Q951.7813,338.6797 952.3906,337.5391 Q953.0156,336.3828 954.1094,335.7734 Q955.2031,335.1484 956.4375,335.1484 Q957.1719,335.1484 957.8125,335.3203 Q958.4688,335.4766 959.0156,335.8359 Z " fill="#000000"/><text fill="#000000" font-family="sans-serif" font-size="12" font-style="italic" lengthAdjust="spacing" textLength="133" x="978.75" y="336.0664">&#171;Entity, AggregateRoot&#187;</text><text fill="#000000" font-family="sans-serif" font-size="14" lengthAdjust="spacing" textLength="137" x="976.75" y="353.2363">VesselVisitNotification</text><line style="stroke:#181818;stroke-width:0.5;" x1="899" x2="1159" y1="361.3125" y2="361.3125"/><text fill="#000000" font-family="sans-serif" font-size="14" lengthAdjust="spacing" textLength="36" x="904" y="379.8457">ID: int</text><text fill="#000000" font-family="sans-serif" font-size="14" lengthAdjust="spacing" textLength="250" x="904" y="397.4551">rejectionReason: String? #pode ser null</text><text fill="#000000" font-family="sans-serif" font-size="14" lengthAdjust="spacing" textLength="168" x="904" y="415.0645">decisionTimeStamp: String</text><text fill="#000000" font-family="sans-serif" font-size="14" lengthAdjust="spacing" textLength="154" x="904" y="432.6738">decisionOutcome: String</text><line style="stroke:#181818;stroke-width:0.5;" x1="899" x2="1159" y1="439.75" y2="439.75"/></g><!--class NotificationState--><g id="elem_NotificationState"><rect codeLine="50" fill="#F1F1F1" height="65.6094" id="NotificationState" rx="2.5" ry="2.5" style="stroke:#181818;stroke-width:0.5;" width="134" x="899" y="607.6094"/><ellipse cx="914" cy="623.6094" fill="#EB937F" rx="11" ry="11" style="stroke:#181818;stroke-width:1.0;"/><path d="M912.8594,624.4063 L912.8594,626.9063 L917.1875,626.9063 L917.1875,625.9844 Q917.1875,625.375 917.4219,625.1094 Q917.6719,624.8438 918.0469,624.8438 Q918.4219,624.8438 918.6563,625.1094 Q918.8906,625.375 918.8906,625.9844 L918.8906,628.6094 L910.8906,628.6094 Q910.2656,628.6094 910,628.375 Q909.75,628.1406 909.75,627.75 Q909.75,627.375 910.0156,627.1406 Q910.2813,626.9063 910.8906,626.9063 L911.1563,626.9063 L911.1563,620.25 L910.8906,620.25 Q910.2656,620.25 910,620.0156 Q909.75,619.7813 909.75,619.3906 Q909.75,619.0156 910,618.7813 Q910.2656,618.5469 910.8906,618.5469 L918.5156,618.5469 L918.5156,621.1406 Q918.5156,621.75 918.2813,622.0156 Q918.0625,622.2656 917.6719,622.2656 Q917.2969,622.2656 917.0625,622.0156 Q916.8281,621.75 916.8281,621.1406 L916.8281,620.25 L912.8594,620.25 L912.8594,622.7031 L914.3438,622.7031 Q914.3438,622.0469 914.4688,621.8594 Q914.7344,621.4531 915.2031,621.4531 Q915.5781,621.4531 915.8125,621.7188 Q916.0469,621.9688 916.0469,622.5781 L916.0469,624.5469 Q916.0469,625.0938 915.9219,625.2813 Q915.6563,625.6719 915.2031,625.6719 Q914.7344,625.6719 914.4688,625.2656 Q914.3438,625.0781 914.3438,624.4063 L912.8594,624.4063 Z " fill="#000000"/><text fill="#000000" font-family="sans-serif" font-size="14" lengthAdjust="spacing" textLength="102" x="928" y="629.3379">NotificationState</text><line style="stroke:#181818;stroke-width:0.5;" x1="900" x2="1032" y1="639.6094" y2="639.6094"/><text fill="#000000" font-family="sans-serif" font-size="14" lengthAdjust="spacing" textLength="80" x="905" y="658.1426">name: String</text><line style="stroke:#181818;stroke-width:0.5;" x1="900" x2="1032" y1="665.2188" y2="665.2188"/></g><!--class ManifestCargo--><g id="elem_ManifestCargo"><rect codeLine="54" fill="#F1F1F1" height="93.9219" id="ManifestCargo" rx="2.5" ry="2.5" style="stroke:#181818;stroke-width:0.5;" width="124" x="820" y="857.6094"/><ellipse cx="835" cy="878.9609" fill="#ADD1B2" rx="11" ry="11" style="stroke:#181818;stroke-width:1.0;"/><path d="M837.7656,874.8359 Q837.9219,874.6172 838.1094,874.5078 Q838.2969,874.3984 838.5156,874.3984 Q838.8906,874.3984 839.125,874.6641 Q839.3594,874.9141 839.3594,875.5234 L839.3594,876.9766 Q839.3594,877.5859 839.125,877.8516 Q838.8906,878.1172 838.5156,878.1172 Q838.1719,878.1172 837.9688,877.9141 Q837.7656,877.7266 837.6563,877.2109 Q837.6094,876.8516 837.4219,876.6641 Q837.0938,876.2891 836.4844,876.0703 Q835.875,875.8516 835.25,875.8516 Q834.4844,875.8516 833.8438,876.1797 Q833.2188,876.5078 832.7188,877.2578 Q832.2344,878.0078 832.2344,879.0391 L832.2344,880.1328 Q832.2344,881.3672 833.125,882.1953 Q834.0156,883.0078 835.6094,883.0078 Q836.5469,883.0078 837.2031,882.7578 Q837.5938,882.6016 838.0156,882.1641 Q838.2813,881.8984 838.4219,881.8203 Q838.5781,881.7422 838.7813,881.7422 Q839.1094,881.7422 839.3594,882.0078 Q839.625,882.2578 839.625,882.6016 Q839.625,882.9453 839.2813,883.3516 Q838.7813,883.9297 837.9844,884.2578 Q836.9063,884.7109 835.6094,884.7109 Q834.0938,884.7109 832.8906,884.0859 Q831.9063,883.5859 831.2188,882.5234 Q830.5313,881.4453 830.5313,880.1641 L830.5313,879.0078 Q830.5313,877.6797 831.1406,876.5391 Q831.7656,875.3828 832.8594,874.7734 Q833.9531,874.1484 835.1875,874.1484 Q835.9219,874.1484 836.5625,874.3203 Q837.2188,874.4766 837.7656,874.8359 Z " fill="#000000"/><text fill="#000000" font-family="sans-serif" font-size="12" font-style="italic" lengthAdjust="spacing" textLength="85" x="852.5" y="875.0664">&#171;Value Object&#187;</text><text fill="#000000" font-family="sans-serif" font-size="14" lengthAdjust="spacing" textLength="92" x="849" y="892.2363">ManifestCargo</text><line style="stroke:#181818;stroke-width:0.5;" x1="821" x2="943" y1="900.3125" y2="900.3125"/><text fill="#000000" font-family="sans-serif" font-size="14" lengthAdjust="spacing" textLength="72" x="826" y="918.8457">type: String</text><text fill="#000000" font-family="sans-serif" font-size="14" lengthAdjust="spacing" textLength="101" x="826" y="936.4551">quantity: double</text><line style="stroke:#181818;stroke-width:0.5;" x1="821" x2="943" y1="943.5313" y2="943.5313"/></g><!--class LoadingCargoManifest--><g id="elem_LoadingCargoManifest"><rect codeLine="59" fill="#F1F1F1" height="58.7031" id="LoadingCargoManifest" rx="2.5" ry="2.5" style="stroke:#181818;stroke-width:0.5;" width="175" x="1068.5" y="611.1094"/><ellipse cx="1083.5" cy="632.4609" fill="#ADD1B2" rx="11" ry="11" style="stroke:#181818;stroke-width:1.0;"/><path d="M1086.2656,628.3359 Q1086.4219,628.1172 1086.6094,628.0078 Q1086.7969,627.8984 1087.0156,627.8984 Q1087.3906,627.8984 1087.625,628.1641 Q1087.8594,628.4141 1087.8594,629.0234 L1087.8594,630.4766 Q1087.8594,631.0859 1087.625,631.3516 Q1087.3906,631.6172 1087.0156,631.6172 Q1086.6719,631.6172 1086.4688,631.4141 Q1086.2656,631.2266 1086.1563,630.7109 Q1086.1094,630.3516 1085.9219,630.1641 Q1085.5938,629.7891 1084.9844,629.5703 Q1084.375,629.3516 1083.75,629.3516 Q1082.9844,629.3516 1082.3438,629.6797 Q1081.7188,630.0078 1081.2188,630.7578 Q1080.7344,631.5078 1080.7344,632.5391 L1080.7344,633.6328 Q1080.7344,634.8672 1081.625,635.6953 Q1082.5156,636.5078 1084.1094,636.5078 Q1085.0469,636.5078 1085.7031,636.2578 Q1086.0938,636.1016 1086.5156,635.6641 Q1086.7813,635.3984 1086.9219,635.3203 Q1087.0781,635.2422 1087.2813,635.2422 Q1087.6094,635.2422 1087.8594,635.5078 Q1088.125,635.7578 1088.125,636.1016 Q1088.125,636.4453 1087.7813,636.8516 Q1087.2813,637.4297 1086.4844,637.7578 Q1085.4063,638.2109 1084.1094,638.2109 Q1082.5938,638.2109 1081.3906,637.5859 Q1080.4063,637.0859 1079.7188,636.0234 Q1079.0313,634.9453 1079.0313,633.6641 L1079.0313,632.5078 Q1079.0313,631.1797 1079.6406,630.0391 Q1080.2656,628.8828 1081.3594,628.2734 Q1082.4531,627.6484 1083.6875,627.6484 Q1084.4219,627.6484 1085.0625,627.8203 Q1085.7188,627.9766 1086.2656,628.3359 Z " fill="#000000"/><text fill="#000000" font-family="sans-serif" font-size="12" font-style="italic" lengthAdjust="spacing" textLength="85" x="1126.5" y="628.5664">&#171;Value Object&#187;</text><text fill="#000000" font-family="sans-serif" font-size="14" lengthAdjust="spacing" textLength="143" x="1097.5" y="645.7363">LoadingCargoManifest</text><line style="stroke:#181818;stroke-width:0.5;" x1="1069.5" x2="1242.5" y1="653.8125" y2="653.8125"/><line style="stroke:#181818;stroke-width:0.5;" x1="1069.5" x2="1242.5" y1="661.8125" y2="661.8125"/></g><!--class UnloadingCargoManifest--><g id="elem_UnloadingCargoManifest"><rect codeLine="63" fill="#F1F1F1" height="58.7031" id="UnloadingCargoManifest" rx="2.5" ry="2.5" style="stroke:#181818;stroke-width:0.5;" width="187" x="676.5" y="611.1094"/><ellipse cx="691.5" cy="632.4609" fill="#ADD1B2" rx="11" ry="11" style="stroke:#181818;stroke-width:1.0;"/><path d="M694.2656,628.3359 Q694.4219,628.1172 694.6094,628.0078 Q694.7969,627.8984 695.0156,627.8984 Q695.3906,627.8984 695.625,628.1641 Q695.8594,628.4141 695.8594,629.0234 L695.8594,630.4766 Q695.8594,631.0859 695.625,631.3516 Q695.3906,631.6172 695.0156,631.6172 Q694.6719,631.6172 694.4688,631.4141 Q694.2656,631.2266 694.1563,630.7109 Q694.1094,630.3516 693.9219,630.1641 Q693.5938,629.7891 692.9844,629.5703 Q692.375,629.3516 691.75,629.3516 Q690.9844,629.3516 690.3438,629.6797 Q689.7188,630.0078 689.2188,630.7578 Q688.7344,631.5078 688.7344,632.5391 L688.7344,633.6328 Q688.7344,634.8672 689.625,635.6953 Q690.5156,636.5078 692.1094,636.5078 Q693.0469,636.5078 693.7031,636.2578 Q694.0938,636.1016 694.5156,635.6641 Q694.7813,635.3984 694.9219,635.3203 Q695.0781,635.2422 695.2813,635.2422 Q695.6094,635.2422 695.8594,635.5078 Q696.125,635.7578 696.125,636.1016 Q696.125,636.4453 695.7813,636.8516 Q695.2813,637.4297 694.4844,637.7578 Q693.4063,638.2109 692.1094,638.2109 Q690.5938,638.2109 689.3906,637.5859 Q688.4063,637.0859 687.7188,636.0234 Q687.0313,634.9453 687.0313,633.6641 L687.0313,632.5078 Q687.0313,631.1797 687.6406,630.0391 Q688.2656,628.8828 689.3594,628.2734 Q690.4531,627.6484 691.6875,627.6484 Q692.4219,627.6484 693.0625,627.8203 Q693.7188,627.9766 694.2656,628.3359 Z " fill="#000000"/><text fill="#000000" font-family="sans-serif" font-size="12" font-style="italic" lengthAdjust="spacing" textLength="85" x="740.5" y="628.5664">&#171;Value Object&#187;</text><text fill="#000000" font-family="sans-serif" font-size="14" lengthAdjust="spacing" textLength="155" x="705.5" y="645.7363">UnloadingCargoManifest</text><line style="stroke:#181818;stroke-width:0.5;" x1="677.5" x2="862.5" y1="653.8125" y2="653.8125"/><line style="stroke:#181818;stroke-width:0.5;" x1="677.5" x2="862.5" y1="661.8125" y2="661.8125"/></g><!--class ShippingAgentOrganization--><g id="elem_ShippingAgentOrganization"><rect codeLine="69" fill="#F1F1F1" height="129.1406" id="ShippingAgentOrganization" rx="2.5" ry="2.5" style="stroke:#181818;stroke-width:0.5;" width="204" x="1300" y="80.6094"/><ellipse cx="1315" cy="101.9609" fill="#ADD1B2" rx="11" ry="11" style="stroke:#181818;stroke-width:1.0;"/><path d="M1317.7656,97.8359 Q1317.9219,97.6172 1318.1094,97.5078 Q1318.2969,97.3984 1318.5156,97.3984 Q1318.8906,97.3984 1319.125,97.6641 Q1319.3594,97.9141 1319.3594,98.5234 L1319.3594,99.9766 Q1319.3594,100.5859 1319.125,100.8516 Q1318.8906,101.1172 1318.5156,101.1172 Q1318.1719,101.1172 1317.9688,100.9141 Q1317.7656,100.7266 1317.6563,100.2109 Q1317.6094,99.8516 1317.4219,99.6641 Q1317.0938,99.2891 1316.4844,99.0703 Q1315.875,98.8516 1315.25,98.8516 Q1314.4844,98.8516 1313.8438,99.1797 Q1313.2188,99.5078 1312.7188,100.2578 Q1312.2344,101.0078 1312.2344,102.0391 L1312.2344,103.1328 Q1312.2344,104.3672 1313.125,105.1953 Q1314.0156,106.0078 1315.6094,106.0078 Q1316.5469,106.0078 1317.2031,105.7578 Q1317.5938,105.6016 1318.0156,105.1641 Q1318.2813,104.8984 1318.4219,104.8203 Q1318.5781,104.7422 1318.7813,104.7422 Q1319.1094,104.7422 1319.3594,105.0078 Q1319.625,105.2578 1319.625,105.6016 Q1319.625,105.9453 1319.2813,106.3516 Q1318.7813,106.9297 1317.9844,107.2578 Q1316.9063,107.7109 1315.6094,107.7109 Q1314.0938,107.7109 1312.8906,107.0859 Q1311.9063,106.5859 1311.2188,105.5234 Q1310.5313,104.4453 1310.5313,103.1641 L1310.5313,102.0078 Q1310.5313,100.6797 1311.1406,99.5391 Q1311.7656,98.3828 1312.8594,97.7734 Q1313.9531,97.1484 1315.1875,97.1484 Q1315.9219,97.1484 1316.5625,97.3203 Q1317.2188,97.4766 1317.7656,97.8359 Z " fill="#000000"/><text fill="#000000" font-family="sans-serif" font-size="12" font-style="italic" lengthAdjust="spacing" textLength="133" x="1348.5" y="98.0664">&#171;Entity, AggregateRoot&#187;</text><text fill="#000000" font-family="sans-serif" font-size="14" lengthAdjust="spacing" textLength="172" x="1329" y="115.2363">ShippingAgentOrganization</text><line style="stroke:#181818;stroke-width:0.5;" x1="1301" x2="1503" y1="123.3125" y2="123.3125"/><text fill="#000000" font-family="sans-serif" font-size="14" lengthAdjust="spacing" textLength="36" x="1306" y="141.8457">ID: int</text><text fill="#000000" font-family="sans-serif" font-size="14" lengthAdjust="spacing" textLength="111" x="1306" y="159.4551">legalName: String</text><text fill="#000000" font-family="sans-serif" font-size="14" lengthAdjust="spacing" textLength="96" x="1306" y="177.0645">altName: String</text><text fill="#000000" font-family="sans-serif" font-size="14" lengthAdjust="spacing" textLength="90" x="1306" y="194.6738">taxNumber: int</text><line style="stroke:#181818;stroke-width:0.5;" x1="1301" x2="1503" y1="201.75" y2="201.75"/></g><!--class Address--><g id="elem_Address"><rect codeLine="76" fill="#F1F1F1" height="129.1406" id="Address" rx="2.5" ry="2.5" style="stroke:#181818;stroke-width:0.5;" width="129" x="1300.5" y="318.6094"/><ellipse cx="1324.05" cy="339.9609" fill="#ADD1B2" rx="11" ry="11" style="stroke:#181818;stroke-width:1.0;"/><path d="M1326.8156,335.8359 Q1326.9719,335.6172 1327.1594,335.5078 Q1327.3469,335.3984 1327.5656,335.3984 Q1327.9406,335.3984 1328.175,335.6641 Q1328.4094,335.9141 1328.4094,336.5234 L1328.4094,337.9766 Q1328.4094,338.5859 1328.175,338.8516 Q1327.9406,339.1172 1327.5656,339.1172 Q1327.2219,339.1172 1327.0188,338.9141 Q1326.8156,338.7266 1326.7063,338.2109 Q1326.6594,337.8516 1326.4719,337.6641 Q1326.1438,337.2891 1325.5344,337.0703 Q1324.925,336.8516 1324.3,336.8516 Q1323.5344,336.8516 1322.8938,337.1797 Q1322.2688,337.5078 1321.7688,338.2578 Q1321.2844,339.0078 1321.2844,340.0391 L1321.2844,341.1328 Q1321.2844,342.3672 1322.175,343.1953 Q1323.0656,344.0078 1324.6594,344.0078 Q1325.5969,344.0078 1326.2531,343.7578 Q1326.6438,343.6016 1327.0656,343.1641 Q1327.3313,342.8984 1327.4719,342.8203 Q1327.6281,342.7422 1327.8313,342.7422 Q1328.1594,342.7422 1328.4094,343.0078 Q1328.675,343.2578 1328.675,343.6016 Q1328.675,343.9453 1328.3313,344.3516 Q1327.8313,344.9297 1327.0344,345.2578 Q1325.9563,345.7109 1324.6594,345.7109 Q1323.1438,345.7109 1321.9406,345.0859 Q1320.9563,344.5859 1320.2688,343.5234 Q1319.5813,342.4453 1319.5813,341.1641 L1319.5813,340.0078 Q1319.5813,338.6797 1320.1906,337.5391 Q1320.8156,336.3828 1321.9094,335.7734 Q1323.0031,335.1484 1324.2375,335.1484 Q1324.9719,335.1484 1325.6125,335.3203 Q1326.2688,335.4766 1326.8156,335.8359 Z " fill="#000000"/><text fill="#000000" font-family="sans-serif" font-size="12" font-style="italic" lengthAdjust="spacing" textLength="82" x="1337.95" y="336.0664">&#171;ValueObject&#187;</text><text fill="#000000" font-family="sans-serif" font-size="14" lengthAdjust="spacing" textLength="52" x="1352.95" y="353.2363">Address</text><line style="stroke:#181818;stroke-width:0.5;" x1="1301.5" x2="1428.5" y1="361.3125" y2="361.3125"/><text fill="#000000" font-family="sans-serif" font-size="14" lengthAdjust="spacing" textLength="81" x="1306.5" y="379.8457">street: String</text><text fill="#000000" font-family="sans-serif" font-size="14" lengthAdjust="spacing" textLength="66" x="1306.5" y="397.4551">city: String</text><text fill="#000000" font-family="sans-serif" font-size="14" lengthAdjust="spacing" textLength="117" x="1306.5" y="415.0645">postalCode: String</text><text fill="#000000" font-family="sans-serif" font-size="14" lengthAdjust="spacing" textLength="92" x="1306.5" y="432.6738">country: String</text><line style="stroke:#181818;stroke-width:0.5;" x1="1301.5" x2="1428.5" y1="439.75" y2="439.75"/></g><!--class OrganizationRepresentative--><g id="elem_OrganizationRepresentative"><rect codeLine="83" fill="#F1F1F1" height="146.75" id="OrganizationRepresentative" rx="2.5" ry="2.5" style="stroke:#181818;stroke-width:0.5;" width="208" x="1465" y="309.6094"/><ellipse cx="1480" cy="330.9609" fill="#ADD1B2" rx="11" ry="11" style="stroke:#181818;stroke-width:1.0;"/><path d="M1482.7656,326.8359 Q1482.9219,326.6172 1483.1094,326.5078 Q1483.2969,326.3984 1483.5156,326.3984 Q1483.8906,326.3984 1484.125,326.6641 Q1484.3594,326.9141 1484.3594,327.5234 L1484.3594,328.9766 Q1484.3594,329.5859 1484.125,329.8516 Q1483.8906,330.1172 1483.5156,330.1172 Q1483.1719,330.1172 1482.9688,329.9141 Q1482.7656,329.7266 1482.6563,329.2109 Q1482.6094,328.8516 1482.4219,328.6641 Q1482.0938,328.2891 1481.4844,328.0703 Q1480.875,327.8516 1480.25,327.8516 Q1479.4844,327.8516 1478.8438,328.1797 Q1478.2188,328.5078 1477.7188,329.2578 Q1477.2344,330.0078 1477.2344,331.0391 L1477.2344,332.1328 Q1477.2344,333.3672 1478.125,334.1953 Q1479.0156,335.0078 1480.6094,335.0078 Q1481.5469,335.0078 1482.2031,334.7578 Q1482.5938,334.6016 1483.0156,334.1641 Q1483.2813,333.8984 1483.4219,333.8203 Q1483.5781,333.7422 1483.7813,333.7422 Q1484.1094,333.7422 1484.3594,334.0078 Q1484.625,334.2578 1484.625,334.6016 Q1484.625,334.9453 1484.2813,335.3516 Q1483.7813,335.9297 1482.9844,336.2578 Q1481.9063,336.7109 1480.6094,336.7109 Q1479.0938,336.7109 1477.8906,336.0859 Q1476.9063,335.5859 1476.2188,334.5234 Q1475.5313,333.4453 1475.5313,332.1641 L1475.5313,331.0078 Q1475.5313,329.6797 1476.1406,328.5391 Q1476.7656,327.3828 1477.8594,326.7734 Q1478.9531,326.1484 1480.1875,326.1484 Q1480.9219,326.1484 1481.5625,326.3203 Q1482.2188,326.4766 1482.7656,326.8359 Z " fill="#000000"/><text fill="#000000" font-family="sans-serif" font-size="12" font-style="italic" lengthAdjust="spacing" textLength="44" x="1560" y="327.0664">&#171;Entity&#187;</text><text fill="#000000" font-family="sans-serif" font-size="14" lengthAdjust="spacing" textLength="176" x="1494" y="344.2363">OrganizationRepresentative</text><line style="stroke:#181818;stroke-width:0.5;" x1="1466" x2="1672" y1="352.3125" y2="352.3125"/><text fill="#000000" font-family="sans-serif" font-size="14" lengthAdjust="spacing" textLength="80" x="1471" y="370.8457">name: String</text><text fill="#000000" font-family="sans-serif" font-size="14" lengthAdjust="spacing" textLength="36" x="1471" y="388.4551">ID: int</text><text fill="#000000" font-family="sans-serif" font-size="14" lengthAdjust="spacing" textLength="109" x="1471" y="406.0645">nationality: String</text><text fill="#000000" font-family="sans-serif" font-size="14" lengthAdjust="spacing" textLength="78" x="1471" y="423.6738">email: String</text><text fill="#000000" font-family="sans-serif" font-size="14" lengthAdjust="spacing" textLength="112" x="1471" y="441.2832">phoneNumber: int</text><line style="stroke:#181818;stroke-width:0.5;" x1="1466" x2="1672" y1="448.3594" y2="448.3594"/></g><!--class Dock--><g id="elem_Dock"><rect codeLine="93" fill="#F1F1F1" height="146.75" id="Dock" rx="2.5" ry="2.5" style="stroke:#181818;stroke-width:0.5;" width="161" x="1908.5" y="567.1094"/><ellipse cx="1923.5" cy="588.4609" fill="#ADD1B2" rx="11" ry="11" style="stroke:#181818;stroke-width:1.0;"/><path d="M1926.2656,584.3359 Q1926.4219,584.1172 1926.6094,584.0078 Q1926.7969,583.8984 1927.0156,583.8984 Q1927.3906,583.8984 1927.625,584.1641 Q1927.8594,584.4141 1927.8594,585.0234 L1927.8594,586.4766 Q1927.8594,587.0859 1927.625,587.3516 Q1927.3906,587.6172 1927.0156,587.6172 Q1926.6719,587.6172 1926.4688,587.4141 Q1926.2656,587.2266 1926.1563,586.7109 Q1926.1094,586.3516 1925.9219,586.1641 Q1925.5938,585.7891 1924.9844,585.5703 Q1924.375,585.3516 1923.75,585.3516 Q1922.9844,585.3516 1922.3438,585.6797 Q1921.7188,586.0078 1921.2188,586.7578 Q1920.7344,587.5078 1920.7344,588.5391 L1920.7344,589.6328 Q1920.7344,590.8672 1921.625,591.6953 Q1922.5156,592.5078 1924.1094,592.5078 Q1925.0469,592.5078 1925.7031,592.2578 Q1926.0938,592.1016 1926.5156,591.6641 Q1926.7813,591.3984 1926.9219,591.3203 Q1927.0781,591.2422 1927.2813,591.2422 Q1927.6094,591.2422 1927.8594,591.5078 Q1928.125,591.7578 1928.125,592.1016 Q1928.125,592.4453 1927.7813,592.8516 Q1927.2813,593.4297 1926.4844,593.7578 Q1925.4063,594.2109 1924.1094,594.2109 Q1922.5938,594.2109 1921.3906,593.5859 Q1920.4063,593.0859 1919.7188,592.0234 Q1919.0313,590.9453 1919.0313,589.6641 L1919.0313,588.5078 Q1919.0313,587.1797 1919.6406,586.0391 Q1920.2656,584.8828 1921.3594,584.2734 Q1922.4531,583.6484 1923.6875,583.6484 Q1924.4219,583.6484 1925.0625,583.8203 Q1925.7188,583.9766 1926.2656,584.3359 Z " fill="#000000"/><text fill="#000000" font-family="sans-serif" font-size="12" font-style="italic" lengthAdjust="spacing" textLength="133" x="1935.5" y="584.5664">&#171;Entity, AggregateRoot&#187;</text><text fill="#000000" font-family="sans-serif" font-size="14" lengthAdjust="spacing" textLength="32" x="1986" y="601.7363">Dock</text><line style="stroke:#181818;stroke-width:0.5;" x1="1909.5" x2="2068.5" y1="609.8125" y2="609.8125"/><text fill="#000000" font-family="sans-serif" font-size="14" lengthAdjust="spacing" textLength="36" x="1914.5" y="628.3457">ID: int</text><text fill="#000000" font-family="sans-serif" font-size="14" lengthAdjust="spacing" textLength="80" x="1914.5" y="645.9551">name: String</text><text fill="#000000" font-family="sans-serif" font-size="14" lengthAdjust="spacing" textLength="90" x="1914.5" y="663.5645">length: double</text><text fill="#000000" font-family="sans-serif" font-size="14" lengthAdjust="spacing" textLength="87" x="1914.5" y="681.1738">depth: double</text><text fill="#000000" font-family="sans-serif" font-size="14" lengthAdjust="spacing" textLength="79" x="1914.5" y="698.7832">maxDraft: int</text><line style="stroke:#181818;stroke-width:0.5;" x1="1909.5" x2="2068.5" y1="705.8594" y2="705.8594"/></g><!--class StorageArea--><g id="elem_StorageArea"><rect codeLine="101" fill="#F1F1F1" height="129.1406" id="StorageArea" rx="2.5" ry="2.5" style="stroke:#181818;stroke-width:0.5;" width="179" x="1899.5" y="318.6094"/><ellipse cx="1944.75" cy="339.9609" fill="#ADD1B2" rx="11" ry="11" style="stroke:#181818;stroke-width:1.0;"/><path d="M1947.5156,335.8359 Q1947.6719,335.6172 1947.8594,335.5078 Q1948.0469,335.3984 1948.2656,335.3984 Q1948.6406,335.3984 1948.875,335.6641 Q1949.1094,335.9141 1949.1094,336.5234 L1949.1094,337.9766 Q1949.1094,338.5859 1948.875,338.8516 Q1948.6406,339.1172 1948.2656,339.1172 Q1947.9219,339.1172 1947.7188,338.9141 Q1947.5156,338.7266 1947.4063,338.2109 Q1947.3594,337.8516 1947.1719,337.6641 Q1946.8438,337.2891 1946.2344,337.0703 Q1945.625,336.8516 1945,336.8516 Q1944.2344,336.8516 1943.5938,337.1797 Q1942.9688,337.5078 1942.4688,338.2578 Q1941.9844,339.0078 1941.9844,340.0391 L1941.9844,341.1328 Q1941.9844,342.3672 1942.875,343.1953 Q1943.7656,344.0078 1945.3594,344.0078 Q1946.2969,344.0078 1946.9531,343.7578 Q1947.3438,343.6016 1947.7656,343.1641 Q1948.0313,342.8984 1948.1719,342.8203 Q1948.3281,342.7422 1948.5313,342.7422 Q1948.8594,342.7422 1949.1094,343.0078 Q1949.375,343.2578 1949.375,343.6016 Q1949.375,343.9453 1949.0313,344.3516 Q1948.5313,344.9297 1947.7344,345.2578 Q1946.6563,345.7109 1945.3594,345.7109 Q1943.8438,345.7109 1942.6406,345.0859 Q1941.6563,344.5859 1940.9688,343.5234 Q1940.2813,342.4453 1940.2813,341.1641 L1940.2813,340.0078 Q1940.2813,338.6797 1940.8906,337.5391 Q1941.5156,336.3828 1942.6094,335.7734 Q1943.7031,335.1484 1944.9375,335.1484 Q1945.6719,335.1484 1946.3125,335.3203 Q1946.9688,335.4766 1947.5156,335.8359 Z " fill="#000000"/><text fill="#000000" font-family="sans-serif" font-size="12" font-style="italic" lengthAdjust="spacing" textLength="44" x="1983.25" y="336.0664">&#171;Entity&#187;</text><text fill="#000000" font-family="sans-serif" font-size="14" lengthAdjust="spacing" textLength="80" x="1965.25" y="353.2363">StorageArea</text><line style="stroke:#181818;stroke-width:0.5;" x1="1900.5" x2="2077.5" y1="361.3125" y2="361.3125"/><text fill="#000000" font-family="sans-serif" font-size="14" lengthAdjust="spacing" textLength="36" x="1905.5" y="379.8457">ID: int</text><text fill="#000000" font-family="sans-serif" font-size="14" lengthAdjust="spacing" textLength="72" x="1905.5" y="397.4551">type: String</text><text fill="#000000" font-family="sans-serif" font-size="14" lengthAdjust="spacing" textLength="131" x="1905.5" y="415.0645">maxCapacity: double</text><text fill="#000000" font-family="sans-serif" font-size="14" lengthAdjust="spacing" textLength="167" x="1905.5" y="432.6738">currentOccupancy: double</text><line style="stroke:#181818;stroke-width:0.5;" x1="1900.5" x2="2077.5" y1="439.75" y2="439.75"/></g><!--class Location--><g id="elem_Location"><rect codeLine="108" fill="#F1F1F1" height="93.9219" id="Location" rx="2.5" ry="2.5" style="stroke:#181818;stroke-width:0.5;" width="131" x="2031.5" y="857.6094"/><ellipse cx="2055.95" cy="878.9609" fill="#ADD1B2" rx="11" ry="11" style="stroke:#181818;stroke-width:1.0;"/><path d="M2058.7156,874.8359 Q2058.8719,874.6172 2059.0594,874.5078 Q2059.2469,874.3984 2059.4656,874.3984 Q2059.8406,874.3984 2060.075,874.6641 Q2060.3094,874.9141 2060.3094,875.5234 L2060.3094,876.9766 Q2060.3094,877.5859 2060.075,877.8516 Q2059.8406,878.1172 2059.4656,878.1172 Q2059.1219,878.1172 2058.9188,877.9141 Q2058.7156,877.7266 2058.6063,877.2109 Q2058.5594,876.8516 2058.3719,876.6641 Q2058.0438,876.2891 2057.4344,876.0703 Q2056.825,875.8516 2056.2,875.8516 Q2055.4344,875.8516 2054.7938,876.1797 Q2054.1688,876.5078 2053.6688,877.2578 Q2053.1844,878.0078 2053.1844,879.0391 L2053.1844,880.1328 Q2053.1844,881.3672 2054.075,882.1953 Q2054.9656,883.0078 2056.5594,883.0078 Q2057.4969,883.0078 2058.1531,882.7578 Q2058.5438,882.6016 2058.9656,882.1641 Q2059.2313,881.8984 2059.3719,881.8203 Q2059.5281,881.7422 2059.7313,881.7422 Q2060.0594,881.7422 2060.3094,882.0078 Q2060.575,882.2578 2060.575,882.6016 Q2060.575,882.9453 2060.2313,883.3516 Q2059.7313,883.9297 2058.9344,884.2578 Q2057.8563,884.7109 2056.5594,884.7109 Q2055.0438,884.7109 2053.8406,884.0859 Q2052.8563,883.5859 2052.1688,882.5234 Q2051.4813,881.4453 2051.4813,880.1641 L2051.4813,879.0078 Q2051.4813,877.6797 2052.0906,876.5391 Q2052.7156,875.3828 2053.8094,874.7734 Q2054.9031,874.1484 2056.1375,874.1484 Q2056.8719,874.1484 2057.5125,874.3203 Q2058.1688,874.4766 2058.7156,874.8359 Z " fill="#000000"/><text fill="#000000" font-family="sans-serif" font-size="12" font-style="italic" lengthAdjust="spacing" textLength="82" x="2070.05" y="875.0664">&#171;ValueObject&#187;</text><text fill="#000000" font-family="sans-serif" font-size="14" lengthAdjust="spacing" textLength="54" x="2084.05" y="892.2363">Location</text><line style="stroke:#181818;stroke-width:0.5;" x1="2032.5" x2="2161.5" y1="900.3125" y2="900.3125"/><text fill="#000000" font-family="sans-serif" font-size="14" lengthAdjust="spacing" textLength="119" x="2037.5" y="918.8457">coordinates: String</text><text fill="#000000" font-family="sans-serif" font-size="14" lengthAdjust="spacing" textLength="114" x="2037.5" y="936.4551">description: String</text><line style="stroke:#181818;stroke-width:0.5;" x1="2032.5" x2="2161.5" y1="943.5313" y2="943.5313"/></g><!--class StorageAreaType--><g id="elem_StorageAreaType"><rect codeLine="112" fill="#F1F1F1" height="118.4375" id="StorageAreaType" rx="2.5" ry="2.5" style="stroke:#181818;stroke-width:0.5;" width="144" x="1729" y="581.6094"/><ellipse cx="1744" cy="597.6094" fill="#EB937F" rx="11" ry="11" style="stroke:#181818;stroke-width:1.0;"/><path d="M1742.8594,598.4063 L1742.8594,600.9063 L1747.1875,600.9063 L1747.1875,599.9844 Q1747.1875,599.375 1747.4219,599.1094 Q1747.6719,598.8438 1748.0469,598.8438 Q1748.4219,598.8438 1748.6563,599.1094 Q1748.8906,599.375 1748.8906,599.9844 L1748.8906,602.6094 L1740.8906,602.6094 Q1740.2656,602.6094 1740,602.375 Q1739.75,602.1406 1739.75,601.75 Q1739.75,601.375 1740.0156,601.1406 Q1740.2813,600.9063 1740.8906,600.9063 L1741.1563,600.9063 L1741.1563,594.25 L1740.8906,594.25 Q1740.2656,594.25 1740,594.0156 Q1739.75,593.7813 1739.75,593.3906 Q1739.75,593.0156 1740,592.7813 Q1740.2656,592.5469 1740.8906,592.5469 L1748.5156,592.5469 L1748.5156,595.1406 Q1748.5156,595.75 1748.2813,596.0156 Q1748.0625,596.2656 1747.6719,596.2656 Q1747.2969,596.2656 1747.0625,596.0156 Q1746.8281,595.75 1746.8281,595.1406 L1746.8281,594.25 L1742.8594,594.25 L1742.8594,596.7031 L1744.3438,596.7031 Q1744.3438,596.0469 1744.4688,595.8594 Q1744.7344,595.4531 1745.2031,595.4531 Q1745.5781,595.4531 1745.8125,595.7188 Q1746.0469,595.9688 1746.0469,596.5781 L1746.0469,598.5469 Q1746.0469,599.0938 1745.9219,599.2813 Q1745.6563,599.6719 1745.2031,599.6719 Q1744.7344,599.6719 1744.4688,599.2656 Q1744.3438,599.0781 1744.3438,598.4063 L1742.8594,598.4063 Z " fill="#000000"/><text fill="#000000" font-family="sans-serif" font-size="14" lengthAdjust="spacing" textLength="112" x="1758" y="603.3379">StorageAreaType</text><line style="stroke:#181818;stroke-width:0.5;" x1="1730" x2="1872" y1="613.6094" y2="613.6094"/><text fill="#000000" font-family="sans-serif" font-size="14" lengthAdjust="spacing" textLength="34" x="1735" y="632.1426">Yard,</text><text fill="#000000" font-family="sans-serif" font-size="14" lengthAdjust="spacing" textLength="77" x="1735" y="649.752">Warehouse,</text><text fill="#000000" font-family="sans-serif" font-size="14" lengthAdjust="spacing" textLength="83" x="1735" y="667.3613">Refrigerated,</text><text fill="#000000" font-family="sans-serif" font-size="14" lengthAdjust="spacing" textLength="36" x="1735" y="684.9707">Other</text><line style="stroke:#181818;stroke-width:0.5;" x1="1730" x2="1872" y1="692.0469" y2="692.0469"/></g><!--class StaffMember--><g id="elem_StaffMember"><rect codeLine="122" fill="#F1F1F1" height="146.75" id="StaffMember" rx="2.5" ry="2.5" style="stroke:#181818;stroke-width:0.5;" width="177" x="2255.5" y="309.6094"/><ellipse cx="2277.7" cy="330.9609" fill="#ADD1B2" rx="11" ry="11" style="stroke:#181818;stroke-width:1.0;"/><path d="M2280.4656,326.8359 Q2280.6219,326.6172 2280.8094,326.5078 Q2280.9969,326.3984 2281.2156,326.3984 Q2281.5906,326.3984 2281.825,326.6641 Q2282.0594,326.9141 2282.0594,327.5234 L2282.0594,328.9766 Q2282.0594,329.5859 2281.825,329.8516 Q2281.5906,330.1172 2281.2156,330.1172 Q2280.8719,330.1172 2280.6688,329.9141 Q2280.4656,329.7266 2280.3563,329.2109 Q2280.3094,328.8516 2280.1219,328.6641 Q2279.7938,328.2891 2279.1844,328.0703 Q2278.575,327.8516 2277.95,327.8516 Q2277.1844,327.8516 2276.5438,328.1797 Q2275.9188,328.5078 2275.4188,329.2578 Q2274.9344,330.0078 2274.9344,331.0391 L2274.9344,332.1328 Q2274.9344,333.3672 2275.825,334.1953 Q2276.7156,335.0078 2278.3094,335.0078 Q2279.2469,335.0078 2279.9031,334.7578 Q2280.2938,334.6016 2280.7156,334.1641 Q2280.9813,333.8984 2281.1219,333.8203 Q2281.2781,333.7422 2281.4813,333.7422 Q2281.8094,333.7422 2282.0594,334.0078 Q2282.325,334.2578 2282.325,334.6016 Q2282.325,334.9453 2281.9813,335.3516 Q2281.4813,335.9297 2280.6844,336.2578 Q2279.6063,336.7109 2278.3094,336.7109 Q2276.7938,336.7109 2275.5906,336.0859 Q2274.6063,335.5859 2273.9188,334.5234 Q2273.2313,333.4453 2273.2313,332.1641 L2273.2313,331.0078 Q2273.2313,329.6797 2273.8406,328.5391 Q2274.4656,327.3828 2275.5594,326.7734 Q2276.6531,326.1484 2277.8875,326.1484 Q2278.6219,326.1484 2279.2625,326.3203 Q2279.9188,326.4766 2280.4656,326.8359 Z " fill="#000000"/><text fill="#000000" font-family="sans-serif" font-size="12" font-style="italic" lengthAdjust="spacing" textLength="133" x="2291.3" y="327.0664">&#171;Entity, AggregateRoot&#187;</text><text fill="#000000" font-family="sans-serif" font-size="14" lengthAdjust="spacing" textLength="80" x="2317.8" y="344.2363">StaffMember</text><line style="stroke:#181818;stroke-width:0.5;" x1="2256.5" x2="2431.5" y1="352.3125" y2="352.3125"/><text fill="#000000" font-family="sans-serif" font-size="14" lengthAdjust="spacing" textLength="36" x="2261.5" y="370.8457">ID: int</text><text fill="#000000" font-family="sans-serif" font-size="14" lengthAdjust="spacing" textLength="80" x="2261.5" y="388.4551">name: String</text><text fill="#000000" font-family="sans-serif" font-size="14" lengthAdjust="spacing" textLength="78" x="2261.5" y="406.0645">email: String</text><text fill="#000000" font-family="sans-serif" font-size="14" lengthAdjust="spacing" textLength="112" x="2261.5" y="423.6738">phoneNumber: int</text><text fill="#000000" font-family="sans-serif" font-size="14" lengthAdjust="spacing" textLength="165" x="2261.5" y="441.2832">operationalWindow: String</text><line style="stroke:#181818;stroke-width:0.5;" x1="2256.5" x2="2431.5" y1="448.3594" y2="448.3594"/></g><!--class MemberStatus--><g id="elem_MemberStatus"><rect codeLine="130" fill="#F1F1F1" height="65.6094" id="MemberStatus" rx="2.5" ry="2.5" style="stroke:#181818;stroke-width:0.5;" width="123" x="2255.5" y="607.6094"/><ellipse cx="2270.5" cy="623.6094" fill="#EB937F" rx="11" ry="11" style="stroke:#181818;stroke-width:1.0;"/><path d="M2269.3594,624.4063 L2269.3594,626.9063 L2273.6875,626.9063 L2273.6875,625.9844 Q2273.6875,625.375 2273.9219,625.1094 Q2274.1719,624.8438 2274.5469,624.8438 Q2274.9219,624.8438 2275.1563,625.1094 Q2275.3906,625.375 2275.3906,625.9844 L2275.3906,628.6094 L2267.3906,628.6094 Q2266.7656,628.6094 2266.5,628.375 Q2266.25,628.1406 2266.25,627.75 Q2266.25,627.375 2266.5156,627.1406 Q2266.7813,626.9063 2267.3906,626.9063 L2267.6563,626.9063 L2267.6563,620.25 L2267.3906,620.25 Q2266.7656,620.25 2266.5,620.0156 Q2266.25,619.7813 2266.25,619.3906 Q2266.25,619.0156 2266.5,618.7813 Q2266.7656,618.5469 2267.3906,618.5469 L2275.0156,618.5469 L2275.0156,621.1406 Q2275.0156,621.75 2274.7813,622.0156 Q2274.5625,622.2656 2274.1719,622.2656 Q2273.7969,622.2656 2273.5625,622.0156 Q2273.3281,621.75 2273.3281,621.1406 L2273.3281,620.25 L2269.3594,620.25 L2269.3594,622.7031 L2270.8438,622.7031 Q2270.8438,622.0469 2270.9688,621.8594 Q2271.2344,621.4531 2271.7031,621.4531 Q2272.0781,621.4531 2272.3125,621.7188 Q2272.5469,621.9688 2272.5469,622.5781 L2272.5469,624.5469 Q2272.5469,625.0938 2272.4219,625.2813 Q2272.1563,625.6719 2271.7031,625.6719 Q2271.2344,625.6719 2270.9688,625.2656 Q2270.8438,625.0781 2270.8438,624.4063 L2269.3594,624.4063 Z " fill="#000000"/><text fill="#000000" font-family="sans-serif" font-size="14" lengthAdjust="spacing" textLength="91" x="2284.5" y="629.3379">MemberStatus</text><line style="stroke:#181818;stroke-width:0.5;" x1="2256.5" x2="2377.5" y1="639.6094" y2="639.6094"/><text fill="#000000" font-family="sans-serif" font-size="14" lengthAdjust="spacing" textLength="80" x="2261.5" y="658.1426">name: String</text><line style="stroke:#181818;stroke-width:0.5;" x1="2256.5" x2="2377.5" y1="665.2188" y2="665.2188"/></g><!--class Qualification--><g id="elem_Qualification"><rect codeLine="136" fill="#F1F1F1" height="111.5313" id="Qualification" rx="2.5" ry="2.5" style="stroke:#181818;stroke-width:0.5;" width="161" x="2342.5" y="848.6094"/><ellipse cx="2357.5" cy="869.9609" fill="#ADD1B2" rx="11" ry="11" style="stroke:#181818;stroke-width:1.0;"/><path d="M2360.2656,865.8359 Q2360.4219,865.6172 2360.6094,865.5078 Q2360.7969,865.3984 2361.0156,865.3984 Q2361.3906,865.3984 2361.625,865.6641 Q2361.8594,865.9141 2361.8594,866.5234 L2361.8594,867.9766 Q2361.8594,868.5859 2361.625,868.8516 Q2361.3906,869.1172 2361.0156,869.1172 Q2360.6719,869.1172 2360.4688,868.9141 Q2360.2656,868.7266 2360.1563,868.2109 Q2360.1094,867.8516 2359.9219,867.6641 Q2359.5938,867.2891 2358.9844,867.0703 Q2358.375,866.8516 2357.75,866.8516 Q2356.9844,866.8516 2356.3438,867.1797 Q2355.7188,867.5078 2355.2188,868.2578 Q2354.7344,869.0078 2354.7344,870.0391 L2354.7344,871.1328 Q2354.7344,872.3672 2355.625,873.1953 Q2356.5156,874.0078 2358.1094,874.0078 Q2359.0469,874.0078 2359.7031,873.7578 Q2360.0938,873.6016 2360.5156,873.1641 Q2360.7813,872.8984 2360.9219,872.8203 Q2361.0781,872.7422 2361.2813,872.7422 Q2361.6094,872.7422 2361.8594,873.0078 Q2362.125,873.2578 2362.125,873.6016 Q2362.125,873.9453 2361.7813,874.3516 Q2361.2813,874.9297 2360.4844,875.2578 Q2359.4063,875.7109 2358.1094,875.7109 Q2356.5938,875.7109 2355.3906,875.0859 Q2354.4063,874.5859 2353.7188,873.5234 Q2353.0313,872.4453 2353.0313,871.1641 L2353.0313,870.0078 Q2353.0313,868.6797 2353.6406,867.5391 Q2354.2656,866.3828 2355.3594,865.7734 Q2356.4531,865.1484 2357.6875,865.1484 Q2358.4219,865.1484 2359.0625,865.3203 Q2359.7188,865.4766 2360.2656,865.8359 Z " fill="#000000"/><text fill="#000000" font-family="sans-serif" font-size="12" font-style="italic" lengthAdjust="spacing" textLength="133" x="2369.5" y="866.0664">&#171;Entity, AggregateRoot&#187;</text><text fill="#000000" font-family="sans-serif" font-size="14" lengthAdjust="spacing" textLength="78" x="2397" y="883.2363">Qualification</text><line style="stroke:#181818;stroke-width:0.5;" x1="2343.5" x2="2502.5" y1="891.3125" y2="891.3125"/><text fill="#000000" font-family="sans-serif" font-size="14" lengthAdjust="spacing" textLength="36" x="2348.5" y="909.8457">ID: int</text><text fill="#000000" font-family="sans-serif" font-size="14" lengthAdjust="spacing" textLength="80" x="2348.5" y="927.4551">name: String</text><text fill="#000000" font-family="sans-serif" font-size="14" lengthAdjust="spacing" textLength="114" x="2348.5" y="945.0645">description: String</text><line style="stroke:#181818;stroke-width:0.5;" x1="2343.5" x2="2502.5" y1="952.1406" y2="952.1406"/></g><!--class PhysicalResource--><g id="elem_PhysicalResource"><rect codeLine="144" fill="#F1F1F1" height="164.3594" id="PhysicalResource" rx="2.5" ry="2.5" style="stroke:#181818;stroke-width:0.5;" width="179" x="2560.5" y="558.6094"/><ellipse cx="2583.6" cy="579.9609" fill="#ADD1B2" rx="11" ry="11" style="stroke:#181818;stroke-width:1.0;"/><path d="M2586.3656,575.8359 Q2586.5219,575.6172 2586.7094,575.5078 Q2586.8969,575.3984 2587.1156,575.3984 Q2587.4906,575.3984 2587.725,575.6641 Q2587.9594,575.9141 2587.9594,576.5234 L2587.9594,577.9766 Q2587.9594,578.5859 2587.725,578.8516 Q2587.4906,579.1172 2587.1156,579.1172 Q2586.7719,579.1172 2586.5688,578.9141 Q2586.3656,578.7266 2586.2563,578.2109 Q2586.2094,577.8516 2586.0219,577.6641 Q2585.6938,577.2891 2585.0844,577.0703 Q2584.475,576.8516 2583.85,576.8516 Q2583.0844,576.8516 2582.4438,577.1797 Q2581.8188,577.5078 2581.3188,578.2578 Q2580.8344,579.0078 2580.8344,580.0391 L2580.8344,581.1328 Q2580.8344,582.3672 2581.725,583.1953 Q2582.6156,584.0078 2584.2094,584.0078 Q2585.1469,584.0078 2585.8031,583.7578 Q2586.1938,583.6016 2586.6156,583.1641 Q2586.8813,582.8984 2587.0219,582.8203 Q2587.1781,582.7422 2587.3813,582.7422 Q2587.7094,582.7422 2587.9594,583.0078 Q2588.225,583.2578 2588.225,583.6016 Q2588.225,583.9453 2587.8813,584.3516 Q2587.3813,584.9297 2586.5844,585.2578 Q2585.5063,585.7109 2584.2094,585.7109 Q2582.6938,585.7109 2581.4906,585.0859 Q2580.5063,584.5859 2579.8188,583.5234 Q2579.1313,582.4453 2579.1313,581.1641 L2579.1313,580.0078 Q2579.1313,578.6797 2579.7406,577.5391 Q2580.3656,576.3828 2581.4594,575.7734 Q2582.5531,575.1484 2583.7875,575.1484 Q2584.5219,575.1484 2585.1625,575.3203 Q2585.8188,575.4766 2586.3656,575.8359 Z " fill="#000000"/><text fill="#000000" font-family="sans-serif" font-size="12" font-style="italic" lengthAdjust="spacing" textLength="133" x="2597.4" y="576.0664">&#171;Entity, AggregateRoot&#187;</text><text fill="#000000" font-family="sans-serif" font-size="14" lengthAdjust="spacing" textLength="113" x="2607.4" y="593.2363">PhysicalResource</text><line style="stroke:#181818;stroke-width:0.5;" x1="2561.5" x2="2738.5" y1="601.3125" y2="601.3125"/><text fill="#000000" font-family="sans-serif" font-size="14" lengthAdjust="spacing" textLength="58" x="2566.5" y="619.8457">ID: String</text><text fill="#000000" font-family="sans-serif" font-size="14" lengthAdjust="spacing" textLength="80" x="2566.5" y="637.4551">name: String</text><text fill="#000000" font-family="sans-serif" font-size="14" lengthAdjust="spacing" textLength="114" x="2566.5" y="655.0645">description: String</text><text fill="#000000" font-family="sans-serif" font-size="14" lengthAdjust="spacing" textLength="149" x="2566.5" y="672.6738">operationalCapacity: int</text><text fill="#000000" font-family="sans-serif" font-size="14" lengthAdjust="spacing" textLength="111" x="2566.5" y="690.2832">setupTime: String</text><text fill="#000000" font-family="sans-serif" font-size="14" lengthAdjust="spacing" textLength="167" x="2566.5" y="707.8926">qualifRequirements: String</text><line style="stroke:#181818;stroke-width:0.5;" x1="2561.5" x2="2738.5" y1="714.9688" y2="714.9688"/></g><!--class ResourceStatus--><g id="elem_ResourceStatus"><rect codeLine="153" fill="#F1F1F1" height="65.6094" id="ResourceStatus" rx="2.5" ry="2.5" style="stroke:#181818;stroke-width:0.5;" width="133" x="2583.5" y="871.6094"/><ellipse cx="2598.5" cy="887.6094" fill="#EB937F" rx="11" ry="11" style="stroke:#181818;stroke-width:1.0;"/><path d="M2597.3594,888.4063 L2597.3594,890.9063 L2601.6875,890.9063 L2601.6875,889.9844 Q2601.6875,889.375 2601.9219,889.1094 Q2602.1719,888.8438 2602.5469,888.8438 Q2602.9219,888.8438 2603.1563,889.1094 Q2603.3906,889.375 2603.3906,889.9844 L2603.3906,892.6094 L2595.3906,892.6094 Q2594.7656,892.6094 2594.5,892.375 Q2594.25,892.1406 2594.25,891.75 Q2594.25,891.375 2594.5156,891.1406 Q2594.7813,890.9063 2595.3906,890.9063 L2595.6563,890.9063 L2595.6563,884.25 L2595.3906,884.25 Q2594.7656,884.25 2594.5,884.0156 Q2594.25,883.7813 2594.25,883.3906 Q2594.25,883.0156 2594.5,882.7813 Q2594.7656,882.5469 2595.3906,882.5469 L2603.0156,882.5469 L2603.0156,885.1406 Q2603.0156,885.75 2602.7813,886.0156 Q2602.5625,886.2656 2602.1719,886.2656 Q2601.7969,886.2656 2601.5625,886.0156 Q2601.3281,885.75 2601.3281,885.1406 L2601.3281,884.25 L2597.3594,884.25 L2597.3594,886.7031 L2598.8438,886.7031 Q2598.8438,886.0469 2598.9688,885.8594 Q2599.2344,885.4531 2599.7031,885.4531 Q2600.0781,885.4531 2600.3125,885.7188 Q2600.5469,885.9688 2600.5469,886.5781 L2600.5469,888.5469 Q2600.5469,889.0938 2600.4219,889.2813 Q2600.1563,889.6719 2599.7031,889.6719 Q2599.2344,889.6719 2598.9688,889.2656 Q2598.8438,889.0781 2598.8438,888.4063 L2597.3594,888.4063 Z " fill="#000000"/><text fill="#000000" font-family="sans-serif" font-size="14" lengthAdjust="spacing" textLength="101" x="2612.5" y="893.3379">ResourceStatus</text><line style="stroke:#181818;stroke-width:0.5;" x1="2584.5" x2="2715.5" y1="903.6094" y2="903.6094"/><text fill="#000000" font-family="sans-serif" font-size="14" lengthAdjust="spacing" textLength="80" x="2589.5" y="922.1426">name: String</text><line style="stroke:#181818;stroke-width:0.5;" x1="2584.5" x2="2715.5" y1="929.2188" y2="929.2188"/></g><!--link Vessel to VesselType--><g id="link_Vessel_VesselType"><path codeLine="158" d="M332.12,687.8494 C365.17,725.0094 408.4224,773.6461 447.7624,817.8761 " fill="none" id="Vessel-to-VesselType" style="stroke:#181818;stroke-width:1.0;"/><polygon fill="#181818" points="451.75,822.3594,448.7575,812.9762,448.427,818.6234,442.7798,818.2929,451.75,822.3594" style="stroke:#181818;stroke-width:1.0;"/><text fill="#000000" font-family="sans-serif" font-size="13" lengthAdjust="spacing" textLength="21" x="402" y="767.1045">has</text><text fill="#000000" font-family="sans-serif" font-size="13" lengthAdjust="spacing" textLength="5" x="332.5509" y="709.1428">*</text><text fill="#000000" font-family="sans-serif" font-size="13" lengthAdjust="spacing" textLength="7" x="438.0035" y="811.8163">1</text></g><!--link Vessel to Owner--><g id="link_Vessel_Owner"><path codeLine="159" d="M225.64,687.8994 C194.31,712.3494 157.84,744.3594 131,778.6094 C112.34,802.4194 99.3493,827.1488 88.4393,851.9088 " fill="none" id="Vessel-to-Owner" style="stroke:#181818;stroke-width:1.0;"/><polygon fill="#181818" points="86.02,857.3994,93.3094,850.7763,88.0361,852.8239,85.9886,847.5506,86.02,857.3994" style="stroke:#181818;stroke-width:1.0;"/><text fill="#000000" font-family="sans-serif" font-size="13" lengthAdjust="spacing" textLength="21" x="155" y="767.1045">has</text><text fill="#000000" font-family="sans-serif" font-size="13" lengthAdjust="spacing" textLength="5" x="211.5213" y="708.853">*</text><text fill="#000000" font-family="sans-serif" font-size="13" lengthAdjust="spacing" textLength="20" x="67.1979" y="846.8171">1..*</text></g><!--link Dock to VesselType--><g id="link_Dock_VesselType"><path codeLine="160" d="M1908.22,713.7394 C1902.28,717.1194 1896.18,720.1294 1890,722.6094 C1759.66,774.7994 1400.27,764.3394 1260,770.6094 C1243.35,771.3494 675.49,772.4494 660,778.6094 C635.56,788.3194 617.2861,800.6216 597.6661,818.3116 " fill="none" id="Dock-to-VesselType" style="stroke:#181818;stroke-width:1.0;"/><polygon fill="#181818" points="593.21,822.3294,602.5728,819.2734,596.9235,818.9812,597.2157,813.3319,593.21,822.3294" style="stroke:#181818;stroke-width:1.0;"/><text fill="#000000" font-family="sans-serif" font-size="13" lengthAdjust="spacing" textLength="21" x="1738" y="767.1045">has</text><text fill="#000000" font-family="sans-serif" font-size="13" lengthAdjust="spacing" textLength="5" x="1895.5426" y="717.2664">*</text><text fill="#000000" font-family="sans-serif" font-size="13" lengthAdjust="spacing" textLength="5" x="594.1514" y="811.7836">*</text></g><!--link Dock to Location--><g id="link_Dock_Location"><path codeLine="161" d="M2018.94,714.2394 C2037.79,759.9794 2059.2731,812.0923 2075.6031,851.7023 " fill="none" id="Dock-to-Location" style="stroke:#181818;stroke-width:1.0;"/><polygon fill="#181818" points="2077.89,857.2494,2078.1577,847.4042,2075.9843,852.6268,2070.7616,850.4533,2077.89,857.2494" style="stroke:#181818;stroke-width:1.0;"/><text fill="#000000" font-family="sans-serif" font-size="13" lengthAdjust="spacing" textLength="57" x="2041" y="767.1045">located at</text><text fill="#000000" font-family="sans-serif" font-size="13" lengthAdjust="spacing" textLength="7" x="2014.3774" y="735.2875">1</text><text fill="#000000" font-family="sans-serif" font-size="13" lengthAdjust="spacing" textLength="7" x="2067.5692" y="846.645">1</text></g><!--link StorageArea to Location--><g id="link_StorageArea_Location"><path codeLine="162" d="M2047.98,447.8394 C2063.28,467.8294 2077.97,490.9094 2087,514.6094 C2131.49,631.3994 2117.8119,776.6091 2106.3019,851.4591 " fill="none" id="StorageArea-to-Location" style="stroke:#181818;stroke-width:1.0;"/><polygon fill="#181818" points="2105.39,857.3894,2110.7114,849.1019,2106.1499,852.4475,2102.8044,847.886,2105.39,857.3894" style="stroke:#181818;stroke-width:1.0;"/><text fill="#000000" font-family="sans-serif" font-size="13" lengthAdjust="spacing" textLength="57" x="2119" y="646.1045">located at</text><text fill="#000000" font-family="sans-serif" font-size="13" lengthAdjust="spacing" textLength="7" x="2047.0481" y="469.3009">1</text><text fill="#000000" font-family="sans-serif" font-size="13" lengthAdjust="spacing" textLength="7" x="2099.1082" y="846.8056">1</text></g><!--link StorageArea to Dock--><g id="link_StorageArea_Dock"><path codeLine="163" d="M1989,447.9194 C1989,483.9894 1989,523.2094 1989,560.6794 " fill="none" id="StorageArea-to-Dock" style="stroke:#181818;stroke-width:1.0;"/><polygon fill="#181818" points="1989,566.6794,1993,557.6794,1989,561.6794,1985,557.6794,1989,566.6794" style="stroke:#181818;stroke-width:1.0;"/><text fill="#000000" font-family="sans-serif" font-size="13" lengthAdjust="spacing" textLength="37" x="1990" y="503.1045">serves</text><text fill="#000000" font-family="sans-serif" font-size="13" lengthAdjust="spacing" textLength="5" x="1983.7266" y="469.3896">*</text><text fill="#000000" font-family="sans-serif" font-size="13" lengthAdjust="spacing" textLength="5" x="1983.7539" y="556.1391">*</text></g><!--link ShippingAgentOrganization to OrganizationRepresentative--><g id="link_ShippingAgentOrganization_OrganizationRepresentative"><path codeLine="164" d="M1446.97,209.6594 C1468.71,240.3794 1491.4447,272.5012 1513.9847,304.3612 " fill="none" id="ShippingAgentOrganization-to-OrganizationRepresentative" style="stroke:#181818;stroke-width:1.0;"/><polygon fill="#181818" points="1517.45,309.2594,1515.5175,299.602,1514.5623,305.1776,1508.9866,304.2224,1517.45,309.2594" style="stroke:#181818;stroke-width:1.0;"/><text fill="#000000" font-family="sans-serif" font-size="13" lengthAdjust="spacing" textLength="21" x="1482" y="254.1045">has</text><text fill="#000000" font-family="sans-serif" font-size="13" lengthAdjust="spacing" textLength="7" x="1444.5058" y="231.1012">1</text><text fill="#000000" font-family="sans-serif" font-size="13" lengthAdjust="spacing" textLength="20" x="1491.3912" y="298.727">1..*</text></g><!--link ShippingAgentOrganization to Vessel--><g id="link_ShippingAgentOrganization_Vessel"><path codeLine="165" d="M1299.93,153.7194 C1118.92,168.5794 750.07,205.3594 637,265.6094 C488.88,344.5394 373.4485,506.8693 321.9685,588.2193 " fill="none" id="ShippingAgentOrganization-to-Vessel" style="stroke:#181818;stroke-width:1.0;"/><polygon fill="#181818" points="318.76,593.2894,326.9527,587.8232,321.4337,589.0643,320.1926,583.5453,318.76,593.2894" style="stroke:#181818;stroke-width:1.0;"/><text fill="#000000" font-family="sans-serif" font-size="13" lengthAdjust="spacing" textLength="21" x="638" y="388.6045">has</text><text fill="#000000" font-family="sans-serif" font-size="13" lengthAdjust="spacing" textLength="7" x="1284.8473" y="151.2693">1</text><text fill="#000000" font-family="sans-serif" font-size="13" lengthAdjust="spacing" textLength="5" x="317.4701" y="582.6909">*</text></g><!--link ShippingAgentOrganization to Address--><g id="link_ShippingAgentOrganization_Address"><path codeLine="166" d="M1392.04,209.6594 C1386.75,243.3894 1381.1994,278.7718 1375.9094,312.5118 " fill="none" id="ShippingAgentOrganization-to-Address" style="stroke:#181818;stroke-width:1.0;"/><polygon fill="#181818" points="1374.98,318.4394,1380.3258,310.1676,1375.7545,313.4997,1372.4223,308.9284,1374.98,318.4394" style="stroke:#181818;stroke-width:1.0;"/><text fill="#000000" font-family="sans-serif" font-size="13" lengthAdjust="spacing" textLength="57" x="1388" y="254.1045">located at</text><text fill="#000000" font-family="sans-serif" font-size="13" lengthAdjust="spacing" textLength="7" x="1383.5678" y="231.1012">1</text><text fill="#000000" font-family="sans-serif" font-size="13" lengthAdjust="spacing" textLength="20" x="1354.9777" y="307.5442">1..*</text></g><!--link VesselVisitNotification to Vessel--><g id="link_VesselVisitNotification_Vessel"><path codeLine="167" d="M897.91,429.4894 C745.38,482.2994 503.9698,565.8764 377.2598,609.7464 " fill="none" id="VesselVisitNotification-to-Vessel" style="stroke:#181818;stroke-width:1.0;"/><polygon fill="#181818" points="371.59,611.7094,381.4034,612.5447,376.3148,610.0735,378.786,604.985,371.59,611.7094" style="stroke:#181818;stroke-width:1.0;"/><text fill="#000000" font-family="sans-serif" font-size="13" lengthAdjust="spacing" textLength="21" x="728" y="503.1045">has</text><text fill="#000000" font-family="sans-serif" font-size="13" lengthAdjust="spacing" textLength="5" x="885.1868" y="429.2094">*</text><text fill="#000000" font-family="sans-serif" font-size="13" lengthAdjust="spacing" textLength="7" x="379.6048" y="605.7079">1</text></g><!--link VesselVisitNotification to Dock--><g id="link_VesselVisitNotification_Dock"><path codeLine="168" d="M1160.03,442.4494 C1199.17,457.4694 1242.67,471.8494 1284,480.6094 C1316.99,487.5994 1860.07,499.0794 1890,514.6094 C1912.98,526.5294 1928.7751,541.613 1944.1451,562.063 " fill="none" id="VesselVisitNotification-to-Dock" style="stroke:#181818;stroke-width:1.0;"/><polygon fill="#181818" points="1947.75,566.8594,1945.5402,557.2616,1944.7459,562.8624,1939.1451,562.0681,1947.75,566.8594" style="stroke:#181818;stroke-width:1.0;"/><text fill="#000000" font-family="sans-serif" font-size="13" lengthAdjust="spacing" textLength="49" x="1820" y="503.1045">happens</text><text fill="#000000" font-family="sans-serif" font-size="13" lengthAdjust="spacing" textLength="5" x="1168.167" y="443.0795">*</text><text fill="#000000" font-family="sans-serif" font-size="13" lengthAdjust="spacing" textLength="7" x="1936.3449" y="556.3368">1</text></g><!--link Vessel to Cargo--><g id="link_Vessel_Cargo"><path codeLine="169" d="M276.18,687.8494 C260.87,735.5894 238.9512,803.9456 223.6512,851.6856 " fill="none" id="Vessel-to-Cargo" style="stroke:#181818;stroke-width:1.0;"/><polygon fill="#181818" points="221.82,857.3994,228.3759,850.0495,223.346,852.6379,220.7576,847.608,221.82,857.3994" style="stroke:#181818;stroke-width:1.0;"/><text fill="#000000" font-family="sans-serif" font-size="13" lengthAdjust="spacing" textLength="21" x="256" y="767.1045">has</text><text fill="#000000" font-family="sans-serif" font-size="13" lengthAdjust="spacing" textLength="7" x="266.6038" y="709.1428">1</text><text fill="#000000" font-family="sans-serif" font-size="13" lengthAdjust="spacing" textLength="5" x="218.6295" y="846.8171">*</text></g><!--link LoadingCargoManifest to ManifestCargo--><g id="link_LoadingCargoManifest_ManifestCargo"><path codeLine="170" d="M1126.16,670.1494 C1079,715.2394 991.1365,799.2528 934.5165,853.3928 " fill="none" id="LoadingCargoManifest-to-ManifestCargo" style="stroke:#181818;stroke-width:1.0;"/><polygon fill="#181818" points="930.18,857.5394,939.4492,854.2105,933.7938,854.0839,933.9204,848.4284,930.18,857.5394" style="stroke:#181818;stroke-width:1.0;"/><text fill="#000000" font-family="sans-serif" font-size="13" lengthAdjust="spacing" textLength="21" x="1037" y="767.1045">has</text><text fill="#000000" font-family="sans-serif" font-size="13" lengthAdjust="spacing" textLength="7" x="1112.2836" y="691.454">1</text><text fill="#000000" font-family="sans-serif" font-size="13" lengthAdjust="spacing" textLength="5" x="932.1747" y="846.6348">*</text></g><!--link UnloadingCargoManifest to ManifestCargo--><g id="link_UnloadingCargoManifest_ManifestCargo"><path codeLine="171" d="M782.2,670.1494 C801.48,715.2394 836.8019,797.8822 859.9419,852.0222 " fill="none" id="UnloadingCargoManifest-to-ManifestCargo" style="stroke:#181818;stroke-width:1.0;"/><polygon fill="#181818" points="862.3,857.5394,862.441,847.6915,860.3349,852.9417,855.0847,850.8357,862.3,857.5394" style="stroke:#181818;stroke-width:1.0;"/><text fill="#000000" font-family="sans-serif" font-size="13" lengthAdjust="spacing" textLength="21" x="824" y="767.1045">has</text><text fill="#000000" font-family="sans-serif" font-size="13" lengthAdjust="spacing" textLength="7" x="776.9944" y="691.454">1</text><text fill="#000000" font-family="sans-serif" font-size="13" lengthAdjust="spacing" textLength="5" x="853.9006" y="846.6348">*</text></g><!--link VesselVisitNotification to LoadingCargoManifest--><g id="link_VesselVisitNotification_LoadingCargoManifest"><path codeLine="172" d="M1060.72,447.9194 C1086.73,500.2494 1119.6493,566.4765 1139.1393,605.6865 " fill="none" id="VesselVisitNotification-to-LoadingCargoManifest" style="stroke:#181818;stroke-width:1.0;"/><polygon fill="#181818" points="1141.81,611.0594,1141.3859,601.2197,1139.5844,606.582,1134.2221,604.7805,1141.81,611.0594" style="stroke:#181818;stroke-width:1.0;"/><text fill="#000000" font-family="sans-serif" font-size="13" lengthAdjust="spacing" textLength="21" x="1090" y="503.1045">has</text><text fill="#000000" font-family="sans-serif" font-size="13" lengthAdjust="spacing" textLength="7" x="1056.8066" y="469.3896">1</text><text fill="#000000" font-family="sans-serif" font-size="13" lengthAdjust="spacing" textLength="22" x="1114.2997" y="600.4114">0..1</text></g><!--link VesselVisitNotification to UnloadingCargoManifest--><g id="link_VesselVisitNotification_UnloadingCargoManifest"><path codeLine="173" d="M953.23,447.7694 C929.55,468.4994 903.69,491.9994 881,514.6094 C849.34,546.1594 819.4673,580.402 797.6073,606.332 " fill="none" id="VesselVisitNotification-to-UnloadingCargoManifest" style="stroke:#181818;stroke-width:1.0;"/><polygon fill="#181818" points="793.74,610.9194,802.5992,606.6166,796.9628,607.0966,796.4827,601.4601,793.74,610.9194" style="stroke:#181818;stroke-width:1.0;"/><text fill="#000000" font-family="sans-serif" font-size="13" lengthAdjust="spacing" textLength="21" x="906" y="503.1045">has</text><text fill="#000000" font-family="sans-serif" font-size="13" lengthAdjust="spacing" textLength="7" x="937.5598" y="469.2232">1</text><text fill="#000000" font-family="sans-serif" font-size="13" lengthAdjust="spacing" textLength="22" x="774.5269" y="600.2407">0..1</text></g><!--link VesselVisitNotification to NotificationState--><g id="link_VesselVisitNotification_NotificationState"><path codeLine="174" d="M1013.26,447.9194 C1000.76,498.6194 985.237,561.594 975.397,601.484 " fill="none" id="VesselVisitNotification-to-NotificationState" style="stroke:#181818;stroke-width:1.0;"/><polygon fill="#181818" points="973.96,607.3094,979.9991,599.5293,975.1575,602.4549,972.2319,597.6133,973.96,607.3094" style="stroke:#181818;stroke-width:1.0;"/><text fill="#000000" font-family="sans-serif" font-size="13" lengthAdjust="spacing" textLength="21" x="1005" y="503.1045">has</text><text fill="#000000" font-family="sans-serif" font-size="13" lengthAdjust="spacing" textLength="5" x="1006.265" y="469.3896">*</text><text fill="#000000" font-family="sans-serif" font-size="13" lengthAdjust="spacing" textLength="7" x="967.8381" y="596.7466">1</text></g><!--link Vessel to Crew--><g id="link_Vessel_Crew"><path codeLine="175" d="M298.94,687.8494 C307.67,738.6794 320.515,813.4258 328.575,860.3858 " fill="none" id="Vessel-to-Crew" style="stroke:#181818;stroke-width:1.0;"/><polygon fill="#181818" points="329.59,866.2994,332.0099,856.7524,328.7442,861.3714,324.1252,858.1057,329.59,866.2994" style="stroke:#181818;stroke-width:1.0;"/><text fill="#000000" font-family="sans-serif" font-size="13" lengthAdjust="spacing" textLength="21" x="314" y="767.1045">has</text><text fill="#000000" font-family="sans-serif" font-size="13" lengthAdjust="spacing" textLength="7" x="292.5644" y="709.1428">1</text><text fill="#000000" font-family="sans-serif" font-size="13" lengthAdjust="spacing" textLength="7" x="320.8867" y="855.8383">1</text></g><!--link Crew to CrewMember--><g id="link_Crew_CrewMember"><path codeLine="176" d="M331.21,942.6794 C326.88,976.1794 321.1886,1020.2688 316.0286,1060.2188 " fill="none" id="Crew-to-CrewMember" style="stroke:#181818;stroke-width:1.0;"/><polygon fill="#181818" points="315.26,1066.1694,320.3799,1057.7559,315.9005,1061.2106,312.4458,1056.7311,315.26,1066.1694" style="stroke:#181818;stroke-width:1.0;"/><text fill="#000000" font-family="sans-serif" font-size="13" lengthAdjust="spacing" textLength="21" x="322" y="1033.1045">has</text><text fill="#000000" font-family="sans-serif" font-size="13" lengthAdjust="spacing" textLength="7" x="322.7333" y="964.3842">1</text><text fill="#000000" font-family="sans-serif" font-size="13" lengthAdjust="spacing" textLength="5" x="310.89" y="1055.6982">*</text></g><!--link ShippingAgentOrganization to VesselVisitNotification--><g id="link_ShippingAgentOrganization_VesselVisitNotification"><path codeLine="177" d="M1301.55,209.6594 C1248.26,243.3894 1188.0202,281.4911 1134.7002,315.2311 " fill="none" id="ShippingAgentOrganization-to-VesselVisitNotification" style="stroke:#181818;stroke-width:1.0;"/><polygon fill="#181818" points="1129.63,318.4394,1139.3741,317.007,1133.8551,315.7658,1135.0964,310.2468,1129.63,318.4394" style="stroke:#181818;stroke-width:1.0;"/><text fill="#000000" font-family="sans-serif" font-size="13" lengthAdjust="spacing" textLength="46" x="1250" y="254.1045">submits</text><text fill="#000000" font-family="sans-serif" font-size="13" lengthAdjust="spacing" textLength="7" x="1284.9671" y="229.8524">1</text><text fill="#000000" font-family="sans-serif" font-size="13" lengthAdjust="spacing" textLength="5" x="1135.9763" y="307.5442">*</text></g><!--link StaffMember to PhysicalResource--><g id="link_StaffMember_PhysicalResource"><path codeLine="178" d="M2432.81,454.1994 C2447,465.6094 2461.45,477.3694 2475,488.6094 C2502.95,511.7994 2528.4704,533.5461 2555.6504,557.0361 " fill="none" id="StaffMember-to-PhysicalResource" style="stroke:#181818;stroke-width:1.0;"/><polygon fill="#181818" points="2560.19,560.9594,2555.9961,552.0481,2556.407,557.69,2550.7651,558.1008,2560.19,560.9594" style="stroke:#181818;stroke-width:1.0;"/><text fill="#000000" font-family="sans-serif" font-size="13" lengthAdjust="spacing" textLength="28" x="2495" y="503.1045">uses</text><text fill="#000000" font-family="sans-serif" font-size="13" lengthAdjust="spacing" textLength="5" x="2440.3716" y="456.944">*</text><text fill="#000000" font-family="sans-serif" font-size="13" lengthAdjust="spacing" textLength="5" x="2547.5456" y="551.1957">*</text></g><!--link StaffMember to Dock--><g id="link_StaffMember_Dock"><path codeLine="179" d="M2255.42,456.7394 C2242.33,465.5494 2228.65,473.8194 2215,480.6094 C2166.13,504.9094 2142.97,485.1894 2097,514.6094 C2075.5,528.3694 2059.7858,543.0977 2043.3558,562.4277 " fill="none" id="StaffMember-to-Dock" style="stroke:#181818;stroke-width:1.0;"/><polygon fill="#181818" points="2039.47,566.9994,2048.3465,562.7324,2042.7082,563.1896,2042.2509,557.5513,2039.47,566.9994" style="stroke:#181818;stroke-width:1.0;"/><text fill="#000000" font-family="sans-serif" font-size="13" lengthAdjust="spacing" textLength="34" x="2195" y="503.1045">works</text><text fill="#000000" font-family="sans-serif" font-size="13" lengthAdjust="spacing" textLength="5" x="2242.5928" y="459.9004">*</text><text fill="#000000" font-family="sans-serif" font-size="13" lengthAdjust="spacing" textLength="5" x="2039.4169" y="556.1095">*</text></g><!--link StaffMember to Qualification--><g id="link_StaffMember_Qualification"><path codeLine="180" d="M2377.52,456.6794 C2384.79,475.2094 2391.61,495.3494 2396,514.6094 C2422.61,631.2694 2425.407,766.2697 2424.557,842.3897 " fill="none" id="StaffMember-to-Qualification" style="stroke:#181818;stroke-width:1.0;"/><polygon fill="#181818" points="2424.49,848.3894,2428.5902,839.4346,2424.5458,843.3897,2420.5907,839.3453,2424.49,848.3894" style="stroke:#181818;stroke-width:1.0;"/><text fill="#000000" font-family="sans-serif" font-size="13" lengthAdjust="spacing" textLength="21" x="2423" y="646.1045">has</text><text fill="#000000" font-family="sans-serif" font-size="13" lengthAdjust="spacing" textLength="5" x="2375.4766" y="477.9778">*</text><text fill="#000000" font-family="sans-serif" font-size="13" lengthAdjust="spacing" textLength="5" x="2419.3606" y="837.7089">*</text></g><!--link StaffMember to MemberStatus--><g id="link_StaffMember_MemberStatus"><path codeLine="181" d="M2336.34,456.6394 C2331.08,506.3594 2325.0012,563.9327 2321.0212,601.5527 " fill="none" id="StaffMember-to-MemberStatus" style="stroke:#181818;stroke-width:1.0;"/><polygon fill="#181818" points="2320.39,607.5194,2325.3147,598.9902,2320.916,602.5471,2317.3591,598.1485,2320.39,607.5194" style="stroke:#181818;stroke-width:1.0;"/><text fill="#000000" font-family="sans-serif" font-size="13" lengthAdjust="spacing" textLength="21" x="2334" y="503.1045">has</text><text fill="#000000" font-family="sans-serif" font-size="13" lengthAdjust="spacing" textLength="5" x="2330.3716" y="477.934">*</text><text fill="#000000" font-family="sans-serif" font-size="13" lengthAdjust="spacing" textLength="7" x="2313.3673" y="596.6162">1</text></g><!--link PhysicalResource to Qualification--><g id="link_PhysicalResource_Qualification"><path codeLine="182" d="M2579.73,722.7094 C2544.31,763.5894 2506.2185,807.5543 2474.6085,844.0443 " fill="none" id="PhysicalResource-to-Qualification" style="stroke:#181818;stroke-width:1.0;"/><polygon fill="#181818" points="2470.68,848.5794,2479.5962,844.3958,2473.9538,844.8002,2473.5495,839.1578,2470.68,848.5794" style="stroke:#181818;stroke-width:1.0;"/><text fill="#000000" font-family="sans-serif" font-size="13" lengthAdjust="spacing" textLength="21" x="2551" y="767.1045">has</text><text fill="#000000" font-family="sans-serif" font-size="13" lengthAdjust="spacing" textLength="5" x="2568.0215" y="744.5102">*</text><text fill="#000000" font-family="sans-serif" font-size="13" lengthAdjust="spacing" textLength="5" x="2471.4687" y="837.9232">*</text></g><!--link PhysicalResource to ResourceStatus--><g id="link_PhysicalResource_ResourceStatus"><path codeLine="183" d="M2650,722.7094 C2650,772.9094 2650,828.5994 2650,865.4194 " fill="none" id="PhysicalResource-to-ResourceStatus" style="stroke:#181818;stroke-width:1.0;"/><polygon fill="#181818" points="2650,871.4194,2654,862.4194,2650,866.4194,2646,862.4194,2650,871.4194" style="stroke:#181818;stroke-width:1.0;"/><text fill="#000000" font-family="sans-serif" font-size="13" lengthAdjust="spacing" textLength="21" x="2651" y="767.1045">has</text><text fill="#000000" font-family="sans-serif" font-size="13" lengthAdjust="spacing" textLength="5" x="2644.7695" y="744.5102">*</text><text fill="#000000" font-family="sans-serif" font-size="13" lengthAdjust="spacing" textLength="7" x="2642.3109" y="860.8783">1</text></g><!--link StorageArea to StorageAreaType--><g id="link_StorageArea_StorageAreaType"><path codeLine="184" d="M1940.89,447.6394 C1924.92,468.8694 1907.11,492.6994 1891,514.6094 C1875,536.3694 1861.1212,555.5468 1845.9312,576.6868 " fill="none" id="StorageArea-to-StorageAreaType" style="stroke:#181818;stroke-width:1.0;"/><polygon fill="#181818" points="1842.43,581.5594,1850.9301,576.5846,1845.3476,577.4989,1844.4333,571.9164,1842.43,581.5594" style="stroke:#181818;stroke-width:1.0;"/><text fill="#000000" font-family="sans-serif" font-size="13" lengthAdjust="spacing" textLength="25" x="1911" y="503.1045">type</text><text fill="#000000" font-family="sans-serif" font-size="13" lengthAdjust="spacing" textLength="7" x="1928.2452" y="469.079">1</text><text fill="#000000" font-family="sans-serif" font-size="13" lengthAdjust="spacing" textLength="7" x="1840.0527" y="570.8775">1</text></g><!--SRC=[hLTRRzis57xNho2yjo8DrbUZo90bUoYmn9lJfTWZBHt9N2XIvQMk5-I_xuYo9KeaRRcOdYJoNBzpbM660xcNDMM2FCW2U9OrD7-X5P35CsWDdDnMbOAA6bYGrupWatEgDJdSVlpucp3CxAy6khMKvkQcessVJmyhOUiDg2LXmlJ7WjQm94z6CL6vmxVC4x_Q2L2zT5zSmETqt0_2HtBkgAeaodcct09PRVw1V6JSvtqJIllJKgTsIGffDnmYOXNiFEl8wmnBaEK1MXpECoRz5DGmAIXtnatk2iH-LVxAbDbES7qBejgwVJgoZc8s_WNeNB6cDIwuooagdwBPFZNzpcfRFxhaM9LhkTDZ23PqFpan39Js0GvTUsQQcKTfMCboXzPfFqFoP4gV29Q2Dh6GUmrK3nZyGdvgiAg8ng0Boxc7LuvwfVZCQdWoj6uYY7OKAsjo6QyKmB8YlkaeoS3hp0fxe8ALeCsv2Z6n2lbwja9-bxH03YVzg2gY9MJyI_2BMFqCUDgofa7Msmg4MQaAcVyzcGDfXZcDRP847AduOwmyA3VHSqE_FqvQumYBsw9GcAL7vyFWQAC0J5XoiVxGI6qelyDy3Ecb5KRjJxHZ3verD6WKueLVt-37UlIvNWOuaNZemLOA207pC-0FgGpv94f54HgR6wkIVUvUvYy_4kQeSnn4rVRTIOihe8cSOkExLxGqYQW_6QdGcLi5D8hkrA1eXQAEkrJZpQrIRRxdkMseo4zMSTyK4ncOIwcmMX4tFNigl0tjo_FLJPn1SFlyJLLnDNoExhvG1LjfDLo5Tsie5Qj0eLN5rUXcPRQW-XFqzSqnUot4qB9icoD-rGXIidEqT9DvVid4Y6RH1MdVFh9fNNH5z8M9GkwIKw8pj9qFLfyS45CuS1NYPoVfcEZ_AgbqzemAVhlNg9bZpBMqAa-M-v6mfvjfPx21NRZ-U44Q2j9tNeEnJRi8nAOiuhg6hvOfbumw6U2ZLtD2d6M7vNtnRa7UlxyXYmyBV-jRaYtL92IwliRNRZ5t99dheFtzkr38WUB3eAPlA4l2srSe23MPt_4kfFQqEsNBTjdw1ZfBZ_P1G-THUhPrJioGrFi-dwLJVfpm8mTJcsaOhuEwEGm7TBQqQK3eFhgU1zqcs4cChcy-yNXzx9WIgzivjgJrHxwVhwzTCaHaNoGXOTzy38DbUyGxIbttXzZTkjSHqCEluEKP5bg8AMytDJCennjAVcK4lMz9S72cwG-vifFg9Kqqxle7HsAqw88_VmwaWKtdPASPKC6u__NMnDlATEbOkXNgFm00]--></g></svg>