<?xml version="1.0" encoding="us-ascii" standalone="no"?><svg xmlns="http://www.w3.org/2000/svg" xmlns:xlink="http://www.w3.org/1999/xlink" contentStyleType="text/css" height="1132px" preserveAspectRatio="none" style="width:882px;height:1132px;background:#FFFFFF;" version="1.1" viewBox="0 0 882 1132" width="882px" zoomAndPan="magnify"><defs/><g><text fill="#000000" font-family="sans-serif" font-size="14" font-weight="bold" lengthAdjust="spacing" textLength="100" x="384.42" y="24.5332">Domain Model</text><!--class Vessel--><g id="elem_Vessel"><rect codeLine="3" fill="#F1F1F1" height="83.2188" id="Vessel" rx="2.5" ry="2.5" style="stroke:#181818;stroke-width:0.5;" width="108" x="190.84" y="286.1094"/><ellipse cx="221.14" cy="302.1094" fill="#ADD1B2" rx="11" ry="11" style="stroke:#181818;stroke-width:1.0;"/><path d="M223.9056,297.9844 Q224.0619,297.7656 224.2494,297.6563 Q224.4369,297.5469 224.6556,297.5469 Q225.0306,297.5469 225.265,297.8125 Q225.4994,298.0625 225.4994,298.6719 L225.4994,300.125 Q225.4994,300.7344 225.265,301 Q225.0306,301.2656 224.6556,301.2656 Q224.3119,301.2656 224.1088,301.0625 Q223.9056,300.875 223.7963,300.3594 Q223.7494,300 223.5619,299.8125 Q223.2338,299.4375 222.6244,299.2188 Q222.015,299 221.39,299 Q220.6244,299 219.9838,299.3281 Q219.3588,299.6563 218.8588,300.4063 Q218.3744,301.1563 218.3744,302.1875 L218.3744,303.2813 Q218.3744,304.5156 219.265,305.3438 Q220.1556,306.1563 221.7494,306.1563 Q222.6869,306.1563 223.3431,305.9063 Q223.7338,305.75 224.1556,305.3125 Q224.4213,305.0469 224.5619,304.9688 Q224.7181,304.8906 224.9213,304.8906 Q225.2494,304.8906 225.4994,305.1563 Q225.765,305.4063 225.765,305.75 Q225.765,306.0938 225.4213,306.5 Q224.9213,307.0781 224.1244,307.4063 Q223.0463,307.8594 221.7494,307.8594 Q220.2338,307.8594 219.0306,307.2344 Q218.0463,306.7344 217.3588,305.6719 Q216.6713,304.5938 216.6713,303.3125 L216.6713,302.1563 Q216.6713,300.8281 217.2806,299.6875 Q217.9056,298.5313 218.9994,297.9219 Q220.0931,297.2969 221.3275,297.2969 Q222.0619,297.2969 222.7025,297.4688 Q223.3588,297.625 223.9056,297.9844 Z " fill="#000000"/><text fill="#000000" font-family="sans-serif" font-size="14" lengthAdjust="spacing" textLength="42" x="238.54" y="307.8379">Vessel</text><line style="stroke:#181818;stroke-width:0.5;" x1="191.84" x2="297.84" y1="318.1094" y2="318.1094"/><text fill="#000000" font-family="sans-serif" font-size="14" lengthAdjust="spacing" textLength="96" x="196.84" y="336.6426">IMOnumber: int</text><text fill="#000000" font-family="sans-serif" font-size="14" lengthAdjust="spacing" textLength="80" x="196.84" y="354.252">name: String</text><line style="stroke:#181818;stroke-width:0.5;" x1="191.84" x2="297.84" y1="361.3281" y2="361.3281"/></g><!--class VesselType--><g id="elem_VesselType"><rect codeLine="8" fill="#F1F1F1" height="153.6563" id="VesselType" rx="2.5" ry="2.5" style="stroke:#181818;stroke-width:0.5;" width="191" x="446.34" y="971.6094"/><ellipse cx="500.59" cy="987.6094" fill="#ADD1B2" rx="11" ry="11" style="stroke:#181818;stroke-width:1.0;"/><path d="M503.3556,983.4844 Q503.5119,983.2656 503.6994,983.1563 Q503.8869,983.0469 504.1056,983.0469 Q504.4806,983.0469 504.715,983.3125 Q504.9494,983.5625 504.9494,984.1719 L504.9494,985.625 Q504.9494,986.2344 504.715,986.5 Q504.4806,986.7656 504.1056,986.7656 Q503.7619,986.7656 503.5588,986.5625 Q503.3556,986.375 503.2463,985.8594 Q503.1994,985.5 503.0119,985.3125 Q502.6838,984.9375 502.0744,984.7188 Q501.465,984.5 500.84,984.5 Q500.0744,984.5 499.4338,984.8281 Q498.8088,985.1563 498.3088,985.9063 Q497.8244,986.6563 497.8244,987.6875 L497.8244,988.7813 Q497.8244,990.0156 498.715,990.8438 Q499.6056,991.6563 501.1994,991.6563 Q502.1369,991.6563 502.7931,991.4063 Q503.1838,991.25 503.6056,990.8125 Q503.8713,990.5469 504.0119,990.4688 Q504.1681,990.3906 504.3713,990.3906 Q504.6994,990.3906 504.9494,990.6563 Q505.215,990.9063 505.215,991.25 Q505.215,991.5938 504.8713,992 Q504.3713,992.5781 503.5744,992.9063 Q502.4963,993.3594 501.1994,993.3594 Q499.6838,993.3594 498.4806,992.7344 Q497.4963,992.2344 496.8088,991.1719 Q496.1213,990.0938 496.1213,988.8125 L496.1213,987.6563 Q496.1213,986.3281 496.7306,985.1875 Q497.3556,984.0313 498.4494,983.4219 Q499.5431,982.7969 500.7775,982.7969 Q501.5119,982.7969 502.1525,982.9688 Q502.8088,983.125 503.3556,983.4844 Z " fill="#000000"/><text fill="#000000" font-family="sans-serif" font-size="14" lengthAdjust="spacing" textLength="74" x="521.09" y="993.3379">VesselType</text><line style="stroke:#181818;stroke-width:0.5;" x1="447.34" x2="636.34" y1="1003.6094" y2="1003.6094"/><text fill="#000000" font-family="sans-serif" font-size="14" lengthAdjust="spacing" textLength="80" x="452.34" y="1022.1426">name: String</text><text fill="#000000" font-family="sans-serif" font-size="14" lengthAdjust="spacing" textLength="114" x="452.34" y="1039.752">description: String</text><text fill="#000000" font-family="sans-serif" font-size="14" lengthAdjust="spacing" textLength="103" x="452.34" y="1057.3613">capacity: double</text><text fill="#000000" font-family="sans-serif" font-size="14" lengthAdjust="spacing" textLength="179" x="452.34" y="1074.9707">maximumNumberOfRows: int</text><text fill="#000000" font-family="sans-serif" font-size="14" lengthAdjust="spacing" textLength="53" x="452.34" y="1092.5801">bays: int</text><text fill="#000000" font-family="sans-serif" font-size="14" lengthAdjust="spacing" textLength="50" x="452.34" y="1110.1895">tiers: int</text><line style="stroke:#181818;stroke-width:0.5;" x1="447.34" x2="636.34" y1="1117.2656" y2="1117.2656"/></g><!--class Owner--><g id="elem_Owner"><rect codeLine="17" fill="#F1F1F1" height="83.2188" id="Owner" rx="2.5" ry="2.5" style="stroke:#181818;stroke-width:0.5;" width="92" x="94.84" y="517.6094"/><ellipse cx="118.39" cy="533.6094" fill="#ADD1B2" rx="11" ry="11" style="stroke:#181818;stroke-width:1.0;"/><path d="M121.1556,529.4844 Q121.3119,529.2656 121.4994,529.1563 Q121.6869,529.0469 121.9056,529.0469 Q122.2806,529.0469 122.515,529.3125 Q122.7494,529.5625 122.7494,530.1719 L122.7494,531.625 Q122.7494,532.2344 122.515,532.5 Q122.2806,532.7656 121.9056,532.7656 Q121.5619,532.7656 121.3588,532.5625 Q121.1556,532.375 121.0463,531.8594 Q120.9994,531.5 120.8119,531.3125 Q120.4838,530.9375 119.8744,530.7188 Q119.265,530.5 118.64,530.5 Q117.8744,530.5 117.2338,530.8281 Q116.6088,531.1563 116.1088,531.9063 Q115.6244,532.6563 115.6244,533.6875 L115.6244,534.7813 Q115.6244,536.0156 116.515,536.8438 Q117.4056,537.6563 118.9994,537.6563 Q119.9369,537.6563 120.5931,537.4063 Q120.9838,537.25 121.4056,536.8125 Q121.6713,536.5469 121.8119,536.4688 Q121.9681,536.3906 122.1713,536.3906 Q122.4994,536.3906 122.7494,536.6563 Q123.015,536.9063 123.015,537.25 Q123.015,537.5938 122.6713,538 Q122.1713,538.5781 121.3744,538.9063 Q120.2963,539.3594 118.9994,539.3594 Q117.4838,539.3594 116.2806,538.7344 Q115.2963,538.2344 114.6088,537.1719 Q113.9213,536.0938 113.9213,534.8125 L113.9213,533.6563 Q113.9213,532.3281 114.5306,531.1875 Q115.1556,530.0313 116.2494,529.4219 Q117.3431,528.7969 118.5775,528.7969 Q119.3119,528.7969 119.9525,528.9688 Q120.6088,529.125 121.1556,529.4844 Z " fill="#000000"/><text fill="#000000" font-family="sans-serif" font-size="14" lengthAdjust="spacing" textLength="41" x="134.29" y="539.3379">Owner</text><line style="stroke:#181818;stroke-width:0.5;" x1="95.84" x2="185.84" y1="549.6094" y2="549.6094"/><text fill="#000000" font-family="sans-serif" font-size="14" lengthAdjust="spacing" textLength="80" x="100.84" y="568.1426">name: String</text><text fill="#000000" font-family="sans-serif" font-size="14" lengthAdjust="spacing" textLength="36" x="100.84" y="585.752">ID: int</text><line style="stroke:#181818;stroke-width:0.5;" x1="95.84" x2="185.84" y1="592.8281" y2="592.8281"/></g><!--class Dock--><g id="elem_Dock"><rect codeLine="22" fill="#F1F1F1" height="153.6563" id="Dock" rx="2.5" ry="2.5" style="stroke:#181818;stroke-width:0.5;" width="106" x="400.84" y="731.1094"/><ellipse cx="434.74" cy="747.1094" fill="#ADD1B2" rx="11" ry="11" style="stroke:#181818;stroke-width:1.0;"/><path d="M437.5056,742.9844 Q437.6619,742.7656 437.8494,742.6563 Q438.0369,742.5469 438.2556,742.5469 Q438.6306,742.5469 438.865,742.8125 Q439.0994,743.0625 439.0994,743.6719 L439.0994,745.125 Q439.0994,745.7344 438.865,746 Q438.6306,746.2656 438.2556,746.2656 Q437.9119,746.2656 437.7088,746.0625 Q437.5056,745.875 437.3963,745.3594 Q437.3494,745 437.1619,744.8125 Q436.8338,744.4375 436.2244,744.2188 Q435.615,744 434.99,744 Q434.2244,744 433.5838,744.3281 Q432.9588,744.6563 432.4588,745.4063 Q431.9744,746.1563 431.9744,747.1875 L431.9744,748.2813 Q431.9744,749.5156 432.865,750.3438 Q433.7556,751.1563 435.3494,751.1563 Q436.2869,751.1563 436.9431,750.9063 Q437.3338,750.75 437.7556,750.3125 Q438.0213,750.0469 438.1619,749.9688 Q438.3181,749.8906 438.5213,749.8906 Q438.8494,749.8906 439.0994,750.1563 Q439.365,750.4063 439.365,750.75 Q439.365,751.0938 439.0213,751.5 Q438.5213,752.0781 437.7244,752.4063 Q436.6463,752.8594 435.3494,752.8594 Q433.8338,752.8594 432.6306,752.2344 Q431.6463,751.7344 430.9588,750.6719 Q430.2713,749.5938 430.2713,748.3125 L430.2713,747.1563 Q430.2713,745.8281 430.8806,744.6875 Q431.5056,743.5313 432.5994,742.9219 Q433.6931,742.2969 434.9275,742.2969 Q435.6619,742.2969 436.3025,742.4688 Q436.9588,742.625 437.5056,742.9844 Z " fill="#000000"/><text fill="#000000" font-family="sans-serif" font-size="14" lengthAdjust="spacing" textLength="32" x="452.94" y="752.8379">Dock</text><line style="stroke:#181818;stroke-width:0.5;" x1="401.84" x2="505.84" y1="763.1094" y2="763.1094"/><text fill="#000000" font-family="sans-serif" font-size="14" lengthAdjust="spacing" textLength="36" x="406.84" y="781.6426">ID: int</text><text fill="#000000" font-family="sans-serif" font-size="14" lengthAdjust="spacing" textLength="80" x="406.84" y="799.252">name: String</text><text fill="#000000" font-family="sans-serif" font-size="14" lengthAdjust="spacing" textLength="94" x="406.84" y="816.8613">location: String</text><text fill="#000000" font-family="sans-serif" font-size="14" lengthAdjust="spacing" textLength="90" x="406.84" y="834.4707">length: double</text><text fill="#000000" font-family="sans-serif" font-size="14" lengthAdjust="spacing" textLength="87" x="406.84" y="852.0801">depth: double</text><text fill="#000000" font-family="sans-serif" font-size="14" lengthAdjust="spacing" textLength="79" x="406.84" y="869.6895">maxDraft: int</text><line style="stroke:#181818;stroke-width:0.5;" x1="401.84" x2="505.84" y1="876.7656" y2="876.7656"/></g><!--class StorageArea--><g id="elem_StorageArea"><rect codeLine="31" fill="#F1F1F1" height="136.0469" id="StorageArea" rx="2.5" ry="2.5" style="stroke:#181818;stroke-width:0.5;" width="179" x="121.34" y="45.6094"/><ellipse cx="166.59" cy="61.6094" fill="#ADD1B2" rx="11" ry="11" style="stroke:#181818;stroke-width:1.0;"/><path d="M169.3556,57.4844 Q169.5119,57.2656 169.6994,57.1563 Q169.8869,57.0469 170.1056,57.0469 Q170.4806,57.0469 170.715,57.3125 Q170.9494,57.5625 170.9494,58.1719 L170.9494,59.625 Q170.9494,60.2344 170.715,60.5 Q170.4806,60.7656 170.1056,60.7656 Q169.7619,60.7656 169.5588,60.5625 Q169.3556,60.375 169.2463,59.8594 Q169.1994,59.5 169.0119,59.3125 Q168.6838,58.9375 168.0744,58.7188 Q167.465,58.5 166.84,58.5 Q166.0744,58.5 165.4338,58.8281 Q164.8088,59.1563 164.3088,59.9063 Q163.8244,60.6563 163.8244,61.6875 L163.8244,62.7813 Q163.8244,64.0156 164.715,64.8438 Q165.6056,65.6563 167.1994,65.6563 Q168.1369,65.6563 168.7931,65.4063 Q169.1838,65.25 169.6056,64.8125 Q169.8713,64.5469 170.0119,64.4688 Q170.1681,64.3906 170.3713,64.3906 Q170.6994,64.3906 170.9494,64.6563 Q171.215,64.9063 171.215,65.25 Q171.215,65.5938 170.8713,66 Q170.3713,66.5781 169.5744,66.9063 Q168.4963,67.3594 167.1994,67.3594 Q165.6838,67.3594 164.4806,66.7344 Q163.4963,66.2344 162.8088,65.1719 Q162.1213,64.0938 162.1213,62.8125 L162.1213,61.6563 Q162.1213,60.3281 162.7306,59.1875 Q163.3556,58.0313 164.4494,57.4219 Q165.5431,56.7969 166.7775,56.7969 Q167.5119,56.7969 168.1525,56.9688 Q168.8088,57.125 169.3556,57.4844 Z " fill="#000000"/><text fill="#000000" font-family="sans-serif" font-size="14" lengthAdjust="spacing" textLength="80" x="187.09" y="67.3379">StorageArea</text><line style="stroke:#181818;stroke-width:0.5;" x1="122.34" x2="299.34" y1="77.6094" y2="77.6094"/><text fill="#000000" font-family="sans-serif" font-size="14" lengthAdjust="spacing" textLength="36" x="127.34" y="96.1426">ID: int</text><text fill="#000000" font-family="sans-serif" font-size="14" lengthAdjust="spacing" textLength="72" x="127.34" y="113.752">type: String</text><text fill="#000000" font-family="sans-serif" font-size="14" lengthAdjust="spacing" textLength="94" x="127.34" y="131.3613">location: String</text><text fill="#000000" font-family="sans-serif" font-size="14" lengthAdjust="spacing" textLength="131" x="127.34" y="148.9707">maxCapacity: double</text><text fill="#000000" font-family="sans-serif" font-size="14" lengthAdjust="spacing" textLength="167" x="127.34" y="166.5801">currentOccupancy: double</text><line style="stroke:#181818;stroke-width:0.5;" x1="122.34" x2="299.34" y1="173.6563" y2="173.6563"/></g><!--class ShippingAgentOrganization--><g id="elem_ShippingAgentOrganization"><rect codeLine="39" fill="#F1F1F1" height="136.0469" id="ShippingAgentOrganization" rx="2.5" ry="2.5" style="stroke:#181818;stroke-width:0.5;" width="204" x="335.84" y="45.6094"/><ellipse cx="350.84" cy="61.6094" fill="#ADD1B2" rx="11" ry="11" style="stroke:#181818;stroke-width:1.0;"/><path d="M353.6056,57.4844 Q353.7619,57.2656 353.9494,57.1563 Q354.1369,57.0469 354.3556,57.0469 Q354.7306,57.0469 354.965,57.3125 Q355.1994,57.5625 355.1994,58.1719 L355.1994,59.625 Q355.1994,60.2344 354.965,60.5 Q354.7306,60.7656 354.3556,60.7656 Q354.0119,60.7656 353.8088,60.5625 Q353.6056,60.375 353.4963,59.8594 Q353.4494,59.5 353.2619,59.3125 Q352.9338,58.9375 352.3244,58.7188 Q351.715,58.5 351.09,58.5 Q350.3244,58.5 349.6838,58.8281 Q349.0588,59.1563 348.5588,59.9063 Q348.0744,60.6563 348.0744,61.6875 L348.0744,62.7813 Q348.0744,64.0156 348.965,64.8438 Q349.8556,65.6563 351.4494,65.6563 Q352.3869,65.6563 353.0431,65.4063 Q353.4338,65.25 353.8556,64.8125 Q354.1213,64.5469 354.2619,64.4688 Q354.4181,64.3906 354.6213,64.3906 Q354.9494,64.3906 355.1994,64.6563 Q355.465,64.9063 355.465,65.25 Q355.465,65.5938 355.1213,66 Q354.6213,66.5781 353.8244,66.9063 Q352.7463,67.3594 351.4494,67.3594 Q349.9338,67.3594 348.7306,66.7344 Q347.7463,66.2344 347.0588,65.1719 Q346.3713,64.0938 346.3713,62.8125 L346.3713,61.6563 Q346.3713,60.3281 346.9806,59.1875 Q347.6056,58.0313 348.6994,57.4219 Q349.7931,56.7969 351.0275,56.7969 Q351.7619,56.7969 352.4025,56.9688 Q353.0588,57.125 353.6056,57.4844 Z " fill="#000000"/><text fill="#000000" font-family="sans-serif" font-size="14" lengthAdjust="spacing" textLength="172" x="364.84" y="67.3379">ShippingAgentOrganization</text><line style="stroke:#181818;stroke-width:0.5;" x1="336.84" x2="538.84" y1="77.6094" y2="77.6094"/><text fill="#000000" font-family="sans-serif" font-size="14" lengthAdjust="spacing" textLength="36" x="341.84" y="96.1426">ID: int</text><text fill="#000000" font-family="sans-serif" font-size="14" lengthAdjust="spacing" textLength="111" x="341.84" y="113.752">legalName: String</text><text fill="#000000" font-family="sans-serif" font-size="14" lengthAdjust="spacing" textLength="96" x="341.84" y="131.3613">altName: String</text><text fill="#000000" font-family="sans-serif" font-size="14" lengthAdjust="spacing" textLength="96" x="341.84" y="148.9707">address: String</text><text fill="#000000" font-family="sans-serif" font-size="14" lengthAdjust="spacing" textLength="90" x="341.84" y="166.5801">taxNumber: int</text><line style="stroke:#181818;stroke-width:0.5;" x1="336.84" x2="538.84" y1="173.6563" y2="173.6563"/></g><!--class OrganizationRepresentative--><g id="elem_OrganizationRepresentative"><rect codeLine="47" fill="#F1F1F1" height="136.0469" id="OrganizationRepresentative" rx="2.5" ry="2.5" style="stroke:#181818;stroke-width:0.5;" width="208" x="333.84" y="259.6094"/><ellipse cx="348.84" cy="275.6094" fill="#ADD1B2" rx="11" ry="11" style="stroke:#181818;stroke-width:1.0;"/><path d="M351.6056,271.4844 Q351.7619,271.2656 351.9494,271.1563 Q352.1369,271.0469 352.3556,271.0469 Q352.7306,271.0469 352.965,271.3125 Q353.1994,271.5625 353.1994,272.1719 L353.1994,273.625 Q353.1994,274.2344 352.965,274.5 Q352.7306,274.7656 352.3556,274.7656 Q352.0119,274.7656 351.8088,274.5625 Q351.6056,274.375 351.4963,273.8594 Q351.4494,273.5 351.2619,273.3125 Q350.9338,272.9375 350.3244,272.7188 Q349.715,272.5 349.09,272.5 Q348.3244,272.5 347.6838,272.8281 Q347.0588,273.1563 346.5588,273.9063 Q346.0744,274.6563 346.0744,275.6875 L346.0744,276.7813 Q346.0744,278.0156 346.965,278.8438 Q347.8556,279.6563 349.4494,279.6563 Q350.3869,279.6563 351.0431,279.4063 Q351.4338,279.25 351.8556,278.8125 Q352.1213,278.5469 352.2619,278.4688 Q352.4181,278.3906 352.6213,278.3906 Q352.9494,278.3906 353.1994,278.6563 Q353.465,278.9063 353.465,279.25 Q353.465,279.5938 353.1213,280 Q352.6213,280.5781 351.8244,280.9063 Q350.7463,281.3594 349.4494,281.3594 Q347.9338,281.3594 346.7306,280.7344 Q345.7463,280.2344 345.0588,279.1719 Q344.3713,278.0938 344.3713,276.8125 L344.3713,275.6563 Q344.3713,274.3281 344.9806,273.1875 Q345.6056,272.0313 346.6994,271.4219 Q347.7931,270.7969 349.0275,270.7969 Q349.7619,270.7969 350.4025,270.9688 Q351.0588,271.125 351.6056,271.4844 Z " fill="#000000"/><text fill="#000000" font-family="sans-serif" font-size="14" lengthAdjust="spacing" textLength="176" x="362.84" y="281.3379">OrganizationRepresentative</text><line style="stroke:#181818;stroke-width:0.5;" x1="334.84" x2="540.84" y1="291.6094" y2="291.6094"/><text fill="#000000" font-family="sans-serif" font-size="14" lengthAdjust="spacing" textLength="80" x="339.84" y="310.1426">name: String</text><text fill="#000000" font-family="sans-serif" font-size="14" lengthAdjust="spacing" textLength="36" x="339.84" y="327.752">ID: int</text><text fill="#000000" font-family="sans-serif" font-size="14" lengthAdjust="spacing" textLength="109" x="339.84" y="345.3613">nationality: String</text><text fill="#000000" font-family="sans-serif" font-size="14" lengthAdjust="spacing" textLength="78" x="339.84" y="362.9707">email: String</text><text fill="#000000" font-family="sans-serif" font-size="14" lengthAdjust="spacing" textLength="112" x="339.84" y="380.5801">phoneNumber: int</text><line style="stroke:#181818;stroke-width:0.5;" x1="334.84" x2="540.84" y1="387.6563" y2="387.6563"/></g><!--class VesselVisit--><g id="elem_VesselVisit"><rect codeLine="55" fill="#F1F1F1" height="136.0469" id="VesselVisit" rx="2.5" ry="2.5" style="stroke:#181818;stroke-width:0.5;" width="180" x="314.84" y="491.1094"/><ellipse cx="366.59" cy="507.1094" fill="#ADD1B2" rx="11" ry="11" style="stroke:#181818;stroke-width:1.0;"/><path d="M369.3556,502.9844 Q369.5119,502.7656 369.6994,502.6563 Q369.8869,502.5469 370.1056,502.5469 Q370.4806,502.5469 370.715,502.8125 Q370.9494,503.0625 370.9494,503.6719 L370.9494,505.125 Q370.9494,505.7344 370.715,506 Q370.4806,506.2656 370.1056,506.2656 Q369.7619,506.2656 369.5588,506.0625 Q369.3556,505.875 369.2463,505.3594 Q369.1994,505 369.0119,504.8125 Q368.6838,504.4375 368.0744,504.2188 Q367.465,504 366.84,504 Q366.0744,504 365.4338,504.3281 Q364.8088,504.6563 364.3088,505.4063 Q363.8244,506.1563 363.8244,507.1875 L363.8244,508.2813 Q363.8244,509.5156 364.715,510.3438 Q365.6056,511.1563 367.1994,511.1563 Q368.1369,511.1563 368.7931,510.9063 Q369.1838,510.75 369.6056,510.3125 Q369.8713,510.0469 370.0119,509.9688 Q370.1681,509.8906 370.3713,509.8906 Q370.6994,509.8906 370.9494,510.1563 Q371.215,510.4063 371.215,510.75 Q371.215,511.0938 370.8713,511.5 Q370.3713,512.0781 369.5744,512.4063 Q368.4963,512.8594 367.1994,512.8594 Q365.6838,512.8594 364.4806,512.2344 Q363.4963,511.7344 362.8088,510.6719 Q362.1213,509.5938 362.1213,508.3125 L362.1213,507.1563 Q362.1213,505.8281 362.7306,504.6875 Q363.3556,503.5313 364.4494,502.9219 Q365.5431,502.2969 366.7775,502.2969 Q367.5119,502.2969 368.1525,502.4688 Q368.8088,502.625 369.3556,502.9844 Z " fill="#000000"/><text fill="#000000" font-family="sans-serif" font-size="14" lengthAdjust="spacing" textLength="68" x="387.09" y="512.8379">VesselVisit</text><line style="stroke:#181818;stroke-width:0.5;" x1="315.84" x2="493.84" y1="523.1094" y2="523.1094"/><text fill="#000000" font-family="sans-serif" font-size="14" lengthAdjust="spacing" textLength="36" x="320.84" y="541.6426">ID: int</text><text fill="#000000" font-family="sans-serif" font-size="14" lengthAdjust="spacing" textLength="76" x="320.84" y="559.252">state: String</text><text fill="#000000" font-family="sans-serif" font-size="14" lengthAdjust="spacing" textLength="148" x="320.84" y="576.8613">rejectionReason: String</text><text fill="#000000" font-family="sans-serif" font-size="14" lengthAdjust="spacing" textLength="168" x="320.84" y="594.4707">decisionTimeStamp: String</text><text fill="#000000" font-family="sans-serif" font-size="14" lengthAdjust="spacing" textLength="154" x="320.84" y="612.0801">decisionOutcome: String</text><line style="stroke:#181818;stroke-width:0.5;" x1="315.84" x2="493.84" y1="619.1563" y2="619.1563"/></g><!--class Cargo--><g id="elem_Cargo"><rect codeLine="63" fill="#F1F1F1" height="83.2188" id="Cargo" rx="2.5" ry="2.5" style="stroke:#181818;stroke-width:0.5;" width="116" x="31.84" y="766.6094"/><ellipse cx="67.09" cy="782.6094" fill="#ADD1B2" rx="11" ry="11" style="stroke:#181818;stroke-width:1.0;"/><path d="M69.8556,778.4844 Q70.0119,778.2656 70.1994,778.1563 Q70.3869,778.0469 70.6056,778.0469 Q70.9806,778.0469 71.215,778.3125 Q71.4494,778.5625 71.4494,779.1719 L71.4494,780.625 Q71.4494,781.2344 71.215,781.5 Q70.9806,781.7656 70.6056,781.7656 Q70.2619,781.7656 70.0588,781.5625 Q69.8556,781.375 69.7463,780.8594 Q69.6994,780.5 69.5119,780.3125 Q69.1838,779.9375 68.5744,779.7188 Q67.965,779.5 67.34,779.5 Q66.5744,779.5 65.9338,779.8281 Q65.3088,780.1563 64.8088,780.9063 Q64.3244,781.6563 64.3244,782.6875 L64.3244,783.7813 Q64.3244,785.0156 65.215,785.8438 Q66.1056,786.6563 67.6994,786.6563 Q68.6369,786.6563 69.2931,786.4063 Q69.6838,786.25 70.1056,785.8125 Q70.3713,785.5469 70.5119,785.4688 Q70.6681,785.3906 70.8713,785.3906 Q71.1994,785.3906 71.4494,785.6563 Q71.715,785.9063 71.715,786.25 Q71.715,786.5938 71.3713,787 Q70.8713,787.5781 70.0744,787.9063 Q68.9963,788.3594 67.6994,788.3594 Q66.1838,788.3594 64.9806,787.7344 Q63.9963,787.2344 63.3088,786.1719 Q62.6213,785.0938 62.6213,783.8125 L62.6213,782.6563 Q62.6213,781.3281 63.2306,780.1875 Q63.8556,779.0313 64.9494,778.4219 Q66.0431,777.7969 67.2775,777.7969 Q68.0119,777.7969 68.6525,777.9688 Q69.3088,778.125 69.8556,778.4844 Z " fill="#000000"/><text fill="#000000" font-family="sans-serif" font-size="14" lengthAdjust="spacing" textLength="39" x="85.59" y="788.3379">Cargo</text><line style="stroke:#181818;stroke-width:0.5;" x1="32.84" x2="146.84" y1="798.6094" y2="798.6094"/><text fill="#000000" font-family="sans-serif" font-size="14" lengthAdjust="spacing" textLength="77" x="37.84" y="817.1426">Type: String</text><text fill="#000000" font-family="sans-serif" font-size="14" lengthAdjust="spacing" textLength="104" x="37.84" y="834.752">Quantity: double</text><line style="stroke:#181818;stroke-width:0.5;" x1="32.84" x2="146.84" y1="841.8281" y2="841.8281"/></g><!--class Crew--><g id="elem_Crew"><rect codeLine="68" fill="#F1F1F1" height="65.6094" id="Crew" rx="2.5" ry="2.5" style="stroke:#181818;stroke-width:0.5;" width="64" x="260.84" y="775.1094"/><ellipse cx="275.84" cy="791.1094" fill="#ADD1B2" rx="11" ry="11" style="stroke:#181818;stroke-width:1.0;"/><path d="M278.6056,786.9844 Q278.7619,786.7656 278.9494,786.6563 Q279.1369,786.5469 279.3556,786.5469 Q279.7306,786.5469 279.965,786.8125 Q280.1994,787.0625 280.1994,787.6719 L280.1994,789.125 Q280.1994,789.7344 279.965,790 Q279.7306,790.2656 279.3556,790.2656 Q279.0119,790.2656 278.8088,790.0625 Q278.6056,789.875 278.4963,789.3594 Q278.4494,789 278.2619,788.8125 Q277.9338,788.4375 277.3244,788.2188 Q276.715,788 276.09,788 Q275.3244,788 274.6838,788.3281 Q274.0588,788.6563 273.5588,789.4063 Q273.0744,790.1563 273.0744,791.1875 L273.0744,792.2813 Q273.0744,793.5156 273.965,794.3438 Q274.8556,795.1563 276.4494,795.1563 Q277.3869,795.1563 278.0431,794.9063 Q278.4338,794.75 278.8556,794.3125 Q279.1213,794.0469 279.2619,793.9688 Q279.4181,793.8906 279.6213,793.8906 Q279.9494,793.8906 280.1994,794.1563 Q280.465,794.4063 280.465,794.75 Q280.465,795.0938 280.1213,795.5 Q279.6213,796.0781 278.8244,796.4063 Q277.7463,796.8594 276.4494,796.8594 Q274.9338,796.8594 273.7306,796.2344 Q272.7463,795.7344 272.0588,794.6719 Q271.3713,793.5938 271.3713,792.3125 L271.3713,791.1563 Q271.3713,789.8281 271.9806,788.6875 Q272.6056,787.5313 273.6994,786.9219 Q274.7931,786.2969 276.0275,786.2969 Q276.7619,786.2969 277.4025,786.4688 Q278.0588,786.625 278.6056,786.9844 Z " fill="#000000"/><text fill="#000000" font-family="sans-serif" font-size="14" lengthAdjust="spacing" textLength="32" x="289.84" y="796.8379">Crew</text><line style="stroke:#181818;stroke-width:0.5;" x1="261.84" x2="323.84" y1="807.1094" y2="807.1094"/><text fill="#000000" font-family="sans-serif" font-size="14" lengthAdjust="spacing" textLength="36" x="266.84" y="825.6426">ID: int</text><line style="stroke:#181818;stroke-width:0.5;" x1="261.84" x2="323.84" y1="832.7188" y2="832.7188"/></g><!--class CrewMember--><g id="elem_CrewMember"><rect codeLine="72" fill="#F1F1F1" height="118.4375" id="CrewMember" rx="2.5" ry="2.5" style="stroke:#181818;stroke-width:0.5;" width="129" x="228.34" y="989.6094"/><ellipse cx="249.64" cy="1005.6094" fill="#ADD1B2" rx="11" ry="11" style="stroke:#181818;stroke-width:1.0;"/><path d="M252.4056,1001.4844 Q252.5619,1001.2656 252.7494,1001.1563 Q252.9369,1001.0469 253.1556,1001.0469 Q253.5306,1001.0469 253.765,1001.3125 Q253.9994,1001.5625 253.9994,1002.1719 L253.9994,1003.625 Q253.9994,1004.2344 253.765,1004.5 Q253.5306,1004.7656 253.1556,1004.7656 Q252.8119,1004.7656 252.6088,1004.5625 Q252.4056,1004.375 252.2963,1003.8594 Q252.2494,1003.5 252.0619,1003.3125 Q251.7338,1002.9375 251.1244,1002.7188 Q250.515,1002.5 249.89,1002.5 Q249.1244,1002.5 248.4838,1002.8281 Q247.8588,1003.1563 247.3588,1003.9063 Q246.8744,1004.6563 246.8744,1005.6875 L246.8744,1006.7813 Q246.8744,1008.0156 247.765,1008.8438 Q248.6556,1009.6563 250.2494,1009.6563 Q251.1869,1009.6563 251.8431,1009.4063 Q252.2338,1009.25 252.6556,1008.8125 Q252.9213,1008.5469 253.0619,1008.4688 Q253.2181,1008.3906 253.4213,1008.3906 Q253.7494,1008.3906 253.9994,1008.6563 Q254.265,1008.9063 254.265,1009.25 Q254.265,1009.5938 253.9213,1010 Q253.4213,1010.5781 252.6244,1010.9063 Q251.5463,1011.3594 250.2494,1011.3594 Q248.7338,1011.3594 247.5306,1010.7344 Q246.5463,1010.2344 245.8588,1009.1719 Q245.1713,1008.0938 245.1713,1006.8125 L245.1713,1005.6563 Q245.1713,1004.3281 245.7806,1003.1875 Q246.4056,1002.0313 247.4994,1001.4219 Q248.5931,1000.7969 249.8275,1000.7969 Q250.5619,1000.7969 251.2025,1000.9688 Q251.8588,1001.125 252.4056,1001.4844 Z " fill="#000000"/><text fill="#000000" font-family="sans-serif" font-size="14" lengthAdjust="spacing" textLength="83" x="265.04" y="1011.3379">CrewMember</text><line style="stroke:#181818;stroke-width:0.5;" x1="229.34" x2="356.34" y1="1021.6094" y2="1021.6094"/><text fill="#000000" font-family="sans-serif" font-size="14" lengthAdjust="spacing" textLength="36" x="234.34" y="1040.1426">ID: int</text><text fill="#000000" font-family="sans-serif" font-size="14" lengthAdjust="spacing" textLength="80" x="234.34" y="1057.752">name: String</text><text fill="#000000" font-family="sans-serif" font-size="14" lengthAdjust="spacing" textLength="109" x="234.34" y="1075.3613">nationality: String</text><text fill="#000000" font-family="sans-serif" font-size="14" lengthAdjust="spacing" textLength="117" x="234.34" y="1092.9707">dateOfBirth: String</text><line style="stroke:#181818;stroke-width:0.5;" x1="229.34" x2="356.34" y1="1100.0469" y2="1100.0469"/></g><!--class StaffMember--><g id="elem_StaffMember"><rect codeLine="79" fill="#F1F1F1" height="171.2656" id="StaffMember" rx="2.5" ry="2.5" style="stroke:#181818;stroke-width:0.5;" width="177" x="614.34" y="473.6094"/><ellipse cx="658.59" cy="489.6094" fill="#ADD1B2" rx="11" ry="11" style="stroke:#181818;stroke-width:1.0;"/><path d="M661.3556,485.4844 Q661.5119,485.2656 661.6994,485.1563 Q661.8869,485.0469 662.1056,485.0469 Q662.4806,485.0469 662.715,485.3125 Q662.9494,485.5625 662.9494,486.1719 L662.9494,487.625 Q662.9494,488.2344 662.715,488.5 Q662.4806,488.7656 662.1056,488.7656 Q661.7619,488.7656 661.5588,488.5625 Q661.3556,488.375 661.2463,487.8594 Q661.1994,487.5 661.0119,487.3125 Q660.6838,486.9375 660.0744,486.7188 Q659.465,486.5 658.84,486.5 Q658.0744,486.5 657.4338,486.8281 Q656.8088,487.1563 656.3088,487.9063 Q655.8244,488.6563 655.8244,489.6875 L655.8244,490.7813 Q655.8244,492.0156 656.715,492.8438 Q657.6056,493.6563 659.1994,493.6563 Q660.1369,493.6563 660.7931,493.4063 Q661.1838,493.25 661.6056,492.8125 Q661.8713,492.5469 662.0119,492.4688 Q662.1681,492.3906 662.3713,492.3906 Q662.6994,492.3906 662.9494,492.6563 Q663.215,492.9063 663.215,493.25 Q663.215,493.5938 662.8713,494 Q662.3713,494.5781 661.5744,494.9063 Q660.4963,495.3594 659.1994,495.3594 Q657.6838,495.3594 656.4806,494.7344 Q655.4963,494.2344 654.8088,493.1719 Q654.1213,492.0938 654.1213,490.8125 L654.1213,489.6563 Q654.1213,488.3281 654.7306,487.1875 Q655.3556,486.0313 656.4494,485.4219 Q657.5431,484.7969 658.7775,484.7969 Q659.5119,484.7969 660.1525,484.9688 Q660.8088,485.125 661.3556,485.4844 Z " fill="#000000"/><text fill="#000000" font-family="sans-serif" font-size="14" lengthAdjust="spacing" textLength="80" x="679.09" y="495.3379">StaffMember</text><line style="stroke:#181818;stroke-width:0.5;" x1="615.34" x2="790.34" y1="505.6094" y2="505.6094"/><text fill="#000000" font-family="sans-serif" font-size="14" lengthAdjust="spacing" textLength="36" x="620.34" y="524.1426">ID: int</text><text fill="#000000" font-family="sans-serif" font-size="14" lengthAdjust="spacing" textLength="80" x="620.34" y="541.752">name: String</text><text fill="#000000" font-family="sans-serif" font-size="14" lengthAdjust="spacing" textLength="78" x="620.34" y="559.3613">email: String</text><text fill="#000000" font-family="sans-serif" font-size="14" lengthAdjust="spacing" textLength="112" x="620.34" y="576.9707">phoneNumber: int</text><text fill="#000000" font-family="sans-serif" font-size="14" lengthAdjust="spacing" textLength="127" x="620.34" y="594.5801">qualifications: String</text><text fill="#000000" font-family="sans-serif" font-size="14" lengthAdjust="spacing" textLength="165" x="620.34" y="612.1895">operationalWindow: String</text><text fill="#000000" font-family="sans-serif" font-size="14" lengthAdjust="spacing" textLength="130" x="620.34" y="629.7988">currentStatus: String</text><line style="stroke:#181818;stroke-width:0.5;" x1="615.34" x2="790.34" y1="636.875" y2="636.875"/></g><!--class PhysicalResource--><g id="elem_PhysicalResource"><rect codeLine="89" fill="#F1F1F1" height="171.2656" id="PhysicalResource" rx="2.5" ry="2.5" style="stroke:#181818;stroke-width:0.5;" width="179" x="613.34" y="722.6094"/><ellipse cx="643.64" cy="738.6094" fill="#ADD1B2" rx="11" ry="11" style="stroke:#181818;stroke-width:1.0;"/><path d="M646.4056,734.4844 Q646.5619,734.2656 646.7494,734.1563 Q646.9369,734.0469 647.1556,734.0469 Q647.5306,734.0469 647.765,734.3125 Q647.9994,734.5625 647.9994,735.1719 L647.9994,736.625 Q647.9994,737.2344 647.765,737.5 Q647.5306,737.7656 647.1556,737.7656 Q646.8119,737.7656 646.6088,737.5625 Q646.4056,737.375 646.2963,736.8594 Q646.2494,736.5 646.0619,736.3125 Q645.7338,735.9375 645.1244,735.7188 Q644.515,735.5 643.89,735.5 Q643.1244,735.5 642.4838,735.8281 Q641.8588,736.1563 641.3588,736.9063 Q640.8744,737.6563 640.8744,738.6875 L640.8744,739.7813 Q640.8744,741.0156 641.765,741.8438 Q642.6556,742.6563 644.2494,742.6563 Q645.1869,742.6563 645.8431,742.4063 Q646.2338,742.25 646.6556,741.8125 Q646.9213,741.5469 647.0619,741.4688 Q647.2181,741.3906 647.4213,741.3906 Q647.7494,741.3906 647.9994,741.6563 Q648.265,741.9063 648.265,742.25 Q648.265,742.5938 647.9213,743 Q647.4213,743.5781 646.6244,743.9063 Q645.5463,744.3594 644.2494,744.3594 Q642.7338,744.3594 641.5306,743.7344 Q640.5463,743.2344 639.8588,742.1719 Q639.1713,741.0938 639.1713,739.8125 L639.1713,738.6563 Q639.1713,737.3281 639.7806,736.1875 Q640.4056,735.0313 641.4994,734.4219 Q642.5931,733.7969 643.8275,733.7969 Q644.5619,733.7969 645.2025,733.9688 Q645.8588,734.125 646.4056,734.4844 Z " fill="#000000"/><text fill="#000000" font-family="sans-serif" font-size="14" lengthAdjust="spacing" textLength="113" x="661.04" y="744.3379">PhysicalResource</text><line style="stroke:#181818;stroke-width:0.5;" x1="614.34" x2="791.34" y1="754.6094" y2="754.6094"/><text fill="#000000" font-family="sans-serif" font-size="14" lengthAdjust="spacing" textLength="58" x="619.34" y="773.1426">ID: String</text><text fill="#000000" font-family="sans-serif" font-size="14" lengthAdjust="spacing" textLength="80" x="619.34" y="790.752">name: String</text><text fill="#000000" font-family="sans-serif" font-size="14" lengthAdjust="spacing" textLength="114" x="619.34" y="808.3613">description: String</text><text fill="#000000" font-family="sans-serif" font-size="14" lengthAdjust="spacing" textLength="149" x="619.34" y="825.9707">operationalCapacity: int</text><text fill="#000000" font-family="sans-serif" font-size="14" lengthAdjust="spacing" textLength="83" x="619.34" y="843.5801">status: String</text><text fill="#000000" font-family="sans-serif" font-size="14" lengthAdjust="spacing" textLength="111" x="619.34" y="861.1895">setupTime: String</text><text fill="#000000" font-family="sans-serif" font-size="14" lengthAdjust="spacing" textLength="167" x="619.34" y="878.7988">qualifRequirements: String</text><line style="stroke:#181818;stroke-width:0.5;" x1="614.34" x2="791.34" y1="885.875" y2="885.875"/></g><!--class Qualification--><g id="elem_Qualification"><rect codeLine="99" fill="#F1F1F1" height="100.8281" id="Qualification" rx="2.5" ry="2.5" style="stroke:#181818;stroke-width:0.5;" width="128" x="747.84" y="998.1094"/><ellipse cx="770.94" cy="1014.1094" fill="#ADD1B2" rx="11" ry="11" style="stroke:#181818;stroke-width:1.0;"/><path d="M773.7056,1009.9844 Q773.8619,1009.7656 774.0494,1009.6563 Q774.2369,1009.5469 774.4556,1009.5469 Q774.8306,1009.5469 775.065,1009.8125 Q775.2994,1010.0625 775.2994,1010.6719 L775.2994,1012.125 Q775.2994,1012.7344 775.065,1013 Q774.8306,1013.2656 774.4556,1013.2656 Q774.1119,1013.2656 773.9088,1013.0625 Q773.7056,1012.875 773.5963,1012.3594 Q773.5494,1012 773.3619,1011.8125 Q773.0338,1011.4375 772.4244,1011.2188 Q771.815,1011 771.19,1011 Q770.4244,1011 769.7838,1011.3281 Q769.1588,1011.6563 768.6588,1012.4063 Q768.1744,1013.1563 768.1744,1014.1875 L768.1744,1015.2813 Q768.1744,1016.5156 769.065,1017.3438 Q769.9556,1018.1563 771.5494,1018.1563 Q772.4869,1018.1563 773.1431,1017.9063 Q773.5338,1017.75 773.9556,1017.3125 Q774.2213,1017.0469 774.3619,1016.9688 Q774.5181,1016.8906 774.7213,1016.8906 Q775.0494,1016.8906 775.2994,1017.1563 Q775.565,1017.4063 775.565,1017.75 Q775.565,1018.0938 775.2213,1018.5 Q774.7213,1019.0781 773.9244,1019.4063 Q772.8463,1019.8594 771.5494,1019.8594 Q770.0338,1019.8594 768.8306,1019.2344 Q767.8463,1018.7344 767.1588,1017.6719 Q766.4713,1016.5938 766.4713,1015.3125 L766.4713,1014.1563 Q766.4713,1012.8281 767.0806,1011.6875 Q767.7056,1010.5313 768.7994,1009.9219 Q769.8931,1009.2969 771.1275,1009.2969 Q771.8619,1009.2969 772.5025,1009.4688 Q773.1588,1009.625 773.7056,1009.9844 Z " fill="#000000"/><text fill="#000000" font-family="sans-serif" font-size="14" lengthAdjust="spacing" textLength="78" x="786.74" y="1019.8379">Qualification</text><line style="stroke:#181818;stroke-width:0.5;" x1="748.84" x2="874.84" y1="1030.1094" y2="1030.1094"/><text fill="#000000" font-family="sans-serif" font-size="14" lengthAdjust="spacing" textLength="36" x="753.84" y="1048.6426">ID: int</text><text fill="#000000" font-family="sans-serif" font-size="14" lengthAdjust="spacing" textLength="80" x="753.84" y="1066.252">name: String</text><text fill="#000000" font-family="sans-serif" font-size="14" lengthAdjust="spacing" textLength="116" x="753.84" y="1083.8613">Description: String</text><line style="stroke:#181818;stroke-width:0.5;" x1="748.84" x2="874.84" y1="1090.9375" y2="1090.9375"/></g><!--link Vessel to VesselType--><g id="link_Vessel_VesselType"><path codeLine="105" d="M280.57,369.2694 C291.29,379.2794 303.72,389.0094 316.84,395.6094 C382.24,428.5294 417.14,386.1694 478.84,425.6094 C500.86,439.6894 504.28,448.9094 512.84,473.6094 C571.69,643.5594 562.6167,852.7772 551.7567,965.2472 " fill="none" id="Vessel-to-VesselType" style="stroke:#181818;stroke-width:1.0;"/><polygon fill="#181818" points="551.18,971.2194,556.0265,962.6455,551.6606,966.2425,548.0635,961.8766,551.18,971.2194" style="stroke:#181818;stroke-width:1.0;"/><text fill="#000000" font-family="sans-serif" font-size="13" lengthAdjust="spacing" textLength="21" x="555.84" y="689.1045">has</text><text fill="#000000" font-family="sans-serif" font-size="13" lengthAdjust="spacing" textLength="5" x="280.866" y="390.6896">*</text><text fill="#000000" font-family="sans-serif" font-size="13" lengthAdjust="spacing" textLength="7" x="544.7184" y="960.8747">1</text></g><!--link Vessel to Owner--><g id="link_Vessel_Owner"><path codeLine="106" d="M226.48,369.1094 C207.59,410.7994 180.7859,469.944 161.8359,511.774 " fill="none" id="Vessel-to-Owner" style="stroke:#181818;stroke-width:1.0;"/><polygon fill="#181818" points="159.36,517.2394,166.7174,510.692,161.4233,512.6849,159.4303,507.3908,159.36,517.2394" style="stroke:#181818;stroke-width:1.0;"/><text fill="#000000" font-family="sans-serif" font-size="13" lengthAdjust="spacing" textLength="21" x="200.84" y="440.1045">has</text><text fill="#000000" font-family="sans-serif" font-size="13" lengthAdjust="spacing" textLength="5" x="218.0251" y="390.8139">*</text><text fill="#000000" font-family="sans-serif" font-size="13" lengthAdjust="spacing" textLength="5" x="156.9132" y="506.797">*</text></g><!--link Dock to VesselType--><g id="link_Dock_VesselType"><path codeLine="107" d="M481.92,885.2294 C492.08,912.7694 501.4722,938.2206 511.6422,965.7706 " fill="none" id="Dock-to-VesselType" style="stroke:#181818;stroke-width:1.0;"/><polygon fill="#181818" points="513.72,971.3994,514.3557,961.5711,511.9885,966.7088,506.8508,964.3415,513.72,971.3994" style="stroke:#181818;stroke-width:1.0;"/><text fill="#000000" font-family="sans-serif" font-size="13" lengthAdjust="spacing" textLength="21" x="500.84" y="938.1045">has</text><text fill="#000000" font-family="sans-serif" font-size="13" lengthAdjust="spacing" textLength="5" x="479.1982" y="906.3365">*</text><text fill="#000000" font-family="sans-serif" font-size="13" lengthAdjust="spacing" textLength="5" x="505.8015" y="960.8061">*</text></g><!--link StorageArea to Vessel--><g id="link_StorageArea_Vessel"><path codeLine="108" d="M221.59,181.6894 C227.08,215.8994 232.6192,250.4652 237.3492,279.9352 " fill="none" id="StorageArea-to-Vessel" style="stroke:#181818;stroke-width:1.0;"/><polygon fill="#181818" points="238.3,285.8594,240.8232,276.3392,237.5076,280.9226,232.9243,277.607,238.3,285.8594" style="stroke:#181818;stroke-width:1.0;"/><text fill="#000000" font-family="sans-serif" font-size="13" lengthAdjust="spacing" textLength="53" x="230.84" y="226.1045">(un)loads</text><text fill="#000000" font-family="sans-serif" font-size="13" lengthAdjust="spacing" textLength="5" x="217.4408" y="203.046">*</text><text fill="#000000" font-family="sans-serif" font-size="13" lengthAdjust="spacing" textLength="5" x="231.8027" y="275.1256">*</text></g><!--link ShippingAgentOrganization to OrganizationRepresentative--><g id="link_ShippingAgentOrganization_OrganizationRepresentative"><path codeLine="109" d="M437.84,181.6894 C437.84,206.5594 437.84,228.7394 437.84,253.5994 " fill="none" id="ShippingAgentOrganization-to-OrganizationRepresentative" style="stroke:#181818;stroke-width:1.0;"/><polygon fill="#181818" points="437.84,259.5994,441.84,250.5994,437.84,254.5994,433.84,250.5994,437.84,259.5994" style="stroke:#181818;stroke-width:1.0;"/><text fill="#000000" font-family="sans-serif" font-size="13" lengthAdjust="spacing" textLength="21" x="438.84" y="226.1045">has</text><text fill="#000000" font-family="sans-serif" font-size="13" lengthAdjust="spacing" textLength="7" x="430.4791" y="203.046">1</text><text fill="#000000" font-family="sans-serif" font-size="13" lengthAdjust="spacing" textLength="5" x="432.5666" y="248.7976">*</text></g><!--link ShippingAgentOrganization to Vessel--><g id="link_ShippingAgentOrganization_Vessel"><path codeLine="110" d="M376.77,181.6894 C345.63,215.8994 312.8093,251.9527 285.9793,281.4227 " fill="none" id="ShippingAgentOrganization-to-Vessel" style="stroke:#181818;stroke-width:1.0;"/><polygon fill="#181818" points="281.94,285.8594,290.9567,281.8971,285.306,282.1621,285.0411,276.5115,281.94,285.8594" style="stroke:#181818;stroke-width:1.0;"/><text fill="#000000" font-family="sans-serif" font-size="13" lengthAdjust="spacing" textLength="21" x="347.84" y="226.1045">has</text><text fill="#000000" font-family="sans-serif" font-size="13" lengthAdjust="spacing" textLength="7" x="363.1112" y="203.046">1</text><text fill="#000000" font-family="sans-serif" font-size="13" lengthAdjust="spacing" textLength="5" x="282.6706" y="275.1256">*</text></g><!--link Vessel to VesselVisit--><g id="link_Vessel_VesselVisit"><path codeLine="111" d="M273.07,369.1094 C296.58,402.8294 327.0988,446.6073 354.6488,486.1273 " fill="none" id="Vessel-to-VesselVisit" style="stroke:#181818;stroke-width:1.0;"/><polygon fill="#181818" points="358.08,491.0494,356.2145,481.3788,355.2206,486.9477,349.6518,485.9538,358.08,491.0494" style="stroke:#181818;stroke-width:1.0;"/><text fill="#000000" font-family="sans-serif" font-size="13" lengthAdjust="spacing" textLength="21" x="325.84" y="440.1045">has</text><text fill="#000000" font-family="sans-serif" font-size="13" lengthAdjust="spacing" textLength="7" x="270.1659" y="390.8139">1</text><text fill="#000000" font-family="sans-serif" font-size="13" lengthAdjust="spacing" textLength="7" x="345.5828" y="480.2421">1</text></g><!--link VesselVisit to Dock--><g id="link_VesselVisit_Dock"><path codeLine="112" d="M387.78,627.1794 C384.91,648.3394 384.38,671.6594 389.84,692.6094 C393.2,705.4994 395.7487,713.0774 401.7187,725.4274 " fill="none" id="VesselVisit-to-Dock" style="stroke:#181818;stroke-width:1.0;"/><polygon fill="#181818" points="404.33,730.8294,404.0143,720.9856,402.1539,726.3277,396.8117,724.4673,404.33,730.8294" style="stroke:#181818;stroke-width:1.0;"/><text fill="#000000" font-family="sans-serif" font-size="13" lengthAdjust="spacing" textLength="49" x="390.84" y="689.1045">happens</text><text fill="#000000" font-family="sans-serif" font-size="13" lengthAdjust="spacing" textLength="5" x="380.7629" y="648.5349">*</text><text fill="#000000" font-family="sans-serif" font-size="13" lengthAdjust="spacing" textLength="7" x="392.2775" y="720.2294">1</text></g><!--link Vessel to Cargo--><g id="link_Vessel_Cargo"><path codeLine="113" d="M190.71,352.4294 C144.85,375.8994 82.16,416.5494 53.84,473.6094 C6,569.9794 43.748,695.372 69.698,760.802 " fill="none" id="Vessel-to-Cargo" style="stroke:#181818;stroke-width:1.0;"/><polygon fill="#181818" points="71.91,766.3794,72.3102,756.5387,70.0666,761.7316,64.8737,759.488,71.91,766.3794" style="stroke:#181818;stroke-width:1.0;"/><text fill="#000000" font-family="sans-serif" font-size="13" lengthAdjust="spacing" textLength="21" x="54.84" y="564.6045">has</text><text fill="#000000" font-family="sans-serif" font-size="13" lengthAdjust="spacing" textLength="7" x="175.966" y="352.1936">1</text><text fill="#000000" font-family="sans-serif" font-size="13" lengthAdjust="spacing" textLength="5" x="63.5263" y="755.649">*</text></g><!--link VesselVisit to Cargo--><g id="link_VesselVisit_Cargo"><path codeLine="114" d="M319.18,627.2794 C262.52,671.7094 194.791,724.8063 146.651,762.5663 " fill="none" id="VesselVisit-to-Cargo" style="stroke:#181818;stroke-width:1.0;"/><polygon fill="#181818" points="141.93,766.2694,151.4801,763.8621,145.8641,763.1835,146.5428,757.5675,141.93,766.2694" style="stroke:#181818;stroke-width:1.0;"/><text fill="#000000" font-family="sans-serif" font-size="13" lengthAdjust="spacing" textLength="21" x="257.84" y="689.1045">has</text><text fill="#000000" font-family="sans-serif" font-size="13" lengthAdjust="spacing" textLength="7" x="302.9854" y="648.6452">1</text><text fill="#000000" font-family="sans-serif" font-size="13" lengthAdjust="spacing" textLength="5" x="144.8334" y="755.8318">*</text></g><!--link Vessel to Crew--><g id="link_Vessel_Crew"><path codeLine="115" d="M248.52,369.5394 C253.98,429.7994 264.69,545.9394 274.84,644.6094 C279.5,689.9294 284.7076,736.3383 288.4576,769.0983 " fill="none" id="Vessel-to-Crew" style="stroke:#181818;stroke-width:1.0;"/><polygon fill="#181818" points="289.14,775.0594,292.0905,765.6629,288.5714,770.0918,284.1424,766.5727,289.14,775.0594" style="stroke:#181818;stroke-width:1.0;"/><text fill="#000000" font-family="sans-serif" font-size="13" lengthAdjust="spacing" textLength="21" x="275.84" y="564.6045">has</text><text fill="#000000" font-family="sans-serif" font-size="13" lengthAdjust="spacing" textLength="7" x="241.5476" y="390.6902">1</text><text fill="#000000" font-family="sans-serif" font-size="13" lengthAdjust="spacing" textLength="7" x="280.655" y="764.1645">1</text></g><!--link VesselVisit to Crew--><g id="link_VesselVisit_Crew"><path codeLine="116" d="M374.38,627.2794 C352.62,675.2794 326.7778,732.2549 309.8778,769.5249 " fill="none" id="VesselVisit-to-Crew" style="stroke:#181818;stroke-width:1.0;"/><polygon fill="#181818" points="307.4,774.9894,314.7597,768.4446,309.4649,770.4357,307.4738,765.1408,307.4,774.9894" style="stroke:#181818;stroke-width:1.0;"/><text fill="#000000" font-family="sans-serif" font-size="13" lengthAdjust="spacing" textLength="21" x="352.84" y="689.1045">has</text><text fill="#000000" font-family="sans-serif" font-size="13" lengthAdjust="spacing" textLength="7" x="363.8779" y="648.6452">1</text><text fill="#000000" font-family="sans-serif" font-size="13" lengthAdjust="spacing" textLength="7" x="302.6811" y="764.08">1</text></g><!--link Crew to CrewMember--><g id="link_Crew_CrewMember"><path codeLine="117" d="M292.84,841.2794 C292.84,879.1694 292.84,936.8494 292.84,983.4594 " fill="none" id="Crew-to-CrewMember" style="stroke:#181818;stroke-width:1.0;"/><polygon fill="#181818" points="292.84,989.4594,296.84,980.4594,292.84,984.4594,288.84,980.4594,292.84,989.4594" style="stroke:#181818;stroke-width:1.0;"/><text fill="#000000" font-family="sans-serif" font-size="13" lengthAdjust="spacing" textLength="21" x="293.84" y="938.1045">has</text><text fill="#000000" font-family="sans-serif" font-size="13" lengthAdjust="spacing" textLength="7" x="285.2166" y="862.174">1</text><text fill="#000000" font-family="sans-serif" font-size="13" lengthAdjust="spacing" textLength="5" x="287.5353" y="978.7653">*</text></g><!--link OrganizationRepresentative to VesselVisit--><g id="link_OrganizationRepresentative_VesselVisit"><path codeLine="118" d="M428.16,395.9194 C423.86,425.8094 419.6644,454.9705 415.3644,484.8605 " fill="none" id="OrganizationRepresentative-to-VesselVisit" style="stroke:#181818;stroke-width:1.0;"/><polygon fill="#181818" points="414.51,490.7994,419.7508,482.4607,415.222,485.8503,411.8323,481.3215,414.51,490.7994" style="stroke:#181818;stroke-width:1.0;"/><text fill="#000000" font-family="sans-serif" font-size="13" lengthAdjust="spacing" textLength="46" x="423.84" y="440.1045">submits</text><text fill="#000000" font-family="sans-serif" font-size="13" lengthAdjust="spacing" textLength="7" x="419.8008" y="417.2997">1</text><text fill="#000000" font-family="sans-serif" font-size="13" lengthAdjust="spacing" textLength="5" x="410.2494" y="480.4407">*</text></g><!--link StaffMember to PhysicalResource--><g id="link_StaffMember_PhysicalResource"><path codeLine="119" d="M702.84,644.7694 C702.84,669.9094 702.84,691.4294 702.84,716.5594 " fill="none" id="StaffMember-to-PhysicalResource" style="stroke:#181818;stroke-width:1.0;"/><polygon fill="#181818" points="702.84,722.5594,706.84,713.5594,702.84,717.5594,698.84,713.5594,702.84,722.5594" style="stroke:#181818;stroke-width:1.0;"/><text fill="#000000" font-family="sans-serif" font-size="13" lengthAdjust="spacing" textLength="28" x="703.84" y="689.1045">uses</text><text fill="#000000" font-family="sans-serif" font-size="13" lengthAdjust="spacing" textLength="5" x="697.6252" y="666.3171">*</text><text fill="#000000" font-family="sans-serif" font-size="13" lengthAdjust="spacing" textLength="5" x="697.6173" y="711.7265">*</text></g><!--link StaffMember to Dock--><g id="link_StaffMember_Dock"><path codeLine="120" d="M614.26,596.3694 C560.4,620.1394 498.66,651.0494 480.84,674.6094 C468.58,690.7994 462.7044,705.2954 458.7344,725.1854 " fill="none" id="StaffMember-to-Dock" style="stroke:#181818;stroke-width:1.0;"/><polygon fill="#181818" points="457.56,731.0694,463.2443,723.0264,458.5387,726.1661,455.399,721.4605,457.56,731.0694" style="stroke:#181818;stroke-width:1.0;"/><text fill="#000000" font-family="sans-serif" font-size="13" lengthAdjust="spacing" textLength="34" x="481.84" y="689.1045">works</text><text fill="#000000" font-family="sans-serif" font-size="13" lengthAdjust="spacing" textLength="5" x="601.4328" y="596.3827">*</text><text fill="#000000" font-family="sans-serif" font-size="13" lengthAdjust="spacing" textLength="5" x="452.6801" y="720.2276">*</text></g><!--link StaffMember to Qualification--><g id="link_StaffMember_Qualification"><path codeLine="121" d="M771.69,644.8294 C787.26,668.6294 801.61,695.4594 809.84,722.6094 C838.31,816.5694 829.8131,926.9947 820.9331,991.9147 " fill="none" id="StaffMember-to-Qualification" style="stroke:#181818;stroke-width:1.0;"/><polygon fill="#181818" points="820.12,997.8594,825.3028,989.4845,820.7976,992.9055,817.3766,988.4003,820.12,997.8594" style="stroke:#181818;stroke-width:1.0;"/><text fill="#000000" font-family="sans-serif" font-size="13" lengthAdjust="spacing" textLength="21" x="829.84" y="813.6045">has</text><text fill="#000000" font-family="sans-serif" font-size="13" lengthAdjust="spacing" textLength="5" x="772.392" y="666.3822">*</text><text fill="#000000" font-family="sans-serif" font-size="13" lengthAdjust="spacing" textLength="5" x="815.9328" y="987.1296">*</text></g><!--link PhysicalResource to Qualification--><g id="link_PhysicalResource_Qualification"><path codeLine="122" d="M741.57,893.8694 C757.48,928.6794 772.8557,962.3224 786.5957,992.3824 " fill="none" id="PhysicalResource-to-Qualification" style="stroke:#181818;stroke-width:1.0;"/><polygon fill="#181818" points="789.09,997.8394,788.9865,987.9911,787.0114,993.2919,781.7106,991.3168,789.09,997.8394" style="stroke:#181818;stroke-width:1.0;"/><text fill="#000000" font-family="sans-serif" font-size="13" lengthAdjust="spacing" textLength="21" x="760.84" y="938.1045">has</text><text fill="#000000" font-family="sans-serif" font-size="13" lengthAdjust="spacing" textLength="5" x="739.6835" y="915.4257">*</text><text fill="#000000" font-family="sans-serif" font-size="13" lengthAdjust="spacing" textLength="5" x="780.5392" y="987.1068">*</text></g><!--SRC=[ZLIvSjim4Etv5HXLIMPSk5MH6STiN4YC9OrJG-2AWWq2C8x8IYR_7e2WJ827H3So5szttxuz33KCK2vgJ3bQYH9ObX66jKOle3Kmz3T3xkzfLN1Rxq4j4UMcCN5Smn9jZQAyolwbNhkpXDOpWNb32PeeAWqLFB4JB36Xvhn4fR1x1esnnX-qjlMwoLqSDkAaEmPxV8w-30NLVdwoAKuSr1IHfxo7pWLvkzIRJnJg3KmGFA3FW5Vcc90lGVOihfnSuOFf9TuQeN053mhmI7xZnBoTtuL-75EGMAM0cu8GAp4dtMEN_KYbT64UAezJ5URqJnD_X0k32hDrNn3CpD1MbihDGc8p-6CTJL7NfYZf1gJpSqpSrs-urRlmwFqmQogFCE1ccYKMUHGSHXc4iNsXcfgHghKZa-PNy0eaqCMwruaIY8iZ-8xMi3MubgElXJL4Z6tG8rQLQ4di-gr_jfYRkCMTcu9JZthojW9VzfpndjApT28KXnzK-Q7kitQ57WxpSypeZJU-MqVZGCEufxCa9AYMw2_AIt5AZqcOUiVAM3ra-_DurYugsu0MLX68A2T2p3nT4PTk1-FXiIbt3SPAFnw9DHIxWNTB5TIE_GZnvrYGEKBd8vHTjFQuBxujqDtTTxIuNyINUucEMAC1oFs6WzgyPysvZ1_x4RBuhWs13lJ5ygzCuD919u-Gv_QPVlfGj1bdXVdCxrqkLTxtfGZN80O5IonQeu67I0by6CiXmpgFHBcAIUWqgtqbGWff_asYTziV45TK7AfqKK7RVKsDxsctw75F1okrH5R3DBvLxYJKspGe7VV0Vf3ebaFs7m00]--></g></svg>