<?xml version="1.0" encoding="us-ascii" standalone="no"?><svg xmlns="http://www.w3.org/2000/svg" xmlns:xlink="http://www.w3.org/1999/xlink" contentStyleType="text/css" height="1170px" preserveAspectRatio="none" style="width:1039px;height:1170px;background:#FFFFFF;" version="1.1" viewBox="0 0 1039 1170" width="1039px" zoomAndPan="magnify"><defs/><g><rect fill="#FFFFFF" height="947.1094" style="stroke:#181818;stroke-width:1.0;" width="10" x="317.5" y="131.3125"/><rect fill="#FFFFFF" height="529.6797" style="stroke:#181818;stroke-width:1.0;" width="10" x="638.5" y="161.6641"/><rect fill="#FFFFFF" height="176.1094" style="stroke:#181818;stroke-width:1.0;" width="10" x="901.5" y="277.0703"/><rect fill="none" height="835.0547" style="stroke:#000000;stroke-width:1.5;" width="1022.5" x="10" y="236.3672"/><rect fill="none" height="559.0547" style="stroke:#000000;stroke-width:1.5;" width="948" x="20" y="396.125"/><rect fill="none" height="280.7031" style="stroke:#000000;stroke-width:1.5;" width="801.5" x="30" y="527.8828"/><line style="stroke:#181818;stroke-width:0.5;stroke-dasharray:5.0,5.0;" x1="82" x2="82" y1="82.6094" y2="1088.4219"/><line style="stroke:#181818;stroke-width:0.5;stroke-dasharray:5.0,5.0;" x1="322" x2="322" y1="82.6094" y2="1088.4219"/><line style="stroke:#181818;stroke-width:0.5;stroke-dasharray:5.0,5.0;" x1="643" x2="643" y1="82.6094" y2="1088.4219"/><line style="stroke:#181818;stroke-width:0.5;stroke-dasharray:5.0,5.0;" x1="906" x2="906" y1="82.6094" y2="1088.4219"/><text fill="#000000" font-family="sans-serif" font-size="14" lengthAdjust="spacing" textLength="79" x="40" y="79.5332">System User</text><ellipse cx="82.5" cy="13.5" fill="#E2E2F0" rx="8" ry="8" style="stroke:#181818;stroke-width:0.5;"/><path d="M82.5,21.5 L82.5,48.5 M69.5,29.5 L95.5,29.5 M82.5,48.5 L69.5,63.5 M82.5,48.5 L95.5,63.5 " fill="none" style="stroke:#181818;stroke-width:0.5;"/><text fill="#000000" font-family="sans-serif" font-size="14" lengthAdjust="spacing" textLength="79" x="40" y="1101.9551">System User</text><ellipse cx="82.5" cy="1113.5313" fill="#E2E2F0" rx="8" ry="8" style="stroke:#181818;stroke-width:0.5;"/><path d="M82.5,1121.5313 L82.5,1148.5313 M69.5,1129.5313 L95.5,1129.5313 M82.5,1148.5313 L69.5,1163.5313 M82.5,1148.5313 L95.5,1163.5313 " fill="none" style="stroke:#181818;stroke-width:0.5;"/><rect fill="#E2E2F0" height="31.6094" rx="2.5" ry="2.5" style="stroke:#181818;stroke-width:0.5;" width="113" x="266" y="50"/><text fill="#000000" font-family="sans-serif" font-size="14" lengthAdjust="spacing" textLength="99" x="273" y="71.5332">SPA (Frontend)</text><rect fill="#E2E2F0" height="31.6094" rx="2.5" ry="2.5" style="stroke:#181818;stroke-width:0.5;" width="113" x="266" y="1087.4219"/><text fill="#000000" font-family="sans-serif" font-size="14" lengthAdjust="spacing" textLength="99" x="273" y="1108.9551">SPA (Frontend)</text><rect fill="#E2E2F0" height="49.2188" rx="2.5" ry="2.5" style="stroke:#181818;stroke-width:0.5;" width="197" x="545" y="32.3906"/><text fill="#000000" font-family="sans-serif" font-size="14" lengthAdjust="spacing" textLength="55" x="616" y="53.9238">Backend</text><text fill="#000000" font-family="sans-serif" font-size="14" lengthAdjust="spacing" textLength="183" x="552" y="71.5332">(UserManagementController)</text><rect fill="#E2E2F0" height="49.2188" rx="2.5" ry="2.5" style="stroke:#181818;stroke-width:0.5;" width="197" x="545" y="1087.4219"/><text fill="#000000" font-family="sans-serif" font-size="14" lengthAdjust="spacing" textLength="55" x="616" y="1108.9551">Backend</text><text fill="#000000" font-family="sans-serif" font-size="14" lengthAdjust="spacing" textLength="183" x="552" y="1126.5645">(UserManagementController)</text><rect fill="#E2E2F0" height="49.2188" rx="2.5" ry="2.5" style="stroke:#181818;stroke-width:0.5;" width="103" x="855" y="32.3906"/><text fill="#000000" font-family="sans-serif" font-size="14" lengthAdjust="spacing" textLength="23" x="895" y="53.9238">IAM</text><text fill="#000000" font-family="sans-serif" font-size="14" lengthAdjust="spacing" textLength="89" x="862" y="71.5332">(Google Auth)</text><rect fill="#E2E2F0" height="49.2188" rx="2.5" ry="2.5" style="stroke:#181818;stroke-width:0.5;" width="103" x="855" y="1087.4219"/><text fill="#000000" font-family="sans-serif" font-size="14" lengthAdjust="spacing" textLength="23" x="895" y="1108.9551">IAM</text><text fill="#000000" font-family="sans-serif" font-size="14" lengthAdjust="spacing" textLength="89" x="862" y="1126.5645">(Google Auth)</text><rect fill="#FFFFFF" height="947.1094" style="stroke:#181818;stroke-width:1.0;" width="10" x="317.5" y="131.3125"/><rect fill="#FFFFFF" height="529.6797" style="stroke:#181818;stroke-width:1.0;" width="10" x="638.5" y="161.6641"/><rect fill="#FFFFFF" height="176.1094" style="stroke:#181818;stroke-width:1.0;" width="10" x="901.5" y="277.0703"/><polygon fill="#181818" points="305.5,127.3125,315.5,131.3125,305.5,135.3125,309.5,131.3125" style="stroke:#181818;stroke-width:1.0;"/><line style="stroke:#181818;stroke-width:1.0;" x1="82.5" x2="311.5" y1="131.3125" y2="131.3125"/><text fill="#000000" font-family="sans-serif" font-size="13" lengthAdjust="spacing" textLength="111" x="89.5" y="110.1045">Click activation link</text><text fill="#000000" font-family="sans-serif" font-size="13" lengthAdjust="spacing" textLength="129" x="89.5" y="126.4561">(with token parameter)</text><polygon fill="#181818" points="626.5,157.6641,636.5,161.6641,626.5,165.6641,630.5,161.6641" style="stroke:#181818;stroke-width:1.0;"/><line style="stroke:#181818;stroke-width:1.0;" x1="327.5" x2="632.5" y1="161.6641" y2="161.6641"/><text fill="#000000" font-family="sans-serif" font-size="13" lengthAdjust="spacing" textLength="292" x="334.5" y="156.8076">GET /api/UserManagement/activate?token={token}</text><line style="stroke:#181818;stroke-width:1.0;" x1="648.5" x2="690.5" y1="208.3672" y2="208.3672"/><line style="stroke:#181818;stroke-width:1.0;" x1="690.5" x2="690.5" y1="208.3672" y2="221.3672"/><line style="stroke:#181818;stroke-width:1.0;" x1="649.5" x2="690.5" y1="221.3672" y2="221.3672"/><polygon fill="#181818" points="659.5,217.3672,649.5,221.3672,659.5,225.3672,655.5,221.3672" style="stroke:#181818;stroke-width:1.0;"/><text fill="#000000" font-family="sans-serif" font-size="13" lengthAdjust="spacing" textLength="83" x="655.5" y="187.1592">Validate token</text><text fill="#000000" font-family="sans-serif" font-size="13" lengthAdjust="spacing" textLength="188" x="655.5" y="203.5107">(check existence and expiration)</text><path d="M10,236.3672 L71,236.3672 L71,244.7188 L61,254.7188 L10,254.7188 L10,236.3672 " fill="#EEEEEE" style="stroke:#000000;stroke-width:1.5;"/><rect fill="none" height="835.0547" style="stroke:#000000;stroke-width:1.5;" width="1022.5" x="10" y="236.3672"/><text fill="#000000" font-family="sans-serif" font-size="13" font-weight="bold" lengthAdjust="spacing" textLength="16" x="25" y="250.8623">alt</text><text fill="#000000" font-family="sans-serif" font-size="11" font-weight="bold" lengthAdjust="spacing" textLength="84" x="86" y="249.7861">[Token is valid]</text><polygon fill="#181818" points="889.5,273.0703,899.5,277.0703,889.5,281.0703,893.5,277.0703" style="stroke:#181818;stroke-width:1.0;"/><line style="stroke:#181818;stroke-width:1.0;" x1="648.5" x2="895.5" y1="277.0703" y2="277.0703"/><text fill="#000000" font-family="sans-serif" font-size="13" lengthAdjust="spacing" textLength="234" x="655.5" y="272.2139">Redirect to Google OAuth authentication</text><polygon fill="#181818" points="93.5,303.4219,83.5,307.4219,93.5,311.4219,89.5,307.4219" style="stroke:#181818;stroke-width:1.0;"/><line style="stroke:#181818;stroke-width:1.0;" x1="87.5" x2="900.5" y1="307.4219" y2="307.4219"/><text fill="#000000" font-family="sans-serif" font-size="13" lengthAdjust="spacing" textLength="133" x="99.5" y="302.5654">Request authentication</text><polygon fill="#181818" points="889.5,333.7734,899.5,337.7734,889.5,341.7734,893.5,337.7734" style="stroke:#181818;stroke-width:1.0;"/><line style="stroke:#181818;stroke-width:1.0;" x1="82.5" x2="895.5" y1="337.7734" y2="337.7734"/><text fill="#000000" font-family="sans-serif" font-size="13" lengthAdjust="spacing" textLength="109" x="89.5" y="332.917">Provide credentials</text><line style="stroke:#181818;stroke-width:1.0;" x1="911.5" x2="953.5" y1="368.125" y2="368.125"/><line style="stroke:#181818;stroke-width:1.0;" x1="953.5" x2="953.5" y1="368.125" y2="381.125"/><line style="stroke:#181818;stroke-width:1.0;" x1="912.5" x2="953.5" y1="381.125" y2="381.125"/><polygon fill="#181818" points="922.5,377.125,912.5,381.125,922.5,385.125,918.5,381.125" style="stroke:#181818;stroke-width:1.0;"/><text fill="#000000" font-family="sans-serif" font-size="13" lengthAdjust="spacing" textLength="102" x="918.5" y="363.2686">Authenticate user</text><path d="M20,396.125 L81,396.125 L81,404.4766 L71,414.4766 L20,414.4766 L20,396.125 " fill="#EEEEEE" style="stroke:#000000;stroke-width:1.5;"/><rect fill="none" height="559.0547" style="stroke:#000000;stroke-width:1.5;" width="948" x="20" y="396.125"/><text fill="#000000" font-family="sans-serif" font-size="13" font-weight="bold" lengthAdjust="spacing" textLength="16" x="35" y="410.6201">alt</text><text fill="#000000" font-family="sans-serif" font-size="11" font-weight="bold" lengthAdjust="spacing" textLength="152" x="96" y="409.5439">[Authentication successful]</text><polygon fill="#181818" points="659.5,449.1797,649.5,453.1797,659.5,457.1797,655.5,453.1797" style="stroke:#181818;stroke-width:1.0;"/><line style="stroke:#181818;stroke-width:1.0;" x1="653.5" x2="905.5" y1="453.1797" y2="453.1797"/><text fill="#000000" font-family="sans-serif" font-size="13" lengthAdjust="spacing" textLength="178" x="665.5" y="431.9717">Return authenticated user data</text><text fill="#000000" font-family="sans-serif" font-size="13" lengthAdjust="spacing" textLength="134" x="665.5" y="448.3232">(email from JWT token)</text><line style="stroke:#181818;stroke-width:1.0;" x1="648.5" x2="690.5" y1="499.8828" y2="499.8828"/><line style="stroke:#181818;stroke-width:1.0;" x1="690.5" x2="690.5" y1="499.8828" y2="512.8828"/><line style="stroke:#181818;stroke-width:1.0;" x1="649.5" x2="690.5" y1="512.8828" y2="512.8828"/><polygon fill="#181818" points="659.5,508.8828,649.5,512.8828,659.5,516.8828,655.5,512.8828" style="stroke:#181818;stroke-width:1.0;"/><text fill="#000000" font-family="sans-serif" font-size="13" lengthAdjust="spacing" textLength="150" x="655.5" y="478.6748">Verify authenticated email</text><text fill="#000000" font-family="sans-serif" font-size="13" lengthAdjust="spacing" textLength="168" x="655.5" y="495.0264">matches user linked to token</text><path d="M30,527.8828 L91,527.8828 L91,536.2344 L81,546.2344 L30,546.2344 L30,527.8828 " fill="#EEEEEE" style="stroke:#000000;stroke-width:1.5;"/><rect fill="none" height="280.7031" style="stroke:#000000;stroke-width:1.5;" width="801.5" x="30" y="527.8828"/><text fill="#000000" font-family="sans-serif" font-size="13" font-weight="bold" lengthAdjust="spacing" textLength="16" x="45" y="542.3779">alt</text><text fill="#000000" font-family="sans-serif" font-size="11" font-weight="bold" lengthAdjust="spacing" textLength="88" x="106" y="541.3018">[Email matches]</text><line style="stroke:#181818;stroke-width:1.0;" x1="648.5" x2="690.5" y1="584.9375" y2="584.9375"/><line style="stroke:#181818;stroke-width:1.0;" x1="690.5" x2="690.5" y1="584.9375" y2="597.9375"/><line style="stroke:#181818;stroke-width:1.0;" x1="649.5" x2="690.5" y1="597.9375" y2="597.9375"/><polygon fill="#181818" points="659.5,593.9375,649.5,597.9375,659.5,601.9375,655.5,597.9375" style="stroke:#181818;stroke-width:1.0;"/><text fill="#000000" font-family="sans-serif" font-size="13" lengthAdjust="spacing" textLength="164" x="655.5" y="563.7295">Update user status to Active</text><text fill="#000000" font-family="sans-serif" font-size="13" lengthAdjust="spacing" textLength="131" x="655.5" y="580.0811">Delete activation token</text><polygon fill="#181818" points="338.5,640.6406,328.5,644.6406,338.5,648.6406,334.5,644.6406" style="stroke:#181818;stroke-width:1.0;"/><line style="stroke:#181818;stroke-width:1.0;stroke-dasharray:2.0,2.0;" x1="332.5" x2="637.5" y1="644.6406" y2="644.6406"/><text fill="#000000" font-family="sans-serif" font-size="13" lengthAdjust="spacing" textLength="148" x="344.5" y="623.4326">Redirect to success page</text><text fill="#000000" font-family="sans-serif" font-size="13" lengthAdjust="spacing" textLength="101" x="344.5" y="639.7842">(status=success)</text><polygon fill="#181818" points="93.5,687.3438,83.5,691.3438,93.5,695.3438,89.5,691.3438" style="stroke:#181818;stroke-width:1.0;"/><line style="stroke:#181818;stroke-width:1.0;stroke-dasharray:2.0,2.0;" x1="87.5" x2="316.5" y1="691.3438" y2="691.3438"/><text fill="#000000" font-family="sans-serif" font-size="13" lengthAdjust="spacing" textLength="211" x="99.5" y="670.1357">Display activation success message</text><text fill="#000000" font-family="sans-serif" font-size="13" lengthAdjust="spacing" textLength="199" x="99.5" y="686.4873">"Your account has been activated"</text><line style="stroke:#000000;stroke-width:1.0;stroke-dasharray:2.0,2.0;" x1="30" x2="831.5" y1="700.3438" y2="700.3438"/><text fill="#000000" font-family="sans-serif" font-size="11" font-weight="bold" lengthAdjust="spacing" textLength="95" x="35" y="711.7627">[Email mismatch]</text><polygon fill="#181818" points="338.5,749.8828,328.5,753.8828,338.5,757.8828,334.5,753.8828" style="stroke:#181818;stroke-width:1.0;"/><line style="stroke:#181818;stroke-width:1.0;stroke-dasharray:2.0,2.0;" x1="332.5" x2="642.5" y1="753.8828" y2="753.8828"/><text fill="#000000" font-family="sans-serif" font-size="13" lengthAdjust="spacing" textLength="125" x="344.5" y="732.6748">Redirect to error page</text><text fill="#000000" font-family="sans-serif" font-size="13" lengthAdjust="spacing" textLength="78" x="344.5" y="749.0264">(status=error)</text><polygon fill="#181818" points="93.5,796.5859,83.5,800.5859,93.5,804.5859,89.5,800.5859" style="stroke:#181818;stroke-width:1.0;"/><line style="stroke:#181818;stroke-width:1.0;stroke-dasharray:2.0,2.0;" x1="87.5" x2="316.5" y1="800.5859" y2="800.5859"/><text fill="#000000" font-family="sans-serif" font-size="13" lengthAdjust="spacing" textLength="130" x="99.5" y="779.3779">Display error message</text><text fill="#000000" font-family="sans-serif" font-size="13" lengthAdjust="spacing" textLength="127" x="99.5" y="795.7295">"User data mismatch"</text><line style="stroke:#000000;stroke-width:1.0;stroke-dasharray:2.0,2.0;" x1="20" x2="968" y1="816.5859" y2="816.5859"/><text fill="#000000" font-family="sans-serif" font-size="11" font-weight="bold" lengthAdjust="spacing" textLength="121" x="25" y="828.0049">[Authentication failed]</text><polygon fill="#181818" points="654.5,849.7734,644.5,853.7734,654.5,857.7734,650.5,853.7734" style="stroke:#181818;stroke-width:1.0;"/><line style="stroke:#181818;stroke-width:1.0;stroke-dasharray:2.0,2.0;" x1="648.5" x2="905.5" y1="853.7734" y2="853.7734"/><text fill="#000000" font-family="sans-serif" font-size="13" lengthAdjust="spacing" textLength="113" x="660.5" y="848.917">Authentication error</text><polygon fill="#181818" points="338.5,896.4766,328.5,900.4766,338.5,904.4766,334.5,900.4766" style="stroke:#181818;stroke-width:1.0;"/><line style="stroke:#181818;stroke-width:1.0;stroke-dasharray:2.0,2.0;" x1="332.5" x2="642.5" y1="900.4766" y2="900.4766"/><text fill="#000000" font-family="sans-serif" font-size="13" lengthAdjust="spacing" textLength="125" x="344.5" y="879.2686">Redirect to error page</text><text fill="#000000" font-family="sans-serif" font-size="13" lengthAdjust="spacing" textLength="78" x="344.5" y="895.6201">(status=error)</text><polygon fill="#181818" points="93.5,943.1797,83.5,947.1797,93.5,951.1797,89.5,947.1797" style="stroke:#181818;stroke-width:1.0;"/><line style="stroke:#181818;stroke-width:1.0;stroke-dasharray:2.0,2.0;" x1="87.5" x2="316.5" y1="947.1797" y2="947.1797"/><text fill="#000000" font-family="sans-serif" font-size="13" lengthAdjust="spacing" textLength="130" x="99.5" y="925.9717">Display error message</text><text fill="#000000" font-family="sans-serif" font-size="13" lengthAdjust="spacing" textLength="127" x="99.5" y="942.3232">"Authentication failed"</text><line style="stroke:#000000;stroke-width:1.0;stroke-dasharray:2.0,2.0;" x1="10" x2="1032.5" y1="963.1797" y2="963.1797"/><text fill="#000000" font-family="sans-serif" font-size="11" font-weight="bold" lengthAdjust="spacing" textLength="154" x="15" y="974.5986">[Token is invalid or expired]</text><polygon fill="#181818" points="338.5,1012.7188,328.5,1016.7188,338.5,1020.7188,334.5,1016.7188" style="stroke:#181818;stroke-width:1.0;"/><line style="stroke:#181818;stroke-width:1.0;stroke-dasharray:2.0,2.0;" x1="332.5" x2="642.5" y1="1016.7188" y2="1016.7188"/><text fill="#000000" font-family="sans-serif" font-size="13" lengthAdjust="spacing" textLength="125" x="344.5" y="995.5107">Redirect to error page</text><text fill="#000000" font-family="sans-serif" font-size="13" lengthAdjust="spacing" textLength="78" x="344.5" y="1011.8623">(status=error)</text><polygon fill="#181818" points="93.5,1059.4219,83.5,1063.4219,93.5,1067.4219,89.5,1063.4219" style="stroke:#181818;stroke-width:1.0;"/><line style="stroke:#181818;stroke-width:1.0;stroke-dasharray:2.0,2.0;" x1="87.5" x2="316.5" y1="1063.4219" y2="1063.4219"/><text fill="#000000" font-family="sans-serif" font-size="13" lengthAdjust="spacing" textLength="130" x="99.5" y="1042.2139">Display error message</text><text fill="#000000" font-family="sans-serif" font-size="13" lengthAdjust="spacing" textLength="188" x="99.5" y="1058.5654">"Invalid or expired activation link"</text><!--SRC=[hLLDRzim3BtxLn0v9OSXzm3TuBLTqG75YYxPC20NLMOI8RBiINBMODX_7qLR_agxBiDoS6oPV8_lYPI5z8M5oUUZyvZ3og6TW71yavJ2UYLLAOodYFiKfXziOJoQRCP1yMaO-5x8FIskpJI0t0aZjfYZyPSKR0kjqTRPJTmm-JQzeyIRejXgXBJokpgMbfCamC6Rjotj0YwradiGqgk3yAeme9NPK_uFvNVW2u87GXSvUY9DcZZiwaxYNO1jwbd0pVKIvg9Kys7zyvZ_Zf4lVlBVhmus2agQcm7e5w5L5g8uYsgKEwJQyKcHyKOY24h0fr9PLZ9B4g4zB5c3Sd08wGdGhmTEhYpW0JDbKNe2XiQtJy4u47IXifLaGCvjImr-XWM-q4D02se3tFSAdNykE_hFjFUsEAWCGLhCGfpGhW_6CMc7WL25ZcevWxXqG06kaXATsrIQ8tfWhOaFw2jh-hLXni10rWeo5NEXD6niaSF7hylQwraBb-690Mr18skxVKEhDiSH9TEiJIuyxQAhAmYjHwze5vZr53r8lkRwchpspKlSgpABpe7pmbSkmAT10wxD5Mhgwtxt3ua7g8EnwRTCuphDoPOmfpNDHRCw6u1rmz9sovLofHR7VX4HCASBOqw-5PMb25bKDE4xckP7fAQEMv5D1YIzFOhp55-XTXWTL8vDF5CiMak7tL0ghyt-jePNVAW9Ekchs9jjnPtQ2CkoHhEm8P6O3UUWtncZSAPzhSt_Ypr_iEOCMvvLMpiJ4DcHzkXJXWy_80G-7t5q3lwhd1Uad27ZzgIoyRTeal07eKVLVdj-0m00]--></g></svg>