<?xml version="1.0" encoding="us-ascii" standalone="no"?><svg xmlns="http://www.w3.org/2000/svg" xmlns:xlink="http://www.w3.org/1999/xlink" contentStyleType="text/css" height="562px" preserveAspectRatio="none" style="width:647px;height:562px;background:#FFFFFF;" version="1.1" viewBox="0 0 647 562" width="647px" zoomAndPan="magnify"><defs/><g><text fill="#000000" font-family="Arial" font-size="14" font-weight="bold" lengthAdjust="spacing" textLength="149" x="242" y="23.1318">Level 2 Physical View</text><!--cluster CLIENT--><g id="cluster_CLIENT"><polygon fill="#5DADE2" points="116,53.0986,126,43.0986,291,43.0986,291,240.0986,281,250.0986,116,250.0986,116,53.0986" style="stroke:#000000;stroke-width:1.0;"/><line style="stroke:#000000;stroke-width:1.0;" x1="281" x2="291" y1="53.0986" y2="43.0986"/><line style="stroke:#000000;stroke-width:1.0;" x1="116" x2="281" y1="53.0986" y2="53.0986"/><line style="stroke:#000000;stroke-width:1.0;" x1="281" x2="281" y1="53.0986" y2="250.0986"/><text fill="#000000" font-family="Arial" font-size="14" font-weight="bold" lengthAdjust="spacing" textLength="64" x="167.5" y="69.2305">localhost</text></g><!--cluster BROWSER--><g id="cluster_BROWSER"><rect fill="#5DADE2" height="119" rx="2.5" ry="2.5" style="stroke:#000000;stroke-width:1.0;" width="111" x="148" y="99.0986"/><text fill="#000000" font-family="Arial" font-size="14" font-weight="bold" lengthAdjust="spacing" textLength="95" x="156" y="114.2305">&#171;component&#187;</text><text fill="#000000" font-family="Arial" font-size="14" font-weight="bold" lengthAdjust="spacing" textLength="59" x="174" y="130.3291">Browser</text></g><!--cluster WEB--><g id="cluster_WEB"><polygon fill="#5DADE2" points="16,324.0986,26,314.0986,154,314.0986,154,412.0986,144,422.0986,16,422.0986,16,324.0986" style="stroke:#000000;stroke-width:1.0;"/><line style="stroke:#000000;stroke-width:1.0;" x1="144" x2="154" y1="324.0986" y2="314.0986"/><line style="stroke:#000000;stroke-width:1.0;" x1="16" x2="144" y1="324.0986" y2="324.0986"/><line style="stroke:#000000;stroke-width:1.0;" x1="144" x2="144" y1="324.0986" y2="422.0986"/><text fill="#000000" font-family="Arial" font-size="14" font-weight="bold" lengthAdjust="spacing" textLength="55" x="53.5" y="340.2305">server2</text></g><!--cluster APP--><g id="cluster_APP"><polygon fill="#5DADE2" points="186,316.0986,196,306.0986,630,306.0986,630,535.0986,620,545.0986,186,545.0986,186,316.0986" style="stroke:#000000;stroke-width:1.0;"/><line style="stroke:#000000;stroke-width:1.0;" x1="620" x2="630" y1="316.0986" y2="306.0986"/><line style="stroke:#000000;stroke-width:1.0;" x1="186" x2="620" y1="316.0986" y2="316.0986"/><line style="stroke:#000000;stroke-width:1.0;" x1="620" x2="620" y1="316.0986" y2="545.0986"/><text fill="#000000" font-family="Arial" font-size="14" font-weight="bold" lengthAdjust="spacing" textLength="55" x="376.5" y="332.2305">server1</text></g><!--entity UI--><g id="elem_UI"><rect fill="#5DADE2" height="36.0986" rx="2.5" ry="2.5" style="stroke:#000000;stroke-width:0.5;" width="32" x="202" y="158.0986"/><text fill="#000000" font-family="Arial" font-size="14" lengthAdjust="spacing" textLength="12" x="212" y="181.2305">UI</text></g><!--entity WEBHTTP--><g id="elem_WEBHTTP"><rect fill="#5DADE2" height="52.1973" rx="2.5" ry="2.5" style="stroke:#000000;stroke-width:0.5;" width="106" x="32" y="354.0986"/><text fill="#000000" font-family="Arial" font-size="14" lengthAdjust="spacing" textLength="86" x="42" y="377.2305">&#171;component&#187;</text><text fill="#000000" font-family="Arial" font-size="14" lengthAdjust="spacing" textLength="82" x="42" y="393.3291">HTTP Server</text></g><!--entity API--><g id="elem_API"><rect fill="#5DADE2" height="52.1973" rx="2.5" ry="2.5" style="stroke:#000000;stroke-width:0.5;" width="106" x="359" y="354.0986"/><text fill="#000000" font-family="Arial" font-size="14" lengthAdjust="spacing" textLength="86" x="369" y="377.2305">&#171;component&#187;</text><text fill="#000000" font-family="Arial" font-size="14" lengthAdjust="spacing" textLength="84" x="369" y="393.3291">Backend App</text></g><!--entity DS--><g id="elem_DS"><rect fill="#5DADE2" height="52.1973" rx="2.5" ry="2.5" style="stroke:#000000;stroke-width:0.5;" width="106" x="218" y="469.0986"/><text fill="#000000" font-family="Arial" font-size="14" lengthAdjust="spacing" textLength="86" x="228" y="492.2305">&#171;component&#187;</text><text fill="#000000" font-family="Arial" font-size="14" lengthAdjust="spacing" textLength="81" x="228" y="508.3291">Data Service</text></g><!--entity VVN--><g id="elem_VVN"><rect fill="#5DADE2" height="52.1973" rx="2.5" ry="2.5" style="stroke:#000000;stroke-width:0.5;" width="106" x="359" y="469.0986"/><text fill="#000000" font-family="Arial" font-size="14" lengthAdjust="spacing" textLength="86" x="369" y="492.2305">&#171;component&#187;</text><text fill="#000000" font-family="Arial" font-size="14" lengthAdjust="spacing" textLength="78" x="369" y="508.3291">VVN Service</text></g><!--entity PLAN--><g id="elem_PLAN"><rect fill="#5DADE2" height="52.1973" rx="2.5" ry="2.5" style="stroke:#000000;stroke-width:0.5;" width="106" x="500" y="469.0986"/><text fill="#000000" font-family="Arial" font-size="14" lengthAdjust="spacing" textLength="86" x="510" y="492.2305">&#171;component&#187;</text><text fill="#000000" font-family="Arial" font-size="14" lengthAdjust="spacing" textLength="83" x="510" y="508.3291">Planeamento</text></g><!--link WEBHTTP to UI--><!--link API to DS--><g id="link_API_DS"><path d="M383.57,406.1086 C374.53,413.9086 364.43,422.4586 355,430.0986 C338.76,443.2486 320.32,457.3786 304.87,469.0086 " fill="none" id="API-DS" style="stroke:#181818;stroke-width:1.0;"/></g><!--link API to VVN--><g id="link_API_VVN"><path d="M412,406.1786 C412,424.8986 412,450.3786 412,469.0886 " fill="none" id="API-VVN" style="stroke:#181818;stroke-width:1.0;"/></g><!--link API to PLAN--><g id="link_API_PLAN"><path d="M443.29,406.1786 C466.66,424.8986 498.45,450.3786 521.8,469.0886 " fill="none" id="API-PLAN" style="stroke:#181818;stroke-width:1.0;"/></g><!--link BROWSER to WEBHTTP--><g id="link_BROWSER_WEBHTTP"><path d="M147.9357,204.9496 C147.8578,205.165 147.7796,205.3814 147.7011,205.5988 C147.544,206.0335 147.3855,206.4719 147.2257,206.9141 C146.9061,207.7985 146.5811,208.6977 146.251,209.611 C144.9307,213.2642 143.5287,217.1434 142.061,221.2048 C139.1254,229.3277 135.9266,238.1793 132.5912,247.4086 C119.25,284.3261 105.7643,321.6458 96.1693,348.1958 " fill="none" id="BROWSER-to-WEBHTTP" style="stroke:#1B4B5A;stroke-width:1.0;"/><polygon fill="#1B4B5A" points="94.13,353.8386,100.9508,346.7339,95.8294,349.1363,93.427,344.0149,94.13,353.8386" style="stroke:#1B4B5A;stroke-width:1.0;"/><text fill="#000000" font-family="Arial" font-size="13" lengthAdjust="spacing" textLength="33" x="125" y="279.2925">http/s</text></g><!--link BROWSER to APP--><g id="link_BROWSER_APP"><path d="M165.4152,218.6976 C165.4716,219.0137 165.5281,219.331 165.5849,219.6495 C165.6984,220.2864 165.8127,220.9281 165.9279,221.5744 C166.1582,222.8669 166.3918,224.1776 166.6283,225.5051 C167.5746,230.8152 168.5688,236.3944 169.595,242.1529 C171.6473,253.6698 173.8275,265.9039 176.0075,278.1374 C178.1875,290.3708 180.3673,302.6036 182.4191,314.1177 C183.4449,319.8747 184.4388,325.4521 185.3846,330.7602 C185.5028,331.4237 185.6203,332.083 185.7369,332.7379 C185.7953,333.0653 185.8534,333.3917 185.9114,333.7169 C185.9404,333.8795 184.9168,328.1349 184.9457,328.297 " fill="none" id="BROWSER-to-APP" style="stroke:#1B4B5A;stroke-width:1.0;"/><polygon fill="#1B4B5A" points="185.9982,334.2039,188.3574,324.6418,185.1211,329.2815,180.4814,326.0452,185.9982,334.2039" style="stroke:#1B4B5A;stroke-width:1.0;"/><text fill="#000000" font-family="Arial" font-size="13" lengthAdjust="spacing" textLength="33" x="177" y="279.2925">http/s</text></g><!--SRC=[dL9BYy8m4BxtLmnwBhlAUbb4Q6qN2z8jriT1zn2RMIt6fAHHaSN_ladmKHUfiBdDpFUOBudA5KCOuXuPj25P7yiy8mocEHuSfzpal22IR87YDzanzI6uYiaMmPCvOPLv9hQ5uCXLgevQJsAc25ynh42ue0W_3e1FiirAYXsdVS64X6Ody8AmRIP2KfJdxgizpkcHoxzq7Bj1WmaTS2rArG1IGdyOXV7OwjtK6ztkjUZr5joNub2Yj0H_z3bBmv5br74caOLF8eqxtTorp1vbsyvceV_4U30U9v1QoeLXMlUSczCVbvRjUqdoB9w-IEGKlA8uCw9QV40KiLlb6Lf2aDRYfzFu3gxhMdp224VzoxWI5fyClTXaEwS7Tpx8AKN-vVPCQhqkk5GSk6iMgLJ6fr9Q6UVoVkwysLg-BJl4g5oKts6jLF5IFaQPcxmYd5y0]--></g></svg>