<?xml version="1.0" encoding="us-ascii" standalone="no"?><svg xmlns="http://www.w3.org/2000/svg" xmlns:xlink="http://www.w3.org/1999/xlink" contentStyleType="text/css" height="519px" preserveAspectRatio="none" style="width:1285px;height:519px;background:#FFFFFF;" version="1.1" viewBox="0 0 1285 519" width="1285px" zoomAndPan="magnify"><defs/><g><rect fill="#FFFFFF" height="327.2188" style="stroke:#181818;stroke-width:1.0;" width="10" x="101" y="92.6094"/><rect fill="#FFFFFF" height="288.5156" style="stroke:#181818;stroke-width:1.0;" width="10" x="376" y="131.3125"/><rect fill="#FFFFFF" height="211.4609" style="stroke:#181818;stroke-width:1.0;" width="10" x="608" y="161.6641"/><rect fill="#FFFFFF" height="107.4063" style="stroke:#181818;stroke-width:1.0;" width="10" x="989" y="192.0156"/><rect fill="#FFFFFF" height="30.3516" style="stroke:#181818;stroke-width:1.0;" width="10" x="1245" y="238.7188"/><line style="stroke:#181818;stroke-width:0.5;stroke-dasharray:5.0,5.0;" x1="106" x2="106" y1="82.6094" y2="437.8281"/><line style="stroke:#181818;stroke-width:0.5;stroke-dasharray:5.0,5.0;" x1="381" x2="381" y1="82.6094" y2="437.8281"/><line style="stroke:#181818;stroke-width:0.5;stroke-dasharray:5.0,5.0;" x1="613" x2="613" y1="82.6094" y2="437.8281"/><line style="stroke:#181818;stroke-width:0.5;stroke-dasharray:5.0,5.0;" x1="797" x2="797" y1="82.6094" y2="437.8281"/><line style="stroke:#181818;stroke-width:0.5;stroke-dasharray:5.0,5.0;" x1="994" x2="994" y1="82.6094" y2="437.8281"/><line style="stroke:#181818;stroke-width:0.5;stroke-dasharray:5.0,5.0;" x1="1158" x2="1158" y1="82.6094" y2="437.8281"/><line style="stroke:#181818;stroke-width:0.5;stroke-dasharray:5.0,5.0;" x1="1249.5" x2="1249.5" y1="82.6094" y2="437.8281"/><text fill="#000000" font-family="sans-serif" font-size="14" lengthAdjust="spacing" textLength="196" x="5" y="79.5332">Shipping Agent Representative</text><ellipse cx="106" cy="13.5" fill="#E2E2F0" rx="8" ry="8" style="stroke:#181818;stroke-width:0.5;"/><path d="M106,21.5 L106,48.5 M93,29.5 L119,29.5 M106,48.5 L93,63.5 M106,48.5 L119,63.5 " fill="none" style="stroke:#181818;stroke-width:0.5;"/><text fill="#000000" font-family="sans-serif" font-size="14" lengthAdjust="spacing" textLength="196" x="5" y="451.3613">Shipping Agent Representative</text><ellipse cx="106" cy="462.9375" fill="#E2E2F0" rx="8" ry="8" style="stroke:#181818;stroke-width:0.5;"/><path d="M106,470.9375 L106,497.9375 M93,478.9375 L119,478.9375 M106,497.9375 L93,512.9375 M106,497.9375 L119,512.9375 " fill="none" style="stroke:#181818;stroke-width:0.5;"/><rect fill="#E2E2F0" height="31.6094" rx="2.5" ry="2.5" style="stroke:#181818;stroke-width:0.5;" width="220" x="271" y="50"/><text fill="#000000" font-family="sans-serif" font-size="14" lengthAdjust="spacing" textLength="206" x="278" y="71.5332">VesselVisitNotificationsController</text><rect fill="#E2E2F0" height="31.6094" rx="2.5" ry="2.5" style="stroke:#181818;stroke-width:0.5;" width="220" x="271" y="436.8281"/><text fill="#000000" font-family="sans-serif" font-size="14" lengthAdjust="spacing" textLength="206" x="278" y="458.3613">VesselVisitNotificationsController</text><rect fill="#E2E2F0" height="31.6094" rx="2.5" ry="2.5" style="stroke:#181818;stroke-width:0.5;" width="198" x="514" y="50"/><text fill="#000000" font-family="sans-serif" font-size="14" lengthAdjust="spacing" textLength="184" x="521" y="71.5332">VesselVisitNotificationService</text><rect fill="#E2E2F0" height="31.6094" rx="2.5" ry="2.5" style="stroke:#181818;stroke-width:0.5;" width="198" x="514" y="436.8281"/><text fill="#000000" font-family="sans-serif" font-size="14" lengthAdjust="spacing" textLength="184" x="521" y="458.3613">VesselVisitNotificationService</text><rect fill="#E2E2F0" height="31.6094" rx="2.5" ry="2.5" style="stroke:#181818;stroke-width:0.5;" width="151" x="722" y="50"/><text fill="#000000" font-family="sans-serif" font-size="14" lengthAdjust="spacing" textLength="137" x="729" y="71.5332">VesselVisitNotification</text><rect fill="#E2E2F0" height="31.6094" rx="2.5" ry="2.5" style="stroke:#181818;stroke-width:0.5;" width="151" x="722" y="436.8281"/><text fill="#000000" font-family="sans-serif" font-size="14" lengthAdjust="spacing" textLength="137" x="729" y="458.3613">VesselVisitNotification</text><rect fill="#E2E2F0" height="31.6094" rx="2.5" ry="2.5" style="stroke:#181818;stroke-width:0.5;" width="222" x="883" y="50"/><text fill="#000000" font-family="sans-serif" font-size="14" lengthAdjust="spacing" textLength="208" x="890" y="71.5332">IVesselVisitNotificationRepository</text><rect fill="#E2E2F0" height="31.6094" rx="2.5" ry="2.5" style="stroke:#181818;stroke-width:0.5;" width="222" x="883" y="436.8281"/><text fill="#000000" font-family="sans-serif" font-size="14" lengthAdjust="spacing" textLength="208" x="890" y="458.3613">IVesselVisitNotificationRepository</text><rect fill="#E2E2F0" height="31.6094" rx="2.5" ry="2.5" style="stroke:#181818;stroke-width:0.5;" width="86" x="1115" y="50"/><text fill="#000000" font-family="sans-serif" font-size="14" lengthAdjust="spacing" textLength="72" x="1122" y="71.5332">UnitOfWork</text><rect fill="#E2E2F0" height="31.6094" rx="2.5" ry="2.5" style="stroke:#181818;stroke-width:0.5;" width="86" x="1115" y="436.8281"/><text fill="#000000" font-family="sans-serif" font-size="14" lengthAdjust="spacing" textLength="72" x="1122" y="458.3613">UnitOfWork</text><text fill="#000000" font-family="sans-serif" font-size="14" lengthAdjust="spacing" textLength="61" x="1216.5" y="79.5332">Database</text><path d="M1232,29 C1232,19 1250,19 1250,19 C1250,19 1268,19 1268,29 L1268,55 C1268,65 1250,65 1250,65 C1250,65 1232,65 1232,55 L1232,29 " fill="#E2E2F0" style="stroke:#181818;stroke-width:1.5;"/><path d="M1232,29 C1232,39 1250,39 1250,39 C1250,39 1268,39 1268,29 " fill="none" style="stroke:#181818;stroke-width:1.5;"/><text fill="#000000" font-family="sans-serif" font-size="14" lengthAdjust="spacing" textLength="61" x="1216.5" y="451.3613">Database</text><path d="M1232,464.4375 C1232,454.4375 1250,454.4375 1250,454.4375 C1250,454.4375 1268,454.4375 1268,464.4375 L1268,490.4375 C1268,500.4375 1250,500.4375 1250,500.4375 C1250,500.4375 1232,500.4375 1232,490.4375 L1232,464.4375 " fill="#E2E2F0" style="stroke:#181818;stroke-width:1.5;"/><path d="M1232,464.4375 C1232,474.4375 1250,474.4375 1250,474.4375 C1250,474.4375 1268,474.4375 1268,464.4375 " fill="none" style="stroke:#181818;stroke-width:1.5;"/><rect fill="#FFFFFF" height="327.2188" style="stroke:#181818;stroke-width:1.0;" width="10" x="101" y="92.6094"/><rect fill="#FFFFFF" height="288.5156" style="stroke:#181818;stroke-width:1.0;" width="10" x="376" y="131.3125"/><rect fill="#FFFFFF" height="211.4609" style="stroke:#181818;stroke-width:1.0;" width="10" x="608" y="161.6641"/><rect fill="#FFFFFF" height="107.4063" style="stroke:#181818;stroke-width:1.0;" width="10" x="989" y="192.0156"/><rect fill="#FFFFFF" height="30.3516" style="stroke:#181818;stroke-width:1.0;" width="10" x="1245" y="238.7188"/><polygon fill="#181818" points="364,127.3125,374,131.3125,364,135.3125,368,131.3125" style="stroke:#181818;stroke-width:1.0;"/><line style="stroke:#181818;stroke-width:1.0;" x1="111" x2="370" y1="131.3125" y2="131.3125"/><text fill="#000000" font-family="sans-serif" font-size="13" font-weight="bold" lengthAdjust="spacing" textLength="7" x="118" y="118.2803">1</text><text fill="#000000" font-family="sans-serif" font-size="13" lengthAdjust="spacing" textLength="235" x="129" y="110.1045">GET /api/VesselVisitNotifications/search</text><text fill="#000000" font-family="sans-serif" font-size="13" lengthAdjust="spacing" textLength="218" x="129" y="126.4561">?vessel&amp;status&amp;representative&amp;dates</text><polygon fill="#181818" points="596,157.6641,606,161.6641,596,165.6641,600,161.6641" style="stroke:#181818;stroke-width:1.0;"/><line style="stroke:#181818;stroke-width:1.0;" x1="386" x2="602" y1="161.6641" y2="161.6641"/><text fill="#000000" font-family="sans-serif" font-size="13" font-weight="bold" lengthAdjust="spacing" textLength="7" x="393" y="156.8076">2</text><text fill="#000000" font-family="sans-serif" font-size="13" lengthAdjust="spacing" textLength="188" x="404" y="156.8076">SearchNotificationsAsync(filters)</text><polygon fill="#181818" points="977,188.0156,987,192.0156,977,196.0156,981,192.0156" style="stroke:#181818;stroke-width:1.0;"/><line style="stroke:#181818;stroke-width:1.0;" x1="618" x2="983" y1="192.0156" y2="192.0156"/><text fill="#000000" font-family="sans-serif" font-size="13" font-weight="bold" lengthAdjust="spacing" textLength="7" x="625" y="187.1592">3</text><text fill="#000000" font-family="sans-serif" font-size="13" lengthAdjust="spacing" textLength="276" x="636" y="187.1592">SearchNotificationsAsync(filters, organizationId)</text><polygon fill="#181818" points="1233,234.7188,1243,238.7188,1233,242.7188,1237,238.7188" style="stroke:#181818;stroke-width:1.0;"/><line style="stroke:#181818;stroke-width:1.0;" x1="999" x2="1239" y1="238.7188" y2="238.7188"/><text fill="#000000" font-family="sans-serif" font-size="13" font-weight="bold" lengthAdjust="spacing" textLength="7" x="1006" y="225.6865">4</text><text fill="#000000" font-family="sans-serif" font-size="13" lengthAdjust="spacing" textLength="94" x="1017" y="217.5107">query with filters</text><text fill="#000000" font-family="sans-serif" font-size="13" lengthAdjust="spacing" textLength="216" x="1017" y="233.8623">(vessel, status, representative, dates)</text><polygon fill="#181818" points="1010,265.0703,1000,269.0703,1010,273.0703,1006,269.0703" style="stroke:#181818;stroke-width:1.0;"/><line style="stroke:#181818;stroke-width:1.0;stroke-dasharray:2.0,2.0;" x1="1004" x2="1249" y1="269.0703" y2="269.0703"/><text fill="#000000" font-family="sans-serif" font-size="13" font-weight="bold" lengthAdjust="spacing" textLength="7" x="1016" y="264.2139">5</text><text fill="#000000" font-family="sans-serif" font-size="13" lengthAdjust="spacing" textLength="109" x="1027" y="264.2139">notification records</text><polygon fill="#181818" points="629,295.4219,619,299.4219,629,303.4219,625,299.4219" style="stroke:#181818;stroke-width:1.0;"/><line style="stroke:#181818;stroke-width:1.0;stroke-dasharray:2.0,2.0;" x1="623" x2="993" y1="299.4219" y2="299.4219"/><text fill="#000000" font-family="sans-serif" font-size="13" font-weight="bold" lengthAdjust="spacing" textLength="7" x="635" y="294.5654">6</text><text fill="#000000" font-family="sans-serif" font-size="13" lengthAdjust="spacing" textLength="167" x="646" y="294.5654">List&lt;VesselVisitNotification&gt;</text><line style="stroke:#181818;stroke-width:1.0;" x1="618" x2="660" y1="329.7734" y2="329.7734"/><line style="stroke:#181818;stroke-width:1.0;" x1="660" x2="660" y1="329.7734" y2="342.7734"/><line style="stroke:#181818;stroke-width:1.0;" x1="619" x2="660" y1="342.7734" y2="342.7734"/><polygon fill="#181818" points="629,338.7734,619,342.7734,629,346.7734,625,342.7734" style="stroke:#181818;stroke-width:1.0;"/><text fill="#000000" font-family="sans-serif" font-size="13" font-weight="bold" lengthAdjust="spacing" textLength="7" x="625" y="324.917">7</text><text fill="#000000" font-family="sans-serif" font-size="13" lengthAdjust="spacing" textLength="136" x="636" y="324.917">MapToDto(notifications)</text><polygon fill="#181818" points="397,369.125,387,373.125,397,377.125,393,373.125" style="stroke:#181818;stroke-width:1.0;"/><line style="stroke:#181818;stroke-width:1.0;stroke-dasharray:2.0,2.0;" x1="391" x2="612" y1="373.125" y2="373.125"/><text fill="#000000" font-family="sans-serif" font-size="13" font-weight="bold" lengthAdjust="spacing" textLength="7" x="403" y="368.2686">8</text><text fill="#000000" font-family="sans-serif" font-size="13" lengthAdjust="spacing" textLength="187" x="414" y="368.2686">List&lt;VesselVisitNotificationDto&gt;</text><polygon fill="#181818" points="117,415.8281,107,419.8281,117,423.8281,113,419.8281" style="stroke:#181818;stroke-width:1.0;"/><line style="stroke:#181818;stroke-width:1.0;stroke-dasharray:2.0,2.0;" x1="111" x2="380" y1="419.8281" y2="419.8281"/><text fill="#000000" font-family="sans-serif" font-size="13" font-weight="bold" lengthAdjust="spacing" textLength="7" x="123" y="406.7959">9</text><text fill="#000000" font-family="sans-serif" font-size="13" lengthAdjust="spacing" textLength="44" x="134" y="398.6201">200 OK</text><text fill="#000000" font-family="sans-serif" font-size="13" lengthAdjust="spacing" textLength="144" x="134" y="414.9717">{notifications with status}</text><!--SRC=[ZP9DQm8n48Rl-oi63s91KNgKOj5QYlH3g5yNBt4twb2RR9Fi5blwtplDhkv4i7XPakoyxpjv9Y9pMcNlAscYICHE6wXDjfYcg3RGtqZbu5McHbfQ2OUvh86mCBDKdWhZCCPKK4rjBgsLkpbQT2_QuHfZgjRAtcdbZDxjfF72QdkHV29DZd6HMQulqda1FmXLepCokgcc8ststg3QXlAPGZTUBxHvAs3eHPG89rR2IgWDovN_DHnug9WB9mjeqTyNMZr60hhmS3-5jaYnVGvZsqfXukrItUQ-ecvf6fcjcs0sTMf3sYgHqOvO7gMNC2bwues3iBxTgxYnnfsJnbvLTeS9H0Sr6LMCBl1gWZOReV3B_nibp9knPfOKC1oGyKScQVU9RWkbrL8r2X9DA50q8MJH10-3HT0moAnrshHYxP97h4rYeqHo6UyeWFU4rjsScLcFcx3hSNgLqxD8ftheT8EtGzqVYq-Vp7_Hv1Ea7mV77m4P-hVOXUjE1yQFI_KTP1Uu2xW_t8szAdRgN_Sl]--></g></svg>