<?xml version="1.0" encoding="us-ascii" standalone="no"?><svg xmlns="http://www.w3.org/2000/svg" xmlns:xlink="http://www.w3.org/1999/xlink" contentStyleType="text/css" height="1176px" preserveAspectRatio="none" style="width:1955px;height:1176px;background:#FFFFFF;" version="1.1" viewBox="0 0 1955 1176" width="1955px" zoomAndPan="magnify"><defs/><g><text fill="#000000" font-family="sans-serif" font-size="14" font-weight="bold" lengthAdjust="spacing" textLength="778" x="589.75" y="29.5332">System Sequence Diagram - US 3.2.2: Auto-load Internal Authorization Role After Authentication (Frontend Only)</text><rect fill="#FFFFFF" height="953.4844" style="stroke:#181818;stroke-width:1.0;" width="10" x="350.5" y="131.2188"/><rect fill="#FFFFFF" height="282.8125" style="stroke:#181818;stroke-width:1.0;" width="10" x="737.5" y="153.5703"/><rect fill="#FFFFFF" height="99.0547" style="stroke:#181818;stroke-width:1.0;" width="10" x="1102.5" y="306.9766"/><rect fill="#FFFFFF" height="99.0547" style="stroke:#181818;stroke-width:1.0;" width="10" x="1102.5" y="512.9219"/><rect fill="#FFFFFF" height="117.0547" style="stroke:#181818;stroke-width:1.0;" width="10" x="1102.5" y="871.9453"/><rect fill="none" height="712.375" style="stroke:#000000;stroke-width:1.5;" width="1655.5" x="293" y="365.3281"/><rect fill="none" height="499.4297" style="stroke:#000000;stroke-width:1.5;" width="1635.5" x="303" y="571.2734"/><line style="stroke:#181818;stroke-width:0.5;stroke-dasharray:5.0,5.0;" x1="355" x2="355" y1="121.2188" y2="1094.7031"/><line style="stroke:#181818;stroke-width:0.5;stroke-dasharray:5.0,5.0;" x1="742" x2="742" y1="121.2188" y2="1094.7031"/><line style="stroke:#181818;stroke-width:0.5;stroke-dasharray:5.0,5.0;" x1="1107.5" x2="1107.5" y1="121.2188" y2="1094.7031"/><text fill="#000000" font-family="sans-serif" font-size="14" lengthAdjust="spacing" textLength="79" x="313" y="118.1426">System User</text><ellipse cx="355.5" cy="52.1094" fill="#E3E3E3" rx="8" ry="8" style="stroke:#181818;stroke-width:0.5;"/><path d="M355.5,60.1094 L355.5,87.1094 M342.5,68.1094 L368.5,68.1094 M355.5,87.1094 L342.5,102.1094 M355.5,87.1094 L368.5,102.1094 " fill="none" style="stroke:#181818;stroke-width:0.5;"/><text fill="#000000" font-family="sans-serif" font-size="14" lengthAdjust="spacing" textLength="79" x="313" y="1108.2363">System User</text><ellipse cx="355.5" cy="1119.8125" fill="#E3E3E3" rx="8" ry="8" style="stroke:#181818;stroke-width:0.5;"/><path d="M355.5,1127.8125 L355.5,1154.8125 M342.5,1135.8125 L368.5,1135.8125 M355.5,1154.8125 L342.5,1169.8125 M355.5,1154.8125 L368.5,1169.8125 " fill="none" style="stroke:#181818;stroke-width:0.5;"/><rect fill="#E3E3E3" height="31.6094" rx="2.5" ry="2.5" style="stroke:#181818;stroke-width:0.5;" width="39" x="723" y="88.6094"/><text fill="#000000" font-family="sans-serif" font-size="14" lengthAdjust="spacing" textLength="25" x="730" y="110.1426">App</text><rect fill="#E3E3E3" height="31.6094" rx="2.5" ry="2.5" style="stroke:#181818;stroke-width:0.5;" width="39" x="723" y="1093.7031"/><text fill="#000000" font-family="sans-serif" font-size="14" lengthAdjust="spacing" textLength="25" x="730" y="1115.2363">App</text><rect fill="#E3E3E3" height="31.6094" rx="2.5" ry="2.5" style="stroke:#181818;stroke-width:0.5;" width="90" x="1062.5" y="88.6094"/><text fill="#000000" font-family="sans-serif" font-size="14" lengthAdjust="spacing" textLength="76" x="1069.5" y="110.1426">AuthService</text><rect fill="#E3E3E3" height="31.6094" rx="2.5" ry="2.5" style="stroke:#181818;stroke-width:0.5;" width="90" x="1062.5" y="1093.7031"/><text fill="#000000" font-family="sans-serif" font-size="14" lengthAdjust="spacing" textLength="76" x="1069.5" y="1115.2363">AuthService</text><rect fill="#FFFFFF" height="953.4844" style="stroke:#181818;stroke-width:1.0;" width="10" x="350.5" y="131.2188"/><rect fill="#FFFFFF" height="282.8125" style="stroke:#181818;stroke-width:1.0;" width="10" x="737.5" y="153.5703"/><rect fill="#FFFFFF" height="99.0547" style="stroke:#181818;stroke-width:1.0;" width="10" x="1102.5" y="306.9766"/><rect fill="#FFFFFF" height="99.0547" style="stroke:#181818;stroke-width:1.0;" width="10" x="1102.5" y="512.9219"/><rect fill="#FFFFFF" height="117.0547" style="stroke:#181818;stroke-width:1.0;" width="10" x="1102.5" y="871.9453"/><polygon fill="#181818" points="725.5,149.5703,735.5,153.5703,725.5,157.5703,729.5,153.5703" style="stroke:#181818;stroke-width:1.0;"/><line style="stroke:#181818;stroke-width:1.0;" x1="360.5" x2="731.5" y1="153.5703" y2="153.5703"/><text fill="#000000" font-family="sans-serif" font-size="13" font-weight="bold" lengthAdjust="spacing" textLength="7" x="367.5" y="148.7139">1</text><text fill="#000000" font-family="sans-serif" font-size="13" lengthAdjust="spacing" textLength="153" x="378.5" y="148.7139">Clicks "Login with Google"</text><line style="stroke:#181818;stroke-width:1.0;" x1="747.5" x2="789.5" y1="183.9219" y2="183.9219"/><line style="stroke:#181818;stroke-width:1.0;" x1="789.5" x2="789.5" y1="183.9219" y2="196.9219"/><line style="stroke:#181818;stroke-width:1.0;" x1="748.5" x2="789.5" y1="196.9219" y2="196.9219"/><polygon fill="#181818" points="758.5,192.9219,748.5,196.9219,758.5,200.9219,754.5,196.9219" style="stroke:#181818;stroke-width:1.0;"/><text fill="#000000" font-family="sans-serif" font-size="13" font-weight="bold" lengthAdjust="spacing" textLength="7" x="754.5" y="179.0654">2</text><text fill="#000000" font-family="sans-serif" font-size="13" lengthAdjust="spacing" textLength="149" x="765.5" y="179.0654">Redirect to Google OAuth</text><path d="M926,170.0703 L926,196.0703 L1308,196.0703 L1308,180.0703 L1298,170.0703 L926,170.0703 " fill="#FAFAFA" style="stroke:#181818;stroke-width:0.5;"/><path d="M1298,170.0703 L1298,180.0703 L1308,180.0703 L1298,170.0703 " fill="#FAFAFA" style="stroke:#181818;stroke-width:0.5;"/><text fill="#000000" font-family="sans-serif" font-size="13" lengthAdjust="spacing" textLength="361" x="932" y="188.5654">Opens Google login window\nwith client_id, redirect_uri, scope</text><polygon fill="#181818" points="725.5,226.2734,735.5,230.2734,725.5,234.2734,729.5,230.2734" style="stroke:#181818;stroke-width:1.0;"/><line style="stroke:#181818;stroke-width:1.0;" x1="360.5" x2="731.5" y1="230.2734" y2="230.2734"/><text fill="#000000" font-family="sans-serif" font-size="13" font-weight="bold" lengthAdjust="spacing" textLength="7" x="367.5" y="225.417">3</text><text fill="#000000" font-family="sans-serif" font-size="13" lengthAdjust="spacing" textLength="192" x="378.5" y="225.417">Completes Google authentication</text><path d="M5,209.9219 L5,235.9219 L346,235.9219 L346,219.9219 L336,209.9219 L5,209.9219 " fill="#FAFAFA" style="stroke:#181818;stroke-width:0.5;"/><path d="M336,209.9219 L336,219.9219 L346,219.9219 L336,209.9219 " fill="#FAFAFA" style="stroke:#181818;stroke-width:0.5;"/><text fill="#000000" font-family="sans-serif" font-size="13" lengthAdjust="spacing" textLength="320" x="11" y="228.417">User provides credentials\nto Google (external process)</text><line style="stroke:#181818;stroke-width:1.0;" x1="747.5" x2="789.5" y1="263.625" y2="263.625"/><line style="stroke:#181818;stroke-width:1.0;" x1="789.5" x2="789.5" y1="263.625" y2="276.625"/><line style="stroke:#181818;stroke-width:1.0;" x1="748.5" x2="789.5" y1="276.625" y2="276.625"/><polygon fill="#181818" points="758.5,272.625,748.5,276.625,758.5,280.625,754.5,276.625" style="stroke:#181818;stroke-width:1.0;"/><text fill="#000000" font-family="sans-serif" font-size="13" font-weight="bold" lengthAdjust="spacing" textLength="7" x="754.5" y="258.7686">4</text><text fill="#000000" font-family="sans-serif" font-size="13" lengthAdjust="spacing" textLength="137" x="765.5" y="258.7686">handleGoogleCallback()</text><path d="M914,249.7734 L914,275.7734 L1206,275.7734 L1206,259.7734 L1196,249.7734 L914,249.7734 " fill="#FAFAFA" style="stroke:#181818;stroke-width:0.5;"/><path d="M1196,249.7734 L1196,259.7734 L1206,259.7734 L1196,249.7734 " fill="#FAFAFA" style="stroke:#181818;stroke-width:0.5;"/><text fill="#000000" font-family="sans-serif" font-size="13" lengthAdjust="spacing" textLength="271" x="920" y="268.2686">Extracts authorization code\nfrom URL params</text><polygon fill="#181818" points="1090.5,302.9766,1100.5,306.9766,1090.5,310.9766,1094.5,306.9766" style="stroke:#181818;stroke-width:1.0;"/><line style="stroke:#181818;stroke-width:1.0;" x1="747.5" x2="1096.5" y1="306.9766" y2="306.9766"/><text fill="#000000" font-family="sans-serif" font-size="13" font-weight="bold" lengthAdjust="spacing" textLength="7" x="754.5" y="302.1201">5</text><text fill="#000000" font-family="sans-serif" font-size="13" lengthAdjust="spacing" textLength="176" x="765.5" y="302.1201">exchangeCodeForToken(code)</text><line style="stroke:#181818;stroke-width:1.0;" x1="1112.5" x2="1154.5" y1="337.3281" y2="337.3281"/><line style="stroke:#181818;stroke-width:1.0;" x1="1154.5" x2="1154.5" y1="337.3281" y2="350.3281"/><line style="stroke:#181818;stroke-width:1.0;" x1="1113.5" x2="1154.5" y1="350.3281" y2="350.3281"/><polygon fill="#181818" points="1123.5,346.3281,1113.5,350.3281,1123.5,354.3281,1119.5,350.3281" style="stroke:#181818;stroke-width:1.0;"/><text fill="#000000" font-family="sans-serif" font-size="13" font-weight="bold" lengthAdjust="spacing" textLength="7" x="1119.5" y="332.4717">6</text><text fill="#000000" font-family="sans-serif" font-size="13" lengthAdjust="spacing" textLength="146" x="1130.5" y="332.4717">HTTP POST /auth/google</text><path d="M1288,323.4766 L1288,349.4766 L1524,349.4766 L1524,333.4766 L1514,323.4766 L1288,323.4766 " fill="#FAFAFA" style="stroke:#181818;stroke-width:0.5;"/><path d="M1514,323.4766 L1514,333.4766 L1524,333.4766 L1514,323.4766 " fill="#FAFAFA" style="stroke:#181818;stroke-width:0.5;"/><text fill="#000000" font-family="sans-serif" font-size="13" lengthAdjust="spacing" textLength="215" x="1294" y="341.9717">Send authorization code\nto backend</text><path d="M293,365.3281 L354,365.3281 L354,373.6797 L344,383.6797 L293,383.6797 L293,365.3281 " fill="#EEEEEE" style="stroke:#000000;stroke-width:1.5;"/><rect fill="none" height="712.375" style="stroke:#000000;stroke-width:1.5;" width="1655.5" x="293" y="365.3281"/><text fill="#000000" font-family="sans-serif" font-size="13" font-weight="bold" lengthAdjust="spacing" textLength="16" x="308" y="379.8232">alt</text><text fill="#000000" font-family="sans-serif" font-size="11" font-weight="bold" lengthAdjust="spacing" textLength="162" x="369" y="378.7471">[Backend authentication fails]</text><polygon fill="#181818" points="758.5,402.0313,748.5,406.0313,758.5,410.0313,754.5,406.0313" style="stroke:#181818;stroke-width:1.0;"/><line style="stroke:#181818;stroke-width:1.0;stroke-dasharray:2.0,2.0;" x1="752.5" x2="1106.5" y1="406.0313" y2="406.0313"/><text fill="#000000" font-family="sans-serif" font-size="13" font-weight="bold" lengthAdjust="spacing" textLength="7" x="764.5" y="401.1748">7</text><text fill="#000000" font-family="sans-serif" font-size="13" lengthAdjust="spacing" textLength="143" x="775.5" y="401.1748">Error response (401/404)</text><polygon fill="#181818" points="371.5,432.3828,361.5,436.3828,371.5,440.3828,367.5,436.3828" style="stroke:#181818;stroke-width:1.0;"/><line style="stroke:#181818;stroke-width:1.0;stroke-dasharray:2.0,2.0;" x1="365.5" x2="741.5" y1="436.3828" y2="436.3828"/><text fill="#000000" font-family="sans-serif" font-size="13" font-weight="bold" lengthAdjust="spacing" textLength="7" x="377.5" y="431.5264">8</text><text fill="#000000" font-family="sans-serif" font-size="13" lengthAdjust="spacing" textLength="232" x="388.5" y="431.5264">Display error message: "User not found"</text><line style="stroke:#000000;stroke-width:1.0;stroke-dasharray:2.0,2.0;" x1="293" x2="1948.5" y1="445.3828" y2="445.3828"/><text fill="#000000" font-family="sans-serif" font-size="11" font-weight="bold" lengthAdjust="spacing" textLength="142" x="298" y="456.8018">[Backend returns tokens]</text><polygon fill="#181818" points="753.5,478.5703,743.5,482.5703,753.5,486.5703,749.5,482.5703" style="stroke:#181818;stroke-width:1.0;"/><line style="stroke:#181818;stroke-width:1.0;stroke-dasharray:2.0,2.0;" x1="747.5" x2="1106.5" y1="482.5703" y2="482.5703"/><text fill="#000000" font-family="sans-serif" font-size="13" font-weight="bold" lengthAdjust="spacing" textLength="7" x="759.5" y="477.7139">9</text><text fill="#000000" font-family="sans-serif" font-size="13" lengthAdjust="spacing" textLength="146" x="770.5" y="477.7139">{ idToken, accessToken }</text><polygon fill="#181818" points="1090.5,508.9219,1100.5,512.9219,1090.5,516.9219,1094.5,512.9219" style="stroke:#181818;stroke-width:1.0;"/><line style="stroke:#181818;stroke-width:1.0;" x1="742.5" x2="1096.5" y1="512.9219" y2="512.9219"/><text fill="#000000" font-family="sans-serif" font-size="13" font-weight="bold" lengthAdjust="spacing" textLength="14" x="749.5" y="508.0654">10</text><text fill="#000000" font-family="sans-serif" font-size="13" lengthAdjust="spacing" textLength="118" x="767.5" y="508.0654">getUserInfo(idToken)</text><line style="stroke:#181818;stroke-width:1.0;" x1="1112.5" x2="1154.5" y1="543.2734" y2="543.2734"/><line style="stroke:#181818;stroke-width:1.0;" x1="1154.5" x2="1154.5" y1="543.2734" y2="556.2734"/><line style="stroke:#181818;stroke-width:1.0;" x1="1113.5" x2="1154.5" y1="556.2734" y2="556.2734"/><polygon fill="#181818" points="1123.5,552.2734,1113.5,556.2734,1123.5,560.2734,1119.5,556.2734" style="stroke:#181818;stroke-width:1.0;"/><text fill="#000000" font-family="sans-serif" font-size="13" font-weight="bold" lengthAdjust="spacing" textLength="14" x="1119.5" y="538.417">11</text><text fill="#000000" font-family="sans-serif" font-size="13" lengthAdjust="spacing" textLength="175" x="1137.5" y="538.417">HTTP POST /auth/google/user</text><path d="M1324,529.4219 L1324,555.4219 L1532,555.4219 L1532,539.4219 L1522,529.4219 L1324,529.4219 " fill="#FAFAFA" style="stroke:#181818;stroke-width:0.5;"/><path d="M1522,529.4219 L1522,539.4219 L1532,539.4219 L1522,529.4219 " fill="#FAFAFA" style="stroke:#181818;stroke-width:0.5;"/><text fill="#000000" font-family="sans-serif" font-size="13" lengthAdjust="spacing" textLength="187" x="1330" y="547.917">Send idToken to get user details</text><path d="M303,571.2734 L364,571.2734 L364,579.625 L354,589.625 L303,589.625 L303,571.2734 " fill="#EEEEEE" style="stroke:#000000;stroke-width:1.5;"/><rect fill="none" height="499.4297" style="stroke:#000000;stroke-width:1.5;" width="1635.5" x="303" y="571.2734"/><text fill="#000000" font-family="sans-serif" font-size="13" font-weight="bold" lengthAdjust="spacing" textLength="16" x="318" y="585.7686">alt</text><text fill="#000000" font-family="sans-serif" font-size="11" font-weight="bold" lengthAdjust="spacing" textLength="156" x="379" y="584.6924">[User not found in database]</text><polygon fill="#181818" points="753.5,607.9766,743.5,611.9766,753.5,615.9766,749.5,611.9766" style="stroke:#181818;stroke-width:1.0;"/><line style="stroke:#181818;stroke-width:1.0;stroke-dasharray:2.0,2.0;" x1="747.5" x2="1106.5" y1="611.9766" y2="611.9766"/><text fill="#000000" font-family="sans-serif" font-size="13" font-weight="bold" lengthAdjust="spacing" textLength="14" x="759.5" y="607.1201">12</text><text fill="#000000" font-family="sans-serif" font-size="13" lengthAdjust="spacing" textLength="240" x="777.5" y="607.1201">404 Not Found\n{ error: "User not found" }</text><polygon fill="#181818" points="371.5,638.3281,361.5,642.3281,371.5,646.3281,367.5,642.3281" style="stroke:#181818;stroke-width:1.0;"/><line style="stroke:#181818;stroke-width:1.0;stroke-dasharray:2.0,2.0;" x1="365.5" x2="741.5" y1="642.3281" y2="642.3281"/><text fill="#000000" font-family="sans-serif" font-size="13" font-weight="bold" lengthAdjust="spacing" textLength="14" x="377.5" y="637.4717">13</text><text fill="#000000" font-family="sans-serif" font-size="13" lengthAdjust="spacing" textLength="175" x="395.5" y="637.4717">Display error: "User not found"</text><line style="stroke:#000000;stroke-width:1.0;stroke-dasharray:2.0,2.0;" x1="303" x2="1938.5" y1="651.3281" y2="651.3281"/><text fill="#000000" font-family="sans-serif" font-size="11" font-weight="bold" lengthAdjust="spacing" textLength="153" x="308" y="662.7471">[User has no assigned role]</text><polygon fill="#181818" points="753.5,684.5156,743.5,688.5156,753.5,692.5156,749.5,688.5156" style="stroke:#181818;stroke-width:1.0;"/><line style="stroke:#181818;stroke-width:1.0;stroke-dasharray:2.0,2.0;" x1="747.5" x2="1106.5" y1="688.5156" y2="688.5156"/><text fill="#000000" font-family="sans-serif" font-size="13" font-weight="bold" lengthAdjust="spacing" textLength="14" x="759.5" y="683.6592">14</text><text fill="#000000" font-family="sans-serif" font-size="13" lengthAdjust="spacing" textLength="323" x="777.5" y="683.6592">401 Unauthorized\n{ error: "User has no assigned role" }</text><polygon fill="#181818" points="371.5,714.8672,361.5,718.8672,371.5,722.8672,367.5,718.8672" style="stroke:#181818;stroke-width:1.0;"/><line style="stroke:#181818;stroke-width:1.0;stroke-dasharray:2.0,2.0;" x1="365.5" x2="741.5" y1="718.8672" y2="718.8672"/><text fill="#000000" font-family="sans-serif" font-size="13" font-weight="bold" lengthAdjust="spacing" textLength="14" x="377.5" y="714.0107">15</text><text fill="#000000" font-family="sans-serif" font-size="13" lengthAdjust="spacing" textLength="340" x="395.5" y="714.0107">Display error: "User has no assigned role. Access denied."</text><line style="stroke:#000000;stroke-width:1.0;stroke-dasharray:2.0,2.0;" x1="303" x2="1938.5" y1="727.8672" y2="727.8672"/><text fill="#000000" font-family="sans-serif" font-size="11" font-weight="bold" lengthAdjust="spacing" textLength="138" x="308" y="739.2861">[User account is inactive]</text><polygon fill="#181818" points="753.5,761.0547,743.5,765.0547,753.5,769.0547,749.5,765.0547" style="stroke:#181818;stroke-width:1.0;"/><line style="stroke:#181818;stroke-width:1.0;stroke-dasharray:2.0,2.0;" x1="747.5" x2="1106.5" y1="765.0547" y2="765.0547"/><text fill="#000000" font-family="sans-serif" font-size="13" font-weight="bold" lengthAdjust="spacing" textLength="14" x="759.5" y="760.1982">16</text><text fill="#000000" font-family="sans-serif" font-size="13" lengthAdjust="spacing" textLength="310" x="777.5" y="760.1982">401 Unauthorized\n{ error: "User account is Inactive" }</text><polygon fill="#181818" points="371.5,791.4063,361.5,795.4063,371.5,799.4063,367.5,795.4063" style="stroke:#181818;stroke-width:1.0;"/><line style="stroke:#181818;stroke-width:1.0;stroke-dasharray:2.0,2.0;" x1="365.5" x2="741.5" y1="795.4063" y2="795.4063"/><text fill="#000000" font-family="sans-serif" font-size="13" font-weight="bold" lengthAdjust="spacing" textLength="14" x="377.5" y="790.5498">17</text><text fill="#000000" font-family="sans-serif" font-size="13" lengthAdjust="spacing" textLength="327" x="395.5" y="790.5498">Display error: "User account is Inactive. Access denied."</text><line style="stroke:#000000;stroke-width:1.0;stroke-dasharray:2.0,2.0;" x1="303" x2="1938.5" y1="804.4063" y2="804.4063"/><text fill="#000000" font-family="sans-serif" font-size="11" font-weight="bold" lengthAdjust="spacing" textLength="162" x="308" y="815.8252">[User is active with valid role]</text><polygon fill="#181818" points="753.5,837.5938,743.5,841.5938,753.5,845.5938,749.5,841.5938" style="stroke:#181818;stroke-width:1.0;"/><line style="stroke:#181818;stroke-width:1.0;stroke-dasharray:2.0,2.0;" x1="747.5" x2="1106.5" y1="841.5938" y2="841.5938"/><text fill="#000000" font-family="sans-serif" font-size="13" font-weight="bold" lengthAdjust="spacing" textLength="14" x="759.5" y="836.7373">18</text><text fill="#000000" font-family="sans-serif" font-size="13" lengthAdjust="spacing" textLength="244" x="777.5" y="836.7373">200 OK\n{ email, name, foto, role, status }</text><polygon fill="#181818" points="1090.5,867.9453,1100.5,871.9453,1090.5,875.9453,1094.5,871.9453" style="stroke:#181818;stroke-width:1.0;"/><line style="stroke:#181818;stroke-width:1.0;" x1="742.5" x2="1096.5" y1="871.9453" y2="871.9453"/><text fill="#000000" font-family="sans-serif" font-size="13" font-weight="bold" lengthAdjust="spacing" textLength="14" x="749.5" y="867.0889">19</text><text fill="#000000" font-family="sans-serif" font-size="13" lengthAdjust="spacing" textLength="305" x="767.5" y="867.0889">setToken(idToken, name, email, picture, role, status)</text><line style="stroke:#181818;stroke-width:1.0;" x1="1112.5" x2="1154.5" y1="902.2969" y2="902.2969"/><line style="stroke:#181818;stroke-width:1.0;" x1="1154.5" x2="1154.5" y1="902.2969" y2="915.2969"/><line style="stroke:#181818;stroke-width:1.0;" x1="1113.5" x2="1154.5" y1="915.2969" y2="915.2969"/><polygon fill="#181818" points="1123.5,911.2969,1113.5,915.2969,1123.5,919.2969,1119.5,915.2969" style="stroke:#181818;stroke-width:1.0;"/><text fill="#000000" font-family="sans-serif" font-size="13" font-weight="bold" lengthAdjust="spacing" textLength="14" x="1119.5" y="897.4404">20</text><text fill="#000000" font-family="sans-serif" font-size="13" lengthAdjust="spacing" textLength="387" x="1137.5" y="897.4404">Set signals:\n_token, _userName, _email,\n_picture, _role, _status</text><line style="stroke:#181818;stroke-width:1.0;" x1="1112.5" x2="1154.5" y1="945.6484" y2="945.6484"/><line style="stroke:#181818;stroke-width:1.0;" x1="1154.5" x2="1154.5" y1="945.6484" y2="958.6484"/><line style="stroke:#181818;stroke-width:1.0;" x1="1113.5" x2="1154.5" y1="958.6484" y2="958.6484"/><polygon fill="#181818" points="1123.5,954.6484,1113.5,958.6484,1123.5,962.6484,1119.5,958.6484" style="stroke:#181818;stroke-width:1.0;"/><text fill="#000000" font-family="sans-serif" font-size="13" font-weight="bold" lengthAdjust="spacing" textLength="14" x="1119.5" y="940.792">21</text><text fill="#000000" font-family="sans-serif" font-size="13" lengthAdjust="spacing" textLength="401" x="1137.5" y="940.792">Store in localStorage:\ntoken, userName, email,\npicture, role, status</text><polygon fill="#181818" points="753.5,985,743.5,989,753.5,993,749.5,989" style="stroke:#181818;stroke-width:1.0;"/><line style="stroke:#181818;stroke-width:1.0;stroke-dasharray:2.0,2.0;" x1="747.5" x2="1106.5" y1="989" y2="989"/><text fill="#000000" font-family="sans-serif" font-size="13" font-weight="bold" lengthAdjust="spacing" textLength="14" x="759.5" y="984.1436">22</text><text fill="#000000" font-family="sans-serif" font-size="13" lengthAdjust="spacing" textLength="158" x="777.5" y="984.1436">Token and user data stored</text><line style="stroke:#181818;stroke-width:1.0;" x1="742.5" x2="784.5" y1="1019.3516" y2="1019.3516"/><line style="stroke:#181818;stroke-width:1.0;" x1="784.5" x2="784.5" y1="1019.3516" y2="1032.3516"/><line style="stroke:#181818;stroke-width:1.0;" x1="743.5" x2="784.5" y1="1032.3516" y2="1032.3516"/><polygon fill="#181818" points="753.5,1028.3516,743.5,1032.3516,753.5,1036.3516,749.5,1032.3516" style="stroke:#181818;stroke-width:1.0;"/><text fill="#000000" font-family="sans-serif" font-size="13" font-weight="bold" lengthAdjust="spacing" textLength="14" x="749.5" y="1014.4951">23</text><text fill="#000000" font-family="sans-serif" font-size="13" lengthAdjust="spacing" textLength="74" x="767.5" y="1014.4951">goToRoleUI()</text><path d="M853,1005.5 L853,1031.5 L1923,1031.5 L1923,1015.5 L1913,1005.5 L853,1005.5 " fill="#FAFAFA" style="stroke:#181818;stroke-width:0.5;"/><path d="M1913,1005.5 L1913,1015.5 L1923,1015.5 L1913,1005.5 " fill="#FAFAFA" style="stroke:#181818;stroke-width:0.5;"/><text fill="#000000" font-family="sans-serif" font-size="13" lengthAdjust="spacing" textLength="1049" x="859" y="1023.9951">Navigate based on role:\nAdmin &#8594; /admin\nRepresentative &#8594; /representative\nPortAuthorityOfficer &#8594; /port-officer\nLogisticsOperator &#8594; /logistics\nProjectManager &#8594; /project-manager</text><polygon fill="#181818" points="371.5,1058.7031,361.5,1062.7031,371.5,1066.7031,367.5,1062.7031" style="stroke:#181818;stroke-width:1.0;"/><line style="stroke:#181818;stroke-width:1.0;stroke-dasharray:2.0,2.0;" x1="365.5" x2="741.5" y1="1062.7031" y2="1062.7031"/><text fill="#000000" font-family="sans-serif" font-size="13" font-weight="bold" lengthAdjust="spacing" textLength="14" x="377.5" y="1057.8467">24</text><text fill="#000000" font-family="sans-serif" font-size="13" lengthAdjust="spacing" textLength="287" x="395.5" y="1057.8467">Display role-based menu and redirect to role page</text><!--SRC=[jLPDKoCt4BtxLtJvP5VPm19EFgIAa2MXii4KXjjMkSHCUwoWaIQIp4AszfeVa9-ONvBNqlWBlC2IMggmFTEjrwzVjreAjzesogkQQcTTCVUkPef-mPsmiZIgk5KLJ-A3OV9SH6Khi-aGvgfqdxIjQAPCu4udwWZNoKE8NDE4_romBPX-rgeIzo5TJ-Y7lSEzmn4TBw8R6gTAEhEHlLL6NisTrt-fg9sbImUaunbioS0swY9RUgVUOOqjQMpDGx_JKS2oY_g6FNuNqNdgjXIk0_ikgP1-T40Q8BfHDbBtk6cI1T-F38WsON-d2yuEw-S4h-zKv0me7pJyKJ16T69qSHke-y5Lsj8d7UVqYtCGhBjU9S4w-5WjkkHIYx8KNUjDOmdOiGxkNbVpEA9nmpOipQQ5jr3-uqURuXH6Gv-fBWSeKmQSBhmUK2XS0zRRF5tT68wyGbHRykR8XcS8dDOrtjtf4ku5iCKFfKRWDU4UtxSLX6l18VItSvmhMnhEpYVAc1kqLQ-_bU7x- -WXKaXSrZrGk98HQeRcfElB3vIwBgpHrvKP4TyN25Jn2TQSEd_bRjds1A2_8VzcAJSUde3zUdLrGHVZoHNj2wFzAf7VeZoH1jn95yf8Yh2ZNqoad_B38vsnPRG97SBV5fEbQk-zHoDx3esp0I8V7RpRFpeuwgSL9U_CIKmPKGG2aXHmXFqN6gCUY1DaZGfXLu-ecygBd6Zc5hRiFa56ipAszIe1pt7XqObHj7s6-cVIPT9_GAgGXaWFzENrr1-Le-8eNC_ipFLQwAp32r3VNE7zXMnhMVkar6rSsQYWG-A8NEAgY9aFohsjAc6pbYgg6nKoiw-gXkBIEPQToZAqqUTShwTrQeLyGSmLfnVwuIjziACNv5NgX-G_nsYq3WCowCeocWFp-gK4tz6rNMuPtf7ZBiplbEwkK7jqdDeLSQpcSk-LIg37eLia7L3ivFU_XTY0F6iXlvCEEoAzKGOWvFNvxBjJHh-cAmuF3cZyMvQWncuQa5Kr3z2BqGtIUXnZKSL5UAi0ZtP-u9WFXzMGoW7Rw8qkCELuEtH_XVZAkCzCdWccXpGTZj4Hqfx6J68g4-KyCPbcAc9SiPbcEjFCvniZuah4CeYCAvIH9vd_wQHAeTUHLu5tgl12r6L5yvp4eTyEIKm_0812-URw2MpbhfnS2g_FUkjoR8xfStMdAu6KMLiIZbWXBtaUbpMo__VlVp3ivITUNNA3inN7iKejcsn-wnsSBfoFxQqqFendCt3qsRM1PUZo6pZAdI_WP0-ugdabDz3aPPQl1SkxFt0l-rrPYBz4oU-6TNxvsWqiQGrpaZNRHPBQRrmanOwxKiNFRbnSJ-H_mvJkjFy1]--></g></svg>