<?xml version="1.0" encoding="us-ascii" standalone="no"?><svg xmlns="http://www.w3.org/2000/svg" xmlns:xlink="http://www.w3.org/1999/xlink" contentStyleType="text/css" height="2285px" preserveAspectRatio="none" style="width:1195px;height:2285px;background:#FFFFFF;" version="1.1" viewBox="0 0 1195 2285" width="1195px" zoomAndPan="magnify"><defs/><g><text fill="#000000" font-family="sans-serif" font-size="14" font-weight="bold" lengthAdjust="spacing" textLength="574" x="306.75" y="29.5332">System Sequence Diagram - US 3.1.4: User Feedback Mechanisms (Frontend Only)</text><rect fill="#FFFFFF" height="2054.3281" style="stroke:#181818;stroke-width:1.0;" width="10" x="67.5" y="131.2188"/><rect fill="#FFFFFF" height="245.4609" style="stroke:#181818;stroke-width:1.0;" width="10" x="399.5" y="197.9219"/><rect fill="#FFFFFF" height="158.7578" style="stroke:#181818;stroke-width:1.0;" width="10" x="399.5" y="1174.3828"/><rect fill="#FFFFFF" height="424.8672" style="stroke:#181818;stroke-width:1.0;" width="10" x="399.5" y="1760.6797"/><rect fill="#FFFFFF" height="99.0547" style="stroke:#181818;stroke-width:1.0;" width="10" x="763.5" y="489.5703"/><rect fill="#FFFFFF" height="99.0547" style="stroke:#181818;stroke-width:1.0;" width="10" x="763.5" y="1379.3281"/><rect fill="#FFFFFF" height="73.7031" style="stroke:#181818;stroke-width:1.0;" width="10" x="763.5" y="1951.4375"/><rect fill="none" height="801.0547" style="stroke:#000000;stroke-width:1.5;" width="1168.5" x="10" y="299.625"/><rect fill="none" height="545.7578" style="stroke:#000000;stroke-width:1.5;" width="808.5" x="20" y="547.9219"/><rect fill="none" height="437.8906" style="stroke:#000000;stroke-width:1.5;" width="1139.5" x="10" y="1249.0859"/><rect fill="none" height="242.2969" style="stroke:#000000;stroke-width:1.5;" width="808.5" x="20" y="1437.6797"/><line style="stroke:#181818;stroke-width:0.5;stroke-dasharray:5.0,5.0;" x1="72" x2="72" y1="121.2188" y2="2203.5469"/><line style="stroke:#181818;stroke-width:0.5;stroke-dasharray:5.0,5.0;" x1="404" x2="404" y1="121.2188" y2="2203.5469"/><line style="stroke:#181818;stroke-width:0.5;stroke-dasharray:5.0,5.0;" x1="768.5" x2="768.5" y1="121.2188" y2="2203.5469"/><text fill="#000000" font-family="sans-serif" font-size="14" lengthAdjust="spacing" textLength="79" x="30" y="118.1426">System User</text><ellipse cx="72.5" cy="52.1094" fill="#E3E3E3" rx="8" ry="8" style="stroke:#181818;stroke-width:0.5;"/><path d="M72.5,60.1094 L72.5,87.1094 M59.5,68.1094 L85.5,68.1094 M72.5,87.1094 L59.5,102.1094 M72.5,87.1094 L85.5,102.1094 " fill="none" style="stroke:#181818;stroke-width:0.5;"/><text fill="#000000" font-family="sans-serif" font-size="14" lengthAdjust="spacing" textLength="79" x="30" y="2217.0801">System User</text><ellipse cx="72.5" cy="2228.6563" fill="#E3E3E3" rx="8" ry="8" style="stroke:#181818;stroke-width:0.5;"/><path d="M72.5,2236.6563 L72.5,2263.6563 M59.5,2244.6563 L85.5,2244.6563 M72.5,2263.6563 L59.5,2278.6563 M72.5,2263.6563 L85.5,2278.6563 " fill="none" style="stroke:#181818;stroke-width:0.5;"/><rect fill="#E3E3E3" height="31.6094" rx="2.5" ry="2.5" style="stroke:#181818;stroke-width:0.5;" width="101" x="354" y="88.6094"/><text fill="#000000" font-family="sans-serif" font-size="14" lengthAdjust="spacing" textLength="87" x="361" y="110.1426">ManageUsers</text><rect fill="#E3E3E3" height="31.6094" rx="2.5" ry="2.5" style="stroke:#181818;stroke-width:0.5;" width="101" x="354" y="2202.5469"/><text fill="#000000" font-family="sans-serif" font-size="14" lengthAdjust="spacing" textLength="87" x="361" y="2224.0801">ManageUsers</text><rect fill="#E3E3E3" height="31.6094" rx="2.5" ry="2.5" style="stroke:#181818;stroke-width:0.5;" width="100" x="718.5" y="88.6094"/><text fill="#000000" font-family="sans-serif" font-size="14" lengthAdjust="spacing" textLength="86" x="725.5" y="110.1426">AdminService</text><rect fill="#E3E3E3" height="31.6094" rx="2.5" ry="2.5" style="stroke:#181818;stroke-width:0.5;" width="100" x="718.5" y="2202.5469"/><text fill="#000000" font-family="sans-serif" font-size="14" lengthAdjust="spacing" textLength="86" x="725.5" y="2224.0801">AdminService</text><rect fill="#FFFFFF" height="2054.3281" style="stroke:#181818;stroke-width:1.0;" width="10" x="67.5" y="131.2188"/><rect fill="#FFFFFF" height="245.4609" style="stroke:#181818;stroke-width:1.0;" width="10" x="399.5" y="197.9219"/><rect fill="#FFFFFF" height="158.7578" style="stroke:#181818;stroke-width:1.0;" width="10" x="399.5" y="1174.3828"/><rect fill="#FFFFFF" height="424.8672" style="stroke:#181818;stroke-width:1.0;" width="10" x="399.5" y="1760.6797"/><rect fill="#FFFFFF" height="99.0547" style="stroke:#181818;stroke-width:1.0;" width="10" x="763.5" y="489.5703"/><rect fill="#FFFFFF" height="99.0547" style="stroke:#181818;stroke-width:1.0;" width="10" x="763.5" y="1379.3281"/><rect fill="#FFFFFF" height="73.7031" style="stroke:#181818;stroke-width:1.0;" width="10" x="763.5" y="1951.4375"/><rect fill="#EEEEEE" height="3" style="stroke:#EEEEEE;stroke-width:1.0;" width="1188.5" x="0" y="152.3945"/><line style="stroke:#000000;stroke-width:1.0;" x1="0" x2="1188.5" y1="152.3945" y2="152.3945"/><line style="stroke:#000000;stroke-width:1.0;" x1="0" x2="1188.5" y1="155.3945" y2="155.3945"/><rect fill="#EEEEEE" height="24.3516" style="stroke:#000000;stroke-width:2.0;" width="361" x="413.75" y="141.2188"/><text fill="#000000" font-family="sans-serif" font-size="13" font-weight="bold" lengthAdjust="spacing" textLength="343" x="419.75" y="158.7139">Save Operation with Loading Indicator and Validation</text><polygon fill="#181818" points="387.5,193.9219,397.5,197.9219,387.5,201.9219,391.5,197.9219" style="stroke:#181818;stroke-width:1.0;"/><line style="stroke:#181818;stroke-width:1.0;" x1="77.5" x2="393.5" y1="197.9219" y2="197.9219"/><text fill="#000000" font-family="sans-serif" font-size="13" font-weight="bold" lengthAdjust="spacing" textLength="7" x="84.5" y="193.0654">1</text><text fill="#000000" font-family="sans-serif" font-size="13" lengthAdjust="spacing" textLength="158" x="95.5" y="193.0654">Fills form and clicks "Save"</text><line style="stroke:#181818;stroke-width:1.0;" x1="409.5" x2="451.5" y1="228.2734" y2="228.2734"/><line style="stroke:#181818;stroke-width:1.0;" x1="451.5" x2="451.5" y1="228.2734" y2="241.2734"/><line style="stroke:#181818;stroke-width:1.0;" x1="410.5" x2="451.5" y1="241.2734" y2="241.2734"/><polygon fill="#181818" points="420.5,237.2734,410.5,241.2734,420.5,245.2734,416.5,241.2734" style="stroke:#181818;stroke-width:1.0;"/><text fill="#000000" font-family="sans-serif" font-size="13" font-weight="bold" lengthAdjust="spacing" textLength="7" x="416.5" y="223.417">2</text><text fill="#000000" font-family="sans-serif" font-size="13" lengthAdjust="spacing" textLength="110" x="427.5" y="223.417">Set isSaving = true</text><line style="stroke:#181818;stroke-width:1.0;" x1="409.5" x2="451.5" y1="271.625" y2="271.625"/><line style="stroke:#181818;stroke-width:1.0;" x1="451.5" x2="451.5" y1="271.625" y2="284.625"/><line style="stroke:#181818;stroke-width:1.0;" x1="410.5" x2="451.5" y1="284.625" y2="284.625"/><polygon fill="#181818" points="420.5,280.625,410.5,284.625,420.5,288.625,416.5,284.625" style="stroke:#181818;stroke-width:1.0;"/><text fill="#000000" font-family="sans-serif" font-size="13" font-weight="bold" lengthAdjust="spacing" textLength="7" x="416.5" y="266.7686">3</text><text fill="#000000" font-family="sans-serif" font-size="13" lengthAdjust="spacing" textLength="110" x="427.5" y="266.7686">Validate form fields</text><path d="M10,299.625 L71,299.625 L71,307.9766 L61,317.9766 L10,317.9766 L10,299.625 " fill="#EEEEEE" style="stroke:#000000;stroke-width:1.5;"/><rect fill="none" height="801.0547" style="stroke:#000000;stroke-width:1.5;" width="1168.5" x="10" y="299.625"/><text fill="#000000" font-family="sans-serif" font-size="13" font-weight="bold" lengthAdjust="spacing" textLength="16" x="25" y="314.1201">alt</text><text fill="#000000" font-family="sans-serif" font-size="11" font-weight="bold" lengthAdjust="spacing" textLength="157" x="86" y="313.0439">[Validation fails (client-side)]</text><line style="stroke:#181818;stroke-width:1.0;" x1="409.5" x2="451.5" y1="356.6797" y2="356.6797"/><line style="stroke:#181818;stroke-width:1.0;" x1="451.5" x2="451.5" y1="356.6797" y2="369.6797"/><line style="stroke:#181818;stroke-width:1.0;" x1="410.5" x2="451.5" y1="369.6797" y2="369.6797"/><polygon fill="#181818" points="420.5,365.6797,410.5,369.6797,420.5,373.6797,416.5,369.6797" style="stroke:#181818;stroke-width:1.0;"/><text fill="#000000" font-family="sans-serif" font-size="13" font-weight="bold" lengthAdjust="spacing" textLength="7" x="416.5" y="343.6475">4</text><text fill="#000000" font-family="sans-serif" font-size="13" lengthAdjust="spacing" textLength="96" x="427.5" y="335.4717">Set errors object</text><text fill="#000000" font-family="sans-serif" font-size="13" lengthAdjust="spacing" textLength="207" x="427.5" y="351.8232">(e.g., errors.email = "Invalid format")</text><line style="stroke:#181818;stroke-width:1.0;" x1="409.5" x2="451.5" y1="400.0313" y2="400.0313"/><line style="stroke:#181818;stroke-width:1.0;" x1="451.5" x2="451.5" y1="400.0313" y2="413.0313"/><line style="stroke:#181818;stroke-width:1.0;" x1="410.5" x2="451.5" y1="413.0313" y2="413.0313"/><polygon fill="#181818" points="420.5,409.0313,410.5,413.0313,420.5,417.0313,416.5,413.0313" style="stroke:#181818;stroke-width:1.0;"/><text fill="#000000" font-family="sans-serif" font-size="13" font-weight="bold" lengthAdjust="spacing" textLength="7" x="416.5" y="395.1748">5</text><text fill="#000000" font-family="sans-serif" font-size="13" lengthAdjust="spacing" textLength="115" x="427.5" y="395.1748">Set isSaving = false</text><polygon fill="#181818" points="88.5,439.3828,78.5,443.3828,88.5,447.3828,84.5,443.3828" style="stroke:#181818;stroke-width:1.0;"/><line style="stroke:#181818;stroke-width:1.0;stroke-dasharray:2.0,2.0;" x1="82.5" x2="403.5" y1="443.3828" y2="443.3828"/><text fill="#000000" font-family="sans-serif" font-size="13" font-weight="bold" lengthAdjust="spacing" textLength="7" x="94.5" y="438.5264">6</text><text fill="#000000" font-family="sans-serif" font-size="13" lengthAdjust="spacing" textLength="232" x="105.5" y="438.5264">Display validation errors near input fields</text><line style="stroke:#000000;stroke-width:1.0;stroke-dasharray:2.0,2.0;" x1="10" x2="1178.5" y1="452.3828" y2="452.3828"/><text fill="#000000" font-family="sans-serif" font-size="11" font-weight="bold" lengthAdjust="spacing" textLength="106" x="15" y="463.8018">[Validation passes]</text><polygon fill="#181818" points="751.5,485.5703,761.5,489.5703,751.5,493.5703,755.5,489.5703" style="stroke:#181818;stroke-width:1.0;"/><line style="stroke:#181818;stroke-width:1.0;" x1="404.5" x2="757.5" y1="489.5703" y2="489.5703"/><text fill="#000000" font-family="sans-serif" font-size="13" font-weight="bold" lengthAdjust="spacing" textLength="7" x="411.5" y="484.7139">7</text><text fill="#000000" font-family="sans-serif" font-size="13" lengthAdjust="spacing" textLength="160" x="422.5" y="484.7139">updateUserRole(email, role)</text><line style="stroke:#181818;stroke-width:1.0;" x1="773.5" x2="815.5" y1="519.9219" y2="519.9219"/><line style="stroke:#181818;stroke-width:1.0;" x1="815.5" x2="815.5" y1="519.9219" y2="532.9219"/><line style="stroke:#181818;stroke-width:1.0;" x1="774.5" x2="815.5" y1="532.9219" y2="532.9219"/><polygon fill="#181818" points="784.5,528.9219,774.5,532.9219,784.5,536.9219,780.5,532.9219" style="stroke:#181818;stroke-width:1.0;"/><text fill="#000000" font-family="sans-serif" font-size="13" font-weight="bold" lengthAdjust="spacing" textLength="7" x="780.5" y="515.0654">8</text><text fill="#000000" font-family="sans-serif" font-size="13" lengthAdjust="spacing" textLength="176" x="791.5" y="515.0654">HTTP PUT request to backend</text><path d="M979,506.0703 L979,532.0703 L1158,532.0703 L1158,516.0703 L1148,506.0703 L979,506.0703 " fill="#FAFAFA" style="stroke:#181818;stroke-width:0.5;"/><path d="M1148,506.0703 L1148,516.0703 L1158,516.0703 L1148,506.0703 " fill="#FAFAFA" style="stroke:#181818;stroke-width:0.5;"/><text fill="#000000" font-family="sans-serif" font-size="13" lengthAdjust="spacing" textLength="158" x="985" y="524.5654">Authorization: Bearer token</text><path d="M20,547.9219 L81,547.9219 L81,556.2734 L71,566.2734 L20,566.2734 L20,547.9219 " fill="#EEEEEE" style="stroke:#000000;stroke-width:1.5;"/><rect fill="none" height="545.7578" style="stroke:#000000;stroke-width:1.5;" width="808.5" x="20" y="547.9219"/><text fill="#000000" font-family="sans-serif" font-size="13" font-weight="bold" lengthAdjust="spacing" textLength="16" x="35" y="562.417">alt</text><text fill="#000000" font-family="sans-serif" font-size="11" font-weight="bold" lengthAdjust="spacing" textLength="182" x="96" y="561.3408">[Backend returns error (400/500)]</text><polygon fill="#181818" points="415.5,584.625,405.5,588.625,415.5,592.625,411.5,588.625" style="stroke:#181818;stroke-width:1.0;"/><line style="stroke:#181818;stroke-width:1.0;stroke-dasharray:2.0,2.0;" x1="409.5" x2="767.5" y1="588.625" y2="588.625"/><text fill="#000000" font-family="sans-serif" font-size="13" font-weight="bold" lengthAdjust="spacing" textLength="7" x="421.5" y="583.7686">9</text><text fill="#000000" font-family="sans-serif" font-size="13" lengthAdjust="spacing" textLength="94" x="432.5" y="583.7686">Observable error</text><line style="stroke:#181818;stroke-width:1.0;" x1="404.5" x2="446.5" y1="618.9766" y2="618.9766"/><line style="stroke:#181818;stroke-width:1.0;" x1="446.5" x2="446.5" y1="618.9766" y2="631.9766"/><line style="stroke:#181818;stroke-width:1.0;" x1="405.5" x2="446.5" y1="631.9766" y2="631.9766"/><polygon fill="#181818" points="415.5,627.9766,405.5,631.9766,415.5,635.9766,411.5,631.9766" style="stroke:#181818;stroke-width:1.0;"/><text fill="#000000" font-family="sans-serif" font-size="13" font-weight="bold" lengthAdjust="spacing" textLength="14" x="411.5" y="614.1201">10</text><text fill="#000000" font-family="sans-serif" font-size="13" lengthAdjust="spacing" textLength="190" x="429.5" y="614.1201">Catch error in subscribe callback</text><line style="stroke:#181818;stroke-width:1.0;" x1="404.5" x2="446.5" y1="662.3281" y2="662.3281"/><line style="stroke:#181818;stroke-width:1.0;" x1="446.5" x2="446.5" y1="662.3281" y2="675.3281"/><line style="stroke:#181818;stroke-width:1.0;" x1="405.5" x2="446.5" y1="675.3281" y2="675.3281"/><polygon fill="#181818" points="415.5,671.3281,405.5,675.3281,415.5,679.3281,411.5,675.3281" style="stroke:#181818;stroke-width:1.0;"/><text fill="#000000" font-family="sans-serif" font-size="13" font-weight="bold" lengthAdjust="spacing" textLength="14" x="411.5" y="657.4717">11</text><text fill="#000000" font-family="sans-serif" font-size="13" lengthAdjust="spacing" textLength="241" x="429.5" y="657.4717">Set messageError = "Error updating user"</text><line style="stroke:#181818;stroke-width:1.0;" x1="404.5" x2="446.5" y1="705.6797" y2="705.6797"/><line style="stroke:#181818;stroke-width:1.0;" x1="446.5" x2="446.5" y1="705.6797" y2="718.6797"/><line style="stroke:#181818;stroke-width:1.0;" x1="405.5" x2="446.5" y1="718.6797" y2="718.6797"/><polygon fill="#181818" points="415.5,714.6797,405.5,718.6797,415.5,722.6797,411.5,718.6797" style="stroke:#181818;stroke-width:1.0;"/><text fill="#000000" font-family="sans-serif" font-size="13" font-weight="bold" lengthAdjust="spacing" textLength="14" x="411.5" y="700.8232">12</text><text fill="#000000" font-family="sans-serif" font-size="13" lengthAdjust="spacing" textLength="115" x="429.5" y="700.8232">Set isSaving = false</text><line style="stroke:#181818;stroke-width:1.0;" x1="404.5" x2="446.5" y1="749.0313" y2="749.0313"/><line style="stroke:#181818;stroke-width:1.0;" x1="446.5" x2="446.5" y1="749.0313" y2="762.0313"/><line style="stroke:#181818;stroke-width:1.0;" x1="405.5" x2="446.5" y1="762.0313" y2="762.0313"/><polygon fill="#181818" points="415.5,758.0313,405.5,762.0313,415.5,766.0313,411.5,762.0313" style="stroke:#181818;stroke-width:1.0;"/><text fill="#000000" font-family="sans-serif" font-size="13" font-weight="bold" lengthAdjust="spacing" textLength="14" x="411.5" y="744.1748">13</text><text fill="#000000" font-family="sans-serif" font-size="13" lengthAdjust="spacing" textLength="183" x="429.5" y="744.1748">displayMessage(messageError)</text><polygon fill="#181818" points="88.5,788.3828,78.5,792.3828,88.5,796.3828,84.5,792.3828" style="stroke:#181818;stroke-width:1.0;"/><line style="stroke:#181818;stroke-width:1.0;stroke-dasharray:2.0,2.0;" x1="82.5" x2="403.5" y1="792.3828" y2="792.3828"/><text fill="#000000" font-family="sans-serif" font-size="13" font-weight="bold" lengthAdjust="spacing" textLength="14" x="94.5" y="787.5264">14</text><text fill="#000000" font-family="sans-serif" font-size="13" lengthAdjust="spacing" textLength="102" x="112.5" y="787.5264">Display error alert</text><line style="stroke:#000000;stroke-width:1.0;stroke-dasharray:2.0,2.0;" x1="20" x2="828.5" y1="801.3828" y2="801.3828"/><text fill="#000000" font-family="sans-serif" font-size="11" font-weight="bold" lengthAdjust="spacing" textLength="179" x="25" y="812.8018">[Backend returns success (200)]</text><polygon fill="#181818" points="415.5,834.5703,405.5,838.5703,415.5,842.5703,411.5,838.5703" style="stroke:#181818;stroke-width:1.0;"/><line style="stroke:#181818;stroke-width:1.0;stroke-dasharray:2.0,2.0;" x1="409.5" x2="767.5" y1="838.5703" y2="838.5703"/><text fill="#000000" font-family="sans-serif" font-size="13" font-weight="bold" lengthAdjust="spacing" textLength="14" x="421.5" y="833.7139">15</text><text fill="#000000" font-family="sans-serif" font-size="13" lengthAdjust="spacing" textLength="117" x="439.5" y="833.7139">Observable success</text><line style="stroke:#181818;stroke-width:1.0;" x1="404.5" x2="446.5" y1="868.9219" y2="868.9219"/><line style="stroke:#181818;stroke-width:1.0;" x1="446.5" x2="446.5" y1="868.9219" y2="881.9219"/><line style="stroke:#181818;stroke-width:1.0;" x1="405.5" x2="446.5" y1="881.9219" y2="881.9219"/><polygon fill="#181818" points="415.5,877.9219,405.5,881.9219,415.5,885.9219,411.5,881.9219" style="stroke:#181818;stroke-width:1.0;"/><text fill="#000000" font-family="sans-serif" font-size="13" font-weight="bold" lengthAdjust="spacing" textLength="14" x="411.5" y="864.0654">16</text><text fill="#000000" font-family="sans-serif" font-size="13" lengthAdjust="spacing" textLength="332" x="429.5" y="864.0654">Set messageSuccess = "User role updated successfully"</text><line style="stroke:#181818;stroke-width:1.0;" x1="404.5" x2="446.5" y1="912.2734" y2="912.2734"/><line style="stroke:#181818;stroke-width:1.0;" x1="446.5" x2="446.5" y1="912.2734" y2="925.2734"/><line style="stroke:#181818;stroke-width:1.0;" x1="405.5" x2="446.5" y1="925.2734" y2="925.2734"/><polygon fill="#181818" points="415.5,921.2734,405.5,925.2734,415.5,929.2734,411.5,925.2734" style="stroke:#181818;stroke-width:1.0;"/><text fill="#000000" font-family="sans-serif" font-size="13" font-weight="bold" lengthAdjust="spacing" textLength="14" x="411.5" y="907.417">17</text><text fill="#000000" font-family="sans-serif" font-size="13" lengthAdjust="spacing" textLength="206" x="429.5" y="907.417">displayMessage(messageSuccess)</text><line style="stroke:#181818;stroke-width:1.0;" x1="404.5" x2="446.5" y1="955.625" y2="955.625"/><line style="stroke:#181818;stroke-width:1.0;" x1="446.5" x2="446.5" y1="955.625" y2="968.625"/><line style="stroke:#181818;stroke-width:1.0;" x1="405.5" x2="446.5" y1="968.625" y2="968.625"/><polygon fill="#181818" points="415.5,964.625,405.5,968.625,415.5,972.625,411.5,968.625" style="stroke:#181818;stroke-width:1.0;"/><text fill="#000000" font-family="sans-serif" font-size="13" font-weight="bold" lengthAdjust="spacing" textLength="14" x="411.5" y="950.7686">18</text><text fill="#000000" font-family="sans-serif" font-size="13" lengthAdjust="spacing" textLength="67" x="429.5" y="950.7686">resetForm()</text><line style="stroke:#181818;stroke-width:1.0;" x1="404.5" x2="446.5" y1="998.9766" y2="998.9766"/><line style="stroke:#181818;stroke-width:1.0;" x1="446.5" x2="446.5" y1="998.9766" y2="1011.9766"/><line style="stroke:#181818;stroke-width:1.0;" x1="405.5" x2="446.5" y1="1011.9766" y2="1011.9766"/><polygon fill="#181818" points="415.5,1007.9766,405.5,1011.9766,415.5,1015.9766,411.5,1011.9766" style="stroke:#181818;stroke-width:1.0;"/><text fill="#000000" font-family="sans-serif" font-size="13" font-weight="bold" lengthAdjust="spacing" textLength="14" x="411.5" y="994.1201">19</text><text fill="#000000" font-family="sans-serif" font-size="13" lengthAdjust="spacing" textLength="66" x="429.5" y="994.1201">loadUsers()</text><line style="stroke:#181818;stroke-width:1.0;" x1="404.5" x2="446.5" y1="1042.3281" y2="1042.3281"/><line style="stroke:#181818;stroke-width:1.0;" x1="446.5" x2="446.5" y1="1042.3281" y2="1055.3281"/><line style="stroke:#181818;stroke-width:1.0;" x1="405.5" x2="446.5" y1="1055.3281" y2="1055.3281"/><polygon fill="#181818" points="415.5,1051.3281,405.5,1055.3281,415.5,1059.3281,411.5,1055.3281" style="stroke:#181818;stroke-width:1.0;"/><text fill="#000000" font-family="sans-serif" font-size="13" font-weight="bold" lengthAdjust="spacing" textLength="14" x="411.5" y="1037.4717">20</text><text fill="#000000" font-family="sans-serif" font-size="13" lengthAdjust="spacing" textLength="115" x="429.5" y="1037.4717">Set isSaving = false</text><polygon fill="#181818" points="88.5,1081.6797,78.5,1085.6797,88.5,1089.6797,84.5,1085.6797" style="stroke:#181818;stroke-width:1.0;"/><line style="stroke:#181818;stroke-width:1.0;stroke-dasharray:2.0,2.0;" x1="82.5" x2="403.5" y1="1085.6797" y2="1085.6797"/><text fill="#000000" font-family="sans-serif" font-size="13" font-weight="bold" lengthAdjust="spacing" textLength="14" x="94.5" y="1080.8232">21</text><text fill="#000000" font-family="sans-serif" font-size="13" lengthAdjust="spacing" textLength="285" x="112.5" y="1080.8232">Display success message and refreshed user list</text><rect fill="#EEEEEE" height="3" style="stroke:#EEEEEE;stroke-width:1.0;" width="1188.5" x="0" y="1128.8555"/><line style="stroke:#000000;stroke-width:1.0;" x1="0" x2="1188.5" y1="1128.8555" y2="1128.8555"/><line style="stroke:#000000;stroke-width:1.0;" x1="0" x2="1188.5" y1="1131.8555" y2="1131.8555"/><rect fill="#EEEEEE" height="24.3516" style="stroke:#000000;stroke-width:2.0;" width="337" x="425.75" y="1117.6797"/><text fill="#000000" font-family="sans-serif" font-size="13" font-weight="bold" lengthAdjust="spacing" textLength="319" x="431.75" y="1135.1748">Asynchronous Validation with Real-time Feedback</text><polygon fill="#181818" points="387.5,1170.3828,397.5,1174.3828,387.5,1178.3828,391.5,1174.3828" style="stroke:#181818;stroke-width:1.0;"/><line style="stroke:#181818;stroke-width:1.0;" x1="77.5" x2="393.5" y1="1174.3828" y2="1174.3828"/><text fill="#000000" font-family="sans-serif" font-size="13" font-weight="bold" lengthAdjust="spacing" textLength="14" x="84.5" y="1169.5264">22</text><text fill="#000000" font-family="sans-serif" font-size="13" lengthAdjust="spacing" textLength="163" x="102.5" y="1169.5264">Types email address in form</text><line style="stroke:#181818;stroke-width:1.0;" x1="409.5" x2="451.5" y1="1221.0859" y2="1221.0859"/><line style="stroke:#181818;stroke-width:1.0;" x1="451.5" x2="451.5" y1="1221.0859" y2="1234.0859"/><line style="stroke:#181818;stroke-width:1.0;" x1="410.5" x2="451.5" y1="1234.0859" y2="1234.0859"/><polygon fill="#181818" points="420.5,1230.0859,410.5,1234.0859,420.5,1238.0859,416.5,1234.0859" style="stroke:#181818;stroke-width:1.0;"/><text fill="#000000" font-family="sans-serif" font-size="13" font-weight="bold" lengthAdjust="spacing" textLength="14" x="416.5" y="1208.0537">23</text><text fill="#000000" font-family="sans-serif" font-size="13" lengthAdjust="spacing" textLength="112" x="434.5" y="1199.8779">Check email format</text><text fill="#000000" font-family="sans-serif" font-size="13" lengthAdjust="spacing" textLength="166" x="434.5" y="1216.2295">(must end with @gmail.com)</text><path d="M10,1249.0859 L71,1249.0859 L71,1257.4375 L61,1267.4375 L10,1267.4375 L10,1249.0859 " fill="#EEEEEE" style="stroke:#000000;stroke-width:1.5;"/><rect fill="none" height="437.8906" style="stroke:#000000;stroke-width:1.5;" width="1139.5" x="10" y="1249.0859"/><text fill="#000000" font-family="sans-serif" font-size="13" font-weight="bold" lengthAdjust="spacing" textLength="16" x="25" y="1263.5811">alt</text><text fill="#000000" font-family="sans-serif" font-size="11" font-weight="bold" lengthAdjust="spacing" textLength="116" x="86" y="1262.5049">[Invalid email format]</text><line style="stroke:#181818;stroke-width:1.0;" x1="409.5" x2="451.5" y1="1289.7891" y2="1289.7891"/><line style="stroke:#181818;stroke-width:1.0;" x1="451.5" x2="451.5" y1="1289.7891" y2="1302.7891"/><line style="stroke:#181818;stroke-width:1.0;" x1="410.5" x2="451.5" y1="1302.7891" y2="1302.7891"/><polygon fill="#181818" points="420.5,1298.7891,410.5,1302.7891,420.5,1306.7891,416.5,1302.7891" style="stroke:#181818;stroke-width:1.0;"/><text fill="#000000" font-family="sans-serif" font-size="13" font-weight="bold" lengthAdjust="spacing" textLength="14" x="416.5" y="1284.9326">24</text><text fill="#000000" font-family="sans-serif" font-size="13" lengthAdjust="spacing" textLength="279" x="434.5" y="1284.9326">Set errors.email = "Email must be @gmail.com"</text><polygon fill="#181818" points="88.5,1329.1406,78.5,1333.1406,88.5,1337.1406,84.5,1333.1406" style="stroke:#181818;stroke-width:1.0;"/><line style="stroke:#181818;stroke-width:1.0;stroke-dasharray:2.0,2.0;" x1="82.5" x2="403.5" y1="1333.1406" y2="1333.1406"/><text fill="#000000" font-family="sans-serif" font-size="13" font-weight="bold" lengthAdjust="spacing" textLength="14" x="94.5" y="1328.2842">25</text><text fill="#000000" font-family="sans-serif" font-size="13" lengthAdjust="spacing" textLength="266" x="112.5" y="1328.2842">Show error message near email field (red text)</text><line style="stroke:#000000;stroke-width:1.0;stroke-dasharray:2.0,2.0;" x1="10" x2="1149.5" y1="1342.1406" y2="1342.1406"/><text fill="#000000" font-family="sans-serif" font-size="11" font-weight="bold" lengthAdjust="spacing" textLength="75" x="15" y="1353.5596">[Valid format]</text><polygon fill="#181818" points="751.5,1375.3281,761.5,1379.3281,751.5,1383.3281,755.5,1379.3281" style="stroke:#181818;stroke-width:1.0;"/><line style="stroke:#181818;stroke-width:1.0;" x1="404.5" x2="757.5" y1="1379.3281" y2="1379.3281"/><text fill="#000000" font-family="sans-serif" font-size="13" font-weight="bold" lengthAdjust="spacing" textLength="14" x="411.5" y="1374.4717">26</text><text fill="#000000" font-family="sans-serif" font-size="13" lengthAdjust="spacing" textLength="101" x="429.5" y="1374.4717">checkUser(email)</text><line style="stroke:#181818;stroke-width:1.0;" x1="773.5" x2="815.5" y1="1409.6797" y2="1409.6797"/><line style="stroke:#181818;stroke-width:1.0;" x1="815.5" x2="815.5" y1="1409.6797" y2="1422.6797"/><line style="stroke:#181818;stroke-width:1.0;" x1="774.5" x2="815.5" y1="1422.6797" y2="1422.6797"/><polygon fill="#181818" points="784.5,1418.6797,774.5,1422.6797,784.5,1426.6797,780.5,1422.6797" style="stroke:#181818;stroke-width:1.0;"/><text fill="#000000" font-family="sans-serif" font-size="13" font-weight="bold" lengthAdjust="spacing" textLength="14" x="780.5" y="1404.8232">27</text><text fill="#000000" font-family="sans-serif" font-size="13" lengthAdjust="spacing" textLength="177" x="798.5" y="1404.8232">HTTP GET request to backend</text><path d="M987,1395.8281 L987,1421.8281 L1129,1421.8281 L1129,1405.8281 L1119,1395.8281 L987,1395.8281 " fill="#FAFAFA" style="stroke:#181818;stroke-width:0.5;"/><path d="M1119,1395.8281 L1119,1405.8281 L1129,1405.8281 L1119,1395.8281 " fill="#FAFAFA" style="stroke:#181818;stroke-width:0.5;"/><text fill="#000000" font-family="sans-serif" font-size="13" lengthAdjust="spacing" textLength="121" x="993" y="1414.3232">Check if email exists</text><path d="M20,1437.6797 L81,1437.6797 L81,1446.0313 L71,1456.0313 L20,1456.0313 L20,1437.6797 " fill="#EEEEEE" style="stroke:#000000;stroke-width:1.5;"/><rect fill="none" height="242.2969" style="stroke:#000000;stroke-width:1.5;" width="808.5" x="20" y="1437.6797"/><text fill="#000000" font-family="sans-serif" font-size="13" font-weight="bold" lengthAdjust="spacing" textLength="16" x="35" y="1452.1748">alt</text><text fill="#000000" font-family="sans-serif" font-size="11" font-weight="bold" lengthAdjust="spacing" textLength="114" x="96" y="1451.0986">[User already exists]</text><polygon fill="#181818" points="415.5,1474.3828,405.5,1478.3828,415.5,1482.3828,411.5,1478.3828" style="stroke:#181818;stroke-width:1.0;"/><line style="stroke:#181818;stroke-width:1.0;stroke-dasharray:2.0,2.0;" x1="409.5" x2="767.5" y1="1478.3828" y2="1478.3828"/><text fill="#000000" font-family="sans-serif" font-size="13" font-weight="bold" lengthAdjust="spacing" textLength="14" x="421.5" y="1473.5264">28</text><text fill="#000000" font-family="sans-serif" font-size="13" lengthAdjust="spacing" textLength="149" x="439.5" y="1473.5264">Observable { exists: true }</text><line style="stroke:#181818;stroke-width:1.0;" x1="404.5" x2="446.5" y1="1508.7344" y2="1508.7344"/><line style="stroke:#181818;stroke-width:1.0;" x1="446.5" x2="446.5" y1="1508.7344" y2="1521.7344"/><line style="stroke:#181818;stroke-width:1.0;" x1="405.5" x2="446.5" y1="1521.7344" y2="1521.7344"/><polygon fill="#181818" points="415.5,1517.7344,405.5,1521.7344,415.5,1525.7344,411.5,1521.7344" style="stroke:#181818;stroke-width:1.0;"/><text fill="#000000" font-family="sans-serif" font-size="13" font-weight="bold" lengthAdjust="spacing" textLength="14" x="411.5" y="1503.8779">29</text><text fill="#000000" font-family="sans-serif" font-size="13" lengthAdjust="spacing" textLength="236" x="429.5" y="1503.8779">Set errors.email = "Email already exists"</text><polygon fill="#181818" points="88.5,1548.0859,78.5,1552.0859,88.5,1556.0859,84.5,1552.0859" style="stroke:#181818;stroke-width:1.0;"/><line style="stroke:#181818;stroke-width:1.0;stroke-dasharray:2.0,2.0;" x1="82.5" x2="403.5" y1="1552.0859" y2="1552.0859"/><text fill="#000000" font-family="sans-serif" font-size="13" font-weight="bold" lengthAdjust="spacing" textLength="14" x="94.5" y="1547.2295">30</text><text fill="#000000" font-family="sans-serif" font-size="13" lengthAdjust="spacing" textLength="210" x="112.5" y="1547.2295">Show error message near email field</text><line style="stroke:#000000;stroke-width:1.0;stroke-dasharray:2.0,2.0;" x1="20" x2="828.5" y1="1561.0859" y2="1561.0859"/><text fill="#000000" font-family="sans-serif" font-size="11" font-weight="bold" lengthAdjust="spacing" textLength="116" x="25" y="1572.5049">[User does not exist]</text><polygon fill="#181818" points="415.5,1594.2734,405.5,1598.2734,415.5,1602.2734,411.5,1598.2734" style="stroke:#181818;stroke-width:1.0;"/><line style="stroke:#181818;stroke-width:1.0;stroke-dasharray:2.0,2.0;" x1="409.5" x2="767.5" y1="1598.2734" y2="1598.2734"/><text fill="#000000" font-family="sans-serif" font-size="13" font-weight="bold" lengthAdjust="spacing" textLength="14" x="421.5" y="1593.417">31</text><text fill="#000000" font-family="sans-serif" font-size="13" lengthAdjust="spacing" textLength="154" x="439.5" y="1593.417">Observable { exists: false }</text><line style="stroke:#181818;stroke-width:1.0;" x1="404.5" x2="446.5" y1="1628.625" y2="1628.625"/><line style="stroke:#181818;stroke-width:1.0;" x1="446.5" x2="446.5" y1="1628.625" y2="1641.625"/><line style="stroke:#181818;stroke-width:1.0;" x1="405.5" x2="446.5" y1="1641.625" y2="1641.625"/><polygon fill="#181818" points="415.5,1637.625,405.5,1641.625,415.5,1645.625,411.5,1641.625" style="stroke:#181818;stroke-width:1.0;"/><text fill="#000000" font-family="sans-serif" font-size="13" font-weight="bold" lengthAdjust="spacing" textLength="14" x="411.5" y="1623.7686">32</text><text fill="#000000" font-family="sans-serif" font-size="13" lengthAdjust="spacing" textLength="102" x="429.5" y="1623.7686">Clear errors.email</text><polygon fill="#181818" points="88.5,1667.9766,78.5,1671.9766,88.5,1675.9766,84.5,1671.9766" style="stroke:#181818;stroke-width:1.0;"/><line style="stroke:#181818;stroke-width:1.0;stroke-dasharray:2.0,2.0;" x1="82.5" x2="403.5" y1="1671.9766" y2="1671.9766"/><text fill="#000000" font-family="sans-serif" font-size="13" font-weight="bold" lengthAdjust="spacing" textLength="14" x="94.5" y="1667.1201">33</text><text fill="#000000" font-family="sans-serif" font-size="13" lengthAdjust="spacing" textLength="151" x="112.5" y="1667.1201">No error shown (field valid)</text><rect fill="#EEEEEE" height="3" style="stroke:#EEEEEE;stroke-width:1.0;" width="1188.5" x="0" y="1715.1523"/><line style="stroke:#000000;stroke-width:1.0;" x1="0" x2="1188.5" y1="1715.1523" y2="1715.1523"/><line style="stroke:#000000;stroke-width:1.0;" x1="0" x2="1188.5" y1="1718.1523" y2="1718.1523"/><rect fill="#EEEEEE" height="24.3516" style="stroke:#000000;stroke-width:2.0;" width="248" x="470.25" y="1703.9766"/><text fill="#000000" font-family="sans-serif" font-size="13" font-weight="bold" lengthAdjust="spacing" textLength="230" x="476.25" y="1721.4717">Loading Indicator During Data Fetch</text><polygon fill="#181818" points="387.5,1756.6797,397.5,1760.6797,387.5,1764.6797,391.5,1760.6797" style="stroke:#181818;stroke-width:1.0;"/><line style="stroke:#181818;stroke-width:1.0;" x1="77.5" x2="393.5" y1="1760.6797" y2="1760.6797"/><text fill="#000000" font-family="sans-serif" font-size="13" font-weight="bold" lengthAdjust="spacing" textLength="14" x="84.5" y="1755.8232">34</text><text fill="#000000" font-family="sans-serif" font-size="13" lengthAdjust="spacing" textLength="158" x="102.5" y="1755.8232">Opens Manage Users page</text><line style="stroke:#181818;stroke-width:1.0;" x1="409.5" x2="451.5" y1="1791.0313" y2="1791.0313"/><line style="stroke:#181818;stroke-width:1.0;" x1="451.5" x2="451.5" y1="1791.0313" y2="1804.0313"/><line style="stroke:#181818;stroke-width:1.0;" x1="410.5" x2="451.5" y1="1804.0313" y2="1804.0313"/><polygon fill="#181818" points="420.5,1800.0313,410.5,1804.0313,420.5,1808.0313,416.5,1804.0313" style="stroke:#181818;stroke-width:1.0;"/><text fill="#000000" font-family="sans-serif" font-size="13" font-weight="bold" lengthAdjust="spacing" textLength="14" x="416.5" y="1786.1748">35</text><text fill="#000000" font-family="sans-serif" font-size="13" lengthAdjust="spacing" textLength="56" x="434.5" y="1786.1748">ngOnInit()</text><line style="stroke:#181818;stroke-width:1.0;" x1="409.5" x2="451.5" y1="1834.3828" y2="1834.3828"/><line style="stroke:#181818;stroke-width:1.0;" x1="451.5" x2="451.5" y1="1834.3828" y2="1847.3828"/><line style="stroke:#181818;stroke-width:1.0;" x1="410.5" x2="451.5" y1="1847.3828" y2="1847.3828"/><polygon fill="#181818" points="420.5,1843.3828,410.5,1847.3828,420.5,1851.3828,416.5,1847.3828" style="stroke:#181818;stroke-width:1.0;"/><text fill="#000000" font-family="sans-serif" font-size="13" font-weight="bold" lengthAdjust="spacing" textLength="14" x="416.5" y="1829.5264">36</text><text fill="#000000" font-family="sans-serif" font-size="13" lengthAdjust="spacing" textLength="66" x="434.5" y="1829.5264">loadUsers()</text><line style="stroke:#181818;stroke-width:1.0;" x1="409.5" x2="451.5" y1="1877.7344" y2="1877.7344"/><line style="stroke:#181818;stroke-width:1.0;" x1="451.5" x2="451.5" y1="1877.7344" y2="1890.7344"/><line style="stroke:#181818;stroke-width:1.0;" x1="410.5" x2="451.5" y1="1890.7344" y2="1890.7344"/><polygon fill="#181818" points="420.5,1886.7344,410.5,1890.7344,420.5,1894.7344,416.5,1890.7344" style="stroke:#181818;stroke-width:1.0;"/><text fill="#000000" font-family="sans-serif" font-size="13" font-weight="bold" lengthAdjust="spacing" textLength="14" x="416.5" y="1872.8779">37</text><text fill="#000000" font-family="sans-serif" font-size="13" lengthAdjust="spacing" textLength="137" x="434.5" y="1872.8779">Set loadingUsers = true</text><polygon fill="#181818" points="88.5,1917.0859,78.5,1921.0859,88.5,1925.0859,84.5,1921.0859" style="stroke:#181818;stroke-width:1.0;"/><line style="stroke:#181818;stroke-width:1.0;stroke-dasharray:2.0,2.0;" x1="82.5" x2="398.5" y1="1921.0859" y2="1921.0859"/><text fill="#000000" font-family="sans-serif" font-size="13" font-weight="bold" lengthAdjust="spacing" textLength="14" x="94.5" y="1916.2295">38</text><text fill="#000000" font-family="sans-serif" font-size="13" lengthAdjust="spacing" textLength="171" x="112.5" y="1916.2295">Display "Loading..." message</text><polygon fill="#181818" points="751.5,1947.4375,761.5,1951.4375,751.5,1955.4375,755.5,1951.4375" style="stroke:#181818;stroke-width:1.0;"/><line style="stroke:#181818;stroke-width:1.0;" x1="409.5" x2="757.5" y1="1951.4375" y2="1951.4375"/><text fill="#000000" font-family="sans-serif" font-size="13" font-weight="bold" lengthAdjust="spacing" textLength="14" x="416.5" y="1946.5811">39</text><text fill="#000000" font-family="sans-serif" font-size="13" lengthAdjust="spacing" textLength="75" x="434.5" y="1946.5811">getAllUsers()</text><line style="stroke:#181818;stroke-width:1.0;" x1="773.5" x2="815.5" y1="1981.7891" y2="1981.7891"/><line style="stroke:#181818;stroke-width:1.0;" x1="815.5" x2="815.5" y1="1981.7891" y2="1994.7891"/><line style="stroke:#181818;stroke-width:1.0;" x1="774.5" x2="815.5" y1="1994.7891" y2="1994.7891"/><polygon fill="#181818" points="784.5,1990.7891,774.5,1994.7891,784.5,1998.7891,780.5,1994.7891" style="stroke:#181818;stroke-width:1.0;"/><text fill="#000000" font-family="sans-serif" font-size="13" font-weight="bold" lengthAdjust="spacing" textLength="14" x="780.5" y="1976.9326">40</text><text fill="#000000" font-family="sans-serif" font-size="13" lengthAdjust="spacing" textLength="177" x="798.5" y="1976.9326">HTTP GET request to backend</text><path d="M987,1967.9375 L987,1993.9375 L1166,1993.9375 L1166,1977.9375 L1156,1967.9375 L987,1967.9375 " fill="#FAFAFA" style="stroke:#181818;stroke-width:0.5;"/><path d="M1156,1967.9375 L1156,1977.9375 L1166,1977.9375 L1156,1967.9375 " fill="#FAFAFA" style="stroke:#181818;stroke-width:0.5;"/><text fill="#000000" font-family="sans-serif" font-size="13" lengthAdjust="spacing" textLength="158" x="993" y="1986.4326">Authorization: Bearer token</text><polygon fill="#181818" points="420.5,2021.1406,410.5,2025.1406,420.5,2029.1406,416.5,2025.1406" style="stroke:#181818;stroke-width:1.0;"/><line style="stroke:#181818;stroke-width:1.0;stroke-dasharray:2.0,2.0;" x1="414.5" x2="767.5" y1="2025.1406" y2="2025.1406"/><text fill="#000000" font-family="sans-serif" font-size="13" font-weight="bold" lengthAdjust="spacing" textLength="14" x="426.5" y="2020.2842">41</text><text fill="#000000" font-family="sans-serif" font-size="13" lengthAdjust="spacing" textLength="135" x="444.5" y="2020.2842">Observable&lt;UserDto[]&gt;</text><line style="stroke:#181818;stroke-width:1.0;" x1="409.5" x2="451.5" y1="2055.4922" y2="2055.4922"/><line style="stroke:#181818;stroke-width:1.0;" x1="451.5" x2="451.5" y1="2055.4922" y2="2068.4922"/><line style="stroke:#181818;stroke-width:1.0;" x1="410.5" x2="451.5" y1="2068.4922" y2="2068.4922"/><polygon fill="#181818" points="420.5,2064.4922,410.5,2068.4922,420.5,2072.4922,416.5,2068.4922" style="stroke:#181818;stroke-width:1.0;"/><text fill="#000000" font-family="sans-serif" font-size="13" font-weight="bold" lengthAdjust="spacing" textLength="14" x="416.5" y="2050.6357">42</text><text fill="#000000" font-family="sans-serif" font-size="13" lengthAdjust="spacing" textLength="104" x="434.5" y="2050.6357">Set users = result</text><line style="stroke:#181818;stroke-width:1.0;" x1="409.5" x2="451.5" y1="2098.8438" y2="2098.8438"/><line style="stroke:#181818;stroke-width:1.0;" x1="451.5" x2="451.5" y1="2098.8438" y2="2111.8438"/><line style="stroke:#181818;stroke-width:1.0;" x1="410.5" x2="451.5" y1="2111.8438" y2="2111.8438"/><polygon fill="#181818" points="420.5,2107.8438,410.5,2111.8438,420.5,2115.8438,416.5,2111.8438" style="stroke:#181818;stroke-width:1.0;"/><text fill="#000000" font-family="sans-serif" font-size="13" font-weight="bold" lengthAdjust="spacing" textLength="14" x="416.5" y="2093.9873">43</text><text fill="#000000" font-family="sans-serif" font-size="13" lengthAdjust="spacing" textLength="142" x="434.5" y="2093.9873">Set loadingUsers = false</text><line style="stroke:#181818;stroke-width:1.0;" x1="409.5" x2="451.5" y1="2142.1953" y2="2142.1953"/><line style="stroke:#181818;stroke-width:1.0;" x1="451.5" x2="451.5" y1="2142.1953" y2="2155.1953"/><line style="stroke:#181818;stroke-width:1.0;" x1="410.5" x2="451.5" y1="2155.1953" y2="2155.1953"/><polygon fill="#181818" points="420.5,2151.1953,410.5,2155.1953,420.5,2159.1953,416.5,2155.1953" style="stroke:#181818;stroke-width:1.0;"/><text fill="#000000" font-family="sans-serif" font-size="13" font-weight="bold" lengthAdjust="spacing" textLength="14" x="416.5" y="2137.3389">44</text><text fill="#000000" font-family="sans-serif" font-size="13" lengthAdjust="spacing" textLength="68" x="434.5" y="2137.3389">applyFilter()</text><polygon fill="#181818" points="83.5,2181.5469,73.5,2185.5469,83.5,2189.5469,79.5,2185.5469" style="stroke:#181818;stroke-width:1.0;"/><line style="stroke:#181818;stroke-width:1.0;stroke-dasharray:2.0,2.0;" x1="77.5" x2="403.5" y1="2185.5469" y2="2185.5469"/><text fill="#000000" font-family="sans-serif" font-size="13" font-weight="bold" lengthAdjust="spacing" textLength="14" x="89.5" y="2180.6904">45</text><text fill="#000000" font-family="sans-serif" font-size="13" lengthAdjust="spacing" textLength="251" x="107.5" y="2180.6904">Display user list (loading indicator removed)</text><!--SRC=[hLVVRzis47xNNt7GammqMjfrByPSBCsFBS3I57MobwqFj7Iss52aHb9ElM7_-uwaRDErOyjf0WHXAFBkkxllxfFC0vSDqwo6MabLL5hL25Qtc9ZLauOL3so6OxiG21eBo-HCn0TCnKhroEKCfamOJ1BBBHqTBup56iRuTukoGBZWREQEdy3z67xCN-TlXt1lKCCLOZaX9t23HSKaDxM1x4ehQL6MS2l5Of0ahBLAjlK4DQqBgpIadGDd8mLc_28XI9ONl67IGdh3925t-yQVYFxVF7XMrboEKSzvWVval94aen6CsHpXja7DB5SI7hcju7V5IXVsjInvmHmcHe3_O8ANuTHevC7oERCOuFc0Jzx5I8PmnOKmC5MwzWOAmOi7G_6HotHzFmQVHFzicHkZ1MxejiCs2kNSUw53Z072bACeoGKJDevboZY1p0WSIdjYU8c31EZd41BKMj4ZDVb2rFbBPfZFybVTReurMIMCwRMSErSU0RDfCDtBVXHfeD_M9RhbLaDYe6a4My1y7LM7JYBJG7nkxJ9yPwN4dSb7yX9dfc76eDa5DcRH4Dh69Taz_AG4PZxsLw1f7S9TETiWtoeHyUwsyT_kxZx2n_ixwb3gDsF1Ad1DHItaRqj5XZMVLNO8PwsjbER_UFX3U4_14okjeiDhTwxyxuC1icbRBKt85cHlJqz_-EdqDA3UXlPjbMudz7VE9ZGJl87LjIY_Mo6lS1pYm3cpHTKXun9CEp65vXE4WWdXCj3BYcDIZSRGpgKtHPmC2ryrnw_MpPdUndRIyj35CX3q9W39Oa230rdP8dd821EexQw4nuHsZpoflwstQOk2C43svbdLxgw_RBsZIeqxU5GhFrTTAtLTLYwTJriX5kbtPBzpCZWEfKQ3zeg6MJReTLwGbFXbp_DxATQJ8SlgTe5wxT4u9UWLvS_H7GGt_TX3KyRzEgKyCmlftYIaQaqy9hraVa8cJYodjuoLwZkHt2cBTui6QUPuYM1bgHrMwd0d4SzGnVCAoLcm5bI6nAXkQL8wndjmlypSqxnGzI38trALubj7YDvQtYxzmdkZoRJsa-vHgt6b7hikNbR8orG7niaKP9egPV6h7VGJh3qnRCf9uRBbdWMPUYc1-lMobq25Ml5f5oj-9HgQJMdoZ6528oiNyO6Z1jI_tSsXVqc2_rv-KkqcmYRkz42_zY12xmdlqrOgwYlAT_3_FMdpS-UbytOkV7HHvWuaw8FgqcCeKnAoq1k-TGV7Jg_jT_gBLhkD2sOP3Ittil7anABl0xdyoe20ig7bCwQLdDtAQyajoK7ILpSESL64qCA1dTy5MnAHTkd8ypnTacyBq6QVpz2U2R74j9iEoVD7HT_tsAGlctzsEnTM_VdvNV8KVG-cjkroIXhL2dji9O9wxxl4caOiw3FHqa0U72hQIhaXwnoHR2xPhB5MSwI-UA8Vect_mVe_]--></g></svg>