<?xml version="1.0" encoding="us-ascii" standalone="no"?><svg xmlns="http://www.w3.org/2000/svg" xmlns:xlink="http://www.w3.org/1999/xlink" contentStyleType="text/css" height="490px" preserveAspectRatio="none" style="width:740px;height:490px;background:#FFFFFF;" version="1.1" viewBox="0 0 740 490" width="740px" zoomAndPan="magnify"><defs/><g><text fill="#000000" font-family="sans-serif" font-size="14" font-weight="bold" lengthAdjust="spacing" textLength="151" x="287.75" y="24.5332">Level 1 - Logical View</text><!--entity admin--><g id="elem_admin"><ellipse cx="55.5" cy="52.6094" fill="#F1F1F1" rx="8" ry="8" style="stroke:#181818;stroke-width:0.5;"/><text fill="#000000" font-family="sans-serif" font-size="14" lengthAdjust="spacing" textLength="83" x="6" y="84.1426">Administrator</text><text fill="#000000" font-family="sans-serif" font-size="14" lengthAdjust="spacing" textLength="4" x="89" y="84.1426">&#160;</text><text fill="#000000" font-family="sans-serif" font-size="14" lengthAdjust="spacing" textLength="12" x="93" y="84.1426">UI</text></g><!--entity agent--><g id="elem_agent"><ellipse cx="253.5" cy="52.6094" fill="#F1F1F1" rx="8" ry="8" style="stroke:#181818;stroke-width:0.5;"/><text fill="#000000" font-family="sans-serif" font-size="14" lengthAdjust="spacing" textLength="55" x="155.5" y="84.1426">Shipping</text><text fill="#000000" font-family="sans-serif" font-size="14" lengthAdjust="spacing" textLength="4" x="210.5" y="84.1426">&#160;</text><text fill="#000000" font-family="sans-serif" font-size="14" lengthAdjust="spacing" textLength="37" x="214.5" y="84.1426">Agent</text><text fill="#000000" font-family="sans-serif" font-size="14" lengthAdjust="spacing" textLength="4" x="251.5" y="84.1426">&#160;</text><text fill="#000000" font-family="sans-serif" font-size="14" lengthAdjust="spacing" textLength="96" x="255.5" y="84.1426">Representative</text><text fill="#000000" font-family="sans-serif" font-size="14" lengthAdjust="spacing" textLength="12" x="247.5" y="101.752">UI</text></g><!--entity officer--><g id="elem_officer"><ellipse cx="476.5" cy="52.6094" fill="#F1F1F1" rx="8" ry="8" style="stroke:#181818;stroke-width:0.5;"/><text fill="#000000" font-family="sans-serif" font-size="14" lengthAdjust="spacing" textLength="26" x="402.5" y="84.1426">Port</text><text fill="#000000" font-family="sans-serif" font-size="14" lengthAdjust="spacing" textLength="4" x="428.5" y="84.1426">&#160;</text><text fill="#000000" font-family="sans-serif" font-size="14" lengthAdjust="spacing" textLength="56" x="432.5" y="84.1426">Authority</text><text fill="#000000" font-family="sans-serif" font-size="14" lengthAdjust="spacing" textLength="4" x="488.5" y="84.1426">&#160;</text><text fill="#000000" font-family="sans-serif" font-size="14" lengthAdjust="spacing" textLength="42" x="492.5" y="84.1426">Officer</text><text fill="#000000" font-family="sans-serif" font-size="14" lengthAdjust="spacing" textLength="4" x="534.5" y="84.1426">&#160;</text><text fill="#000000" font-family="sans-serif" font-size="14" lengthAdjust="spacing" textLength="12" x="538.5" y="84.1426">UI</text></g><!--entity operator--><g id="elem_operator"><ellipse cx="667.5" cy="52.6094" fill="#F1F1F1" rx="8" ry="8" style="stroke:#181818;stroke-width:0.5;"/><text fill="#000000" font-family="sans-serif" font-size="14" lengthAdjust="spacing" textLength="55" x="601.5" y="84.1426">Logistics</text><text fill="#000000" font-family="sans-serif" font-size="14" lengthAdjust="spacing" textLength="4" x="656.5" y="84.1426">&#160;</text><text fill="#000000" font-family="sans-serif" font-size="14" lengthAdjust="spacing" textLength="57" x="660.5" y="84.1426">Operator</text><text fill="#000000" font-family="sans-serif" font-size="14" lengthAdjust="spacing" textLength="4" x="717.5" y="84.1426">&#160;</text><text fill="#000000" font-family="sans-serif" font-size="14" lengthAdjust="spacing" textLength="12" x="721.5" y="84.1426">UI</text></g><!--entity pms--><g id="elem_pms"><rect fill="#1168BD" height="55.2188" style="stroke:#3C7FC0;stroke-width:0.5;" width="215" x="257" y="172.6094"/><text fill="#FFFFFF" font-family="sans-serif" font-size="12" font-style="italic" lengthAdjust="spacing" textLength="53" x="338" y="195.0664">&#171;system&#187;</text><text fill="#FFFFFF" font-family="sans-serif" font-size="16" font-weight="bold" lengthAdjust="spacing" textLength="32" x="267" y="214.3125">Port</text><text fill="#FFFFFF" font-family="sans-serif" font-size="16" font-weight="bold" lengthAdjust="spacing" textLength="4" x="299" y="214.3125">&#160;</text><text fill="#FFFFFF" font-family="sans-serif" font-size="16" font-weight="bold" lengthAdjust="spacing" textLength="98" x="303" y="214.3125">Management</text><text fill="#FFFFFF" font-family="sans-serif" font-size="16" font-weight="bold" lengthAdjust="spacing" textLength="4" x="401" y="214.3125">&#160;</text><text fill="#FFFFFF" font-family="sans-serif" font-size="16" font-weight="bold" lengthAdjust="spacing" textLength="57" x="405" y="214.3125">System</text></g><!--entity apiIF--><g id="elem_apiIF"><ellipse cx="364.5" cy="329.6094" fill="#F1F1F1" rx="8" ry="8" style="stroke:#181818;stroke-width:0.5;"/><text fill="#000000" font-family="sans-serif" font-size="14" lengthAdjust="spacing" textLength="21" x="354" y="361.1426">API</text></g><!--entity iamIF--><g id="elem_iamIF"><ellipse cx="355.5" cy="450.6094" fill="#F1F1F1" rx="8" ry="8" style="stroke:#181818;stroke-width:0.5;"/><text fill="#000000" font-family="sans-serif" font-size="14" lengthAdjust="spacing" textLength="23" x="344" y="482.1426">IAM</text></g><!--entity sysIF--><g id="elem_sysIF"><ellipse cx="266.5" cy="329.6094" fill="#F1F1F1" rx="8" ry="8" style="stroke:#181818;stroke-width:0.5;"/><text fill="#000000" font-family="sans-serif" font-size="14" lengthAdjust="spacing" textLength="56" x="238.5" y="361.1426">SYSTEM</text></g><!--link admin to pms--><g id="link_admin_pms"><path d="M64.77,60.2194 C78.5,69.8394 105.22,87.9294 129.5,100.6094 C182.53,128.3094 237.6594,151.3515 284.9094,169.6415 " fill="none" id="admin-to-pms" style="stroke:#666666;stroke-width:1.0;"/><polygon fill="#666666" points="292.37,172.5294,285.9924,166.8438,283.8265,172.4392,292.37,172.5294" style="stroke:#666666;stroke-width:1.0;"/><text fill="#666666" font-family="sans-serif" font-size="0" lengthAdjust="spacing" textLength="0" x="219.5" y="131.6094">.</text></g><!--link agent to pms--><g id="link_agent_pms"><path d="M259.79,61.8494 C275.75,82.7694 313.5388,132.2981 339.2088,165.9581 " fill="none" id="agent-to-pms" style="stroke:#666666;stroke-width:1.0;"/><polygon fill="#666666" points="344.06,172.3194,341.5942,164.1389,336.8233,167.7774,344.06,172.3194" style="stroke:#666666;stroke-width:1.0;"/><text fill="#666666" font-family="sans-serif" font-size="0" lengthAdjust="spacing" textLength="0" x="320.5" y="131.6094">.</text></g><!--link officer to pms--><g id="link_officer_pms"><path d="M470.16,61.8494 C454.05,82.7694 415.9098,132.32 389.9998,165.98 " fill="none" id="officer-to-pms" style="stroke:#666666;stroke-width:1.0;"/><polygon fill="#666666" points="385.12,172.3194,392.377,167.8099,387.6225,164.1501,385.12,172.3194" style="stroke:#666666;stroke-width:1.0;"/><text fill="#666666" font-family="sans-serif" font-size="0" lengthAdjust="spacing" textLength="0" x="418.5" y="131.6094">.</text></g><!--link operator to pms--><g id="link_operator_pms"><path d="M658.26,58.5394 C641.9,67.2494 606.68,85.8194 576.5,100.6094 C525.12,125.7994 473.3099,149.8023 430.5799,169.2723 " fill="none" id="operator-to-pms" style="stroke:#666666;stroke-width:1.0;"/><polygon fill="#666666" points="423.3,172.5894,431.8238,172.0022,429.336,166.5423,423.3,172.5894" style="stroke:#666666;stroke-width:1.0;"/><text fill="#666666" font-family="sans-serif" font-size="0" lengthAdjust="spacing" textLength="0" x="514.5" y="131.6094">.</text></g><!--link pms to sysIF--><g id="link_pms_sysIF"><path d="M343.96,227.8394 C321.51,257.0494 291.7355,295.7767 277.6455,314.1067 " fill="none" id="pms-to-sysIF" style="stroke:#666666;stroke-width:1.0;"/><polygon fill="#666666" points="272.77,320.4494,280.024,315.935,275.267,312.2784,272.77,320.4494" style="stroke:#666666;stroke-width:1.0;"/><text fill="#666666" font-family="sans-serif" font-size="0" lengthAdjust="spacing" textLength="0" x="319.5" y="258.6094">.</text></g><!--link pms to apiIF--><g id="link_pms_apiIF"><path d="M364.5,227.8394 C364.5,257.0494 364.5,292.1194 364.5,310.4494 " fill="none" id="pms-to-apiIF" style="stroke:#666666;stroke-width:1.0;"/><path d="M372.9572,317.3712 A9,9 0 0 0 356.0428 317.3712" fill="none" style="stroke:#666666;stroke-width:1.5;"/></g><!--link pms to iamIF--><g id="link_pms_iamIF"><path d="M380.84,227.7294 C398.09,259.2094 421.15,313.1794 408.5,359.6094 C399.44,392.8494 380.9209,418.5561 368.7409,433.6061 " fill="none" id="pms-to-iamIF" style="stroke:#666666;stroke-width:1.0;"/><path d="M370.9605,444.307 A9,9 0 0 0 357.8124 433.6662" fill="none" style="stroke:#666666;stroke-width:1.5;"/></g><!--reverse link sysIF to iamIF--><g id="link_sysIF_iamIF"><path d="M278.6094,346.7973 C294.8694,368.5373 333.03,419.5694 349.34,441.3694 " fill="none" id="sysIF-backto-iamIF" style="stroke:#666666;stroke-width:1.0;"/><path d="M267.6911,346.3197 A9,9 0 0 0 281.2362 336.189" fill="none" style="stroke:#666666;stroke-width:1.5;"/></g><!--SRC=[PP11QuD048Nl_egfbwQWaK9FXHuaj20a9CIcq5FPw4O7T7VP7PFcttTMJPjO3pBxlHdcpRj3LJHTAQ4cCkuvIQmupIkakjjtJjf2AvAAveLk4zC8HLtRn8xA1lV9uYdUUBHRBPDME9AMqTV2JtpJt71d411I8s4fZxA1HuXXgIiiH0CVA4z1S0yl_45QaBQkhmFaQNiGXGHHjgW0X8CmzIKwie8ROPU5rsqL-uEXBw_H65GLf3tSIcEbuqeG7kLaJXyEM4ZRpssq9KWxghL5EiDwb2O3HWxx_OI_mn4M3jONxBil5-LdZgCTBXhgcMbTD6vQ2SMkMszn4CE7loms6MI_EoUHXAo6VhymcBrT2rcwwWKKxQsGV-RlhuFcpewrowAjR3WMhHndDcRFQDQd7d6UWrzsrbEVvpywHXXDw1X8T4FxH-zWO043Y4jzKl5iFEUQZ7VuFyITOJAw_m40]--></g></svg>