<?xml version="1.0" encoding="us-ascii" standalone="no"?><svg xmlns="http://www.w3.org/2000/svg" xmlns:xlink="http://www.w3.org/1999/xlink" contentStyleType="text/css" height="668px" preserveAspectRatio="none" style="width:930px;height:668px;background:#FFFFFF;" version="1.1" viewBox="0 0 930 668" width="930px" zoomAndPan="magnify"><defs/><g><rect fill="#FFFFFF" height="475.625" style="stroke:#181818;stroke-width:1.0;" width="10" x="17.5" y="92.6094"/><rect fill="#FFFFFF" height="436.9219" style="stroke:#181818;stroke-width:1.0;" width="10" x="159.5" y="131.3125"/><rect fill="#FFFFFF" height="359.8672" style="stroke:#181818;stroke-width:1.0;" width="10" x="300.5" y="161.6641"/><rect fill="#FFFFFF" height="73.7031" style="stroke:#181818;stroke-width:1.0;" width="10" x="444.5" y="192.0156"/><rect fill="#FFFFFF" height="30.3516" style="stroke:#181818;stroke-width:1.0;" width="10" x="610.5" y="296.0703"/><rect fill="#FFFFFF" height="91.0547" style="stroke:#181818;stroke-width:1.0;" width="10" x="726.5" y="356.7734"/><rect fill="#FFFFFF" height="30.3516" style="stroke:#181818;stroke-width:1.0;" width="10" x="890.5" y="387.125"/><line style="stroke:#181818;stroke-width:0.5;stroke-dasharray:5.0,5.0;" x1="22" x2="22" y1="82.6094" y2="586.2344"/><line style="stroke:#181818;stroke-width:0.5;stroke-dasharray:5.0,5.0;" x1="164" x2="164" y1="82.6094" y2="586.2344"/><line style="stroke:#181818;stroke-width:0.5;stroke-dasharray:5.0,5.0;" x1="305.5" x2="305.5" y1="82.6094" y2="586.2344"/><line style="stroke:#181818;stroke-width:0.5;stroke-dasharray:5.0,5.0;" x1="449" x2="449" y1="82.6094" y2="586.2344"/><line style="stroke:#181818;stroke-width:0.5;stroke-dasharray:5.0,5.0;" x1="615.5" x2="615.5" y1="82.6094" y2="586.2344"/><line style="stroke:#181818;stroke-width:0.5;stroke-dasharray:5.0,5.0;" x1="731.5" x2="731.5" y1="82.6094" y2="586.2344"/><line style="stroke:#181818;stroke-width:0.5;stroke-dasharray:5.0,5.0;" x1="895" x2="895" y1="82.6094" y2="586.2344"/><text fill="#000000" font-family="sans-serif" font-size="14" lengthAdjust="spacing" textLength="29" x="5" y="79.5332">User</text><ellipse cx="22.5" cy="13.5" fill="#E2E2F0" rx="8" ry="8" style="stroke:#181818;stroke-width:0.5;"/><path d="M22.5,21.5 L22.5,48.5 M9.5,29.5 L35.5,29.5 M22.5,48.5 L9.5,63.5 M22.5,48.5 L35.5,63.5 " fill="none" style="stroke:#181818;stroke-width:0.5;"/><text fill="#000000" font-family="sans-serif" font-size="14" lengthAdjust="spacing" textLength="29" x="5" y="599.7676">User</text><ellipse cx="22.5" cy="611.3438" fill="#E2E2F0" rx="8" ry="8" style="stroke:#181818;stroke-width:0.5;"/><path d="M22.5,619.3438 L22.5,646.3438 M9.5,627.3438 L35.5,627.3438 M22.5,646.3438 L9.5,661.3438 M22.5,646.3438 L35.5,661.3438 " fill="none" style="stroke:#181818;stroke-width:0.5;"/><rect fill="#E2E2F0" height="31.6094" rx="2.5" ry="2.5" style="stroke:#181818;stroke-width:0.5;" width="117" x="106" y="50"/><text fill="#000000" font-family="sans-serif" font-size="14" lengthAdjust="spacing" textLength="103" x="113" y="71.5332">ObjectController</text><rect fill="#E2E2F0" height="31.6094" rx="2.5" ry="2.5" style="stroke:#181818;stroke-width:0.5;" width="117" x="106" y="585.2344"/><text fill="#000000" font-family="sans-serif" font-size="14" lengthAdjust="spacing" textLength="103" x="113" y="606.7676">ObjectController</text><rect fill="#E2E2F0" height="31.6094" rx="2.5" ry="2.5" style="stroke:#181818;stroke-width:0.5;" width="102" x="254.5" y="50"/><text fill="#000000" font-family="sans-serif" font-size="14" lengthAdjust="spacing" textLength="88" x="261.5" y="71.5332">ObjectService</text><rect fill="#E2E2F0" height="31.6094" rx="2.5" ry="2.5" style="stroke:#181818;stroke-width:0.5;" width="102" x="254.5" y="585.2344"/><text fill="#000000" font-family="sans-serif" font-size="14" lengthAdjust="spacing" textLength="88" x="261.5" y="606.7676">ObjectService</text><rect fill="#E2E2F0" height="31.6094" rx="2.5" ry="2.5" style="stroke:#181818;stroke-width:0.5;" width="55" x="422" y="50"/><text fill="#000000" font-family="sans-serif" font-size="14" lengthAdjust="spacing" textLength="41" x="429" y="71.5332">Object</text><rect fill="#E2E2F0" height="31.6094" rx="2.5" ry="2.5" style="stroke:#181818;stroke-width:0.5;" width="55" x="422" y="585.2344"/><text fill="#000000" font-family="sans-serif" font-size="14" lengthAdjust="spacing" textLength="41" x="429" y="606.7676">Object</text><rect fill="#E2E2F0" height="31.6094" rx="2.5" ry="2.5" style="stroke:#181818;stroke-width:0.5;" width="126" x="552.5" y="50"/><text fill="#000000" font-family="sans-serif" font-size="14" lengthAdjust="spacing" textLength="112" x="559.5" y="71.5332">IObjectRepository</text><rect fill="#E2E2F0" height="31.6094" rx="2.5" ry="2.5" style="stroke:#181818;stroke-width:0.5;" width="126" x="552.5" y="585.2344"/><text fill="#000000" font-family="sans-serif" font-size="14" lengthAdjust="spacing" textLength="112" x="559.5" y="606.7676">IObjectRepository</text><rect fill="#E2E2F0" height="31.6094" rx="2.5" ry="2.5" style="stroke:#181818;stroke-width:0.5;" width="86" x="688.5" y="50"/><text fill="#000000" font-family="sans-serif" font-size="14" lengthAdjust="spacing" textLength="72" x="695.5" y="71.5332">UnitOfWork</text><rect fill="#E2E2F0" height="31.6094" rx="2.5" ry="2.5" style="stroke:#181818;stroke-width:0.5;" width="86" x="688.5" y="585.2344"/><text fill="#000000" font-family="sans-serif" font-size="14" lengthAdjust="spacing" textLength="72" x="695.5" y="606.7676">UnitOfWork</text><text fill="#000000" font-family="sans-serif" font-size="14" lengthAdjust="spacing" textLength="61" x="862" y="79.5332">Database</text><path d="M877.5,29 C877.5,19 895.5,19 895.5,19 C895.5,19 913.5,19 913.5,29 L913.5,55 C913.5,65 895.5,65 895.5,65 C895.5,65 877.5,65 877.5,55 L877.5,29 " fill="#E2E2F0" style="stroke:#181818;stroke-width:1.5;"/><path d="M877.5,29 C877.5,39 895.5,39 895.5,39 C895.5,39 913.5,39 913.5,29 " fill="none" style="stroke:#181818;stroke-width:1.5;"/><text fill="#000000" font-family="sans-serif" font-size="14" lengthAdjust="spacing" textLength="61" x="862" y="599.7676">Database</text><path d="M877.5,612.8438 C877.5,602.8438 895.5,602.8438 895.5,602.8438 C895.5,602.8438 913.5,602.8438 913.5,612.8438 L913.5,638.8438 C913.5,648.8438 895.5,648.8438 895.5,648.8438 C895.5,648.8438 877.5,648.8438 877.5,638.8438 L877.5,612.8438 " fill="#E2E2F0" style="stroke:#181818;stroke-width:1.5;"/><path d="M877.5,612.8438 C877.5,622.8438 895.5,622.8438 895.5,622.8438 C895.5,622.8438 913.5,622.8438 913.5,612.8438 " fill="none" style="stroke:#181818;stroke-width:1.5;"/><rect fill="#FFFFFF" height="475.625" style="stroke:#181818;stroke-width:1.0;" width="10" x="17.5" y="92.6094"/><rect fill="#FFFFFF" height="436.9219" style="stroke:#181818;stroke-width:1.0;" width="10" x="159.5" y="131.3125"/><rect fill="#FFFFFF" height="359.8672" style="stroke:#181818;stroke-width:1.0;" width="10" x="300.5" y="161.6641"/><rect fill="#FFFFFF" height="73.7031" style="stroke:#181818;stroke-width:1.0;" width="10" x="444.5" y="192.0156"/><rect fill="#FFFFFF" height="30.3516" style="stroke:#181818;stroke-width:1.0;" width="10" x="610.5" y="296.0703"/><rect fill="#FFFFFF" height="91.0547" style="stroke:#181818;stroke-width:1.0;" width="10" x="726.5" y="356.7734"/><rect fill="#FFFFFF" height="30.3516" style="stroke:#181818;stroke-width:1.0;" width="10" x="890.5" y="387.125"/><polygon fill="#181818" points="147.5,127.3125,157.5,131.3125,147.5,135.3125,151.5,131.3125" style="stroke:#181818;stroke-width:1.0;"/><line style="stroke:#181818;stroke-width:1.0;" x1="27.5" x2="153.5" y1="131.3125" y2="131.3125"/><text fill="#000000" font-family="sans-serif" font-size="13" font-weight="bold" lengthAdjust="spacing" textLength="7" x="34.5" y="118.2803">1</text><text fill="#000000" font-family="sans-serif" font-size="13" lengthAdjust="spacing" textLength="102" x="45.5" y="110.1045">POST /api/Object</text><text fill="#000000" font-family="sans-serif" font-size="13" lengthAdjust="spacing" textLength="70" x="45.5" y="126.4561">{objectData}</text><polygon fill="#181818" points="288.5,157.6641,298.5,161.6641,288.5,165.6641,292.5,161.6641" style="stroke:#181818;stroke-width:1.0;"/><line style="stroke:#181818;stroke-width:1.0;" x1="169.5" x2="294.5" y1="161.6641" y2="161.6641"/><text fill="#000000" font-family="sans-serif" font-size="13" font-weight="bold" lengthAdjust="spacing" textLength="7" x="176.5" y="156.8076">2</text><text fill="#000000" font-family="sans-serif" font-size="13" lengthAdjust="spacing" textLength="101" x="187.5" y="156.8076">CreateAsync(dto)</text><polygon fill="#181818" points="432.5,188.0156,442.5,192.0156,432.5,196.0156,436.5,192.0156" style="stroke:#181818;stroke-width:1.0;"/><line style="stroke:#181818;stroke-width:1.0;" x1="310.5" x2="438.5" y1="192.0156" y2="192.0156"/><text fill="#000000" font-family="sans-serif" font-size="13" font-weight="bold" lengthAdjust="spacing" textLength="7" x="317.5" y="187.1592">3</text><text fill="#000000" font-family="sans-serif" font-size="13" lengthAdjust="spacing" textLength="91" x="328.5" y="187.1592">new Object(dto)</text><line style="stroke:#181818;stroke-width:1.0;" x1="454.5" x2="496.5" y1="222.3672" y2="222.3672"/><line style="stroke:#181818;stroke-width:1.0;" x1="496.5" x2="496.5" y1="222.3672" y2="235.3672"/><line style="stroke:#181818;stroke-width:1.0;" x1="455.5" x2="496.5" y1="235.3672" y2="235.3672"/><polygon fill="#181818" points="465.5,231.3672,455.5,235.3672,465.5,239.3672,461.5,235.3672" style="stroke:#181818;stroke-width:1.0;"/><text fill="#000000" font-family="sans-serif" font-size="13" font-weight="bold" lengthAdjust="spacing" textLength="7" x="461.5" y="217.5107">4</text><text fill="#000000" font-family="sans-serif" font-size="13" lengthAdjust="spacing" textLength="131" x="472.5" y="217.5107">validate business rules</text><polygon fill="#181818" points="321.5,261.7188,311.5,265.7188,321.5,269.7188,317.5,265.7188" style="stroke:#181818;stroke-width:1.0;"/><line style="stroke:#181818;stroke-width:1.0;stroke-dasharray:2.0,2.0;" x1="315.5" x2="448.5" y1="265.7188" y2="265.7188"/><text fill="#000000" font-family="sans-serif" font-size="13" font-weight="bold" lengthAdjust="spacing" textLength="7" x="327.5" y="260.8623">5</text><text fill="#000000" font-family="sans-serif" font-size="13" lengthAdjust="spacing" textLength="35" x="338.5" y="260.8623">object</text><polygon fill="#181818" points="598.5,292.0703,608.5,296.0703,598.5,300.0703,602.5,296.0703" style="stroke:#181818;stroke-width:1.0;"/><line style="stroke:#181818;stroke-width:1.0;" x1="310.5" x2="604.5" y1="296.0703" y2="296.0703"/><text fill="#000000" font-family="sans-serif" font-size="13" font-weight="bold" lengthAdjust="spacing" textLength="7" x="317.5" y="291.2139">6</text><text fill="#000000" font-family="sans-serif" font-size="13" lengthAdjust="spacing" textLength="103" x="328.5" y="291.2139">AddAsync(object)</text><polygon fill="#181818" points="321.5,322.4219,311.5,326.4219,321.5,330.4219,317.5,326.4219" style="stroke:#181818;stroke-width:1.0;"/><line style="stroke:#181818;stroke-width:1.0;stroke-dasharray:2.0,2.0;" x1="315.5" x2="614.5" y1="326.4219" y2="326.4219"/><text fill="#000000" font-family="sans-serif" font-size="13" font-weight="bold" lengthAdjust="spacing" textLength="7" x="327.5" y="321.5654">7</text><text fill="#000000" font-family="sans-serif" font-size="13" lengthAdjust="spacing" textLength="22" x="338.5" y="321.5654">void</text><polygon fill="#181818" points="714.5,352.7734,724.5,356.7734,714.5,360.7734,718.5,356.7734" style="stroke:#181818;stroke-width:1.0;"/><line style="stroke:#181818;stroke-width:1.0;" x1="310.5" x2="720.5" y1="356.7734" y2="356.7734"/><text fill="#000000" font-family="sans-serif" font-size="13" font-weight="bold" lengthAdjust="spacing" textLength="7" x="317.5" y="351.917">8</text><text fill="#000000" font-family="sans-serif" font-size="13" lengthAdjust="spacing" textLength="90" x="328.5" y="351.917">CommitAsync()</text><polygon fill="#181818" points="878.5,383.125,888.5,387.125,878.5,391.125,882.5,387.125" style="stroke:#181818;stroke-width:1.0;"/><line style="stroke:#181818;stroke-width:1.0;" x1="736.5" x2="884.5" y1="387.125" y2="387.125"/><text fill="#000000" font-family="sans-serif" font-size="13" font-weight="bold" lengthAdjust="spacing" textLength="7" x="743.5" y="382.2686">9</text><text fill="#000000" font-family="sans-serif" font-size="13" lengthAdjust="spacing" textLength="124" x="754.5" y="382.2686">SaveChangesAsync()</text><polygon fill="#181818" points="747.5,413.4766,737.5,417.4766,747.5,421.4766,743.5,417.4766" style="stroke:#181818;stroke-width:1.0;"/><line style="stroke:#181818;stroke-width:1.0;stroke-dasharray:2.0,2.0;" x1="741.5" x2="894.5" y1="417.4766" y2="417.4766"/><text fill="#000000" font-family="sans-serif" font-size="13" font-weight="bold" lengthAdjust="spacing" textLength="14" x="753.5" y="412.6201">10</text><text fill="#000000" font-family="sans-serif" font-size="13" lengthAdjust="spacing" textLength="102" x="771.5" y="412.6201">int (rows affected)</text><polygon fill="#181818" points="321.5,443.8281,311.5,447.8281,321.5,451.8281,317.5,447.8281" style="stroke:#181818;stroke-width:1.0;"/><line style="stroke:#181818;stroke-width:1.0;stroke-dasharray:2.0,2.0;" x1="315.5" x2="730.5" y1="447.8281" y2="447.8281"/><text fill="#000000" font-family="sans-serif" font-size="13" font-weight="bold" lengthAdjust="spacing" textLength="14" x="327.5" y="442.9717">11</text><text fill="#000000" font-family="sans-serif" font-size="13" lengthAdjust="spacing" textLength="14" x="345.5" y="442.9717">int</text><line style="stroke:#181818;stroke-width:1.0;" x1="310.5" x2="352.5" y1="478.1797" y2="478.1797"/><line style="stroke:#181818;stroke-width:1.0;" x1="352.5" x2="352.5" y1="478.1797" y2="491.1797"/><line style="stroke:#181818;stroke-width:1.0;" x1="311.5" x2="352.5" y1="491.1797" y2="491.1797"/><polygon fill="#181818" points="321.5,487.1797,311.5,491.1797,321.5,495.1797,317.5,491.1797" style="stroke:#181818;stroke-width:1.0;"/><text fill="#000000" font-family="sans-serif" font-size="13" font-weight="bold" lengthAdjust="spacing" textLength="14" x="317.5" y="473.3232">12</text><text fill="#000000" font-family="sans-serif" font-size="13" lengthAdjust="spacing" textLength="102" x="335.5" y="473.3232">MapToDto(object)</text><polygon fill="#181818" points="180.5,517.5313,170.5,521.5313,180.5,525.5313,176.5,521.5313" style="stroke:#181818;stroke-width:1.0;"/><line style="stroke:#181818;stroke-width:1.0;stroke-dasharray:2.0,2.0;" x1="174.5" x2="304.5" y1="521.5313" y2="521.5313"/><text fill="#000000" font-family="sans-serif" font-size="13" font-weight="bold" lengthAdjust="spacing" textLength="14" x="186.5" y="516.6748">13</text><text fill="#000000" font-family="sans-serif" font-size="13" lengthAdjust="spacing" textLength="58" x="204.5" y="516.6748">ObjectDto</text><polygon fill="#181818" points="33.5,564.2344,23.5,568.2344,33.5,572.2344,29.5,568.2344" style="stroke:#181818;stroke-width:1.0;"/><line style="stroke:#181818;stroke-width:1.0;stroke-dasharray:2.0,2.0;" x1="27.5" x2="163.5" y1="568.2344" y2="568.2344"/><text fill="#000000" font-family="sans-serif" font-size="13" font-weight="bold" lengthAdjust="spacing" textLength="14" x="39.5" y="555.2021">14</text><text fill="#000000" font-family="sans-serif" font-size="13" lengthAdjust="spacing" textLength="70" x="57.5" y="547.0264">201 Created</text><text fill="#000000" font-family="sans-serif" font-size="13" lengthAdjust="spacing" textLength="63" x="57.5" y="563.3779">{objectDto}</text><!--SRC=[RP8zRy8m48Pt_meh4moe7sE7Ia2M3XLL0R5qSUAZTHlio7Q2KCL_xzaEoOMoHEVuUU_UEvzelD7DeG3Bc2YziJpREh0P5uw7WDN2UbMgMcZFirNn3QLV6ksjgQeE6uwtu3NOLfKGoIw-XSNx58wlNzBFTwYDK-Zl5CdXEAQtMldLVcViJ-h0x9WKNXJ20S_oBefN-I8sh5hX8NNAmfVFdab3_8c_hTORVYTgTPUCVEXV4uEGxJoa85DW906cwxh6N4iBYCxTIPSJwSrqK5ycmoumwb8zb6auTeShLJUl3gIILbHA1gHedDBW7BTD1Qv7HxPIFqp2TMBgPfWuAkPIfYwIb5WY3qCKutgjKP9M8nfQ4HylpCmS3igdQgHEUDa089Sl45kB5fPVGd-2-yVYKoCpwrCgt9I9DKV7nNwFza5EgHt4O-QHPzHG9fIdNWVmLTGRatlJZwQdhZSh3HbHchXV1Bf3mRcBciVxXswBvB28tfnf2hA9r75OyJy0]--></g></svg>