<?xml version="1.0" encoding="us-ascii" standalone="no"?><svg xmlns="http://www.w3.org/2000/svg" xmlns:xlink="http://www.w3.org/1999/xlink" contentStyleType="text/css" height="2936px" preserveAspectRatio="none" style="width:604px;height:2936px;background:#FFFFFF;" version="1.1" viewBox="0 0 604 2936" width="604px" zoomAndPan="magnify"><defs/><g><text fill="#000000" font-family="sans-serif" font-size="14" font-weight="bold" lengthAdjust="spacing" textLength="127" x="231.5" y="24.5332">Use Case Diagram</text><!--cluster System--><g id="cluster_System"><rect fill="none" height="2885" rx="2.5" ry="2.5" style="stroke:#181818;stroke-width:1.0;" width="398" x="200" y="45.6094"/><text fill="#000000" font-family="sans-serif" font-size="14" font-weight="bold" lengthAdjust="spacing" textLength="50" x="374" y="62.1426">System</text></g><g id="elem_UC311"><ellipse cx="398.7585" cy="114.4611" fill="#F1F1F1" rx="149.7585" ry="32.3517" style="stroke:#181818;stroke-width:0.5;"/><text fill="#000000" font-family="sans-serif" font-size="14" lengthAdjust="spacing" textLength="268" x="264.7585" y="118.1896">"3.1.1 Setup SPA with Modern Framework"</text></g><g id="elem_UC312"><ellipse cx="398.7614" cy="965.4617" fill="#F1F1F1" rx="112.2614" ry="24.8523" style="stroke:#181818;stroke-width:0.5;"/><text fill="#000000" font-family="sans-serif" font-size="14" lengthAdjust="spacing" textLength="188" x="304.7614" y="969.1902">"3.1.2 Provide Unified Layout"</text></g><g id="elem_UC313"><ellipse cx="399.165" cy="1418.8424" fill="#F1F1F1" rx="119.165" ry="26.233" style="stroke:#181818;stroke-width:0.5;"/><text fill="#000000" font-family="sans-serif" font-size="14" lengthAdjust="spacing" textLength="203" x="297.665" y="1422.5709">"3.1.3 Show Role-based Menus"</text></g><g id="elem_UC314"><ellipse cx="399.1774" cy="1050.6449" fill="#F1F1F1" rx="113.1774" ry="25.0355" style="stroke:#181818;stroke-width:0.5;"/><text fill="#000000" font-family="sans-serif" font-size="14" lengthAdjust="spacing" textLength="190" x="304.1774" y="1054.3734">"3.1.4 Show Action Feedback"</text></g><g id="elem_UC315"><ellipse cx="398.9721" cy="1142.6038" fill="#F1F1F1" rx="145.4721" ry="31.4944" style="stroke:#181818;stroke-width:0.5;"/><text fill="#000000" font-family="sans-serif" font-size="14" lengthAdjust="spacing" textLength="259" x="269.4721" y="1146.3323">"3.1.5 Provide Role-based Pages/Forms"</text></g><g id="elem_UC321"><ellipse cx="399.2297" cy="1508.4553" fill="#F1F1F1" rx="132.2297" ry="28.8459" style="stroke:#181818;stroke-width:0.5;"/><text fill="#000000" font-family="sans-serif" font-size="14" lengthAdjust="spacing" textLength="231" x="283.7297" y="1512.1838">"3.2.1 Authenticate via IAM Provider"</text></g><g id="elem_UC322"><ellipse cx="398.7518" cy="1239.5597" fill="#F1F1F1" rx="140.2518" ry="30.4504" style="stroke:#181818;stroke-width:0.5;"/><text fill="#000000" font-family="sans-serif" font-size="14" lengthAdjust="spacing" textLength="248" x="274.7518" y="1243.2883">"3.2.2 Load Internal Authorization Role"</text></g><g id="elem_UC323"><ellipse cx="399.2025" cy="1331.7499" fill="#F1F1F1" rx="118.7025" ry="26.1405" style="stroke:#181818;stroke-width:0.5;"/><text fill="#000000" font-family="sans-serif" font-size="14" lengthAdjust="spacing" textLength="202" x="298.2025" y="1335.4784">"3.2.3 Maintain Secure Session"</text></g><g id="elem_UC324"><ellipse cx="398.9736" cy="404.6041" fill="#F1F1F1" rx="115.4736" ry="25.4947" style="stroke:#181818;stroke-width:0.5;"/><text fill="#000000" font-family="sans-serif" font-size="14" lengthAdjust="spacing" textLength="195" x="301.4736" y="408.3326">"3.2.4 Restrict Access by Role"</text></g><g id="elem_UC325"><ellipse cx="398.9113" cy="1599.4916" fill="#F1F1F1" rx="122.4113" ry="26.8823" style="stroke:#181818;stroke-width:0.5;"/><text fill="#000000" font-family="sans-serif" font-size="14" lengthAdjust="spacing" textLength="210" x="293.9113" y="1603.2202">"3.2.5 Assign/Update User Roles"</text></g><g id="elem_UC326"><ellipse cx="399.0185" cy="501.4131" fill="#F1F1F1" rx="167.0185" ry="35.8037" style="stroke:#181818;stroke-width:0.5;"/><text fill="#000000" font-family="sans-serif" font-size="14" lengthAdjust="spacing" textLength="304" x="247.0185" y="505.1416">"3.2.6 Complete First Access via Activation Link"</text></g><g id="elem_UC331"><ellipse cx="399.0463" cy="213.8186" fill="#F1F1F1" rx="144.0463" ry="31.2093" style="stroke:#181818;stroke-width:0.5;"/><text fill="#000000" font-family="sans-serif" font-size="14" lengthAdjust="spacing" textLength="256" x="271.0463" y="217.5472">"3.3.1 Integrate 3D Visualization Module"</text></g><g id="elem_UC332"><ellipse cx="399.0137" cy="693.5121" fill="#F1F1F1" rx="115.0137" ry="25.4027" style="stroke:#181818;stroke-width:0.5;"/><text fill="#000000" font-family="sans-serif" font-size="14" lengthAdjust="spacing" textLength="194" x="302.0137" y="697.2406">"3.3.2 Show 3D Port Structure"</text></g><g id="elem_UC333"><ellipse cx="399.0714" cy="2099.7237" fill="#F1F1F1" rx="143.5714" ry="31.1143" style="stroke:#181818;stroke-width:0.5;"/><text fill="#000000" font-family="sans-serif" font-size="14" lengthAdjust="spacing" textLength="255" x="271.5714" y="2103.4522">"3.3.3 Show Vessels &amp; Resources in 3D"</text></g><g id="elem_UC334"><ellipse cx="399.1734" cy="784.8441" fill="#F1F1F1" rx="141.6734" ry="30.7347" style="stroke:#181818;stroke-width:0.5;"/><text fill="#000000" font-family="sans-serif" font-size="14" lengthAdjust="spacing" textLength="251" x="273.6734" y="788.5726">"3.3.4 Render 3D Models with Textures"</text></g><g id="elem_UC335"><ellipse cx="398.7727" cy="877.3639" fill="#F1F1F1" rx="124.2727" ry="27.2545" style="stroke:#181818;stroke-width:0.5;"/><text fill="#000000" font-family="sans-serif" font-size="14" lengthAdjust="spacing" textLength="214" x="291.7727" y="881.0924">"3.3.5 Provide 3D Scene Lighting"</text></g><g id="elem_UC336"><ellipse cx="398.9138" cy="602.4921" fill="#F1F1F1" rx="137.4138" ry="29.8828" style="stroke:#181818;stroke-width:0.5;"/><text fill="#000000" font-family="sans-serif" font-size="14" lengthAdjust="spacing" textLength="242" x="277.9138" y="606.2206">"3.3.6 Control 3D Camera with Mouse"</text></g><g id="elem_UC341"><ellipse cx="398.8756" cy="311.4845" fill="#F1F1F1" rx="147.3756" ry="31.8751" style="stroke:#181818;stroke-width:0.5;"/><text fill="#000000" font-family="sans-serif" font-size="14" lengthAdjust="spacing" textLength="263" x="267.3756" y="315.213">"3.4.1 Planning &amp; Scheduling API Module"</text></g><g id="elem_UC342"><ellipse cx="399.1994" cy="1895.7492" fill="#F1F1F1" rx="141.1994" ry="30.6399" style="stroke:#181818;stroke-width:0.5;"/><text fill="#000000" font-family="sans-serif" font-size="14" lengthAdjust="spacing" textLength="250" x="274.1994" y="1899.4778">"3.4.2 Generate Daily Vessel Schedule"</text></g><g id="elem_UC343"><ellipse cx="399.0185" cy="1997.4131" fill="#F1F1F1" rx="167.0185" ry="35.8037" style="stroke:#181818;stroke-width:0.5;"/><text fill="#000000" font-family="sans-serif" font-size="14" lengthAdjust="spacing" textLength="304" x="247.0185" y="2001.1416">"3.4.3 Analyze Scheduling Algorithm Complexity"</text></g><g id="elem_UC344"><ellipse cx="399.0185" cy="1697.4131" fill="#F1F1F1" rx="167.0185" ry="35.8037" style="stroke:#181818;stroke-width:0.5;"/><text fill="#000000" font-family="sans-serif" font-size="14" lengthAdjust="spacing" textLength="304" x="247.0185" y="1701.1416">"3.4.4 Alternative Efficient Scheduling Algorithm"</text></g><g id="elem_UC345"><ellipse cx="398.7783" cy="1799.465" fill="#F1F1F1" rx="139.7783" ry="30.3557" style="stroke:#181818;stroke-width:0.5;"/><text fill="#000000" font-family="sans-serif" font-size="14" lengthAdjust="spacing" textLength="247" x="275.2783" y="1803.1936">"3.4.5 Support Multi-Crane Scheduling"</text></g><g id="elem_UC351"><ellipse cx="398.7783" cy="2789.465" fill="#F1F1F1" rx="139.7783" ry="30.3557" style="stroke:#181818;stroke-width:0.5;"/><text fill="#000000" font-family="sans-serif" font-size="14" lengthAdjust="spacing" textLength="247" x="275.2783" y="2793.1936">"3.5.1 Automated Deployment Pipeline"</text></g><g id="elem_UC352"><ellipse cx="398.9974" cy="2884.7089" fill="#F1F1F1" rx="135.9974" ry="29.5995" style="stroke:#181818;stroke-width:0.5;"/><text fill="#000000" font-family="sans-serif" font-size="14" lengthAdjust="spacing" textLength="239" x="279.4974" y="2888.4374">"3.5.2 Restrict Access to DEI Network"</text></g><g id="elem_UC353"><ellipse cx="398.805" cy="2196.3704" fill="#F1F1F1" rx="139.305" ry="30.261" style="stroke:#181818;stroke-width:0.5;"/><text fill="#000000" font-family="sans-serif" font-size="14" lengthAdjust="spacing" textLength="246" x="275.805" y="2200.0989">"3.5.3 Configurable Allowed Endpoints"</text></g><g id="elem_UC354"><ellipse cx="399.1676" cy="2294.8429" fill="#F1F1F1" rx="151.6676" ry="32.7335" style="stroke:#181818;stroke-width:0.5;"/><text fill="#000000" font-family="sans-serif" font-size="14" lengthAdjust="spacing" textLength="272" x="263.1676" y="2298.5714">"3.5.4 Public Folder for Shared Resources"</text></g><g id="elem_UC355"><ellipse cx="398.8511" cy="2390.5796" fill="#F1F1F1" rx="130.3511" ry="28.4702" style="stroke:#181818;stroke-width:0.5;"/><text fill="#000000" font-family="sans-serif" font-size="14" lengthAdjust="spacing" textLength="227" x="285.3511" y="2394.3081">"3.5.5 Monitor Remote Shell Logins"</text></g><g id="elem_UC356"><ellipse cx="398.8167" cy="2480.4727" fill="#F1F1F1" rx="117.3167" ry="25.8633" style="stroke:#181818;stroke-width:0.5;"/><text fill="#000000" font-family="sans-serif" font-size="14" lengthAdjust="spacing" textLength="199" x="299.3167" y="2484.2012">"3.5.6 Identify &amp; Quantify Risks"</text></g><g id="elem_UC357"><ellipse cx="398.9675" cy="2580.6029" fill="#F1F1F1" rx="182.9675" ry="38.9935" style="stroke:#181818;stroke-width:0.5;"/><text fill="#000000" font-family="sans-serif" font-size="14" lengthAdjust="spacing" textLength="337" x="230.4675" y="2584.3314">"3.5.7 Define Minimum Business Continuity Objective"</text></g><g id="elem_UC358"><ellipse cx="398.8268" cy="2689.3747" fill="#F1F1F1" rx="159.3268" ry="34.2654" style="stroke:#181818;stroke-width:0.5;"/><text fill="#000000" font-family="sans-serif" font-size="14" lengthAdjust="spacing" textLength="288" x="254.8268" y="2693.1032">"3.5.8 Propose &amp; Implement Backup Strategy"</text></g><!--entity PM--><g id="elem_PM"><ellipse cx="81" cy="183.1094" fill="#F1F1F1" rx="8" ry="8" style="stroke:#181818;stroke-width:0.5;"/><path d="M81,191.1094 L81,218.1094 M68,199.1094 L94,199.1094 M81,218.1094 L68,233.1094 M81,218.1094 L94,233.1094 " fill="none" style="stroke:#181818;stroke-width:0.5;"/><text fill="#000000" font-family="sans-serif" font-size="14" lengthAdjust="spacing" textLength="104" x="29" y="249.1426">Project Manager</text></g><!--entity SU--><g id="elem_SU"><ellipse cx="81" cy="847.1094" fill="#F1F1F1" rx="8" ry="8" style="stroke:#181818;stroke-width:0.5;"/><path d="M81,855.1094 L81,882.1094 M68,863.1094 L94,863.1094 M81,882.1094 L68,897.1094 M81,882.1094 L94,897.1094 " fill="none" style="stroke:#181818;stroke-width:0.5;"/><text fill="#000000" font-family="sans-serif" font-size="14" lengthAdjust="spacing" textLength="79" x="41.5" y="913.1426">System User</text></g><!--entity SUR--><g id="elem_SUR"><ellipse cx="81" cy="1365.1094" fill="#F1F1F1" rx="8" ry="8" style="stroke:#181818;stroke-width:0.5;"/><path d="M81,1373.1094 L81,1400.1094 M68,1381.1094 L94,1381.1094 M81,1400.1094 L68,1415.1094 M81,1400.1094 L94,1415.1094 " fill="none" style="stroke:#181818;stroke-width:0.5;"/><text fill="#000000" font-family="sans-serif" font-size="14" lengthAdjust="spacing" textLength="122" x="20" y="1431.1426">System User (Role)</text></g><!--entity NAU--><g id="elem_NAU"><ellipse cx="81" cy="1478.1094" fill="#F1F1F1" rx="8" ry="8" style="stroke:#181818;stroke-width:0.5;"/><path d="M81,1486.1094 L81,1513.1094 M68,1494.1094 L94,1494.1094 M81,1513.1094 L68,1528.1094 M81,1513.1094 L94,1528.1094 " fill="none" style="stroke:#181818;stroke-width:0.5;"/><text fill="#000000" font-family="sans-serif" font-size="14" lengthAdjust="spacing" textLength="150" x="6" y="1544.1426">Non-Authenticated User</text></g><!--entity Admin--><g id="elem_Admin"><ellipse cx="81" cy="1591.1094" fill="#F1F1F1" rx="8" ry="8" style="stroke:#181818;stroke-width:0.5;"/><path d="M81,1599.1094 L81,1626.1094 M68,1607.1094 L94,1607.1094 M81,1626.1094 L68,1641.1094 M81,1626.1094 L94,1641.1094 " fill="none" style="stroke:#181818;stroke-width:0.5;"/><text fill="#000000" font-family="sans-serif" font-size="14" lengthAdjust="spacing" textLength="83" x="39.5" y="1657.1426">Administrator</text></g><!--entity LO--><g id="elem_LO"><ellipse cx="81" cy="1865.1094" fill="#F1F1F1" rx="8" ry="8" style="stroke:#181818;stroke-width:0.5;"/><path d="M81,1873.1094 L81,1900.1094 M68,1881.1094 L94,1881.1094 M81,1900.1094 L68,1915.1094 M81,1900.1094 L94,1915.1094 " fill="none" style="stroke:#181818;stroke-width:0.5;"/><text fill="#000000" font-family="sans-serif" font-size="14" lengthAdjust="spacing" textLength="116" x="23" y="1931.1426">Logistics Operator</text></g><!--entity POA--><g id="elem_POA"><ellipse cx="81" cy="2069.1094" fill="#F1F1F1" rx="8" ry="8" style="stroke:#181818;stroke-width:0.5;"/><path d="M81,2077.1094 L81,2104.1094 M68,2085.1094 L94,2085.1094 M81,2104.1094 L68,2119.1094 M81,2104.1094 L94,2119.1094 " fill="none" style="stroke:#181818;stroke-width:0.5;"/><text fill="#000000" font-family="sans-serif" font-size="14" lengthAdjust="spacing" textLength="132" x="15" y="2135.1426">Port Authority Officer</text></g><!--entity SysAdmin--><g id="elem_SysAdmin"><ellipse cx="81" cy="2500.1094" fill="#F1F1F1" rx="8" ry="8" style="stroke:#181818;stroke-width:0.5;"/><path d="M81,2508.1094 L81,2535.1094 M68,2516.1094 L94,2516.1094 M81,2535.1094 L68,2550.1094 M81,2535.1094 L94,2550.1094 " fill="none" style="stroke:#181818;stroke-width:0.5;"/><text fill="#000000" font-family="sans-serif" font-size="14" lengthAdjust="spacing" textLength="133" x="14.5" y="2566.1426">System Administrator</text></g><!--link PM to UC311--><g id="link_PM_UC311"><path d="M133.27,188.4594 C151.52,180.1294 172.41,171.2894 192,164.6094 C223.26,153.9494 252.0848,146.0159 283.9248,138.3959 " fill="none" id="PM-to-UC311" style="stroke:#181818;stroke-width:1.0;"/><polygon fill="#181818" points="289.76,136.9994,280.0762,135.204,284.8973,138.1631,281.9382,142.9843,289.76,136.9994" style="stroke:#181818;stroke-width:1.0;"/></g><!--link SU to UC312--><g id="link_SU_UC312"><path d="M120.57,895.4094 C141.39,904.4994 167.73,915.1794 192,922.6094 C229.64,934.1294 266.1993,942.4296 302.7393,949.4996 " fill="none" id="SU-to-UC312" style="stroke:#181818;stroke-width:1.0;"/><polygon fill="#181818" points="308.63,950.6394,300.5537,945.0025,303.721,949.6896,299.034,952.8569,308.63,950.6394" style="stroke:#181818;stroke-width:1.0;"/></g><!--link SUR to UC313--><g id="link_SUR_UC313"><path d="M142.18,1399.9894 C182.74,1402.9394 231.4958,1406.4944 279.9258,1410.0144 " fill="none" id="SUR-to-UC313" style="stroke:#181818;stroke-width:1.0;"/><polygon fill="#181818" points="285.91,1410.4494,277.2236,1405.8075,280.9232,1410.0869,276.6437,1413.7864,285.91,1410.4494" style="stroke:#181818;stroke-width:1.0;"/></g><!--link SU to UC314--><g id="link_SU_UC314"><path d="M104.93,916.7594 C124.35,946.3494 154.91,985.5194 192,1007.6094 C222.13,1025.5594 252.7369,1035.0151 286.5869,1041.1751 " fill="none" id="SU-to-UC314" style="stroke:#181818;stroke-width:1.0;"/><polygon fill="#181818" points="292.49,1042.2494,284.3516,1036.7027,287.5708,1041.3542,282.9193,1044.5734,292.49,1042.2494" style="stroke:#181818;stroke-width:1.0;"/></g><!--link SU to UC315--><g id="link_SU_UC315"><path d="M91.35,917.0094 C105.01,965.7694 135.22,1047.8094 192,1092.6094 C213.89,1109.8794 235.0786,1119.6947 262.2086,1127.2247 " fill="none" id="SU-to-UC315" style="stroke:#181818;stroke-width:1.0;"/><polygon fill="#181818" points="267.99,1128.8294,260.3876,1122.5681,263.1721,1127.4922,258.2481,1130.2767,267.99,1128.8294" style="stroke:#181818;stroke-width:1.0;"/></g><!--link NAU to UC321--><g id="link_NAU_UC321"><path d="M156.09,1508.6094 C189.11,1508.6094 223.01,1508.6094 260.81,1508.6094 " fill="none" id="NAU-to-UC321" style="stroke:#181818;stroke-width:1.0;"/><polygon fill="#181818" points="266.81,1508.6094,257.81,1504.6094,261.81,1508.6094,257.81,1512.6094,266.81,1508.6094" style="stroke:#181818;stroke-width:1.0;"/></g><!--link SU to UC322--><g id="link_SU_UC322"><path d="M84.03,916.6894 C89.68,983.3794 111.07,1118.9794 192,1191.6094 C212.77,1210.2494 233.5811,1220.4719 260.7011,1227.8619 " fill="none" id="SU-to-UC322" style="stroke:#181818;stroke-width:1.0;"/><polygon fill="#181818" points="266.49,1229.4394,258.8582,1223.2139,261.6659,1228.1248,256.755,1230.9325,266.49,1229.4394" style="stroke:#181818;stroke-width:1.0;"/></g><!--link SU to UC323--><g id="link_SU_UC323"><path d="M87.27,916.7694 C100.46,1009.0294 137.82,1236.1594 192,1287.6094 C216,1310.3994 242.8876,1321.4479 275.2276,1327.6579 " fill="none" id="SU-to-UC323" style="stroke:#181818;stroke-width:1.0;"/><polygon fill="#181818" points="281.12,1328.7894,273.0358,1323.1639,276.2097,1327.8465,271.5272,1331.0204,281.12,1328.7894" style="stroke:#181818;stroke-width:1.0;"/></g><!--link SU to UC324--><g id="link_SU_UC324"><path d="M86.74,838.3194 C99.07,742.7294 135.2,501.9294 192,447.6094 C216.56,424.1294 244.5519,413.0754 277.7619,407.1954 " fill="none" id="SU-to-UC324" style="stroke:#181818;stroke-width:1.0;"/><polygon fill="#181818" points="283.67,406.1494,274.1105,403.7797,278.7466,407.0211,275.5052,411.6572,283.67,406.1494" style="stroke:#181818;stroke-width:1.0;"/></g><!--link Admin to UC325--><g id="link_Admin_UC325"><path d="M122.66,1618.7794 C162.84,1615.9794 220.2144,1611.9855 276.0244,1608.1055 " fill="none" id="Admin-to-UC325" style="stroke:#181818;stroke-width:1.0;"/><polygon fill="#181818" points="282.01,1607.6894,272.7543,1604.3232,277.022,1608.0361,273.3091,1612.3039,282.01,1607.6894" style="stroke:#181818;stroke-width:1.0;"/></g><!--link SU to UC326--><g id="link_SU_UC326"><path d="M83.78,838.4494 C89.05,770.4894 109.86,630.6994 192,554.6094 C209.27,538.6094 225.0552,529.2951 247.5252,521.3251 " fill="none" id="SU-to-UC326" style="stroke:#181818;stroke-width:1.0;"/><polygon fill="#181818" points="253.18,519.3194,243.3606,518.5581,248.4676,520.9908,246.0349,526.0979,253.18,519.3194" style="stroke:#181818;stroke-width:1.0;"/></g><!--link PM to UC331--><g id="link_PM_UC331"><path d="M133.12,213.6094 C166.31,213.6094 205.34,213.6094 248.86,213.6094 " fill="none" id="PM-to-UC331" style="stroke:#181818;stroke-width:1.0;"/><polygon fill="#181818" points="254.86,213.6094,245.86,209.6094,249.86,213.6094,245.86,217.6094,254.86,213.6094" style="stroke:#181818;stroke-width:1.0;"/></g><!--link SU to UC332--><g id="link_SU_UC332"><path d="M102.25,838.4194 C121.09,805.9994 152.21,761.3894 192,736.6094 C221.07,718.4994 250.5813,708.9874 283.7813,702.8074 " fill="none" id="SU-to-UC332" style="stroke:#181818;stroke-width:1.0;"/><polygon fill="#181818" points="289.68,701.7094,280.1,699.4239,284.7644,702.6244,281.564,707.2888,289.68,701.7094" style="stroke:#181818;stroke-width:1.0;"/></g><!--link LO to UC333--><g id="link_LO_UC333"><path d="M99.71,1934.9094 C117.82,1970.5594 149.33,2021.8194 192,2050.6094 C215.85,2066.6994 238.5523,2076.0227 266.6523,2083.3127 " fill="none" id="LO-to-UC333" style="stroke:#181818;stroke-width:1.0;"/><polygon fill="#181818" points="272.46,2084.8194,264.7529,2078.6875,267.6202,2083.5638,262.7439,2086.4311,272.46,2084.8194" style="stroke:#181818;stroke-width:1.0;"/></g><!--link POA to UC333--><g id="link_POA_UC333"><path d="M147.09,2099.6094 C178.53,2099.6094 211.58,2099.6094 249.43,2099.6094 " fill="none" id="POA-to-UC333" style="stroke:#181818;stroke-width:1.0;"/><polygon fill="#181818" points="255.43,2099.6094,246.43,2095.6094,250.43,2099.6094,246.43,2103.6094,255.43,2099.6094" style="stroke:#181818;stroke-width:1.0;"/></g><!--link SU to UC334--><g id="link_SU_UC334"><path d="M120.64,860.0294 C141.48,851.0094 167.82,840.3194 192,832.6094 C224.98,822.0994 255.7394,814.1499 288.8494,806.6199 " fill="none" id="SU-to-UC334" style="stroke:#181818;stroke-width:1.0;"/><polygon fill="#181818" points="294.7,805.2894,285.037,803.3848,289.8245,806.3982,286.8111,811.1856,294.7,805.2894" style="stroke:#181818;stroke-width:1.0;"/></g><!--link SU to UC335--><g id="link_SU_UC335"><path d="M120.75,877.6094 C158.98,877.6094 213.49,877.6094 268.24,877.6094 " fill="none" id="SU-to-UC335" style="stroke:#181818;stroke-width:1.0;"/><polygon fill="#181818" points="274.24,877.6094,265.24,873.6094,269.24,877.6094,265.24,881.6094,274.24,877.6094" style="stroke:#181818;stroke-width:1.0;"/></g><!--link SU to UC336--><g id="link_SU_UC336"><path d="M90.09,838.1794 C102.71,786.9594 132.13,698.4594 192,650.6094 C214.66,632.4994 237.1478,622.4789 265.4378,615.2289 " fill="none" id="SU-to-UC336" style="stroke:#181818;stroke-width:1.0;"/><polygon fill="#181818" points="271.25,613.7394,261.5387,612.0989,266.4065,614.9806,263.5247,619.8484,271.25,613.7394" style="stroke:#181818;stroke-width:1.0;"/></g><!--link PM to UC341--><g id="link_PM_UC341"><path d="M133.04,238.0794 C151.36,246.2694 172.35,254.9894 192,261.6094 C224,272.3794 253.6833,280.4691 286.0933,288.1891 " fill="none" id="PM-to-UC341" style="stroke:#181818;stroke-width:1.0;"/><polygon fill="#181818" points="291.93,289.5794,284.1018,283.6028,287.0661,288.4208,282.2481,291.3851,291.93,289.5794" style="stroke:#181818;stroke-width:1.0;"/></g><!--link LO to UC342--><g id="link_LO_UC342"><path d="M139.23,1895.6094 C172.48,1895.6094 209.97,1895.6094 251.77,1895.6094 " fill="none" id="LO-to-UC342" style="stroke:#181818;stroke-width:1.0;"/><polygon fill="#181818" points="257.77,1895.6094,248.77,1891.6094,252.77,1895.6094,248.77,1899.6094,257.77,1895.6094" style="stroke:#181818;stroke-width:1.0;"/></g><!--link LO to UC343--><g id="link_LO_UC343"><path d="M139.28,1922.5994 C156.06,1929.9594 174.58,1937.5694 192,1943.6094 C221.69,1953.9094 248.5765,1961.7965 278.9865,1969.7765 " fill="none" id="LO-to-UC343" style="stroke:#181818;stroke-width:1.0;"/><polygon fill="#181818" points="284.79,1971.2994,277.1,1965.146,279.9537,1970.0303,275.0695,1972.884,284.79,1971.2994" style="stroke:#181818;stroke-width:1.0;"/></g><!--link LO to UC344--><g id="link_LO_UC344"><path d="M102.19,1856.4194 C121.09,1823.6094 152.33,1778.0194 192,1751.6094 C213.62,1737.2194 233.1529,1728.4059 258.4329,1720.6659 " fill="none" id="LO-to-UC344" style="stroke:#181818;stroke-width:1.0;"/><polygon fill="#181818" points="264.17,1718.9094,254.3933,1717.7194,259.3891,1720.3732,256.7353,1725.3689,264.17,1718.9094" style="stroke:#181818;stroke-width:1.0;"/></g><!--link LO to UC345--><g id="link_LO_UC345"><path d="M139.17,1868.3094 C155.95,1860.9394 174.5,1853.4094 192,1847.6094 C224.76,1836.7494 255.3884,1828.7155 288.4384,1821.2255 " fill="none" id="LO-to-UC345" style="stroke:#181818;stroke-width:1.0;"/><polygon fill="#181818" points="294.29,1819.8994,284.6285,1817.9875,289.4137,1821.0045,286.3967,1825.7896,294.29,1819.8994" style="stroke:#181818;stroke-width:1.0;"/></g><!--link SysAdmin to UC351--><g id="link_SysAdmin_UC351"><path d="M91.62,2569.7894 C105.49,2617.7894 135.85,2698.0694 192,2741.6094 C214.49,2759.0494 236.4346,2768.8137 264.2046,2776.0637 " fill="none" id="SysAdmin-to-UC351" style="stroke:#181818;stroke-width:1.0;"/><polygon fill="#181818" points="270.01,2777.5794,262.3123,2771.4356,265.1722,2776.3163,260.2915,2779.1762,270.01,2777.5794" style="stroke:#181818;stroke-width:1.0;"/></g><!--link SysAdmin to UC352--><g id="link_SysAdmin_UC352"><path d="M84.35,2569.6594 C90.49,2635.2294 112.58,2767.1694 192,2837.6094 C213.54,2856.7194 235.4374,2867.0415 263.4874,2874.2215 " fill="none" id="SysAdmin-to-UC352" style="stroke:#181818;stroke-width:1.0;"/><polygon fill="#181818" points="269.3,2875.7094,261.573,2869.6025,264.4562,2874.4695,259.5892,2877.3527,269.3,2875.7094" style="stroke:#181818;stroke-width:1.0;"/></g><!--link SysAdmin to UC353--><g id="link_SysAdmin_UC353"><path d="M85.59,2491.4794 C93.44,2429.4894 117.87,2309.1394 192,2244.6094 C213.26,2226.0994 234.4941,2215.9309 261.9141,2208.5909 " fill="none" id="SysAdmin-to-UC353" style="stroke:#181818;stroke-width:1.0;"/><polygon fill="#181818" points="267.71,2207.0394,257.9818,2205.5027,262.8801,2208.3323,260.0504,2213.2306,267.71,2207.0394" style="stroke:#181818;stroke-width:1.0;"/></g><!--link SysAdmin to UC354--><g id="link_SysAdmin_UC354"><path d="M94.67,2491.5494 C110.56,2448.8794 141.95,2381.6694 192,2344.6094 C213.59,2328.6194 233.8503,2319.3357 260.0303,2311.8657 " fill="none" id="SysAdmin-to-UC354" style="stroke:#181818;stroke-width:1.0;"/><polygon fill="#181818" points="265.8,2310.2194,256.0479,2308.8423,260.9919,2311.5913,258.2429,2316.5353,265.8,2310.2194" style="stroke:#181818;stroke-width:1.0;"/></g><!--link SysAdmin to UC355--><g id="link_SysAdmin_UC355"><path d="M118.33,2491.5694 C138.32,2472.2994 164.59,2450.3094 192,2436.6094 C221.17,2422.0294 249.0956,2413.2978 280.7656,2406.4478 " fill="none" id="SysAdmin-to-UC355" style="stroke:#181818;stroke-width:1.0;"/><polygon fill="#181818" points="286.63,2405.1794,276.9878,2403.1724,281.743,2406.2364,278.679,2410.9916,286.63,2405.1794" style="stroke:#181818;stroke-width:1.0;"/></g><!--link SysAdmin to UC356--><g id="link_SysAdmin_UC356"><path d="M147.86,2520.1894 C192.72,2513.0894 246.8836,2504.5162 296.9236,2496.6062 " fill="none" id="SysAdmin-to-UC356" style="stroke:#181818;stroke-width:1.0;"/><polygon fill="#181818" points="302.85,2495.6694,293.3358,2493.1236,297.9113,2496.45,294.5849,2501.0255,302.85,2495.6694" style="stroke:#181818;stroke-width:1.0;"/></g><!--link SysAdmin to UC357--><g id="link_SysAdmin_UC357"><path d="M147.86,2541.0294 C178.07,2545.8094 209.2539,2550.7407 245.5539,2556.4907 " fill="none" id="SysAdmin-to-UC357" style="stroke:#181818;stroke-width:1.0;"/><polygon fill="#181818" points="251.48,2557.4294,243.2166,2552.0706,246.5416,2556.6471,241.965,2559.9721,251.48,2557.4294" style="stroke:#181818;stroke-width:1.0;"/></g><!--link SysAdmin to UC358--><g id="link_SysAdmin_UC358"><path d="M113.37,2569.6294 C133.57,2592.3094 161.67,2619.6694 192,2636.6094 C216.74,2650.4294 239.3864,2659.1325 267.0564,2666.7725 " fill="none" id="SysAdmin-to-UC358" style="stroke:#181818;stroke-width:1.0;"/><polygon fill="#181818" points="272.84,2668.3694,265.2292,2662.1183,268.0203,2667.0386,263.1,2669.8297,272.84,2668.3694" style="stroke:#181818;stroke-width:1.0;"/></g><!--SRC=[RLLHZzeu47xFhnZnKBKFj29Es7qwAOMbGeA58qVVJMA2huaTESvkQNN__SQ1nBER8YtisFDz7dypdh7IbWAEZO05nw-bv8NX5GIbE5km6emiBXPoQKHcfLP1m3Eh3KpsHl-BIx3bYXV2J80tiD_sk-criQ9ojBUTzFY77VXuqANuT7Suz1xFMasJrbw4iZBZLkIUvZaPU9Ayaaesrd0qkyrkfT_Uw08tPTR0hXRUPxCRujV6WZj66scli3kVPTPVOvUyYtPy66xSpWkSC5mLAEBTUmA_0y3FnmdxFFiyWrJOjePqdy2hj1VOwbmO1IjKMRngysFooV4T5sms8x0GKE0NcMDgb3nB5673hxgrtZiatWpIYtu59-VqX6dCOIjKstXdHfoZctFIvHDMGkGddf4m8k8R3s4GxZqclFcoqgOY9yJ100lnqZI1y28vh9DjpsK6L3WZe10sckUmLXRruMMVd5-yYzETxt4XmJ6iGQai_g7KMMi4_ZGDOhmx8-uH70HcKcBj9bc6dd2wlcEFY7iC2P8LwiknpjrTki9rxlxkOKpyvx3GLLqAT5r9qmo7E0sSv2-twsoayfA7SoyUgjv9WAyGATWIlikcvMKl0rPFIq9bCm8CRub5J5VSgJLjPb4FxnqIxtlDVCVWHDd01oUBRWq62wWaMteK8oYddi8KkbDS9IEog-f_n4ztb1U5HGJbomXXQIQKG06mhqXLU41C04v5POqk7M21ByNm_lMq3RaG4Iv2uVObLmf9yJPfTX4ebJEI_VgzRj6Cu4BuXX5rUY-vBAztJNeAWWe9Ya62LNhz9TuSLHQkdrogUnNynDxYuOp08_Jj2XrBGi2JQpyI7ymVoJn3H1XYIDkwTfdUjgMLquNXYWRZKUHjnhUtgQkkiIv5NUfhvSxToreWobysdX5GE7eqE1gMJsju5lPD4uj3Wc8kYsTPj8QVi3ycPQbVyTGdbTSQNwmlbfWHL0JxzbJA35QwT9LsnaQSNhX1v52Y7XaHP8nfLj8rxeEeDAOplOYo13SB587413A7TUxwrFcADVDtos__7cJpWm3c1F20efrH9zZYHAZQ2hws3PgeYAjOgTfkcfpSRCJ4Ueu7ml7edaEjSTn-WBKhaou3Nx4Bkq7XfemeVDd4Zy5_GR3VmdJwrtrEfCV12D4u31QZMn4ri0PmUlPcI3d2a1gK0ZjXD-K6EwQRSneLeupOQ3QxmM01JbHY4JyQ8gFax0qvFbVF5r5oV5F4YAY1D-wdTB-6DJrQ2iTBRBmKZPVYyT9ylFGmNdeC_WS0]--></g></svg>