<?xml version="1.0" encoding="us-ascii" standalone="no"?><svg xmlns="http://www.w3.org/2000/svg" xmlns:xlink="http://www.w3.org/1999/xlink" contentStyleType="text/css" height="776px" preserveAspectRatio="none" style="width:740px;height:776px;background:#FFFFFF;" version="1.1" viewBox="0 0 740 776" width="740px" zoomAndPan="magnify"><defs/><g><text fill="#000000" font-family="sans-serif" font-size="14" font-weight="bold" lengthAdjust="spacing" textLength="151" x="287.75" y="24.5332">Level 2 - Logical View</text><!--cluster pms--><g id="cluster_pms"><rect fill="none" height="470" style="stroke:#444444;stroke-width:1.0;stroke-dasharray:7.0,7.0;" width="323" x="123.5" y="300.6094"/><text fill="#444444" font-family="sans-serif" font-size="16" font-weight="bold" lengthAdjust="spacing" textLength="195" x="187.5" y="339.2188">Port Management System</text><text fill="#444444" font-family="sans-serif" font-size="12" font-weight="bold" lengthAdjust="spacing" textLength="50" x="260" y="355.1914">[system]</text></g><!--entity backend_interface--><g id="elem_backend_interface"><ellipse cx="237.5" cy="593.6094" fill="#F1F1F1" rx="8" ry="8" style="stroke:#181818;stroke-width:0.5;"/><text fill="#000000" font-family="sans-serif" font-size="14" lengthAdjust="spacing" textLength="76" x="199.5" y="625.1426">BackendAPI</text></g><!--entity planning_interface--><g id="elem_planning_interface"><ellipse cx="364.5" cy="593.6094" fill="#F1F1F1" rx="8" ry="8" style="stroke:#181818;stroke-width:0.5;"/><text fill="#000000" font-family="sans-serif" font-size="14" lengthAdjust="spacing" textLength="76" x="326.5" y="625.1426">PlanningAPI</text></g><!--entity gui--><g id="elem_gui"><rect fill="#438DD5" height="55.2188" style="stroke:#3C7FC0;stroke-width:0.5;" width="132" x="298.5" y="440.1094"/><text fill="#FFFFFF" font-family="sans-serif" font-size="12" font-style="italic" lengthAdjust="spacing" textLength="65" x="332" y="462.5664">&#171;container&#187;</text><text fill="#FFFFFF" font-family="sans-serif" font-size="16" font-weight="bold" lengthAdjust="spacing" textLength="70" x="308.5" y="481.8125">Frontend</text><text fill="#FFFFFF" font-family="sans-serif" font-size="16" font-weight="bold" lengthAdjust="spacing" textLength="4" x="378.5" y="481.8125">&#160;</text><text fill="#FFFFFF" font-family="sans-serif" font-size="16" font-weight="bold" lengthAdjust="spacing" textLength="38" x="382.5" y="481.8125">(GUI)</text></g><!--entity api--><g id="elem_api"><rect fill="#438DD5" height="70.3125" style="stroke:#3C7FC0;stroke-width:0.5;" width="123" x="140" y="432.6094"/><text fill="#FFFFFF" font-family="sans-serif" font-size="12" font-style="italic" lengthAdjust="spacing" textLength="65" x="169" y="455.0664">&#171;container&#187;</text><text fill="#FFFFFF" font-family="sans-serif" font-size="16" font-weight="bold" lengthAdjust="spacing" textLength="68" x="150" y="474.3125">Backend</text><text fill="#FFFFFF" font-family="sans-serif" font-size="16" font-weight="bold" lengthAdjust="spacing" textLength="4" x="218" y="474.3125">&#160;</text><text fill="#FFFFFF" font-family="sans-serif" font-size="16" font-weight="bold" lengthAdjust="spacing" textLength="31" x="222" y="474.3125">App</text><text fill="#FFFFFF" font-family="sans-serif" font-size="12" font-style="italic" lengthAdjust="spacing" textLength="33" x="185" y="490.2852">[.NET]</text></g><!--entity planning--><g id="elem_planning"><rect fill="#438DD5" height="70.3125" style="stroke:#3C7FC0;stroke-width:0.5;" width="149" x="226" y="684.6094"/><text fill="#FFFFFF" font-family="sans-serif" font-size="12" font-style="italic" lengthAdjust="spacing" textLength="65" x="268" y="707.0664">&#171;container&#187;</text><text fill="#FFFFFF" font-family="sans-serif" font-size="16" font-weight="bold" lengthAdjust="spacing" textLength="68" x="236" y="726.3125">Planning</text><text fill="#FFFFFF" font-family="sans-serif" font-size="16" font-weight="bold" lengthAdjust="spacing" textLength="4" x="304" y="726.3125">&#160;</text><text fill="#FFFFFF" font-family="sans-serif" font-size="16" font-weight="bold" lengthAdjust="spacing" textLength="57" x="308" y="726.3125">Service</text><text fill="#FFFFFF" font-family="sans-serif" font-size="12" font-style="italic" lengthAdjust="spacing" textLength="47" x="277" y="742.2852">[Service]</text></g><!--entity admin--><g id="elem_admin"><ellipse cx="55.5" cy="52.6094" fill="#F1F1F1" rx="8" ry="8" style="stroke:#181818;stroke-width:0.5;"/><text fill="#000000" font-family="sans-serif" font-size="14" lengthAdjust="spacing" textLength="83" x="6" y="84.1426">Administrator</text><text fill="#000000" font-family="sans-serif" font-size="14" lengthAdjust="spacing" textLength="4" x="89" y="84.1426">&#160;</text><text fill="#000000" font-family="sans-serif" font-size="14" lengthAdjust="spacing" textLength="12" x="93" y="84.1426">UI</text></g><!--entity agent--><g id="elem_agent"><ellipse cx="253.5" cy="52.6094" fill="#F1F1F1" rx="8" ry="8" style="stroke:#181818;stroke-width:0.5;"/><text fill="#000000" font-family="sans-serif" font-size="14" lengthAdjust="spacing" textLength="55" x="155.5" y="84.1426">Shipping</text><text fill="#000000" font-family="sans-serif" font-size="14" lengthAdjust="spacing" textLength="4" x="210.5" y="84.1426">&#160;</text><text fill="#000000" font-family="sans-serif" font-size="14" lengthAdjust="spacing" textLength="37" x="214.5" y="84.1426">Agent</text><text fill="#000000" font-family="sans-serif" font-size="14" lengthAdjust="spacing" textLength="4" x="251.5" y="84.1426">&#160;</text><text fill="#000000" font-family="sans-serif" font-size="14" lengthAdjust="spacing" textLength="96" x="255.5" y="84.1426">Representative</text><text fill="#000000" font-family="sans-serif" font-size="14" lengthAdjust="spacing" textLength="12" x="247.5" y="101.752">UI</text></g><!--entity officer--><g id="elem_officer"><ellipse cx="476.5" cy="52.6094" fill="#F1F1F1" rx="8" ry="8" style="stroke:#181818;stroke-width:0.5;"/><text fill="#000000" font-family="sans-serif" font-size="14" lengthAdjust="spacing" textLength="26" x="402.5" y="84.1426">Port</text><text fill="#000000" font-family="sans-serif" font-size="14" lengthAdjust="spacing" textLength="4" x="428.5" y="84.1426">&#160;</text><text fill="#000000" font-family="sans-serif" font-size="14" lengthAdjust="spacing" textLength="56" x="432.5" y="84.1426">Authority</text><text fill="#000000" font-family="sans-serif" font-size="14" lengthAdjust="spacing" textLength="4" x="488.5" y="84.1426">&#160;</text><text fill="#000000" font-family="sans-serif" font-size="14" lengthAdjust="spacing" textLength="42" x="492.5" y="84.1426">Officer</text><text fill="#000000" font-family="sans-serif" font-size="14" lengthAdjust="spacing" textLength="4" x="534.5" y="84.1426">&#160;</text><text fill="#000000" font-family="sans-serif" font-size="14" lengthAdjust="spacing" textLength="12" x="538.5" y="84.1426">UI</text></g><!--entity operator--><g id="elem_operator"><ellipse cx="667.5" cy="52.6094" fill="#F1F1F1" rx="8" ry="8" style="stroke:#181818;stroke-width:0.5;"/><text fill="#000000" font-family="sans-serif" font-size="14" lengthAdjust="spacing" textLength="55" x="601.5" y="84.1426">Logistics</text><text fill="#000000" font-family="sans-serif" font-size="14" lengthAdjust="spacing" textLength="4" x="656.5" y="84.1426">&#160;</text><text fill="#000000" font-family="sans-serif" font-size="14" lengthAdjust="spacing" textLength="57" x="660.5" y="84.1426">Operator</text><text fill="#000000" font-family="sans-serif" font-size="14" lengthAdjust="spacing" textLength="4" x="717.5" y="84.1426">&#160;</text><text fill="#000000" font-family="sans-serif" font-size="14" lengthAdjust="spacing" textLength="12" x="721.5" y="84.1426">UI</text></g><!--entity webui_interface--><g id="elem_webui_interface"><ellipse cx="364.5" cy="207.6094" fill="#F1F1F1" rx="8" ry="8" style="stroke:#181818;stroke-width:0.5;"/><text fill="#000000" font-family="sans-serif" font-size="14" lengthAdjust="spacing" textLength="12" x="358.5" y="239.1426">UI</text></g><!--entity restapi_interface--><g id="elem_restapi_interface"><ellipse cx="201.5" cy="207.6094" fill="#F1F1F1" rx="8" ry="8" style="stroke:#181818;stroke-width:0.5;"/><text fill="#000000" font-family="sans-serif" font-size="14" lengthAdjust="spacing" textLength="29" x="174.5" y="239.1426">Rest</text><text fill="#000000" font-family="sans-serif" font-size="14" lengthAdjust="spacing" textLength="4" x="203.5" y="239.1426">&#160;</text><text fill="#000000" font-family="sans-serif" font-size="14" lengthAdjust="spacing" textLength="21" x="207.5" y="239.1426">API</text></g><!--entity iam_interface--><g id="elem_iam_interface"><ellipse cx="626.5" cy="467.6094" fill="#F1F1F1" rx="8" ry="8" style="stroke:#181818;stroke-width:0.5;"/><text fill="#000000" font-family="sans-serif" font-size="14" lengthAdjust="spacing" textLength="23" x="615" y="499.1426">IAM</text></g><!--link webui_interface to gui--><g id="link_webui_interface_gui"><path d="M364.5,216.6094 C364.5,250.4694 364.5,382.7494 364.5,439.9794 " fill="none" id="webui_interface-gui" style="stroke:#666666;stroke-width:1.0;"/></g><!--link gui to backend_interface--><g id="link_gui_backend_interface"><path d="M337.26,495.2094 C308.25,523.5294 271.2149,559.6931 252.9749,577.5031 " fill="none" id="gui-to-backend_interface" style="stroke:#666666;stroke-width:1.0;"/><path d="M253.9308,588.39 A9,9 0 0 0 242.114 576.2878" fill="none" style="stroke:#666666;stroke-width:1.5;"/></g><!--link api to backend_interface--><g id="link_api_backend_interface"><path d="M211.43,502.8194 C219.55,530.7794 227.6438,558.6354 232.3638,574.9054 " fill="none" id="api-to-backend_interface" style="stroke:#666666;stroke-width:1.0;"/><path d="M242.4147,579.1968 A9,9 0 0 0 226.17 583.9094" fill="none" style="stroke:#666666;stroke-width:1.5;"/></g><!--link gui to planning_interface--><g id="link_gui_planning_interface"><path d="M364.5,495.2094 C364.5,523.5294 364.5,556.6794 364.5,574.4894 " fill="none" id="gui-to-planning_interface" style="stroke:#666666;stroke-width:1.0;"/><path d="M372.9572,581.4112 A9,9 0 0 0 356.0428 581.4112" fill="none" style="stroke:#666666;stroke-width:1.5;"/></g><!--reverse link backend_interface to planning--><g id="link_backend_interface_planning"><path d="M246.1612,611.6639 C254.4312,627.9339 268.9,656.3994 283.09,684.3394 " fill="none" id="backend_interface-backto-planning" style="stroke:#666666;stroke-width:1.0;"/><path d="M235.4856,609.3256 A9,9 0 0 0 250.564 601.6613" fill="none" style="stroke:#666666;stroke-width:1.5;"/></g><!--reverse link iam_interface to gui--><g id="link_iam_interface_gui"><path d="M607.24,467.6094 C577.92,467.6094 495.19,467.6094 430.61,467.6094 " fill="none" id="iam_interface-backto-gui" style="stroke:#666666;stroke-width:1.0;"/><path d="M614.1618,459.1521 A9,9 0 0 0 614.1618 476.0666" fill="none" style="stroke:#666666;stroke-width:1.5;"/><text fill="#666666" font-family="sans-serif" font-size="12" lengthAdjust="spacing" textLength="150" x="449" y="461.0664">Authentication/Authorization</text></g><!--reverse link iam_interface to api--><g id="link_iam_interface_api"><path d="M612.846,450.603 C590.526,423.263 526.35,350.7694 446.5,322.6094 C376.92,298.0694 343.93,284.9294 280.5,322.6094 C240.69,346.2494 219.67,397.7694 209.57,432.5894 " fill="none" id="iam_interface-backto-api" style="stroke:#666666;stroke-width:1.0;"/><path d="M623.7746,450.6165 A9,9 0 0 0 610.672 461.3133" fill="none" style="stroke:#666666;stroke-width:1.5;"/><text fill="#666666" font-family="sans-serif" font-size="12" lengthAdjust="spacing" textLength="150" x="427.5" y="281.0664">Authentication/Authorization</text></g><!--link agent to webui_interface--><g id="link_agent_webui_interface"><path d="M259.47,61.8394 C278.74,88.3994 333.3182,163.6248 352.6282,190.2448 " fill="none" id="agent-to-webui_interface" style="stroke:#666666;stroke-width:1.0;"/><path d="M363.5383,190.8818 A9,9 0 0 0 349.8468 200.8136" fill="none" style="stroke:#666666;stroke-width:1.5;"/><text fill="#666666" font-family="sans-serif" font-size="12" lengthAdjust="spacing" textLength="30" x="320.5" y="144.0664">Uses</text></g><!--link officer to webui_interface--><g id="link_officer_webui_interface"><path d="M470.48,61.8394 C451.03,88.3994 395.9475,163.6508 376.4575,190.2708 " fill="none" id="officer-to-webui_interface" style="stroke:#666666;stroke-width:1.0;"/><path d="M379.1922,200.8518 A9,9 0 0 0 365.5446 190.8596" fill="none" style="stroke:#666666;stroke-width:1.5;"/><text fill="#666666" font-family="sans-serif" font-size="12" lengthAdjust="spacing" textLength="30" x="418.5" y="144.0664">Uses</text></g><!--link operator to webui_interface--><g id="link_operator_webui_interface"><path d="M658.48,58.3194 C642.16,66.8294 606.62,85.2994 576.5,100.6094 C498.36,140.3194 412.4541,182.8972 382.7841,197.5672 " fill="none" id="operator-to-webui_interface" style="stroke:#666666;stroke-width:1.0;"/><path d="M380.3277,208.2162 A9,9 0 0 0 372.8309 193.0539" fill="none" style="stroke:#666666;stroke-width:1.5;"/><text fill="#666666" font-family="sans-serif" font-size="12" lengthAdjust="spacing" textLength="30" x="513.5" y="144.0664">Uses</text></g><!--link admin to webui_interface--><g id="link_admin_webui_interface"><path d="M64.82,60.1394 C78.6,69.6494 105.39,87.5994 129.5,100.6094 C214.58,146.5194 314.0884,186.7477 346.0084,199.3477 " fill="none" id="admin-to-webui_interface" style="stroke:#666666;stroke-width:1.0;"/><path d="M355.552,194.0226 A9,9 0 0 0 349.3416 209.7557" fill="none" style="stroke:#666666;stroke-width:1.5;"/><text fill="#666666" font-family="sans-serif" font-size="12" lengthAdjust="spacing" textLength="30" x="226.5" y="144.0664">Uses</text></g><!--link planning_interface to planning--><g id="link_planning_interface_planning"><path d="M360.3,602.7494 C351.9,619.0194 332.61,656.3994 318.19,684.3394 " fill="none" id="planning_interface-planning" style="stroke:#666666;stroke-width:1.0;"/></g><!--reverse link restapi_interface to api--><g id="link_restapi_interface_api"><path d="M201.5,226.6094 C201.5,259.0194 201.5,371.6294 201.5,432.2494 " fill="none" id="restapi_interface-backto-api" style="stroke:#666666;stroke-width:1.0;"/><path d="M193.0428,219.6876 A9,9 0 0 0 209.9572 219.6876" fill="none" style="stroke:#666666;stroke-width:1.5;"/></g><!--SRC=[XLHDZzem4BtxLqnpAKY4I5LFtBBR3o71WfQbLK_892QCcjYMxK1frL_JGt_8_h6Eym5POEdD7h_dUVDcx3SeaxnC1MoTqtOKHORlXncwRRakhJ29aav8DqnK4UcSIrSMUMXTckCwkdyVpdreEPr41RTE60gjxed1KGepr8Hba_ZRRFcqUfhDLnzcNnzwVSOSkbp0HEn43kyWX8dACE4vV46nPmmfeTdmH01F2vG0t48G-oLQPxXJ1fRZe0lBI23KkCKMjKQPGLm57uKsmjAAEzo9CvxQR30HfkBDbN4Gbswh3Be3p9gZCu8MTNxFyAAjmyJ2h0rxD7iBuoD1_A2Lv9qh0i9u-bwiIrmTurt4ex0aPLxZIBtZ-XNaE9vM8EH51y0M1sf5iRfJfKovEVHqOGTDXLCkoQt2MrEZWZxyOWoWevhkavLiI_5EjZkUV1SoRPMjwsqdyGkq7mn9ZMZXkjbtXG8SPwMNbKWYFvbgt5BeVLwE-q7_1OHy61nbGAnrGDlXmyUdCroRQd1I0GjXTjHHpsYNdbHLFi6CF_zz_gCWvVPKWmMkB2JjjTuD4WbXgSEBzZL7gThBi7VLceiOzAkRg2WwlNIdEQPhNo5NkOv4Rtvt2WZWkQDgfgdTzBuSAXar8_wpsbqZaPx_a7upLh-uCALQpvo04IojiAnzMpSnxRkv1Qh_W5i8TiKymf-ikNX3thtQ-Ny0]--></g></svg>