<?xml version="1.0" encoding="us-ascii" standalone="no"?><svg xmlns="http://www.w3.org/2000/svg" xmlns:xlink="http://www.w3.org/1999/xlink" contentStyleType="text/css" height="1218px" preserveAspectRatio="none" style="width:2593px;height:1218px;background:#FFFFFF;" version="1.1" viewBox="0 0 2593 1218" width="2593px" zoomAndPan="magnify"><defs/><g><text fill="#000000" font-family="sans-serif" font-size="14" font-weight="bold" lengthAdjust="spacing" textLength="100" x="1239.5" y="24.5332">Domain Model</text><!--cluster Vessel Aggregate--><g id="cluster_Vessel Aggregate"><path d="M8.5,557.6094 L133.5,557.6094 A3.75,3.75 0 0 1 136,560.1094 L143,581.2188 L385.5,581.2188 A2.5,2.5 0 0 1 388,583.7188 L388,1209.1094 A2.5,2.5 0 0 1 385.5,1211.6094 L8.5,1211.6094 A2.5,2.5 0 0 1 6,1209.1094 L6,560.1094 A2.5,2.5 0 0 1 8.5,557.6094 " fill="none" style="stroke:#000000;stroke-width:1.5;"/><line style="stroke:#000000;stroke-width:1.5;" x1="6" x2="143" y1="581.2188" y2="581.2188"/><text fill="#000000" font-family="sans-serif" font-size="14" font-weight="bold" lengthAdjust="spacing" textLength="124" x="10" y="574.1426">Vessel Aggregate</text></g><!--cluster VesselType Aggregate--><g id="cluster_VesselType Aggregate"><path d="M414.5,786.6094 L572.5,786.6094 A3.75,3.75 0 0 1 575,789.1094 L582,810.2188 L633.5,810.2188 A2.5,2.5 0 0 1 636,812.7188 L636,1000.1094 A2.5,2.5 0 0 1 633.5,1002.6094 L414.5,1002.6094 A2.5,2.5 0 0 1 412,1000.1094 L412,789.1094 A2.5,2.5 0 0 1 414.5,786.6094 " fill="none" style="stroke:#000000;stroke-width:1.5;"/><line style="stroke:#000000;stroke-width:1.5;" x1="412" x2="582" y1="810.2188" y2="810.2188"/><text fill="#000000" font-family="sans-serif" font-size="14" font-weight="bold" lengthAdjust="spacing" textLength="157" x="416" y="803.1426">VesselType Aggregate</text></g><!--cluster VesselVisitNotification Aggregate--><g id="cluster_VesselVisitNotification Aggregate"><path d="M662.5,282.6094 L897.5,282.6094 A3.75,3.75 0 0 1 900,285.1094 L907,306.2188 L1256.5,306.2188 A2.5,2.5 0 0 1 1259,308.7188 L1259,965.1094 A2.5,2.5 0 0 1 1256.5,967.6094 L662.5,967.6094 A2.5,2.5 0 0 1 660,965.1094 L660,285.1094 A2.5,2.5 0 0 1 662.5,282.6094 " fill="none" style="stroke:#000000;stroke-width:1.5;"/><line style="stroke:#000000;stroke-width:1.5;" x1="660" x2="907" y1="306.2188" y2="306.2188"/><text fill="#000000" font-family="sans-serif" font-size="14" font-weight="bold" lengthAdjust="spacing" textLength="234" x="664" y="299.1426">VesselVisitNotification Aggregate</text></g><!--cluster ShippingAgentOrganization Aggregate--><g id="cluster_ShippingAgentOrganization Aggregate"><path d="M1285.5,44.6094 L1555.5,44.6094 A3.75,3.75 0 0 1 1558,47.1094 L1565,68.2188 L1685.5,68.2188 A2.5,2.5 0 0 1 1688,70.7188 L1688,470.1094 A2.5,2.5 0 0 1 1685.5,472.6094 L1285.5,472.6094 A2.5,2.5 0 0 1 1283,470.1094 L1283,47.1094 A2.5,2.5 0 0 1 1285.5,44.6094 " fill="none" style="stroke:#000000;stroke-width:1.5;"/><line style="stroke:#000000;stroke-width:1.5;" x1="1283" x2="1565" y1="68.2188" y2="68.2188"/><text fill="#000000" font-family="sans-serif" font-size="14" font-weight="bold" lengthAdjust="spacing" textLength="269" x="1287" y="61.1426">ShippingAgentOrganization Aggregate</text></g><!--cluster Port Infrastructure Aggregate--><g id="cluster_Port Infrastructure Aggregate"><path d="M1714.5,282.6094 L1922.5,282.6094 A3.75,3.75 0 0 1 1925,285.1094 L1932,306.2188 L2032.5,306.2188 A2.5,2.5 0 0 1 2035,308.7188 L2035,965.1094 A2.5,2.5 0 0 1 2032.5,967.6094 L1714.5,967.6094 A2.5,2.5 0 0 1 1712,965.1094 L1712,285.1094 A2.5,2.5 0 0 1 1714.5,282.6094 " fill="none" style="stroke:#000000;stroke-width:1.5;"/><line style="stroke:#000000;stroke-width:1.5;" x1="1712" x2="1932" y1="306.2188" y2="306.2188"/><text fill="#000000" font-family="sans-serif" font-size="14" font-weight="bold" lengthAdjust="spacing" textLength="207" x="1716" y="299.1426">Port Infrastructure Aggregate</text></g><!--cluster Staff Management Aggregate--><g id="cluster_Staff Management Aggregate"><path d="M2061.5,273.6094 L2266.5,273.6094 A3.75,3.75 0 0 1 2269,276.1094 L2276,297.2188 L2276.5,297.2188 A2.5,2.5 0 0 1 2279,299.7188 L2279,687.1094 A2.5,2.5 0 0 1 2276.5,689.6094 L2061.5,689.6094 A2.5,2.5 0 0 1 2059,687.1094 L2059,276.1094 A2.5,2.5 0 0 1 2061.5,273.6094 " fill="none" style="stroke:#000000;stroke-width:1.5;"/><line style="stroke:#000000;stroke-width:1.5;" x1="2059" x2="2276" y1="297.2188" y2="297.2188"/><text fill="#000000" font-family="sans-serif" font-size="14" font-weight="bold" lengthAdjust="spacing" textLength="204" x="2063" y="290.1426">Staff Management Aggregate</text></g><!--cluster Qualification Aggregate--><g id="cluster_Qualification Aggregate"><path d="M2148.5,812.6094 L2314.5,812.6094 A3.75,3.75 0 0 1 2317,815.1094 L2324,836.2188 L2337.5,836.2188 A2.5,2.5 0 0 1 2340,838.7188 L2340,974.1094 A2.5,2.5 0 0 1 2337.5,976.6094 L2148.5,976.6094 A2.5,2.5 0 0 1 2146,974.1094 L2146,815.1094 A2.5,2.5 0 0 1 2148.5,812.6094 " fill="none" style="stroke:#000000;stroke-width:1.5;"/><line style="stroke:#000000;stroke-width:1.5;" x1="2146" x2="2324" y1="836.2188" y2="836.2188"/><text fill="#000000" font-family="sans-serif" font-size="14" font-weight="bold" lengthAdjust="spacing" textLength="165" x="2150" y="829.1426">Qualification Aggregate</text></g><!--cluster Physical Resource Aggregate--><g id="cluster_Physical Resource Aggregate"><path d="M2366.5,522.6094 L2573.5,522.6094 A3.75,3.75 0 0 1 2576,525.1094 L2583,546.2188 L2583.5,546.2188 A2.5,2.5 0 0 1 2586,548.7188 L2586,951.1094 A2.5,2.5 0 0 1 2583.5,953.6094 L2366.5,953.6094 A2.5,2.5 0 0 1 2364,951.1094 L2364,525.1094 A2.5,2.5 0 0 1 2366.5,522.6094 " fill="none" style="stroke:#000000;stroke-width:1.5;"/><line style="stroke:#000000;stroke-width:1.5;" x1="2364" x2="2583" y1="546.2188" y2="546.2188"/><text fill="#000000" font-family="sans-serif" font-size="14" font-weight="bold" lengthAdjust="spacing" textLength="206" x="2368" y="539.1426">Physical Resource Aggregate</text></g><!--class Vessel--><g id="elem_Vessel"><rect codeLine="4" fill="#F1F1F1" height="93.9219" id="Vessel" rx="2.5" ry="2.5" style="stroke:#181818;stroke-width:0.5;" width="161" x="210.5" y="593.6094"/><ellipse cx="225.5" cy="614.9609" fill="#ADD1B2" rx="11" ry="11" style="stroke:#181818;stroke-width:1.0;"/><path d="M228.2656,610.8359 Q228.4219,610.6172 228.6094,610.5078 Q228.7969,610.3984 229.0156,610.3984 Q229.3906,610.3984 229.625,610.6641 Q229.8594,610.9141 229.8594,611.5234 L229.8594,612.9766 Q229.8594,613.5859 229.625,613.8516 Q229.3906,614.1172 229.0156,614.1172 Q228.6719,614.1172 228.4688,613.9141 Q228.2656,613.7266 228.1563,613.2109 Q228.1094,612.8516 227.9219,612.6641 Q227.5938,612.2891 226.9844,612.0703 Q226.375,611.8516 225.75,611.8516 Q224.9844,611.8516 224.3438,612.1797 Q223.7188,612.5078 223.2188,613.2578 Q222.7344,614.0078 222.7344,615.0391 L222.7344,616.1328 Q222.7344,617.3672 223.625,618.1953 Q224.5156,619.0078 226.1094,619.0078 Q227.0469,619.0078 227.7031,618.7578 Q228.0938,618.6016 228.5156,618.1641 Q228.7813,617.8984 228.9219,617.8203 Q229.0781,617.7422 229.2813,617.7422 Q229.6094,617.7422 229.8594,618.0078 Q230.125,618.2578 230.125,618.6016 Q230.125,618.9453 229.7813,619.3516 Q229.2813,619.9297 228.4844,620.2578 Q227.4063,620.7109 226.1094,620.7109 Q224.5938,620.7109 223.3906,620.0859 Q222.4063,619.5859 221.7188,618.5234 Q221.0313,617.4453 221.0313,616.1641 L221.0313,615.0078 Q221.0313,613.6797 221.6406,612.5391 Q222.2656,611.3828 223.3594,610.7734 Q224.4531,610.1484 225.6875,610.1484 Q226.4219,610.1484 227.0625,610.3203 Q227.7188,610.4766 228.2656,610.8359 Z " fill="#000000"/><text fill="#000000" font-family="sans-serif" font-size="12" font-style="italic" lengthAdjust="spacing" textLength="133" x="237.5" y="611.0664">&#171;Entity, AggregateRoot&#187;</text><text fill="#000000" font-family="sans-serif" font-size="14" lengthAdjust="spacing" textLength="42" x="283" y="628.2363">Vessel</text><line style="stroke:#181818;stroke-width:0.5;" x1="211.5" x2="370.5" y1="636.3125" y2="636.3125"/><text fill="#000000" font-family="sans-serif" font-size="14" lengthAdjust="spacing" textLength="96" x="216.5" y="654.8457">IMOnumber: int</text><text fill="#000000" font-family="sans-serif" font-size="14" lengthAdjust="spacing" textLength="80" x="216.5" y="672.4551">name: String</text><line style="stroke:#181818;stroke-width:0.5;" x1="211.5" x2="370.5" y1="679.5313" y2="679.5313"/></g><!--class Owner--><g id="elem_Owner"><rect codeLine="9" fill="#F1F1F1" height="93.9219" id="Owner" rx="2.5" ry="2.5" style="stroke:#181818;stroke-width:0.5;" width="92" x="22" y="857.6094"/><ellipse cx="45.55" cy="878.9609" fill="#ADD1B2" rx="11" ry="11" style="stroke:#181818;stroke-width:1.0;"/><path d="M48.3156,874.8359 Q48.4719,874.6172 48.6594,874.5078 Q48.8469,874.3984 49.0656,874.3984 Q49.4406,874.3984 49.675,874.6641 Q49.9094,874.9141 49.9094,875.5234 L49.9094,876.9766 Q49.9094,877.5859 49.675,877.8516 Q49.4406,878.1172 49.0656,878.1172 Q48.7219,878.1172 48.5188,877.9141 Q48.3156,877.7266 48.2063,877.2109 Q48.1594,876.8516 47.9719,876.6641 Q47.6438,876.2891 47.0344,876.0703 Q46.425,875.8516 45.8,875.8516 Q45.0344,875.8516 44.3938,876.1797 Q43.7688,876.5078 43.2688,877.2578 Q42.7844,878.0078 42.7844,879.0391 L42.7844,880.1328 Q42.7844,881.3672 43.675,882.1953 Q44.5656,883.0078 46.1594,883.0078 Q47.0969,883.0078 47.7531,882.7578 Q48.1438,882.6016 48.5656,882.1641 Q48.8313,881.8984 48.9719,881.8203 Q49.1281,881.7422 49.3313,881.7422 Q49.6594,881.7422 49.9094,882.0078 Q50.175,882.2578 50.175,882.6016 Q50.175,882.9453 49.8313,883.3516 Q49.3313,883.9297 48.5344,884.2578 Q47.4563,884.7109 46.1594,884.7109 Q44.6438,884.7109 43.4406,884.0859 Q42.4563,883.5859 41.7688,882.5234 Q41.0813,881.4453 41.0813,880.1641 L41.0813,879.0078 Q41.0813,877.6797 41.6906,876.5391 Q42.3156,875.3828 43.4094,874.7734 Q44.5031,874.1484 45.7375,874.1484 Q46.4719,874.1484 47.1125,874.3203 Q47.7688,874.4766 48.3156,874.8359 Z " fill="#000000"/><text fill="#000000" font-family="sans-serif" font-size="12" font-style="italic" lengthAdjust="spacing" textLength="44" x="59.95" y="875.0664">&#171;Entity&#187;</text><text fill="#000000" font-family="sans-serif" font-size="14" lengthAdjust="spacing" textLength="41" x="61.45" y="892.2363">Owner</text><line style="stroke:#181818;stroke-width:0.5;" x1="23" x2="113" y1="900.3125" y2="900.3125"/><text fill="#000000" font-family="sans-serif" font-size="14" lengthAdjust="spacing" textLength="80" x="28" y="918.8457">name: String</text><text fill="#000000" font-family="sans-serif" font-size="14" lengthAdjust="spacing" textLength="36" x="28" y="936.4551">ID: int</text><line style="stroke:#181818;stroke-width:0.5;" x1="23" x2="113" y1="943.5313" y2="943.5313"/></g><!--class Cargo--><g id="elem_Cargo"><rect codeLine="14" fill="#F1F1F1" height="93.9219" id="Cargo" rx="2.5" ry="2.5" style="stroke:#181818;stroke-width:0.5;" width="116" x="149" y="857.6094"/><ellipse cx="165.35" cy="878.9609" fill="#ADD1B2" rx="11" ry="11" style="stroke:#181818;stroke-width:1.0;"/><path d="M168.1156,874.8359 Q168.2719,874.6172 168.4594,874.5078 Q168.6469,874.3984 168.8656,874.3984 Q169.2406,874.3984 169.475,874.6641 Q169.7094,874.9141 169.7094,875.5234 L169.7094,876.9766 Q169.7094,877.5859 169.475,877.8516 Q169.2406,878.1172 168.8656,878.1172 Q168.5219,878.1172 168.3188,877.9141 Q168.1156,877.7266 168.0063,877.2109 Q167.9594,876.8516 167.7719,876.6641 Q167.4438,876.2891 166.8344,876.0703 Q166.225,875.8516 165.6,875.8516 Q164.8344,875.8516 164.1938,876.1797 Q163.5688,876.5078 163.0688,877.2578 Q162.5844,878.0078 162.5844,879.0391 L162.5844,880.1328 Q162.5844,881.3672 163.475,882.1953 Q164.3656,883.0078 165.9594,883.0078 Q166.8969,883.0078 167.5531,882.7578 Q167.9438,882.6016 168.3656,882.1641 Q168.6313,881.8984 168.7719,881.8203 Q168.9281,881.7422 169.1313,881.7422 Q169.4594,881.7422 169.7094,882.0078 Q169.975,882.2578 169.975,882.6016 Q169.975,882.9453 169.6313,883.3516 Q169.1313,883.9297 168.3344,884.2578 Q167.2563,884.7109 165.9594,884.7109 Q164.4438,884.7109 163.2406,884.0859 Q162.2563,883.5859 161.5688,882.5234 Q160.8813,881.4453 160.8813,880.1641 L160.8813,879.0078 Q160.8813,877.6797 161.4906,876.5391 Q162.1156,875.3828 163.2094,874.7734 Q164.3031,874.1484 165.5375,874.1484 Q166.2719,874.1484 166.9125,874.3203 Q167.5688,874.4766 168.1156,874.8359 Z " fill="#000000"/><text fill="#000000" font-family="sans-serif" font-size="12" font-style="italic" lengthAdjust="spacing" textLength="85" x="177.65" y="875.0664">&#171;Value Object&#187;</text><text fill="#000000" font-family="sans-serif" font-size="14" lengthAdjust="spacing" textLength="39" x="200.65" y="892.2363">Cargo</text><line style="stroke:#181818;stroke-width:0.5;" x1="150" x2="264" y1="900.3125" y2="900.3125"/><text fill="#000000" font-family="sans-serif" font-size="14" lengthAdjust="spacing" textLength="77" x="155" y="918.8457">Type: String</text><text fill="#000000" font-family="sans-serif" font-size="14" lengthAdjust="spacing" textLength="104" x="155" y="936.4551">Quantity: double</text><line style="stroke:#181818;stroke-width:0.5;" x1="150" x2="264" y1="943.5313" y2="943.5313"/></g><!--class Crew--><g id="elem_Crew"><rect codeLine="19" fill="#F1F1F1" height="76.3125" id="Crew" rx="2.5" ry="2.5" style="stroke:#181818;stroke-width:0.5;" width="72" x="300" y="866.6094"/><ellipse cx="315" cy="887.9609" fill="#ADD1B2" rx="11" ry="11" style="stroke:#181818;stroke-width:1.0;"/><path d="M317.7656,883.8359 Q317.9219,883.6172 318.1094,883.5078 Q318.2969,883.3984 318.5156,883.3984 Q318.8906,883.3984 319.125,883.6641 Q319.3594,883.9141 319.3594,884.5234 L319.3594,885.9766 Q319.3594,886.5859 319.125,886.8516 Q318.8906,887.1172 318.5156,887.1172 Q318.1719,887.1172 317.9688,886.9141 Q317.7656,886.7266 317.6563,886.2109 Q317.6094,885.8516 317.4219,885.6641 Q317.0938,885.2891 316.4844,885.0703 Q315.875,884.8516 315.25,884.8516 Q314.4844,884.8516 313.8438,885.1797 Q313.2188,885.5078 312.7188,886.2578 Q312.2344,887.0078 312.2344,888.0391 L312.2344,889.1328 Q312.2344,890.3672 313.125,891.1953 Q314.0156,892.0078 315.6094,892.0078 Q316.5469,892.0078 317.2031,891.7578 Q317.5938,891.6016 318.0156,891.1641 Q318.2813,890.8984 318.4219,890.8203 Q318.5781,890.7422 318.7813,890.7422 Q319.1094,890.7422 319.3594,891.0078 Q319.625,891.2578 319.625,891.6016 Q319.625,891.9453 319.2813,892.3516 Q318.7813,892.9297 317.9844,893.2578 Q316.9063,893.7109 315.6094,893.7109 Q314.0938,893.7109 312.8906,893.0859 Q311.9063,892.5859 311.2188,891.5234 Q310.5313,890.4453 310.5313,889.1641 L310.5313,888.0078 Q310.5313,886.6797 311.1406,885.5391 Q311.7656,884.3828 312.8594,883.7734 Q313.9531,883.1484 315.1875,883.1484 Q315.9219,883.1484 316.5625,883.3203 Q317.2188,883.4766 317.7656,883.8359 Z " fill="#000000"/><text fill="#000000" font-family="sans-serif" font-size="12" font-style="italic" lengthAdjust="spacing" textLength="44" x="327" y="884.0664">&#171;Entity&#187;</text><text fill="#000000" font-family="sans-serif" font-size="14" lengthAdjust="spacing" textLength="32" x="333" y="901.2363">Crew</text><line style="stroke:#181818;stroke-width:0.5;" x1="301" x2="371" y1="909.3125" y2="909.3125"/><text fill="#000000" font-family="sans-serif" font-size="14" lengthAdjust="spacing" textLength="36" x="306" y="927.8457">ID: int</text><line style="stroke:#181818;stroke-width:0.5;" x1="301" x2="371" y1="934.9219" y2="934.9219"/></g><!--class CrewMember--><g id="elem_CrewMember"><rect codeLine="23" fill="#F1F1F1" height="129.1406" id="CrewMember" rx="2.5" ry="2.5" style="stroke:#181818;stroke-width:0.5;" width="129" x="242.5" y="1066.6094"/><ellipse cx="263.8" cy="1087.9609" fill="#ADD1B2" rx="11" ry="11" style="stroke:#181818;stroke-width:1.0;"/><path d="M266.5656,1083.8359 Q266.7219,1083.6172 266.9094,1083.5078 Q267.0969,1083.3984 267.3156,1083.3984 Q267.6906,1083.3984 267.925,1083.6641 Q268.1594,1083.9141 268.1594,1084.5234 L268.1594,1085.9766 Q268.1594,1086.5859 267.925,1086.8516 Q267.6906,1087.1172 267.3156,1087.1172 Q266.9719,1087.1172 266.7688,1086.9141 Q266.5656,1086.7266 266.4563,1086.2109 Q266.4094,1085.8516 266.2219,1085.6641 Q265.8938,1085.2891 265.2844,1085.0703 Q264.675,1084.8516 264.05,1084.8516 Q263.2844,1084.8516 262.6438,1085.1797 Q262.0188,1085.5078 261.5188,1086.2578 Q261.0344,1087.0078 261.0344,1088.0391 L261.0344,1089.1328 Q261.0344,1090.3672 261.925,1091.1953 Q262.8156,1092.0078 264.4094,1092.0078 Q265.3469,1092.0078 266.0031,1091.7578 Q266.3938,1091.6016 266.8156,1091.1641 Q267.0813,1090.8984 267.2219,1090.8203 Q267.3781,1090.7422 267.5813,1090.7422 Q267.9094,1090.7422 268.1594,1091.0078 Q268.425,1091.2578 268.425,1091.6016 Q268.425,1091.9453 268.0813,1092.3516 Q267.5813,1092.9297 266.7844,1093.2578 Q265.7063,1093.7109 264.4094,1093.7109 Q262.8938,1093.7109 261.6906,1093.0859 Q260.7063,1092.5859 260.0188,1091.5234 Q259.3313,1090.4453 259.3313,1089.1641 L259.3313,1088.0078 Q259.3313,1086.6797 259.9406,1085.5391 Q260.5656,1084.3828 261.6594,1083.7734 Q262.7531,1083.1484 263.9875,1083.1484 Q264.7219,1083.1484 265.3625,1083.3203 Q266.0188,1083.4766 266.5656,1083.8359 Z " fill="#000000"/><text fill="#000000" font-family="sans-serif" font-size="12" font-style="italic" lengthAdjust="spacing" textLength="44" x="298.7" y="1084.0664">&#171;Entity&#187;</text><text fill="#000000" font-family="sans-serif" font-size="14" lengthAdjust="spacing" textLength="83" x="279.2" y="1101.2363">CrewMember</text><line style="stroke:#181818;stroke-width:0.5;" x1="243.5" x2="370.5" y1="1109.3125" y2="1109.3125"/><text fill="#000000" font-family="sans-serif" font-size="14" lengthAdjust="spacing" textLength="36" x="248.5" y="1127.8457">ID: int</text><text fill="#000000" font-family="sans-serif" font-size="14" lengthAdjust="spacing" textLength="80" x="248.5" y="1145.4551">name: String</text><text fill="#000000" font-family="sans-serif" font-size="14" lengthAdjust="spacing" textLength="109" x="248.5" y="1163.0645">nationality: String</text><text fill="#000000" font-family="sans-serif" font-size="14" lengthAdjust="spacing" textLength="117" x="248.5" y="1180.6738">dateOfBirth: String</text><line style="stroke:#181818;stroke-width:0.5;" x1="243.5" x2="370.5" y1="1187.75" y2="1187.75"/></g><!--class VesselType--><g id="elem_VesselType"><rect codeLine="32" fill="#F1F1F1" height="164.3594" id="VesselType" rx="2.5" ry="2.5" style="stroke:#181818;stroke-width:0.5;" width="191" x="428.5" y="822.6094"/><ellipse cx="482.75" cy="843.9609" fill="#ADD1B2" rx="11" ry="11" style="stroke:#181818;stroke-width:1.0;"/><path d="M485.5156,839.8359 Q485.6719,839.6172 485.8594,839.5078 Q486.0469,839.3984 486.2656,839.3984 Q486.6406,839.3984 486.875,839.6641 Q487.1094,839.9141 487.1094,840.5234 L487.1094,841.9766 Q487.1094,842.5859 486.875,842.8516 Q486.6406,843.1172 486.2656,843.1172 Q485.9219,843.1172 485.7188,842.9141 Q485.5156,842.7266 485.4063,842.2109 Q485.3594,841.8516 485.1719,841.6641 Q484.8438,841.2891 484.2344,841.0703 Q483.625,840.8516 483,840.8516 Q482.2344,840.8516 481.5938,841.1797 Q480.9688,841.5078 480.4688,842.2578 Q479.9844,843.0078 479.9844,844.0391 L479.9844,845.1328 Q479.9844,846.3672 480.875,847.1953 Q481.7656,848.0078 483.3594,848.0078 Q484.2969,848.0078 484.9531,847.7578 Q485.3438,847.6016 485.7656,847.1641 Q486.0313,846.8984 486.1719,846.8203 Q486.3281,846.7422 486.5313,846.7422 Q486.8594,846.7422 487.1094,847.0078 Q487.375,847.2578 487.375,847.6016 Q487.375,847.9453 487.0313,848.3516 Q486.5313,848.9297 485.7344,849.2578 Q484.6563,849.7109 483.3594,849.7109 Q481.8438,849.7109 480.6406,849.0859 Q479.6563,848.5859 478.9688,847.5234 Q478.2813,846.4453 478.2813,845.1641 L478.2813,844.0078 Q478.2813,842.6797 478.8906,841.5391 Q479.5156,840.3828 480.6094,839.7734 Q481.7031,839.1484 482.9375,839.1484 Q483.6719,839.1484 484.3125,839.3203 Q484.9688,839.4766 485.5156,839.8359 Z " fill="#000000"/><text fill="#000000" font-family="sans-serif" font-size="12" font-style="italic" lengthAdjust="spacing" textLength="44" x="518.25" y="840.0664">&#171;Entity&#187;</text><text fill="#000000" font-family="sans-serif" font-size="14" lengthAdjust="spacing" textLength="74" x="503.25" y="857.2363">VesselType</text><line style="stroke:#181818;stroke-width:0.5;" x1="429.5" x2="618.5" y1="865.3125" y2="865.3125"/><text fill="#000000" font-family="sans-serif" font-size="14" lengthAdjust="spacing" textLength="80" x="434.5" y="883.8457">name: String</text><text fill="#000000" font-family="sans-serif" font-size="14" lengthAdjust="spacing" textLength="114" x="434.5" y="901.4551">description: String</text><text fill="#000000" font-family="sans-serif" font-size="14" lengthAdjust="spacing" textLength="103" x="434.5" y="919.0645">capacity: double</text><text fill="#000000" font-family="sans-serif" font-size="14" lengthAdjust="spacing" textLength="179" x="434.5" y="936.6738">maximumNumberOfRows: int</text><text fill="#000000" font-family="sans-serif" font-size="14" lengthAdjust="spacing" textLength="53" x="434.5" y="954.2832">bays: int</text><text fill="#000000" font-family="sans-serif" font-size="14" lengthAdjust="spacing" textLength="50" x="434.5" y="971.8926">tiers: int</text><line style="stroke:#181818;stroke-width:0.5;" x1="429.5" x2="618.5" y1="978.9688" y2="978.9688"/></g><!--class VesselVisitNotification--><g id="elem_VesselVisitNotification"><rect codeLine="43" fill="#F1F1F1" height="129.1406" id="VesselVisitNotification" rx="2.5" ry="2.5" style="stroke:#181818;stroke-width:0.5;" width="262" x="871" y="318.6094"/><ellipse cx="929.25" cy="339.9609" fill="#ADD1B2" rx="11" ry="11" style="stroke:#181818;stroke-width:1.0;"/><path d="M932.0156,335.8359 Q932.1719,335.6172 932.3594,335.5078 Q932.5469,335.3984 932.7656,335.3984 Q933.1406,335.3984 933.375,335.6641 Q933.6094,335.9141 933.6094,336.5234 L933.6094,337.9766 Q933.6094,338.5859 933.375,338.8516 Q933.1406,339.1172 932.7656,339.1172 Q932.4219,339.1172 932.2188,338.9141 Q932.0156,338.7266 931.9063,338.2109 Q931.8594,337.8516 931.6719,337.6641 Q931.3438,337.2891 930.7344,337.0703 Q930.125,336.8516 929.5,336.8516 Q928.7344,336.8516 928.0938,337.1797 Q927.4688,337.5078 926.9688,338.2578 Q926.4844,339.0078 926.4844,340.0391 L926.4844,341.1328 Q926.4844,342.3672 927.375,343.1953 Q928.2656,344.0078 929.8594,344.0078 Q930.7969,344.0078 931.4531,343.7578 Q931.8438,343.6016 932.2656,343.1641 Q932.5313,342.8984 932.6719,342.8203 Q932.8281,342.7422 933.0313,342.7422 Q933.3594,342.7422 933.6094,343.0078 Q933.875,343.2578 933.875,343.6016 Q933.875,343.9453 933.5313,344.3516 Q933.0313,344.9297 932.2344,345.2578 Q931.1563,345.7109 929.8594,345.7109 Q928.3438,345.7109 927.1406,345.0859 Q926.1563,344.5859 925.4688,343.5234 Q924.7813,342.4453 924.7813,341.1641 L924.7813,340.0078 Q924.7813,338.6797 925.3906,337.5391 Q926.0156,336.3828 927.1094,335.7734 Q928.2031,335.1484 929.4375,335.1484 Q930.1719,335.1484 930.8125,335.3203 Q931.4688,335.4766 932.0156,335.8359 Z " fill="#000000"/><text fill="#000000" font-family="sans-serif" font-size="12" font-style="italic" lengthAdjust="spacing" textLength="133" x="951.75" y="336.0664">&#171;Entity, AggregateRoot&#187;</text><text fill="#000000" font-family="sans-serif" font-size="14" lengthAdjust="spacing" textLength="137" x="949.75" y="353.2363">VesselVisitNotification</text><line style="stroke:#181818;stroke-width:0.5;" x1="872" x2="1132" y1="361.3125" y2="361.3125"/><text fill="#000000" font-family="sans-serif" font-size="14" lengthAdjust="spacing" textLength="36" x="877" y="379.8457">ID: int</text><text fill="#000000" font-family="sans-serif" font-size="14" lengthAdjust="spacing" textLength="250" x="877" y="397.4551">rejectionReason: String? #pode ser null</text><text fill="#000000" font-family="sans-serif" font-size="14" lengthAdjust="spacing" textLength="168" x="877" y="415.0645">decisionTimeStamp: String</text><text fill="#000000" font-family="sans-serif" font-size="14" lengthAdjust="spacing" textLength="154" x="877" y="432.6738">decisionOutcome: String</text><line style="stroke:#181818;stroke-width:0.5;" x1="872" x2="1132" y1="439.75" y2="439.75"/></g><!--class NotificationState--><g id="elem_NotificationState"><rect codeLine="50" fill="#F1F1F1" height="65.6094" id="NotificationState" rx="2.5" ry="2.5" style="stroke:#181818;stroke-width:0.5;" width="134" x="676" y="607.6094"/><ellipse cx="691" cy="623.6094" fill="#EB937F" rx="11" ry="11" style="stroke:#181818;stroke-width:1.0;"/><path d="M689.8594,624.4063 L689.8594,626.9063 L694.1875,626.9063 L694.1875,625.9844 Q694.1875,625.375 694.4219,625.1094 Q694.6719,624.8438 695.0469,624.8438 Q695.4219,624.8438 695.6563,625.1094 Q695.8906,625.375 695.8906,625.9844 L695.8906,628.6094 L687.8906,628.6094 Q687.2656,628.6094 687,628.375 Q686.75,628.1406 686.75,627.75 Q686.75,627.375 687.0156,627.1406 Q687.2813,626.9063 687.8906,626.9063 L688.1563,626.9063 L688.1563,620.25 L687.8906,620.25 Q687.2656,620.25 687,620.0156 Q686.75,619.7813 686.75,619.3906 Q686.75,619.0156 687,618.7813 Q687.2656,618.5469 687.8906,618.5469 L695.5156,618.5469 L695.5156,621.1406 Q695.5156,621.75 695.2813,622.0156 Q695.0625,622.2656 694.6719,622.2656 Q694.2969,622.2656 694.0625,622.0156 Q693.8281,621.75 693.8281,621.1406 L693.8281,620.25 L689.8594,620.25 L689.8594,622.7031 L691.3438,622.7031 Q691.3438,622.0469 691.4688,621.8594 Q691.7344,621.4531 692.2031,621.4531 Q692.5781,621.4531 692.8125,621.7188 Q693.0469,621.9688 693.0469,622.5781 L693.0469,624.5469 Q693.0469,625.0938 692.9219,625.2813 Q692.6563,625.6719 692.2031,625.6719 Q691.7344,625.6719 691.4688,625.2656 Q691.3438,625.0781 691.3438,624.4063 L689.8594,624.4063 Z " fill="#000000"/><text fill="#000000" font-family="sans-serif" font-size="14" lengthAdjust="spacing" textLength="102" x="705" y="629.3379">NotificationState</text><line style="stroke:#181818;stroke-width:0.5;" x1="677" x2="809" y1="639.6094" y2="639.6094"/><text fill="#000000" font-family="sans-serif" font-size="14" lengthAdjust="spacing" textLength="80" x="682" y="658.1426">name: String</text><line style="stroke:#181818;stroke-width:0.5;" x1="677" x2="809" y1="665.2188" y2="665.2188"/></g><!--class ManifestCargo--><g id="elem_ManifestCargo"><rect codeLine="54" fill="#F1F1F1" height="93.9219" id="ManifestCargo" rx="2.5" ry="2.5" style="stroke:#181818;stroke-width:0.5;" width="124" x="940" y="857.6094"/><ellipse cx="955" cy="878.9609" fill="#ADD1B2" rx="11" ry="11" style="stroke:#181818;stroke-width:1.0;"/><path d="M957.7656,874.8359 Q957.9219,874.6172 958.1094,874.5078 Q958.2969,874.3984 958.5156,874.3984 Q958.8906,874.3984 959.125,874.6641 Q959.3594,874.9141 959.3594,875.5234 L959.3594,876.9766 Q959.3594,877.5859 959.125,877.8516 Q958.8906,878.1172 958.5156,878.1172 Q958.1719,878.1172 957.9688,877.9141 Q957.7656,877.7266 957.6563,877.2109 Q957.6094,876.8516 957.4219,876.6641 Q957.0938,876.2891 956.4844,876.0703 Q955.875,875.8516 955.25,875.8516 Q954.4844,875.8516 953.8438,876.1797 Q953.2188,876.5078 952.7188,877.2578 Q952.2344,878.0078 952.2344,879.0391 L952.2344,880.1328 Q952.2344,881.3672 953.125,882.1953 Q954.0156,883.0078 955.6094,883.0078 Q956.5469,883.0078 957.2031,882.7578 Q957.5938,882.6016 958.0156,882.1641 Q958.2813,881.8984 958.4219,881.8203 Q958.5781,881.7422 958.7813,881.7422 Q959.1094,881.7422 959.3594,882.0078 Q959.625,882.2578 959.625,882.6016 Q959.625,882.9453 959.2813,883.3516 Q958.7813,883.9297 957.9844,884.2578 Q956.9063,884.7109 955.6094,884.7109 Q954.0938,884.7109 952.8906,884.0859 Q951.9063,883.5859 951.2188,882.5234 Q950.5313,881.4453 950.5313,880.1641 L950.5313,879.0078 Q950.5313,877.6797 951.1406,876.5391 Q951.7656,875.3828 952.8594,874.7734 Q953.9531,874.1484 955.1875,874.1484 Q955.9219,874.1484 956.5625,874.3203 Q957.2188,874.4766 957.7656,874.8359 Z " fill="#000000"/><text fill="#000000" font-family="sans-serif" font-size="12" font-style="italic" lengthAdjust="spacing" textLength="85" x="972.5" y="875.0664">&#171;Value Object&#187;</text><text fill="#000000" font-family="sans-serif" font-size="14" lengthAdjust="spacing" textLength="92" x="969" y="892.2363">ManifestCargo</text><line style="stroke:#181818;stroke-width:0.5;" x1="941" x2="1063" y1="900.3125" y2="900.3125"/><text fill="#000000" font-family="sans-serif" font-size="14" lengthAdjust="spacing" textLength="72" x="946" y="918.8457">type: String</text><text fill="#000000" font-family="sans-serif" font-size="14" lengthAdjust="spacing" textLength="101" x="946" y="936.4551">quantity: double</text><line style="stroke:#181818;stroke-width:0.5;" x1="941" x2="1063" y1="943.5313" y2="943.5313"/></g><!--class LoadingCargoManifest--><g id="elem_LoadingCargoManifest"><rect codeLine="59" fill="#F1F1F1" height="58.7031" id="LoadingCargoManifest" rx="2.5" ry="2.5" style="stroke:#181818;stroke-width:0.5;" width="175" x="845.5" y="611.1094"/><ellipse cx="860.5" cy="632.4609" fill="#ADD1B2" rx="11" ry="11" style="stroke:#181818;stroke-width:1.0;"/><path d="M863.2656,628.3359 Q863.4219,628.1172 863.6094,628.0078 Q863.7969,627.8984 864.0156,627.8984 Q864.3906,627.8984 864.625,628.1641 Q864.8594,628.4141 864.8594,629.0234 L864.8594,630.4766 Q864.8594,631.0859 864.625,631.3516 Q864.3906,631.6172 864.0156,631.6172 Q863.6719,631.6172 863.4688,631.4141 Q863.2656,631.2266 863.1563,630.7109 Q863.1094,630.3516 862.9219,630.1641 Q862.5938,629.7891 861.9844,629.5703 Q861.375,629.3516 860.75,629.3516 Q859.9844,629.3516 859.3438,629.6797 Q858.7188,630.0078 858.2188,630.7578 Q857.7344,631.5078 857.7344,632.5391 L857.7344,633.6328 Q857.7344,634.8672 858.625,635.6953 Q859.5156,636.5078 861.1094,636.5078 Q862.0469,636.5078 862.7031,636.2578 Q863.0938,636.1016 863.5156,635.6641 Q863.7813,635.3984 863.9219,635.3203 Q864.0781,635.2422 864.2813,635.2422 Q864.6094,635.2422 864.8594,635.5078 Q865.125,635.7578 865.125,636.1016 Q865.125,636.4453 864.7813,636.8516 Q864.2813,637.4297 863.4844,637.7578 Q862.4063,638.2109 861.1094,638.2109 Q859.5938,638.2109 858.3906,637.5859 Q857.4063,637.0859 856.7188,636.0234 Q856.0313,634.9453 856.0313,633.6641 L856.0313,632.5078 Q856.0313,631.1797 856.6406,630.0391 Q857.2656,628.8828 858.3594,628.2734 Q859.4531,627.6484 860.6875,627.6484 Q861.4219,627.6484 862.0625,627.8203 Q862.7188,627.9766 863.2656,628.3359 Z " fill="#000000"/><text fill="#000000" font-family="sans-serif" font-size="12" font-style="italic" lengthAdjust="spacing" textLength="85" x="903.5" y="628.5664">&#171;Value Object&#187;</text><text fill="#000000" font-family="sans-serif" font-size="14" lengthAdjust="spacing" textLength="143" x="874.5" y="645.7363">LoadingCargoManifest</text><line style="stroke:#181818;stroke-width:0.5;" x1="846.5" x2="1019.5" y1="653.8125" y2="653.8125"/><line style="stroke:#181818;stroke-width:0.5;" x1="846.5" x2="1019.5" y1="661.8125" y2="661.8125"/></g><!--class UnloadingCargoManifest--><g id="elem_UnloadingCargoManifest"><rect codeLine="63" fill="#F1F1F1" height="58.7031" id="UnloadingCargoManifest" rx="2.5" ry="2.5" style="stroke:#181818;stroke-width:0.5;" width="187" x="1055.5" y="611.1094"/><ellipse cx="1070.5" cy="632.4609" fill="#ADD1B2" rx="11" ry="11" style="stroke:#181818;stroke-width:1.0;"/><path d="M1073.2656,628.3359 Q1073.4219,628.1172 1073.6094,628.0078 Q1073.7969,627.8984 1074.0156,627.8984 Q1074.3906,627.8984 1074.625,628.1641 Q1074.8594,628.4141 1074.8594,629.0234 L1074.8594,630.4766 Q1074.8594,631.0859 1074.625,631.3516 Q1074.3906,631.6172 1074.0156,631.6172 Q1073.6719,631.6172 1073.4688,631.4141 Q1073.2656,631.2266 1073.1563,630.7109 Q1073.1094,630.3516 1072.9219,630.1641 Q1072.5938,629.7891 1071.9844,629.5703 Q1071.375,629.3516 1070.75,629.3516 Q1069.9844,629.3516 1069.3438,629.6797 Q1068.7188,630.0078 1068.2188,630.7578 Q1067.7344,631.5078 1067.7344,632.5391 L1067.7344,633.6328 Q1067.7344,634.8672 1068.625,635.6953 Q1069.5156,636.5078 1071.1094,636.5078 Q1072.0469,636.5078 1072.7031,636.2578 Q1073.0938,636.1016 1073.5156,635.6641 Q1073.7813,635.3984 1073.9219,635.3203 Q1074.0781,635.2422 1074.2813,635.2422 Q1074.6094,635.2422 1074.8594,635.5078 Q1075.125,635.7578 1075.125,636.1016 Q1075.125,636.4453 1074.7813,636.8516 Q1074.2813,637.4297 1073.4844,637.7578 Q1072.4063,638.2109 1071.1094,638.2109 Q1069.5938,638.2109 1068.3906,637.5859 Q1067.4063,637.0859 1066.7188,636.0234 Q1066.0313,634.9453 1066.0313,633.6641 L1066.0313,632.5078 Q1066.0313,631.1797 1066.6406,630.0391 Q1067.2656,628.8828 1068.3594,628.2734 Q1069.4531,627.6484 1070.6875,627.6484 Q1071.4219,627.6484 1072.0625,627.8203 Q1072.7188,627.9766 1073.2656,628.3359 Z " fill="#000000"/><text fill="#000000" font-family="sans-serif" font-size="12" font-style="italic" lengthAdjust="spacing" textLength="85" x="1119.5" y="628.5664">&#171;Value Object&#187;</text><text fill="#000000" font-family="sans-serif" font-size="14" lengthAdjust="spacing" textLength="155" x="1084.5" y="645.7363">UnloadingCargoManifest</text><line style="stroke:#181818;stroke-width:0.5;" x1="1056.5" x2="1241.5" y1="653.8125" y2="653.8125"/><line style="stroke:#181818;stroke-width:0.5;" x1="1056.5" x2="1241.5" y1="661.8125" y2="661.8125"/></g><!--class ShippingAgentOrganization--><g id="elem_ShippingAgentOrganization"><rect codeLine="69" fill="#F1F1F1" height="129.1406" id="ShippingAgentOrganization" rx="2.5" ry="2.5" style="stroke:#181818;stroke-width:0.5;" width="204" x="1299" y="80.6094"/><ellipse cx="1314" cy="101.9609" fill="#ADD1B2" rx="11" ry="11" style="stroke:#181818;stroke-width:1.0;"/><path d="M1316.7656,97.8359 Q1316.9219,97.6172 1317.1094,97.5078 Q1317.2969,97.3984 1317.5156,97.3984 Q1317.8906,97.3984 1318.125,97.6641 Q1318.3594,97.9141 1318.3594,98.5234 L1318.3594,99.9766 Q1318.3594,100.5859 1318.125,100.8516 Q1317.8906,101.1172 1317.5156,101.1172 Q1317.1719,101.1172 1316.9688,100.9141 Q1316.7656,100.7266 1316.6563,100.2109 Q1316.6094,99.8516 1316.4219,99.6641 Q1316.0938,99.2891 1315.4844,99.0703 Q1314.875,98.8516 1314.25,98.8516 Q1313.4844,98.8516 1312.8438,99.1797 Q1312.2188,99.5078 1311.7188,100.2578 Q1311.2344,101.0078 1311.2344,102.0391 L1311.2344,103.1328 Q1311.2344,104.3672 1312.125,105.1953 Q1313.0156,106.0078 1314.6094,106.0078 Q1315.5469,106.0078 1316.2031,105.7578 Q1316.5938,105.6016 1317.0156,105.1641 Q1317.2813,104.8984 1317.4219,104.8203 Q1317.5781,104.7422 1317.7813,104.7422 Q1318.1094,104.7422 1318.3594,105.0078 Q1318.625,105.2578 1318.625,105.6016 Q1318.625,105.9453 1318.2813,106.3516 Q1317.7813,106.9297 1316.9844,107.2578 Q1315.9063,107.7109 1314.6094,107.7109 Q1313.0938,107.7109 1311.8906,107.0859 Q1310.9063,106.5859 1310.2188,105.5234 Q1309.5313,104.4453 1309.5313,103.1641 L1309.5313,102.0078 Q1309.5313,100.6797 1310.1406,99.5391 Q1310.7656,98.3828 1311.8594,97.7734 Q1312.9531,97.1484 1314.1875,97.1484 Q1314.9219,97.1484 1315.5625,97.3203 Q1316.2188,97.4766 1316.7656,97.8359 Z " fill="#000000"/><text fill="#000000" font-family="sans-serif" font-size="12" font-style="italic" lengthAdjust="spacing" textLength="133" x="1347.5" y="98.0664">&#171;Entity, AggregateRoot&#187;</text><text fill="#000000" font-family="sans-serif" font-size="14" lengthAdjust="spacing" textLength="172" x="1328" y="115.2363">ShippingAgentOrganization</text><line style="stroke:#181818;stroke-width:0.5;" x1="1300" x2="1502" y1="123.3125" y2="123.3125"/><text fill="#000000" font-family="sans-serif" font-size="14" lengthAdjust="spacing" textLength="36" x="1305" y="141.8457">ID: int</text><text fill="#000000" font-family="sans-serif" font-size="14" lengthAdjust="spacing" textLength="111" x="1305" y="159.4551">legalName: String</text><text fill="#000000" font-family="sans-serif" font-size="14" lengthAdjust="spacing" textLength="96" x="1305" y="177.0645">altName: String</text><text fill="#000000" font-family="sans-serif" font-size="14" lengthAdjust="spacing" textLength="90" x="1305" y="194.6738">taxNumber: int</text><line style="stroke:#181818;stroke-width:0.5;" x1="1300" x2="1502" y1="201.75" y2="201.75"/></g><!--class Address--><g id="elem_Address"><rect codeLine="76" fill="#F1F1F1" height="129.1406" id="Address" rx="2.5" ry="2.5" style="stroke:#181818;stroke-width:0.5;" width="129" x="1299.5" y="318.6094"/><ellipse cx="1323.05" cy="339.9609" fill="#ADD1B2" rx="11" ry="11" style="stroke:#181818;stroke-width:1.0;"/><path d="M1325.8156,335.8359 Q1325.9719,335.6172 1326.1594,335.5078 Q1326.3469,335.3984 1326.5656,335.3984 Q1326.9406,335.3984 1327.175,335.6641 Q1327.4094,335.9141 1327.4094,336.5234 L1327.4094,337.9766 Q1327.4094,338.5859 1327.175,338.8516 Q1326.9406,339.1172 1326.5656,339.1172 Q1326.2219,339.1172 1326.0188,338.9141 Q1325.8156,338.7266 1325.7063,338.2109 Q1325.6594,337.8516 1325.4719,337.6641 Q1325.1438,337.2891 1324.5344,337.0703 Q1323.925,336.8516 1323.3,336.8516 Q1322.5344,336.8516 1321.8938,337.1797 Q1321.2688,337.5078 1320.7688,338.2578 Q1320.2844,339.0078 1320.2844,340.0391 L1320.2844,341.1328 Q1320.2844,342.3672 1321.175,343.1953 Q1322.0656,344.0078 1323.6594,344.0078 Q1324.5969,344.0078 1325.2531,343.7578 Q1325.6438,343.6016 1326.0656,343.1641 Q1326.3313,342.8984 1326.4719,342.8203 Q1326.6281,342.7422 1326.8313,342.7422 Q1327.1594,342.7422 1327.4094,343.0078 Q1327.675,343.2578 1327.675,343.6016 Q1327.675,343.9453 1327.3313,344.3516 Q1326.8313,344.9297 1326.0344,345.2578 Q1324.9563,345.7109 1323.6594,345.7109 Q1322.1438,345.7109 1320.9406,345.0859 Q1319.9563,344.5859 1319.2688,343.5234 Q1318.5813,342.4453 1318.5813,341.1641 L1318.5813,340.0078 Q1318.5813,338.6797 1319.1906,337.5391 Q1319.8156,336.3828 1320.9094,335.7734 Q1322.0031,335.1484 1323.2375,335.1484 Q1323.9719,335.1484 1324.6125,335.3203 Q1325.2688,335.4766 1325.8156,335.8359 Z " fill="#000000"/><text fill="#000000" font-family="sans-serif" font-size="12" font-style="italic" lengthAdjust="spacing" textLength="82" x="1336.95" y="336.0664">&#171;ValueObject&#187;</text><text fill="#000000" font-family="sans-serif" font-size="14" lengthAdjust="spacing" textLength="52" x="1351.95" y="353.2363">Address</text><line style="stroke:#181818;stroke-width:0.5;" x1="1300.5" x2="1427.5" y1="361.3125" y2="361.3125"/><text fill="#000000" font-family="sans-serif" font-size="14" lengthAdjust="spacing" textLength="81" x="1305.5" y="379.8457">street: String</text><text fill="#000000" font-family="sans-serif" font-size="14" lengthAdjust="spacing" textLength="66" x="1305.5" y="397.4551">city: String</text><text fill="#000000" font-family="sans-serif" font-size="14" lengthAdjust="spacing" textLength="117" x="1305.5" y="415.0645">postalCode: String</text><text fill="#000000" font-family="sans-serif" font-size="14" lengthAdjust="spacing" textLength="92" x="1305.5" y="432.6738">country: String</text><line style="stroke:#181818;stroke-width:0.5;" x1="1300.5" x2="1427.5" y1="439.75" y2="439.75"/></g><!--class OrganizationRepresentative--><g id="elem_OrganizationRepresentative"><rect codeLine="83" fill="#F1F1F1" height="146.75" id="OrganizationRepresentative" rx="2.5" ry="2.5" style="stroke:#181818;stroke-width:0.5;" width="208" x="1464" y="309.6094"/><ellipse cx="1479" cy="330.9609" fill="#ADD1B2" rx="11" ry="11" style="stroke:#181818;stroke-width:1.0;"/><path d="M1481.7656,326.8359 Q1481.9219,326.6172 1482.1094,326.5078 Q1482.2969,326.3984 1482.5156,326.3984 Q1482.8906,326.3984 1483.125,326.6641 Q1483.3594,326.9141 1483.3594,327.5234 L1483.3594,328.9766 Q1483.3594,329.5859 1483.125,329.8516 Q1482.8906,330.1172 1482.5156,330.1172 Q1482.1719,330.1172 1481.9688,329.9141 Q1481.7656,329.7266 1481.6563,329.2109 Q1481.6094,328.8516 1481.4219,328.6641 Q1481.0938,328.2891 1480.4844,328.0703 Q1479.875,327.8516 1479.25,327.8516 Q1478.4844,327.8516 1477.8438,328.1797 Q1477.2188,328.5078 1476.7188,329.2578 Q1476.2344,330.0078 1476.2344,331.0391 L1476.2344,332.1328 Q1476.2344,333.3672 1477.125,334.1953 Q1478.0156,335.0078 1479.6094,335.0078 Q1480.5469,335.0078 1481.2031,334.7578 Q1481.5938,334.6016 1482.0156,334.1641 Q1482.2813,333.8984 1482.4219,333.8203 Q1482.5781,333.7422 1482.7813,333.7422 Q1483.1094,333.7422 1483.3594,334.0078 Q1483.625,334.2578 1483.625,334.6016 Q1483.625,334.9453 1483.2813,335.3516 Q1482.7813,335.9297 1481.9844,336.2578 Q1480.9063,336.7109 1479.6094,336.7109 Q1478.0938,336.7109 1476.8906,336.0859 Q1475.9063,335.5859 1475.2188,334.5234 Q1474.5313,333.4453 1474.5313,332.1641 L1474.5313,331.0078 Q1474.5313,329.6797 1475.1406,328.5391 Q1475.7656,327.3828 1476.8594,326.7734 Q1477.9531,326.1484 1479.1875,326.1484 Q1479.9219,326.1484 1480.5625,326.3203 Q1481.2188,326.4766 1481.7656,326.8359 Z " fill="#000000"/><text fill="#000000" font-family="sans-serif" font-size="12" font-style="italic" lengthAdjust="spacing" textLength="44" x="1559" y="327.0664">&#171;Entity&#187;</text><text fill="#000000" font-family="sans-serif" font-size="14" lengthAdjust="spacing" textLength="176" x="1493" y="344.2363">OrganizationRepresentative</text><line style="stroke:#181818;stroke-width:0.5;" x1="1465" x2="1671" y1="352.3125" y2="352.3125"/><text fill="#000000" font-family="sans-serif" font-size="14" lengthAdjust="spacing" textLength="80" x="1470" y="370.8457">name: String</text><text fill="#000000" font-family="sans-serif" font-size="14" lengthAdjust="spacing" textLength="36" x="1470" y="388.4551">ID: int</text><text fill="#000000" font-family="sans-serif" font-size="14" lengthAdjust="spacing" textLength="109" x="1470" y="406.0645">nationality: String</text><text fill="#000000" font-family="sans-serif" font-size="14" lengthAdjust="spacing" textLength="78" x="1470" y="423.6738">email: String</text><text fill="#000000" font-family="sans-serif" font-size="14" lengthAdjust="spacing" textLength="112" x="1470" y="441.2832">phoneNumber: int</text><line style="stroke:#181818;stroke-width:0.5;" x1="1465" x2="1671" y1="448.3594" y2="448.3594"/></g><!--class Dock--><g id="elem_Dock"><rect codeLine="93" fill="#F1F1F1" height="146.75" id="Dock" rx="2.5" ry="2.5" style="stroke:#181818;stroke-width:0.5;" width="161" x="1728.5" y="567.1094"/><ellipse cx="1743.5" cy="588.4609" fill="#ADD1B2" rx="11" ry="11" style="stroke:#181818;stroke-width:1.0;"/><path d="M1746.2656,584.3359 Q1746.4219,584.1172 1746.6094,584.0078 Q1746.7969,583.8984 1747.0156,583.8984 Q1747.3906,583.8984 1747.625,584.1641 Q1747.8594,584.4141 1747.8594,585.0234 L1747.8594,586.4766 Q1747.8594,587.0859 1747.625,587.3516 Q1747.3906,587.6172 1747.0156,587.6172 Q1746.6719,587.6172 1746.4688,587.4141 Q1746.2656,587.2266 1746.1563,586.7109 Q1746.1094,586.3516 1745.9219,586.1641 Q1745.5938,585.7891 1744.9844,585.5703 Q1744.375,585.3516 1743.75,585.3516 Q1742.9844,585.3516 1742.3438,585.6797 Q1741.7188,586.0078 1741.2188,586.7578 Q1740.7344,587.5078 1740.7344,588.5391 L1740.7344,589.6328 Q1740.7344,590.8672 1741.625,591.6953 Q1742.5156,592.5078 1744.1094,592.5078 Q1745.0469,592.5078 1745.7031,592.2578 Q1746.0938,592.1016 1746.5156,591.6641 Q1746.7813,591.3984 1746.9219,591.3203 Q1747.0781,591.2422 1747.2813,591.2422 Q1747.6094,591.2422 1747.8594,591.5078 Q1748.125,591.7578 1748.125,592.1016 Q1748.125,592.4453 1747.7813,592.8516 Q1747.2813,593.4297 1746.4844,593.7578 Q1745.4063,594.2109 1744.1094,594.2109 Q1742.5938,594.2109 1741.3906,593.5859 Q1740.4063,593.0859 1739.7188,592.0234 Q1739.0313,590.9453 1739.0313,589.6641 L1739.0313,588.5078 Q1739.0313,587.1797 1739.6406,586.0391 Q1740.2656,584.8828 1741.3594,584.2734 Q1742.4531,583.6484 1743.6875,583.6484 Q1744.4219,583.6484 1745.0625,583.8203 Q1745.7188,583.9766 1746.2656,584.3359 Z " fill="#000000"/><text fill="#000000" font-family="sans-serif" font-size="12" font-style="italic" lengthAdjust="spacing" textLength="133" x="1755.5" y="584.5664">&#171;Entity, AggregateRoot&#187;</text><text fill="#000000" font-family="sans-serif" font-size="14" lengthAdjust="spacing" textLength="32" x="1806" y="601.7363">Dock</text><line style="stroke:#181818;stroke-width:0.5;" x1="1729.5" x2="1888.5" y1="609.8125" y2="609.8125"/><text fill="#000000" font-family="sans-serif" font-size="14" lengthAdjust="spacing" textLength="36" x="1734.5" y="628.3457">ID: int</text><text fill="#000000" font-family="sans-serif" font-size="14" lengthAdjust="spacing" textLength="80" x="1734.5" y="645.9551">name: String</text><text fill="#000000" font-family="sans-serif" font-size="14" lengthAdjust="spacing" textLength="90" x="1734.5" y="663.5645">length: double</text><text fill="#000000" font-family="sans-serif" font-size="14" lengthAdjust="spacing" textLength="87" x="1734.5" y="681.1738">depth: double</text><text fill="#000000" font-family="sans-serif" font-size="14" lengthAdjust="spacing" textLength="79" x="1734.5" y="698.7832">maxDraft: int</text><line style="stroke:#181818;stroke-width:0.5;" x1="1729.5" x2="1888.5" y1="705.8594" y2="705.8594"/></g><!--class StorageArea--><g id="elem_StorageArea"><rect codeLine="101" fill="#F1F1F1" height="129.1406" id="StorageArea" rx="2.5" ry="2.5" style="stroke:#181818;stroke-width:0.5;" width="179" x="1784.5" y="318.6094"/><ellipse cx="1829.75" cy="339.9609" fill="#ADD1B2" rx="11" ry="11" style="stroke:#181818;stroke-width:1.0;"/><path d="M1832.5156,335.8359 Q1832.6719,335.6172 1832.8594,335.5078 Q1833.0469,335.3984 1833.2656,335.3984 Q1833.6406,335.3984 1833.875,335.6641 Q1834.1094,335.9141 1834.1094,336.5234 L1834.1094,337.9766 Q1834.1094,338.5859 1833.875,338.8516 Q1833.6406,339.1172 1833.2656,339.1172 Q1832.9219,339.1172 1832.7188,338.9141 Q1832.5156,338.7266 1832.4063,338.2109 Q1832.3594,337.8516 1832.1719,337.6641 Q1831.8438,337.2891 1831.2344,337.0703 Q1830.625,336.8516 1830,336.8516 Q1829.2344,336.8516 1828.5938,337.1797 Q1827.9688,337.5078 1827.4688,338.2578 Q1826.9844,339.0078 1826.9844,340.0391 L1826.9844,341.1328 Q1826.9844,342.3672 1827.875,343.1953 Q1828.7656,344.0078 1830.3594,344.0078 Q1831.2969,344.0078 1831.9531,343.7578 Q1832.3438,343.6016 1832.7656,343.1641 Q1833.0313,342.8984 1833.1719,342.8203 Q1833.3281,342.7422 1833.5313,342.7422 Q1833.8594,342.7422 1834.1094,343.0078 Q1834.375,343.2578 1834.375,343.6016 Q1834.375,343.9453 1834.0313,344.3516 Q1833.5313,344.9297 1832.7344,345.2578 Q1831.6563,345.7109 1830.3594,345.7109 Q1828.8438,345.7109 1827.6406,345.0859 Q1826.6563,344.5859 1825.9688,343.5234 Q1825.2813,342.4453 1825.2813,341.1641 L1825.2813,340.0078 Q1825.2813,338.6797 1825.8906,337.5391 Q1826.5156,336.3828 1827.6094,335.7734 Q1828.7031,335.1484 1829.9375,335.1484 Q1830.6719,335.1484 1831.3125,335.3203 Q1831.9688,335.4766 1832.5156,335.8359 Z " fill="#000000"/><text fill="#000000" font-family="sans-serif" font-size="12" font-style="italic" lengthAdjust="spacing" textLength="44" x="1868.25" y="336.0664">&#171;Entity&#187;</text><text fill="#000000" font-family="sans-serif" font-size="14" lengthAdjust="spacing" textLength="80" x="1850.25" y="353.2363">StorageArea</text><line style="stroke:#181818;stroke-width:0.5;" x1="1785.5" x2="1962.5" y1="361.3125" y2="361.3125"/><text fill="#000000" font-family="sans-serif" font-size="14" lengthAdjust="spacing" textLength="36" x="1790.5" y="379.8457">ID: int</text><text fill="#000000" font-family="sans-serif" font-size="14" lengthAdjust="spacing" textLength="72" x="1790.5" y="397.4551">type: String</text><text fill="#000000" font-family="sans-serif" font-size="14" lengthAdjust="spacing" textLength="131" x="1790.5" y="415.0645">maxCapacity: double</text><text fill="#000000" font-family="sans-serif" font-size="14" lengthAdjust="spacing" textLength="167" x="1790.5" y="432.6738">currentOccupancy: double</text><line style="stroke:#181818;stroke-width:0.5;" x1="1785.5" x2="1962.5" y1="439.75" y2="439.75"/></g><!--class Location--><g id="elem_Location"><rect codeLine="108" fill="#F1F1F1" height="93.9219" id="Location" rx="2.5" ry="2.5" style="stroke:#181818;stroke-width:0.5;" width="131" x="1851.5" y="857.6094"/><ellipse cx="1875.95" cy="878.9609" fill="#ADD1B2" rx="11" ry="11" style="stroke:#181818;stroke-width:1.0;"/><path d="M1878.7156,874.8359 Q1878.8719,874.6172 1879.0594,874.5078 Q1879.2469,874.3984 1879.4656,874.3984 Q1879.8406,874.3984 1880.075,874.6641 Q1880.3094,874.9141 1880.3094,875.5234 L1880.3094,876.9766 Q1880.3094,877.5859 1880.075,877.8516 Q1879.8406,878.1172 1879.4656,878.1172 Q1879.1219,878.1172 1878.9188,877.9141 Q1878.7156,877.7266 1878.6063,877.2109 Q1878.5594,876.8516 1878.3719,876.6641 Q1878.0438,876.2891 1877.4344,876.0703 Q1876.825,875.8516 1876.2,875.8516 Q1875.4344,875.8516 1874.7938,876.1797 Q1874.1688,876.5078 1873.6688,877.2578 Q1873.1844,878.0078 1873.1844,879.0391 L1873.1844,880.1328 Q1873.1844,881.3672 1874.075,882.1953 Q1874.9656,883.0078 1876.5594,883.0078 Q1877.4969,883.0078 1878.1531,882.7578 Q1878.5438,882.6016 1878.9656,882.1641 Q1879.2313,881.8984 1879.3719,881.8203 Q1879.5281,881.7422 1879.7313,881.7422 Q1880.0594,881.7422 1880.3094,882.0078 Q1880.575,882.2578 1880.575,882.6016 Q1880.575,882.9453 1880.2313,883.3516 Q1879.7313,883.9297 1878.9344,884.2578 Q1877.8563,884.7109 1876.5594,884.7109 Q1875.0438,884.7109 1873.8406,884.0859 Q1872.8563,883.5859 1872.1688,882.5234 Q1871.4813,881.4453 1871.4813,880.1641 L1871.4813,879.0078 Q1871.4813,877.6797 1872.0906,876.5391 Q1872.7156,875.3828 1873.8094,874.7734 Q1874.9031,874.1484 1876.1375,874.1484 Q1876.8719,874.1484 1877.5125,874.3203 Q1878.1688,874.4766 1878.7156,874.8359 Z " fill="#000000"/><text fill="#000000" font-family="sans-serif" font-size="12" font-style="italic" lengthAdjust="spacing" textLength="82" x="1890.05" y="875.0664">&#171;ValueObject&#187;</text><text fill="#000000" font-family="sans-serif" font-size="14" lengthAdjust="spacing" textLength="54" x="1904.05" y="892.2363">Location</text><line style="stroke:#181818;stroke-width:0.5;" x1="1852.5" x2="1981.5" y1="900.3125" y2="900.3125"/><text fill="#000000" font-family="sans-serif" font-size="14" lengthAdjust="spacing" textLength="119" x="1857.5" y="918.8457">coordinates: String</text><text fill="#000000" font-family="sans-serif" font-size="14" lengthAdjust="spacing" textLength="114" x="1857.5" y="936.4551">description: String</text><line style="stroke:#181818;stroke-width:0.5;" x1="1852.5" x2="1981.5" y1="943.5313" y2="943.5313"/></g><!--class StaffMember--><g id="elem_StaffMember"><rect codeLine="115" fill="#F1F1F1" height="146.75" id="StaffMember" rx="2.5" ry="2.5" style="stroke:#181818;stroke-width:0.5;" width="177" x="2075.5" y="309.6094"/><ellipse cx="2097.7" cy="330.9609" fill="#ADD1B2" rx="11" ry="11" style="stroke:#181818;stroke-width:1.0;"/><path d="M2100.4656,326.8359 Q2100.6219,326.6172 2100.8094,326.5078 Q2100.9969,326.3984 2101.2156,326.3984 Q2101.5906,326.3984 2101.825,326.6641 Q2102.0594,326.9141 2102.0594,327.5234 L2102.0594,328.9766 Q2102.0594,329.5859 2101.825,329.8516 Q2101.5906,330.1172 2101.2156,330.1172 Q2100.8719,330.1172 2100.6688,329.9141 Q2100.4656,329.7266 2100.3563,329.2109 Q2100.3094,328.8516 2100.1219,328.6641 Q2099.7938,328.2891 2099.1844,328.0703 Q2098.575,327.8516 2097.95,327.8516 Q2097.1844,327.8516 2096.5438,328.1797 Q2095.9188,328.5078 2095.4188,329.2578 Q2094.9344,330.0078 2094.9344,331.0391 L2094.9344,332.1328 Q2094.9344,333.3672 2095.825,334.1953 Q2096.7156,335.0078 2098.3094,335.0078 Q2099.2469,335.0078 2099.9031,334.7578 Q2100.2938,334.6016 2100.7156,334.1641 Q2100.9813,333.8984 2101.1219,333.8203 Q2101.2781,333.7422 2101.4813,333.7422 Q2101.8094,333.7422 2102.0594,334.0078 Q2102.325,334.2578 2102.325,334.6016 Q2102.325,334.9453 2101.9813,335.3516 Q2101.4813,335.9297 2100.6844,336.2578 Q2099.6063,336.7109 2098.3094,336.7109 Q2096.7938,336.7109 2095.5906,336.0859 Q2094.6063,335.5859 2093.9188,334.5234 Q2093.2313,333.4453 2093.2313,332.1641 L2093.2313,331.0078 Q2093.2313,329.6797 2093.8406,328.5391 Q2094.4656,327.3828 2095.5594,326.7734 Q2096.6531,326.1484 2097.8875,326.1484 Q2098.6219,326.1484 2099.2625,326.3203 Q2099.9188,326.4766 2100.4656,326.8359 Z " fill="#000000"/><text fill="#000000" font-family="sans-serif" font-size="12" font-style="italic" lengthAdjust="spacing" textLength="133" x="2111.3" y="327.0664">&#171;Entity, AggregateRoot&#187;</text><text fill="#000000" font-family="sans-serif" font-size="14" lengthAdjust="spacing" textLength="80" x="2137.8" y="344.2363">StaffMember</text><line style="stroke:#181818;stroke-width:0.5;" x1="2076.5" x2="2251.5" y1="352.3125" y2="352.3125"/><text fill="#000000" font-family="sans-serif" font-size="14" lengthAdjust="spacing" textLength="36" x="2081.5" y="370.8457">ID: int</text><text fill="#000000" font-family="sans-serif" font-size="14" lengthAdjust="spacing" textLength="80" x="2081.5" y="388.4551">name: String</text><text fill="#000000" font-family="sans-serif" font-size="14" lengthAdjust="spacing" textLength="78" x="2081.5" y="406.0645">email: String</text><text fill="#000000" font-family="sans-serif" font-size="14" lengthAdjust="spacing" textLength="112" x="2081.5" y="423.6738">phoneNumber: int</text><text fill="#000000" font-family="sans-serif" font-size="14" lengthAdjust="spacing" textLength="165" x="2081.5" y="441.2832">operationalWindow: String</text><line style="stroke:#181818;stroke-width:0.5;" x1="2076.5" x2="2251.5" y1="448.3594" y2="448.3594"/></g><!--class MemberStatus--><g id="elem_MemberStatus"><rect codeLine="123" fill="#F1F1F1" height="65.6094" id="MemberStatus" rx="2.5" ry="2.5" style="stroke:#181818;stroke-width:0.5;" width="123" x="2075.5" y="607.6094"/><ellipse cx="2090.5" cy="623.6094" fill="#EB937F" rx="11" ry="11" style="stroke:#181818;stroke-width:1.0;"/><path d="M2089.3594,624.4063 L2089.3594,626.9063 L2093.6875,626.9063 L2093.6875,625.9844 Q2093.6875,625.375 2093.9219,625.1094 Q2094.1719,624.8438 2094.5469,624.8438 Q2094.9219,624.8438 2095.1563,625.1094 Q2095.3906,625.375 2095.3906,625.9844 L2095.3906,628.6094 L2087.3906,628.6094 Q2086.7656,628.6094 2086.5,628.375 Q2086.25,628.1406 2086.25,627.75 Q2086.25,627.375 2086.5156,627.1406 Q2086.7813,626.9063 2087.3906,626.9063 L2087.6563,626.9063 L2087.6563,620.25 L2087.3906,620.25 Q2086.7656,620.25 2086.5,620.0156 Q2086.25,619.7813 2086.25,619.3906 Q2086.25,619.0156 2086.5,618.7813 Q2086.7656,618.5469 2087.3906,618.5469 L2095.0156,618.5469 L2095.0156,621.1406 Q2095.0156,621.75 2094.7813,622.0156 Q2094.5625,622.2656 2094.1719,622.2656 Q2093.7969,622.2656 2093.5625,622.0156 Q2093.3281,621.75 2093.3281,621.1406 L2093.3281,620.25 L2089.3594,620.25 L2089.3594,622.7031 L2090.8438,622.7031 Q2090.8438,622.0469 2090.9688,621.8594 Q2091.2344,621.4531 2091.7031,621.4531 Q2092.0781,621.4531 2092.3125,621.7188 Q2092.5469,621.9688 2092.5469,622.5781 L2092.5469,624.5469 Q2092.5469,625.0938 2092.4219,625.2813 Q2092.1563,625.6719 2091.7031,625.6719 Q2091.2344,625.6719 2090.9688,625.2656 Q2090.8438,625.0781 2090.8438,624.4063 L2089.3594,624.4063 Z " fill="#000000"/><text fill="#000000" font-family="sans-serif" font-size="14" lengthAdjust="spacing" textLength="91" x="2104.5" y="629.3379">MemberStatus</text><line style="stroke:#181818;stroke-width:0.5;" x1="2076.5" x2="2197.5" y1="639.6094" y2="639.6094"/><text fill="#000000" font-family="sans-serif" font-size="14" lengthAdjust="spacing" textLength="80" x="2081.5" y="658.1426">name: String</text><line style="stroke:#181818;stroke-width:0.5;" x1="2076.5" x2="2197.5" y1="665.2188" y2="665.2188"/></g><!--class Qualification--><g id="elem_Qualification"><rect codeLine="129" fill="#F1F1F1" height="111.5313" id="Qualification" rx="2.5" ry="2.5" style="stroke:#181818;stroke-width:0.5;" width="161" x="2162.5" y="848.6094"/><ellipse cx="2177.5" cy="869.9609" fill="#ADD1B2" rx="11" ry="11" style="stroke:#181818;stroke-width:1.0;"/><path d="M2180.2656,865.8359 Q2180.4219,865.6172 2180.6094,865.5078 Q2180.7969,865.3984 2181.0156,865.3984 Q2181.3906,865.3984 2181.625,865.6641 Q2181.8594,865.9141 2181.8594,866.5234 L2181.8594,867.9766 Q2181.8594,868.5859 2181.625,868.8516 Q2181.3906,869.1172 2181.0156,869.1172 Q2180.6719,869.1172 2180.4688,868.9141 Q2180.2656,868.7266 2180.1563,868.2109 Q2180.1094,867.8516 2179.9219,867.6641 Q2179.5938,867.2891 2178.9844,867.0703 Q2178.375,866.8516 2177.75,866.8516 Q2176.9844,866.8516 2176.3438,867.1797 Q2175.7188,867.5078 2175.2188,868.2578 Q2174.7344,869.0078 2174.7344,870.0391 L2174.7344,871.1328 Q2174.7344,872.3672 2175.625,873.1953 Q2176.5156,874.0078 2178.1094,874.0078 Q2179.0469,874.0078 2179.7031,873.7578 Q2180.0938,873.6016 2180.5156,873.1641 Q2180.7813,872.8984 2180.9219,872.8203 Q2181.0781,872.7422 2181.2813,872.7422 Q2181.6094,872.7422 2181.8594,873.0078 Q2182.125,873.2578 2182.125,873.6016 Q2182.125,873.9453 2181.7813,874.3516 Q2181.2813,874.9297 2180.4844,875.2578 Q2179.4063,875.7109 2178.1094,875.7109 Q2176.5938,875.7109 2175.3906,875.0859 Q2174.4063,874.5859 2173.7188,873.5234 Q2173.0313,872.4453 2173.0313,871.1641 L2173.0313,870.0078 Q2173.0313,868.6797 2173.6406,867.5391 Q2174.2656,866.3828 2175.3594,865.7734 Q2176.4531,865.1484 2177.6875,865.1484 Q2178.4219,865.1484 2179.0625,865.3203 Q2179.7188,865.4766 2180.2656,865.8359 Z " fill="#000000"/><text fill="#000000" font-family="sans-serif" font-size="12" font-style="italic" lengthAdjust="spacing" textLength="133" x="2189.5" y="866.0664">&#171;Entity, AggregateRoot&#187;</text><text fill="#000000" font-family="sans-serif" font-size="14" lengthAdjust="spacing" textLength="78" x="2217" y="883.2363">Qualification</text><line style="stroke:#181818;stroke-width:0.5;" x1="2163.5" x2="2322.5" y1="891.3125" y2="891.3125"/><text fill="#000000" font-family="sans-serif" font-size="14" lengthAdjust="spacing" textLength="36" x="2168.5" y="909.8457">ID: int</text><text fill="#000000" font-family="sans-serif" font-size="14" lengthAdjust="spacing" textLength="80" x="2168.5" y="927.4551">name: String</text><text fill="#000000" font-family="sans-serif" font-size="14" lengthAdjust="spacing" textLength="114" x="2168.5" y="945.0645">description: String</text><line style="stroke:#181818;stroke-width:0.5;" x1="2163.5" x2="2322.5" y1="952.1406" y2="952.1406"/></g><!--class PhysicalResource--><g id="elem_PhysicalResource"><rect codeLine="137" fill="#F1F1F1" height="164.3594" id="PhysicalResource" rx="2.5" ry="2.5" style="stroke:#181818;stroke-width:0.5;" width="179" x="2380.5" y="558.6094"/><ellipse cx="2403.6" cy="579.9609" fill="#ADD1B2" rx="11" ry="11" style="stroke:#181818;stroke-width:1.0;"/><path d="M2406.3656,575.8359 Q2406.5219,575.6172 2406.7094,575.5078 Q2406.8969,575.3984 2407.1156,575.3984 Q2407.4906,575.3984 2407.725,575.6641 Q2407.9594,575.9141 2407.9594,576.5234 L2407.9594,577.9766 Q2407.9594,578.5859 2407.725,578.8516 Q2407.4906,579.1172 2407.1156,579.1172 Q2406.7719,579.1172 2406.5688,578.9141 Q2406.3656,578.7266 2406.2563,578.2109 Q2406.2094,577.8516 2406.0219,577.6641 Q2405.6938,577.2891 2405.0844,577.0703 Q2404.475,576.8516 2403.85,576.8516 Q2403.0844,576.8516 2402.4438,577.1797 Q2401.8188,577.5078 2401.3188,578.2578 Q2400.8344,579.0078 2400.8344,580.0391 L2400.8344,581.1328 Q2400.8344,582.3672 2401.725,583.1953 Q2402.6156,584.0078 2404.2094,584.0078 Q2405.1469,584.0078 2405.8031,583.7578 Q2406.1938,583.6016 2406.6156,583.1641 Q2406.8813,582.8984 2407.0219,582.8203 Q2407.1781,582.7422 2407.3813,582.7422 Q2407.7094,582.7422 2407.9594,583.0078 Q2408.225,583.2578 2408.225,583.6016 Q2408.225,583.9453 2407.8813,584.3516 Q2407.3813,584.9297 2406.5844,585.2578 Q2405.5063,585.7109 2404.2094,585.7109 Q2402.6938,585.7109 2401.4906,585.0859 Q2400.5063,584.5859 2399.8188,583.5234 Q2399.1313,582.4453 2399.1313,581.1641 L2399.1313,580.0078 Q2399.1313,578.6797 2399.7406,577.5391 Q2400.3656,576.3828 2401.4594,575.7734 Q2402.5531,575.1484 2403.7875,575.1484 Q2404.5219,575.1484 2405.1625,575.3203 Q2405.8188,575.4766 2406.3656,575.8359 Z " fill="#000000"/><text fill="#000000" font-family="sans-serif" font-size="12" font-style="italic" lengthAdjust="spacing" textLength="133" x="2417.4" y="576.0664">&#171;Entity, AggregateRoot&#187;</text><text fill="#000000" font-family="sans-serif" font-size="14" lengthAdjust="spacing" textLength="113" x="2427.4" y="593.2363">PhysicalResource</text><line style="stroke:#181818;stroke-width:0.5;" x1="2381.5" x2="2558.5" y1="601.3125" y2="601.3125"/><text fill="#000000" font-family="sans-serif" font-size="14" lengthAdjust="spacing" textLength="58" x="2386.5" y="619.8457">ID: String</text><text fill="#000000" font-family="sans-serif" font-size="14" lengthAdjust="spacing" textLength="80" x="2386.5" y="637.4551">name: String</text><text fill="#000000" font-family="sans-serif" font-size="14" lengthAdjust="spacing" textLength="114" x="2386.5" y="655.0645">description: String</text><text fill="#000000" font-family="sans-serif" font-size="14" lengthAdjust="spacing" textLength="149" x="2386.5" y="672.6738">operationalCapacity: int</text><text fill="#000000" font-family="sans-serif" font-size="14" lengthAdjust="spacing" textLength="111" x="2386.5" y="690.2832">setupTime: String</text><text fill="#000000" font-family="sans-serif" font-size="14" lengthAdjust="spacing" textLength="167" x="2386.5" y="707.8926">qualifRequirements: String</text><line style="stroke:#181818;stroke-width:0.5;" x1="2381.5" x2="2558.5" y1="714.9688" y2="714.9688"/></g><!--class ResourceStatus--><g id="elem_ResourceStatus"><rect codeLine="146" fill="#F1F1F1" height="65.6094" id="ResourceStatus" rx="2.5" ry="2.5" style="stroke:#181818;stroke-width:0.5;" width="133" x="2403.5" y="871.6094"/><ellipse cx="2418.5" cy="887.6094" fill="#EB937F" rx="11" ry="11" style="stroke:#181818;stroke-width:1.0;"/><path d="M2417.3594,888.4063 L2417.3594,890.9063 L2421.6875,890.9063 L2421.6875,889.9844 Q2421.6875,889.375 2421.9219,889.1094 Q2422.1719,888.8438 2422.5469,888.8438 Q2422.9219,888.8438 2423.1563,889.1094 Q2423.3906,889.375 2423.3906,889.9844 L2423.3906,892.6094 L2415.3906,892.6094 Q2414.7656,892.6094 2414.5,892.375 Q2414.25,892.1406 2414.25,891.75 Q2414.25,891.375 2414.5156,891.1406 Q2414.7813,890.9063 2415.3906,890.9063 L2415.6563,890.9063 L2415.6563,884.25 L2415.3906,884.25 Q2414.7656,884.25 2414.5,884.0156 Q2414.25,883.7813 2414.25,883.3906 Q2414.25,883.0156 2414.5,882.7813 Q2414.7656,882.5469 2415.3906,882.5469 L2423.0156,882.5469 L2423.0156,885.1406 Q2423.0156,885.75 2422.7813,886.0156 Q2422.5625,886.2656 2422.1719,886.2656 Q2421.7969,886.2656 2421.5625,886.0156 Q2421.3281,885.75 2421.3281,885.1406 L2421.3281,884.25 L2417.3594,884.25 L2417.3594,886.7031 L2418.8438,886.7031 Q2418.8438,886.0469 2418.9688,885.8594 Q2419.2344,885.4531 2419.7031,885.4531 Q2420.0781,885.4531 2420.3125,885.7188 Q2420.5469,885.9688 2420.5469,886.5781 L2420.5469,888.5469 Q2420.5469,889.0938 2420.4219,889.2813 Q2420.1563,889.6719 2419.7031,889.6719 Q2419.2344,889.6719 2418.9688,889.2656 Q2418.8438,889.0781 2418.8438,888.4063 L2417.3594,888.4063 Z " fill="#000000"/><text fill="#000000" font-family="sans-serif" font-size="14" lengthAdjust="spacing" textLength="101" x="2432.5" y="893.3379">ResourceStatus</text><line style="stroke:#181818;stroke-width:0.5;" x1="2404.5" x2="2535.5" y1="903.6094" y2="903.6094"/><text fill="#000000" font-family="sans-serif" font-size="14" lengthAdjust="spacing" textLength="80" x="2409.5" y="922.1426">name: String</text><line style="stroke:#181818;stroke-width:0.5;" x1="2404.5" x2="2535.5" y1="929.2188" y2="929.2188"/></g><!--link Vessel to VesselType--><g id="link_Vessel_VesselType"><path codeLine="151" d="M332.12,687.8494 C365.17,725.0094 408.4224,773.6461 447.7624,817.8761 " fill="none" id="Vessel-to-VesselType" style="stroke:#181818;stroke-width:1.0;"/><polygon fill="#181818" points="451.75,822.3594,448.7575,812.9762,448.427,818.6234,442.7798,818.2929,451.75,822.3594" style="stroke:#181818;stroke-width:1.0;"/><text fill="#000000" font-family="sans-serif" font-size="13" lengthAdjust="spacing" textLength="21" x="402" y="767.1045">has</text><text fill="#000000" font-family="sans-serif" font-size="13" lengthAdjust="spacing" textLength="5" x="332.5509" y="709.1428">*</text><text fill="#000000" font-family="sans-serif" font-size="13" lengthAdjust="spacing" textLength="7" x="438.0035" y="811.8163">1</text></g><!--link Vessel to Owner--><g id="link_Vessel_Owner"><path codeLine="152" d="M225.64,687.8994 C194.31,712.3494 157.84,744.3594 131,778.6094 C112.34,802.4194 99.3493,827.1488 88.4393,851.9088 " fill="none" id="Vessel-to-Owner" style="stroke:#181818;stroke-width:1.0;"/><polygon fill="#181818" points="86.02,857.3994,93.3094,850.7763,88.0361,852.8239,85.9886,847.5506,86.02,857.3994" style="stroke:#181818;stroke-width:1.0;"/><text fill="#000000" font-family="sans-serif" font-size="13" lengthAdjust="spacing" textLength="21" x="155" y="767.1045">has</text><text fill="#000000" font-family="sans-serif" font-size="13" lengthAdjust="spacing" textLength="5" x="211.5213" y="708.853">*</text><text fill="#000000" font-family="sans-serif" font-size="13" lengthAdjust="spacing" textLength="20" x="67.1979" y="846.8171">1..*</text></g><!--link Dock to VesselType--><g id="link_Dock_VesselType"><path codeLine="153" d="M1728.46,666.3194 C1622.16,697.5694 1428.63,749.8294 1259,770.6094 C1225.97,774.6594 690.93,766.3194 660,778.6094 C635.56,788.3194 617.2861,800.6216 597.6661,818.3116 " fill="none" id="Dock-to-VesselType" style="stroke:#181818;stroke-width:1.0;"/><polygon fill="#181818" points="593.21,822.3294,602.5728,819.2734,596.9235,818.9812,597.2157,813.3319,593.21,822.3294" style="stroke:#181818;stroke-width:1.0;"/><text fill="#000000" font-family="sans-serif" font-size="13" lengthAdjust="spacing" textLength="21" x="1367" y="767.1045">has</text><text fill="#000000" font-family="sans-serif" font-size="13" lengthAdjust="spacing" textLength="5" x="1715.5453" y="665.5311">*</text><text fill="#000000" font-family="sans-serif" font-size="13" lengthAdjust="spacing" textLength="5" x="594.1514" y="811.7836">*</text></g><!--link Dock to Location--><g id="link_Dock_Location"><path codeLine="154" d="M1838.94,714.2394 C1857.79,759.9794 1879.2731,812.0923 1895.6031,851.7023 " fill="none" id="Dock-to-Location" style="stroke:#181818;stroke-width:1.0;"/><polygon fill="#181818" points="1897.89,857.2494,1898.1577,847.4042,1895.9843,852.6268,1890.7616,850.4533,1897.89,857.2494" style="stroke:#181818;stroke-width:1.0;"/><text fill="#000000" font-family="sans-serif" font-size="13" lengthAdjust="spacing" textLength="57" x="1861" y="767.1045">located at</text><text fill="#000000" font-family="sans-serif" font-size="13" lengthAdjust="spacing" textLength="7" x="1834.3774" y="735.2875">1</text><text fill="#000000" font-family="sans-serif" font-size="13" lengthAdjust="spacing" textLength="7" x="1887.5692" y="846.645">1</text></g><!--link StorageArea to Location--><g id="link_StorageArea_Location"><path codeLine="155" d="M1892.31,447.7194 C1897.79,468.8494 1903.32,492.5994 1907,514.6094 C1925.83,627.1694 1931.28,656.5694 1927,770.6094 C1925.91,799.5294 1924.0097,825.9411 1921.8297,851.5111 " fill="none" id="StorageArea-to-Location" style="stroke:#181818;stroke-width:1.0;"/><polygon fill="#181818" points="1921.32,857.4894,1926.0701,848.8617,1921.7447,852.5074,1918.099,848.1821,1921.32,857.4894" style="stroke:#181818;stroke-width:1.0;"/><text fill="#000000" font-family="sans-serif" font-size="13" lengthAdjust="spacing" textLength="57" x="1930" y="646.1045">located at</text><text fill="#000000" font-family="sans-serif" font-size="13" lengthAdjust="spacing" textLength="7" x="1886.9298" y="469.1677">1</text><text fill="#000000" font-family="sans-serif" font-size="13" lengthAdjust="spacing" textLength="7" x="1914.4404" y="846.9203">1</text></g><!--link StorageArea to Dock--><g id="link_StorageArea_Dock"><path codeLine="156" d="M1857.77,447.9194 C1848.59,483.9894 1838.5704,523.3949 1829.0304,560.8649 " fill="none" id="StorageArea-to-Dock" style="stroke:#181818;stroke-width:1.0;"/><polygon fill="#181818" points="1827.55,566.6794,1833.6469,558.9446,1828.7837,561.834,1825.8943,556.9707,1827.55,566.6794" style="stroke:#181818;stroke-width:1.0;"/><text fill="#000000" font-family="sans-serif" font-size="13" lengthAdjust="spacing" textLength="37" x="1849" y="503.1045">serves</text><text fill="#000000" font-family="sans-serif" font-size="13" lengthAdjust="spacing" textLength="5" x="1850.7214" y="469.3896">*</text><text fill="#000000" font-family="sans-serif" font-size="13" lengthAdjust="spacing" textLength="5" x="1824.1299" y="556.1391">*</text></g><!--link ShippingAgentOrganization to OrganizationRepresentative--><g id="link_ShippingAgentOrganization_OrganizationRepresentative"><path codeLine="157" d="M1445.97,209.6594 C1467.71,240.3794 1490.4447,272.5012 1512.9847,304.3612 " fill="none" id="ShippingAgentOrganization-to-OrganizationRepresentative" style="stroke:#181818;stroke-width:1.0;"/><polygon fill="#181818" points="1516.45,309.2594,1514.5175,299.602,1513.5623,305.1776,1507.9866,304.2224,1516.45,309.2594" style="stroke:#181818;stroke-width:1.0;"/><text fill="#000000" font-family="sans-serif" font-size="13" lengthAdjust="spacing" textLength="21" x="1481" y="254.1045">has</text><text fill="#000000" font-family="sans-serif" font-size="13" lengthAdjust="spacing" textLength="7" x="1443.5058" y="231.1012">1</text><text fill="#000000" font-family="sans-serif" font-size="13" lengthAdjust="spacing" textLength="20" x="1490.3912" y="298.727">1..*</text></g><!--link ShippingAgentOrganization to Vessel--><g id="link_ShippingAgentOrganization_Vessel"><path codeLine="158" d="M1298.71,153.7594 C1117.81,168.6594 749.85,205.4594 637,265.6094 C488.88,344.5594 373.4592,506.8797 321.9692,588.2197 " fill="none" id="ShippingAgentOrganization-to-Vessel" style="stroke:#181818;stroke-width:1.0;"/><polygon fill="#181818" points="318.76,593.2894,326.9535,587.8244,321.4343,589.0647,320.194,583.5455,318.76,593.2894" style="stroke:#181818;stroke-width:1.0;"/><text fill="#000000" font-family="sans-serif" font-size="13" lengthAdjust="spacing" textLength="21" x="638" y="388.6045">has</text><text fill="#000000" font-family="sans-serif" font-size="13" lengthAdjust="spacing" textLength="7" x="1283.941" y="151.31">1</text><text fill="#000000" font-family="sans-serif" font-size="13" lengthAdjust="spacing" textLength="5" x="317.4701" y="582.6909">*</text></g><!--link ShippingAgentOrganization to Address--><g id="link_ShippingAgentOrganization_Address"><path codeLine="159" d="M1391.04,209.6594 C1385.75,243.3894 1380.1994,278.7718 1374.9094,312.5118 " fill="none" id="ShippingAgentOrganization-to-Address" style="stroke:#181818;stroke-width:1.0;"/><polygon fill="#181818" points="1373.98,318.4394,1379.3258,310.1676,1374.7545,313.4997,1371.4223,308.9284,1373.98,318.4394" style="stroke:#181818;stroke-width:1.0;"/><text fill="#000000" font-family="sans-serif" font-size="13" lengthAdjust="spacing" textLength="57" x="1387" y="254.1045">located at</text><text fill="#000000" font-family="sans-serif" font-size="13" lengthAdjust="spacing" textLength="7" x="1382.5678" y="231.1012">1</text><text fill="#000000" font-family="sans-serif" font-size="13" lengthAdjust="spacing" textLength="20" x="1353.9777" y="307.5442">1..*</text></g><!--link VesselVisitNotification to Vessel--><g id="link_VesselVisitNotification_Vessel"><path codeLine="160" d="M870.76,431.2694 C724.71,483.7594 498.9363,564.8799 377.3563,608.5799 " fill="none" id="VesselVisitNotification-to-Vessel" style="stroke:#181818;stroke-width:1.0;"/><polygon fill="#181818" points="371.71,610.6094,381.5325,611.3294,376.4153,608.9181,378.8265,603.8009,371.71,610.6094" style="stroke:#181818;stroke-width:1.0;"/><text fill="#000000" font-family="sans-serif" font-size="13" lengthAdjust="spacing" textLength="21" x="712" y="503.1045">has</text><text fill="#000000" font-family="sans-serif" font-size="13" lengthAdjust="spacing" textLength="5" x="858.0282" y="431.0923">*</text><text fill="#000000" font-family="sans-serif" font-size="13" lengthAdjust="spacing" textLength="7" x="379.4731" y="604.6212">1</text></g><!--link VesselVisitNotification to Dock--><g id="link_VesselVisitNotification_Dock"><path codeLine="161" d="M1133.18,430.2894 C1180.3,446.5794 1233.91,464.7694 1283,480.6094 C1439.84,531.2294 1618.7705,584.2476 1722.3005,614.4776 " fill="none" id="VesselVisitNotification-to-Dock" style="stroke:#181818;stroke-width:1.0;"/><polygon fill="#181818" points="1728.06,616.1594,1720.5419,609.7971,1723.2604,614.7579,1718.2996,617.4764,1728.06,616.1594" style="stroke:#181818;stroke-width:1.0;"/><text fill="#000000" font-family="sans-serif" font-size="13" lengthAdjust="spacing" textLength="49" x="1356" y="503.1045">happens</text><text fill="#000000" font-family="sans-serif" font-size="13" lengthAdjust="spacing" textLength="5" x="1140.9084" y="430.0557">*</text><text fill="#000000" font-family="sans-serif" font-size="13" lengthAdjust="spacing" textLength="7" x="1713.5396" y="610.7912">1</text></g><!--link Vessel to Cargo--><g id="link_Vessel_Cargo"><path codeLine="162" d="M276.18,687.8494 C260.87,735.5894 238.9512,803.9456 223.6512,851.6856 " fill="none" id="Vessel-to-Cargo" style="stroke:#181818;stroke-width:1.0;"/><polygon fill="#181818" points="221.82,857.3994,228.3759,850.0495,223.346,852.6379,220.7576,847.608,221.82,857.3994" style="stroke:#181818;stroke-width:1.0;"/><text fill="#000000" font-family="sans-serif" font-size="13" lengthAdjust="spacing" textLength="21" x="256" y="767.1045">has</text><text fill="#000000" font-family="sans-serif" font-size="13" lengthAdjust="spacing" textLength="7" x="266.6038" y="709.1428">1</text><text fill="#000000" font-family="sans-serif" font-size="13" lengthAdjust="spacing" textLength="5" x="218.6295" y="846.8171">*</text></g><!--link LoadingCargoManifest to ManifestCargo--><g id="link_LoadingCargoManifest_ManifestCargo"><path codeLine="163" d="M940.52,670.1494 C952.39,715.2394 974.0818,797.5973 988.3418,851.7373 " fill="none" id="LoadingCargoManifest-to-ManifestCargo" style="stroke:#181818;stroke-width:1.0;"/><polygon fill="#181818" points="989.87,857.5394,991.4457,847.8174,988.5965,852.7043,983.7096,849.855,989.87,857.5394" style="stroke:#181818;stroke-width:1.0;"/><text fill="#000000" font-family="sans-serif" font-size="13" lengthAdjust="spacing" textLength="21" x="967" y="767.1045">has</text><text fill="#000000" font-family="sans-serif" font-size="13" lengthAdjust="spacing" textLength="7" x="934.3491" y="691.454">1</text><text fill="#000000" font-family="sans-serif" font-size="13" lengthAdjust="spacing" textLength="5" x="982.6298" y="846.6348">*</text></g><!--link UnloadingCargoManifest to ManifestCargo--><g id="link_UnloadingCargoManifest_ManifestCargo"><path codeLine="164" d="M1132.99,670.1494 C1107.69,715.2394 1061.1662,798.1669 1030.7862,852.3069 " fill="none" id="UnloadingCargoManifest-to-ManifestCargo" style="stroke:#181818;stroke-width:1.0;"/><polygon fill="#181818" points="1027.85,857.5394,1035.7426,851.6481,1030.2968,853.179,1028.7659,847.7332,1027.85,857.5394" style="stroke:#181818;stroke-width:1.0;"/><text fill="#000000" font-family="sans-serif" font-size="13" lengthAdjust="spacing" textLength="21" x="1086" y="767.1045">has</text><text fill="#000000" font-family="sans-serif" font-size="13" lengthAdjust="spacing" textLength="7" x="1121.9661" y="691.454">1</text><text fill="#000000" font-family="sans-serif" font-size="13" lengthAdjust="spacing" textLength="5" x="1026.4255" y="846.6348">*</text></g><!--link VesselVisitNotification to LoadingCargoManifest--><g id="link_VesselVisitNotification_LoadingCargoManifest"><path codeLine="165" d="M984.77,447.9194 C970.64,500.2494 952.8644,566.0569 942.2744,605.2669 " fill="none" id="VesselVisitNotification-to-LoadingCargoManifest" style="stroke:#181818;stroke-width:1.0;"/><polygon fill="#181818" points="940.71,611.0594,946.9183,603.4137,942.0137,606.2323,939.195,601.3277,940.71,611.0594" style="stroke:#181818;stroke-width:1.0;"/><text fill="#000000" font-family="sans-serif" font-size="13" lengthAdjust="spacing" textLength="21" x="975" y="503.1045">has</text><text fill="#000000" font-family="sans-serif" font-size="13" lengthAdjust="spacing" textLength="7" x="975.5027" y="469.3896">1</text><text fill="#000000" font-family="sans-serif" font-size="13" lengthAdjust="spacing" textLength="22" x="917.9903" y="600.4114">0..1</text></g><!--link VesselVisitNotification to UnloadingCargoManifest--><g id="link_VesselVisitNotification_UnloadingCargoManifest"><path codeLine="166" d="M1038.72,447.9194 C1068.82,500.2494 1107.0278,566.6488 1129.5878,605.8588 " fill="none" id="VesselVisitNotification-to-UnloadingCargoManifest" style="stroke:#181818;stroke-width:1.0;"/><polygon fill="#181818" points="1132.58,611.0594,1131.5587,601.2636,1130.0865,606.7255,1124.6245,605.2533,1132.58,611.0594" style="stroke:#181818;stroke-width:1.0;"/><text fill="#000000" font-family="sans-serif" font-size="13" lengthAdjust="spacing" textLength="21" x="1073" y="503.1045">has</text><text fill="#000000" font-family="sans-serif" font-size="13" lengthAdjust="spacing" textLength="7" x="1035.3534" y="469.3896">1</text><text fill="#000000" font-family="sans-serif" font-size="13" lengthAdjust="spacing" textLength="22" x="1104.5819" y="600.4114">0..1</text></g><!--link VesselVisitNotification to NotificationState--><g id="link_VesselVisitNotification_NotificationState"><path codeLine="167" d="M905.19,447.8994 C878.68,467.6394 850.95,490.5794 828,514.6094 C800.91,542.9894 779.512,575.6777 763.872,602.2677 " fill="none" id="VesselVisitNotification-to-NotificationState" style="stroke:#181818;stroke-width:1.0;"/><polygon fill="#181818" points="760.83,607.4394,768.8407,601.7098,763.365,603.1296,761.9451,597.6538,760.83,607.4394" style="stroke:#181818;stroke-width:1.0;"/><text fill="#000000" font-family="sans-serif" font-size="13" lengthAdjust="spacing" textLength="21" x="855" y="503.1045">has</text><text fill="#000000" font-family="sans-serif" font-size="13" lengthAdjust="spacing" textLength="5" x="889.328" y="469.3674">*</text><text fill="#000000" font-family="sans-serif" font-size="13" lengthAdjust="spacing" textLength="7" x="756.7856" y="596.5197">1</text></g><!--link Vessel to Crew--><g id="link_Vessel_Crew"><path codeLine="168" d="M298.94,687.8494 C307.67,738.6794 320.515,813.4258 328.575,860.3858 " fill="none" id="Vessel-to-Crew" style="stroke:#181818;stroke-width:1.0;"/><polygon fill="#181818" points="329.59,866.2994,332.0099,856.7524,328.7442,861.3714,324.1252,858.1057,329.59,866.2994" style="stroke:#181818;stroke-width:1.0;"/><text fill="#000000" font-family="sans-serif" font-size="13" lengthAdjust="spacing" textLength="21" x="314" y="767.1045">has</text><text fill="#000000" font-family="sans-serif" font-size="13" lengthAdjust="spacing" textLength="7" x="292.5644" y="709.1428">1</text><text fill="#000000" font-family="sans-serif" font-size="13" lengthAdjust="spacing" textLength="7" x="320.8867" y="855.8383">1</text></g><!--link Crew to CrewMember--><g id="link_Crew_CrewMember"><path codeLine="169" d="M331.21,942.6794 C326.88,976.1794 321.1886,1020.2688 316.0286,1060.2188 " fill="none" id="Crew-to-CrewMember" style="stroke:#181818;stroke-width:1.0;"/><polygon fill="#181818" points="315.26,1066.1694,320.3799,1057.7559,315.9005,1061.2106,312.4458,1056.7311,315.26,1066.1694" style="stroke:#181818;stroke-width:1.0;"/><text fill="#000000" font-family="sans-serif" font-size="13" lengthAdjust="spacing" textLength="21" x="322" y="1033.1045">has</text><text fill="#000000" font-family="sans-serif" font-size="13" lengthAdjust="spacing" textLength="7" x="322.7333" y="964.3842">1</text><text fill="#000000" font-family="sans-serif" font-size="13" lengthAdjust="spacing" textLength="5" x="310.89" y="1055.6982">*</text></g><!--link ShippingAgentOrganization to VesselVisitNotification--><g id="link_ShippingAgentOrganization_VesselVisitNotification"><path codeLine="170" d="M1298.77,206.5794 C1240.81,240.8594 1173.5241,280.6545 1114.7141,315.4445 " fill="none" id="ShippingAgentOrganization-to-VesselVisitNotification" style="stroke:#181818;stroke-width:1.0;"/><polygon fill="#181818" points="1109.55,318.4994,1119.3327,317.3598,1113.8534,315.9536,1115.2595,310.4743,1109.55,318.4994" style="stroke:#181818;stroke-width:1.0;"/><text fill="#000000" font-family="sans-serif" font-size="13" lengthAdjust="spacing" textLength="46" x="1239" y="254.1045">submits</text><text fill="#000000" font-family="sans-serif" font-size="13" lengthAdjust="spacing" textLength="7" x="1284.0055" y="208.0089">1</text><text fill="#000000" font-family="sans-serif" font-size="13" lengthAdjust="spacing" textLength="5" x="1116.6964" y="307.6112">*</text></g><!--link StaffMember to PhysicalResource--><g id="link_StaffMember_PhysicalResource"><path codeLine="171" d="M2252.81,454.1994 C2267,465.6094 2281.45,477.3694 2295,488.6094 C2322.95,511.7994 2348.4704,533.5461 2375.6504,557.0361 " fill="none" id="StaffMember-to-PhysicalResource" style="stroke:#181818;stroke-width:1.0;"/><polygon fill="#181818" points="2380.19,560.9594,2375.9961,552.0481,2376.407,557.69,2370.7651,558.1008,2380.19,560.9594" style="stroke:#181818;stroke-width:1.0;"/><text fill="#000000" font-family="sans-serif" font-size="13" lengthAdjust="spacing" textLength="28" x="2315" y="503.1045">uses</text><text fill="#000000" font-family="sans-serif" font-size="13" lengthAdjust="spacing" textLength="5" x="2260.3716" y="456.944">*</text><text fill="#000000" font-family="sans-serif" font-size="13" lengthAdjust="spacing" textLength="5" x="2367.5456" y="551.1957">*</text></g><!--link StaffMember to Dock--><g id="link_StaffMember_Dock"><path codeLine="172" d="M2075.42,456.7394 C2062.33,465.5494 2048.65,473.8194 2035,480.6094 C1986.13,504.9094 1962.97,485.1894 1917,514.6094 C1895.5,528.3694 1879.7858,543.0977 1863.3558,562.4277 " fill="none" id="StaffMember-to-Dock" style="stroke:#181818;stroke-width:1.0;"/><polygon fill="#181818" points="1859.47,566.9994,1868.3465,562.7324,1862.7082,563.1896,1862.2509,557.5513,1859.47,566.9994" style="stroke:#181818;stroke-width:1.0;"/><text fill="#000000" font-family="sans-serif" font-size="13" lengthAdjust="spacing" textLength="34" x="2015" y="503.1045">works</text><text fill="#000000" font-family="sans-serif" font-size="13" lengthAdjust="spacing" textLength="5" x="2062.5928" y="459.9004">*</text><text fill="#000000" font-family="sans-serif" font-size="13" lengthAdjust="spacing" textLength="5" x="1859.4169" y="556.1095">*</text></g><!--link StaffMember to Qualification--><g id="link_StaffMember_Qualification"><path codeLine="173" d="M2197.52,456.6794 C2204.79,475.2094 2211.61,495.3494 2216,514.6094 C2242.61,631.2694 2245.407,766.2697 2244.557,842.3897 " fill="none" id="StaffMember-to-Qualification" style="stroke:#181818;stroke-width:1.0;"/><polygon fill="#181818" points="2244.49,848.3894,2248.5902,839.4346,2244.5458,843.3897,2240.5907,839.3453,2244.49,848.3894" style="stroke:#181818;stroke-width:1.0;"/><text fill="#000000" font-family="sans-serif" font-size="13" lengthAdjust="spacing" textLength="21" x="2243" y="646.1045">has</text><text fill="#000000" font-family="sans-serif" font-size="13" lengthAdjust="spacing" textLength="5" x="2195.4766" y="477.9778">*</text><text fill="#000000" font-family="sans-serif" font-size="13" lengthAdjust="spacing" textLength="5" x="2239.3606" y="837.7089">*</text></g><!--link StaffMember to MemberStatus--><g id="link_StaffMember_MemberStatus"><path codeLine="174" d="M2156.34,456.6394 C2151.08,506.3594 2145.0012,563.9327 2141.0212,601.5527 " fill="none" id="StaffMember-to-MemberStatus" style="stroke:#181818;stroke-width:1.0;"/><polygon fill="#181818" points="2140.39,607.5194,2145.3147,598.9902,2140.916,602.5471,2137.3591,598.1485,2140.39,607.5194" style="stroke:#181818;stroke-width:1.0;"/><text fill="#000000" font-family="sans-serif" font-size="13" lengthAdjust="spacing" textLength="21" x="2154" y="503.1045">has</text><text fill="#000000" font-family="sans-serif" font-size="13" lengthAdjust="spacing" textLength="5" x="2150.3716" y="477.934">*</text><text fill="#000000" font-family="sans-serif" font-size="13" lengthAdjust="spacing" textLength="7" x="2133.3673" y="596.6162">1</text></g><!--link PhysicalResource to Qualification--><g id="link_PhysicalResource_Qualification"><path codeLine="175" d="M2399.73,722.7094 C2364.31,763.5894 2326.2185,807.5543 2294.6085,844.0443 " fill="none" id="PhysicalResource-to-Qualification" style="stroke:#181818;stroke-width:1.0;"/><polygon fill="#181818" points="2290.68,848.5794,2299.5962,844.3958,2293.9538,844.8002,2293.5495,839.1578,2290.68,848.5794" style="stroke:#181818;stroke-width:1.0;"/><text fill="#000000" font-family="sans-serif" font-size="13" lengthAdjust="spacing" textLength="21" x="2371" y="767.1045">has</text><text fill="#000000" font-family="sans-serif" font-size="13" lengthAdjust="spacing" textLength="5" x="2388.0215" y="744.5102">*</text><text fill="#000000" font-family="sans-serif" font-size="13" lengthAdjust="spacing" textLength="5" x="2291.4687" y="837.9232">*</text></g><!--link PhysicalResource to ResourceStatus--><g id="link_PhysicalResource_ResourceStatus"><path codeLine="176" d="M2470,722.7094 C2470,772.9094 2470,828.5994 2470,865.4194 " fill="none" id="PhysicalResource-to-ResourceStatus" style="stroke:#181818;stroke-width:1.0;"/><polygon fill="#181818" points="2470,871.4194,2474,862.4194,2470,866.4194,2466,862.4194,2470,871.4194" style="stroke:#181818;stroke-width:1.0;"/><text fill="#000000" font-family="sans-serif" font-size="13" lengthAdjust="spacing" textLength="21" x="2471" y="767.1045">has</text><text fill="#000000" font-family="sans-serif" font-size="13" lengthAdjust="spacing" textLength="5" x="2464.7695" y="744.5102">*</text><text fill="#000000" font-family="sans-serif" font-size="13" lengthAdjust="spacing" textLength="7" x="2462.3109" y="860.8783">1</text></g><!--SRC=[hLTBRziu4BxhLn3khTW6xTKeKcIJFHHeugxJJS-qD9QveKYL7DPrW_xt7JriKo9foyNgOZtc-StCnp4AbC3kTCM5OlUw09bbDS-VUGbizWJMWcGtPMcWv0Wpzf8nkdB9hMNzr_Vl_r8eSFV7KMwfDLvVTxBDzV5-eLor0ZDdGk7XjU8LpDaZ6g7AzkMlp3E_s2em1-k-kK2lzN5tD3wmSyjDgSdE4vSEs6BrB-I3uBxiwj3QtuwtRkUiq6ub8MBMmDQBZhrCY8HKxg71uRnYCa_5KMZ5PHlSw5j1s2_MVmg3cn6kluAgDccVhcmhCHd_0cnkHDq45tpBEJaVezbS5VyXAbSzjCsnM2_rrWuXMF7Tw0qACDO7E4pjILY13nh5MkGjMgVp3CMJBNsYM0QQnYBj9N1xnE03UrNJL35BHLTEIW-ldFngzKLKy8YygYE8TX8BXxcEJmhGM34_TBA4y39nmkwv4ckmU6v2C3OXtyvEo2VD2z9ehUzTHRo4YlyeUP6gtm6F6r7Nf7fJWiA5AKdvvyaUI2jC8RPH4qYIaW-nyU0Ie- -H_tWOKUC0YvkYCDIb- -J3ubWq01YEN8mVQcsHorlgnr1UEuLcTuAEFMYMK5DGX1SzVOVVu-XpN0Pq8iamWurM40BcTy1dRP1zL6l32HgNepD9dhlJ-VFlb3cQd0HLDhmxehW2wiXR8huxmzUOgFeZQaF9t1ZWKNJ70KKdb7pSfeWtTyOq_PxdhkOgFpd51r9CT62kjQ5f9Tpiv5E1IjRy-8EBVBrkA8cUAWejEQ-DtEWKlOIdexMxeDcQIzTW-jRzAbIXjqbkxW9jMDdPaxGyXeCM47ds_1eA_L-DVA9c_fXjTfOyIxO4gvt9aqEs5pp8JOmps7ikN3gy8Xt7m4_U0hgwENvZPnlXkeHlJfYs6MsomFkiffGuo_gLUVPwnjwykMQpTpD_rvgp3RSi5Bgwejjk7Mv5ifQt3jzVXqPwYNT7DuSndZFPt4B1E6O-prmexNbldSsR5USxs2nze1uzT1cbJvGkYGcM3hbFL-cSxy_LGOAfVJ2iL-zkYaAFpeRNDIXxgAwNGRT_THQZIvClF5pQEgN4mdHEBHdzNk_jrLNR317R5rb8n3STms357UWEMhVzNzPzRMy7G1__W5tUOM64rF9kLGaaEzwXv4z6m7rpvYoavVjUsMhpd1OQidwVI4oMKl3FdruqYEcSxRG2EHZoNw_n7m00]--></g></svg>