<?xml version="1.0" encoding="us-ascii" standalone="no"?><svg xmlns="http://www.w3.org/2000/svg" xmlns:xlink="http://www.w3.org/1999/xlink" contentStyleType="text/css" height="780px" preserveAspectRatio="none" style="width:665px;height:780px;background:#FFFFFF;" version="1.1" viewBox="0 0 665 780" width="665px" zoomAndPan="magnify"><defs/><g><text fill="#000000" font-family="sans-serif" font-size="14" font-weight="bold" lengthAdjust="spacing" textLength="151" x="250" y="24.5332">Level 3 - Logical View</text><!--cluster dotNetBackend--><g id="cluster_dotNetBackend"><path d="M8.5,98.6094 L117.5,98.6094 A3.75,3.75 0 0 1 120,101.1094 L127,122.2188 L655.5,122.2188 A2.5,2.5 0 0 1 658,124.7188 L658,771.1094 A2.5,2.5 0 0 1 655.5,773.6094 L8.5,773.6094 A2.5,2.5 0 0 1 6,771.1094 L6,101.1094 A2.5,2.5 0 0 1 8.5,98.6094 " fill="none" style="stroke:#000000;stroke-width:1.5;"/><line style="stroke:#000000;stroke-width:1.5;" x1="6" x2="127" y1="122.2188" y2="122.2188"/><text fill="#000000" font-family="sans-serif" font-size="14" font-weight="bold" lengthAdjust="spacing" textLength="108" x="10" y="115.1426">dotNetBackend</text></g><!--cluster FrameworksAndDriversLayer--><g id="cluster_FrameworksAndDriversLayer"><path d="M157.5,142.6094 L361.5,142.6094 A3.75,3.75 0 0 1 364,145.1094 L371,166.2188 L631.5,166.2188 A2.5,2.5 0 0 1 634,168.7188 L634,300.1094 A2.5,2.5 0 0 1 631.5,302.6094 L157.5,302.6094 A2.5,2.5 0 0 1 155,300.1094 L155,145.1094 A2.5,2.5 0 0 1 157.5,142.6094 " fill="#438DD5" style="stroke:#000000;stroke-width:1.5;"/><line style="stroke:#000000;stroke-width:1.5;" x1="155" x2="371" y1="166.2188" y2="166.2188"/><text fill="#000000" font-family="sans-serif" font-size="14" font-weight="bold" lengthAdjust="spacing" textLength="203" x="159" y="159.1426">FrameworksAndDriversLayer</text><text fill="#000000" font-family="sans-serif" font-size="14" font-style="italic" lengthAdjust="spacing" textLength="107" x="345" y="182.752">&#171;container (C4)&#187;</text></g><!--cluster InterfaceAdaptersLayer--><g id="cluster_InterfaceAdaptersLayer"><path d="M268.5,475.6094 L433.5,475.6094 A3.75,3.75 0 0 1 436,478.1094 L443,499.2188 L542.5,499.2188 A2.5,2.5 0 0 1 545,501.7188 L545,598.1094 A2.5,2.5 0 0 1 542.5,600.6094 L268.5,600.6094 A2.5,2.5 0 0 1 266,598.1094 L266,478.1094 A2.5,2.5 0 0 1 268.5,475.6094 " fill="#438DD5" style="stroke:#000000;stroke-width:1.5;"/><line style="stroke:#000000;stroke-width:1.5;" x1="266" x2="443" y1="499.2188" y2="499.2188"/><text fill="#000000" font-family="sans-serif" font-size="14" font-weight="bold" lengthAdjust="spacing" textLength="164" x="270" y="492.1426">InterfaceAdaptersLayer</text><text fill="#000000" font-family="sans-serif" font-size="14" font-style="italic" lengthAdjust="spacing" textLength="107" x="356" y="515.752">&#171;container (C4)&#187;</text></g><!--cluster ApplicationBusinessRules--><g id="cluster_ApplicationBusinessRules"><path d="M32.5,326.6094 L216.5,326.6094 A3.75,3.75 0 0 1 219,329.1094 L226,350.2188 L226.5,350.2188 A2.5,2.5 0 0 1 229,352.7188 L229,449.1094 A2.5,2.5 0 0 1 226.5,451.6094 L32.5,451.6094 A2.5,2.5 0 0 1 30,449.1094 L30,329.1094 A2.5,2.5 0 0 1 32.5,326.6094 " fill="#438DD5" style="stroke:#000000;stroke-width:1.5;"/><line style="stroke:#000000;stroke-width:1.5;" x1="30" x2="226" y1="350.2188" y2="350.2188"/><text fill="#000000" font-family="sans-serif" font-size="14" font-weight="bold" lengthAdjust="spacing" textLength="183" x="34" y="343.1426">ApplicationBusinessRules</text><text fill="#000000" font-family="sans-serif" font-size="14" font-style="italic" lengthAdjust="spacing" textLength="107" x="80" y="366.752">&#171;container (C4)&#187;</text></g><!--cluster BusinessRules--><g id="cluster_BusinessRules"><path d="M90.5,624.6094 L196.5,624.6094 A3.75,3.75 0 0 1 199,627.1094 L206,648.2188 L223.5,648.2188 A2.5,2.5 0 0 1 226,650.7188 L226,747.1094 A2.5,2.5 0 0 1 223.5,749.6094 L90.5,749.6094 A2.5,2.5 0 0 1 88,747.1094 L88,627.1094 A2.5,2.5 0 0 1 90.5,624.6094 " fill="#438DD5" style="stroke:#000000;stroke-width:1.5;"/><line style="stroke:#000000;stroke-width:1.5;" x1="88" x2="206" y1="648.2188" y2="648.2188"/><text fill="#000000" font-family="sans-serif" font-size="14" font-weight="bold" lengthAdjust="spacing" textLength="105" x="92" y="641.1426">BusinessRules</text><text fill="#000000" font-family="sans-serif" font-size="14" font-style="italic" lengthAdjust="spacing" textLength="107" x="107.5" y="664.752">&#171;container (C4)&#187;</text></g><!--entity ControllerAPI--><g id="elem_ControllerAPI"><ellipse cx="593" cy="408.1094" fill="#FFFFFF" rx="8" ry="8" style="stroke:#000000;stroke-width:0.5;"/><text fill="#000000" font-family="sans-serif" font-size="14" lengthAdjust="spacing" textLength="83" x="551.5" y="439.6426">ControllerAPI</text></g><!--entity PersistenceAPI--><g id="elem_PersistenceAPI"><ellipse cx="353" cy="408.1094" fill="#FFFFFF" rx="8" ry="8" style="stroke:#000000;stroke-width:0.5;"/><text fill="#000000" font-family="sans-serif" font-size="14" lengthAdjust="spacing" textLength="95" x="305.5" y="439.6426">PersistenceAPI</text></g><!--entity AppServiceAPI--><g id="elem_AppServiceAPI"><ellipse cx="387" cy="706.1094" fill="#FFFFFF" rx="8" ry="8" style="stroke:#000000;stroke-width:0.5;"/><text fill="#000000" font-family="sans-serif" font-size="14" lengthAdjust="spacing" textLength="93" x="340.5" y="737.6426">AppServiceAPI</text></g><!--entity RepoAPI--><g id="elem_RepoAPI"><ellipse cx="254" cy="408.1094" fill="#FFFFFF" rx="8" ry="8" style="stroke:#000000;stroke-width:0.5;"/><text fill="#000000" font-family="sans-serif" font-size="14" lengthAdjust="spacing" textLength="55" x="226.5" y="439.6426">RepoAPI</text></g><!--entity DomainAPI--><g id="elem_DomainAPI"><ellipse cx="157" cy="557.1094" fill="#FFFFFF" rx="8" ry="8" style="stroke:#000000;stroke-width:0.5;"/><text fill="#000000" font-family="sans-serif" font-size="14" lengthAdjust="spacing" textLength="69" x="122.5" y="588.6426">DomainAPI</text></g><!--entity AuthAPI--><g id="elem_AuthAPI"><ellipse cx="476" cy="408.1094" fill="#FFFFFF" rx="8" ry="8" style="stroke:#000000;stroke-width:0.5;"/><text fill="#000000" font-family="sans-serif" font-size="14" lengthAdjust="spacing" textLength="50" x="451" y="439.6426">AuthAPI</text></g><!--entity Routing--><g id="elem_Routing"><rect fill="#F1F1F1" height="72.8281" rx="2.5" ry="2.5" style="stroke:#181818;stroke-width:0.5;" width="123" x="494.5" y="205.1094"/><text fill="#000000" font-family="sans-serif" font-size="14" font-style="italic" lengthAdjust="spacing" textLength="86" x="513" y="229.6426">&#171;component&#187;</text><text fill="#000000" font-family="sans-serif" font-size="14" lengthAdjust="spacing" textLength="49" x="504.5" y="247.252">Routing</text><text fill="#000000" font-family="sans-serif" font-size="14" lengthAdjust="spacing" textLength="103" x="504.5" y="264.8613">(ASP.NET Core)</text></g><!--entity Authentication--><g id="elem_Authentication"><rect fill="#F1F1F1" height="72.8281" rx="2.5" ry="2.5" style="stroke:#181818;stroke-width:0.5;" width="119" x="340.5" y="205.1094"/><text fill="#000000" font-family="sans-serif" font-size="14" font-style="italic" lengthAdjust="spacing" textLength="86" x="357" y="229.6426">&#171;component&#187;</text><text fill="#000000" font-family="sans-serif" font-size="14" lengthAdjust="spacing" textLength="90" x="350.5" y="247.252">Authentication</text><text fill="#000000" font-family="sans-serif" font-size="14" lengthAdjust="spacing" textLength="99" x="350.5" y="264.8613">(Keycloak/JWT)</text></g><!--entity Database--><g id="elem_Database"><rect fill="#F1F1F1" height="90.4375" rx="2.5" ry="2.5" style="stroke:#181818;stroke-width:0.5;" width="134" x="171" y="196.6094"/><text fill="#000000" font-family="sans-serif" font-size="14" font-style="italic" lengthAdjust="spacing" textLength="86" x="195" y="221.1426">&#171;component&#187;</text><text fill="#000000" font-family="sans-serif" font-size="14" lengthAdjust="spacing" textLength="62" x="181" y="238.752">DataBase</text><text fill="#000000" font-family="sans-serif" font-size="14" lengthAdjust="spacing" textLength="114" x="181" y="256.3613">(Entity Framework</text><text fill="#000000" font-family="sans-serif" font-size="14" lengthAdjust="spacing" textLength="113" x="181" y="273.9707">Core + InMemory)</text></g><!--entity Controller--><g id="elem_Controller"><rect fill="#F1F1F1" height="55.2188" rx="2.5" ry="2.5" style="stroke:#181818;stroke-width:0.5;" width="106" x="423" y="529.6094"/><text fill="#000000" font-family="sans-serif" font-size="14" font-style="italic" lengthAdjust="spacing" textLength="86" x="433" y="554.1426">&#171;component&#187;</text><text fill="#000000" font-family="sans-serif" font-size="14" lengthAdjust="spacing" textLength="62" x="445" y="571.752">Controller</text></g><!--entity Repository--><g id="elem_Repository"><rect fill="#F1F1F1" height="55.2188" rx="2.5" ry="2.5" style="stroke:#181818;stroke-width:0.5;" width="106" x="282" y="529.6094"/><text fill="#000000" font-family="sans-serif" font-size="14" font-style="italic" lengthAdjust="spacing" textLength="86" x="292" y="554.1426">&#171;component&#187;</text><text fill="#000000" font-family="sans-serif" font-size="14" lengthAdjust="spacing" textLength="68" x="301" y="571.752">Repository</text></g><!--entity Service--><g id="elem_Service"><rect fill="#F1F1F1" height="55.2188" rx="2.5" ry="2.5" style="stroke:#181818;stroke-width:0.5;" width="106" x="104" y="380.6094"/><text fill="#000000" font-family="sans-serif" font-size="14" font-style="italic" lengthAdjust="spacing" textLength="86" x="114" y="405.1426">&#171;component&#187;</text><text fill="#000000" font-family="sans-serif" font-size="14" lengthAdjust="spacing" textLength="47" x="133.5" y="422.752">Service</text></g><!--entity Domain--><g id="elem_Domain"><rect fill="#F1F1F1" height="55.2188" rx="2.5" ry="2.5" style="stroke:#181818;stroke-width:0.5;" width="106" x="104" y="678.6094"/><text fill="#000000" font-family="sans-serif" font-size="14" font-style="italic" lengthAdjust="spacing" textLength="86" x="114" y="703.1426">&#171;component&#187;</text><text fill="#000000" font-family="sans-serif" font-size="14" lengthAdjust="spacing" textLength="48" x="133" y="720.752">Domain</text></g><!--entity RestAPI--><g id="elem_RestAPI"><ellipse cx="556" cy="52.6094" fill="#FFFFFF" rx="8" ry="8" style="stroke:#000000;stroke-width:0.5;"/><text fill="#000000" font-family="sans-serif" font-size="14" lengthAdjust="spacing" textLength="50" x="531" y="84.1426">RestAPI</text></g><!--entity DatabaseAPI--><g id="elem_DatabaseAPI"><ellipse cx="238" cy="52.6094" fill="#FFFFFF" rx="8" ry="8" style="stroke:#000000;stroke-width:0.5;"/><text fill="#000000" font-family="sans-serif" font-size="14" lengthAdjust="spacing" textLength="40" x="218" y="84.1426">DBAPI</text></g><!--entity IAMAPI--><g id="elem_IAMAPI"><ellipse cx="400" cy="52.6094" fill="#FFFFFF" rx="8" ry="8" style="stroke:#000000;stroke-width:0.5;"/><text fill="#000000" font-family="sans-serif" font-size="14" lengthAdjust="spacing" textLength="44" x="378" y="84.1426">IAMAPI</text></g><!--link RestAPI to Routing--><g id="link_RestAPI_Routing"><path codeLine="69" d="M556,61.6494 C556,85.9694 556,159.9094 556,204.7794 " fill="none" id="RestAPI-Routing" style="stroke:#181818;stroke-width:1.0;"/></g><!--link Routing to ControllerAPI--><g id="link_Routing_ControllerAPI"><path codeLine="70" d="M564.03,278.2994 C572.83,317.4194 584.1453,367.7432 588.9953,389.3032 " fill="none" id="Routing-to-ControllerAPI" style="stroke:#181818;stroke-width:1.0;"/><path d="M598.7655,394.2001 A9,9 0 0 0 582.2634 397.9123" fill="none" style="stroke:#181818;stroke-width:1.5;"/></g><!--link ControllerAPI to Controller--><g id="link_ControllerAPI_Controller"><path codeLine="71" d="M586.37,417.4294 C569.5,438.6294 524.35,495.3594 497.31,529.3394 " fill="none" id="ControllerAPI-Controller" style="stroke:#181818;stroke-width:1.0;"/></g><!--link IAMAPI to Authentication--><g id="link_IAMAPI_Authentication"><path codeLine="73" d="M400,61.6494 C400,85.9694 400,159.9094 400,204.7794 " fill="none" id="IAMAPI-Authentication" style="stroke:#181818;stroke-width:1.0;"/></g><!--link Authentication to AuthAPI--><g id="link_Authentication_AuthAPI"><path codeLine="74" d="M416.49,278.2994 C434.56,317.4194 462.32,377.4994 472.28,399.0594 " fill="none" id="Authentication-AuthAPI" style="stroke:#181818;stroke-width:1.0;"/></g><!--reverse link AuthAPI to Controller--><g id="link_AuthAPI_Controller"><path codeLine="75" d="M476,427.4294 C476,448.6294 476,495.3594 476,529.3394 " fill="none" id="AuthAPI-backto-Controller" style="stroke:#181818;stroke-width:1.0;"/><path d="M467.5428,420.5076 A9,9 0 0 0 484.4572 420.5076" fill="none" style="stroke:#181818;stroke-width:1.5;"/></g><!--link Controller to AppServiceAPI--><g id="link_Controller_AppServiceAPI"><path codeLine="77" d="M459.88,584.7294 C439.24,618.8194 409.8096,667.4353 397.0696,688.4753 " fill="none" id="Controller-to-AppServiceAPI" style="stroke:#181818;stroke-width:1.0;"/><path d="M400.7187,698.7768 A9,9 0 0 0 386.25 690.0158" fill="none" style="stroke:#181818;stroke-width:1.5;"/></g><!--link AppServiceAPI to Service--><g id="link_AppServiceAPI_Service"><path codeLine="78" d="M377.97,700.3194 C355.7,688.0594 297.67,653.3494 266,608.6094 C227.67,554.4594 252.59,523.5994 217,467.6094 C209.66,456.0694 199.62,445.1194 189.86,435.8794 " fill="none" id="AppServiceAPI-Service" style="stroke:#181818;stroke-width:1.0;"/></g><!--link Service to DomainAPI--><g id="link_Service_DomainAPI"><path codeLine="80" d="M157,435.7294 C157,469.8194 157,516.9894 157,538.0294 " fill="none" id="Service-to-DomainAPI" style="stroke:#181818;stroke-width:1.0;"/><path d="M165.4572,544.9512 A9,9 0 0 0 148.5428 544.9512" fill="none" style="stroke:#181818;stroke-width:1.5;"/></g><!--link DomainAPI to Domain--><g id="link_DomainAPI_Domain"><path codeLine="81" d="M157,566.4294 C157,587.6294 157,644.3594 157,678.3394 " fill="none" id="DomainAPI-Domain" style="stroke:#181818;stroke-width:1.0;"/></g><!--link Service to RepoAPI--><g id="link_Service_RepoAPI"><path codeLine="83" d="M210.05,408.1094 C221.61,408.1094 223.17,408.1094 234.73,408.1094 " fill="none" id="Service-to-RepoAPI" style="stroke:#181818;stroke-width:1.0;"/><path d="M241.6518,399.6521 A9,9 0 0 0 241.6518 416.5666" fill="none" style="stroke:#181818;stroke-width:1.5;"/></g><!--link RepoAPI to Repository--><g id="link_RepoAPI_Repository"><path codeLine="84" d="M258.35,417.3594 C263.64,427.3794 272.89,444.7794 281,459.6094 C293.99,483.3594 309.05,510.2194 319.96,529.5594 " fill="none" id="RepoAPI-Repository" style="stroke:#181818;stroke-width:1.0;"/></g><!--reverse link PersistenceAPI to Repository--><g id="link_PersistenceAPI_Repository"><path codeLine="86" d="M350.7673,427.3556 C348.1773,448.5556 342.44,495.3594 338.28,529.3394 " fill="none" id="PersistenceAPI-backto-Repository" style="stroke:#181818;stroke-width:1.0;"/><path d="M343.2119,419.4592 A9,9 0 0 0 360.0015 421.5104" fill="none" style="stroke:#181818;stroke-width:1.5;"/></g><!--link Database to PersistenceAPI--><g id="link_Database_PersistenceAPI"><path codeLine="87" d="M268.82,286.6894 C295.96,325.5194 333.3,378.9294 347.35,399.0294 " fill="none" id="Database-PersistenceAPI" style="stroke:#181818;stroke-width:1.0;"/></g><!--link DatabaseAPI to Database--><g id="link_DatabaseAPI_Database"><path codeLine="89" d="M238,61.6494 C238,84.5094 238,151.1694 238,196.3494 " fill="none" id="DatabaseAPI-Database" style="stroke:#181818;stroke-width:1.0;"/></g><!--SRC=[hLLBRzf04BxxLwpe1LJHAaegzO0YsP1Kj2H543MNNBRsrAnOTgtr6kHM_FUElG_RBL2IXWFQdVdsc_TOCys1p60Bd5oI8Pd9bCMKasyCTa6Ghvd8gA8R4ijD9WK8lTGbFb0GQofI3Ys8bv5V0S5VHEDrgcGXah7aKer62yXrE9zUNvCPIrSwuWKS1awefjzf3cU15xBGJAG879TKd2Oy2GeBlS80CNpDf3W97KkXbUGSbFFlam8GnyBEPCwqLEKPu2MeBOl18STIKNua9hcXh7BpgyAis-H8bO2g0IJY-AAMtgAtI_OJoCL5i6yNbGaDwWUDZrICFAwOFaQCHFq1wTcQzWZDYJtNyadafArYrfffUETKvXW46HBI54WlaVeUTEK6YAHdlQh_FEGM7OUTLEiy5Cb4iIseV4PBK3qo6iKOAIO55EcFhmQOcpTNbnydam-MoRDLFz_H68HfeIVH3vVpT_St3mJp3WCJbD7LvFO1yZPy-vFCtPv20r-WZBcaw_UV7n-CWIxaXNQg94UOPBHmWrow93vFJw8AXhmbKt476-p2GQSi_p28PUwaV-fQ9anefbyXzyqerMurrnTcefassvFk-in0mopZjYPHaMDSURueEEJ_4QgTxTelUtwcKw_bYTaTfW_gutb-LEFR5CXDSKVYSNFi3PPh434uO5VaaPXfcmq7x4WyhYfbishgizUPAFpASRV61WwPPpTd4vBTMMIOo9qOkcatAZlvHjK_46T7uYWQOREzpA9pYEx4ru0_ba0Bw6pPCncSCDCQ7kVqtwdiI9mbAsceN7ywdcvA_SszDu83prNr5SFtxOArPd9OP4Edi-rw2D8_r3jTaQ5oMwtnfFNvySuwqFut]--></g></svg>